<svg viewBox="0 0 2000 2000" xmlns="http://www.w3.org/2000/svg" xml:space="preserve" style="fill-rule:evenodd;clip-rule:evenodd">
    <path style="fill:none" d="M0 0h2000v2000H0z"/>
    <path d="M1399 457.84c0-25.3-15.18-45.84-33.88-45.84H585.88c-18.699 0-33.88 20.54-33.88 45.84v1054.32c0 25.3 15.181 45.84 33.88 45.84h779.24c18.7 0 33.88-20.54 33.88-45.84V457.84Z" style="fill:#e6e6e6" transform="matrix(2.36128 0 0 1.7452 -1303.42 -719.023)"/>
    <path d="M1959.39 160.04c0-40.312-34.38-73.04-76.72-73.04H117.334c-42.346 0-76.725 32.728-76.725 73.04v1679.92c0 40.31 34.379 73.04 76.725 73.04H1882.67c42.34 0 76.72-32.73 76.72-73.04V160.04Z" style="fill:#45a0e5" transform="matrix(1.01662 0 0 1.06791 -18.123 -69.908)"/>
    <path d="M445.74 1000.3V756.99h150.85v209.25h163.02V756.99h121.75l-1.307 5.475c-2.539 10.635-47.071 207.77-52.49 232.36-3.023 13.715-4.904 25.535-4.181 26.255.722.72 30.514 5.34 66.205 10.26l64.891 8.95 9.895-11.58c27.937-32.684 75.417-33.24 102.837-1.2 35.94 41.98 4.73 107.54-51.08 107.29-19.798-.09-35.654-7.38-50.542-23.24l-11.784-12.55-64.806 9.19c-35.644 5.05-65.351 9.73-66.017 10.39-2.54 2.54 10.5 34.53 20.974 51.45 19.244 31.09 42.436 50.85 76.365 65.07 8.629 3.61 16.146 7 16.703 7.53.557.53-39.132.96-88.2.96H759.61v-180.05H596.59v180.05H445.74v-243.3Z" style="fill:#fff;fill-rule:nonzero;stroke:#fff;stroke-width:2.43px" transform="translate(-631.472 -628.962) scale(1.62791)"/>
    <path d="M1113.7 1241.5c1.27-1.17 7.9-3.95 14.73-6.16 58.23-18.88 103.08-90.97 103.13-165.77.03-43.19-12.99-76.781-41.35-106.631-19.26-20.271-39.73-33.177-66.9-42.178-17.86-5.915-22.88-6.462-60.83-6.629-38.79-.17-42.69.239-62.676 6.595-11.722 3.727-22.957 7.407-24.967 8.178-2.36.906-3.274.23-2.58-1.91.59-1.822 4.529-18.367 8.753-36.767l7.679-33.455h220.991v-100.35l113.75 1.212c106.04 1.131 115.07 1.563 133.21 6.383 50.45 13.403 80.17 40.402 95.38 86.669 5.61 17.083 6.42 23.632 6.6 53.528.15 25.428-.89 38.073-4.09 49.878-13.92 51.407-51 87.447-103.98 101.067-19.47 5.01-65.58 8.18-121.05 8.32l-41.97.11v180.04h-88.08c-50.62 0-87.09-.9-85.76-2.13h.01Zm261.63-281.61c16.96-5.037 32.19-19.719 36.3-35.012 7.73-28.713-8.27-57.752-36.21-65.695-4.84-1.376-26.6-3.201-48.34-4.056l-39.54-1.553v113.44l37.32-1.609c22.55-.973 42.52-3.155 50.47-5.514v-.001Z" style="fill:#fff;fill-rule:nonzero;stroke:#fff;stroke-width:2.43px" transform="translate(-631.472 -628.962) scale(1.62791)"/>
</svg>
