<?xml version="1.0" encoding="UTF-8"?>
<svg id="Ebene_1" data-name="Ebene 1" xmlns="http://www.w3.org/2000/svg" xmlns:xlink="http://www.w3.org/1999/xlink" viewBox="0 0 2000 2000">
  <defs>
    <style>
      .cls-1, .cls-2, .cls-3, .cls-4 {
        fill: #fff;
      }

      .cls-5 {
        fill: #45a0e5;
      }

      .cls-5, .cls-6, .cls-7, .cls-8, .cls-9, .cls-10, .cls-11, .cls-12 {
        fill-rule: evenodd;
      }

      .cls-13, .cls-2 {
        font-family: Roboto-Black, Roboto;
        font-size: 400px;
        font-weight: 800;
        letter-spacing: .09em;
      }

      .cls-3 {
        stroke-miterlimit: 6.51;
        stroke-width: 3.96px;
      }

      .cls-3, .cls-4 {
        stroke: #fff;
      }

      .cls-14, .cls-11 {
        fill: #e4bc73;
      }

      .cls-15 {
        clip-path: url(#clippath-1);
      }

      .cls-6 {
        fill: #1f90e0;
      }

      .cls-7 {
        fill: #172c4f;
      }

      .cls-8, .cls-9 {
        fill: #172d4f;
      }

      .cls-16 {
        opacity: .4;
      }

      .cls-9 {
        stroke: #172d4f;
        stroke-linecap: round;
        stroke-linejoin: round;
        stroke-width: 11.62px;
      }

      .cls-17 {
        clip-path: url(#clippath);
      }

      .cls-10 {
        fill: #cdd7e4;
      }

      .cls-18 {
        fill: none;
      }

      .cls-4 {
        stroke-miterlimit: 6.19;
        stroke-width: 3.76px;
      }

      .cls-19 {
        fill: #e5bc71;
      }
    </style>
    <clipPath id="clippath">
      <rect class="cls-18" x="739.41" y="722.83" width="556.59" height="556.59" rx="22.26" ry="22.26"/>
    </clipPath>
    <clipPath id="clippath-1">
      <rect class="cls-18" x="739.41" y="722.83" width="556.59" height="556.59"/>
    </clipPath>
  </defs>
  <rect id="h5p_icon" data-name="h5p icon" class="cls-18" x="696.69" y="24.9" width="573.1" height="573.1"/>
  <g id="h5pIcon">
    <g>
      <path class="cls-5" d="M1262.29,53.85c0-12.34-10.02-22.35-22.35-22.35H725.68c-12.34,0-22.35,10.01-22.35,22.35V567.91c0,12.34,10.01,22.35,22.35,22.35h514.26c12.33,0,22.35-10.02,22.35-22.35V53.85Z"/>
      <g id="H5P">
        <path class="cls-3" d="M723.67,311.29v-113.5h70.37v97.61h76.04v-97.61h56.79l-.61,2.55c-1.18,4.96-21.96,96.92-24.49,108.39-1.41,6.4-2.29,11.91-1.95,12.25,.34,.34,14.23,2.49,30.88,4.79l30.27,4.17,4.62-5.4c13.03-15.25,35.18-15.51,47.97-.56,16.77,19.58,2.21,50.16-23.83,50.05-9.24-.04-16.63-3.44-23.58-10.84l-5.5-5.85-30.23,4.29c-16.63,2.36-30.48,4.54-30.8,4.85-1.18,1.18,4.9,16.11,9.78,24,8.98,14.5,19.8,23.72,35.62,30.35,4.03,1.68,7.53,3.27,7.79,3.51s-18.25,.45-41.14,.45h-41.62v-83.99h-76.04v83.99h-70.37v-113.49Z"/>
        <path class="cls-3" d="M1035.26,423.8c.59-.55,3.69-1.84,6.87-2.87,27.16-8.81,48.08-42.44,48.11-77.33,.01-20.15-6.06-35.82-19.29-49.74-8.98-9.46-18.53-15.48-31.21-19.67-8.33-2.76-10.67-3.01-28.38-3.09-18.09-.08-19.91,.11-29.24,3.08-5.47,1.74-10.71,3.46-11.65,3.81-1.1,.42-1.53,.11-1.2-.89,.28-.85,2.11-8.57,4.08-17.15l3.58-15.61h103.09v-46.81l53.06,.57c49.46,.53,53.68,.73,62.14,2.98,23.53,6.25,37.4,18.85,44.49,40.43,2.62,7.97,2.99,11.02,3.08,24.97,.07,11.86-.42,17.76-1.91,23.27-6.49,23.98-23.79,40.79-48.5,47.15-9.08,2.34-30.59,3.82-56.47,3.88l-19.58,.05v83.98h-41.09c-23.61,0-40.63-.42-40-.99h0Zm122.04-131.36c7.91-2.35,15.02-9.2,16.93-16.33,3.61-13.39-3.86-26.94-16.89-30.64-2.26-.64-12.41-1.49-22.55-1.89l-18.44-.72v52.92l17.41-.75c10.52-.45,19.83-1.47,23.54-2.57h0Z"/>
      </g>
    </g>
  </g>
  <g id="h5pVideoIcon">
    <rect class="cls-18" x="683.21" y="1384.48" width="600.52" height="600.52"/>
    <g id="Fernseher">
      <path class="cls-8" d="M1066.29,1914.42c0-.49-.39-.89-.88-.89h-163.86c-.49,0-.89,.4-.89,.89v42.53c0,.49,.4,.89,.89,.89h163.86c.49,0,.88-.4,.88-.89v-42.53Z"/>
      <path class="cls-8" d="M1172.61,1951.51c0-1.79-1.44-3.24-3.24-3.24h-371.79c-1.79,0-3.24,1.45-3.24,3.24v15.12c0,1.79,1.45,3.24,3.24,3.24h371.79c1.8,0,3.24-1.45,3.24-3.24v-15.12Z"/>
      <path class="cls-9" d="M1272.3,1440.98c0-14.4-11.69-26.1-26.1-26.1H720.75c-14.4,0-26.1,11.69-26.1,26.1v469.77c0,14.4,11.69,26.1,26.1,26.1h525.45c14.4,0,26.1-11.69,26.1-26.1v-469.77Z"/>
      <path class="cls-10" d="M1253.34,1449.45c0-7.98-6.47-14.45-14.45-14.45h-510.83c-7.98,0-14.45,6.48-14.45,14.45v452.84c0,7.98,6.48,14.45,14.45,14.45h510.83c7.98,0,14.45-6.48,14.45-14.45v-452.84Z"/>
      <g id="Videobutton">
        <g id="H5P-2" data-name="H5P">
          <path class="cls-4" d="M729.25,1696.72v-225.96h70.05v97.17h75.7v-97.17h56.54l-.61,2.54c-1.18,4.94-21.86,96.48-24.37,107.9-1.4,6.37-2.28,11.86-1.94,12.19,.34,.33,14.17,2.48,30.74,4.76l30.13,4.16,4.59-5.38c12.97-15.18,35.02-15.44,47.75-.56,16.69,19.49,2.2,49.94-23.72,49.82-9.19-.04-16.56-3.43-23.47-10.79l-5.47-5.83-30.09,4.27c-16.55,2.35-30.35,4.52-30.66,4.82-1.18,1.18,4.88,16.03,9.74,23.89,8.94,14.44,19.71,23.61,35.46,30.22,4.01,1.68,7.5,3.25,7.76,3.5s-18.17,.45-40.96,.45h-41.43v-83.61h-75.7v83.61h-70.05Z"/>
          <path class="cls-4" d="M1039.42,1695.75c.59-.54,3.67-1.83,6.84-2.86,27.04-8.77,47.87-42.24,47.89-76.98,.01-20.06-6.03-35.65-19.2-49.52-8.94-9.41-18.45-15.41-31.07-19.59-8.29-2.75-10.62-3-28.25-3.08-18.01-.08-19.82,.11-29.1,3.06-5.44,1.73-10.66,3.44-11.59,3.8-1.1,.42-1.52,.11-1.2-.89,.27-.85,2.1-8.53,4.06-17.07l3.57-15.54h102.62v-46.6l52.82,.56c49.24,.53,53.43,.73,61.86,2.96,23.43,6.22,37.23,18.76,44.29,40.25,2.61,7.93,2.98,10.97,3.06,24.86,.07,11.81-.41,17.68-1.9,23.16-6.46,23.87-23.68,40.61-48.28,46.93-9.04,2.33-30.45,3.8-56.21,3.86l-19.49,.05v83.6h-40.9c-23.51,0-40.44-.42-39.82-.99h0Zm121.49-130.77c7.88-2.34,14.95-9.16,16.86-16.26,3.59-13.33-3.84-26.82-16.81-30.51-2.25-.64-12.35-1.49-22.45-1.88l-18.36-.72v52.68l17.33-.75c10.47-.45,19.74-1.47,23.44-2.56h0Z"/>
        </g>
        <circle class="cls-19" cx="987.64" cy="1791.96" r="77.19"/>
        <path class="cls-8" d="M1035.56,1793.43l-76.58,45.89v-91.78l76.58,45.89Z"/>
      </g>
    </g>
  </g>
  <g id="textIcon">
    <g id="Pergament_darkblue_text-icon" data-name="Pergament darkblue text-icon">
      <g id="Pergament_darkblue_text-icon1" data-name="Pergament darkblue text-icon1">
        <g>
          <path class="cls-8" d="M1397.88,716.65s72.91-4.76,74.11,76.27c1.19,81.03-.54,413.59-.54,413.59,0,0,5.97,59.26,103.32,62.9h394.34c-98.97-5.38-102.78-62.47-102.78-62.47,0,0,1.2-333,0-414.03-1.2-81.03-74.11-76.27-74.11-76.27l-394.34-.05"/>
          <path class="cls-1" d="M1969.1,1275h-394.34c-.07,0-.14,0-.21,0-22.89-.86-42.8-4.83-59.19-11.81-13.37-5.69-24.45-13.39-32.93-22.87-14.71-16.44-16.48-32.57-16.55-33.25-.02-.2-.03-.39-.03-.59,.02-3.33,1.72-333.43,.54-413.48-.35-23.71-7.15-41.87-20.21-53.97-19.74-18.3-47.67-16.82-47.95-16.8-2.99,.18-5.57-2.01-5.9-4.95-.03-.22-.04-.45-.04-.68,0-3.09,2.5-5.59,5.59-5.59h1.54c.49,0,1.07,0,1.72,0l390.92,.05c3.03-.16,33.34-1.21,55.97,19.68,15.46,14.27,23.49,35.16,23.89,62.1,1.17,79.16,.04,402.64,0,413.86,.17,1.51,1.88,13.75,13.4,26.35,16.51,18.05,45.59,28.69,84.09,30.79,3.02,.16,5.37,2.71,5.29,5.73-.08,3.03-2.56,5.44-5.59,5.44Zm-394.23-11.18h337.38c-1.07-.42-2.12-.86-3.16-1.3-13.39-5.73-24.38-13.35-32.66-22.64-14.43-16.19-15.64-31.9-15.68-32.56,0-.13-.01-.26-.01-.39,.01-3.33,1.18-333.87,0-413.92-.35-23.71-7.15-41.87-20.21-53.97-19.74-18.3-47.67-16.82-47.95-16.8-.11,0-.24,.01-.35,.01l-350.02-.05c3.93,2.33,7.81,5.15,11.49,8.54,15.45,14.27,23.49,35.16,23.89,62.1,1.16,78.95-.47,400.47-.54,413.33,.27,1.8,2.52,14.45,14.23,27.26,16.89,18.46,45.8,28.97,83.6,30.4Z"/>
        </g>
      </g>
    </g>
    <path class="cls-1" d="M1796.56,1001.14h-256.36c-3.81,0-6.9-3.09-6.9-6.9s3.09-6.9,6.9-6.9h256.36c3.81,0,6.9,3.09,6.9,6.9s-3.09,6.9-6.9,6.9Z"/>
    <path class="cls-1" d="M1796.56,955.33h-256.36c-3.81,0-6.9-3.09-6.9-6.9s3.09-6.9,6.9-6.9h256.36c3.81,0,6.9,3.09,6.9,6.9s-3.09,6.9-6.9,6.9Z"/>
    <path class="cls-1" d="M1796.56,909.53h-256.36c-3.81,0-6.9-3.09-6.9-6.9s3.09-6.9,6.9-6.9h256.36c3.81,0,6.9,3.09,6.9,6.9s-3.09,6.9-6.9,6.9Z"/>
    <path class="cls-1" d="M1796.56,863.72h-256.36c-3.81,0-6.9-3.09-6.9-6.9s3.09-6.9,6.9-6.9h256.36c3.81,0,6.9,3.09,6.9,6.9s-3.09,6.9-6.9,6.9Z"/>
    <path class="cls-1" d="M1796.56,817.91h-256.36c-3.81,0-6.9-3.09-6.9-6.9s3.09-6.9,6.9-6.9h256.36c3.81,0,6.9,3.09,6.9,6.9s-3.09,6.9-6.9,6.9Z"/>
    <path class="cls-1" d="M1796.56,1046.95h-256.36c-3.81,0-6.9-3.09-6.9-6.9s3.09-6.9,6.9-6.9h256.36c3.81,0,6.9,3.09,6.9,6.9s-3.09,6.9-6.9,6.9Z"/>
    <path class="cls-1" d="M1796.56,1092.76h-256.36c-3.81,0-6.9-3.09-6.9-6.9s3.09-6.9,6.9-6.9h256.36c3.81,0,6.9,3.09,6.9,6.9s-3.09,6.9-6.9,6.9Z"/>
    <path class="cls-1" d="M1796.56,1138.57h-256.36c-3.81,0-6.9-3.09-6.9-6.9s3.09-6.9,6.9-6.9h256.36c3.81,0,6.9,3.09,6.9,6.9s-3.09,6.9-6.9,6.9Z"/>
  </g>
  <g id="videoIcon">
    <g id="screen_button-icon" data-name="screen button-icon">
      <rect class="cls-18" x="12.9" y="711" width="601.43" height="601.43"/>
      <g id="Fernseher-2" data-name="Fernseher">
        <path class="cls-8" d="M396.56,1241.74c0-.49-.39-.89-.88-.89H231.57c-.49,0-.89,.4-.89,.89v42.6c0,.49,.4,.89,.89,.89h164.1c.49,0,.88-.4,.88-.89v-42.6Z"/>
        <path class="cls-8" d="M553.07,1277.86c0-1.23-.99-2.22-2.2-2.22H76.37c-1.23,0-2.22,1-2.22,2.22v10.36c0,1.23,.99,2.22,2.22,2.22h474.5c1.21,0,2.2-1,2.2-2.22v-10.36Z"/>
        <path class="cls-8" d="M608.83,767.59c0-17.71-14.38-32.09-32.09-32.09H50.5c-17.71,0-32.09,14.38-32.09,32.09v470.48c0,17.71,14.38,32.09,32.09,32.09H576.74c17.71,0,32.09-14.38,32.09-32.09v-470.48Z"/>
        <path class="cls-10" d="M583.89,776.07c0-7.99-6.48-14.47-14.47-14.47H57.82c-7.99,0-14.47,6.49-14.47,14.47v453.52c0,7.99,6.49,14.47,14.47,14.47h511.6c7.99,0,14.47-6.49,14.47-14.47v-453.52Z"/>
        <g id="Videobutton-2" data-name="Videobutton">
          <circle class="cls-19" cx="313.62" cy="996.77" r="139.49"/>
          <path class="cls-8" d="M400.21,999.42l-138.38,82.93v-165.86l138.38,82.93Z"/>
        </g>
      </g>
    </g>
  </g>
  <g>
    <path class="cls-18" d="M1296,745.1c0-12.29-9.98-22.26-22.26-22.26H761.67c-12.29,0-22.26,9.98-22.26,22.26v512.06c0,12.29,9.98,22.26,22.26,22.26h512.06c12.29,0,22.26-9.98,22.26-22.26V745.1Z"/>
    <g class="cls-17">
      <g id="bild-icon">
        <rect class="cls-18" x="739.41" y="722.83" width="556.59" height="556.59"/>
        <g class="cls-15">
          <g>
            <g id="Berge">
              <g>
                <path class="cls-7" d="M827.47,934.02c67.02-15.69,423.25,285.09,423.25,285.09l-219.29,60.31-189.39-109.65s-75.09-221.58-14.57-235.75Z"/>
                <path class="cls-7" d="M1062.1,1006.14c75.31-10.45,487.66,226.38,487.66,226.38l-243.66,46.91-210.43-85.29s-105.11-178.08-33.57-188Z"/>
                <path class="cls-6" d="M1062.1,1006.14c59.07,0,244,273.29,244,273.29h-354.41s51.34-273.29,110.41-273.29Z"/>
                <path class="cls-5" d="M828.85,934.02c53.16,0,202.58,345.4,202.58,345.4h-318.97s63.23-345.4,116.4-345.4Z"/>
              </g>
            </g>
            <g id="Sonne">
              <circle class="cls-14" cx="815.26" cy="794.44" r="51.75"/>
              <path class="cls-11" d="M808.63,857.66v54.68c0,1.57,2.97,2.85,6.63,2.85s6.63-1.28,6.63-2.85v-54.68c0-1.57-2.97-2.85-6.63-2.85s-6.63,1.28-6.63,2.85Z"/>
              <path class="cls-11" d="M866.03,854.59l38.73,38.73c1.11,1.11,4.12-.08,6.71-2.67,2.59-2.59,3.79-5.59,2.67-6.71l-38.73-38.73c-1.11-1.11-4.12,.08-6.71,2.67s-3.79,5.59-2.67,6.71Z"/>
              <path class="cls-11" d="M887.11,801.07h54.66c1.57,0,2.85-2.97,2.85-6.63s-1.28-6.63-2.85-6.63h-54.66c-1.57,0-2.85,2.97-2.85,6.63s1.28,6.63,2.85,6.63Z"/>
            </g>
          </g>
        </g>
      </g>
    </g>
  </g>
  <g class="cls-16">
    <path class="cls-12" d="M1994.09,88.74c0-43.73-35.63-79.24-79.53-79.24H85.44C41.55,9.5,5.91,45.01,5.91,88.74V1911.26c0,43.73,35.63,79.24,79.53,79.24H1914.56c43.89,0,79.53-35.51,79.53-79.24V88.74Z"/>
  </g>
  <g id="Elemente">
    <text class="cls-13" transform="translate(33.44 1478.73)"><tspan x="0" y="0">Elemente</tspan></text>
    <text class="cls-2" transform="translate(14.83 1464.81)"><tspan x="0" y="0">Elemente</tspan></text>
  </g>
  <g id="Lern">
    <text class="cls-13" transform="translate(509.33 772.98)"><tspan x="0" y="0">Lern</tspan></text>
    <text class="cls-2" transform="translate(492.23 764)"><tspan x="0" y="0">Lern</tspan></text>
  </g>
</svg>