<?xml version="1.0" encoding="UTF-8"?>
<svg id="Ebene_1" data-name="Ebene 1" xmlns="http://www.w3.org/2000/svg" xmlns:xlink="http://www.w3.org/1999/xlink" viewBox="0 0 348.01 348.01">
  <defs>
    <style>
      .cls-1, .cls-2 {
        fill: none;
      }

      .cls-2 {
        stroke: #172d4d;
        stroke-miterlimit: 10;
        stroke-width: 6px;
      }

      .cls-3 {
        clip-path: url(#clippath-1);
      }

      .cls-4 {
        fill: #cfd8e5;
        fill-rule: evenodd;
      }

      .cls-5 {
        clip-path: url(#clippath);
      }
    </style>
    <clipPath id="clippath">
      <rect class="cls-1" x="73.87" y="74.01" width="200" height="200"/>
    </clipPath>
    <clipPath id="clippath-1">
      <rect class="cls-1" x="73.87" y="74.01" width="200" height="200"/>
    </clipPath>
  </defs>
  <rect class="cls-1" width="348.01" height="348.01"/>
  <g class="cls-5">
    <g class="cls-3">
      <g>
        <path class="cls-4" d="M173.86,146.19l-58.12-58.12c-3.84-3.84-10.07-3.84-13.91,0l-13.91,13.91c-3.84,3.84-3.84,10.07,0,13.91l58.12,58.12-58.12,58.12c-3.84,3.84-3.84,10.07,0,13.91l13.91,13.91c3.84,3.84,10.07,3.84,13.91,0l58.12-58.12,58.12,58.12c3.84,3.84,10.07,3.84,13.91,0l13.91-13.91c3.84-3.84,3.84-10.07,0-13.91l-58.12-58.12,58.12-58.12c3.84-3.84,3.84-10.07,0-13.91l-13.91-13.91c-3.84-3.84-10.07-3.84-13.91,0l-58.12,58.12h0Z"/>
        <path class="cls-2" d="M173.86,146.19l-58.12-58.12c-3.84-3.84-10.07-3.84-13.91,0l-13.91,13.91c-3.84,3.84-3.84,10.07,0,13.91l58.12,58.12-58.12,58.12c-3.84,3.84-3.84,10.07,0,13.91l13.91,13.91c3.84,3.84,10.07,3.84,13.91,0l58.12-58.12,58.12,58.12c3.84,3.84,10.07,3.84,13.91,0l13.91-13.91c3.84-3.84,3.84-10.07,0-13.91l-58.12-58.12,58.12-58.12c3.84-3.84,3.84-10.07,0-13.91l-13.91-13.91c-3.84-3.84-10.07-3.84-13.91,0l-58.12,58.12h0Z"/>
      </g>
    </g>
  </g>
</svg>