<svg viewBox="0 0 2000 2000" xmlns="http://www.w3.org/2000/svg" xml:space="preserve" style="fill-rule:evenodd;clip-rule:evenodd;stroke-linecap:round;stroke-linejoin:round;stroke-miterlimit:1.5">
    <path d="M1399 457.84c0-25.3-15.18-45.84-33.88-45.84H585.88c-18.699 0-33.88 20.54-33.88 45.84v1054.32c0 25.3 15.181 45.84 33.88 45.84h779.24c18.7 0 33.88-20.54 33.88-45.84V457.84Z" style="fill:#e6e6e6" transform="matrix(2.36128 0 0 1.7452 -1303.42 -719.023)"/>
    <path style="fill:#b9bec6" d="M-1024 1191.65h825.427v714.841H-1024z" transform="matrix(1.12299 -.64836 1.29672 .74866 -322.238 -121.233)"/>
    <path d="M-183.732 1185.22c0-3.97-2.828-6.42-7.42-6.42h-825.428c-4.59 0-10.25 2.45-14.84 6.42-4.59 3.98-7.42 8.88-7.42 12.86v714.84c0 3.97 2.83 6.42 7.42 6.42h825.426c4.592 0 10.25-2.45 14.842-6.42 4.592-3.98 7.42-8.88 7.42-12.85v-714.85Zm-29.682 19.28v689.14h-795.746V1204.5h795.746Z" style="fill:#172d4d" transform="matrix(1.12299 -.64836 1.29672 .74866 -322.238 -121.233)"/>
    <path style="fill:#e3e5e8" d="M-1024 1191.65h825.427v714.841H-1024z" transform="matrix(1.12299 .64836 0 1.21657 2149.94 -755.81)"/>
    <path d="M-183.732 1183.74c0-4.89-2.828-7.91-7.42-7.91h-825.428c-4.59 0-10.25 3.02-14.84 7.91-4.59 4.89-7.42 10.92-7.42 15.82v714.84c0 4.9 2.83 7.91 7.42 7.91h825.426c4.592 0 10.25-3.01 14.842-7.91 4.592-4.89 7.42-10.92 7.42-15.82v-714.84Zm-29.682 23.73v683.2h-795.746v-683.2h795.746Z" style="fill:#172d4d" transform="matrix(1.12299 .64836 0 1.21657 2149.94 -755.81)"/>
    <path style="fill:#8f97a3" d="M-1024 1191.65h825.427v714.841H-1024z" transform="matrix(1.12299 -.64836 0 1.21657 1222.99 -1548.47)"/>
    <path d="M-183.732 1199.56c0-4.9-2.828-10.93-7.42-15.82-4.592-4.89-10.25-7.91-14.842-7.91h-825.426c-4.59 0-7.42 3.02-7.42 7.91v714.84c0 4.9 2.83 10.93 7.42 15.82 4.59 4.9 10.25 7.91 14.84 7.91h825.428c4.592 0 7.42-3.01 7.42-7.91v-714.84Zm-29.682 7.91v683.2h-795.746v-683.2h795.746Z" style="fill:#172d4d" transform="matrix(1.12299 -.64836 0 1.21657 1222.99 -1548.47)"/>
    <path d="M1247.08 1216c137.65 0 249.41 127.89 249.41 285.41 0 157.53 38.79 285.41-249.41 285.41-272.18 0-249.419-127.88-249.419-285.41 0-157.52 111.759-285.41 249.419-285.41Z" style="fill:#45a0e5" transform="matrix(.76665 -.44263 0 1.0533 -256.46 121.835)"/>
    <path d="M777.081 814.835c-26.363-2.729-55.373 3.834-85.797 21.399C610.033 883.145 539.4 1000.18 508.43 1127.78c-26.55 81.03-32.645 161.46-17.302 266.4 1.039 7.1 6.911 74.41 31.941 106.32 111.62 86.09 157.992 67.31 173.475 64.38 26.908-5.07 61.378-19.01 105.258-44.35 92.145-53.2 142.072-105.15 169.293-158.9 40.315-79.62 30.255-164.06 30.255-266.55 0-84.27-21.902-148.671-56.096-186.699-4.798-7.399-11.73-15.054-21.347-22.201-111.813-83.091-118.212-73.703-118.212-73.703a23.476 23.476 0 0 0-23.717.142l-4.897 2.216Zm106.17 90.719c15.333 35.896 24.249 81.573 24.249 135.336 0 102.49 10.06 186.94-30.256 266.55-27.22 53.75-77.148 105.71-169.293 158.91-29.9 17.26-55.43 29.24-77.179 36.72 3.688 9.56 8.64 17.35 15.57 22.82 10.194 8.04 24.479 9.93 44.023 6.24 24.276-4.58 55.183-17.61 94.77-40.46 84.614-48.85 131.226-95.74 156.222-145.1 38.008-75.06 26.66-154.87 26.66-251.49 0-54.94-9.646-100.583-26.835-134.164-14.464-28.258-34.148-47.655-57.931-55.362Zm-37.914-2.601a163.34 163.34 0 0 1 1.994 3.778c17.189 33.581 26.835 79.225 26.835 134.159 0 96.62 11.348 176.44-26.66 251.49-24.995 49.36-71.608 96.25-156.222 145.1-26.456 15.28-49.035 26.16-68.347 33.07-6.29-41.89-4.018-96.99-4.018-154.67 0-159.85 81.212-337.894 182.882-396.593h.001c15.09-8.713 29.674-14.136 43.535-16.334Z" style="fill:#172d4d"/>
    <path d="M588.35 712.27c4.706 16.875 16.514 47.158 35.469 61.763 88.61 68.277 103.177 66.436 123.443 69.111 30.088 3.972 63.396 2.225 95.534-26.622 55.097-49.453 83.412-149.21 62.918-222.708-9.109-32.67-26.106-55.338-46.535-68.093-.883-.552-87.039-55.856-112.376-62.781-29.276-8-63.397-2.225-95.535 26.622-55.096 49.454-83.412 149.211-62.918 222.708Zm227.906-152.019c10.739 70.577-17.217 157.124-67.31 202.087-4.622 4.148-9.291 7.844-13.983 11.102 6.646 12.784 15.587 21.485 26.529 24.965 15.369 4.889 32.867-1.491 49.945-16.821 43.305-38.87 65.163-117.391 49.055-175.16-6.555-23.506-18.211-39.516-34.069-44.56a34.457 34.457 0 0 0-10.167-1.613Zm-44.607 23.02c2.891 49.953-16.253 106.457-49.234 139.543-2.89-49.954 16.254-106.457 49.234-139.543Z" style="fill:#172d4d" transform="matrix(1 0 0 1 0 51)"/>
    <path d="M1247.08 1216c137.65 0 249.41 127.89 249.41 285.41 0 157.53 38.79 285.41-249.41 285.41-272.18 0-249.419-127.88-249.419-285.41 0-157.52 111.759-285.41 249.419-285.41Z" style="fill:#45a0e5" transform="matrix(.76665 -.44263 0 1.0533 -162.609 176.02)"/>
    <path d="M1247.08 1216c137.65 0 249.41 127.89 249.41 285.41 0 157.53 38.79 285.41-249.41 285.41-272.18 0-249.419-127.88-249.419-285.41 0-157.52 111.759-285.41 249.419-285.41Z" style="fill:#59ace8" transform="matrix(.6621 -.38226 0 .90965 -5.956 322.881)"/>
    <path d="M1247.08 1216c137.65 0 249.41 127.89 249.41 285.41 0 157.53 38.79 285.41-249.41 285.41-272.18 0-249.419-127.88-249.419-285.41 0-157.52 111.759-285.41 249.419-285.41Z" style="fill:#92caf0" transform="matrix(.40962 -.2365 0 .56278 334.992 657.804)"/>
    <path d="M1247.08 1216c137.65 0 249.41 127.89 249.41 285.41 0 157.53 38.79 285.41-249.41 285.41-272.18 0-249.419-127.88-249.419-285.41 0-157.52 111.759-285.41 249.419-285.41Z" style="fill:#b8ddf5" transform="matrix(.24638 -.14225 0 .3385 546.333 894.533)"/>
    <ellipse cx="1110.03" cy="1218.51" rx="65.452" ry="94.16" style="fill:#45a0e5" transform="matrix(1.3324 -1.19594 .35216 1.26295 -1116.098 521.483)"/>
    <path style="fill:#8f97a3;stroke:#172d4d;stroke-width:25.24px" d="M1360.24-278.963h640.859v423.294H1360.24z" transform="rotate(30) skewX(30)"/>
    <circle cx="289.99" cy="272" r="96" style="fill:#45a0e5" transform="matrix(1.47831 .8535 0 1.70701 1026.801 46.708)"/>
    <path d="m990.236 816 75.714 151.426H914.523L990.236 816Z" style="fill:#172d4f" transform="matrix(0 1.28672 -.92975 -.5368 2302.265 -23.636)"/>
</svg>
