<?xml version="1.0" encoding="UTF-8"?>
<svg id="Ebene_1" data-name="Ebene 1" xmlns="http://www.w3.org/2000/svg" viewBox="0 0 2000 2000">
  <defs>
    <style>
      .cls-1 {
        fill: #172d4d;
      }

      .cls-2 {
        fill: #cfd8e5;
      }
    </style>
  </defs>
  <g>
    <path class="cls-2" d="m607.43,805.4c1.34-56.32,12.34-110.87,32.75-162.33,21.01-52.97,51-100.35,89.15-140.81l5.25-5.57-1.43-7.52c-25.99-136.43-96.71-247.29-204.51-320.61-81.86-55.67-158.44-71.58-166.9-73.21-9.4-1.81-17.47-7.11-22.73-14.92-4.96-7.37-6.75-16.15-5.04-24.74l.04-.23c3-16.44,17.18-28.37,33.73-28.37,1.92,0,3.87.17,5.78.5,14.3,2.84,325.28,68.53,415.57,398.96l5.23,19.14,16.99-10.25c57.88-34.93,123.01-53.39,188.36-53.39s130.87,18.36,188.51,53.1l17,10.24,5.22-19.14c20.71-75.99,54.92-144.04,101.68-202.28,37.6-46.83,83.42-87.55,136.21-121.04,88.86-56.37,168.73-73.82,177.54-75.63h.03c1.93-.33,3.89-.5,5.83-.5,16.75,0,31.09,11.93,34.09,28.37,3.34,18.51-9.23,36.56-28.02,40.19-8.5,1.66-85.14,17.75-166.69,73.27-107.74,73.35-178.43,184.2-204.41,320.55l-1.43,7.52,5.24,5.57c38.09,40.48,68.04,87.86,89.03,140.82,20.4,51.47,31.39,106.02,32.73,162.33h-784.81Z"/>
    <path class="cls-1" d="m1631.71,41.77c9.5,0,17.62,6.75,19.33,16.04,1.87,10.49-5.35,20.71-16.16,22.8-14.33,2.79-89.96,19.57-172.24,75.59-111.1,75.64-183.96,189.8-210.71,330.14l-2.86,15.03,10.49,11.14c36.79,39.09,65.72,84.87,86.01,136.07,17.88,45.12,28.3,92.71,31.06,141.8h-753.58c2.77-49.1,13.19-96.69,31.08-141.8,20.31-51.2,49.28-96.98,86.12-136.05l10.51-11.15-2.87-15.05c-26.75-140.42-99.65-254.6-210.81-330.21-82.59-56.17-158.18-72.78-172.51-75.54-5.44-1.05-10.1-4.09-13.11-8.56-1.92-2.85-3.95-7.49-2.77-13.45l.05-.23.04-.23c1.67-9.16,9.83-16.06,18.98-16.06,1.01,0,2.04.08,3.06.25,6.02,1.22,83.81,17.73,170.61,72.37,51.7,32.55,96.59,72.2,133.42,117.85,45.87,56.86,79.44,123.46,99.79,197.94l10.46,38.28,33.98-20.51c27.34-16.5,56.33-29.23,86.17-37.84,30.8-8.89,62.58-13.39,94.44-13.39s63.9,4.48,94.72,13.31c29.86,8.56,58.82,21.22,86.05,37.63l33.99,20.48,10.44-38.29c20.17-73.99,53.45-140.22,98.91-196.84,36.56-45.54,81.16-85.16,132.55-117.77,85.8-54.44,162.55-71.53,172.26-73.54,1.03-.16,2.08-.24,3.1-.24m0-30c-2.84,0-5.72.24-8.62.75-3.39.74-332.99,64.39-427.14,409.75-58.2-35.07-125.1-55.25-196.26-55.25s-137.77,20.33-196.11,55.55C709.13,76.91,379.97,13.55,376.29,12.82c-2.86-.51-5.72-.75-8.53-.75-23.38,0-44.15,16.87-48.49,40.68-5.3,26.67,12.82,52.16,39.64,57.32,12.23,2.36,298.07,59.38,359.51,381.91-77.65,82.36-126.13,197.44-126.13,325.18,0,1.48.29,2.51.29,3.24h814.79v-3.24c0-127.75-48.48-242.82-125.98-325.18,61.44-322.38,347.14-379.55,359.22-381.91,26.67-5.16,44.8-30.65,39.93-57.61-4.34-23.8-25.23-40.68-48.85-40.68h0Z"/>
  </g>
  <g>
    <path class="cls-2" d="m1868.31,1973.23c-24.76,0-45.82-17.59-50.1-41.82-.72-4.04-71.57-403.48-81.61-462.42l-1.34-7.87-7.27-3.29c-30.84-13.94-125.84-56.5-205.35-91.69l-16.54-7.32-4.13,17.62c-17.35,73.97-42.8,143.49-75.65,206.62-32.34,62.15-71.11,116.73-115.25,162.23-44.4,45.77-93.23,81.3-145.12,105.59-53.36,24.98-109.15,37.64-165.81,37.64s-112.48-12.68-165.84-37.68c-51.87-24.31-100.67-59.85-145.05-105.65-44.09-45.5-82.82-100.09-115.12-162.24-32.8-63.11-58.21-132.58-75.52-206.5l-4.12-17.58-16.53,7.28c-79.34,34.93-174.46,77.6-205.67,91.71l-7.26,3.28-1.35,7.85c-10.19,59.39-81.05,458.4-81.76,462.42-4.18,24.28-25.11,41.84-49.78,41.84-3,0-6.02-.27-9-.8-13.38-2.3-25.01-9.68-32.84-20.78-7.91-11.21-10.97-24.78-8.64-38.22l92.61-523.15,303.4-135.79-.97-10.67c-3.58-39.36-5.25-71.99-5.25-102.67,0-28.35,1.8-56.82,3.65-83.54l.84-12.2-304.91-84.92-116.49-376.45c-4.1-13.13-2.84-26.94,3.53-38.93,6.32-11.9,16.94-20.59,29.91-24.48l.2-.06c4.87-1.54,9.91-2.31,14.97-2.31,22.03,0,41.93,14.75,48.4,35.86.82,2.64,80.67,260.75,97.86,315.97l2.45,7.86,7.95,2.16c35.23,9.55,143.87,39.79,215.26,59.93l15.41,4.35,3.33-15.66c1.01-4.74,1.99-9.46,2.97-14.15.61-2.93,1.23-5.91,1.86-8.89h1002.26c.43,2.02.86,4.07,1.29,6.16,1.17,5.6,2.38,11.38,3.77,17.23l3.59,15.13,14.99-4.14c35.36-9.76,78.91-21.95,117.34-32.7,42.87-12,79.89-22.36,97.99-27.25l8-2.16,2.43-7.93c16.77-54.81,95.8-309.68,97.64-315.61,6.85-21.54,26.41-36.01,48.68-36.01,5.07,0,10.13.78,15.03,2.32l.11.03c26.64,8.16,41.85,36.72,33.95,63.69l-116.6,376.5-304.77,84.77.84,12.2c1.84,26.87,3.65,55.48,3.65,83.84,0,31.27-1.67,64.8-5.1,102.51l-.97,10.68,303.1,135.36,92.75,523.12c4.69,28.31-13.35,54.21-41.1,58.99-3.08.54-6.16.81-9.2.81h0Z"/>
    <path class="cls-1" d="m103.15,533.26h0c15.49,0,29.5,10.39,34.06,25.26v.04s.02.04.02.04c.8,2.6,80.66,260.73,97.85,315.95l4.9,15.73,15.9,4.31c35.21,9.55,143.78,39.77,215.12,59.89l30.82,8.69,6.66-31.32c.79-3.73,1.57-7.45,2.35-11.16h977.9c.82,3.87,1.69,7.83,2.64,11.85l7.19,30.26,29.98-8.27c35.37-9.76,78.93-21.95,117.35-32.7,42.85-11.99,79.85-22.35,97.9-27.22l16.01-4.32,4.85-15.86c16.74-54.71,95.58-308.97,97.62-315.54,2.42-7.54,7.04-13.96,13.38-18.57,6.13-4.46,13.58-6.91,20.98-6.91,3.54,0,7.08.55,10.52,1.63l.11.03.11.03c18.79,5.76,29.52,25.93,23.98,45.03l-114.14,368.55-285.1,79.3-23.57,6.55,1.68,24.4c1.83,26.6,3.61,54.91,3.61,82.81,0,30.81-1.65,63.9-5.03,101.16l-1.94,21.36,19.59,8.75,286.04,127.74,91.35,515.19c3.29,20.03-9.37,38.33-28.86,41.69h-.05s-.05.02-.05.02c-2.18.38-4.39.58-6.56.58-17.46,0-32.32-12.38-35.33-29.46-.71-4.03-71.56-403.41-81.59-462.3l-2.68-15.73-14.54-6.57c-30.94-13.98-126.06-56.59-205.46-91.74l-33.09-14.65-8.26,35.23c-17.06,72.76-42.08,141.1-74.35,203.12-31.67,60.86-69.59,114.26-112.71,158.71-43.13,44.46-90.47,78.93-140.72,102.45-51.35,24.04-105,36.22-159.45,36.22s-108.13-12.2-159.47-36.26c-50.22-23.53-97.54-58.02-140.64-102.51-43.08-44.46-80.96-97.86-112.58-158.72-32.22-62-57.19-130.3-74.22-203l-8.24-35.17-33.06,14.55c-79.27,34.9-174.52,77.63-205.8,91.76l-14.52,6.56-2.69,15.7c-10.18,59.34-81.03,458.31-81.75,462.33v.08s-.03.08-.03.08c-2.92,16.98-17.64,29.31-34.98,29.31-2.12,0-4.26-.19-6.37-.57h-.08s-.08-.03-.08-.03c-9.34-1.61-17.53-6.8-23.04-14.62-5.59-7.93-7.77-17.52-6.12-27l91.21-515.28,286.37-128.17,19.56-8.76-1.94-21.34c-3.54-38.91-5.18-71.1-5.18-101.31,0-27.89,1.78-56.05,3.61-82.51l1.69-24.4-23.56-6.56-285.25-79.45-114.07-368.63v-.04s-.02-.04-.02-.04c-2.88-9.23-2.01-18.96,2.47-27.38,4.43-8.33,11.87-14.42,20.97-17.15l.2-.06.2-.06c3.41-1.08,6.93-1.62,10.46-1.62m0-30c-6.45,0-13,.97-19.47,3.01-34.92,10.46-54.37,47.29-43.46,82.21l118.91,384.27,301.02,83.84c-1.91,27.7-3.68,55.84-3.68,84.58,0,35.07,2.21,69.99,5.31,104.02l-300.88,134.67-94,531.02c-6.19,35.66,17.68,70.14,53.63,76.33,3.9.69,7.79,1.03,11.62,1.03,31.21,0,59.04-22.2,64.55-54.22,0,0,71.46-402.39,81.78-462.51,29.02-13.11,124.21-55.84,205.54-91.65,71.17,303.82,275.38,523.65,516.13,523.65s445.12-219.54,516.43-523.65c80.89,35.81,176.22,78.53,205.25,91.65,10.16,59.67,81.63,462.51,81.63,462.51,5.64,32.01,33.37,54.22,64.87,54.22,3.87,0,7.8-.34,11.75-1.03,35.95-6.19,59.38-40.23,53.34-76.33l-94.15-531.02-300.57-134.23c3.09-34.04,5.16-68.95,5.16-103.87,0-28.73-1.77-57.02-3.68-84.87l300.87-83.69,119.05-384.41c10.31-34.93-9.29-71.76-43.91-82.37-6.49-2.04-13.07-3.02-19.53-3.02-28,0-54,18.23-62.98,46.48,0,0-80.59,259.91-97.68,315.75-34.92,9.43-141.74,39.64-215.41,59.97-2.8-11.79-4.86-23.43-7.66-34.92H486.5c-2.51,11.5-4.86,23.14-7.37,34.92-73.67-20.77-180.64-50.54-215.41-59.97-17.38-55.84-97.83-315.9-97.83-315.9-8.62-28.15-34.69-46.47-62.74-46.47h0Z"/>
  </g>
</svg>