<?xml version="1.0" encoding="UTF-8" standalone="no"?>
<!DOCTYPE svg PUBLIC "-//W3C//DTD SVG 1.1//EN" "http://www.w3.org/Graphics/SVG/1.1/DTD/svg11.dtd">
<svg width="100%" height="100%" viewBox="0 0 2000 2000" version="1.1" xmlns="http://www.w3.org/2000/svg" xmlns:xlink="http://www.w3.org/1999/xlink" xml:space="preserve" xmlns:serif="http://www.serif.com/" style="fill-rule:evenodd;clip-rule:evenodd;stroke-linejoin:round;stroke-miterlimit:2;">
    <rect id="url_www_icon" x="0" y="0" width="2000" height="2000" style="fill:none;"/>
    <clipPath id="_clip1">
        <rect id="url_www_icon1" serif:id="url_www_icon" x="0" y="0" width="2000" height="2000"/>
    </clipPath>
    <g clip-path="url(#_clip1)">
        <g transform="matrix(1.10262,0,0,1.121,-143.486,77.7028)">
            <circle cx="1037.06" cy="822.748" r="892.064" style="fill:rgb(22,155,188);"/>
        </g>
        <path d="M904.331,1273.97L904.215,1273.69L903.945,1273.12L903.569,1272.4L903.418,1272.14C902.386,1270.35 900.997,1268.72 899.269,1267.37C899.269,1267.37 747.645,1148.76 718.192,1125.72C718.192,1125.72 682.369,938.862 682.369,938.862C680.86,930.992 673.964,925.309 665.95,925.333L332.95,926.333C325.964,926.354 319.732,930.73 317.34,937.294L227.34,1184.29C225.377,1189.68 226.322,1195.7 229.843,1200.23L482.197,1524.78C493.679,1557.05 611.298,1887.59 611.298,1887.59C613.368,1893.41 618.486,1897.6 624.598,1898.49C630.709,1899.38 636.812,1896.82 640.456,1891.83L907.456,1526.5C909.613,1523.55 910.74,1519.97 910.663,1516.31L905.663,1280.15C905.616,1277.95 905.147,1275.87 904.331,1273.97Z" style="fill:rgb(49,189,44);"/>
        <path d="M1524.5,674.118C1521.4,672.552 1517.79,671.938 1514.11,672.586L1341.04,703.086C1337.63,703.687 1334.5,705.332 1332.07,707.794L1216.14,825.294C1214.45,827.008 1213.15,829.067 1212.33,831.33L1147.33,1011C1145.33,1016.52 1146.39,1022.69 1150.11,1027.23L1206.11,1095.56C1206.8,1096.41 1207.58,1097.19 1208.43,1097.88C1208.43,1097.88 1303.02,1175.45 1334.9,1196.01C1345.8,1203.03 1365.86,1208.14 1388.86,1210.96C1436.55,1216.8 1497.59,1214.66 1497.59,1214.66C1500.35,1214.56 1503.05,1213.77 1505.43,1212.38L1572.21,1173.2C1572.21,1173.2 1671,1228.27 1671,1228.27C1674.59,1240.78 1682.3,1270.55 1683.46,1299.88C1683.93,1311.77 1683.36,1323.58 1680.69,1333.93C1678.6,1342.08 1675.32,1349.31 1669.46,1354.09C1626.76,1388.94 1519.69,1487.75 1519.69,1487.75C1518.97,1488.42 1518.31,1489.15 1517.72,1489.93C1517.72,1489.93 1429.92,1606.12 1420.97,1624.8C1414.53,1638.24 1402.27,1696.76 1397.21,1737C1394.79,1756.19 1394.35,1771.65 1395.76,1777.76C1396.6,1781.37 1398.54,1785.31 1402.29,1789.03C1405.87,1792.58 1412.27,1796.6 1420.94,1800.24C1457.1,1815.4 1542.13,1830.42 1542.13,1830.42C1547.24,1831.31 1552.47,1829.78 1556.28,1826.27L1756.28,1642.27C1757.54,1641.11 1758.62,1639.76 1759.47,1638.28L1959.47,1288.78C1960.54,1286.9 1961.24,1284.82 1961.52,1282.67L2000.13,989.174C2000.35,987.54 2000.32,985.884 2000.05,984.259L1955.44,716.759C1954.58,711.572 1951.31,707.098 1946.64,704.688L1788.64,623.188C1783.75,620.666 1777.93,620.719 1773.09,623.33L1662.44,682.985C1662.44,682.985 1533.36,672.389 1533.36,672.389C1530.19,672.129 1527.15,672.777 1524.5,674.118Z" style="fill:rgb(49,189,44);"/>
        <path d="M406.577,818.273C406.407,816.642 405.997,815.044 405.361,813.532L373.361,737.532C372.697,735.957 371.796,734.493 370.687,733.192L329.859,685.263C329.859,685.263 347.595,591.512 347.595,591.512C347.595,591.512 514.564,532.377 514.564,532.377C514.678,532.337 514.791,532.295 514.904,532.253L602.904,498.919C604.575,498.286 606.134,497.388 607.52,496.26L718.52,405.927C719.574,405.07 720.518,404.087 721.333,403L772.432,334.868C772.432,334.868 851.346,304.936 851.346,304.936C851.346,304.936 927.547,311.603 927.547,311.603C932.154,312.006 936.721,310.477 940.157,307.381C943.592,304.286 945.587,299.902 945.664,295.278L947.664,175.278C947.794,167.527 942.562,160.711 935.042,158.831L827.042,131.831C826.08,131.59 825.098,131.436 824.109,131.37L765.563,127.467C765.563,127.467 651.883,99.529 651.883,99.529C651.883,99.529 626.358,82.209 626.358,82.209C621.308,78.782 614.789,78.389 609.364,81.186L560.864,106.186C560.351,106.45 559.852,106.741 559.37,107.057L418.87,199.057C418.34,199.404 417.83,199.78 417.344,200.185L322.344,279.185C322,279.471 321.668,279.771 321.348,280.083L231.348,368.083C230.385,369.025 229.54,370.079 228.831,371.224L164.831,474.558C164.478,475.128 164.159,475.719 163.878,476.327L130.825,547.668C130.825,547.668 93.327,601.47 93.327,601.47C89.442,607.043 89.329,614.417 93.041,620.106C96.753,625.796 103.546,628.664 110.212,627.354L209.659,607.82C209.659,607.82 227.704,644.662 227.704,644.662C227.704,644.662 250.438,703.966 250.438,703.966C251.073,705.624 251.97,707.17 253.094,708.545L316.333,785.943C316.333,785.943 316.333,855 316.333,855C316.333,859.028 317.792,862.92 320.441,865.956L361.441,912.956C362.757,914.465 364.335,915.725 366.098,916.675L392.098,930.675C397.536,933.602 404.147,933.284 409.277,929.846C414.408,926.408 417.217,920.416 416.577,914.273L406.577,818.273Z" style="fill:rgb(49,189,44);"/>
        <path d="M1383.62,292.154L1372.42,290.51C1367.19,289.742 1361.91,291.501 1358.18,295.249C1354.45,298.998 1352.73,304.292 1353.53,309.517L1364.28,379.889C1364.28,379.889 1361.35,444.243 1361.35,444.243C1361.35,444.351 1361.34,444.458 1361.34,444.565L1360.4,480.675C1360.4,480.675 1352.83,505.885 1352.83,505.885C1352.83,505.885 1262.13,562.889 1262.13,562.889C1258.1,565.426 1255.34,569.57 1254.56,574.273C1253.78,578.977 1255.05,583.789 1258.05,587.493L1305.05,645.493C1308.88,650.223 1314.99,652.487 1320.98,651.398L1408.98,635.398C1414.97,634.309 1419.89,630.044 1421.81,624.27L1438.37,574.604L1451.19,569.475C1452.64,568.895 1454,568.114 1455.23,567.156L1503.23,529.823C1506.88,526.986 1509.18,522.762 1509.6,518.161L1511.23,500C1511.23,500 1531,500 1531,500C1534.36,500 1537.64,498.984 1540.42,497.085L1563.9,481.006C1563.9,481.006 1572.4,492.966 1572.4,492.966C1572.4,492.966 1585.52,511.556 1585.52,511.556C1585.52,511.556 1586.34,534.595 1586.34,534.595C1586.4,536.145 1586.67,537.681 1587.15,539.156C1587.15,539.156 1591.01,550.919 1599.5,559.39C1606.81,566.68 1616.91,571.693 1629.88,569.415C1647.42,566.336 1653.87,558.707 1656.82,554.133L1700.65,531.472C1707.48,527.941 1711.01,520.198 1709.19,512.728C1707.38,505.258 1700.69,500 1693,500L1682.67,500C1682.67,494.956 1680.38,490.184 1676.45,487.02C1676.45,487.02 1651.57,467.346 1643.04,454.018C1642.81,453.666 1642.59,453.317 1642.37,452.97C1642.37,452.97 1660.59,451.251 1660.59,451.251C1660.59,451.251 1694.23,479.723 1694.23,479.723C1696.35,481.512 1698.87,482.745 1701.58,483.313L1779.58,499.646C1780.71,499.881 1781.85,500 1783,500L1835,500C1841.41,500 1847.25,496.324 1850.03,490.545C1852.8,484.767 1852.01,477.909 1848,472.908L1786.72,396.471C1786.72,396.471 1747.31,330.457 1747.31,330.457C1746.4,328.936 1745.26,327.57 1743.92,326.41L1660.92,254.41C1660.61,254.141 1660.29,253.883 1659.96,253.637L1498.96,133.637C1493.36,129.459 1485.74,129.223 1479.89,133.045L1431.56,164.604C1431.56,164.604 1388.28,187.23 1388.28,187.23C1387.2,187.792 1386.19,188.47 1385.26,189.251L1347.26,221.251C1340.32,227.097 1339.33,237.422 1345.04,244.479L1383.04,291.479C1383.23,291.71 1383.42,291.935 1383.62,292.154ZM1641.18,547.054L1644,558.667C1644,558.667 1636.09,557.161 1631.12,552.096C1636.23,550.724 1639.32,548.83 1641.18,547.054ZM1519.24,255.14C1508.86,250.756 1497.88,246.391 1478.91,253.584C1456.76,261.982 1446.68,267.562 1446.68,267.562C1446.68,267.562 1447.16,267.208 1447.16,267.208C1447.16,267.208 1437,270.667 1437,270.667L1446.17,267.92L1405.17,294.92L1404.65,295.241L1474.32,305.468C1474.32,305.468 1499.51,285.622 1499.51,285.622L1519.24,255.14Z" style="fill:rgb(49,189,44);"/>
        <path d="M972.234,135.723C972.69,136.109 973.167,136.47 973.662,136.805L1041.66,182.805C1044.23,184.543 1047.23,185.529 1050.33,185.653L1100.33,187.653C1101.21,187.689 1102.1,187.654 1102.97,187.55L1186.97,177.55C1193.58,176.763 1199.09,172.118 1200.98,165.735L1208.98,138.735C1209.4,137.322 1209.63,135.86 1209.66,134.387L1210.66,91.387C1210.77,86.602 1208.82,82 1205.31,78.753L1166.31,42.753C1165.36,41.879 1164.31,41.117 1163.19,40.484L1124.19,18.484C1121.69,17.074 1118.87,16.333 1116,16.333L1022.17,16.333C1022.17,16.333 926.347,14.337 926.347,14.337C918.371,14.171 911.396,19.68 909.71,27.478L901.71,64.478C900.408,70.498 902.533,76.745 907.234,80.723L972.234,135.723Z" style="fill:rgb(49,189,44);"/>
        <g transform="matrix(0.989691,0,0,0.989691,10.3093,10.3093)">
            <path d="M999.508,-10.417C999.508,-10.417 998.618,-10.416 998.618,-10.416L998.521,-10.416C441.521,-9.602 -10.417,442.838 -10.417,1000C-10.417,1557.16 441.521,2009.6 998.521,2010.42C998.839,2010.42 999.174,2010.42 999.508,2010.42L999.654,2010.42L1000,2010.42C1557.66,2010.42 2010.42,1557.66 2010.42,1000C2010.42,1000 2010.42,999.183 2010.42,999.183C2010.4,982.127 2009.97,965.072 2009.1,948.037C2007.56,917.647 2004.65,887.327 2000.38,857.199C1991.88,797.196 1977.95,737.97 1958.77,680.48C1942.38,631.34 1922.17,583.478 1898.41,537.45C1874.18,490.522 1846.25,445.506 1815,402.933C1783.59,360.144 1748.81,319.826 1711.11,282.46C1673.4,245.089 1632.77,210.673 1589.7,179.642C1548.9,150.248 1505.91,123.894 1461.19,100.891C1417.19,78.255 1371.52,58.868 1324.66,42.958C1266.31,23.147 1206.14,8.742 1145.16,-0.048C1114.52,-4.463 1083.68,-7.466 1052.77,-9.06C1035.19,-9.966 1017.6,-10.41 1000,-10.417L999.654,-10.417L999.508,-10.417ZM749.943,1527.08L1249.07,1527.08C1227.73,1626.03 1200.51,1712.56 1168.83,1782.19C1143.26,1838.38 1114.98,1883.26 1084.3,1913.91C1057.48,1940.69 1029.31,1956.25 999.508,1956.25C969.707,1956.25 941.536,1940.69 914.721,1913.91C884.035,1883.26 855.755,1838.38 830.189,1782.19C798.507,1712.56 771.286,1626.03 749.943,1527.08ZM695.43,1527.08L475.193,1527.08C517.204,1623.29 570.455,1707.49 632.232,1775.44C698.952,1848.83 775.602,1903.09 858.65,1932.23L858.626,1932.2C840.288,1910.55 824.552,1886.8 810.572,1862.14C803.52,1849.7 796.909,1837.01 790.66,1824.14C783.846,1810.12 777.461,1795.89 771.433,1781.51C764.013,1763.82 757.126,1745.9 750.693,1727.82C743.809,1708.47 737.42,1688.95 731.464,1669.31C717.398,1622.91 705.704,1575.81 695.702,1528.38L695.43,1527.08ZM1523.82,1527.08L1303.59,1527.08L1303.31,1528.38C1293.31,1575.81 1281.62,1622.91 1267.55,1669.31C1261.6,1688.95 1255.21,1708.47 1248.32,1727.82C1241.89,1745.9 1235,1763.82 1227.58,1781.51C1221.56,1795.89 1215.17,1810.12 1208.36,1824.14C1202.11,1837.01 1195.5,1849.7 1188.44,1862.14C1174.46,1886.8 1158.73,1910.55 1140.39,1932.2L1140.37,1932.23C1223.41,1903.09 1300.07,1848.83 1366.79,1775.44C1428.56,1707.49 1481.81,1623.29 1523.82,1527.08ZM1581.91,1527.18C1561.74,1575.98 1538.33,1623.47 1511.31,1668.85C1491.44,1702.22 1469.61,1734.45 1445.7,1765.07C1410.95,1809.57 1371.73,1850.72 1327.88,1886.35C1318.2,1894.22 1308.29,1901.8 1298.17,1909.1L1297.69,1909.5C1311.37,1905.02 1324.96,1900.23 1338.43,1895.12C1364.07,1885.41 1389.29,1874.59 1414,1862.7C1466.48,1837.45 1516.62,1807.38 1563.64,1773.02C1617.36,1733.77 1666.99,1688.93 1711.48,1639.46C1732.14,1616.5 1751.69,1592.54 1770.04,1567.7C1779.74,1554.58 1789.09,1541.21 1798.1,1527.62L1798.46,1527.08L1581.95,1527.08L1581.91,1527.18ZM417.064,1527.08L201.543,1527.08L201.896,1527.62C210.78,1541.01 219.99,1554.19 229.531,1567.12C247.723,1591.78 267.095,1615.58 287.557,1638.39C331.818,1687.75 381.178,1732.52 434.617,1771.75C481.554,1806.21 531.626,1836.39 584.037,1861.75C608.714,1873.7 633.907,1884.58 659.523,1894.35C672.978,1899.48 686.549,1904.3 700.221,1908.82L700.095,1908.56C689.981,1901.24 680.077,1893.64 670.399,1885.75C626.652,1850.11 587.524,1808.96 552.854,1764.49C529.123,1734.04 507.452,1702.01 487.705,1668.85C460.683,1623.47 437.274,1575.98 417.103,1527.18L417.064,1527.08ZM1956.42,1027.08L1681.65,1027.08C1678.79,1187.96 1650.54,1339.42 1602.79,1472.92L1831.78,1472.92L1832.11,1472.33C1848.71,1443.14 1863.8,1413.09 1877.24,1382.31C1896.51,1338.21 1912.42,1292.66 1924.78,1246.15C1935.97,1204.09 1944.25,1161.25 1949.57,1118.05C1953.27,1088.08 1955.53,1057.94 1956.4,1027.75L1956.42,1027.08ZM317.365,1027.08L43.58,1027.08L43.599,1027.75C44.473,1057.94 46.734,1088.08 50.428,1118.05C55.753,1161.25 64.035,1204.09 75.22,1246.15C87.584,1292.66 103.493,1338.21 122.757,1382.31C136.202,1413.09 151.287,1443.14 167.892,1472.33L168.225,1472.92L396.223,1472.92C348.478,1339.41 320.226,1187.96 317.365,1027.08ZM1628.02,1027.08L1354.23,1027.08L1354.23,1027.09C1354.05,1046.44 1353.69,1065.8 1353.14,1085.15C1351.43,1144.81 1347.91,1204.42 1342.41,1263.85C1337.27,1319.48 1330.4,1374.96 1321.5,1430.11C1319.26,1444 1316.89,1457.87 1314.39,1471.71L1314.17,1472.92L1545.81,1472.92C1595.6,1340.59 1625.06,1188.76 1628.02,1027.08ZM1300.61,1027.08L1300.6,1028.11C1300.44,1044.82 1300.14,1061.52 1299.7,1078.21C1298.06,1140.27 1294.46,1202.27 1288.67,1264.07C1282.15,1333.62 1272.88,1402.93 1260.18,1471.62L1259.94,1472.92L739.08,1472.92L738.839,1471.62C726.138,1402.93 716.862,1333.62 710.348,1264.07C704.56,1202.27 700.956,1140.27 699.315,1078.21C698.874,1061.52 698.581,1044.82 698.418,1028.11L698.409,1027.08L1300.61,1027.08ZM644.788,1027.08L370.993,1027.08C373.963,1188.77 403.421,1340.58 453.207,1472.92L684.846,1472.92C660.627,1339.57 646.242,1188.06 644.788,1027.08ZM167.892,527.667C151.287,556.861 136.202,586.913 122.757,617.691C103.493,661.786 87.584,707.344 75.22,753.848C64.035,795.915 55.753,838.75 50.428,881.951C46.734,911.922 44.473,942.062 43.599,972.246L43.58,972.917L317.365,972.917C320.227,812.037 348.481,660.582 396.223,527.083L168.225,527.083L167.892,527.667ZM1602.79,527.083C1650.54,660.589 1678.79,812.038 1681.65,972.917L1956.42,972.917L1956.4,972.246C1955.53,942.062 1953.27,911.922 1949.57,881.951C1944.25,838.75 1935.97,795.915 1924.78,753.848C1912.42,707.344 1896.51,661.786 1877.24,617.691C1863.8,586.913 1848.71,556.861 1832.11,527.667L1831.78,527.083L1602.79,527.083ZM1314.17,527.083C1338.39,660.428 1352.78,811.943 1354.23,972.917L1628.02,972.917C1625.05,811.231 1595.6,659.417 1545.81,527.083L1314.17,527.083ZM738.839,528.379L739.08,527.083L1259.94,527.083L1260.18,528.379C1272.88,597.072 1282.15,666.38 1288.67,735.927C1294.46,797.73 1298.06,859.735 1299.7,921.785C1300.14,938.483 1300.44,955.184 1300.6,971.886L1300.61,972.917L698.409,972.917L698.418,971.886C698.581,955.184 698.874,938.483 699.315,921.785C700.956,859.735 704.56,797.73 710.348,735.927C716.862,666.38 726.138,597.072 738.839,528.379ZM453.207,527.083C403.419,659.415 373.959,811.237 370.993,972.917L644.788,972.917L644.788,972.915C644.97,953.557 645.326,934.202 645.88,914.851C647.589,855.192 651.106,795.579 656.601,736.147C661.745,680.52 668.617,625.043 677.512,569.889C679.752,556 682.128,542.133 684.627,528.289L684.846,527.083L453.207,527.083ZM700.221,91.184C686.549,95.703 672.978,100.522 659.523,105.653C633.907,115.422 608.714,126.301 584.037,138.246C531.626,163.614 481.554,193.794 434.617,228.252C381.178,267.484 331.818,312.253 287.557,361.607C267.095,384.423 247.723,408.216 229.531,432.88C219.99,445.814 210.78,458.99 201.896,472.383L201.542,472.917L417.064,472.917L417.103,472.82C437.274,424.02 460.683,376.534 487.705,331.154C507.452,297.993 529.123,265.959 552.854,235.515C587.524,191.038 626.652,149.894 670.399,114.247C680.077,106.362 689.981,98.758 700.095,91.442L700.221,91.184ZM1298.17,90.899C1308.29,98.197 1318.2,105.783 1327.88,113.651C1371.73,149.278 1410.95,190.428 1445.7,234.926C1469.61,265.545 1491.44,297.779 1511.31,331.154C1538.33,376.534 1561.74,424.02 1581.91,472.82L1581.95,472.917L1798.46,472.917L1798.1,472.383C1789.09,458.79 1779.74,445.421 1770.04,432.301C1751.69,407.459 1732.14,383.502 1711.48,360.539C1666.99,311.072 1617.36,266.231 1563.64,226.977C1516.62,192.621 1466.48,162.551 1414,137.3C1389.29,125.409 1364.07,114.586 1338.43,104.875C1324.96,99.774 1311.37,94.985 1297.69,90.496L1298.17,90.899ZM1140.39,67.8C1158.73,89.453 1174.46,113.201 1188.44,137.862C1195.5,150.303 1202.11,162.993 1208.36,175.855C1215.17,189.879 1221.56,204.11 1227.58,218.489C1235,236.185 1241.89,254.104 1248.32,272.182C1255.21,291.526 1261.6,311.045 1267.55,330.694C1281.62,377.092 1293.31,424.187 1303.31,471.62L1303.59,472.917L1523.82,472.917C1481.81,376.715 1428.56,292.514 1366.79,224.562C1300.07,151.173 1223.41,96.91 1140.37,67.771L1140.39,67.8ZM1249.07,472.917L749.943,472.917C771.286,373.966 798.507,287.445 830.189,217.809C855.755,161.615 884.035,116.741 914.721,86.093C941.536,59.311 969.707,43.751 999.508,43.751C1029.31,43.751 1057.48,59.311 1084.3,86.093C1114.98,116.741 1143.26,161.615 1168.83,217.809C1200.51,287.445 1227.73,373.966 1249.07,472.917ZM858.65,67.771C775.602,96.91 698.952,151.173 632.232,224.562C570.455,292.514 517.204,376.715 475.193,472.917L695.43,472.917L695.702,471.62C705.704,424.187 717.398,377.092 731.464,330.694C737.42,311.045 743.809,291.526 750.693,272.182C757.126,254.104 764.013,236.185 771.433,218.489C777.461,204.11 783.846,189.879 790.66,175.855C796.909,162.993 803.52,150.303 810.572,137.862C824.552,113.201 840.288,89.453 858.626,67.8L858.65,67.771Z" style="fill:rgb(23,45,77);"/>
        </g>
        <g transform="matrix(1,0,0,1,-145.333,132.5)">
            <text x="221.871px" y="1118.25px" style="font-family:'Roboto-Black', 'Roboto';font-weight:900;font-size:708.333px;fill:white;">WWW</text>
        </g>
    </g>
</svg>
