<svg viewBox="0 0 2000 2000" xmlns="http://www.w3.org/2000/svg" xml:space="preserve" style="fill-rule:evenodd;clip-rule:evenodd;stroke-linejoin:round;stroke-miterlimit:2">
    <path style="fill:none" d="M0 0h2000v2000H0z"/>
    <clipPath id="a">
        <path d="M0 0h2000v2000H0z"/>
    </clipPath>
    <g clip-path="url(#a)">
        <circle cx="1037.06" cy="822.748" r="892.064" style="fill:#169bbc" transform="matrix(1.10262 0 0 1.121 -143.486 77.703)"/>
        <path d="m904.331 1273.97-.116-.28-.27-.57-.376-.72-.151-.26a16.518 16.518 0 0 0-4.149-4.77l-181.077-141.65-35.823-186.858a16.668 16.668 0 0 0-16.419-13.529l-333 1a16.668 16.668 0 0 0-15.61 10.961l-90 246.996a16.674 16.674 0 0 0 2.503 15.94l252.354 324.55 129.101 362.81a16.656 16.656 0 0 0 13.3 10.9 16.66 16.66 0 0 0 15.858-6.66l267-365.33a16.668 16.668 0 0 0 3.207-10.19l-5-236.16c-.047-2.2-.516-4.28-1.332-6.18ZM1524.5 674.118a16.583 16.583 0 0 0-10.39-1.532l-173.07 30.5a16.659 16.659 0 0 0-8.97 4.708l-115.93 117.5a16.702 16.702 0 0 0-3.81 6.036l-65 179.67c-2 5.52-.94 11.69 2.78 16.23l56 68.33a15.9 15.9 0 0 0 2.32 2.32s94.59 77.57 126.47 98.13c10.9 7.02 30.96 12.13 53.96 14.95 47.69 5.84 108.73 3.7 108.73 3.7 2.76-.1 5.46-.89 7.84-2.28l66.78-39.18 98.79 55.07c3.59 12.51 11.3 42.28 12.46 71.61.47 11.89-.1 23.7-2.77 34.05-2.09 8.15-5.37 15.38-11.23 20.16-42.7 34.85-149.77 133.66-149.77 133.66-.72.67-1.38 1.4-1.97 2.18 0 0-87.8 116.19-96.75 134.87-6.44 13.44-18.7 71.96-23.76 112.2-2.42 19.19-2.86 34.65-1.45 40.76.84 3.61 2.78 7.55 6.53 11.27 3.58 3.55 9.98 7.57 18.65 11.21 36.16 15.16 121.19 30.18 121.19 30.18 5.11.89 10.34-.64 14.15-4.15l200-184c1.26-1.16 2.34-2.51 3.19-3.99l200-349.5a16.74 16.74 0 0 0 2.05-6.11l38.61-293.496c.22-1.634.19-3.29-.08-4.915l-44.61-267.5a16.661 16.661 0 0 0-8.8-12.071l-158-81.5a16.666 16.666 0 0 0-15.55.142l-110.65 59.655-129.08-10.596c-3.17-.26-6.21.388-8.86 1.729Z" style="fill:#31bd2c"/>
        <path d="M406.577 818.273a16.693 16.693 0 0 0-1.216-4.741l-32-76a16.673 16.673 0 0 0-2.674-4.34l-40.828-47.929 17.736-93.751 166.969-59.135c.114-.04.227-.082.34-.124l88-33.334a16.668 16.668 0 0 0 4.616-2.659l111-90.333a16.624 16.624 0 0 0 2.813-2.927l51.099-68.132 78.914-29.932 76.201 6.667a16.667 16.667 0 0 0 18.117-16.325l2-120a16.666 16.666 0 0 0-12.622-16.447l-108-27a16.627 16.627 0 0 0-2.933-.461l-58.546-3.903-113.68-27.938-25.525-17.32a16.664 16.664 0 0 0-16.994-1.023l-48.5 25c-.513.264-1.012.555-1.494.871l-140.5 92c-.53.347-1.04.723-1.526 1.128l-95 79a16.95 16.95 0 0 0-.996.898l-90 88a16.67 16.67 0 0 0-2.517 3.141l-64 103.334c-.353.57-.672 1.161-.953 1.769l-33.053 71.341-37.498 53.802a16.665 16.665 0 0 0 16.885 25.884l99.447-19.534 18.045 36.842 22.734 59.304a16.638 16.638 0 0 0 2.656 4.579l63.239 77.398V855c0 4.028 1.459 7.92 4.108 10.956l41 47a16.676 16.676 0 0 0 4.657 3.719l26 14a16.668 16.668 0 0 0 24.479-16.402l-10-96ZM1383.62 292.154l-11.2-1.644a16.67 16.67 0 0 0-14.24 4.739 16.649 16.649 0 0 0-4.65 14.268l10.75 70.372-2.93 64.354c0 .108-.01.215-.01.322l-.94 36.11-7.57 25.21-90.7 57.004a16.67 16.67 0 0 0-4.08 24.604l47 58a16.664 16.664 0 0 0 15.93 5.905l88-16a16.656 16.656 0 0 0 12.83-11.128l16.56-49.666 12.82-5.129a16.62 16.62 0 0 0 4.04-2.319l48-37.333a16.683 16.683 0 0 0 6.37-11.662l1.63-18.161H1531c3.36 0 6.64-1.016 9.42-2.915l23.48-16.079 8.5 11.96 13.12 18.59.82 23.039c.06 1.55.33 3.086.81 4.561 0 0 3.86 11.763 12.35 20.234 7.31 7.29 17.41 12.303 30.38 10.025 17.54-3.079 23.99-10.708 26.94-15.282l43.83-22.661a16.661 16.661 0 0 0 8.54-18.744A16.654 16.654 0 0 0 1693 500h-10.33c0-5.044-2.29-9.816-6.22-12.98 0 0-24.88-19.674-33.41-33.002-.23-.352-.45-.701-.67-1.048l18.22-1.719 33.64 28.472a16.702 16.702 0 0 0 7.35 3.59l78 16.333c1.13.235 2.27.354 3.42.354h52a16.68 16.68 0 0 0 15.03-9.455 16.675 16.675 0 0 0-2.03-17.637l-61.28-76.437-39.41-66.014a16.652 16.652 0 0 0-3.39-4.047l-83-72c-.31-.269-.63-.527-.96-.773l-161-120a16.66 16.66 0 0 0-19.07-.592l-48.33 31.559-43.28 22.626c-1.08.562-2.09 1.24-3.02 2.021l-38 32c-6.94 5.846-7.93 16.171-2.22 23.228l38 47c.19.231.38.456.58.675Zm257.56 254.9 2.82 11.613s-7.91-1.506-12.88-6.571c5.11-1.372 8.2-3.266 10.06-5.042ZM1519.24 255.14c-10.38-4.384-21.36-8.749-40.33-1.556-22.15 8.398-32.23 13.978-32.23 13.978l.48-.354-10.16 3.459 9.17-2.747-41 27-.52.321 69.67 10.227 25.19-19.846 19.73-30.482ZM972.234 135.723c.456.386.933.747 1.428 1.082l67.998 46a16.66 16.66 0 0 0 8.67 2.848l50 2c.88.036 1.77.001 2.64-.103l84-10a16.666 16.666 0 0 0 14.01-11.815l8-27c.42-1.413.65-2.875.68-4.348l1-43a16.69 16.69 0 0 0-5.35-12.634l-39-36c-.95-.874-2-1.636-3.12-2.269l-39-22a16.67 16.67 0 0 0-8.19-2.151h-93.83l-95.823-1.996a16.666 16.666 0 0 0-16.637 13.141l-8 37a16.666 16.666 0 0 0 5.524 16.245l65 55Z" style="fill:#31bd2c"/>
        <path d="m999.508-10.417-.89.001h-.097C441.521-9.602-10.417 442.838-10.417 1000c0 557.16 451.938 1009.6 1008.938 1010.42H1000c557.66 0 1010.42-452.76 1010.42-1010.42v-.817c-.02-17.056-.45-34.111-1.32-51.146-1.54-30.39-4.45-60.71-8.72-90.838-8.5-60.003-22.43-119.229-41.61-176.719a1005.693 1005.693 0 0 0-60.36-143.03A1012.388 1012.388 0 0 0 1815 402.933a1017.286 1017.286 0 0 0-103.89-120.473 1017.84 1017.84 0 0 0-121.41-102.818 1011.378 1011.378 0 0 0-128.51-78.751c-44-22.636-89.67-42.023-136.53-57.933a1004.43 1004.43 0 0 0-179.5-43.006 1014.113 1014.113 0 0 0-92.39-9.012 1033.11 1033.11 0 0 0-52.77-1.357h-.492ZM749.943 1527.08h499.127c-21.34 98.95-48.56 185.48-80.24 255.11-25.57 56.19-53.85 101.07-84.53 131.72-26.82 26.78-54.99 42.34-84.792 42.34-29.801 0-57.972-15.56-84.787-42.34-30.686-30.65-58.966-75.53-84.532-131.72-31.682-69.63-58.903-156.16-80.246-255.11Zm-54.513 0H475.193c42.011 96.21 95.262 180.41 157.039 248.36 66.72 73.39 143.37 127.65 226.418 156.79l-.024-.03c-18.338-21.65-34.074-45.4-48.054-70.06-7.052-12.44-13.663-25.13-19.912-38-6.814-14.02-13.199-28.25-19.227-42.63-7.42-17.69-14.307-35.61-20.74-53.69-6.884-19.35-13.273-38.87-19.229-58.51-14.066-46.4-25.76-93.5-35.762-140.93l-.272-1.3Zm828.39 0h-220.23l-.28 1.3c-10 47.43-21.69 94.53-35.76 140.93-5.95 19.64-12.34 39.16-19.23 58.51-6.43 18.08-13.32 36-20.74 53.69-6.02 14.38-12.41 28.61-19.22 42.63-6.25 12.87-12.86 25.56-19.92 38-13.98 24.66-29.71 48.41-48.05 70.06l-.02.03c83.04-29.14 159.7-83.4 226.42-156.79 61.77-67.95 115.02-152.15 157.03-248.36Zm58.09.1c-20.17 48.8-43.58 96.29-70.6 141.67-19.87 33.37-41.7 65.6-65.61 96.22-34.75 44.5-73.97 85.65-117.82 121.28a648.34 648.34 0 0 1-29.71 22.75l-.48.4c13.68-4.48 27.27-9.27 40.74-14.38a951.45 951.45 0 0 0 75.57-32.42c52.48-25.25 102.62-55.32 149.64-89.68a963.414 963.414 0 0 0 147.84-133.56 960.689 960.689 0 0 0 58.56-71.76c9.7-13.12 19.05-26.49 28.06-40.08l.36-.54h-216.51l-.04.1Zm-1164.846-.1H201.543l.353.54a961.995 961.995 0 0 0 85.661 110.77 963.628 963.628 0 0 0 147.06 133.36c46.937 34.46 97.009 64.64 149.42 90a949.89 949.89 0 0 0 75.486 32.6 960.666 960.666 0 0 0 40.698 14.47l-.126-.26a651.42 651.42 0 0 1-29.696-22.81c-43.747-35.64-82.875-76.79-117.545-121.26-23.731-30.45-45.402-62.48-65.149-95.64-27.022-45.38-50.431-92.87-70.602-141.67l-.039-.1Zm1539.356-500h-274.77c-2.86 160.88-31.11 312.34-78.86 445.84h228.99l.33-.59c16.6-29.19 31.69-59.24 45.13-90.02a948.762 948.762 0 0 0 47.54-136.16 950.123 950.123 0 0 0 24.79-128.1c3.7-29.97 5.96-60.11 6.83-90.3l.02-.67Zm-1639.055 0H43.58l.019.67c.874 30.19 3.135 60.33 6.829 90.3a951.687 951.687 0 0 0 24.792 128.1 949.971 949.971 0 0 0 47.537 136.16 956.222 956.222 0 0 0 45.135 90.02l.333.59h227.998c-47.745-133.51-75.997-284.96-78.858-445.84Zm1310.655 0h-273.79v.01c-.18 19.35-.54 38.71-1.09 58.06-1.71 59.66-5.23 119.27-10.73 178.7-5.14 55.63-12.01 111.11-20.91 166.26a2242.92 2242.92 0 0 1-7.11 41.6l-.22 1.21h231.64c49.79-132.33 79.25-284.16 82.21-445.84Zm-327.41 0-.01 1.03c-.16 16.71-.46 33.41-.9 50.1-1.64 62.06-5.24 124.06-11.03 185.86-6.52 69.55-15.79 138.86-28.49 207.55l-.24 1.3H739.08l-.241-1.3c-12.701-68.69-21.977-138-28.491-207.55-5.788-61.8-9.392-123.8-11.033-185.86a3007.23 3007.23 0 0 1-.897-50.1l-.009-1.03h602.201Zm-655.822 0H370.993c2.97 161.69 32.428 313.5 82.214 445.84h231.639c-24.219-133.35-38.604-284.86-40.058-445.84ZM167.892 527.667a957.016 957.016 0 0 0-45.135 90.024A949.977 949.977 0 0 0 75.22 753.848a951.911 951.911 0 0 0-24.792 128.103c-3.694 29.971-5.955 60.111-6.829 90.295l-.019.671h273.785c2.862-160.88 31.116-312.335 78.858-445.834H168.225l-.333.584Zm1434.898-.584c47.75 133.506 76 284.955 78.86 445.834h274.77l-.02-.671c-.87-30.184-3.13-60.324-6.83-90.295a950.346 950.346 0 0 0-24.79-128.103 948.768 948.768 0 0 0-47.54-136.157c-13.44-30.778-28.53-60.83-45.13-90.024l-.33-.584h-228.99Zm-288.62 0c24.22 133.345 38.61 284.86 40.06 445.834h273.79c-2.97-161.686-32.42-313.5-82.21-445.834h-231.64Zm-575.331 1.296.241-1.296h520.86l.24 1.296c12.7 68.693 21.97 138.001 28.49 207.548 5.79 61.803 9.39 123.808 11.03 185.858.44 16.698.74 33.399.9 50.101l.01 1.031H698.409l.009-1.031c.163-16.702.456-33.403.897-50.101 1.641-62.05 5.245-124.055 11.033-185.858 6.514-69.547 15.79-138.855 28.491-207.548Zm-285.632-1.296c-49.788 132.332-79.248 284.154-82.214 445.834h273.795v-.002c.182-19.358.538-38.713 1.092-58.064 1.709-59.659 5.226-119.272 10.721-178.704 5.144-55.627 12.016-111.104 20.911-166.258a2258.606 2258.606 0 0 1 7.115-41.6l.219-1.206H453.207ZM700.221 91.184a957.864 957.864 0 0 0-40.698 14.469 951.297 951.297 0 0 0-75.486 32.593c-52.411 25.368-102.483 55.548-149.42 90.006a964.01 964.01 0 0 0-147.06 133.355 962.458 962.458 0 0 0-58.026 71.273 966.8 966.8 0 0 0-27.635 39.503l-.354.534h215.522l.039-.097c20.171-48.8 43.58-96.286 70.602-141.666 19.747-33.161 41.418-65.195 65.149-95.639 34.67-44.477 73.798-85.621 117.545-121.268a652.035 652.035 0 0 1 29.696-22.805l.126-.258Zm597.949-.285a648.382 648.382 0 0 1 29.71 22.752c43.85 35.627 83.07 76.777 117.82 121.275 23.91 30.619 45.74 62.853 65.61 96.228 27.02 45.38 50.43 92.866 70.6 141.666l.04.097h216.51l-.36-.534a954.084 954.084 0 0 0-28.06-40.082 960.925 960.925 0 0 0-58.56-71.762 963.789 963.789 0 0 0-147.84-133.562c-47.02-34.356-97.16-64.426-149.64-89.677a951.496 951.496 0 0 0-75.57-32.425 961.737 961.737 0 0 0-40.74-14.379l.48.403ZM1140.39 67.8c18.34 21.653 34.07 45.401 48.05 70.062 7.06 12.441 13.67 25.131 19.92 37.993 6.81 14.024 13.2 28.255 19.22 42.634 7.42 17.696 14.31 35.615 20.74 53.693 6.89 19.344 13.28 38.863 19.23 58.512 14.07 46.398 25.76 93.493 35.76 140.926l.28 1.297h220.23c-42.01-96.202-95.26-180.403-157.03-248.355-66.72-73.389-143.38-127.652-226.42-156.791l.02.029Zm108.68 405.117H749.943c21.343-98.951 48.564-185.472 80.246-255.108 25.566-56.194 53.846-101.068 84.532-131.716 26.815-26.782 54.986-42.342 84.787-42.342 29.802 0 57.972 15.56 84.792 42.342 30.68 30.648 58.96 75.522 84.53 131.716 31.68 69.636 58.9 156.157 80.24 255.108ZM858.65 67.771c-83.048 29.139-159.698 83.402-226.418 156.791-61.777 67.952-115.028 152.153-157.039 248.355H695.43l.272-1.297c10.002-47.433 21.696-94.528 35.762-140.926 5.956-19.649 12.345-39.168 19.229-58.512 6.433-18.078 13.32-35.997 20.74-53.693 6.028-14.379 12.413-28.61 19.227-42.634 6.249-12.862 12.86-25.552 19.912-37.993 13.98-24.661 29.716-48.409 48.054-70.062l.024-.029Z" style="fill:#172d4d" transform="matrix(.9897 0 0 .9897 10.31 10.31)"/>
        <text x="221.871" y="1118.25" style="font-family:'Roboto-Black','Roboto';font-weight:900;font-size:708.333px;fill:#fff" transform="translate(-145.333 132.5)">WWW</text>
    </g>
</svg>
