<?xml version="1.0" encoding="UTF-8" standalone="no"?>
<!DOCTYPE svg PUBLIC "-//W3C//DTD SVG 1.1//EN" "http://www.w3.org/Graphics/SVG/1.1/DTD/svg11.dtd">
<svg width="100%" height="100%" viewBox="0 0 2000 2000" version="1.1" xmlns="http://www.w3.org/2000/svg" xmlns:xlink="http://www.w3.org/1999/xlink" xml:space="preserve" xmlns:serif="http://www.serif.com/" style="fill-rule:evenodd;clip-rule:evenodd;stroke-linejoin:round;stroke-miterlimit:2;">
    <g transform="matrix(1,0,0,1,-2250,0)">
        <g transform="matrix(1,0,0,1,2250,0)">
            <rect id="random-icon" x="0" y="0" width="2000" height="2000" style="fill:none;"/>
            <g id="random-icon1" serif:id="random-icon">
                <g id="Ebene-1" serif:id="Ebene 1">
                </g>
                <g transform="matrix(1.12182,0,0,1.12182,-2681,-209.71)">
                    <path d="M3860.66,745.422C3807.93,743.225 3671.47,739.156 3550.19,749.262C3388.6,795.231 3377.58,855.514 3190.8,1277.2C2963.74,1789.82 2660.07,1750.82 2660.07,1750.82L2394.01,1750.82L2394.01,1459.68L2660.07,1459.68C2660.07,1459.68 2823.05,1476.4 2969.31,1039C3115.58,601.606 3395.57,463.7 3550.19,458.128C3671.77,453.747 3808,454.533 3860.66,455.07L3860.66,274.254L4172.69,607.875L3860.66,941.495L3860.66,745.422Z" style="fill:rgb(23,45,77);"/>
                </g>
                <g transform="matrix(1.12182,0,0,-1.12182,-2681,2209.71)">
                    <path d="M3860.66,745.422C3807.93,743.225 3671.47,739.156 3550.19,749.262C3388.6,795.231 3377.58,855.514 3190.8,1277.2C2963.74,1789.82 2660.07,1750.82 2660.07,1750.82L2394.01,1750.82L2394.01,1459.68L2660.07,1459.68C2660.07,1459.68 2823.05,1476.4 2969.31,1039C3115.58,601.606 3395.57,463.7 3550.19,458.128C3671.77,453.747 3808,454.533 3860.66,455.07L3860.66,274.254L4172.69,607.875L3860.66,941.495L3860.66,745.422Z" style="fill:rgb(23,45,77);"/>
                </g>
            </g>
        </g>
    </g>
</svg>
