<?xml version="1.0" encoding="UTF-8"?>
<svg id="Ebene_2" data-name="Ebene 2" xmlns="http://www.w3.org/2000/svg" viewBox="0 0 2000 2000">
  <defs>
    <style>
      .cls-1 {
        fill: #e6e6e6;
        fill-rule: evenodd;
      }

      .cls-2 {
        stroke-width: 6px;
      }

      .cls-2, .cls-3 {
        stroke: #172d4d;
        stroke-linecap: round;
        stroke-linejoin: round;
      }

      .cls-2, .cls-4 {
        fill: #f7f7f7;
      }

      .cls-5, .cls-3 {
        fill: #172d4d;
      }

      .cls-3 {
        stroke-width: 7px;
      }

      .cls-6 {
        fill: #2d2d2d;
      }
    </style>
  </defs>
  <path class="cls-1" d="m2000,81c0-44.15-35.84-80-80-80H80C35.85,1,0,36.85,0,81v1840c0,44.15,35.85,80,80,80h1840c44.16,0,80-35.85,80-80V81Z"/>
  <g>
    <g>
      <path class="cls-5" d="m382.5,1829.5V51.43c0-8.78,7.15-15.93,15.93-15.93h1343.39c8.78,0,15.93,7.15,15.93,15.93v1762.14c0,8.78-7.15,15.93-15.93,15.93H382.5Z"/>
      <path class="cls-5" d="m1741.82,38.5c7.13,0,12.93,5.8,12.93,12.93v1762.14c0,7.13-5.8,12.93-12.93,12.93H385.5V51.43c0-7.13,5.8-12.93,12.93-12.93h1343.39m0-6H398.43c-10.45,0-18.93,8.47-18.93,18.93v1781.07h1362.32c10.45,0,18.93-8.47,18.93-18.93V51.43c0-10.45-8.47-18.93-18.93-18.93h0Z"/>
    </g>
    <g>
      <rect class="cls-4" x="403.75" y="81.75" width="1311.5" height="1709"/>
      <path class="cls-6" d="m1712.25,84.75v1703H406.75V84.75h1305.5m6-6H400.75v1715h1317.5V78.75h0Z"/>
    </g>
    <polygon class="cls-3" points="250.75 168.47 392 40 392 1819.03 250.75 1947.5 250.75 168.47"/>
    <polygon class="cls-2" points="1718.25 78.75 1608.88 188.12 314.5 188.12 295.75 183.75 400.75 78.75 1718.25 78.75"/>
    <polygon class="cls-2" points="1608.88 188.12 1608.88 1922.5 1721.69 1809.69 1721.69 78.75 1608.88 188.12"/>
    <g>
      <rect class="cls-5" x="246.25" y="160.5" width="1375.25" height="1794" rx="15.93" ry="15.93"/>
      <path class="cls-5" d="m1605.57,163.5c7.13,0,12.93,5.8,12.93,12.93v1762.14c0,7.13-5.8,12.93-12.93,12.93H262.18c-7.13,0-12.93-5.8-12.93-12.93V176.43c0-7.13,5.8-12.93,12.93-12.93h1343.39m0-6H262.18c-10.45,0-18.93,8.47-18.93,18.93v1762.14c0,10.45,8.47,18.93,18.93,18.93h1343.39c10.45,0,18.93-8.47,18.93-18.93V176.43c0-10.45-8.47-18.93-18.93-18.93h0Z"/>
    </g>
  </g>
</svg>