<svg xmlns="http://www.w3.org/2000/svg" width="2000" height="2000" viewBox="0 0 2000 2000" version="1.1"><path d="M 936.500 36.023 C 927.150 36.495, 910.500 37.604, 899.500 38.489 C 888.500 39.374, 871.625 40.985, 862 42.069 C 852.375 43.153, 836.625 45.161, 827 46.530 C 817.375 47.900, 800.500 50.626, 789.500 52.589 C 778.500 54.551, 758.475 58.585, 745 61.553 C 731.525 64.521, 711.050 69.477, 699.500 72.565 C 687.950 75.653, 669.050 81.106, 657.500 84.683 C 645.950 88.260, 627.192 94.519, 615.816 98.591 C 604.440 102.663, 586.890 109.308, 576.816 113.357 C 566.742 117.407, 551.525 123.800, 543 127.565 C 534.475 131.330, 516.902 139.660, 503.949 146.075 C 490.996 152.491, 472.096 162.369, 461.949 168.027 C 451.802 173.685, 436.525 182.573, 428 187.779 C 419.475 192.985, 404.442 202.625, 394.594 209.203 C 384.745 215.780, 369.895 226.142, 361.594 232.229 C 353.292 238.316, 340.131 248.372, 332.348 254.574 C 324.564 260.777, 312.864 270.427, 306.348 276.018 C 299.831 281.609, 286.591 293.559, 276.924 302.574 C 267.258 311.589, 253.490 325.160, 246.330 332.732 C 239.170 340.305, 229.079 351.259, 223.906 357.076 C 218.733 362.893, 209.722 373.468, 203.881 380.576 C 198.041 387.684, 188.320 400.079, 182.280 408.120 C 176.240 416.161, 165.905 430.786, 159.314 440.620 C 152.722 450.454, 144.178 463.675, 140.325 470 C 136.473 476.325, 129.339 488.700, 124.472 497.500 C 119.605 506.300, 111.930 521.150, 107.417 530.500 C 102.904 539.850, 96.083 554.925, 92.260 564 C 88.436 573.075, 82.727 587.597, 79.574 596.271 C 76.421 604.945, 71.838 618.445, 69.390 626.271 C 66.942 634.097, 62.941 648.150, 60.499 657.500 C 58.058 666.850, 54.730 680.800, 53.103 688.500 C 51.477 696.200, 49.003 709.475, 47.607 718 C 46.210 726.525, 44.167 741.600, 43.068 751.500 C 41.968 761.400, 40.603 776.692, 40.034 785.483 L 39 801.466 39 826 L 39 850.534 40.034 866.517 C 40.603 875.308, 41.975 890.583, 43.083 900.463 C 44.191 910.343, 46.453 926.543, 48.108 936.463 C 49.764 946.383, 52.939 962.600, 55.164 972.500 C 57.388 982.400, 61.387 998.150, 64.049 1007.500 C 66.712 1016.850, 71.594 1032.455, 74.898 1042.179 C 78.202 1051.902, 84.141 1067.877, 88.095 1077.679 C 92.049 1087.480, 99.010 1103.484, 103.564 1113.241 C 108.117 1122.999, 115.545 1137.849, 120.069 1146.241 C 124.593 1154.634, 133.009 1169.375, 138.771 1179 C 144.533 1188.625, 154.391 1204.088, 160.678 1213.363 C 166.965 1222.638, 176.219 1235.688, 181.242 1242.363 C 186.265 1249.038, 193.978 1259, 198.383 1264.500 C 202.787 1270, 208.885 1277.425, 211.934 1281 C 214.982 1284.575, 221.470 1292, 226.351 1297.500 C 231.231 1303, 244.512 1316.878, 255.862 1328.341 C 267.213 1339.803, 283.700 1355.640, 292.500 1363.533 C 301.300 1371.427, 314.350 1382.685, 321.500 1388.552 C 328.650 1394.419, 343.050 1405.636, 353.500 1413.478 C 363.950 1421.320, 380.825 1433.354, 391 1440.219 C 401.175 1447.084, 416.700 1457.126, 425.500 1462.534 C 434.300 1467.943, 450.275 1477.258, 461 1483.234 C 471.725 1489.210, 487.475 1497.632, 496 1501.949 C 504.525 1506.266, 518.025 1512.820, 526 1516.512 C 533.975 1520.204, 548.150 1526.493, 557.500 1530.488 C 566.850 1534.483, 582.346 1540.760, 591.935 1544.436 C 601.524 1548.112, 619.299 1554.493, 631.435 1558.616 C 643.571 1562.738, 663.453 1569.011, 675.618 1572.555 C 687.783 1576.098, 708.708 1581.677, 722.118 1584.953 C 735.528 1588.228, 755.500 1592.702, 766.500 1594.896 C 777.500 1597.090, 794.825 1600.251, 805 1601.921 C 815.175 1603.590, 832.128 1606.076, 842.674 1607.445 C 853.219 1608.814, 871.669 1610.832, 883.674 1611.930 C 895.678 1613.028, 913.825 1614.489, 924 1615.177 L 942.500 1616.427 990 1616.432 L 1037.500 1616.437 1056.500 1615.186 C 1066.950 1614.499, 1085.322 1613.036, 1097.326 1611.935 C 1109.331 1610.834, 1127.781 1608.812, 1138.326 1607.441 C 1148.872 1606.070, 1166.734 1603.401, 1178.020 1601.511 C 1189.306 1599.621, 1208.656 1595.996, 1221.020 1593.455 C 1233.384 1590.915, 1253.315 1586.378, 1265.310 1583.374 C 1277.306 1580.369, 1296.920 1575.020, 1308.897 1571.486 C 1320.874 1567.952, 1340.535 1561.681, 1352.587 1557.551 C 1364.639 1553.421, 1378.983 1548.297, 1384.461 1546.165 L 1394.423 1542.288 1412.790 1559.681 C 1422.892 1569.248, 1440.010 1585.047, 1450.829 1594.790 C 1461.648 1604.534, 1478.600 1619.506, 1488.500 1628.062 C 1498.400 1636.618, 1515.950 1651.502, 1527.500 1661.138 C 1539.050 1670.774, 1561.100 1688.773, 1576.500 1701.136 C 1591.900 1713.498, 1615.750 1732.345, 1629.500 1743.017 C 1643.250 1753.690, 1668.900 1773.254, 1686.500 1786.493 C 1704.100 1799.732, 1729.300 1818.461, 1742.500 1828.113 C 1755.700 1837.765, 1779.100 1854.668, 1794.500 1865.675 C 1809.900 1876.683, 1834.650 1894.155, 1849.500 1904.502 C 1864.350 1914.849, 1888.200 1931.225, 1902.500 1940.893 L 1928.500 1958.472 1933.500 1960.203 L 1938.500 1961.935 1942.635 1961.967 L 1946.770 1962 1951.980 1960.317 L 1957.190 1958.635 1962.145 1954.180 L 1967.100 1949.725 1969.208 1945.613 L 1971.316 1941.500 1971.774 1934.491 L 1972.232 1927.482 1966.024 1904.991 C 1962.609 1892.621, 1955.337 1866.787, 1949.863 1847.582 C 1944.390 1828.378, 1935.183 1796.653, 1929.405 1777.082 C 1923.627 1757.512, 1914.156 1725.975, 1908.360 1707 C 1902.564 1688.025, 1892.205 1654.725, 1885.340 1633 C 1878.475 1611.275, 1866.761 1575.050, 1859.309 1552.500 C 1851.857 1529.950, 1840.153 1495.300, 1833.301 1475.500 C 1826.448 1455.700, 1815.214 1424.011, 1808.336 1405.080 C 1801.457 1386.149, 1790.971 1358.024, 1785.034 1342.580 C 1779.096 1327.136, 1771.783 1308.399, 1768.782 1300.943 L 1763.327 1287.386 1766.778 1283.443 C 1768.675 1281.274, 1776.274 1271.977, 1783.665 1262.782 C 1791.055 1253.587, 1801.858 1239.412, 1807.673 1231.282 C 1813.488 1223.152, 1821.935 1210.875, 1826.444 1204 C 1830.953 1197.125, 1838.021 1185.875, 1842.151 1179 C 1846.280 1172.125, 1852.384 1161.550, 1855.714 1155.500 C 1859.045 1149.450, 1865.668 1136.699, 1870.433 1127.165 C 1875.198 1117.631, 1882.401 1102.106, 1886.440 1092.665 C 1890.479 1083.224, 1896.714 1067.625, 1900.295 1058 C 1903.877 1048.375, 1908.914 1033.750, 1911.489 1025.500 C 1914.064 1017.250, 1918.349 1001.950, 1921.012 991.500 C 1923.675 981.050, 1927.206 965.750, 1928.859 957.500 C 1930.512 949.250, 1933.003 935.075, 1934.395 926 C 1935.787 916.925, 1937.598 902.975, 1938.420 895 C 1939.241 887.025, 1940.444 871.275, 1941.093 860 L 1942.272 839.500 1941.667 812.500 L 1941.062 785.500 1939.502 768 C 1938.645 758.375, 1936.827 742.747, 1935.463 733.272 C 1934.099 723.796, 1931.847 709.846, 1930.458 702.272 C 1929.069 694.697, 1925.731 679.500, 1923.042 668.500 C 1920.352 657.500, 1915.861 640.923, 1913.061 631.662 C 1910.262 622.401, 1905.005 606.651, 1901.379 596.662 C 1897.753 586.673, 1891.419 570.625, 1887.302 561 C 1883.185 551.375, 1875.198 534.275, 1869.554 523 C 1863.909 511.725, 1854.961 494.961, 1849.670 485.746 C 1844.378 476.532, 1836.832 463.932, 1832.901 457.746 C 1828.969 451.561, 1821.917 440.923, 1817.230 434.107 C 1812.543 427.291, 1804.131 415.591, 1798.537 408.107 C 1792.943 400.623, 1783.937 389.100, 1778.524 382.500 C 1773.112 375.900, 1764.160 365.325, 1758.632 359 C 1753.104 352.675, 1738.663 337.445, 1726.541 325.156 C 1714.418 312.867, 1697.300 296.356, 1688.500 288.464 C 1679.700 280.572, 1666.650 269.314, 1659.500 263.447 C 1652.350 257.580, 1637.621 246.108, 1626.768 237.954 C 1615.916 229.800, 1597.559 216.806, 1585.975 209.077 C 1574.391 201.348, 1556.720 190.134, 1546.707 184.156 C 1536.693 178.178, 1521.426 169.406, 1512.780 164.664 C 1504.134 159.921, 1489.399 152.206, 1480.035 147.518 C 1470.672 142.830, 1455.696 135.681, 1446.755 131.631 C 1437.815 127.582, 1423.750 121.460, 1415.500 118.027 C 1407.250 114.595, 1392.349 108.704, 1382.387 104.936 C 1372.426 101.169, 1355.394 95.123, 1344.539 91.500 C 1333.685 87.878, 1314.802 82.033, 1302.579 78.512 C 1290.355 74.990, 1271.162 69.854, 1259.927 67.097 C 1248.692 64.341, 1230.500 60.250, 1219.500 58.006 C 1208.500 55.762, 1190.275 52.379, 1179 50.488 C 1167.725 48.597, 1149.725 45.927, 1139 44.553 C 1128.275 43.179, 1112.750 41.372, 1104.500 40.538 C 1096.250 39.704, 1079.825 38.310, 1068 37.440 L 1046.500 35.859 1000 35.512 L 953.500 35.165 936.500 36.023 M 932.500 95.049 C 924.250 95.529, 906.925 96.871, 894 98.030 C 881.075 99.190, 861.950 101.243, 851.500 102.592 C 841.050 103.940, 824.175 106.415, 814 108.090 C 803.825 109.765, 785.600 113.168, 773.500 115.651 C 761.400 118.134, 742.725 122.366, 732 125.056 C 721.275 127.746, 705.300 131.998, 696.500 134.505 C 687.700 137.013, 667.900 143.293, 652.500 148.461 C 637.100 153.629, 615.408 161.471, 604.296 165.889 C 593.184 170.307, 576.309 177.360, 566.796 181.564 C 557.283 185.767, 539.375 194.266, 527 200.451 C 514.625 206.636, 498.650 214.967, 491.500 218.965 C 484.350 222.963, 471.300 230.548, 462.500 235.821 C 453.700 241.094, 437.526 251.414, 426.558 258.753 C 415.590 266.093, 398.940 277.864, 389.558 284.910 C 380.176 291.957, 368.225 301.206, 363 305.465 C 357.775 309.723, 346.975 318.894, 339 325.844 C 331.025 332.793, 316.231 346.584, 306.125 356.490 C 296.019 366.395, 281.832 381.025, 274.599 389 C 267.366 396.975, 256.994 408.856, 251.549 415.403 C 246.105 421.949, 236.212 434.549, 229.566 443.403 C 222.919 452.256, 213.383 465.575, 208.375 473 C 203.366 480.425, 194.431 494.549, 188.519 504.387 C 182.607 514.224, 173.346 530.874, 167.940 541.387 C 162.533 551.899, 155.793 565.675, 152.962 572 C 150.131 578.325, 144.714 591.302, 140.924 600.837 C 137.134 610.373, 131.309 626.521, 127.981 636.721 C 124.652 646.922, 119.715 663.870, 117.009 674.384 C 114.304 684.898, 110.507 701.825, 108.572 712 C 106.637 722.175, 104.173 737.025, 103.097 745 C 102.021 752.975, 100.546 765.575, 99.820 773 L 98.500 786.500 98.545 827.500 L 98.591 868.500 100.322 884.500 C 101.274 893.300, 103.198 907.925, 104.598 917 C 105.998 926.075, 108.489 940.025, 110.134 948 C 111.779 955.975, 114.460 967.813, 116.092 974.307 C 117.723 980.801, 121.292 993.520, 124.022 1002.572 C 126.752 1011.624, 131.442 1025.780, 134.446 1034.030 C 137.450 1042.281, 142.463 1055.211, 145.587 1062.765 C 148.710 1070.319, 155.189 1084.641, 159.983 1094.592 C 164.777 1104.543, 172.431 1119.393, 176.991 1127.592 C 181.552 1135.791, 189.771 1149.700, 195.257 1158.500 C 200.742 1167.300, 209.982 1181.250, 215.789 1189.500 C 221.596 1197.750, 230.757 1210.195, 236.145 1217.155 C 241.534 1224.116, 250.052 1234.691, 255.075 1240.655 C 260.097 1246.620, 269.960 1257.800, 276.992 1265.500 C 284.025 1273.200, 296.691 1286.254, 305.139 1294.509 C 313.588 1302.764, 325 1313.580, 330.500 1318.544 C 336 1323.509, 347.285 1333.219, 355.579 1340.122 C 363.872 1347.026, 379.397 1359.220, 390.079 1367.219 C 400.760 1375.219, 417.600 1387.155, 427.500 1393.743 C 437.400 1400.331, 453.064 1410.294, 462.309 1415.884 C 471.554 1421.473, 486.629 1430.169, 495.809 1435.207 C 504.989 1440.245, 522.850 1449.428, 535.500 1455.613 C 548.150 1461.798, 567.950 1470.879, 579.500 1475.793 C 591.050 1480.707, 608.600 1487.773, 618.500 1491.496 C 628.400 1495.219, 645.744 1501.321, 657.043 1505.055 C 668.341 1508.789, 685.666 1514.170, 695.543 1517.013 C 705.419 1519.856, 724.300 1524.817, 737.500 1528.036 C 750.700 1531.255, 771.850 1535.907, 784.500 1538.373 C 797.150 1540.839, 816.500 1544.218, 827.500 1545.881 C 838.500 1547.545, 855.375 1549.814, 865 1550.924 C 874.625 1552.035, 890.600 1553.612, 900.500 1554.430 C 910.400 1555.248, 929.300 1556.445, 942.500 1557.090 L 966.500 1558.263 1006.500 1557.667 C 1028.500 1557.340, 1052.800 1556.602, 1060.500 1556.027 C 1068.200 1555.453, 1082.150 1554.287, 1091.500 1553.436 C 1100.850 1552.585, 1117.050 1550.797, 1127.500 1549.462 C 1137.950 1548.127, 1155.950 1545.472, 1167.500 1543.562 C 1179.050 1541.652, 1197.427 1538.242, 1208.337 1535.984 C 1219.248 1533.726, 1236.348 1529.858, 1246.337 1527.390 C 1256.327 1524.921, 1270.125 1521.326, 1277 1519.400 C 1283.875 1517.475, 1297.573 1513.398, 1307.440 1510.341 C 1317.307 1507.283, 1332.382 1502.309, 1340.940 1499.287 C 1349.498 1496.265, 1365.050 1490.397, 1375.500 1486.247 L 1394.500 1478.703 1401.500 1478.659 L 1408.500 1478.615 1413.231 1480.743 L 1417.961 1482.870 1440.231 1504.275 C 1452.479 1516.047, 1468.350 1531.047, 1475.500 1537.606 C 1482.650 1544.166, 1494.575 1554.930, 1502 1561.528 C 1509.425 1568.125, 1523.375 1580.292, 1533 1588.567 C 1542.625 1596.842, 1559.725 1611.274, 1571 1620.640 C 1582.275 1630.005, 1601.855 1645.972, 1614.511 1656.121 C 1627.167 1666.269, 1649.784 1684.102, 1664.770 1695.748 C 1679.757 1707.395, 1704.502 1726.308, 1719.759 1737.777 C 1735.017 1749.247, 1757.625 1766.064, 1770 1775.149 C 1782.375 1784.234, 1800.712 1797.593, 1810.749 1804.836 C 1820.786 1812.079, 1842.783 1827.716, 1859.632 1839.585 C 1876.480 1851.454, 1890.843 1861.386, 1891.549 1861.657 L 1892.832 1862.150 1886.366 1839.825 C 1882.809 1827.546, 1875.154 1801.525, 1869.354 1782 C 1863.554 1762.475, 1853.417 1728.950, 1846.829 1707.500 C 1840.240 1686.050, 1831.477 1657.925, 1827.355 1645 C 1823.233 1632.075, 1814.458 1604.917, 1807.855 1584.650 C 1801.252 1564.382, 1789.862 1530.407, 1782.544 1509.150 C 1775.226 1487.892, 1765.549 1460.150, 1761.041 1447.500 C 1756.533 1434.850, 1746.608 1407.850, 1738.985 1387.500 C 1731.362 1367.150, 1719.430 1336.325, 1712.468 1319 L 1699.812 1287.500 1700.240 1280 L 1700.669 1272.500 1702.766 1268.500 C 1703.920 1266.300, 1709.450 1259.325, 1715.056 1253 C 1720.661 1246.675, 1730.306 1235.200, 1736.488 1227.500 C 1742.670 1219.800, 1752.093 1207.520, 1757.428 1200.211 C 1762.764 1192.901, 1771.751 1179.851, 1777.401 1171.211 C 1783.050 1162.570, 1790.597 1150.550, 1794.173 1144.500 C 1797.748 1138.450, 1804.356 1126.650, 1808.858 1118.278 C 1813.360 1109.906, 1820.414 1095.797, 1824.535 1086.925 C 1828.655 1078.053, 1835.113 1063.078, 1838.885 1053.647 C 1842.657 1044.216, 1848.764 1027.275, 1852.456 1016 C 1856.147 1004.725, 1861.142 987.850, 1863.554 978.500 C 1865.967 969.150, 1869.512 953.625, 1871.432 944 C 1873.352 934.375, 1875.827 920.200, 1876.933 912.500 C 1878.039 904.800, 1879.657 891.750, 1880.528 883.500 L 1882.113 868.500 1882.685 837.500 L 1883.258 806.500 1882.110 789.500 C 1881.479 780.150, 1880.280 766.425, 1879.446 759 C 1878.612 751.575, 1876.812 738.569, 1875.446 730.098 C 1874.079 721.627, 1872.037 710.152, 1870.907 704.598 C 1869.778 699.044, 1866.864 686.625, 1864.432 677 C 1862 667.375, 1858.028 653.125, 1855.604 645.333 C 1853.181 637.541, 1848.878 624.802, 1846.043 617.023 C 1843.208 609.243, 1838.038 596.044, 1834.555 587.689 C 1831.072 579.335, 1825.332 566.425, 1821.798 559 C 1818.265 551.575, 1811.832 538.975, 1807.503 531 C 1803.175 523.025, 1795.967 510.417, 1791.487 502.981 C 1787.007 495.546, 1778.831 482.721, 1773.317 474.481 C 1767.804 466.242, 1759.107 453.875, 1753.992 447 C 1748.877 440.125, 1741.076 430, 1736.658 424.500 C 1732.239 419, 1722.979 407.975, 1716.080 400 C 1709.181 392.025, 1693.854 375.783, 1682.018 363.907 C 1670.183 352.030, 1655.749 338.076, 1649.941 332.897 C 1644.134 327.718, 1634.234 319.172, 1627.941 313.906 C 1621.649 308.640, 1611.165 300.157, 1604.643 295.056 C 1598.122 289.955, 1586.197 281.043, 1578.143 275.251 C 1570.090 269.460, 1556.525 260.136, 1548 254.530 C 1539.475 248.924, 1525.750 240.275, 1517.500 235.309 C 1509.250 230.344, 1495.300 222.310, 1486.500 217.455 C 1477.700 212.600, 1459.250 203.125, 1445.500 196.399 C 1431.750 189.672, 1412.625 180.818, 1403 176.722 C 1393.375 172.627, 1377.625 166.241, 1368 162.533 C 1358.375 158.825, 1339.250 152.036, 1325.500 147.447 C 1311.750 142.858, 1291.637 136.597, 1280.803 133.534 C 1269.970 130.471, 1252.870 125.974, 1242.803 123.542 C 1232.737 121.109, 1216.625 117.499, 1207 115.520 C 1197.375 113.541, 1180.275 110.379, 1169 108.493 C 1157.725 106.608, 1141.525 104.162, 1133 103.058 C 1124.475 101.954, 1110.975 100.361, 1103 99.518 C 1095.025 98.674, 1079.725 97.272, 1069 96.401 L 1049.500 94.818 998.500 94.497 L 947.500 94.176 932.500 95.049 M 1175 553.567 L 1168.500 554.974 1162.276 558.037 L 1156.052 561.100 1150.776 565.943 L 1145.500 570.786 1142.292 576.143 L 1139.085 581.500 1137.542 587.460 L 1136 593.420 1136 600.500 L 1136 607.580 1137.542 613.540 L 1139.085 619.500 1142.292 624.857 L 1145.500 630.214 1150.776 635.057 L 1156.052 639.900 1162.276 642.957 L 1168.500 646.013 1175.500 647.489 L 1182.500 648.965 1190.292 648.983 L 1198.084 649 1205.792 647.415 L 1213.500 645.830 1220.282 642.274 L 1227.064 638.719 1232.533 633.249 L 1238.003 627.780 1241.016 621.466 L 1244.030 615.151 1244.956 607.826 L 1245.882 600.500 1244.960 593.183 L 1244.038 585.865 1241.020 579.543 L 1238.003 573.220 1232.533 567.751 L 1227.064 562.281 1220.282 558.726 L 1213.500 555.170 1205.792 553.585 L 1198.084 552 1189.792 552.079 L 1181.500 552.159 1175 553.567 M 540.107 569.143 C 535.491 569.626, 527.166 570.941, 521.607 572.067 C 516.048 573.192, 506.803 575.678, 501.062 577.592 C 495.322 579.505, 486.048 583.277, 480.455 585.975 L 470.286 590.881 459.893 597.885 C 454.177 601.738, 446.125 607.829, 442 611.422 C 437.875 615.015, 431.434 621.452, 427.687 625.727 C 423.939 630.002, 417.554 638.450, 413.497 644.500 L 406.120 655.500 400.084 668 L 394.048 680.500 389.609 694 L 385.169 707.500 382.653 720.500 C 381.269 727.650, 379.543 738.225, 378.819 744 L 377.501 754.500 377.500 787.500 L 377.500 820.500 378.825 831 C 379.554 836.775, 381.282 847.125, 382.665 854 L 385.180 866.500 389.489 879.614 L 393.799 892.728 399.222 904.114 C 402.204 910.376, 407.011 919.307, 409.904 923.961 C 412.797 928.614, 417.991 936.039, 421.446 940.461 C 424.902 944.882, 432.481 953.073, 438.289 958.663 L 448.848 968.826 459.545 975.891 C 465.428 979.777, 474.800 985.173, 480.371 987.883 C 485.942 990.593, 495.225 994.382, 501 996.304 C 506.775 998.225, 516.225 1000.730, 522 1001.870 C 527.775 1003.009, 537.450 1004.463, 543.500 1005.101 L 554.500 1006.260 570.500 1005.635 C 579.300 1005.291, 587.238 1004.895, 588.139 1004.755 L 589.778 1004.500 635.051 1040.917 C 659.951 1060.946, 680.837 1077.333, 681.465 1077.333 C 682.093 1077.333, 696.618 1065.451, 713.743 1050.929 L 744.879 1024.524 743.479 1023.012 C 742.709 1022.180, 727.466 1010.025, 709.606 996 C 691.746 981.975, 677.104 970.234, 677.067 969.909 C 677.030 969.585, 680.402 966.435, 684.561 962.909 C 688.719 959.384, 695.271 952.900, 699.120 948.500 C 702.969 944.100, 709.441 935.550, 713.501 929.500 L 720.885 918.500 726.344 907.500 C 729.346 901.450, 733.383 892.225, 735.313 887 C 737.243 881.775, 739.979 873.225, 741.393 868 C 742.806 862.775, 744.839 853.325, 745.910 847 C 746.981 840.675, 748.399 829.083, 749.061 821.239 L 750.265 806.978 749.719 777.739 L 749.172 748.500 747.123 735.191 C 745.997 727.872, 743.512 715.947, 741.602 708.691 C 739.693 701.436, 736.575 691.429, 734.675 686.453 C 732.775 681.478, 728.640 672.253, 725.487 665.953 C 722.333 659.654, 716.899 650.225, 713.411 645 C 709.923 639.775, 703.913 631.812, 700.056 627.305 C 696.198 622.798, 689.097 615.661, 684.275 611.446 C 679.454 607.230, 671.199 600.912, 665.931 597.405 L 656.353 591.029 644.927 585.641 C 638.642 582.677, 629.900 579.081, 625.500 577.650 C 621.100 576.218, 613.675 574.131, 609 573.011 C 604.325 571.891, 594.878 570.305, 588.006 569.487 L 575.512 568 562.006 568.133 C 554.578 568.206, 544.723 568.661, 540.107 569.143 M 549.238 650.042 C 546.343 650.562, 541.168 651.928, 537.738 653.077 C 534.307 654.226, 529.025 656.555, 526 658.252 L 520.500 661.337 512.500 669.429 L 504.500 677.521 500.055 685.403 L 495.611 693.285 491.852 704.393 C 489.785 710.502, 487.198 720, 486.104 725.500 C 485.010 731, 483.654 739.775, 483.090 745 C 482.526 750.225, 481.770 763.500, 481.411 774.500 L 480.757 794.500 481.910 812.832 L 483.062 831.163 484.981 842.332 C 486.036 848.474, 488.064 857.500, 489.486 862.390 C 490.908 867.279, 493.432 874.479, 495.094 878.390 C 496.755 882.300, 500.153 888.774, 502.645 892.776 L 507.175 900.052 513.465 906.276 L 519.756 912.500 526.128 916.276 L 532.500 920.053 538.903 922.041 C 542.424 923.135, 548.499 924.528, 552.403 925.139 L 559.500 926.248 568.500 925.678 L 577.500 925.108 583.500 923.539 C 586.800 922.676, 592.679 920.418, 596.565 918.522 L 603.631 915.073 610.352 908.914 L 617.073 902.756 621.419 896.628 C 623.809 893.258, 627.192 887.652, 628.936 884.171 C 630.681 880.691, 633.633 873.266, 635.497 867.671 C 637.362 862.077, 639.783 853, 640.878 847.500 C 641.973 842, 643.397 832.247, 644.041 825.827 L 645.212 814.153 644.708 779.327 L 644.204 744.500 642.081 733 C 640.913 726.675, 639.022 718.125, 637.879 714 C 636.736 709.875, 634.415 703.125, 632.721 699 C 631.028 694.875, 627.810 688.352, 625.571 684.505 L 621.500 677.510 613 668.969 L 604.500 660.429 597 656.783 C 592.875 654.778, 586.800 652.414, 583.500 651.529 L 577.500 649.920 566 649.508 L 554.500 649.097 549.238 650.042 M 796.242 797.250 L 796.564 911.500 798.368 921 C 799.360 926.225, 801.764 935.341, 803.710 941.257 L 807.247 952.014 811.874 960.029 C 814.418 964.437, 818.525 970.583, 821 973.685 L 825.500 979.326 832.762 985.121 L 840.024 990.915 848.262 994.940 L 856.500 998.964 865 1001.376 C 869.675 1002.703, 877.550 1004.285, 882.500 1004.891 C 887.450 1005.498, 896 1005.993, 901.500 1005.991 L 911.500 1005.988 921.252 1004.518 L 931.003 1003.048 938.559 1000.512 C 942.714 999.117, 948.451 996.798, 951.307 995.358 C 954.163 993.919, 959.691 990.542, 963.592 987.855 L 970.683 982.969 978.453 974.985 C 982.727 970.593, 986.329 967, 986.459 967 C 986.588 967, 987.268 974.425, 987.970 983.500 L 989.246 1000 1035.623 1000 L 1082 1000 1082 841.500 L 1082 683 1032.500 683 L 983 683 983 793.566 L 983 904.131 981.868 906.316 C 981.245 907.517, 979.139 910.475, 977.187 912.888 L 973.639 917.277 967.611 921.173 L 961.583 925.069 954.542 927.270 L 947.500 929.472 935 929.429 L 922.500 929.387 916.500 927.052 L 910.500 924.718 905.391 919.609 L 900.282 914.500 897.891 908.500 L 895.500 902.500 895.229 792.750 L 894.957 683 845.439 683 L 795.920 683 796.242 797.250 M 1142 841.500 L 1142 1000 1191.500 1000 L 1241 1000 1241 841.500 L 1241 683 1191.500 683 L 1142 683 1142 841.500 M 1299 721 L 1299 759 1366 759 C 1402.850 759, 1433 759.238, 1433 759.528 C 1433 759.818, 1401.500 801.723, 1363 852.650 L 1293 945.244 1293 972.622 L 1293 1000 1428 1000 L 1563 1000 1563 962 L 1563 924 1491 924 C 1451.400 924, 1419 923.793, 1419 923.540 C 1419 923.286, 1450.500 881.206, 1489 830.028 L 1559 736.978 1559 709.989 L 1559 683 1429 683 L 1299 683 1299 721" stroke="none" fill="#142c4c" fill-rule="evenodd"/><path d="M 932.500 95.049 C 924.250 95.529, 906.925 96.871, 894 98.030 C 881.075 99.190, 861.950 101.243, 851.500 102.592 C 841.050 103.940, 824.175 106.415, 814 108.090 C 803.825 109.765, 785.600 113.168, 773.500 115.651 C 761.400 118.134, 742.725 122.366, 732 125.056 C 721.275 127.746, 705.300 131.998, 696.500 134.505 C 687.700 137.013, 667.900 143.293, 652.500 148.461 C 637.100 153.629, 615.408 161.471, 604.296 165.889 C 593.184 170.307, 576.309 177.360, 566.796 181.564 C 557.283 185.767, 539.375 194.266, 527 200.451 C 514.625 206.636, 498.650 214.967, 491.500 218.965 C 484.350 222.963, 471.300 230.548, 462.500 235.821 C 453.700 241.094, 437.526 251.414, 426.558 258.753 C 415.590 266.093, 398.940 277.864, 389.558 284.910 C 380.176 291.957, 368.225 301.206, 363 305.465 C 357.775 309.723, 346.975 318.894, 339 325.844 C 331.025 332.793, 316.231 346.584, 306.125 356.490 C 296.019 366.395, 281.832 381.025, 274.599 389 C 267.366 396.975, 256.994 408.856, 251.549 415.403 C 246.105 421.949, 236.212 434.549, 229.566 443.403 C 222.919 452.256, 213.383 465.575, 208.375 473 C 203.366 480.425, 194.431 494.549, 188.519 504.387 C 182.607 514.224, 173.346 530.874, 167.940 541.387 C 162.533 551.899, 155.793 565.675, 152.962 572 C 150.131 578.325, 144.714 591.302, 140.924 600.837 C 137.134 610.373, 131.309 626.521, 127.981 636.721 C 124.652 646.922, 119.715 663.870, 117.009 674.384 C 114.304 684.898, 110.507 701.825, 108.572 712 C 106.637 722.175, 104.173 737.025, 103.097 745 C 102.021 752.975, 100.546 765.575, 99.820 773 L 98.500 786.500 98.545 827.500 L 98.591 868.500 100.322 884.500 C 101.274 893.300, 103.198 907.925, 104.598 917 C 105.998 926.075, 108.489 940.025, 110.134 948 C 111.779 955.975, 114.460 967.813, 116.092 974.307 C 117.723 980.801, 121.292 993.520, 124.022 1002.572 C 126.752 1011.624, 131.442 1025.780, 134.446 1034.030 C 137.450 1042.281, 142.463 1055.211, 145.587 1062.765 C 148.710 1070.319, 155.189 1084.641, 159.983 1094.592 C 164.777 1104.543, 172.431 1119.393, 176.991 1127.592 C 181.552 1135.791, 189.771 1149.700, 195.257 1158.500 C 200.742 1167.300, 209.982 1181.250, 215.789 1189.500 C 221.596 1197.750, 230.757 1210.195, 236.145 1217.155 C 241.534 1224.116, 250.052 1234.691, 255.075 1240.655 C 260.097 1246.620, 269.960 1257.800, 276.992 1265.500 C 284.025 1273.200, 296.691 1286.254, 305.139 1294.509 C 313.588 1302.764, 325 1313.580, 330.500 1318.544 C 336 1323.509, 347.285 1333.219, 355.579 1340.122 C 363.872 1347.026, 379.397 1359.220, 390.079 1367.219 C 400.760 1375.219, 417.600 1387.155, 427.500 1393.743 C 437.400 1400.331, 453.064 1410.294, 462.309 1415.884 C 471.554 1421.473, 486.629 1430.169, 495.809 1435.207 C 504.989 1440.245, 522.850 1449.428, 535.500 1455.613 C 548.150 1461.798, 567.950 1470.879, 579.500 1475.793 C 591.050 1480.707, 608.600 1487.773, 618.500 1491.496 C 628.400 1495.219, 645.744 1501.321, 657.043 1505.055 C 668.341 1508.789, 685.666 1514.170, 695.543 1517.013 C 705.419 1519.856, 724.300 1524.817, 737.500 1528.036 C 750.700 1531.255, 771.850 1535.907, 784.500 1538.373 C 797.150 1540.839, 816.500 1544.218, 827.500 1545.881 C 838.500 1547.545, 855.375 1549.814, 865 1550.924 C 874.625 1552.035, 890.600 1553.612, 900.500 1554.430 C 910.400 1555.248, 929.300 1556.445, 942.500 1557.090 L 966.500 1558.263 1006.500 1557.667 C 1028.500 1557.340, 1052.800 1556.602, 1060.500 1556.027 C 1068.200 1555.453, 1082.150 1554.287, 1091.500 1553.436 C 1100.850 1552.585, 1117.050 1550.797, 1127.500 1549.462 C 1137.950 1548.127, 1155.950 1545.472, 1167.500 1543.562 C 1179.050 1541.652, 1197.427 1538.242, 1208.337 1535.984 C 1219.248 1533.726, 1236.348 1529.858, 1246.337 1527.390 C 1256.327 1524.921, 1270.125 1521.326, 1277 1519.400 C 1283.875 1517.475, 1297.573 1513.398, 1307.440 1510.341 C 1317.307 1507.283, 1332.382 1502.309, 1340.940 1499.287 C 1349.498 1496.265, 1365.050 1490.397, 1375.500 1486.247 L 1394.500 1478.703 1401.500 1478.659 L 1408.500 1478.615 1413.231 1480.743 L 1417.961 1482.870 1440.231 1504.275 C 1452.479 1516.047, 1468.350 1531.047, 1475.500 1537.606 C 1482.650 1544.166, 1494.575 1554.930, 1502 1561.528 C 1509.425 1568.125, 1523.375 1580.292, 1533 1588.567 C 1542.625 1596.842, 1559.725 1611.274, 1571 1620.640 C 1582.275 1630.005, 1601.855 1645.972, 1614.511 1656.121 C 1627.167 1666.269, 1649.784 1684.102, 1664.770 1695.748 C 1679.757 1707.395, 1704.502 1726.308, 1719.759 1737.777 C 1735.017 1749.247, 1757.625 1766.064, 1770 1775.149 C 1782.375 1784.234, 1800.712 1797.593, 1810.749 1804.836 C 1820.786 1812.079, 1842.783 1827.716, 1859.632 1839.585 C 1876.480 1851.454, 1890.843 1861.386, 1891.549 1861.657 L 1892.832 1862.150 1886.366 1839.825 C 1882.809 1827.546, 1875.154 1801.525, 1869.354 1782 C 1863.554 1762.475, 1853.417 1728.950, 1846.829 1707.500 C 1840.240 1686.050, 1831.477 1657.925, 1827.355 1645 C 1823.233 1632.075, 1814.458 1604.917, 1807.855 1584.650 C 1801.252 1564.382, 1789.862 1530.407, 1782.544 1509.150 C 1775.226 1487.892, 1765.549 1460.150, 1761.041 1447.500 C 1756.533 1434.850, 1746.608 1407.850, 1738.985 1387.500 C 1731.362 1367.150, 1719.430 1336.325, 1712.468 1319 L 1699.812 1287.500 1700.240 1280 L 1700.669 1272.500 1702.766 1268.500 C 1703.920 1266.300, 1709.450 1259.325, 1715.056 1253 C 1720.661 1246.675, 1730.306 1235.200, 1736.488 1227.500 C 1742.670 1219.800, 1752.093 1207.520, 1757.428 1200.211 C 1762.764 1192.901, 1771.751 1179.851, 1777.401 1171.211 C 1783.050 1162.570, 1790.597 1150.550, 1794.173 1144.500 C 1797.748 1138.450, 1804.356 1126.650, 1808.858 1118.278 C 1813.360 1109.906, 1820.414 1095.797, 1824.535 1086.925 C 1828.655 1078.053, 1835.113 1063.078, 1838.885 1053.647 C 1842.657 1044.216, 1848.764 1027.275, 1852.456 1016 C 1856.147 1004.725, 1861.142 987.850, 1863.554 978.500 C 1865.967 969.150, 1869.512 953.625, 1871.432 944 C 1873.352 934.375, 1875.827 920.200, 1876.933 912.500 C 1878.039 904.800, 1879.657 891.750, 1880.528 883.500 L 1882.113 868.500 1882.685 837.500 L 1883.258 806.500 1882.110 789.500 C 1881.479 780.150, 1880.280 766.425, 1879.446 759 C 1878.612 751.575, 1876.812 738.569, 1875.446 730.098 C 1874.079 721.627, 1872.037 710.152, 1870.907 704.598 C 1869.778 699.044, 1866.864 686.625, 1864.432 677 C 1862 667.375, 1858.028 653.125, 1855.604 645.333 C 1853.181 637.541, 1848.878 624.802, 1846.043 617.023 C 1843.208 609.243, 1838.038 596.044, 1834.555 587.689 C 1831.072 579.335, 1825.332 566.425, 1821.798 559 C 1818.265 551.575, 1811.832 538.975, 1807.503 531 C 1803.175 523.025, 1795.967 510.417, 1791.487 502.981 C 1787.007 495.546, 1778.831 482.721, 1773.317 474.481 C 1767.804 466.242, 1759.107 453.875, 1753.992 447 C 1748.877 440.125, 1741.076 430, 1736.658 424.500 C 1732.239 419, 1722.979 407.975, 1716.080 400 C 1709.181 392.025, 1693.854 375.783, 1682.018 363.907 C 1670.183 352.030, 1655.749 338.076, 1649.941 332.897 C 1644.134 327.718, 1634.234 319.172, 1627.941 313.906 C 1621.649 308.640, 1611.165 300.157, 1604.643 295.056 C 1598.122 289.955, 1586.197 281.043, 1578.143 275.251 C 1570.090 269.460, 1556.525 260.136, 1548 254.530 C 1539.475 248.924, 1525.750 240.275, 1517.500 235.309 C 1509.250 230.344, 1495.300 222.310, 1486.500 217.455 C 1477.700 212.600, 1459.250 203.125, 1445.500 196.399 C 1431.750 189.672, 1412.625 180.818, 1403 176.722 C 1393.375 172.627, 1377.625 166.241, 1368 162.533 C 1358.375 158.825, 1339.250 152.036, 1325.500 147.447 C 1311.750 142.858, 1291.637 136.597, 1280.803 133.534 C 1269.970 130.471, 1252.870 125.974, 1242.803 123.542 C 1232.737 121.109, 1216.625 117.499, 1207 115.520 C 1197.375 113.541, 1180.275 110.379, 1169 108.493 C 1157.725 106.608, 1141.525 104.162, 1133 103.058 C 1124.475 101.954, 1110.975 100.361, 1103 99.518 C 1095.025 98.674, 1079.725 97.272, 1069 96.401 L 1049.500 94.818 998.500 94.497 L 947.500 94.176 932.500 95.049 M 1175 553.567 L 1168.500 554.974 1162.276 558.037 L 1156.052 561.100 1150.776 565.943 L 1145.500 570.786 1142.292 576.143 L 1139.085 581.500 1137.542 587.460 L 1136 593.420 1136 600.500 L 1136 607.580 1137.542 613.540 L 1139.085 619.500 1142.292 624.857 L 1145.500 630.214 1150.776 635.057 L 1156.052 639.900 1162.276 642.957 L 1168.500 646.013 1175.500 647.489 L 1182.500 648.965 1190.292 648.983 L 1198.084 649 1205.792 647.415 L 1213.500 645.830 1220.282 642.274 L 1227.064 638.719 1232.533 633.249 L 1238.003 627.780 1241.016 621.466 L 1244.030 615.151 1244.956 607.826 L 1245.882 600.500 1244.960 593.183 L 1244.038 585.865 1241.020 579.543 L 1238.003 573.220 1232.533 567.751 L 1227.064 562.281 1220.282 558.726 L 1213.500 555.170 1205.792 553.585 L 1198.084 552 1189.792 552.079 L 1181.500 552.159 1175 553.567 M 540.107 569.143 C 535.491 569.626, 527.166 570.941, 521.607 572.067 C 516.048 573.192, 506.803 575.678, 501.062 577.592 C 495.322 579.505, 486.048 583.277, 480.455 585.975 L 470.286 590.881 459.893 597.885 C 454.177 601.738, 446.125 607.829, 442 611.422 C 437.875 615.015, 431.434 621.452, 427.687 625.727 C 423.939 630.002, 417.554 638.450, 413.497 644.500 L 406.120 655.500 400.084 668 L 394.048 680.500 389.609 694 L 385.169 707.500 382.653 720.500 C 381.269 727.650, 379.543 738.225, 378.819 744 L 377.501 754.500 377.500 787.500 L 377.500 820.500 378.825 831 C 379.554 836.775, 381.282 847.125, 382.665 854 L 385.180 866.500 389.489 879.614 L 393.799 892.728 399.222 904.114 C 402.204 910.376, 407.011 919.307, 409.904 923.961 C 412.797 928.614, 417.991 936.039, 421.446 940.461 C 424.902 944.882, 432.481 953.073, 438.289 958.663 L 448.848 968.826 459.545 975.891 C 465.428 979.777, 474.800 985.173, 480.371 987.883 C 485.942 990.593, 495.225 994.382, 501 996.304 C 506.775 998.225, 516.225 1000.730, 522 1001.870 C 527.775 1003.009, 537.450 1004.463, 543.500 1005.101 L 554.500 1006.260 570.500 1005.635 C 579.300 1005.291, 587.238 1004.895, 588.139 1004.755 L 589.778 1004.500 635.051 1040.917 C 659.951 1060.946, 680.837 1077.333, 681.465 1077.333 C 682.093 1077.333, 696.618 1065.451, 713.743 1050.929 L 744.879 1024.524 743.479 1023.012 C 742.709 1022.180, 727.466 1010.025, 709.606 996 C 691.746 981.975, 677.104 970.234, 677.067 969.909 C 677.030 969.585, 680.402 966.435, 684.561 962.909 C 688.719 959.384, 695.271 952.900, 699.120 948.500 C 702.969 944.100, 709.441 935.550, 713.501 929.500 L 720.885 918.500 726.344 907.500 C 729.346 901.450, 733.383 892.225, 735.313 887 C 737.243 881.775, 739.979 873.225, 741.393 868 C 742.806 862.775, 744.839 853.325, 745.910 847 C 746.981 840.675, 748.399 829.083, 749.061 821.239 L 750.265 806.978 749.719 777.739 L 749.172 748.500 747.123 735.191 C 745.997 727.872, 743.512 715.947, 741.602 708.691 C 739.693 701.436, 736.575 691.429, 734.675 686.453 C 732.775 681.478, 728.640 672.253, 725.487 665.953 C 722.333 659.654, 716.899 650.225, 713.411 645 C 709.923 639.775, 703.913 631.812, 700.056 627.305 C 696.198 622.798, 689.097 615.661, 684.275 611.446 C 679.454 607.230, 671.199 600.912, 665.931 597.405 L 656.353 591.029 644.927 585.641 C 638.642 582.677, 629.900 579.081, 625.500 577.650 C 621.100 576.218, 613.675 574.131, 609 573.011 C 604.325 571.891, 594.878 570.305, 588.006 569.487 L 575.512 568 562.006 568.133 C 554.578 568.206, 544.723 568.661, 540.107 569.143 M 549.238 650.042 C 546.343 650.562, 541.168 651.928, 537.738 653.077 C 534.307 654.226, 529.025 656.555, 526 658.252 L 520.500 661.337 512.500 669.429 L 504.500 677.521 500.055 685.403 L 495.611 693.285 491.852 704.393 C 489.785 710.502, 487.198 720, 486.104 725.500 C 485.010 731, 483.654 739.775, 483.090 745 C 482.526 750.225, 481.770 763.500, 481.411 774.500 L 480.757 794.500 481.910 812.832 L 483.062 831.163 484.981 842.332 C 486.036 848.474, 488.064 857.500, 489.486 862.390 C 490.908 867.279, 493.432 874.479, 495.094 878.390 C 496.755 882.300, 500.153 888.774, 502.645 892.776 L 507.175 900.052 513.465 906.276 L 519.756 912.500 526.128 916.276 L 532.500 920.053 538.903 922.041 C 542.424 923.135, 548.499 924.528, 552.403 925.139 L 559.500 926.248 568.500 925.678 L 577.500 925.108 583.500 923.539 C 586.800 922.676, 592.679 920.418, 596.565 918.522 L 603.631 915.073 610.352 908.914 L 617.073 902.756 621.419 896.628 C 623.809 893.258, 627.192 887.652, 628.936 884.171 C 630.681 880.691, 633.633 873.266, 635.497 867.671 C 637.362 862.077, 639.783 853, 640.878 847.500 C 641.973 842, 643.397 832.247, 644.041 825.827 L 645.212 814.153 644.708 779.327 L 644.204 744.500 642.081 733 C 640.913 726.675, 639.022 718.125, 637.879 714 C 636.736 709.875, 634.415 703.125, 632.721 699 C 631.028 694.875, 627.810 688.352, 625.571 684.505 L 621.500 677.510 613 668.969 L 604.500 660.429 597 656.783 C 592.875 654.778, 586.800 652.414, 583.500 651.529 L 577.500 649.920 566 649.508 L 554.500 649.097 549.238 650.042 M 796.242 797.250 L 796.564 911.500 798.368 921 C 799.360 926.225, 801.764 935.341, 803.710 941.257 L 807.247 952.014 811.874 960.029 C 814.418 964.437, 818.525 970.583, 821 973.685 L 825.500 979.326 832.762 985.121 L 840.024 990.915 848.262 994.940 L 856.500 998.964 865 1001.376 C 869.675 1002.703, 877.550 1004.285, 882.500 1004.891 C 887.450 1005.498, 896 1005.993, 901.500 1005.991 L 911.500 1005.988 921.252 1004.518 L 931.003 1003.048 938.559 1000.512 C 942.714 999.117, 948.451 996.798, 951.307 995.358 C 954.163 993.919, 959.691 990.542, 963.592 987.855 L 970.683 982.969 978.453 974.985 C 982.727 970.593, 986.329 967, 986.459 967 C 986.588 967, 987.268 974.425, 987.970 983.500 L 989.246 1000 1035.623 1000 L 1082 1000 1082 841.500 L 1082 683 1032.500 683 L 983 683 983 793.566 L 983 904.131 981.868 906.316 C 981.245 907.517, 979.139 910.475, 977.187 912.888 L 973.639 917.277 967.611 921.173 L 961.583 925.069 954.542 927.270 L 947.500 929.472 935 929.429 L 922.500 929.387 916.500 927.052 L 910.500 924.718 905.391 919.609 L 900.282 914.500 897.891 908.500 L 895.500 902.500 895.229 792.750 L 894.957 683 845.439 683 L 795.920 683 796.242 797.250 M 1142 841.500 L 1142 1000 1191.500 1000 L 1241 1000 1241 841.500 L 1241 683 1191.500 683 L 1142 683 1142 841.500 M 1299 721 L 1299 759 1366 759 C 1402.850 759, 1433 759.238, 1433 759.528 C 1433 759.818, 1401.500 801.723, 1363 852.650 L 1293 945.244 1293 972.622 L 1293 1000 1428 1000 L 1563 1000 1563 962 L 1563 924 1491 924 C 1451.400 924, 1419 923.793, 1419 923.540 C 1419 923.286, 1450.500 881.206, 1489 830.028 L 1559 736.978 1559 709.989 L 1559 683 1429 683 L 1299 683 1299 721" stroke="none" fill="#cbdbe3" fill-rule="evenodd"/></svg>