<?xml version="1.0" encoding="UTF-8"?>
<svg id="R-Elements" xmlns="http://www.w3.org/2000/svg" viewBox="0 0 2000 2000">
  <defs>
    <style>
      .cls-1, .cls-2, .cls-3, .cls-4, .cls-5, .cls-6, .cls-7, .cls-8 {
        stroke-miterlimit: 10;
        stroke-width: 30px;
      }

      .cls-1, .cls-3, .cls-4, .cls-5, .cls-6, .cls-7, .cls-8 {
        stroke: #172d4d;
      }

      .cls-1, .cls-4, .cls-9, .cls-10 {
        fill-rule: evenodd;
      }

      .cls-1, .cls-9 {
        fill: #cfd8e5;
      }

      .cls-2 {
        stroke: #fff;
      }

      .cls-2, .cls-11 {
        fill: #172d4d;
      }

      .cls-3, .cls-4, .cls-5, .cls-6, .cls-8 {
        fill: none;
      }

      .cls-12 {
        fill: #45a0e5;
      }

      .cls-12, .cls-11, .cls-9, .cls-10 {
        stroke-width: 0px;
      }

      .cls-5 {
        stroke-dasharray: 0 0 23.71 29.64;
      }

      .cls-6 {
        stroke-dasharray: 0 0 23.99 29.98;
      }

      .cls-7, .cls-10 {
        fill: #fff;
      }

      .cls-8 {
        stroke-dasharray: 0 0 23.66 29.58;
      }
    </style>
  </defs>
  <path class="cls-10" d="M2002,82.88c0-44.09-35.84-79.88-80-79.88H82C37.85,3,2,38.79,2,82.88v1837.24c0,44.09,35.85,79.88,80,79.88h1840c44.16,0,80-35.79,80-79.88V82.88Z"/>
  <g>
    <polygon class="cls-9" points="173.15 1827.81 174.99 1811.87 353.45 273.19 1163.82 891.23 1797.89 1158.68 173.15 1827.81"/>
    <g>
      <polyline class="cls-3" points="184.24 1823.24 173.15 1827.81 174.53 1815.89"/>
      <line class="cls-6" x1="177.98" y1="1786.11" x2="350.34" y2="300"/>
      <polyline class="cls-3" points="352.07 285.11 353.45 273.19 362.99 280.46"/>
      <polyline class="cls-5" points="386.56 298.44 1163.82 891.23 1773.18 1148.26"/>
      <polyline class="cls-3" points="1786.84 1154.02 1797.89 1158.68 1786.8 1163.25"/>
      <line class="cls-8" x1="1759.45" y1="1174.52" x2="197.92" y2="1817.61"/>
    </g>
  </g>
  <polygon class="cls-1" points="1585.53 158.99 353.45 273.19 357.14 276.32 1163.82 891.23 1797.89 1158.68 1585.53 158.99"/>
  <ellipse class="cls-2" cx="1798.04" cy="1158.38" rx="167.94" ry="158.39"/>
  <polyline class="cls-4" points="1630.61 179.03 1163.82 891.23 173.15 1827.81"/>
  <ellipse class="cls-2" cx="206.94" cy="1806.5" rx="167.94" ry="158.39"/>
  <ellipse class="cls-7" cx="407.28" cy="284.96" rx="167.94" ry="158.39"/>
  <ellipse class="cls-2" cx="1639.36" cy="202.82" rx="167.94" ry="158.39"/>
  <ellipse class="cls-7" cx="1140.69" cy="894.17" rx="167.94" ry="158.39"/>
  <path class="cls-11" d="M1554.35,1777.38h-332.86l-63.28,189h-201.86l342.98-921h175.92l344.88,921h-201.86l-63.92-189ZM1272.75,1623.38h230.34l-115.81-345.22-114.53,345.22Z"/>
  <path class="cls-12" d="M1579.67,1771.94h-332.86l-63.28,189h-201.86l342.98-921h175.92l344.88,921h-201.86l-63.92-189ZM1298.08,1617.94h230.34l-115.81-345.22-114.53,345.22Z"/>
</svg>