<?xml version="1.0" encoding="UTF-8"?>
<svg id="Ebene_1" data-name="Ebene 1" xmlns="http://www.w3.org/2000/svg" viewBox="0 0 2000 2000">
  <defs>
    <style>
      .cls-1 {
        fill: #e6e6e6;
      }

      .cls-1, .cls-2 {
        fill-rule: evenodd;
      }

      .cls-2 {
        fill: #cfd8e5;
        stroke: #172d4d;
        stroke-linecap: round;
        stroke-linejoin: round;
        stroke-width: 58.52px;
      }

      .cls-3 {
        fill: #172d4d;
        font-family: Roboto-Black, Roboto;
        font-size: 600px;
        font-weight: 800;
      }
    </style>
  </defs>
  <path class="cls-1" d="m2000,80c0-44.15-35.84-80-80-80H80C35.85,0,0,35.85,0,80v1840c0,44.15,35.85,80,80,80h1840c44.16,0,80-35.85,80-80V80Z"/>
  <g>
    <path class="cls-2" d="m1391.65,1507.44c-123.87,51.12-263.52,79.87-411.24,79.87-508.85,0-921.97-341.18-921.97-761.4S471.56,64.52,980.41,64.52s921.97,341.17,921.97,761.4c0,170.82-68.26,328.57-183.48,455.68,111.78,270.19,213.81,650.65,213.81,650.65,0,0-345.93-228.67-541.06-424.8Z"/>
    <text class="cls-3" transform="translate(345.95 1000.24)"><tspan x="0" y="0">Quiz</tspan></text>
  </g>
</svg>