<svg xmlns="http://www.w3.org/2000/svg" width="2000" height="2000" viewBox="0 0 2000 2000" version="1.1"><path d="M 941 36.084 C 928.075 36.506, 907.825 37.575, 896 38.458 C 884.175 39.340, 866.175 40.970, 856 42.078 C 845.825 43.187, 828.050 45.449, 816.500 47.106 C 804.950 48.762, 786.950 51.683, 776.500 53.596 C 766.050 55.509, 750.075 58.660, 741 60.599 C 731.925 62.537, 714.600 66.618, 702.500 69.666 C 690.400 72.715, 671.500 77.891, 660.500 81.168 C 649.500 84.445, 633.075 89.615, 624 92.658 C 614.925 95.701, 599.175 101.331, 589 105.170 C 578.825 109.009, 564.039 114.835, 556.143 118.117 C 548.247 121.399, 534.747 127.265, 526.143 131.153 C 517.539 135.042, 500.375 143.326, 488 149.563 C 475.625 155.801, 460.100 163.918, 453.500 167.601 C 446.900 171.284, 433.400 179.132, 423.500 185.040 C 413.600 190.948, 396.725 201.634, 386 208.787 C 375.275 215.940, 360.125 226.452, 352.333 232.146 C 344.542 237.841, 331.942 247.445, 324.333 253.488 C 316.725 259.531, 304.356 269.741, 296.847 276.176 C 289.339 282.612, 277.189 293.462, 269.847 300.289 C 262.506 307.116, 249.300 320.091, 240.500 329.123 C 231.700 338.155, 218.809 352.060, 211.854 360.023 C 204.899 367.985, 195.725 378.775, 191.467 384 C 187.210 389.225, 178.671 400.250, 172.492 408.500 C 166.313 416.750, 156.530 430.475, 150.751 439 C 144.973 447.525, 135.518 462.375, 129.740 472 C 123.962 481.625, 115.339 496.757, 110.577 505.627 C 105.816 514.497, 98.145 529.855, 93.532 539.757 C 88.918 549.659, 81.568 566.702, 77.199 577.630 C 72.829 588.559, 66.266 606.634, 62.614 617.798 C 58.961 628.963, 53.707 646.851, 50.936 657.552 C 48.166 668.252, 44.371 684.581, 42.504 693.840 C 40.636 703.098, 37.962 718.509, 36.560 728.086 C 35.159 737.664, 33.341 752.025, 32.521 760 C 31.701 767.975, 30.512 786.126, 29.879 800.335 L 28.729 826.170 29.893 851.835 C 30.534 865.951, 31.723 884.025, 32.535 892 C 33.347 899.975, 35.164 914.375, 36.572 924 C 37.980 933.625, 40.703 949.150, 42.624 958.500 C 44.544 967.850, 47.464 980.900, 49.112 987.500 C 50.760 994.100, 54.089 1006.250, 56.510 1014.500 C 58.930 1022.750, 62.989 1035.575, 65.529 1043 C 68.070 1050.425, 73.074 1063.878, 76.649 1072.895 C 80.224 1081.913, 86.958 1097.663, 91.614 1107.895 C 96.269 1118.128, 104.396 1134.600, 109.672 1144.500 C 114.949 1154.400, 123.313 1169.250, 128.259 1177.500 C 133.205 1185.750, 142.017 1199.669, 147.841 1208.430 C 153.666 1217.192, 163.803 1231.592, 170.369 1240.430 C 176.935 1249.269, 186.905 1262.125, 192.524 1269 C 198.143 1275.875, 206.663 1286, 211.457 1291.500 C 216.251 1297, 227.848 1309.518, 237.228 1319.318 C 246.609 1329.117, 261.757 1344.037, 270.892 1352.471 C 280.026 1360.906, 293.816 1373.155, 301.536 1379.692 C 309.256 1386.229, 321.406 1396.115, 328.536 1401.661 C 335.666 1407.207, 347.350 1416.004, 354.500 1421.211 C 361.650 1426.418, 373.959 1435.028, 381.852 1440.344 C 389.746 1445.661, 403.021 1454.239, 411.352 1459.406 C 419.684 1464.574, 434.117 1473.161, 443.426 1478.490 C 452.735 1483.818, 469.385 1492.835, 480.426 1498.528 C 491.467 1504.221, 507.475 1512.108, 516 1516.055 C 524.525 1520.002, 539.150 1526.490, 548.500 1530.474 C 557.850 1534.458, 574.048 1540.985, 584.495 1544.978 C 594.943 1548.972, 614.068 1555.756, 626.995 1560.055 C 639.923 1564.353, 658.524 1570.168, 668.332 1572.977 C 678.140 1575.786, 695.915 1580.519, 707.832 1583.496 C 719.749 1586.472, 739.447 1590.931, 751.604 1593.404 C 763.761 1595.877, 783.336 1599.485, 795.104 1601.422 C 806.872 1603.359, 825.500 1606.064, 836.500 1607.433 C 847.500 1608.803, 863.925 1610.608, 873 1611.444 C 882.075 1612.280, 896.925 1613.535, 906 1614.232 L 922.500 1615.500 981 1615.491 L 1039.500 1615.482 1062 1613.704 C 1074.375 1612.726, 1094.625 1610.799, 1107 1609.423 C 1119.375 1608.046, 1138.725 1605.563, 1150 1603.904 C 1161.275 1602.245, 1178.825 1599.316, 1189 1597.396 C 1199.175 1595.476, 1214.700 1592.338, 1223.500 1590.423 C 1232.300 1588.509, 1249.850 1584.290, 1262.500 1581.047 C 1275.150 1577.805, 1295.281 1572.192, 1307.236 1568.574 C 1319.191 1564.956, 1337.191 1559.104, 1347.236 1555.570 C 1357.281 1552.036, 1369.733 1547.525, 1374.907 1545.545 L 1384.313 1541.946 1386.885 1544.223 C 1388.300 1545.475, 1395.542 1552.314, 1402.979 1559.420 C 1410.415 1566.526, 1425.542 1580.501, 1436.594 1590.476 C 1447.646 1600.451, 1463.171 1614.243, 1471.094 1621.126 C 1479.017 1628.010, 1492.925 1639.929, 1502 1647.614 C 1511.075 1655.300, 1528.400 1669.696, 1540.500 1679.607 C 1552.600 1689.518, 1571.275 1704.591, 1582 1713.104 C 1592.725 1721.617, 1610.500 1735.564, 1621.500 1744.098 C 1632.500 1752.632, 1654.325 1769.303, 1670 1781.145 C 1685.675 1792.986, 1712 1812.563, 1728.500 1824.647 C 1745 1836.732, 1773.350 1857.195, 1791.500 1870.122 C 1809.650 1883.049, 1836.200 1901.728, 1850.500 1911.631 C 1864.800 1921.534, 1885.587 1935.804, 1896.692 1943.342 C 1907.798 1950.879, 1918.823 1957.926, 1921.192 1959.001 L 1925.500 1960.956 1931.884 1960.978 L 1938.268 1961 1942.038 1959.870 L 1945.809 1958.741 1950.556 1955.120 L 1955.302 1951.500 1958.148 1946.426 L 1960.994 1941.353 1961.617 1935.392 L 1962.240 1929.431 1958.044 1913.965 C 1955.736 1905.459, 1948.742 1880.485, 1942.501 1858.468 C 1936.260 1836.450, 1926.645 1803.150, 1921.136 1784.468 C 1915.626 1765.785, 1905.717 1732.725, 1899.117 1711 C 1892.516 1689.275, 1882.567 1657.100, 1877.006 1639.500 C 1871.445 1621.900, 1861.694 1591.525, 1855.336 1572 C 1848.978 1552.475, 1838.214 1520.203, 1831.415 1500.283 C 1824.617 1480.364, 1814.280 1450.664, 1808.445 1434.283 C 1802.610 1417.903, 1792.287 1389.650, 1785.505 1371.500 C 1778.723 1353.350, 1768.817 1327.475, 1763.491 1314 C 1758.166 1300.525, 1753.623 1289.050, 1753.395 1288.500 L 1752.982 1287.500 1764.584 1273.500 C 1770.965 1265.800, 1781.593 1252.300, 1788.200 1243.500 C 1794.808 1234.700, 1806.196 1218.500, 1813.507 1207.500 C 1820.819 1196.500, 1831.128 1180.075, 1836.416 1171 C 1841.704 1161.925, 1850.924 1144.825, 1856.904 1133 C 1862.884 1121.175, 1870.307 1105.757, 1873.399 1098.738 C 1876.492 1091.719, 1881.216 1080.469, 1883.897 1073.738 C 1886.577 1067.007, 1890.684 1056.100, 1893.022 1049.500 C 1895.361 1042.900, 1899.241 1031.200, 1901.645 1023.500 C 1904.049 1015.800, 1908.235 1000.725, 1910.947 990 C 1913.659 979.275, 1917.235 963.525, 1918.892 955 C 1920.550 946.475, 1922.802 933.650, 1923.897 926.500 C 1924.991 919.350, 1926.579 907.200, 1927.425 899.500 C 1928.271 891.800, 1929.437 878.975, 1930.015 871 L 1931.067 856.500 1931.067 826 L 1931.067 795.500 1930.013 781 C 1929.434 773.025, 1928.499 762, 1927.935 756.500 C 1927.372 751, 1925.815 738.833, 1924.475 729.461 C 1923.135 720.090, 1920.440 704.482, 1918.486 694.777 C 1916.532 685.072, 1913.181 670.239, 1911.039 661.816 C 1908.897 653.392, 1904.860 638.981, 1902.069 629.792 C 1899.278 620.602, 1894.123 605.302, 1890.615 595.792 C 1887.107 586.281, 1881.951 573.039, 1879.159 566.363 C 1876.366 559.688, 1870.708 547.088, 1866.585 538.363 C 1862.462 529.639, 1855.661 515.988, 1851.472 508.029 C 1847.283 500.069, 1841.352 489.269, 1838.291 484.029 C 1835.229 478.788, 1830.246 470.450, 1827.216 465.500 C 1824.186 460.550, 1816.717 449.075, 1810.619 440 C 1804.521 430.925, 1793.956 416.075, 1787.140 407 C 1780.324 397.925, 1770.642 385.553, 1765.624 379.506 C 1760.606 373.460, 1751.100 362.438, 1744.500 355.012 C 1737.900 347.587, 1726.200 335.040, 1718.500 327.130 C 1710.800 319.220, 1697.525 306.325, 1689 298.475 C 1680.475 290.625, 1666.772 278.511, 1658.549 271.557 C 1650.325 264.602, 1637.193 253.970, 1629.366 247.931 C 1621.539 241.892, 1608.467 232.164, 1600.318 226.313 C 1592.168 220.463, 1578.525 211.100, 1570 205.507 C 1561.475 199.914, 1546.625 190.603, 1537 184.815 C 1527.375 179.027, 1511.850 170.092, 1502.500 164.960 C 1493.150 159.828, 1474.700 150.357, 1461.500 143.913 C 1448.300 137.470, 1430.525 129.179, 1422 125.488 C 1413.475 121.798, 1397.050 115.037, 1385.500 110.465 C 1373.950 105.893, 1353.025 98.275, 1339 93.535 C 1324.975 88.796, 1303.375 82.023, 1291 78.485 C 1278.625 74.946, 1259.275 69.813, 1248 67.077 C 1236.725 64.342, 1218.712 60.308, 1207.971 58.114 C 1197.229 55.920, 1178.779 52.532, 1166.971 50.586 C 1155.162 48.640, 1136.725 45.934, 1126 44.573 C 1115.275 43.212, 1099.075 41.415, 1090 40.578 C 1080.925 39.742, 1066.975 38.587, 1059 38.013 C 1051.025 37.438, 1031.450 36.535, 1015.500 36.006 C 999.550 35.476, 981.550 35.104, 975.500 35.179 C 969.450 35.254, 953.925 35.661, 941 36.084 M 928 95.063 C 919.475 95.480, 905.750 96.334, 897.500 96.962 C 889.250 97.590, 872.375 99.220, 860 100.584 C 847.625 101.948, 828.500 104.432, 817.500 106.105 C 806.500 107.777, 789.175 110.716, 779 112.635 C 768.825 114.554, 749.700 118.617, 736.500 121.663 C 723.300 124.710, 701.025 130.498, 687 134.525 C 672.975 138.552, 650.752 145.515, 637.615 149.998 C 624.479 154.482, 604.454 161.869, 593.115 166.415 C 581.777 170.961, 565.975 177.538, 558 181.032 C 550.025 184.525, 531.575 193.348, 517 200.639 C 502.425 207.929, 481.772 218.884, 471.104 224.983 C 460.435 231.082, 443.446 241.343, 433.349 247.786 C 423.252 254.229, 406.302 265.676, 395.682 273.224 C 385.062 280.773, 368.301 293.420, 358.436 301.330 C 348.571 309.239, 334.650 320.811, 327.500 327.045 C 320.350 333.279, 303.671 349.207, 290.436 362.440 L 266.372 386.500 253.856 401 C 246.973 408.975, 236.518 421.575, 230.623 429 C 224.729 436.425, 215.166 449.147, 209.373 457.271 C 203.579 465.395, 194.750 478.445, 189.751 486.271 C 184.752 494.097, 176.643 507.475, 171.729 516 C 166.816 524.525, 158.149 540.950, 152.468 552.500 C 146.787 564.050, 139.149 580.700, 135.495 589.500 C 131.841 598.300, 126.416 612.347, 123.440 620.716 C 120.463 629.084, 116.416 641.234, 114.445 647.716 C 112.475 654.197, 109.104 666.250, 106.955 674.500 C 104.806 682.750, 101.494 697.375, 99.596 707 C 97.698 716.625, 95.218 731.025, 94.084 739 C 92.951 746.975, 91.256 760.700, 90.317 769.500 L 88.611 785.500 88.570 825 L 88.528 864.500 90.310 882 C 91.291 891.625, 93.178 906.801, 94.505 915.725 C 95.832 924.649, 98.321 938.824, 100.037 947.225 C 101.753 955.626, 104.891 969.253, 107.011 977.506 C 109.130 985.760, 112.915 999.120, 115.422 1007.196 C 117.930 1015.272, 122.616 1028.994, 125.837 1037.690 C 129.057 1046.385, 134.561 1060.250, 138.068 1068.500 C 141.575 1076.750, 149.213 1092.950, 155.041 1104.500 C 160.870 1116.050, 169.602 1132.250, 174.446 1140.500 C 179.290 1148.750, 188.429 1163.375, 194.754 1173 C 201.079 1182.625, 210.766 1196.575, 216.280 1204 C 221.794 1211.425, 229.921 1222, 234.341 1227.500 C 238.760 1233, 248.021 1244.025, 254.920 1252 C 261.819 1259.975, 277.146 1276.222, 288.982 1288.105 C 300.817 1299.988, 316.878 1315.335, 324.673 1322.209 C 332.468 1329.084, 345.518 1340.103, 353.673 1346.696 C 361.828 1353.289, 375.025 1363.525, 383 1369.443 C 390.975 1375.360, 405.375 1385.483, 415 1391.938 C 424.625 1398.394, 439.475 1407.959, 448 1413.195 C 456.525 1418.431, 470.925 1426.864, 480 1431.935 C 489.075 1437.007, 507.750 1446.709, 521.500 1453.497 C 535.250 1460.284, 553.475 1468.850, 562 1472.531 C 570.525 1476.212, 585.825 1482.506, 596 1486.518 C 606.175 1490.530, 622.301 1496.563, 631.837 1499.926 C 641.372 1503.288, 658.922 1508.994, 670.837 1512.604 C 682.751 1516.215, 702.850 1521.802, 715.500 1525.020 C 728.150 1528.238, 748.175 1532.899, 760 1535.380 C 771.825 1537.860, 791.175 1541.479, 803 1543.423 C 814.825 1545.366, 833.500 1548.077, 844.500 1549.446 C 855.500 1550.815, 871.925 1552.608, 881 1553.431 C 890.075 1554.253, 905.825 1555.491, 916 1556.182 L 934.500 1557.437 980.500 1557.437 L 1026.500 1557.437 1045 1556.176 C 1055.175 1555.482, 1070.700 1554.250, 1079.500 1553.437 C 1088.300 1552.625, 1101.125 1551.288, 1108 1550.467 C 1114.875 1549.645, 1128.600 1547.819, 1138.500 1546.408 C 1148.400 1544.998, 1165.950 1542.095, 1177.500 1539.957 C 1189.050 1537.820, 1206.600 1534.249, 1216.500 1532.023 C 1226.400 1529.797, 1243.725 1525.536, 1255 1522.554 C 1266.275 1519.572, 1284.436 1514.372, 1295.357 1510.997 C 1306.279 1507.623, 1323.154 1502.019, 1332.857 1498.544 C 1342.561 1495.069, 1358.150 1489.170, 1367.500 1485.436 L 1384.500 1478.645 1391.500 1478.600 L 1398.500 1478.554 1403.312 1480.748 L 1408.125 1482.943 1430.312 1504.321 C 1442.516 1516.079, 1458.350 1531.062, 1465.500 1537.616 C 1472.650 1544.170, 1484.575 1554.937, 1492 1561.543 C 1499.425 1568.148, 1514.725 1581.448, 1526 1591.098 C 1537.275 1600.748, 1555.500 1616.060, 1566.500 1625.124 C 1577.500 1634.189, 1596.625 1649.707, 1609 1659.608 C 1621.375 1669.510, 1641.625 1685.491, 1654 1695.121 C 1666.375 1704.751, 1689.325 1722.316, 1705 1734.153 C 1720.675 1745.990, 1747 1765.563, 1763.500 1777.647 C 1780 1789.732, 1808.350 1810.193, 1826.500 1823.116 C 1844.650 1836.040, 1864.587 1850.126, 1870.804 1854.419 C 1877.021 1858.712, 1882.242 1862.062, 1882.406 1861.863 C 1882.569 1861.663, 1879.158 1849.350, 1874.824 1834.500 C 1870.491 1819.650, 1860.678 1786.575, 1853.017 1761 C 1845.357 1735.425, 1834.100 1698.525, 1828.002 1679 C 1821.904 1659.475, 1810.354 1623.250, 1802.336 1598.500 C 1794.319 1573.750, 1781.340 1534.825, 1773.494 1512 C 1765.649 1489.175, 1755.534 1460.150, 1751.017 1447.500 C 1746.499 1434.850, 1737.242 1409.619, 1730.445 1391.431 C 1723.649 1373.242, 1711.768 1342.514, 1704.044 1323.145 L 1690 1287.929 1690.010 1281.215 L 1690.020 1274.500 1692.420 1269.500 L 1694.820 1264.500 1704.977 1253 C 1710.563 1246.675, 1719.305 1236.325, 1724.404 1230 C 1729.503 1223.675, 1737.899 1212.875, 1743.062 1206 C 1748.225 1199.125, 1757.130 1186.525, 1762.850 1178 C 1768.570 1169.475, 1777.932 1154.625, 1783.655 1145 C 1789.377 1135.375, 1798.949 1117.825, 1804.925 1106 C 1810.901 1094.175, 1818.530 1078.156, 1821.878 1070.402 C 1825.227 1062.648, 1830.223 1050.340, 1832.981 1043.050 C 1835.739 1035.760, 1840.661 1021.564, 1843.920 1011.502 C 1847.178 1001.440, 1852.121 984.049, 1854.903 972.854 C 1857.684 961.659, 1861.068 946.425, 1862.421 939 C 1863.775 931.575, 1865.791 919.200, 1866.901 911.500 C 1868.011 903.800, 1869.632 890.075, 1870.504 881 L 1872.089 864.500 1872.677 838.500 L 1873.265 812.500 1872.113 793.500 C 1871.479 783.050, 1870.046 766.403, 1868.928 756.507 C 1867.810 746.611, 1865.778 731.986, 1864.413 724.007 C 1863.048 716.028, 1860.373 702.492, 1858.469 693.928 C 1856.564 685.363, 1853.225 671.863, 1851.047 663.928 C 1848.870 655.992, 1844.781 642.525, 1841.960 634 C 1839.140 625.475, 1833.524 610.151, 1829.482 599.948 C 1825.439 589.744, 1818.733 574.122, 1814.578 565.233 C 1810.424 556.343, 1803.356 542.192, 1798.872 533.785 C 1794.388 525.378, 1786.670 511.750, 1781.720 503.500 C 1776.771 495.250, 1768.212 481.803, 1762.700 473.618 C 1757.187 465.432, 1747.406 451.707, 1740.963 443.118 C 1734.521 434.528, 1724.085 421.319, 1717.774 413.765 C 1711.463 406.210, 1700.427 393.598, 1693.251 385.737 C 1686.074 377.876, 1673.053 364.482, 1664.315 355.972 C 1655.576 347.463, 1643.043 335.747, 1636.463 329.938 C 1629.884 324.129, 1618.993 314.807, 1612.262 309.223 C 1605.531 303.638, 1591.926 293.010, 1582.029 285.603 C 1572.131 278.197, 1555.363 266.328, 1544.767 259.227 C 1534.170 252.126, 1519.190 242.486, 1511.477 237.804 C 1503.765 233.122, 1489.140 224.646, 1478.977 218.969 C 1468.815 213.291, 1449.250 203.154, 1435.500 196.441 C 1421.750 189.728, 1401.500 180.403, 1390.500 175.720 C 1379.500 171.036, 1360.825 163.608, 1349 159.214 C 1337.175 154.819, 1319.850 148.733, 1310.500 145.689 C 1301.150 142.645, 1286.525 138.119, 1278 135.633 C 1269.475 133.146, 1255.525 129.323, 1247 127.136 C 1238.475 124.950, 1222.275 121.129, 1211 118.647 C 1199.725 116.164, 1182.850 112.760, 1173.500 111.083 C 1164.150 109.406, 1149.075 106.924, 1140 105.568 C 1130.925 104.212, 1115.625 102.200, 1106 101.098 C 1096.375 99.995, 1080.175 98.407, 1070 97.567 C 1059.825 96.728, 1041.825 95.583, 1030 95.023 L 1008.500 94.005 976 94.156 C 958.125 94.238, 936.525 94.647, 928 95.063 M 1163.191 554.025 L 1155.881 555.940 1150.772 558.720 C 1147.961 560.249, 1143.525 563.421, 1140.912 565.770 C 1138.300 568.118, 1134.765 572.149, 1133.057 574.727 L 1129.952 579.415 1127.976 585.813 L 1126 592.211 1126 600.500 L 1126 608.789 1127.976 615.187 L 1129.952 621.585 1133.057 626.273 C 1134.765 628.851, 1138.300 632.882, 1140.912 635.230 C 1143.525 637.579, 1147.954 640.747, 1150.756 642.272 L 1155.851 645.044 1163.585 647.022 L 1171.320 649 1180.410 648.983 L 1189.500 648.965 1196.257 647.533 L 1203.015 646.101 1210.039 642.410 L 1217.064 638.719 1222.533 633.249 L 1228.003 627.780 1230.960 621.584 L 1233.917 615.388 1235.122 608.092 L 1236.327 600.796 1235.158 593.280 L 1233.990 585.765 1230.997 579.493 L 1228.003 573.220 1222.533 567.751 L 1217.064 562.281 1210.039 558.590 L 1203.015 554.899 1196.257 553.467 L 1189.500 552.035 1180 552.072 L 1170.500 552.110 1163.191 554.025 M 525.907 569.452 C 520.632 570.207, 511.529 571.978, 505.679 573.388 C 499.830 574.797, 490.647 577.593, 485.272 579.600 C 479.897 581.608, 472.455 584.778, 468.733 586.646 C 465.012 588.514, 458.946 591.891, 455.254 594.150 C 451.563 596.410, 444.933 601.005, 440.521 604.362 C 436.109 607.718, 428.797 614.199, 424.270 618.764 C 419.744 623.329, 413.408 630.537, 410.190 634.782 C 406.972 639.027, 402.619 645.200, 400.518 648.500 C 398.416 651.800, 394.336 659.225, 391.451 665 C 388.566 670.775, 384.590 679.852, 382.616 685.170 C 380.642 690.489, 377.675 699.714, 376.022 705.670 C 374.369 711.627, 372.140 721.677, 371.067 728.005 C 369.995 734.333, 368.586 745.520, 367.937 752.864 L 366.756 766.217 367.280 796.359 L 367.804 826.500 369.467 837 C 370.382 842.775, 372.045 851.775, 373.162 857 C 374.279 862.225, 377.178 872.575, 379.605 880 L 384.016 893.500 391.516 908.500 L 399.017 923.500 405.736 933 L 412.456 942.500 425.478 955.572 L 438.500 968.645 449.393 975.882 L 460.286 983.119 470.554 988.072 C 476.201 990.796, 485.586 994.586, 491.410 996.493 C 497.233 998.401, 506.429 1000.865, 511.844 1001.968 C 517.260 1003.072, 526.373 1004.490, 532.096 1005.120 L 542.500 1006.264 561.563 1005.724 L 580.625 1005.184 625.868 1041.592 C 650.752 1061.616, 671.277 1078, 671.479 1078 C 671.681 1078, 685.943 1066.055, 703.173 1051.456 C 720.403 1036.857, 734.580 1024.595, 734.677 1024.206 C 734.774 1023.818, 728.524 1018.550, 720.786 1012.500 C 713.049 1006.450, 697.735 994.374, 686.755 985.665 L 666.791 969.830 672.646 964.742 C 675.866 961.944, 681.350 956.695, 684.833 953.077 C 688.316 949.460, 694.445 942.171, 698.453 936.880 C 702.461 931.589, 708.262 922.806, 711.344 917.362 C 714.427 911.918, 718.701 903.422, 720.844 898.482 C 722.986 893.542, 726.336 884.550, 728.287 878.500 C 730.238 872.450, 732.961 862.100, 734.337 855.500 C 735.713 848.900, 737.438 839, 738.170 833.500 L 739.500 823.500 739.500 787.500 L 739.500 751.500 738.170 741.500 C 737.438 736, 735.712 726.107, 734.333 719.517 C 732.955 712.926, 730.121 702.351, 728.034 696.017 C 725.948 689.682, 722.228 679.937, 719.767 674.360 C 717.305 668.783, 712.414 659.388, 708.896 653.483 L 702.500 642.745 694.233 632.426 L 685.966 622.107 677.733 614.522 C 673.205 610.350, 665.450 604.030, 660.500 600.477 L 651.500 594.017 638.968 587.632 L 626.437 581.248 613.898 577.168 L 601.359 573.089 589.929 570.944 L 578.500 568.799 557 568.439 L 535.500 568.080 525.907 569.452 M 543 649.652 C 541.075 649.909, 536.673 650.764, 533.217 651.553 L 526.934 652.986 519.218 656.743 L 511.502 660.500 503.405 668.500 L 495.308 676.500 491.207 683.500 C 488.952 687.350, 485.688 694.062, 483.954 698.415 C 482.220 702.768, 479.746 710.487, 478.457 715.569 C 477.168 720.651, 475.352 729.464, 474.420 735.154 L 472.727 745.500 472.269 780.550 L 471.811 815.600 473.419 829.550 C 474.303 837.222, 476.121 848.332, 477.458 854.239 L 479.890 864.978 483.573 874.239 C 485.599 879.332, 488.972 886.425, 491.069 890 C 493.166 893.575, 496.821 898.820, 499.191 901.655 C 501.561 904.491, 505.750 908.678, 508.500 910.960 L 513.500 915.108 520.528 918.517 L 527.555 921.926 534.528 923.634 L 541.500 925.343 554 925.350 L 566.500 925.356 573 923.611 C 576.575 922.652, 582.875 920.219, 587 918.206 L 594.500 914.544 602.609 906.522 L 610.719 898.500 615.378 890.500 C 617.940 886.100, 621.430 878.900, 623.134 874.500 C 624.837 870.100, 627.278 862.381, 628.558 857.346 C 629.839 852.311, 631.634 843.536, 632.547 837.846 L 634.208 827.500 634.724 795.685 L 635.241 763.870 634.051 751.185 C 633.397 744.208, 632.206 734.675, 631.406 730 C 630.605 725.325, 628.803 717.450, 627.401 712.500 L 624.853 703.500 620.524 694.322 C 618.143 689.274, 614.710 682.974, 612.895 680.322 C 611.080 677.670, 607.324 673.084, 604.548 670.131 C 601.771 667.179, 597.581 663.440, 595.235 661.823 C 592.889 660.206, 588.305 657.561, 585.047 655.944 C 581.789 654.328, 576.283 652.330, 572.812 651.505 L 566.500 650.004 556.500 649.594 C 551 649.368, 544.925 649.394, 543 649.652 M 786.251 797.750 L 786.566 912.500 788.353 921.455 C 789.335 926.381, 791.505 934.706, 793.175 939.955 C 794.844 945.205, 797.963 952.875, 800.106 957 C 802.248 961.125, 806.324 967.587, 809.163 971.360 L 814.325 978.221 821.412 984.153 L 828.500 990.086 838.500 994.992 L 848.500 999.898 856.500 1001.882 C 860.900 1002.973, 868.260 1004.404, 872.857 1005.063 L 881.213 1006.261 896.357 1005.733 L 911.500 1005.206 921.429 1002.615 L 931.357 1000.025 940.429 995.602 L 949.500 991.178 956 986.216 C 959.575 983.487, 965.539 978.089, 969.254 974.220 L 976.008 967.186 976.456 969.343 C 976.702 970.529, 977.375 977.246, 977.952 984.269 C 978.528 991.292, 979 997.704, 979 998.519 L 979 1000 1025.500 1000 L 1072 1000 1072 841.500 L 1072 683 1022 683 L 972 683 972 794.910 L 972 906.820 968.160 911.678 L 964.320 916.536 958.910 920.258 L 953.500 923.981 947.744 926.001 C 944.578 927.113, 938.503 928.513, 934.244 929.113 L 926.500 930.203 919.152 929.551 L 911.805 928.899 906.152 926.822 L 900.500 924.745 895.380 919.528 L 890.260 914.311 887.880 908.405 L 885.500 902.500 885.225 792.750 L 884.949 683 835.442 683 L 785.936 683 786.251 797.750 M 1132 841.500 L 1132 1000 1181.500 1000 L 1231 1000 1231 841.500 L 1231 683 1181.500 683 L 1132 683 1132 841.500 M 1289 721 L 1289 759 1356 759 C 1392.850 759, 1423 759.216, 1423 759.481 C 1423 759.745, 1391.500 801.636, 1353 852.571 L 1283 945.181 1283 972.590 L 1283 1000 1418 1000 L 1553 1000 1553 962.007 L 1553 924.013 1480.897 923.757 L 1408.794 923.500 1479.397 829.598 L 1550 735.696 1550 709.348 L 1550 683 1419.500 683 L 1289 683 1289 721" stroke="none" fill="#142c4c" fill-rule="evenodd"/><path d="M 60.021 2.068 C 55.907 3.145, 49.729 5.342, 46.291 6.951 C 42.853 8.560, 37.894 11.316, 35.270 13.075 C 32.647 14.835, 27.647 19.026, 24.161 22.388 C 20.674 25.749, 16.023 31.120, 13.824 34.322 C 11.626 37.525, 8.526 42.925, 6.936 46.322 C 5.347 49.720, 3.135 56.059, 2.023 60.410 L -0 68.320 0 1000 L 0 1931.680 2.023 1939.590 C 3.135 1943.941, 5.358 1950.303, 6.961 1953.730 C 8.564 1957.156, 11.316 1962.106, 13.075 1964.730 C 14.835 1967.353, 19.026 1972.353, 22.388 1975.839 C 25.749 1979.326, 31.120 1983.977, 34.322 1986.176 C 37.525 1988.374, 42.925 1991.474, 46.322 1993.064 C 49.720 1994.653, 56.059 1996.865, 60.410 1997.977 L 68.320 2000 1000 2000 L 1931.680 2000 1939.590 1997.977 C 1943.941 1996.865, 1950.280 1994.653, 1953.678 1993.064 C 1957.075 1991.474, 1962.475 1988.374, 1965.678 1986.176 C 1968.880 1983.977, 1974.251 1979.326, 1977.612 1975.839 C 1980.974 1972.353, 1985.150 1967.374, 1986.893 1964.776 C 1988.635 1962.178, 1991.352 1957.320, 1992.931 1953.982 C 1994.510 1950.643, 1996.560 1944.894, 1997.486 1941.206 C 1998.412 1937.518, 1999.582 1933.719, 2000.085 1932.764 L 2001 1931.027 2001 998.347 L 2001 65.667 2000.325 66.342 L 1999.650 67.017 1997.812 59.779 C 1996.801 55.798, 1994.669 49.752, 1993.073 46.343 C 1991.478 42.934, 1988.374 37.525, 1986.176 34.322 C 1983.977 31.120, 1979.326 25.749, 1975.839 22.388 C 1972.353 19.026, 1967.353 14.835, 1964.730 13.075 C 1962.106 11.316, 1957.156 8.564, 1953.730 6.961 C 1950.303 5.358, 1943.941 3.135, 1939.590 2.023 L 1931.680 0 999.590 0.055 L 67.500 0.110 60.021 2.068 M 941 36.084 C 928.075 36.506, 907.825 37.575, 896 38.458 C 884.175 39.340, 866.175 40.970, 856 42.078 C 845.825 43.187, 828.050 45.449, 816.500 47.106 C 804.950 48.762, 786.950 51.683, 776.500 53.596 C 766.050 55.509, 750.075 58.660, 741 60.599 C 731.925 62.537, 714.600 66.618, 702.500 69.666 C 690.400 72.715, 671.500 77.891, 660.500 81.168 C 649.500 84.445, 633.075 89.615, 624 92.658 C 614.925 95.701, 599.175 101.331, 589 105.170 C 578.825 109.009, 564.039 114.835, 556.143 118.117 C 548.247 121.399, 534.747 127.265, 526.143 131.153 C 517.539 135.042, 500.375 143.326, 488 149.563 C 475.625 155.801, 460.100 163.918, 453.500 167.601 C 446.900 171.284, 433.400 179.132, 423.500 185.040 C 413.600 190.948, 396.725 201.634, 386 208.787 C 375.275 215.940, 360.125 226.452, 352.333 232.146 C 344.542 237.841, 331.942 247.445, 324.333 253.488 C 316.725 259.531, 304.356 269.741, 296.847 276.176 C 289.339 282.612, 277.189 293.462, 269.847 300.289 C 262.506 307.116, 249.300 320.091, 240.500 329.123 C 231.700 338.155, 218.809 352.060, 211.854 360.023 C 204.899 367.985, 195.725 378.775, 191.467 384 C 187.210 389.225, 178.671 400.250, 172.492 408.500 C 166.313 416.750, 156.530 430.475, 150.751 439 C 144.973 447.525, 135.518 462.375, 129.740 472 C 123.962 481.625, 115.339 496.757, 110.577 505.627 C 105.816 514.497, 98.145 529.855, 93.532 539.757 C 88.918 549.659, 81.568 566.702, 77.199 577.630 C 72.829 588.559, 66.266 606.634, 62.614 617.798 C 58.961 628.963, 53.707 646.851, 50.936 657.552 C 48.166 668.252, 44.371 684.581, 42.504 693.840 C 40.636 703.098, 37.962 718.509, 36.560 728.086 C 35.159 737.664, 33.341 752.025, 32.521 760 C 31.701 767.975, 30.512 786.126, 29.879 800.335 L 28.729 826.170 29.893 851.835 C 30.534 865.951, 31.723 884.025, 32.535 892 C 33.347 899.975, 35.164 914.375, 36.572 924 C 37.980 933.625, 40.703 949.150, 42.624 958.500 C 44.544 967.850, 47.464 980.900, 49.112 987.500 C 50.760 994.100, 54.089 1006.250, 56.510 1014.500 C 58.930 1022.750, 62.989 1035.575, 65.529 1043 C 68.070 1050.425, 73.074 1063.878, 76.649 1072.895 C 80.224 1081.913, 86.958 1097.663, 91.614 1107.895 C 96.269 1118.128, 104.396 1134.600, 109.672 1144.500 C 114.949 1154.400, 123.313 1169.250, 128.259 1177.500 C 133.205 1185.750, 142.017 1199.669, 147.841 1208.430 C 153.666 1217.192, 163.803 1231.592, 170.369 1240.430 C 176.935 1249.269, 186.905 1262.125, 192.524 1269 C 198.143 1275.875, 206.663 1286, 211.457 1291.500 C 216.251 1297, 227.848 1309.518, 237.228 1319.318 C 246.609 1329.117, 261.757 1344.037, 270.892 1352.471 C 280.026 1360.906, 293.816 1373.155, 301.536 1379.692 C 309.256 1386.229, 321.406 1396.115, 328.536 1401.661 C 335.666 1407.207, 347.350 1416.004, 354.500 1421.211 C 361.650 1426.418, 373.959 1435.028, 381.852 1440.344 C 389.746 1445.661, 403.021 1454.239, 411.352 1459.406 C 419.684 1464.574, 434.117 1473.161, 443.426 1478.490 C 452.735 1483.818, 469.385 1492.835, 480.426 1498.528 C 491.467 1504.221, 507.475 1512.108, 516 1516.055 C 524.525 1520.002, 539.150 1526.490, 548.500 1530.474 C 557.850 1534.458, 574.048 1540.985, 584.495 1544.978 C 594.943 1548.972, 614.068 1555.756, 626.995 1560.055 C 639.923 1564.353, 658.524 1570.168, 668.332 1572.977 C 678.140 1575.786, 695.915 1580.519, 707.832 1583.496 C 719.749 1586.472, 739.447 1590.931, 751.604 1593.404 C 763.761 1595.877, 783.336 1599.485, 795.104 1601.422 C 806.872 1603.359, 825.500 1606.064, 836.500 1607.433 C 847.500 1608.803, 863.925 1610.608, 873 1611.444 C 882.075 1612.280, 896.925 1613.535, 906 1614.232 L 922.500 1615.500 981 1615.491 L 1039.500 1615.482 1062 1613.704 C 1074.375 1612.726, 1094.625 1610.799, 1107 1609.423 C 1119.375 1608.046, 1138.725 1605.563, 1150 1603.904 C 1161.275 1602.245, 1178.825 1599.316, 1189 1597.396 C 1199.175 1595.476, 1214.700 1592.338, 1223.500 1590.423 C 1232.300 1588.509, 1249.850 1584.290, 1262.500 1581.047 C 1275.150 1577.805, 1295.281 1572.192, 1307.236 1568.574 C 1319.191 1564.956, 1337.191 1559.104, 1347.236 1555.570 C 1357.281 1552.036, 1369.733 1547.525, 1374.907 1545.545 L 1384.313 1541.946 1386.885 1544.223 C 1388.300 1545.475, 1395.542 1552.314, 1402.979 1559.420 C 1410.415 1566.526, 1425.542 1580.501, 1436.594 1590.476 C 1447.646 1600.451, 1463.171 1614.243, 1471.094 1621.126 C 1479.017 1628.010, 1492.925 1639.929, 1502 1647.614 C 1511.075 1655.300, 1528.400 1669.696, 1540.500 1679.607 C 1552.600 1689.518, 1571.275 1704.591, 1582 1713.104 C 1592.725 1721.617, 1610.500 1735.564, 1621.500 1744.098 C 1632.500 1752.632, 1654.325 1769.303, 1670 1781.145 C 1685.675 1792.986, 1712 1812.563, 1728.500 1824.647 C 1745 1836.732, 1773.350 1857.195, 1791.500 1870.122 C 1809.650 1883.049, 1836.200 1901.728, 1850.500 1911.631 C 1864.800 1921.534, 1885.587 1935.804, 1896.692 1943.342 C 1907.798 1950.879, 1918.823 1957.926, 1921.192 1959.001 L 1925.500 1960.956 1931.884 1960.978 L 1938.268 1961 1942.038 1959.870 L 1945.809 1958.741 1950.556 1955.120 L 1955.302 1951.500 1958.148 1946.426 L 1960.994 1941.353 1961.617 1935.392 L 1962.240 1929.431 1958.044 1913.965 C 1955.736 1905.459, 1948.742 1880.485, 1942.501 1858.468 C 1936.260 1836.450, 1926.645 1803.150, 1921.136 1784.468 C 1915.626 1765.785, 1905.717 1732.725, 1899.117 1711 C 1892.516 1689.275, 1882.567 1657.100, 1877.006 1639.500 C 1871.445 1621.900, 1861.694 1591.525, 1855.336 1572 C 1848.978 1552.475, 1838.214 1520.203, 1831.415 1500.283 C 1824.617 1480.364, 1814.280 1450.664, 1808.445 1434.283 C 1802.610 1417.903, 1792.287 1389.650, 1785.505 1371.500 C 1778.723 1353.350, 1768.817 1327.475, 1763.491 1314 C 1758.166 1300.525, 1753.623 1289.050, 1753.395 1288.500 L 1752.982 1287.500 1764.584 1273.500 C 1770.965 1265.800, 1781.593 1252.300, 1788.200 1243.500 C 1794.808 1234.700, 1806.196 1218.500, 1813.507 1207.500 C 1820.819 1196.500, 1831.128 1180.075, 1836.416 1171 C 1841.704 1161.925, 1850.924 1144.825, 1856.904 1133 C 1862.884 1121.175, 1870.307 1105.757, 1873.399 1098.738 C 1876.492 1091.719, 1881.216 1080.469, 1883.897 1073.738 C 1886.577 1067.007, 1890.684 1056.100, 1893.022 1049.500 C 1895.361 1042.900, 1899.241 1031.200, 1901.645 1023.500 C 1904.049 1015.800, 1908.235 1000.725, 1910.947 990 C 1913.659 979.275, 1917.235 963.525, 1918.892 955 C 1920.550 946.475, 1922.802 933.650, 1923.897 926.500 C 1924.991 919.350, 1926.579 907.200, 1927.425 899.500 C 1928.271 891.800, 1929.437 878.975, 1930.015 871 L 1931.067 856.500 1931.067 826 L 1931.067 795.500 1930.013 781 C 1929.434 773.025, 1928.499 762, 1927.935 756.500 C 1927.372 751, 1925.815 738.833, 1924.475 729.461 C 1923.135 720.090, 1920.440 704.482, 1918.486 694.777 C 1916.532 685.072, 1913.181 670.239, 1911.039 661.816 C 1908.897 653.392, 1904.860 638.981, 1902.069 629.792 C 1899.278 620.602, 1894.123 605.302, 1890.615 595.792 C 1887.107 586.281, 1881.951 573.039, 1879.159 566.363 C 1876.366 559.688, 1870.708 547.088, 1866.585 538.363 C 1862.462 529.639, 1855.661 515.988, 1851.472 508.029 C 1847.283 500.069, 1841.352 489.269, 1838.291 484.029 C 1835.229 478.788, 1830.246 470.450, 1827.216 465.500 C 1824.186 460.550, 1816.717 449.075, 1810.619 440 C 1804.521 430.925, 1793.956 416.075, 1787.140 407 C 1780.324 397.925, 1770.642 385.553, 1765.624 379.506 C 1760.606 373.460, 1751.100 362.438, 1744.500 355.012 C 1737.900 347.587, 1726.200 335.040, 1718.500 327.130 C 1710.800 319.220, 1697.525 306.325, 1689 298.475 C 1680.475 290.625, 1666.772 278.511, 1658.549 271.557 C 1650.325 264.602, 1637.193 253.970, 1629.366 247.931 C 1621.539 241.892, 1608.467 232.164, 1600.318 226.313 C 1592.168 220.463, 1578.525 211.100, 1570 205.507 C 1561.475 199.914, 1546.625 190.603, 1537 184.815 C 1527.375 179.027, 1511.850 170.092, 1502.500 164.960 C 1493.150 159.828, 1474.700 150.357, 1461.500 143.913 C 1448.300 137.470, 1430.525 129.179, 1422 125.488 C 1413.475 121.798, 1397.050 115.037, 1385.500 110.465 C 1373.950 105.893, 1353.025 98.275, 1339 93.535 C 1324.975 88.796, 1303.375 82.023, 1291 78.485 C 1278.625 74.946, 1259.275 69.813, 1248 67.077 C 1236.725 64.342, 1218.712 60.308, 1207.971 58.114 C 1197.229 55.920, 1178.779 52.532, 1166.971 50.586 C 1155.162 48.640, 1136.725 45.934, 1126 44.573 C 1115.275 43.212, 1099.075 41.415, 1090 40.578 C 1080.925 39.742, 1066.975 38.587, 1059 38.013 C 1051.025 37.438, 1031.450 36.535, 1015.500 36.006 C 999.550 35.476, 981.550 35.104, 975.500 35.179 C 969.450 35.254, 953.925 35.661, 941 36.084 M 0.498 1000 C 0.498 1513.425, 0.611 1723.463, 0.750 1466.750 C 0.889 1210.038, 0.889 789.963, 0.750 533.250 C 0.611 276.538, 0.498 486.575, 0.498 1000 M 928 95.063 C 919.475 95.480, 905.750 96.334, 897.500 96.962 C 889.250 97.590, 872.375 99.220, 860 100.584 C 847.625 101.948, 828.500 104.432, 817.500 106.105 C 806.500 107.777, 789.175 110.716, 779 112.635 C 768.825 114.554, 749.700 118.617, 736.500 121.663 C 723.300 124.710, 701.025 130.498, 687 134.525 C 672.975 138.552, 650.752 145.515, 637.615 149.998 C 624.479 154.482, 604.454 161.869, 593.115 166.415 C 581.777 170.961, 565.975 177.538, 558 181.032 C 550.025 184.525, 531.575 193.348, 517 200.639 C 502.425 207.929, 481.772 218.884, 471.104 224.983 C 460.435 231.082, 443.446 241.343, 433.349 247.786 C 423.252 254.229, 406.302 265.676, 395.682 273.224 C 385.062 280.773, 368.301 293.420, 358.436 301.330 C 348.571 309.239, 334.650 320.811, 327.500 327.045 C 320.350 333.279, 303.671 349.207, 290.436 362.440 L 266.372 386.500 253.856 401 C 246.973 408.975, 236.518 421.575, 230.623 429 C 224.729 436.425, 215.166 449.147, 209.373 457.271 C 203.579 465.395, 194.750 478.445, 189.751 486.271 C 184.752 494.097, 176.643 507.475, 171.729 516 C 166.816 524.525, 158.149 540.950, 152.468 552.500 C 146.787 564.050, 139.149 580.700, 135.495 589.500 C 131.841 598.300, 126.416 612.347, 123.440 620.716 C 120.463 629.084, 116.416 641.234, 114.445 647.716 C 112.475 654.197, 109.104 666.250, 106.955 674.500 C 104.806 682.750, 101.494 697.375, 99.596 707 C 97.698 716.625, 95.218 731.025, 94.084 739 C 92.951 746.975, 91.256 760.700, 90.317 769.500 L 88.611 785.500 88.570 825 L 88.528 864.500 90.310 882 C 91.291 891.625, 93.178 906.801, 94.505 915.725 C 95.832 924.649, 98.321 938.824, 100.037 947.225 C 101.753 955.626, 104.891 969.253, 107.011 977.506 C 109.130 985.760, 112.915 999.120, 115.422 1007.196 C 117.930 1015.272, 122.616 1028.994, 125.837 1037.690 C 129.057 1046.385, 134.561 1060.250, 138.068 1068.500 C 141.575 1076.750, 149.213 1092.950, 155.041 1104.500 C 160.870 1116.050, 169.602 1132.250, 174.446 1140.500 C 179.290 1148.750, 188.429 1163.375, 194.754 1173 C 201.079 1182.625, 210.766 1196.575, 216.280 1204 C 221.794 1211.425, 229.921 1222, 234.341 1227.500 C 238.760 1233, 248.021 1244.025, 254.920 1252 C 261.819 1259.975, 277.146 1276.222, 288.982 1288.105 C 300.817 1299.988, 316.878 1315.335, 324.673 1322.209 C 332.468 1329.084, 345.518 1340.103, 353.673 1346.696 C 361.828 1353.289, 375.025 1363.525, 383 1369.443 C 390.975 1375.360, 405.375 1385.483, 415 1391.938 C 424.625 1398.394, 439.475 1407.959, 448 1413.195 C 456.525 1418.431, 470.925 1426.864, 480 1431.935 C 489.075 1437.007, 507.750 1446.709, 521.500 1453.497 C 535.250 1460.284, 553.475 1468.850, 562 1472.531 C 570.525 1476.212, 585.825 1482.506, 596 1486.518 C 606.175 1490.530, 622.301 1496.563, 631.837 1499.926 C 641.372 1503.288, 658.922 1508.994, 670.837 1512.604 C 682.751 1516.215, 702.850 1521.802, 715.500 1525.020 C 728.150 1528.238, 748.175 1532.899, 760 1535.380 C 771.825 1537.860, 791.175 1541.479, 803 1543.423 C 814.825 1545.366, 833.500 1548.077, 844.500 1549.446 C 855.500 1550.815, 871.925 1552.608, 881 1553.431 C 890.075 1554.253, 905.825 1555.491, 916 1556.182 L 934.500 1557.437 980.500 1557.437 L 1026.500 1557.437 1045 1556.176 C 1055.175 1555.482, 1070.700 1554.250, 1079.500 1553.437 C 1088.300 1552.625, 1101.125 1551.288, 1108 1550.467 C 1114.875 1549.645, 1128.600 1547.819, 1138.500 1546.408 C 1148.400 1544.998, 1165.950 1542.095, 1177.500 1539.957 C 1189.050 1537.820, 1206.600 1534.249, 1216.500 1532.023 C 1226.400 1529.797, 1243.725 1525.536, 1255 1522.554 C 1266.275 1519.572, 1284.436 1514.372, 1295.357 1510.997 C 1306.279 1507.623, 1323.154 1502.019, 1332.857 1498.544 C 1342.561 1495.069, 1358.150 1489.170, 1367.500 1485.436 L 1384.500 1478.645 1391.500 1478.600 L 1398.500 1478.554 1403.312 1480.748 L 1408.125 1482.943 1430.312 1504.321 C 1442.516 1516.079, 1458.350 1531.062, 1465.500 1537.616 C 1472.650 1544.170, 1484.575 1554.937, 1492 1561.543 C 1499.425 1568.148, 1514.725 1581.448, 1526 1591.098 C 1537.275 1600.748, 1555.500 1616.060, 1566.500 1625.124 C 1577.500 1634.189, 1596.625 1649.707, 1609 1659.608 C 1621.375 1669.510, 1641.625 1685.491, 1654 1695.121 C 1666.375 1704.751, 1689.325 1722.316, 1705 1734.153 C 1720.675 1745.990, 1747 1765.563, 1763.500 1777.647 C 1780 1789.732, 1808.350 1810.193, 1826.500 1823.116 C 1844.650 1836.040, 1864.587 1850.126, 1870.804 1854.419 C 1877.021 1858.712, 1882.242 1862.062, 1882.406 1861.863 C 1882.569 1861.663, 1879.158 1849.350, 1874.824 1834.500 C 1870.491 1819.650, 1860.678 1786.575, 1853.017 1761 C 1845.357 1735.425, 1834.100 1698.525, 1828.002 1679 C 1821.904 1659.475, 1810.354 1623.250, 1802.336 1598.500 C 1794.319 1573.750, 1781.340 1534.825, 1773.494 1512 C 1765.649 1489.175, 1755.534 1460.150, 1751.017 1447.500 C 1746.499 1434.850, 1737.242 1409.619, 1730.445 1391.431 C 1723.649 1373.242, 1711.768 1342.514, 1704.044 1323.145 L 1690 1287.929 1690.010 1281.215 L 1690.020 1274.500 1692.420 1269.500 L 1694.820 1264.500 1704.977 1253 C 1710.563 1246.675, 1719.305 1236.325, 1724.404 1230 C 1729.503 1223.675, 1737.899 1212.875, 1743.062 1206 C 1748.225 1199.125, 1757.130 1186.525, 1762.850 1178 C 1768.570 1169.475, 1777.932 1154.625, 1783.655 1145 C 1789.377 1135.375, 1798.949 1117.825, 1804.925 1106 C 1810.901 1094.175, 1818.530 1078.156, 1821.878 1070.402 C 1825.227 1062.648, 1830.223 1050.340, 1832.981 1043.050 C 1835.739 1035.760, 1840.661 1021.564, 1843.920 1011.502 C 1847.178 1001.440, 1852.121 984.049, 1854.903 972.854 C 1857.684 961.659, 1861.068 946.425, 1862.421 939 C 1863.775 931.575, 1865.791 919.200, 1866.901 911.500 C 1868.011 903.800, 1869.632 890.075, 1870.504 881 L 1872.089 864.500 1872.677 838.500 L 1873.265 812.500 1872.113 793.500 C 1871.479 783.050, 1870.046 766.403, 1868.928 756.507 C 1867.810 746.611, 1865.778 731.986, 1864.413 724.007 C 1863.048 716.028, 1860.373 702.492, 1858.469 693.928 C 1856.564 685.363, 1853.225 671.863, 1851.047 663.928 C 1848.870 655.992, 1844.781 642.525, 1841.960 634 C 1839.140 625.475, 1833.524 610.151, 1829.482 599.948 C 1825.439 589.744, 1818.733 574.122, 1814.578 565.233 C 1810.424 556.343, 1803.356 542.192, 1798.872 533.785 C 1794.388 525.378, 1786.670 511.750, 1781.720 503.500 C 1776.771 495.250, 1768.212 481.803, 1762.700 473.618 C 1757.187 465.432, 1747.406 451.707, 1740.963 443.118 C 1734.521 434.528, 1724.085 421.319, 1717.774 413.765 C 1711.463 406.210, 1700.427 393.598, 1693.251 385.737 C 1686.074 377.876, 1673.053 364.482, 1664.315 355.972 C 1655.576 347.463, 1643.043 335.747, 1636.463 329.938 C 1629.884 324.129, 1618.993 314.807, 1612.262 309.223 C 1605.531 303.638, 1591.926 293.010, 1582.029 285.603 C 1572.131 278.197, 1555.363 266.328, 1544.767 259.227 C 1534.170 252.126, 1519.190 242.486, 1511.477 237.804 C 1503.765 233.122, 1489.140 224.646, 1478.977 218.969 C 1468.815 213.291, 1449.250 203.154, 1435.500 196.441 C 1421.750 189.728, 1401.500 180.403, 1390.500 175.720 C 1379.500 171.036, 1360.825 163.608, 1349 159.214 C 1337.175 154.819, 1319.850 148.733, 1310.500 145.689 C 1301.150 142.645, 1286.525 138.119, 1278 135.633 C 1269.475 133.146, 1255.525 129.323, 1247 127.136 C 1238.475 124.950, 1222.275 121.129, 1211 118.647 C 1199.725 116.164, 1182.850 112.760, 1173.500 111.083 C 1164.150 109.406, 1149.075 106.924, 1140 105.568 C 1130.925 104.212, 1115.625 102.200, 1106 101.098 C 1096.375 99.995, 1080.175 98.407, 1070 97.567 C 1059.825 96.728, 1041.825 95.583, 1030 95.023 L 1008.500 94.005 976 94.156 C 958.125 94.238, 936.525 94.647, 928 95.063 M 1163.191 554.025 L 1155.881 555.940 1150.772 558.720 C 1147.961 560.249, 1143.525 563.421, 1140.912 565.770 C 1138.300 568.118, 1134.765 572.149, 1133.057 574.727 L 1129.952 579.415 1127.976 585.813 L 1126 592.211 1126 600.500 L 1126 608.789 1127.976 615.187 L 1129.952 621.585 1133.057 626.273 C 1134.765 628.851, 1138.300 632.882, 1140.912 635.230 C 1143.525 637.579, 1147.954 640.747, 1150.756 642.272 L 1155.851 645.044 1163.585 647.022 L 1171.320 649 1180.410 648.983 L 1189.500 648.965 1196.257 647.533 L 1203.015 646.101 1210.039 642.410 L 1217.064 638.719 1222.533 633.249 L 1228.003 627.780 1230.960 621.584 L 1233.917 615.388 1235.122 608.092 L 1236.327 600.796 1235.158 593.280 L 1233.990 585.765 1230.997 579.493 L 1228.003 573.220 1222.533 567.751 L 1217.064 562.281 1210.039 558.590 L 1203.015 554.899 1196.257 553.467 L 1189.500 552.035 1180 552.072 L 1170.500 552.110 1163.191 554.025 M 525.907 569.452 C 520.632 570.207, 511.529 571.978, 505.679 573.388 C 499.830 574.797, 490.647 577.593, 485.272 579.600 C 479.897 581.608, 472.455 584.778, 468.733 586.646 C 465.012 588.514, 458.946 591.891, 455.254 594.150 C 451.563 596.410, 444.933 601.005, 440.521 604.362 C 436.109 607.718, 428.797 614.199, 424.270 618.764 C 419.744 623.329, 413.408 630.537, 410.190 634.782 C 406.972 639.027, 402.619 645.200, 400.518 648.500 C 398.416 651.800, 394.336 659.225, 391.451 665 C 388.566 670.775, 384.590 679.852, 382.616 685.170 C 380.642 690.489, 377.675 699.714, 376.022 705.670 C 374.369 711.627, 372.140 721.677, 371.067 728.005 C 369.995 734.333, 368.586 745.520, 367.937 752.864 L 366.756 766.217 367.280 796.359 L 367.804 826.500 369.467 837 C 370.382 842.775, 372.045 851.775, 373.162 857 C 374.279 862.225, 377.178 872.575, 379.605 880 L 384.016 893.500 391.516 908.500 L 399.017 923.500 405.736 933 L 412.456 942.500 425.478 955.572 L 438.500 968.645 449.393 975.882 L 460.286 983.119 470.554 988.072 C 476.201 990.796, 485.586 994.586, 491.410 996.493 C 497.233 998.401, 506.429 1000.865, 511.844 1001.968 C 517.260 1003.072, 526.373 1004.490, 532.096 1005.120 L 542.500 1006.264 561.563 1005.724 L 580.625 1005.184 625.868 1041.592 C 650.752 1061.616, 671.277 1078, 671.479 1078 C 671.681 1078, 685.943 1066.055, 703.173 1051.456 C 720.403 1036.857, 734.580 1024.595, 734.677 1024.206 C 734.774 1023.818, 728.524 1018.550, 720.786 1012.500 C 713.049 1006.450, 697.735 994.374, 686.755 985.665 L 666.791 969.830 672.646 964.742 C 675.866 961.944, 681.350 956.695, 684.833 953.077 C 688.316 949.460, 694.445 942.171, 698.453 936.880 C 702.461 931.589, 708.262 922.806, 711.344 917.362 C 714.427 911.918, 718.701 903.422, 720.844 898.482 C 722.986 893.542, 726.336 884.550, 728.287 878.500 C 730.238 872.450, 732.961 862.100, 734.337 855.500 C 735.713 848.900, 737.438 839, 738.170 833.500 L 739.500 823.500 739.500 787.500 L 739.500 751.500 738.170 741.500 C 737.438 736, 735.712 726.107, 734.333 719.517 C 732.955 712.926, 730.121 702.351, 728.034 696.017 C 725.948 689.682, 722.228 679.937, 719.767 674.360 C 717.305 668.783, 712.414 659.388, 708.896 653.483 L 702.500 642.745 694.233 632.426 L 685.966 622.107 677.733 614.522 C 673.205 610.350, 665.450 604.030, 660.500 600.477 L 651.500 594.017 638.968 587.632 L 626.437 581.248 613.898 577.168 L 601.359 573.089 589.929 570.944 L 578.500 568.799 557 568.439 L 535.500 568.080 525.907 569.452 M 543 649.652 C 541.075 649.909, 536.673 650.764, 533.217 651.553 L 526.934 652.986 519.218 656.743 L 511.502 660.500 503.405 668.500 L 495.308 676.500 491.207 683.500 C 488.952 687.350, 485.688 694.062, 483.954 698.415 C 482.220 702.768, 479.746 710.487, 478.457 715.569 C 477.168 720.651, 475.352 729.464, 474.420 735.154 L 472.727 745.500 472.269 780.550 L 471.811 815.600 473.419 829.550 C 474.303 837.222, 476.121 848.332, 477.458 854.239 L 479.890 864.978 483.573 874.239 C 485.599 879.332, 488.972 886.425, 491.069 890 C 493.166 893.575, 496.821 898.820, 499.191 901.655 C 501.561 904.491, 505.750 908.678, 508.500 910.960 L 513.500 915.108 520.528 918.517 L 527.555 921.926 534.528 923.634 L 541.500 925.343 554 925.350 L 566.500 925.356 573 923.611 C 576.575 922.652, 582.875 920.219, 587 918.206 L 594.500 914.544 602.609 906.522 L 610.719 898.500 615.378 890.500 C 617.940 886.100, 621.430 878.900, 623.134 874.500 C 624.837 870.100, 627.278 862.381, 628.558 857.346 C 629.839 852.311, 631.634 843.536, 632.547 837.846 L 634.208 827.500 634.724 795.685 L 635.241 763.870 634.051 751.185 C 633.397 744.208, 632.206 734.675, 631.406 730 C 630.605 725.325, 628.803 717.450, 627.401 712.500 L 624.853 703.500 620.524 694.322 C 618.143 689.274, 614.710 682.974, 612.895 680.322 C 611.080 677.670, 607.324 673.084, 604.548 670.131 C 601.771 667.179, 597.581 663.440, 595.235 661.823 C 592.889 660.206, 588.305 657.561, 585.047 655.944 C 581.789 654.328, 576.283 652.330, 572.812 651.505 L 566.500 650.004 556.500 649.594 C 551 649.368, 544.925 649.394, 543 649.652 M 786.251 797.750 L 786.566 912.500 788.353 921.455 C 789.335 926.381, 791.505 934.706, 793.175 939.955 C 794.844 945.205, 797.963 952.875, 800.106 957 C 802.248 961.125, 806.324 967.587, 809.163 971.360 L 814.325 978.221 821.412 984.153 L 828.500 990.086 838.500 994.992 L 848.500 999.898 856.500 1001.882 C 860.900 1002.973, 868.260 1004.404, 872.857 1005.063 L 881.213 1006.261 896.357 1005.733 L 911.500 1005.206 921.429 1002.615 L 931.357 1000.025 940.429 995.602 L 949.500 991.178 956 986.216 C 959.575 983.487, 965.539 978.089, 969.254 974.220 L 976.008 967.186 976.456 969.343 C 976.702 970.529, 977.375 977.246, 977.952 984.269 C 978.528 991.292, 979 997.704, 979 998.519 L 979 1000 1025.500 1000 L 1072 1000 1072 841.500 L 1072 683 1022 683 L 972 683 972 794.910 L 972 906.820 968.160 911.678 L 964.320 916.536 958.910 920.258 L 953.500 923.981 947.744 926.001 C 944.578 927.113, 938.503 928.513, 934.244 929.113 L 926.500 930.203 919.152 929.551 L 911.805 928.899 906.152 926.822 L 900.500 924.745 895.380 919.528 L 890.260 914.311 887.880 908.405 L 885.500 902.500 885.225 792.750 L 884.949 683 835.442 683 L 785.936 683 786.251 797.750 M 1132 841.500 L 1132 1000 1181.500 1000 L 1231 1000 1231 841.500 L 1231 683 1181.500 683 L 1132 683 1132 841.500 M 1289 721 L 1289 759 1356 759 C 1392.850 759, 1423 759.216, 1423 759.481 C 1423 759.745, 1391.500 801.636, 1353 852.571 L 1283 945.181 1283 972.590 L 1283 1000 1418 1000 L 1553 1000 1553 962.007 L 1553 924.013 1480.897 923.757 L 1408.794 923.500 1479.397 829.598 L 1550 735.696 1550 709.348 L 1550 683 1419.500 683 L 1289 683 1289 721" stroke="none" fill="#d6dfe3" fill-rule="evenodd"/></svg>