<?xml version="1.0" encoding="UTF-8" standalone="no"?><!DOCTYPE svg PUBLIC "-//W3C//DTD SVG 1.1//EN" "http://www.w3.org/Graphics/SVG/1.1/DTD/svg11.dtd"><svg width="100%" height="100%" viewBox="0 0 8334 8334" version="1.1" xmlns="http://www.w3.org/2000/svg" xmlns:xlink="http://www.w3.org/1999/xlink" xml:space="preserve" xmlns:serif="http://www.serif.com/" style="fill-rule:evenodd;clip-rule:evenodd;stroke-miterlimit:10;"><rect id="Seite-2" serif:id="Seite 2" x="0" y="0" width="8333.33" height="8333.33" style="fill:none;"/><clipPath id="_clip1"><rect x="0" y="0" width="8333.33" height="8333.33"/></clipPath><g clip-path="url(#_clip1)"><g id="Ebene-1" serif:id="Ebene 1"></g><g id="L-Elements"></g><g id="R-Elements"><path d="M721.44,7615.89l7.705,-66.417l743.566,-6411.2l3376.54,2575.19l2641.97,1114.38l-6769.78,2788.05Z" style="fill:#cfd8e5;"/><path d="M767.673,7596.85l-46.233,19.041l5.762,-49.666" style="fill:none;fill-rule:nonzero;stroke:#172d4d;stroke-width:125px;"/><path d="M741.593,7442.13l718.162,-6192.15" style="fill:none;fill-rule:nonzero;stroke:#172d4d;stroke-width:125px;stroke-dasharray:99.94,124.92;"/><path d="M1466.95,1187.94l5.759,-49.667l39.758,30.321" style="fill:none;fill-rule:nonzero;stroke:#172d4d;stroke-width:125px;"/><path d="M1610.65,1243.48l3238.6,2469.98l2539.01,1070.95" style="fill:none;fill-rule:nonzero;stroke:#172d4d;stroke-width:125px;stroke-dasharray:98.79,123.48;"/><path d="M7445.15,4808.41l46.071,19.433l-46.234,19.038" style="fill:none;fill-rule:nonzero;stroke:#172d4d;stroke-width:125px;"/><path d="M7331.04,4893.81l-6506.39,2679.58" style="fill:none;fill-rule:nonzero;stroke:#172d4d;stroke-width:125px;stroke-dasharray:98.59,123.23;"/><path d="M6606.39,662.47l-5133.68,475.805l15.392,13.045l3361.15,2562.14l2641.97,1114.38l-884.829,-4165.38Z" style="fill:#cfd8e5;stroke:#172d4d;stroke-width:125px;"/><path d="M8191.57,4826.58c0,364.484 -313.283,659.954 -699.737,659.954c-386.454,0 -699.738,-295.47 -699.738,-659.954c0,-364.483 313.284,-659.954 699.738,-659.954c386.454,0 699.737,295.471 699.737,659.954" style="fill:#172d4d;"/><path d="M8191.57,4826.58c0,-364.238 -313.541,-659.954 -699.737,-659.954c-386.196,0 -699.738,295.716 -699.738,659.954c0,364.239 313.542,659.954 699.738,659.954c386.196,0 699.737,-295.715 699.737,-659.954Z" style="fill:none;stroke:#fff;stroke-width:125px;"/><path d="M6794.21,745.945l-1944.95,2967.52l-4127.81,3902.43" style="fill:none;fill-rule:nonzero;stroke:#172d4d;stroke-width:125px;"/><path d="M1561.98,7527.08c-0,364.483 -313.284,659.954 -699.738,659.954c-386.454,-0 -699.737,-295.471 -699.737,-659.954c-0,-364.484 313.283,-659.954 699.737,-659.954c386.454,-0 699.738,295.47 699.738,659.954" style="fill:#172d4d;"/><path d="M1561.98,7527.08c-0,-364.239 -313.542,-659.954 -699.738,-659.954c-386.196,-0 -699.737,295.715 -699.737,659.954c-0,364.238 313.541,659.954 699.737,659.954c386.196,-0 699.738,-295.716 699.738,-659.954Z" style="fill:none;stroke:#fff;stroke-width:125px;"/><path d="M2396.72,1187.33c0,364.483 -313.283,659.954 -699.737,659.954c-386.454,-0 -699.738,-295.471 -699.738,-659.954c0,-364.484 313.284,-659.954 699.738,-659.954c386.454,-0 699.737,295.47 699.737,659.954" style="fill:#fff;"/><path d="M2396.72,1187.33c0,-364.239 -313.542,-659.954 -699.737,-659.954c-386.196,-0 -699.738,295.715 -699.738,659.954c0,364.238 313.542,659.954 699.738,659.954c386.195,-0 699.737,-295.716 699.737,-659.954Z" style="fill:none;stroke:#172d4d;stroke-width:125px;"/><path d="M7530.4,845.084c-0,364.483 -313.284,659.954 -699.738,659.954c-386.454,-0 -699.737,-295.471 -699.737,-659.954c-0,-364.484 313.283,-659.954 699.737,-659.954c386.454,-0 699.738,295.47 699.738,659.954" style="fill:#172d4d;"/><path d="M7530.4,845.084c-0,-364.239 -313.542,-659.954 -699.738,-659.954c-386.196,-0 -699.737,295.715 -699.737,659.954c-0,364.238 313.541,659.954 699.737,659.954c386.196,-0 699.738,-295.716 699.738,-659.954Z" style="fill:none;stroke:#fff;stroke-width:125px;"/><path d="M5452.61,3725.72c0,364.483 -313.283,659.954 -699.737,659.954c-386.454,-0 -699.738,-295.471 -699.738,-659.954c0,-364.484 313.284,-659.955 699.738,-659.955c386.454,0 699.737,295.471 699.737,659.955" style="fill:#fff;"/><path d="M5452.61,3725.72c0,-364.239 -313.542,-659.955 -699.737,-659.955c-386.196,0 -699.738,295.716 -699.738,659.955c0,364.238 313.542,659.954 699.738,659.954c386.195,-0 699.737,-295.716 699.737,-659.954Z" style="fill:none;stroke:#172d4d;stroke-width:125px;"/><path d="M5303.13,6764.1l959.767,0l-482.554,-1438.41l-477.213,1438.41Zm1173.31,641.667l-1386.92,-0l-263.671,787.5l-841.079,-0l1429.1,-3837.5l733.008,-0l1436.98,3837.5l-841.08,-0l-266.341,-787.5Z" style="fill:#172d4d;fill-rule:nonzero;"/><path d="M5408.66,6741.43l959.766,-0l-482.554,-1438.41l-477.212,1438.41Zm1173.31,641.667l-1386.92,-0l-263.67,787.5l-841.08,-0l1429.1,-3837.5l733.009,0.001l1436.98,3837.5l-841.079,-0l-266.342,-787.5Z" style="fill:#45a0e5;fill-rule:nonzero;"/></g></g></svg>