<svg viewBox="0 0 2000 2000" xmlns="http://www.w3.org/2000/svg" xml:space="preserve" style="fill-rule:evenodd;clip-rule:evenodd;stroke-linecap:round;stroke-linejoin:round;stroke-miterlimit:1.5">
    <path style="fill:none" d="M0 0h2000v2000H0z"/>
    <path d="M1399 457.84c0-25.3-15.18-45.84-33.88-45.84H585.88c-18.699 0-33.88 20.54-33.88 45.84v1054.32c0 25.3 15.181 45.84 33.88 45.84h779.24c18.7 0 33.88-20.54 33.88-45.84V457.84Z" style="fill:#e6e6e6" transform="matrix(2.36128 0 0 1.7452 -1303.42 -719.023)"/>
    <path d="M1240.67 1312.83c-107.28 36.59-228.23 57.17-356.17 57.17C443.796 1370 86 1125.79 86 825c0-300.794 357.796-545 798.5-545 440.7 0 798.5 244.206 798.5 545 0 122.273-59.12 235.19-158.91 326.17 96.81 193.4 185.18 465.73 185.18 465.73s-299.6-163.68-468.6-304.07Z" style="fill:#cfd8e5;stroke:#172d4d;stroke-width:58.52px" transform="matrix(1.15463 0 0 1.39706 -36.431 -325.037)"/>
    <text x="262" y="802" style="font-family:'Roboto-Black','Roboto';font-weight:900;font-size:400px;fill:#172d4d" transform="translate(-145 139)">F<tspan x="474.248px 689.622px 904.995px 1127.6px 1350.39px 1560.3px 1765.71px" y="802px 802px 802px 802px 802px 802px 802px">eedback</tspan></text>
</svg>
