<?xml version="1.0" encoding="UTF-8"?>
<svg id="Ebene_1" data-name="Ebene 1" xmlns="http://www.w3.org/2000/svg" viewBox="0 0 2000 2000">
  <defs>
    <style>
      .cls-1 {
        fill: #cfd8e5;
        stroke: #172d4d;
        stroke-linecap: round;
        stroke-linejoin: round;
        stroke-width: 30px;
      }
    </style>
  </defs>
  <path class="cls-1" d="m1713.65,796.62H504.76c-11.53-147.32,39.03-298.59,151.71-411.27,193.78-193.78,501.69-203.87,707.37-30.28l.33-.19h0s.76.92,2.16,2.31c1.74,1.48,3.46,2.98,5.18,4.49,10.2,7.76,29.88,16.95,51.55-3.35l3.18-3.18c.83-.89,1.67-1.8,2.5-2.78,4.84-5.65,8.39-9.02,10.94-10.66l36.6-36.6c1.77-2.47,4.75-5.71,9.26-9.89,38.24-35.42,0-64.63,0-64.63l.35-.67C1211.73-10.15,794.51.53,533.08,261.97c-142.17,142.18-210.31,339.93-199.61,534.65h-47.13c-39.92,0-72.29,32.37-72.29,72.29v1001.26c0,39.92,32.37,72.29,72.29,72.29h1427.31c39.92,0,72.29-32.37,72.29-72.29v-1001.26c0-39.92-32.37-72.29-72.29-72.29Z"/>
</svg>