<svg viewBox="0 0 1000 1000" xmlns="http://www.w3.org/2000/svg" xml:space="preserve" style="fill-rule:evenodd;clip-rule:evenodd;stroke-linecap:round;stroke-linejoin:round;stroke-miterlimit:1.5">
    <path d="M268.975 892.026 23.952 491.034 259.175 89.016l469.069.804 247.72 393.654L730.951 886.04l-461.976 5.986Z" style="fill:#172d4f;stroke:#fff;stroke-width:8.21px" transform="rotate(90.271 496.58 489.713) scale(1.01486)"/>
    <path d="M725.661 889.082 500 485.291H23.988l239.515 403.791h462.158ZM731.381 92.128 500 485.291H23.988L264.826 85.843l466.555 6.285Z" style="fill:none;stroke:#fff;stroke-width:28.74px" transform="rotate(89.507 496.564 489.586) scale(1.01487)"/>
    <path d="m321.819 573.168-126.972-196.85L278.89 229.02 730.927 89.016l74.176 120.98-65.509 93.894 17.2 31.885L894.039 354.8l81.925 128.104-112.581 186.15-93.433-15.402-36.563-5.79-44.625 76.296s-57.766 10.219-109.33-29.294c-21.946-16.817-42.769-42.644-57.536-82.101l-200.077-39.595Z" style="fill:#e5bc71;stroke:#fff;stroke-width:24.63px" transform="rotate(90.271 496.58 489.712) scale(1.01486)"/>
    <path d="m805.103 209.996-100.891 28.193 34.741 64.425 66.15-92.618ZM321.819 573.168l79.21-128.859-123.05-215.276-83.132 146.564 126.972 197.571ZM401.029 444.309l193.809 35.568v.595s16.627 127.28 163.514 122.019" style="fill:none;stroke:#fff;stroke-width:24.63px" transform="rotate(90.271 496.58 489.712) scale(1.01486)"/>
    <path d="m687.27 496.841 251.544 46.164-78.516 127.677-126.418-23.423 24.472-44.768s-74.902-17.999-71.082-105.65Z" style="fill:none;stroke:#fff;stroke-width:24.63px" transform="rotate(90.271 496.58 489.712) scale(1.01486)"/>
    <path d="M268.975 892.026 23.952 491.034 259.175 89.016l469.069.804 247.72 393.654L730.951 886.04l-461.976 5.986Z" style="fill:none;stroke:#fff;stroke-width:24.63px" transform="rotate(90.271 496.58 489.713) scale(1.01486)"/>
</svg>
