<?xml version="1.0" encoding="UTF-8" standalone="no"?>
<!DOCTYPE svg PUBLIC "-//W3C//DTD SVG 1.1//EN" "http://www.w3.org/Graphics/SVG/1.1/DTD/svg11.dtd">
<svg width="100%" height="100%" viewBox="0 0 2000 2000" version="1.1" xmlns="http://www.w3.org/2000/svg" xmlns:xlink="http://www.w3.org/1999/xlink" xml:space="preserve" xmlns:serif="http://www.serif.com/" style="fill-rule:evenodd;clip-rule:evenodd;stroke-linejoin:round;stroke-miterlimit:2;">
    <g id="Background" transform="matrix(0.975949,0,0,0.975949,24.0483,25.0018)">
        <path d="M1966.6,1490.65L998.324,1982.65L31.608,1491.44L31.047,1491.15L31.047,1490.14L31.05,1490.14L31.05,507.65L998.324,16.157L998.324,16.154L999.805,15.402L1966.6,506.65L1966.6,1487.24L1966.6,1487.24L1966.6,1490.65Z" style="fill:rgb(23,45,77);"/>
    </g>
    <g id="Rahmen">
        <path d="M999.884,6.7L999.791,6.7L999.757,6.7L999.724,6.7L999.631,6.701L999.528,6.701L999.491,6.701L999.461,6.701L999.379,6.703L999.265,6.704L999.224,6.705L999.198,6.705L999.126,6.706L999.002,6.709L998.957,6.71L998.935,6.711L998.874,6.712L998.739,6.716L998.69,6.718L998.672,6.718L998.622,6.72L998.476,6.725L998.424,6.727L998.41,6.728L998.369,6.73L998.213,6.736L998.158,6.739L998.147,6.74L998.116,6.741L997.95,6.75L997.892,6.753L997.687,6.765L997.425,6.783L997.357,6.788C995.438,6.927 993.527,7.232 991.645,7.705L991.433,7.759L991.176,7.827L991.134,7.838L991.1,7.847L990.92,7.896L990.888,7.905L990.879,7.908L990.825,7.923L990.663,7.968L990.636,7.976L990.624,7.979L990.548,8.001L990.408,8.042L990.385,8.048L990.37,8.053L990.268,8.083L990.152,8.118L990.135,8.123L990.116,8.128L989.986,8.168L989.897,8.195L989.885,8.199L989.863,8.206L989.701,8.257L989.643,8.275L989.61,8.286L989.413,8.35L989.386,8.359C987.759,8.892 986.164,9.554 984.618,10.344L39.376,490.662C28.191,496.345 21.145,507.828 21.143,520.374L21.015,1480.29C21.014,1491.87 27.029,1502.63 36.901,1508.69C40.119,1510.67 43.596,1512.06 47.182,1512.85L983.73,1989.43C993.218,1994.26 1004.44,1994.26 1013.94,1989.44L1953.23,1512.64C1956.5,1511.83 1959.67,1510.52 1962.62,1508.71C1972.5,1502.65 1978.53,1491.89 1978.53,1480.3L1978.75,519.383C1978.76,506.821 1971.7,495.323 1960.49,489.643L1014.9,10.331C1013.43,9.583 1011.92,8.95 1010.38,8.432L1010.16,8.36L1010.12,8.348L1010.09,8.337L1009.91,8.278L1009.88,8.269L1009.87,8.266L1009.81,8.247L1009.66,8.199L1009.63,8.191L1009.62,8.186L1009.53,8.16L1009.4,8.121L1009.38,8.115L1009.36,8.108L1009.25,8.076L1009.15,8.046L1009.13,8.04L1009.11,8.033L1008.97,7.995L1008.89,7.972L1008.88,7.968L1008.85,7.959L1008.7,7.917L1008.64,7.901L1008.63,7.898L1008.59,7.888L1008.43,7.843L1008.38,7.831L1008.38,7.829L1008.34,7.819L1008.15,7.771L1008.08,7.751L1007.88,7.702L1007.87,7.698C1005.99,7.227 1004.08,6.923 1002.16,6.786L1002.09,6.781L1001.91,6.769L1001.83,6.763L1001.65,6.753L1001.56,6.748L1001.4,6.74L1001.37,6.738L1001.36,6.738L1001.3,6.735L1001.15,6.729L1001.11,6.727L1001.09,6.726L1001.04,6.724L1000.89,6.719L1000.84,6.717L1000.82,6.717L1000.78,6.715L1000.64,6.712L1000.58,6.71L1000.56,6.709L1000.51,6.708L1000.39,6.706L1000.32,6.704L1000.29,6.704L1000.25,6.703L1000.14,6.702L1000.05,6.701L1000.02,6.701L999.987,6.701L999.884,6.7ZM1000.9,1037.86L1869.79,1480.24C1869.79,1480.24 998.866,1922.33 998.866,1922.33L129.142,1479.75L1000.9,1037.86ZM1033.12,94.307L1912.08,539.848C1912.05,657.006 1911.92,1243.45 1911.87,1425.97L1033.33,979.543L1033.12,94.307ZM966.445,94.358L966.563,979.471L87.689,1424.83L87.807,540.832L87.807,540.832L966.445,94.358Z" style="fill:white;"/>
    </g>
    <g id="old_A" transform="matrix(1.99999,0.138003,-0.139539,2.02225,221.02,-84.3165)">
        <g id="Buchstabe" transform="matrix(-0.00472644,0.999989,-0.999989,-0.00472644,981.208,-11.6528)">
            <path d="M337.579,582.606L208.92,398.137L278.89,229.02L730.927,89.016L802.794,216.065L756.794,335.775L894.039,354.8L996.023,520.516L925.252,684.426L769.382,654.722L730.045,648.408L688.762,724.158C688.762,724.158 630.996,734.377 579.432,694.864C557.486,678.047 536.663,652.22 521.896,612.763L337.579,582.606Z" style="fill:rgb(230,189,114);"/>
        </g>
        <g transform="matrix(-0.00432225,0.914473,-0.913111,-0.00431581,962.597,52.5525)">
            <path d="M807.562,216.574L733.384,231.931L700.695,238.399L757.26,347.674L807.562,216.574Z" style="fill:rgb(230,189,114);"/>
        </g>
        <g transform="matrix(-0.00472644,0.999989,-0.999989,-0.00472644,989.825,-10.1925)">
            <path d="M336.159,591.23L401.029,444.309L277.47,237.645L207.501,406.762L336.159,591.23Z" style="fill:rgb(230,189,114);"/>
        </g>
        <g transform="matrix(-0.00472644,0.999989,-0.999989,-0.00472644,989.825,-10.1925)">
            <path d="M687.27,496.841L994.603,529.14L923.832,693.051L728.626,657.033L758.352,602.491C758.352,602.491 683.45,584.492 687.27,496.841Z" style="fill:rgb(230,189,114);"/>
        </g>
        <g transform="matrix(0.497632,-0.0339596,0.0343375,0.492156,-107.091,49.0026)">
            <path d="M1254.03,776.818L969.948,624L882.194,992.16C882.194,992.16 623.906,1051.99 634.619,1313.06L884.533,1475.83C884.533,1475.83 875.961,1200.6 1154.04,1163.37L1254.03,776.818" style="fill:rgb(230,189,114);"/>
        </g>
        <g transform="matrix(0.497632,-0.0339596,0.0343375,0.492156,-107.091,49.0026)">
            <path d="M1358.04,359.877C1352.43,359.857 1346.82,361.349 1341.85,364.333L953.963,597.148C953.479,597.436 953.005,597.736 952.539,598.048L952.44,598.115L952.328,598.191L952.255,598.241L952.104,598.346C951.965,598.442 951.826,598.54 951.689,598.639L951.679,598.646L951.636,598.677L951.526,598.758L951.497,598.779L951.469,598.799L951.409,598.843L951.346,598.89L951.309,598.918L951.259,598.954L951.203,598.997L951.167,599.023L951.126,599.054L951.052,599.11L951.003,599.147L950.989,599.158L950.956,599.183C948.478,601.079 946.322,603.317 944.54,605.808L944.527,605.826L944.518,605.838L944.467,605.909L944.414,605.984L944.398,606.007L944.379,606.035L944.321,606.117L944.285,606.169L944.271,606.188L944.239,606.235L944.176,606.327L944.154,606.358L944.146,606.371L944.096,606.445L944.069,606.484L944.065,606.489L944.033,606.537L944.024,606.551C943.981,606.615 943.938,606.679 943.895,606.743L943.891,606.749L943.861,606.796L943.855,606.805L943.846,606.818L943.776,606.924L943.761,606.948L943.752,606.962L943.726,607.002L943.655,607.111L943.626,607.156L943.614,607.176L943.594,607.207L943.536,607.298L943.491,607.37L943.478,607.391L943.465,607.412L943.418,607.486L943.353,607.592L943.301,607.675L943.239,607.777L943.231,607.791C943.166,607.898 943.101,608.006 943.037,608.115L943.034,608.119C942.839,608.451 942.649,608.786 942.466,609.125L942.464,609.128C942.218,609.582 941.984,610.042 941.761,610.508L941.761,610.508C941.542,610.965 941.335,611.426 941.139,611.893L941.078,612.039L941.047,612.114L941.037,612.139L941.025,612.168L940.993,612.247L940.957,612.335L940.941,612.375L940.929,612.404L940.909,612.455L940.87,612.555L940.847,612.612L940.837,612.637L940.827,612.663L940.786,612.77L940.755,612.85L940.746,612.873L940.718,612.948L940.694,613.013C940.634,613.172 940.575,613.331 940.518,613.492L940.491,613.568L940.441,613.71L940.437,613.721C940.071,614.771 939.761,615.843 939.508,616.932L855.988,967.328C843.042,971.589 824.462,978.512 803.153,988.886C770.474,1004.47 743.155,1022.57 720.286,1042.05C661.656,1090.96 607.782,1166.86 603.335,1281.7C602.255,1301.43 603.332,1314.12 603.502,1315.94L603.507,1315.99L603.511,1316.02C603.519,1316.12 603.524,1316.16 603.524,1316.16L603.525,1316.17L603.53,1316.22L603.544,1316.36L603.554,1316.45L603.569,1316.58L603.581,1316.69L603.595,1316.81L603.609,1316.92L603.623,1317.03L603.639,1317.15L603.653,1317.26L603.671,1317.39L603.685,1317.49C603.82,1318.43 603.997,1319.36 604.216,1320.28L604.236,1320.37L604.266,1320.49L604.291,1320.59L604.318,1320.7L604.348,1320.82L604.372,1320.91L604.377,1320.93L604.382,1320.95L604.407,1321.04L604.428,1321.12L604.432,1321.14L604.439,1321.16L604.467,1321.27L604.486,1321.33L604.49,1321.35L604.497,1321.38L604.529,1321.49L604.545,1321.55L604.548,1321.56L604.557,1321.59L604.592,1321.71L604.606,1321.76L604.609,1321.77L604.617,1321.8L604.658,1321.94L604.67,1321.98L604.678,1322L604.724,1322.16L604.735,1322.19C604.816,1322.46 604.899,1322.72 604.986,1322.98L605.007,1323.04L605.048,1323.16L605.07,1323.22L605.082,1323.26L605.117,1323.36L605.141,1323.43L605.148,1323.45L605.158,1323.48L605.189,1323.56L605.214,1323.63L605.224,1323.66L605.236,1323.7L605.264,1323.77L605.288,1323.84L605.301,1323.87L605.316,1323.91L605.341,1323.98L605.364,1324.04L605.38,1324.08L605.397,1324.13L605.419,1324.19L605.441,1324.25L605.461,1324.3L605.48,1324.35L605.499,1324.39L605.52,1324.45L605.543,1324.51L605.564,1324.56L605.581,1324.6L605.6,1324.65L605.627,1324.72L605.65,1324.77L605.664,1324.81L605.681,1324.85L605.713,1324.93L605.737,1324.99L605.749,1325.02L605.764,1325.05L605.801,1325.14L605.826,1325.2L605.836,1325.22L605.848,1325.25L605.891,1325.35L605.917,1325.41L605.923,1325.43L605.933,1325.45L605.986,1325.57L606.009,1325.62L606.02,1325.65L606.089,1325.81L606.104,1325.84C606.166,1325.98 606.229,1326.12 606.293,1326.25L606.38,1326.44L606.392,1326.46L606.414,1326.51L606.474,1326.63L606.485,1326.66L606.492,1326.67L606.517,1326.72L606.569,1326.83L606.584,1326.86L606.593,1326.88L606.619,1326.93L606.665,1327.02L606.684,1327.06L606.696,1327.09L606.721,1327.13L606.762,1327.22L606.785,1327.26L606.8,1327.29L606.824,1327.34L606.861,1327.41L606.888,1327.46L606.906,1327.5L606.929,1327.54L606.962,1327.6L606.992,1327.66L607.013,1327.7L607.034,1327.74L607.063,1327.79L607.08,1327.82C607.138,1327.93 607.198,1328.04 607.258,1328.15L607.27,1328.17L607.287,1328.2C607.349,1328.32 607.411,1328.43 607.474,1328.54L607.482,1328.55L607.498,1328.58C607.563,1328.69 607.629,1328.81 607.696,1328.92L607.806,1329.11L607.92,1329.3L607.922,1329.3C607.994,1329.42 608.066,1329.53 608.139,1329.65L608.149,1329.67L608.154,1329.67C608.225,1329.79 608.296,1329.9 608.368,1330.01L608.382,1330.03L608.391,1330.04C608.462,1330.15 608.533,1330.26 608.606,1330.37L608.62,1330.39L608.631,1330.41C608.703,1330.52 608.776,1330.62 608.85,1330.73L608.863,1330.75L608.889,1330.79L608.929,1330.85L608.965,1330.9L608.986,1330.93L609.014,1330.97L609.061,1331.04L609.093,1331.08L609.11,1331.11L609.14,1331.15L609.195,1331.23L609.223,1331.27L609.236,1331.28L609.266,1331.33L609.33,1331.41L609.354,1331.45L609.363,1331.46L609.391,1331.5L609.466,1331.6L609.491,1331.63L609.513,1331.66C609.762,1332 610.017,1332.33 610.279,1332.65L610.313,1332.7L610.407,1332.81L610.459,1332.88L610.542,1332.98L610.561,1333L610.568,1333.01L610.606,1333.05L610.681,1333.14L610.7,1333.16L610.71,1333.18L610.755,1333.23L610.822,1333.31L610.84,1333.33L610.853,1333.35L610.905,1333.41L610.966,1333.48L610.981,1333.5L610.996,1333.51L611.056,1333.58L611.111,1333.64L611.124,1333.66L611.14,1333.68L611.209,1333.76L611.258,1333.81L611.268,1333.82L611.284,1333.84L611.363,1333.93L611.406,1333.98L611.518,1334.1L611.569,1334.16C611.954,1334.58 612.351,1334.99 612.759,1335.39L612.809,1335.44L612.908,1335.53L612.976,1335.6L613.063,1335.68L613.084,1335.7L613.096,1335.71L613.145,1335.76L613.221,1335.83L613.243,1335.85L613.259,1335.87L613.315,1335.92L613.382,1335.98L613.402,1336L613.422,1336.02L613.486,1336.08L613.544,1336.13L613.563,1336.15L613.587,1336.17L613.658,1336.23L613.709,1336.28L613.726,1336.29L613.753,1336.32L613.832,1336.39L613.875,1336.43L613.889,1336.44L613.918,1336.46L614.007,1336.54L614.043,1336.58L614.053,1336.58L614.084,1336.61L614.183,1336.7L614.218,1336.73L614.246,1336.75L614.36,1336.85L614.4,1336.88C614.608,1337.06 614.818,1337.23 615.031,1337.4L615.082,1337.44L615.184,1337.53L615.233,1337.57L615.243,1337.57L615.266,1337.59L615.352,1337.66L615.406,1337.7L615.422,1337.71L615.451,1337.74L615.526,1337.79L615.58,1337.84L615.603,1337.85L615.637,1337.88L615.703,1337.93L615.756,1337.97L615.785,1337.99L615.824,1338.02L615.883,1338.07L615.932,1338.1L615.969,1338.13L616.013,1338.16L616.064,1338.2L616.109,1338.23L616.153,1338.27L616.202,1338.3L616.247,1338.33L616.287,1338.36L616.339,1338.4L616.393,1338.44L616.431,1338.47L616.466,1338.49L616.527,1338.54L616.585,1338.58L616.617,1338.6L616.647,1338.62L616.716,1338.67L616.779,1338.71L616.804,1338.73L616.828,1338.75L616.908,1338.8L616.973,1338.85L616.992,1338.86L617.01,1338.87L617.103,1338.93L617.169,1338.98L617.194,1339L617.307,1339.07L617.366,1339.11L617.372,1339.11C617.435,1339.16 617.499,1339.2 617.564,1339.24L744.016,1421.6L648.573,1789.15L648.554,1789.22L648.534,1789.3L648.511,1789.39L648.49,1789.48L648.472,1789.55L648.452,1789.63L648.429,1789.73L648.41,1789.8L648.394,1789.87L648.373,1789.96L648.351,1790.06L648.334,1790.13L648.319,1790.2L648.298,1790.29L648.277,1790.39L648.261,1790.46L648.248,1790.53L648.227,1790.62L648.207,1790.72L648.193,1790.79L648.18,1790.86L648.16,1790.95L648.14,1791.06L648.127,1791.12L648.116,1791.19L648.097,1791.29L648.078,1791.39L648.066,1791.45L648.055,1791.51L648.037,1791.62L648.019,1791.72L648.008,1791.78L647.998,1791.84L647.98,1791.95L647.964,1792.05L647.954,1792.11L647.944,1792.17L647.928,1792.28L647.912,1792.38L647.903,1792.44L647.895,1792.5L647.879,1792.61L647.864,1792.72L647.856,1792.77L647.848,1792.83L647.833,1792.94L647.82,1793.05L647.813,1793.1L647.805,1793.16L647.791,1793.27L647.779,1793.38L647.773,1793.43L647.766,1793.49L647.753,1793.6L647.742,1793.71L647.736,1793.76L647.73,1793.82L647.719,1793.94L647.709,1794.04L647.704,1794.09L647.698,1794.15L647.688,1794.27L647.679,1794.37L647.674,1794.42L647.67,1794.48L647.66,1794.6L647.653,1794.7L647.649,1794.75L647.645,1794.81L647.636,1794.93L647.63,1795.03L647.627,1795.08L647.623,1795.14L647.616,1795.26L647.611,1795.36L647.608,1795.41L647.605,1795.48L647.599,1795.59L647.595,1795.69L647.593,1795.74L647.591,1795.81L647.586,1795.92L647.583,1796.02L647.581,1796.07L647.58,1796.13L647.576,1796.25L647.574,1796.34L647.573,1796.4L647.572,1796.47L647.57,1796.58L647.569,1796.67L647.568,1796.73L647.568,1796.79L647.567,1796.91L647.567,1797L647.567,1797.05L647.568,1797.12L647.568,1797.24L647.569,1797.33L647.569,1797.38L647.571,1797.45L647.572,1797.57L647.574,1797.65L647.575,1797.71L647.577,1797.78L647.58,1797.89L647.583,1797.98L647.584,1798.04L647.587,1798.11L647.591,1798.22L647.595,1798.3L647.597,1798.36L647.6,1798.44L647.605,1798.55L647.61,1798.63L647.613,1798.69L647.617,1798.77L647.623,1798.88L647.629,1798.95L647.632,1799.01L647.638,1799.09L647.645,1799.2L647.651,1799.28L647.655,1799.34L647.661,1799.42L647.67,1799.53L647.676,1799.6L647.681,1799.66L647.688,1799.75L647.698,1799.85L647.705,1799.93L647.71,1799.99L647.719,1800.07L647.729,1800.18L647.737,1800.25L647.743,1800.31L647.753,1800.4L647.764,1800.5L647.773,1800.57L647.779,1800.63L647.79,1800.72L647.803,1800.83L647.811,1800.89L647.819,1800.95L647.831,1801.05L647.844,1801.15L647.854,1801.22L647.861,1801.28L647.875,1801.37L647.889,1801.47L647.899,1801.54L647.908,1801.6L647.922,1801.69L647.938,1801.79L647.948,1801.86L647.957,1801.92L647.973,1802.01L647.989,1802.11L648,1802.18L648.01,1802.24L648.027,1802.33L648.044,1802.43L648.055,1802.5L648.066,1802.55L648.084,1802.65L648.102,1802.75L648.114,1802.81L648.125,1802.87L648.145,1802.97L648.164,1803.07L648.176,1803.13L648.187,1803.19L648.208,1803.29L648.229,1803.39L648.241,1803.45L648.253,1803.51L648.276,1803.61L648.297,1803.71L648.309,1803.76L648.322,1803.82L648.346,1803.92L648.368,1804.02L648.381,1804.08L648.394,1804.13L648.419,1804.24L648.443,1804.34L648.456,1804.39L648.47,1804.45L648.496,1804.56L648.52,1804.65L648.534,1804.7L648.548,1804.76L648.576,1804.87L648.601,1804.97L648.615,1805.02L648.63,1805.07L648.659,1805.18L648.686,1805.28L648.7,1805.33L648.715,1805.38L648.746,1805.49L648.773,1805.59L648.787,1805.64L648.803,1805.69L648.835,1805.8L648.864,1805.9L648.878,1805.95L648.894,1806L648.928,1806.11L648.958,1806.21L648.972,1806.26L648.989,1806.31L649.024,1806.42L649.054,1806.52L649.07,1806.57L649.086,1806.62L649.123,1806.73L649.155,1806.83L649.17,1806.87L649.187,1806.92L649.225,1807.03L649.258,1807.13L649.274,1807.18L649.291,1807.23L649.33,1807.34L649.364,1807.44L649.38,1807.48L649.398,1807.53L649.438,1807.64L649.474,1807.74L649.49,1807.78L649.508,1807.83L649.549,1807.94L649.586,1808.04L649.603,1808.09L649.621,1808.13L649.663,1808.24L649.702,1808.34L649.719,1808.39L649.737,1808.43L649.78,1808.54L649.821,1808.64L649.838,1808.69L649.856,1808.73L649.901,1808.84L649.943,1808.94L649.96,1808.99L649.978,1809.03L650.024,1809.14L650.068,1809.24L650.086,1809.28L650.104,1809.33L650.15,1809.43L650.196,1809.54L650.214,1809.58L650.232,1809.62L650.28,1809.73L650.327,1809.83L650.345,1809.87L650.363,1809.91L650.412,1810.02L650.461,1810.13L650.48,1810.17L650.498,1810.21L650.547,1810.31L650.598,1810.42L650.617,1810.46L650.635,1810.5L650.685,1810.6L650.738,1810.71L650.758,1810.75L650.775,1810.79L650.826,1810.89L650.881,1811L650.901,1811.04L650.919,1811.07L650.97,1811.17L651.027,1811.29L651.047,1811.33L651.065,1811.36L651.117,1811.46L651.176,1811.57L651.197,1811.61L651.214,1811.64L651.267,1811.74L651.328,1811.86L651.349,1811.9L651.366,1811.93L651.42,1812.03L651.483,1812.14L651.504,1812.18L651.521,1812.21L651.575,1812.31L651.641,1812.42L651.663,1812.46L651.679,1812.49L651.733,1812.59L651.802,1812.7L651.824,1812.74L651.84,1812.77L651.895,1812.86L651.966,1812.98L651.988,1813.02L652.004,1813.05L652.059,1813.14L652.133,1813.26L652.155,1813.3L652.171,1813.32L652.226,1813.41L652.302,1813.54L652.325,1813.57L652.34,1813.6L652.396,1813.68L652.475,1813.81L652.498,1813.85L652.513,1813.87L652.568,1813.95L652.65,1814.08L652.673,1814.12L652.688,1814.14L652.743,1814.22L652.829,1814.35L652.852,1814.39L652.866,1814.41L652.922,1814.49L653.01,1814.62L653.033,1814.65L653.047,1814.67L653.103,1814.76L653.194,1814.89L653.217,1814.92L653.231,1814.94L653.286,1815.02L653.38,1815.15L653.404,1815.18L653.417,1815.2L653.473,1815.28L653.57,1815.41L653.594,1815.45L653.607,1815.47L653.662,1815.54L653.763,1815.68L653.786,1815.71L653.799,1815.73L653.854,1815.8L653.958,1815.94L653.982,1815.97L653.994,1815.98L654.049,1816.06L654.156,1816.19L654.18,1816.22L654.192,1816.24L654.247,1816.31L654.357,1816.45L654.381,1816.48L654.392,1816.49L654.447,1816.56L654.56,1816.7L654.584,1816.73L654.595,1816.75L654.65,1816.81L654.767,1816.95L654.791,1816.98L654.801,1817L654.856,1817.06L654.976,1817.2L655,1817.23L655.01,1817.24L655.065,1817.31L655.188,1817.45L655.211,1817.48L655.221,1817.49L655.276,1817.55L655.402,1817.7L655.426,1817.72L655.435,1817.73L655.49,1817.8L655.62,1817.94L655.643,1817.97L655.652,1817.98L655.707,1818.04L655.84,1818.18L655.863,1818.21L655.872,1818.22L655.927,1818.28L656.062,1818.42L656.085,1818.44L656.094,1818.45L656.149,1818.51L656.288,1818.66L656.31,1818.68L656.318,1818.69L656.374,1818.75L656.516,1818.89L656.538,1818.91L656.546,1818.92L656.602,1818.98L656.747,1819.12L656.768,1819.15L656.776,1819.15L656.832,1819.21L656.98,1819.36L657.001,1819.38L657.009,1819.38L657.066,1819.44L657.216,1819.58L657.236,1819.6L657.244,1819.61L657.302,1819.66L657.455,1819.81L657.475,1819.83L657.482,1819.84L657.54,1819.89L657.696,1820.03L657.715,1820.05L657.722,1820.06L657.782,1820.11L657.94,1820.25L657.959,1820.27L657.965,1820.28L658.026,1820.33L658.186,1820.47L658.204,1820.49L658.211,1820.5L658.273,1820.55L658.435,1820.69L658.459,1820.71L658.523,1820.76L658.687,1820.9L658.71,1820.92L658.775,1820.98L658.941,1821.12L658.963,1821.13L659.03,1821.19L659.198,1821.33L659.219,1821.34L659.288,1821.4L659.457,1821.53L659.477,1821.55L659.549,1821.6L659.719,1821.74L659.738,1821.75L659.812,1821.81L659.983,1821.94L660.002,1821.95L660.079,1822.01L660.25,1822.14L660.267,1822.15L660.348,1822.21L660.519,1822.33L660.536,1822.35L660.62,1822.4L660.791,1822.53L660.806,1822.54L660.895,1822.6L661.066,1822.72L661.08,1822.73L661.172,1822.79L661.342,1822.91L661.355,1822.92L661.453,1822.98L661.622,1823.09L661.633,1823.1L661.736,1823.17L661.903,1823.28L661.914,1823.28L662.023,1823.35L662.187,1823.46L662.197,1823.46L662.313,1823.54L662.474,1823.63L662.482,1823.64L662.606,1823.71L662.763,1823.81L662.77,1823.81L662.903,1823.89L663.054,1823.98L663.06,1823.99L663.204,1824.07L663.348,1824.15L663.352,1824.15L663.513,1824.24L663.644,1824.32L663.647,1824.32L663.943,1824.48L663.944,1824.48L664.243,1824.64L981.407,1991.9C981.477,1991.93 981.547,1991.97 981.617,1992.01L981.621,1992.01L981.689,1992.04L981.822,1992.11L981.835,1992.12L981.916,1992.16L982.03,1992.22L982.05,1992.23L982.135,1992.27L982.239,1992.32L982.265,1992.33L982.351,1992.37L982.448,1992.42L982.464,1992.43L982.481,1992.44L982.568,1992.48L982.658,1992.52L982.677,1992.53L982.698,1992.54L982.783,1992.58L982.869,1992.62L982.891,1992.63L982.915,1992.64L983,1992.68L983.08,1992.72L983.105,1992.73L983.133,1992.74L983.216,1992.78L983.291,1992.81L983.319,1992.82L983.352,1992.84L983.432,1992.87L983.503,1992.9L983.534,1992.92L983.571,1992.93L983.649,1992.97L983.716,1993L983.749,1993.01L983.79,1993.03L983.867,1993.06L983.929,1993.09L983.965,1993.1L984.01,1993.12L984.084,1993.15L984.143,1993.17L984.181,1993.19L984.231,1993.21L984.303,1993.24L984.357,1993.26L984.398,1993.28L984.452,1993.3L984.521,1993.33L984.572,1993.35L984.615,1993.36L984.674,1993.39L984.74,1993.41L984.787,1993.43L984.832,1993.45L984.896,1993.47L984.96,1993.5L985.003,1993.51L985.05,1993.53L985.119,1993.56L985.179,1993.58L985.219,1993.59L985.267,1993.61L985.342,1993.64L985.399,1993.66L985.435,1993.67L985.486,1993.69L985.565,1993.72L985.62,1993.74L985.652,1993.75L985.704,1993.77L985.79,1993.8L985.841,1993.81L985.87,1993.82L985.922,1993.84L986.014,1993.87L986.062,1993.89L986.088,1993.9L986.141,1993.91L986.239,1993.95L986.284,1993.96L986.306,1993.97L986.359,1993.99L986.464,1994.02L986.506,1994.03L986.525,1994.04L986.577,1994.06L986.69,1994.09L986.729,1994.1L986.744,1994.11L986.794,1994.12L986.916,1994.16L986.951,1994.17L986.963,1994.17L987.011,1994.19L987.143,1994.23L987.183,1994.24L987.225,1994.25L987.37,1994.3L987.403,1994.3L987.436,1994.31L987.597,1994.36L987.64,1994.37C988.217,1994.53 988.798,1994.67 989.381,1994.8L989.429,1994.81L989.59,1994.84L989.659,1994.86L989.805,1994.89L989.847,1994.9L989.889,1994.9L990.024,1994.93L990.071,1994.94L990.083,1994.94L990.12,1994.95L990.245,1994.97L990.295,1994.98L990.311,1994.99L990.351,1994.99L990.468,1995.01L990.52,1995.02L990.539,1995.03L990.583,1995.04L990.691,1995.05L990.744,1995.06L990.767,1995.07L990.814,1995.08L990.916,1995.09L990.969,1995.1L990.995,1995.1L991.046,1995.11L991.142,1995.13L991.194,1995.14L991.224,1995.14L991.278,1995.15L991.368,1995.16L991.419,1995.17L991.452,1995.17L991.51,1995.18L991.595,1995.19L991.645,1995.2L991.681,1995.21L991.743,1995.22L991.822,1995.23L991.871,1995.23L991.911,1995.24L991.975,1995.25L992.049,1995.26L992.096,1995.26L992.14,1995.27L992.208,1995.28L992.277,1995.28L992.322,1995.29L992.37,1995.3L992.441,1995.3L992.505,1995.31L992.548,1995.32L992.6,1995.32L992.674,1995.33L992.734,1995.34L992.775,1995.34L992.83,1995.35L992.907,1995.35L992.962,1995.36L993.001,1995.36L993.06,1995.37L993.141,1995.38L993.191,1995.38L993.228,1995.38L993.291,1995.39L993.374,1995.4L993.42,1995.4L993.454,1995.4L993.522,1995.41L993.608,1995.41L993.65,1995.42L993.681,1995.42L993.753,1995.42L993.842,1995.43L993.879,1995.43L993.908,1995.44L993.984,1995.44L994.075,1995.45L994.109,1995.45L994.135,1995.45L994.216,1995.46L994.309,1995.46L994.338,1995.46L994.362,1995.46L994.448,1995.47L994.543,1995.47L994.568,1995.47L994.589,1995.47L994.681,1995.48L994.777,1995.48L994.798,1995.48L994.816,1995.48L994.914,1995.49L995.011,1995.49L995.044,1995.49L995.149,1995.49L995.246,1995.5L995.271,1995.5L995.385,1995.5L995.48,1995.5L995.498,1995.5L995.628,1995.5L995.714,1995.5L995.725,1995.5L995.891,1995.51L995.95,1995.51C996.028,1995.51 996.105,1995.51 996.182,1995.5L996.407,1995.5L996.635,1995.5L996.651,1995.5L996.721,1995.5L996.862,1995.49L996.885,1995.49L996.96,1995.49L997.089,1995.49L997.119,1995.48L997.195,1995.48L997.317,1995.48L997.353,1995.48L997.429,1995.47L997.544,1995.47L997.568,1995.47L997.587,1995.46L997.662,1995.46L997.771,1995.45L997.799,1995.45L997.821,1995.45L997.894,1995.45L997.998,1995.44L998.03,1995.44L998.055,1995.44L998.127,1995.43L998.225,1995.42L998.26,1995.42L998.288,1995.42L998.358,1995.41L998.452,1995.41L998.491,1995.4L998.522,1995.4L998.59,1995.4L998.679,1995.39L998.721,1995.38L998.756,1995.38L998.821,1995.38L998.906,1995.37L998.951,1995.36L998.989,1995.36L999.053,1995.35L999.132,1995.35L999.181,1995.34L999.222,1995.34L999.284,1995.33L999.359,1995.32L999.411,1995.32L999.455,1995.31L999.514,1995.31L999.585,1995.3L999.641,1995.29L999.688,1995.29L999.745,1995.28L999.811,1995.27L999.87,1995.26L999.921,1995.26L999.975,1995.25L1000.04,1995.24L1000.1,1995.23L1000.15,1995.23L1000.21,1995.22L1000.26,1995.21L1000.33,1995.2L1000.39,1995.19L1000.44,1995.19L1000.49,1995.18L1000.56,1995.17L1000.62,1995.16L1000.67,1995.15L1000.71,1995.14L1000.78,1995.13L1000.85,1995.12L1000.89,1995.12L1000.94,1995.11L1001.01,1995.1L1001.08,1995.09L1001.12,1995.08L1001.17,1995.07L1001.24,1995.06L1001.31,1995.05L1001.35,1995.04L1001.39,1995.03L1001.47,1995.02L1001.55,1995.01L1001.58,1995L1001.62,1994.99L1001.69,1994.98L1001.78,1994.96L1001.81,1994.96L1001.84,1994.95L1001.92,1994.94L1002.01,1994.92L1002.04,1994.91L1002.06,1994.91L1002.14,1994.89L1002.24,1994.87L1002.27,1994.87L1002.29,1994.86L1002.36,1994.85L1002.47,1994.83L1002.5,1994.82L1002.51,1994.82L1002.59,1994.8L1002.7,1994.78L1002.74,1994.77L1002.8,1994.75L1002.93,1994.72L1002.96,1994.72L1003.02,1994.7L1003.16,1994.67L1003.39,1994.62L1003.4,1994.61C1003.92,1994.49 1004.44,1994.35 1004.95,1994.19L1004.98,1994.18L1005.16,1994.13L1005.21,1994.11L1005.37,1994.06L1005.44,1994.04L1005.59,1993.99L1005.66,1993.97L1005.8,1993.92L1005.89,1993.89L1006.02,1993.85L1006.05,1993.84L1006.06,1993.84L1006.11,1993.82L1006.24,1993.78L1006.27,1993.76L1006.28,1993.76L1006.34,1993.74L1006.46,1993.7L1006.49,1993.69L1006.5,1993.68L1006.56,1993.66L1006.67,1993.62L1006.7,1993.61L1006.72,1993.6L1006.78,1993.58L1006.89,1993.54L1006.92,1993.53L1006.94,1993.52L1007,1993.5L1007.11,1993.46L1007.14,1993.45L1007.16,1993.44L1007.23,1993.41L1007.32,1993.38L1007.35,1993.36L1007.37,1993.36L1007.45,1993.33L1007.54,1993.29L1007.57,1993.28L1007.59,1993.27L1007.67,1993.24L1007.75,1993.2L1007.78,1993.19L1007.81,1993.18L1007.89,1993.15L1007.97,1993.12L1008,1993.1L1008.03,1993.09L1008.11,1993.06L1008.19,1993.03L1008.21,1993.01L1008.24,1993L1008.33,1992.96L1008.4,1992.93L1008.43,1992.92L1008.46,1992.91L1008.55,1992.87L1008.61,1992.84L1008.64,1992.83L1008.68,1992.81L1008.77,1992.77L1008.83,1992.74L1008.85,1992.73L1008.89,1992.71L1008.99,1992.67L1009.04,1992.65L1009.06,1992.64L1009.11,1992.62L1009.21,1992.57L1009.25,1992.55L1009.27,1992.54L1009.33,1992.51L1009.42,1992.47L1009.46,1992.45L1009.48,1992.44L1009.55,1992.41L1009.64,1992.36L1009.67,1992.35L1009.69,1992.34L1009.76,1992.3L1009.85,1992.26L1009.88,1992.25L1009.9,1992.23L1009.99,1992.19L1010.07,1992.15L1010.09,1992.14L1010.11,1992.13L1010.21,1992.08L1010.28,1992.04L1010.3,1992.03L1010.32,1992.02L1010.44,1991.96L1010.5,1991.93L1357.01,1810.22C1365.24,1805.9 1371.12,1798.14 1373.06,1789.05L1423.3,1553.13L1620.04,1646.77C1620.11,1646.81 1620.18,1646.84 1620.26,1646.88L1620.28,1646.88L1620.33,1646.91L1620.43,1646.96L1620.48,1646.98L1620.52,1647L1620.57,1647.02L1620.64,1647.05L1620.71,1647.08L1620.76,1647.11L1620.8,1647.12L1620.84,1647.14L1620.94,1647.18L1621.01,1647.21L1621.04,1647.23L1621.25,1647.32L1621.34,1647.36L1621.44,1647.4L1621.46,1647.41L1621.5,1647.42L1621.58,1647.46L1621.65,1647.48L1621.68,1647.5L1621.75,1647.52L1621.81,1647.55L1621.85,1647.57L1621.9,1647.59L1621.99,1647.62L1622.04,1647.64L1622.05,1647.65L1622.1,1647.66L1622.24,1647.72C1622.32,1647.75 1622.4,1647.78 1622.49,1647.81L1622.74,1647.9L1622.86,1647.95L1622.88,1647.96C1626.18,1649.15 1629.62,1649.76 1633.05,1649.8L1633.07,1649.8C1633.35,1649.81 1633.62,1649.81 1633.9,1649.8L1633.92,1649.8L1633.93,1649.8C1634.07,1649.8 1634.2,1649.8 1634.33,1649.79L1634.35,1649.79L1634.38,1649.79C1634.52,1649.79 1634.65,1649.78 1634.78,1649.78L1635.03,1649.77L1635.17,1649.76L1635.22,1649.76L1635.24,1649.75C1635.37,1649.75 1635.49,1649.74 1635.61,1649.73L1635.65,1649.73L1635.69,1649.72C1635.82,1649.72 1635.94,1649.71 1636.07,1649.7L1636.08,1649.69L1636.11,1649.69L1636.32,1649.67L1636.45,1649.66L1636.51,1649.66L1636.54,1649.65C1636.66,1649.64 1636.78,1649.63 1636.89,1649.62L1636.93,1649.61L1636.99,1649.6L1637.09,1649.59L1637.35,1649.56L1637.36,1649.56L1637.41,1649.55L1637.61,1649.53L1637.73,1649.51L1637.79,1649.5L1637.83,1649.5C1637.94,1649.48 1638.06,1649.47 1638.17,1649.45L1638.22,1649.44L1638.28,1649.43C1638.4,1649.41 1638.52,1649.39 1638.63,1649.37L1638.65,1649.37L1638.69,1649.36L1638.89,1649.33L1639.02,1649.31L1639.07,1649.3L1639.12,1649.29L1639.14,1649.29L1639.18,1649.28L1639.29,1649.26L1639.36,1649.24L1639.39,1649.24L1639.43,1649.23L1639.5,1649.22L1639.6,1649.2L1639.65,1649.19L1639.67,1649.18L1639.71,1649.17L1639.86,1649.14L1639.9,1649.13L1639.91,1649.13C1639.99,1649.12 1640.07,1649.1 1640.14,1649.08L1640.16,1649.08L1640.23,1649.06L1640.35,1649.04L1640.37,1649.03L1640.41,1649.02L1640.49,1649.01L1640.56,1648.99L1640.6,1648.98L1640.66,1648.97L1640.73,1648.95L1640.77,1648.94L1640.83,1648.92L1640.91,1648.9L1640.96,1648.89L1640.98,1648.89L1641.03,1648.87C1641.3,1648.81 1641.56,1648.74 1641.81,1648.67L1641.82,1648.67C1643.63,1648.16 1645.4,1647.5 1647.11,1646.67L1911.66,1520.21C1924.84,1513.91 1931.89,1499.33 1928.66,1485.09L1716.14,550.823C1715.72,548.915 1715.13,547.061 1714.37,545.282L1714.36,545.261C1714.31,545.137 1714.25,545.013 1714.2,544.89L1714.19,544.877L1714.18,544.853L1714.12,544.703L1714.03,544.502L1714.02,544.481C1713.96,544.366 1713.91,544.251 1713.85,544.137L1713.84,544.099L1713.82,544.061C1713.77,543.95 1713.71,543.839 1713.66,543.729L1713.65,543.715L1713.63,543.674L1713.55,543.503L1713.49,543.388L1713.46,543.333L1713.44,543.301C1713.39,543.198 1713.34,543.094 1713.28,542.991L1713.26,542.954L1713.23,542.895L1713.18,542.795L1713.09,542.632L1713.06,542.578L1713.05,542.562C1713,542.461 1712.94,542.36 1712.88,542.26L1712.85,542.206L1712.83,542.156C1712.77,542.056 1712.71,541.957 1712.66,541.858L1712.64,541.836L1712.61,541.776L1712.53,541.638L1712.46,541.529L1712.43,541.469L1712.41,541.437C1712.35,541.339 1712.29,541.24 1712.23,541.142L1712.2,541.105L1712.17,541.052L1712.11,540.957L1712,540.781L1711.98,540.745L1711.97,540.735C1711.91,540.632 1711.84,540.531 1711.78,540.429L1711.75,540.387L1711.72,540.351C1711.66,540.249 1711.59,540.147 1711.52,540.045L1711.51,540.033L1711.49,540.004L1711.38,539.846L1711.29,539.712L1711.27,539.683L1711.26,539.668C1711.19,539.562 1711.11,539.456 1711.04,539.352L1711.03,539.335L1711.01,539.312C1710.85,539.093 1710.69,538.876 1710.53,538.661L1710.52,538.643C1708.22,535.614 1705.36,532.992 1702.04,530.944L1702.03,530.935C1701.79,530.79 1701.56,530.648 1701.32,530.509L1701.29,530.496L1701.27,530.482L1701.22,530.452L1701.15,530.414L1701.11,530.388L1701.05,530.356L1700.98,530.316L1700.94,530.295L1700.92,530.281L1700.81,530.22L1700.74,530.182L1700.73,530.176C1700.66,530.138 1700.59,530.1 1700.52,530.062L1700.5,530.051L1700.44,530.02L1700.35,529.969L1700.3,529.942L1700.26,529.921L1700.22,529.899L1700.16,529.867L1700.06,529.819L1700.01,529.793L1699.99,529.782C1699.92,529.743 1699.84,529.705 1699.77,529.667L1372.08,363.264C1367.66,361.019 1362.85,359.895 1358.04,359.877ZM972.754,1916.68L1069.34,1377.15L1069.34,1377.15C949.927,1380.29 914.937,1483.43 914.331,1485.25C914.058,1486.11 913.749,1486.96 913.403,1487.79L913.385,1487.84L913.381,1487.85L913.367,1487.88L913.328,1487.97L913.297,1488.05L913.282,1488.08L913.264,1488.12L913.238,1488.18L913.208,1488.26L913.179,1488.32L913.16,1488.37L913.143,1488.4L913.117,1488.46L913.07,1488.57L913.053,1488.61L913.046,1488.62C912.292,1490.3 911.395,1491.9 910.37,1493.41L910.363,1493.42L910.346,1493.44L910.272,1493.56L910.232,1493.61L910.214,1493.64L910.19,1493.67L910.144,1493.74L910.095,1493.81L910.063,1493.85L910.041,1493.88L910.016,1493.92L909.957,1494L909.91,1494.07L909.894,1494.09L909.886,1494.1L909.83,1494.18L909.756,1494.28C909.704,1494.35 909.652,1494.42 909.599,1494.49L909.5,1494.63L909.441,1494.7L909.359,1494.81L909.349,1494.83C907.431,1497.33 905.125,1499.56 902.484,1501.41L902.455,1501.43L902.438,1501.44L902.376,1501.49L902.306,1501.54L902.271,1501.56L902.225,1501.59L902.154,1501.64L902.114,1501.67L902.086,1501.69L901.993,1501.75L901.931,1501.79L901.916,1501.8C901.773,1501.9 901.629,1501.99 901.485,1502.09L901.337,1502.18L901.257,1502.23L901.245,1502.24C900.408,1502.77 899.544,1503.26 898.655,1503.71L898.651,1503.71C898.494,1503.79 898.336,1503.87 898.177,1503.95L898.167,1503.95L898.114,1503.98L897.991,1504.04L897.961,1504.05L897.923,1504.07L897.846,1504.1L897.786,1504.13L897.748,1504.15L897.679,1504.18L897.605,1504.22L897.581,1504.23L897.547,1504.24C894.847,1505.48 892.017,1506.31 889.144,1506.74L889.029,1506.76L888.929,1506.77L888.906,1506.78L888.877,1506.78L888.768,1506.79L888.7,1506.8L888.683,1506.81L888.638,1506.81L888.507,1506.83L888.46,1506.83L888.408,1506.84L888.245,1506.86L888.113,1506.88L888.015,1506.89L887.983,1506.89L887.892,1506.9L887.792,1506.91L887.76,1506.91L887.721,1506.92L887.652,1506.93L887.569,1506.93L887.509,1506.94L887.459,1506.94L887.411,1506.95L887.346,1506.95L887.252,1506.96L887.197,1506.97L887.168,1506.97L887.123,1506.98L886.974,1506.99L886.934,1506.99L886.925,1506.99C886.756,1507 886.587,1507.02 886.418,1507.03L886.23,1507.04L886.166,1507.04L886.146,1507.04L886.117,1507.04L886.007,1507.05L885.91,1507.05L885.884,1507.05L885.862,1507.05L885.784,1507.06L885.641,1507.06L885.612,1507.06C885.354,1507.07 885.097,1507.08 884.839,1507.08L884.667,1507.08L884.587,1507.08L884.569,1507.08L884.546,1507.08L884.444,1507.08L884.331,1507.08L884.306,1507.08L884.289,1507.08L884.221,1507.08L884.058,1507.08L884.038,1507.08C883.866,1507.08 883.694,1507.07 883.522,1507.07L883.329,1507.06L883.276,1507.06L883.255,1507.06L883.215,1507.05L883.106,1507.05L883.029,1507.05L882.992,1507.04L882.955,1507.04L882.883,1507.04L882.779,1507.03L882.729,1507.03L882.703,1507.03L882.661,1507.03L882.519,1507.02L882.467,1507.01L882.454,1507.01C882.374,1507.01 882.293,1507 882.212,1507L882.205,1507L882.143,1506.99L881.993,1506.98L881.972,1506.98L881.942,1506.97L881.859,1506.97L881.771,1506.96L881.733,1506.96L881.68,1506.95L881.606,1506.94L881.549,1506.94L881.496,1506.93L881.419,1506.93L881.359,1506.92L881.328,1506.92L881.266,1506.91L881.157,1506.9L881.114,1506.89L881.106,1506.89L881.063,1506.89L880.895,1506.87C880.808,1506.86 880.721,1506.85 880.634,1506.84L880.454,1506.82L880.373,1506.8L880.238,1506.79L880.112,1506.77L880.007,1506.75L879.993,1506.75C876.414,1506.23 872.909,1505.08 869.648,1503.31L869.573,1503.27L869.469,1503.21L869.43,1503.19L869.405,1503.18L869.337,1503.14L869.265,1503.1L869.232,1503.08L869.186,1503.05L869.101,1503.01L869.055,1502.98L869.034,1502.97L868.965,1502.93L868.866,1502.87L868.837,1502.85L868.707,1502.78L868.633,1502.74L868.556,1502.69L868.445,1502.62L868.426,1502.61L868.4,1502.6L868.334,1502.56L868.25,1502.51L868.208,1502.48L868.168,1502.45L868.117,1502.42L868.056,1502.38L867.988,1502.34L867.937,1502.31L867.903,1502.29L867.862,1502.26L867.761,1502.2L867.707,1502.16L867.69,1502.15L867.67,1502.14L867.477,1502.02L800.147,1458.16L791.851,1493.44C791.783,1493.73 791.71,1494.02 791.632,1494.31C791.632,1494.31 715.418,1780.97 715.418,1780.97L972.754,1916.68ZM1664.04,603.548L1280.75,798.292L1184.29,1171.19C1181.11,1183.5 1170.79,1192.66 1158.18,1194.34C1029.16,1211.62 968.748,1285.85 940.488,1353.62C979.463,1326.58 1034.3,1307.74 1110.02,1316.69C1118.57,1317.7 1126.33,1322.2 1131.45,1329.11C1136.58,1336.03 1138.63,1344.76 1137.11,1353.23L1037.99,1906.94L1314.99,1761.68L1370.37,1501.61C1372.39,1491.75 1379.1,1483.33 1388.55,1479.23L1595.75,1389.38C1604.8,1385.45 1615.18,1386.04 1623.74,1390.95C1632.3,1395.86 1638.03,1404.53 1639.21,1414.33C1639.21,1414.33 1646.55,1475.5 1646.55,1475.5L1658.94,1571.74L1862.17,1474.59L1664.04,603.548ZM1476.48,1509.22L1582.15,1463.4C1582.15,1463.4 1584.51,1483.08 1584.51,1483.08C1584.52,1483.16 1584.53,1483.26 1584.54,1483.34L1595.15,1565.71L1476.48,1509.22ZM1217.63,792.725L990.926,670.769L912.593,999.406C912.572,999.494 912.55,999.582 912.529,999.668L912.527,999.676L912.506,999.758L912.467,999.914L912.459,999.945L912.434,1000.04L912.401,1000.17L912.395,1000.19L912.389,1000.21L912.363,1000.31L912.333,1000.42L912.325,1000.45L912.317,1000.48L912.29,1000.57L912.263,1000.67L912.253,1000.71L912.242,1000.75L912.216,1000.84L912.191,1000.92L912.179,1000.96L912.165,1001.01L912.139,1001.1L912.117,1001.17L912.103,1001.22L912.086,1001.27L912.061,1001.36L912.042,1001.42L912.026,1001.47L912.004,1001.54L911.98,1001.61L911.964,1001.67L911.946,1001.72L911.921,1001.8L911.898,1001.87L911.884,1001.91L911.865,1001.97L911.835,1002.06L911.813,1002.12L911.802,1002.16L911.783,1002.22L911.747,1002.32L911.726,1002.38L911.718,1002.4L911.699,1002.46L911.656,1002.58L911.638,1002.63L911.632,1002.65L911.616,1002.69L911.564,1002.84L911.547,1002.88L911.545,1002.89L911.533,1002.92C911.211,1003.8 910.851,1004.66 910.455,1005.5L910.407,1005.6L910.343,1005.73C909.677,1007.12 908.912,1008.44 908.058,1009.7L907.987,1009.81L907.916,1009.91L907.834,1010.03L907.771,1010.12L907.68,1010.25L907.624,1010.32L907.523,1010.46L907.474,1010.53L907.365,1010.68L907.317,1010.75C906.923,1011.28 906.513,1011.8 906.086,1012.3L906.036,1012.36L905.936,1012.48L905.899,1012.52L905.89,1012.53L905.862,1012.57L905.777,1012.66L905.733,1012.71L905.718,1012.73L905.687,1012.77L905.612,1012.85L905.566,1012.9L905.545,1012.93L905.509,1012.97L905.443,1013.04L905.397,1013.09L905.369,1013.12L905.33,1013.17L905.272,1013.23L905.227,1013.28L905.192,1013.32L905.149,1013.37L905.098,1013.42L905.055,1013.47L905.013,1013.51L904.967,1013.56L904.922,1013.61L904.881,1013.65L904.832,1013.7L904.783,1013.75L904.744,1013.79L904.706,1013.83L904.649,1013.89L904.597,1013.95L904.565,1013.98L904.53,1014.02L904.464,1014.08L904.41,1014.14L904.383,1014.17L904.352,1014.2L904.276,1014.27L904.221,1014.33L904.2,1014.35L904.173,1014.38L904.084,1014.46L904.03,1014.51L904.015,1014.53L903.992,1014.55L903.887,1014.65L903.838,1014.7L903.828,1014.71L903.81,1014.73L903.68,1014.85L903.644,1014.89L903.64,1014.89C903.447,1015.07 903.252,1015.25 903.054,1015.43L902.877,1015.59L902.854,1015.61L902.823,1015.63L902.687,1015.75L902.662,1015.77L902.652,1015.78L902.612,1015.82L902.494,1015.92L902.463,1015.95L902.449,1015.96L902.405,1015.99L902.301,1016.08L902.263,1016.11L902.244,1016.13L902.2,1016.17L902.106,1016.25L902.062,1016.28L902.038,1016.3L901.994,1016.34L901.91,1016.41L901.859,1016.45L901.831,1016.47L901.788,1016.5L901.713,1016.57L901.655,1016.61L901.621,1016.64L901.581,1016.67L901.514,1016.72L901.45,1016.77L901.411,1016.8L901.373,1016.83L901.313,1016.88L901.244,1016.93L901.199,1016.97L901.164,1016.99L901.112,1017.03L901.036,1017.09L900.985,1017.13L900.954,1017.15L900.909,1017.19L900.827,1017.25L900.771,1017.29L900.742,1017.31L900.705,1017.34L900.617,1017.4L900.554,1017.45L900.529,1017.47L900.5,1017.49L900.407,1017.56L900.336,1017.61L900.315,1017.62L900.293,1017.64L900.197,1017.7L900.117,1017.76L900.1,1017.77L900.085,1017.78L899.988,1017.85L899.897,1017.91L899.876,1017.93L899.787,1017.99L899.675,1018.06L899.451,1018.21C899.377,1018.26 899.302,1018.31 899.227,1018.36L899.052,1018.47L899.001,1018.51L898.845,1018.61L898.811,1018.63L898.773,1018.65L898.629,1018.74L898.594,1018.76L898.586,1018.77L898.545,1018.79L898.408,1018.88L898.376,1018.89L898.366,1018.9L898.315,1018.93L898.185,1019.01L898.157,1019.03L898.145,1019.03L898.083,1019.07L897.96,1019.14L897.937,1019.16L897.924,1019.16L897.851,1019.21L897.733,1019.27L897.716,1019.28L897.703,1019.29L897.617,1019.34L897.505,1019.4L897.382,1019.47L897.276,1019.53L897.145,1019.6L897.043,1019.66C895.158,1020.68 893.156,1021.51 891.06,1022.13C816.923,1044.1 766.654,1078.72 732.925,1117.02C683.622,1172.99 669.875,1236.11 666.381,1274.45C665.875,1281.4 665.594,1288.56 665.555,1295.91C711.792,1326.03 857.669,1421.04 857.669,1421.04C870.879,1334.28 923.23,1173.05 1128.92,1135.7L1217.63,792.725ZM1359.19,426.817L1616.62,557.538C1616.62,557.538 1254.44,741.555 1254.44,741.555L1033.15,622.513L1359.19,426.817Z" style="fill:white;"/>
        </g>
    </g>
    <path d="M54.447,1441.68L128.067,1479.11L127.972,1479.16C127.972,1479.16 998.866,1922.33 998.866,1922.33C998.866,1922.33 1869.79,1480.24 1869.79,1480.24L1869.42,1480.05L1943.33,1442.86L1958.47,1450.57C1969.65,1456.27 1976.69,1467.75 1976.68,1480.3C1976.67,1492.84 1969.62,1504.32 1958.43,1510L1013.94,1989.44C1004.44,1994.26 993.218,1994.26 983.73,1989.43L39.234,1508.8C28.048,1503.11 21.007,1491.62 21.018,1479.07C21.029,1466.52 28.088,1455.03 39.284,1449.36L54.447,1441.68Z" style="fill:white;"/>
</svg>
