<svg viewBox="0 0 2000 2000" xmlns="http://www.w3.org/2000/svg" xml:space="preserve" style="fill-rule:evenodd;clip-rule:evenodd;stroke-linejoin:round;stroke-miterlimit:2">
    <g transform="matrix(2.36128 0 0 1.7452 -1303.42 -719.023)">
        <path d="M1399 457.84c0-25.3-15.18-45.84-33.88-45.84H585.88c-18.699 0-33.88 20.54-33.88 45.84v1054.32c0 25.3 15.181 45.84 33.88 45.84h779.24c18.7 0 33.88-20.54 33.88-45.84V457.84Z" style="fill:#e6e6e6"/>
        <clipPath id="a">
            <path d="M1399 457.84c0-25.3-15.18-45.84-33.88-45.84H585.88c-18.699 0-33.88 20.54-33.88 45.84v1054.32c0 25.3 15.181 45.84 33.88 45.84h779.24c18.7 0 33.88-20.54 33.88-45.84V457.84Z"/>
        </clipPath>
        <g clip-path="url(#a)">
            <g transform="matrix(.4235 0 0 .573 552 412)">
                <path style="fill:none" d="M0 0h2000v2000H0z"/>
                <clipPath id="b">
                    <path d="M0 0h2000v2000H0z"/>
                </clipPath>
                <g clip-path="url(#b)">
                    <path d="M1399 457.84c0-25.3-15.18-45.84-33.88-45.84H585.88c-18.699 0-33.88 20.54-33.88 45.84v1054.32c0 25.3 15.181 45.84 33.88 45.84h779.24c18.7 0 33.88-20.54 33.88-45.84V457.84Z" style="fill:#e6e6e6" transform="matrix(2.36128 0 0 1.7452 -1303.42 -719.023)"/>
                    <path d="M670.769 1090C805.244 1061.38 1520 1610 1520 1610l-440 110-380-200s-150.667-404.15-29.231-430Z" style="fill:#172c4f" transform="matrix(1.79089 0 0 1.97006 -884.846 -1388.507)"/>
                    <path d="M639.385 1079.12C775.377 1054.62 1520 1610 1520 1610l-440 110-380-200s-189.805-417.6-60.615-440.88Z" style="fill:#172c4f" transform="matrix(1.98988 0 0 1.53228 -112.772 -635.506)"/>
                    <path d="M670.538 814.631C793.872 814.631 1180 1720 1180 1720H440s107.205-905.369 230.538-905.369Z" style="fill:#1f90e0" transform="matrix(1.72097 0 0 1.08464 5.546 134.419)"/>
                    <path d="M710.029 830C833.362 830 1180 1720 1180 1720H440s146.696-890 270.029-890Z" style="fill:#45a0e5" transform="matrix(1.54888 0 0 1.39454 -778.36 -398.606)"/>
                    <circle cx="635" cy="445" r="115" style="fill:#e4bc73" transform="matrix(1.61701 0 0 1.61701 -754.234 -462.265)"/>
                    <path d="M640 446.25h320c9.199 0 16.667-2.801 16.667-6.25s-7.468-6.25-16.667-6.25H640c-9.199 0-16.667 2.801-16.667 6.25s7.468 6.25 16.667 6.25Z" style="fill:#e4bc73" transform="matrix(0 .614 -3.81269 0 1950.157 91.524)"/>
                    <path d="M640 446.25h320c9.199 0 16.667-2.801 16.667-6.25s-7.468-6.25-16.667-6.25H640c-9.199 0-16.667 2.801-16.667 6.25s7.468 6.25 16.667 6.25Z" style="fill:#e4bc73" transform="rotate(45 1906.6 1161.53) scale(.61501 3.81271)"/>
                    <path d="M640 446.25h320c9.199 0 16.667-2.801 16.667-6.25s-7.468-6.25-16.667-6.25H640c-9.199 0-16.667 2.801-16.667 6.25s7.468 6.25 16.667 6.25Z" style="fill:#e4bc73" transform="matrix(.61373 0 0 3.81269 137.956 -1420.274)"/>
                </g>
            </g>
        </g>
    </g>
</svg>
