<?xml version="1.0" encoding="UTF-8"?>
<svg id="Ebene_1" data-name="Ebene 1" xmlns="http://www.w3.org/2000/svg" viewBox="0 0 2000 2000">
  <defs>
    <style>
      .cls-1 {
        fill: #172d4d;
        stroke: #cfd8e5;
        stroke-miterlimit: 10;
        stroke-width: 60px;
      }
    </style>
  </defs>
  <ellipse class="cls-1" cx="355.626282281409658" cy="683.999999999999091" rx="90" ry="216"/>
  <ellipse class="cls-1" cx="418.626282281409658" cy="949.500000000000455" rx="90.000000000001236" ry="157.499999999999289" transform="translate(-199.082029892987293 115.69267496176758) rotate(-12.73984093353077)"/>
  <path class="cls-1" d="M662.80133110953102,1953c10.782470703128638-16.641357421869543,16.824951171878638-35.296508789060681,16.824951171878638-55,0-70.14013671875-76.559326171878638-127-171-127-94.440673828128638,0-171,56.85986328125-171,127,0,19.703491210939319,6.04248046875,38.358642578130457,16.824951171871362,55h308.35009765625Z"/>
  <ellipse class="cls-1" cx="1644.372077276323125" cy="682.239418370749036" rx="89.999999999999844" ry="216.000000000000199" transform="translate(-1.857900866349382 4.495357851378799) rotate(-.156545743127951)"/>
  <ellipse class="cls-1" cx="1582.097720886099523" cy="947.910558196255806" rx="157.49999999999801" ry="89.999999999998494" transform="translate(312.281917668082542 2285.496237945672874) rotate(-77.416704809603701)"/>
  <path class="cls-1" d="M1340.665381527949648,1952.073956245729278c-10.827898560219182-16.611835060459271-16.921326737159688-35.250407318018915-16.975161310359908-54.953824984469975-.191639353850405-70.139874916359986,76.212046532949898-127.208704054199188,170.652367855431294-127.466738192099001,94.440321322488671-.258034137890718,171.154716254619416,56.392438820870666,171.346355608468002,126.532313737230652.053834573202039,19.703417666438327-5.937653079488882,38.37500888024806-16.67461543304853,55.045764433749355l-308.348946720490858.842485005588969Z"/>
  <g>
    <path class="cls-1" d="M1676.017566324269865,442.819848519295192l-328.962808996609965-324.08924722921347c-25.271693328659239-41.882366641423687-71.229218109529029-70.043661737083312-123.44918235977093-70.043661737083312h-456.491397695939668c-50.592072102139355,0-95.306802217328368,26.432523197035152-121.026971828199748,66.166644585897302l-333.052015603920154,333.052015603914697c-14.731882395688444,14.731882395693901-14.731888261208951,38.616981213886902-.000013101009245,53.348870845064994l114.094422426089295,114.094534499890869c14.731885392720869,14.731899863709259,38.617004418871147,14.731905729235223,53.348897047089849.000013101014702l140.1823763934608-140.182376393462619c.881323195819277-.881323195816549,2.388248768469566-.257134186135772,2.388248768469566.989245030221355v460.533499896251669c0,33.312933377288573,27.256036399599907,60.568969776892118,60.568969776890299,60.568969776892118h623.4836795900992c33.312993685840411,0,60.569079428800251-27.256085742961659,60.569079428800251-60.569079428794794v-461.890624295911948c0-1.241351901610869,1.49654526345148-1.867793257866651,2.380839266890689-.996599445275024l139.776773240970215,137.706079105630124c14.841417498029841,14.621552384096503,38.725876347429221,14.443307754563648,53.347417896529805-.398120417938117l113.239814590429887-114.942775963010718c14.621529805330283-14.841416252133058,14.443281478150311-38.725851705806235-.398128840270147-53.347387534087829Z"/>
    <path class="cls-1" d="M1333.353317717630489,1832.224754802420648l209.25068577258935-71.953317592910025c16.712541168670214-5.746804499371137,25.602023064760942-23.953705339321459,19.855209756169643-40.666243478841352l-194.882518434589656-566.745663582729321v-125.029955064959722c0-17.67298960116932-14.326788785960161-31.999778387125843-31.999778387129481-31.999778387125843h-687.336595217841023c-17.67298960116932,0-31.999778387120386,14.326788785956523-31.999778387120386,31.999778387125843v133.627613533179101l-189.601743768449523,561.209544146720873c-5.656627555659725,16.743270967999706,3.330872616130364,34.901976566190569,20.074143540170553,40.558604251949873l209.635265464659824,70.824192711139403c16.743267096810087,5.656626392750695,34.901969161601301-3.33086820050994,40.55860109697096-20.074133424768661l178.766903662739423-529.138490101860953c1.687056702399786-4.993578889250784,6.370855953280625-8.355061067499264,11.641718353330361-8.355061067499264h212.331447535778352c5.246508965561588,0,9.914318911030932,3.330983439080228,11.620348749111145,8.292366161389509l181.419862438140626,527.595327404129421c5.74680199623981,16.71253544118008,23.953692548398976,25.602018578540083,40.666227825469832,19.855216105061118Z"/>
  </g>
</svg>