<?xml version="1.0" encoding="UTF-8"?>
<svg id="Ebene_1" data-name="Ebene 1" xmlns="http://www.w3.org/2000/svg" viewBox="0 0 2000 2000">
  <defs>
    <style>
      .cls-1 {
        fill: #172d4d;
        stroke: #cfd8e5;
        stroke-miterlimit: 10;
        stroke-width: 60px;
      }
    </style>
  </defs>
  <ellipse class="cls-1" cx="1815.06102325718075" cy="689.858465989794922" rx="90.518517061624038" ry="216.000009339392449" transform="translate(-1.893441728471089 5.002500538737195) rotate(-.15783081738594)"/>
  <ellipse class="cls-1" cx="1752.427882866719301" cy="955.52960581530192" rx="157.543417588326918" ry="90.493574862566874" transform="translate(434.425317704909503 2454.499101990980307) rotate(-77.277612226677178)"/>
  <path class="cls-1" d="M1449.143822457615897,1956.64538481715681c-10.890281810479792-16.611835060459271-17.018816324332875-35.250407318018915-17.072961057034263-54.953824984469975-.192743454128504-70.139874916359986,76.651130363057746-127.208704054199188,171.635554880365817-127.466738192099001,94.984424517315347-.258034137890718,172.140797481577465,56.392438820870666,172.333540935698693,126.532313737230652.054144732708664,19.703417666438327-5.971861942449323,38.37500888024806-16.770683631486463,55.045764433749355l-310.125451127543784.842485005588969Z"/>
  <ellipse class="cls-1" cx="184.963830936742852" cy="701.100515518498014" rx="90.518517061624308" ry="216.000009339392676" transform="translate(-7.727474570240531 2.084340886527116) rotate(-.632443262460317)"/>
  <ellipse class="cls-1" cx="251.255268852484733" cy="965.882520327017119" rx="90.493574862566746" ry="157.543417588326747" transform="translate(-218.733173448502953 85.445630309966305) rotate(-13.512661853172331)"/>
  <path class="cls-1" d="M568.318317461886181,1962.720043432580496c10.660128062772856-16.7604585758545,16.531008101774205-35.481785415995546,16.3133893333179-55.18407567531176-.774675412023498-70.135861592538276-78.398358636426565-126.139397240503968-173.377307126575033-125.087339159334078-94.978948490159382,1.052058081180803-171.346633649103751,58.76131764076672-170.571958237072977,128.897179233304996.217618768449029,19.702290259301662,6.500579186751565,38.288992045436316,17.528304206705798,54.809219691584076l310.107571823624312-3.434984090243233Z"/>
  <g>
    <path class="cls-1" d="M1888.046832473235554,447.391277090722724l-423.012514233370894-324.08924722921347c-32.496811923803762-41.882366641423687-91.593486605041107-70.043661737083312-158.743017696560855-70.043661737083312h-587.001231094345712c-65.05622834836322,0-122.554796247226477,26.432523197035152-155.628302783690742,66.166644585897302L135.390951125878928,452.477028314237941c-18.943693454584718,14.731882395693901-18.943700997046108,38.616981213886902-.000016846555809,53.348870845064994l146.713753562824422,114.094534499890869c18.943697308463015,14.731899863709259,49.657516547886189,14.731905729235223,68.601223160454538.000013101014702l180.260193151552812-140.182376393462619c1.133291456422739-.881323195816549,3.071043560357793-.257134186135772,3.071043560357793.989245030221355v460.533499896251669c0,33.312933377288573,35.048474083130714,60.568969776892118,77.885497962510271,60.568969776892118h801.736219639336923c42.837101430006442,0,77.885638963645761-27.256085742961659,77.885638963645761-60.569079428794794v-461.890624295911948c0-1.241351901610869,1.924404088382289-1.867793257866651,3.061515699439042-.996599445275024l179.738628997114574,137.706079105630124c19.084544389010262,14.621552384096503,49.797514708679955,14.443307754563648,68.599321124173002-.398120417938117l145.614815326167445-114.942775963010718c18.801791314213915-14.841416252133058,18.572582203105412-38.725851705806235-.511952953664149-53.347387534087829Z"/>
    <path class="cls-1" d="M1447.415668776928214,1836.79618337384818l269.074972224687372-71.953317592910025c21.490617983694392-5.746804499371137,32.921582166443841-23.953705339321459,25.531768242151884-40.666243478841352l-250.598979120448348-566.745663582729321v-125.029955064959722c0-17.67298960116932-18.422784520003916-31.999778387125843-41.148440918714186-31.999778387125843h-883.84453596606545c-22.725656398706633,0-41.148440918695997,14.326788785956523-41.148440918695997,31.999778387125843v133.627613533179101l-243.808443207177334,561.209544146720873c-7.273844273458963,16.743270967999706,4.283161383009428,34.901976566190569,25.813294687959569,40.558604251949873l269.569502360067418,70.824192711139403c21.53012838352879,5.656626392750695,44.880361314328184-3.33086820050994,52.15421121964755-20.074133424768661l229.875947407996136-529.138490101860953c2.169382306507032-4.993578889250784,8.192268915852765-8.355061067499264,14.970058669121499-8.355061067499264h273.036516641139315c6.746473728264391,0,12.748799726814468,3.330983439080228,14.942579544549517,8.292366161389509l233.287380953210231,527.595327404129421c7.389799377764575,16.71253544118008,30.801997772869072,25.602018578540083,52.292608180570824,19.855216105061118Z"/>
  </g>
</svg>