<?xml version="1.0" encoding="UTF-8"?>
<svg id="Ebene_1" data-name="Ebene 1" xmlns="http://www.w3.org/2000/svg" viewBox="0 0 2000 2000">
  <defs>
    <style>
      .cls-1 {
        fill: #172d4d;
        stroke: #cfd8e5;
        stroke-miterlimit: 10;
        stroke-width: 60px;
      }
    </style>
  </defs>
  <ellipse class="cls-1" cx="1456.348948399384426" cy="743.242372418211744" rx="73.868653324896783" ry="176.269235577556771" transform="translate(-100.352084684279589 243.198997041537041) rotate(-9.229275040268366)"/>
  <ellipse class="cls-1" cx="1476.629778859616636" cy="959.29807748406779" rx="128.565076795605762" ry="73.848298962996964" transform="translate(425.249948984954244 2371.844982408769738) rotate(-86.349056449556315)"/>
  <path class="cls-1" d="M1225.349903388332677,1768.133656060923386c-8.836716225732744-13.565360285914721-13.787549683594989-28.771314242472727-13.78491157992903-44.830754226553836.009391074388986-57.168108131221743,62.77661094956602-103.499775840204165,140.194475775093451-103.484627980607911,77.417864825541983.01514785960353,140.16985874790771,46.371375112201349,140.160467673513267,103.539483243424911-.002638103658683,16.059439984072014-4.958467044069039,31.263455567215715-13.799639497929093,44.825356933462899l-252.770392370748596-.049457969726063Z"/>
  <ellipse class="cls-1" cx="545.358286790333295" cy="753.04373488266242" rx="176.269235577556969" ry="73.868653324897721" transform="translate(-276.38299395066133 1188.051545321816093) rotate(-81.983288785587419)"/>
  <ellipse class="cls-1" cx="529.654093390268372" cy="969.480233850175637" rx="73.84829896299658" ry="128.56507679560579" transform="translate(-80.287759799892456 48.395917298096492) rotate(-4.863507376298645)"/>
  <path class="cls-1" d="M797.993995616096072,1772.817190464305895c8.547671969286966-13.749322064970329,13.175613676010471-29.056638721249328,12.833131892251913-45.112426643045183-1.219160547700085-57.155107585011137-64.952779383931556-102.148142085836298-142.352987255082553-100.494707749672671-77.40020787116373,1.653434336167265-139.1571752406835,49.327216729081556-137.938014692979777,106.482324314096331.342481783751282,16.05578792178494,5.618943029285219,31.1515253023681,14.745127883708847,44.523295904258703l252.712742172101571-5.398485825637181Z"/>
  <g>
    <path class="cls-1" d="M1469.00736255546326,549.046925816064686l-223.992177962380083-258.118342833397946c-17.207603639901208-33.356882907562976-48.500278033176073-55.785725839808947-84.05707413789969-55.785725839808947h-310.826937254354561c-34.448357406577998,0-64.894807617927654,21.051976092556288-82.407780668807391,52.697905892814561l-226.776536160512478,265.256669513027191c-10.031001478138933,11.733092360524097-10.031005471995741,30.756192256842041-.000008920535038,42.489290380010971l77.68737824962227,90.869698464975954c10.031003518830403,11.733106272788064,26.294482809624242,11.733110944340297,36.325491255131055.000010434200703l95.450777235539135-111.64715583277939c.600096718297209-.701922957178795,1.626168759921711-.20479250878725,1.626168759921711.787876456994127v366.788299299582832c0,26.53182489631854,18.558751289820066,48.239681629671395,41.241669532932065,48.239681629671395h424.532693350221962c22.682959307456258,0,41.241744195380306-21.707896032484314,41.241744195380306-48.239768961070695v-367.869170399299946c0-.988665000323635,1.019004044874237-1.487589312504497,1.621123598733902-.793733823266848l95.174600321224716,109.674928251140045c10.105584395914775,11.645220886842253,26.368614169548891,11.50325934758348,36.324484095206572-.317079888965054l77.105472133867806-91.545273735229785c9.955861929278399-11.820329742663489,9.834491883999362-30.842901307506509-.27108762329226-42.488109008599167Z"/>
    <path class="cls-1" d="M1235.685815997187092,1655.627582226270533l142.479683309144093-57.306656290609681c11.379640473876862-4.576997437116006,17.43252656436016-19.077741022774717,13.519496902252286-32.388311138856807l-132.696336963146678-451.380145261426151v-99.579128532692266c0-14.075514160886996-9.755171513654204-25.485972888450306-21.788785416536484-25.485972888450306h-468.010415601955174c-12.033613902880461,0-21.78878541652557,11.410458727563309-21.78878541652557,25.485972888450306v106.42666628668303l-129.100634997916131,446.970946293031375c-3.851621798765336,13.33504703664039,2.268005353182161,27.79740589944231,13.668569848387051,32.30258271958337l142.74154525971062,56.407373621326769c11.40056188923154,4.505175790332942,23.764899477631843-2.652843892423334,27.616524258559366-15.987886354507282l121.723146215656016-421.428206465181574c1.148724095193757-3.977096798862476,4.337942957179621-6.654322954102099,7.926895618202252-6.654322954102099h144.577387117140461c3.57237030374381,0,6.750701979563019,2.652935673280808,7.912344963657233,6.604390087130014l123.529557146908701,420.199166619935568c3.913021959484468,13.310567967011593,16.310171294202519,20.390527193298112,27.68980775646196,15.813531369685734Z"/>
  </g>
</svg>