<?xml version="1.0" encoding="UTF-8"?>
<svg id="Ebene_1" xmlns="http://www.w3.org/2000/svg" xmlns:xlink="http://www.w3.org/1999/xlink" viewBox="0 0 200.000000000002728 200">
  <defs>
    <style>
      .cls-1 {
        fill: #cfd8e5;
        fill-rule: evenodd;
      }

      .cls-2, .cls-3 {
        fill: none;
      }

      .cls-4 {
        clip-path: url(#clippath-1);
      }

      .cls-3 {
        stroke: #172d4d;
        stroke-miterlimit: 10;
        stroke-width: 6px;
      }

      .cls-5 {
        clip-path: url(#clippath);
      }
    </style>
    <clipPath id="clippath">
      <rect class="cls-2" x="-.137450657070076" y="-.000097286670098" width="200" height="200"/>
    </clipPath>
    <clipPath id="clippath-1">
      <rect class="cls-2" x="-.137450657070076" y="-.000097286670098" width="200" height="200"/>
    </clipPath>
  </defs>
  <g class="cls-5">
    <g class="cls-4">
      <path class="cls-1" d="M99.857550563632685,72.182214725048652L41.738849391757867,14.063513553173834c-3.83819580078125-3.838293457031796-10.070599365234557-3.838293457031796-13.908898925780704,0l-13.908801269531978,13.908801269531068c-3.838299560546147,3.838305664062318-3.838299560546147,10.070703125000364,0,13.908898925781614l58.118701171875728,58.118701171874818-58.118701171875728,58.118902587890261c-3.838299560546147,3.838098144531614-3.838299560546147,10.069995117187318,0,13.909094238281796l13.908801269531978,13.908001708983647c3.838299560546147,3.839099121094478,10.070703124999454,3.839099121094478,13.908898925780704,0l58.118701171874818-58.117901611327397,58.118902587891171,58.117901611327397c3.838098144530704,3.839099121094478,10.069995117187318,3.839099121094478,13.909094238280886,0l13.907995605469296-13.908001708983647c3.839099121093568-3.839099121094478,3.839099121093568-10.070996093750182,0-13.909094238281796l-58.117895507813046-58.118902587890261,58.117895507813046-58.118701171874818c3.839099121093568-3.83819580078125,3.839099121093568-10.070593261719296,0-13.908898925781614l-13.907995605469296-13.908801269531068c-3.839099121093568-3.838293457031796-10.070996093750182-3.838293457031796-13.909094238280886,0l-58.118902587891171,58.118701171874818Z"/>
      <path class="cls-3" d="M99.857550563632685,72.182214725048652L41.738849391757867,14.063513553173834c-3.83819580078125-3.838293457031796-10.070599365234557-3.838293457031796-13.908898925780704,0l-13.908801269531978,13.908801269531068c-3.838299560546147,3.838305664062318-3.838299560546147,10.070703125000364,0,13.908898925781614l58.118701171875728,58.118701171874818-58.118701171875728,58.118902587890261c-3.838299560546147,3.838098144531614-3.838299560546147,10.069995117187318,0,13.909094238281796l13.908801269531978,13.908001708983647c3.838299560546147,3.839099121094478,10.070703124999454,3.839099121094478,13.908898925780704,0l58.118701171874818-58.117901611327397,58.118902587891171,58.117901611327397c3.838098144530704,3.839099121094478,10.069995117187318,3.839099121094478,13.909094238280886,0l13.907995605469296-13.908001708983647c3.839099121093568-3.839099121094478,3.839099121093568-10.070996093750182,0-13.909094238281796l-58.117895507813046-58.118902587890261,58.117895507813046-58.118701171874818c3.839099121093568-3.83819580078125,3.839099121093568-10.070593261719296,0-13.908898925781614l-13.907995605469296-13.908801269531068c-3.839099121093568-3.838293457031796-10.070996093750182-3.838293457031796-13.909094238280886,0l-58.118902587891171,58.118701171874818Z"/>
    </g>
  </g>
</svg>