<?xml version="1.0" encoding="UTF-8"?>
<svg id="Ebene_1" data-name="Ebene 1" xmlns="http://www.w3.org/2000/svg" viewBox="0 0 2000 2000">
  <defs>
    <style>
      .cls-1 {
        fill: #172d4d;
        stroke: #cfd8e5;
        stroke-miterlimit: 10;
        stroke-width: 60px;
      }
    </style>
  </defs>
  <path class="cls-1" d="M1677.423797383400597,457.605562805007139l-328.962808996609965-324.08924722921347c-25.271693328661058-41.882366641423687-71.229218109519934-70.043661737083312-123.449182359760016-70.043661737083312h-456.491397695941487c-50.592072102139355,0-95.306802217328368,26.432523197035152-121.026971828208843,66.166644585897302l-333.052015603911059,333.052015603914697c-14.731882395688444,14.731882395693901-14.731888261219865,38.616981213886902-.000013101009245,53.348870845064994l114.094422426089295,114.094534499890869c14.731885392720869,14.731899863710169,38.617004418871147,14.731905729236132,53.348897047080754.000013101014702l140.182376393469895-140.182376393462619c.881323195810182-.881323195816549,2.388248768469566-.257134186134863,2.388248768469566.989245030221355v460.533499896251669c0,33.312933377289482,27.256036399599907,60.568969776895756,60.568969776890299,60.568969776895756h623.4836795900992c33.312993685831316,0,60.569079428791156-27.256085742964387,60.569079428791156-60.569079428798432v-461.890624295911948c0-1.241351901610869,1.496545263449661-1.867793257866651,2.380839266899784-.996599445275024l139.776773240970215,137.706079105630124c14.841417498018927,14.621552384096503,38.725876347429221,14.443307754564557,53.34741789652071-.398120417938117l113.239814590429887-114.942775963010718c14.621529805339378-14.841416252133058,14.443281478150311-38.725851705806235-.398128840270147-53.347387534087829Z"/>
  <path class="cls-1" d="M1334.759548776770316,1933.010469088130776l209.250685772580255-71.953317592910025c16.712541168679309-5.746804499360223,25.602023064759123-23.953705339321459,19.855209756169643-40.666243478830438l-194.882518434589656-566.745663582740235v-125.029955064950627c0-17.672989601180234-14.326788785951067-31.999778387129481-31.999778387120386-31.999778387129481h-687.336595217839204c-17.672989601182053,0-31.9997783871313,14.326788785949248-31.9997783871313,31.999778387129481v133.627613533170006l-189.601743768440429,561.209544146729968c-5.656627555659725,16.743270967990611,3.330872616121269,34.901976566190569,20.074143540161458,40.558604251940778l209.635265464668919,70.824192711139403c16.743267096810087,5.656626392750695,34.901969161601301-3.33086820050994,40.55860109697096-20.074133424768661l178.766903662730329-529.138490101860953c1.687056702397967-4.99357888923987,6.370855953278806-8.355061067499264,11.641718353328542-8.355061067499264h212.331447535780171c5.246508965559769,0,9.914318911040027,3.330983439080228,11.62034874912024,8.292366161398604l181.419862438140626,527.595327404120326c5.746801996228896,16.71253544118008,23.953692548398976,25.602018578540083,40.666227825469832,19.855216105061118Z"/>
</svg>