<?xml version="1.0" encoding="UTF-8"?>
<svg id="Ebene_1" xmlns="http://www.w3.org/2000/svg" xmlns:xlink="http://www.w3.org/1999/xlink" viewBox="0 0 200 200">
  <defs>
    <style>
      .cls-1 {
        clip-path: url(#clippath-4);
      }

      .cls-2 {
        stroke: #fff;
        stroke-linejoin: round;
        stroke-width: 4.583700180053711px;
      }

      .cls-2, .cls-3 {
        fill: none;
      }

      .cls-4 {
        fill: #cfd8e5;
      }

      .cls-4, .cls-5, .cls-6 {
        fill-rule: evenodd;
      }

      .cls-5 {
        fill: #fff;
      }

      .cls-7 {
        clip-path: url(#clippath-1);
      }

      .cls-8 {
        clip-path: url(#clippath-3);
      }

      .cls-6 {
        fill: #172d4d;
      }

      .cls-9 {
        fill: url(#Unbenannter_Verlauf_2-2);
      }

      .cls-10 {
        clip-path: url(#clippath-2);
      }

      .cls-11 {
        clip-path: url(#clippath);
      }

      .cls-12 {
        fill: url(#Unbenannter_Verlauf_2);
      }
    </style>
    <clipPath id="clippath">
      <rect class="cls-3" x="-.000000000039108" y=".253665542631097" width="200" height="200"/>
    </clipPath>
    <clipPath id="clippath-1">
      <rect class="cls-3" x="-.000000000039108" y=".253665542631097" width="200" height="200"/>
    </clipPath>
    <clipPath id="clippath-2">
      <path class="cls-3" d="M67.320501708944903,41.073563003568779l-7.947302246093386,38.434704589843932c-7.61669921875,2.776696777343204-12.620599365234739,6.741101074218022-15.8927001953125,10.936499023437136-7.687899780273256,9.8572998046875-5.816299438476562,20.989697265625182-5.816299438476562,20.989697265625182l14.320700073241824,8.144299316406432-1.352301025390261,7.436303710936954-6.423498535155886,34.325799560547239,28.771801757811772,15.467298889159792,35.877703857422603-23.207099914550781,3.428198242187136-28.438299560546511,6.163598632812864-3.257299804688046,18.417993164061954,14.362097167969296,25.14080810546875-15.21929931640625-27.467004394530704-86.419696044921693-28.525195312500728-15.921496582031978-38.696502685546875,22.366491699219296Z"/>
    </clipPath>
    <linearGradient id="Unbenannter_Verlauf_2" data-name="Unbenannter Verlauf 2" x1="5306.170614487716193" y1="5886.345570392941227" x2="5307.170614487716193" y2="5886.345570392941227" gradientTransform="translate(-630765.256748272804543 -699668.232500295620412) scale(118.879518969245566)" gradientUnits="userSpaceOnUse">
      <stop offset="0" stop-color="#e8b33d"/>
      <stop offset="1" stop-color="#b77f00"/>
    </linearGradient>
    <clipPath id="clippath-3">
      <path class="cls-3" d="M67.320001220664381,41.073770523099483l-7.947399902343932,38.434594726562864c-7.61669921875,2.77679443359375-12.620602416992369,6.741198730468568-15.892602539062864,10.936596679687682-7.687899780273256,9.857305908202761-5.816299438476562,20.989703369140443-5.816299438476562,20.989703369140443l14.320700073242733,8.144299316406432-1.352398681640807,7.4364013671875-6.423501586914426,34.325799560546329,28.772000122070494,15.467199707031796,35.877606201172057-23.207000732421875,3.428198242187136-28.438299560547421,6.1636962890625-3.257397460936772,18.417895507812318,14.362097167968386,25.14080810546875-15.21929931640625-27.467004394530704-86.4197998046875-28.525097656250182-15.921496582031068-38.696600341796511,22.366601562499454Z"/>
    </clipPath>
    <linearGradient id="Unbenannter_Verlauf_2-2" data-name="Unbenannter Verlauf 2" x1="5272.217512550242645" y1="5826.518486848754947" x2="5273.217512550242645" y2="5826.518486848754947" gradientTransform="translate(-307855.589569063682575 -340221.957412182295229) scale(58.408756833427709)" xlink:href="#Unbenannter_Verlauf_2"/>
    <clipPath id="clippath-4">
      <rect class="cls-3" x="-.000000000039108" y=".253665542631097" width="200" height="200"/>
    </clipPath>
  </defs>
  <g class="cls-11">
    <g class="cls-7">
      <path class="cls-6" d="M99.724682617148574,1.357840347318415c54.61859130859375,0,98.89569091796875,44.277099609375,98.89569091796875,98.895697021484921,0,54.618597412109011-44.277099609375,98.895697021484011-98.89569091796875,98.895697021484011C45.106085205038653,199.149234390287347.828985595663653,154.872134780912347.828985595663653,100.253537368803336.828985595663653,45.634939956693415,45.106085205038653,1.357840347318415,99.724682617148574,1.357840347318415"/>
      <path class="cls-4" d="M99.724871826132585,10.947891616850029c49.322198486328489,0,89.305792236328671,39.983605957030704,89.305792236328671,89.305798339843932,0,49.32220458984375-39.983593750000182,89.305798339843022-89.305792236328671,89.305798339843022-49.322198486327579,0-89.305798339843932-39.983593749999272-89.305798339843932-89.305798339843022C10.419073486288653,50.931497573880733,50.402673339805006,10.947891616850029,99.724871826132585,10.947891616850029"/>
    </g>
    <g class="cls-10">
      <rect class="cls-12" x="9.412104686224353" y=".047257521991583" width="178.97756980227922" height="195.420735352802467" transform="translate(-30.876912648442783 47.801031114676128) rotate(-23.613234165654205)"/>
    </g>
    <g class="cls-8">
      <rect class="cls-9" x="14.138586987368242" y="2.874432078117763" width="169.523617956338398" height="189.766700571605156" transform="translate(-25.720083495533743 36.051960647128922) rotate(-18.324797295761655)"/>
    </g>
    <g class="cls-1">
      <path class="cls-5" d="M105.987023925742506,17.690140152006279c-.166101074219114.004797363280886-.331298828125.050195312499454-.479296875000728.135998535156432l-24.194000244140625,13.983996582031068-14.433398437499818,8.260107421874636c-.186700439452579.106799316406068-.331298828125.267895507812682-.418499755859557.456994628906614-.065600585937318.103002929687136-.112902832031068.218103027343204-.138201904296693.340405273437682l-7.833099365234375,37.882800292968568c-7.538796997069767,2.846789550781068-12.522497558593386,6.85009765625-15.812799072265079,11.068688964843204-7.977099609375728,10.228100585937682-6.017199707031978,21.784002685547421-6.017199707031978,21.784002685547421.050604248047421.301300048828125.234399414062864.564996337890079.500299072265989.715997314452579l13.693502807616824,7.787701416015807-1.152801513671875,6.338696289062682-6.630300903319949,34.624200439453489c-.083599853515807.435803222655522.126000976562864.877307128906068.5177001953125,1.087597656249272l.047698974609375.025598144531614c.028900146484375.019702148437318.058905029296511.037109375.090203857422239.05450439453125l27.627294921874636,16.154296875c.312603759765807.167407226562318.687799072265989.159509277344114.991101074218932-.015795898437318.046899414061954-.026403808594296.091302490233829-.056201171874818.132897949218204-.089501953125364l37.886193847656614-24.086096191405886c.225610351562864-.160699462890989.37530517578125-.405902099609193.416711425781614-.679101562500364l2.436999511718568-27.69940185546875,5.132800292968568-2.713598632812136,4.292993164062864,3.025201416015079,13.6343994140625,10.963598632813046c.3302001953125.234301757812318.767407226561772.251000976561954,1.114306640624818.042303466796511l24.122802734375-15.447601318359375c.396594238281068-.238500976562136.582995605468568-.715399169921511.451989746093204-1.158898925780704l-26.449792480468204-86.191192626953125-.014807128906796-.0487060546875-.018298339843568-.046899414062864-.019396972656068-.045800781250364-.021801757812682-.04449462890625-.024096679687318-.043005371093386-.02630615234375-.04150390625-.027600097656432-.040197753905886-.029797363281432-.038598632812864-.030993652343568-.03729248046875-.033410644530704-.035803222655886-.034399414063046-.0343017578125-.044897460937136-.039099121094296-.05059814453125-.039306640625-.041394042968932-.028588867186954-.046105957031614-.028601074219296-27.806201171874818-16.19500732421875c-.313195800780704-.182995605468932-.701904296875-.184497070312318-1.016394042968386-.003894042968568l-.244006347656068.139599609375182ZM45.346630859336074,160.791128921537165l6.285498046874636-33.588299560547057.069598388671693-.382800292968568,1.083001708984739-5.655895996093932,10.610601806640261,5.687701416016353c.277697753906978.148699951171693.608599853516353.160394287108829.896099853515807.032299804686772.287500000000364-.129302978515625.499298095703125-.383502197265443.573498535156432-.690100097655886,0,0,3.284497070312682-13.399401855468568,18.277795410156614-13.283502197265989h-.000097656250546s-9.48089599609375,54.161700439453853-11.110797119140443,63.472894287109739l-26.685198974609193-15.592297363281432ZM133.928930664023028,36.151639175443961l-38.171301269530886,21.845202636718568-6.99530029296875,36.366796874999636c-.089501953125364.46539306640625-.487701416015625.8052978515625-.957299804687864.82440185546875l-.045703124999818.00079345703125-.048498535155886-.000195312500182c-.910101318359921.127795410156978-11.773901367188046,1.840197753906978-18.1697998046875,11.582495117188046-2.310797119141171,3.519696044922057-4.029998779296875,8.083197021484011-4.507098388671693,13.986096191406432,2.671801757812318-4.521600341797239,8.302697753905704-10.420397949219478,19.366400146484011-9.843597412109375.290997314453307.014898681640261.561297607421693.154400634764897.742895507812136.382397460936772.181500244140807.227899169922239.256604003906432.52239990234375.206402587890807.809503173828489l-10.927398681640625,62.653295898437136,34.408398437500182-21.963800048827579,2.44879150390625-27.780096435547421c.047399902343386-.320599365233647.2445068359375-.600201416014897.531201171875182-.75140380859375l6.132800292968568-3.241595458984193,11.927001953125-6.976202392577761c.269506835937136-.158197021484739.597204589843386-.182299804687318.887499999999818-.068096923828307.290307617187864.11529541015625.511999511719296.3572998046875.602001953125182.656396484375364l5.971105957030886,20.1676025390625,22.462292480468932-14.448999023437864-25.864392089843932-84.200994873046511ZM120.323327636680006,121.988528823881097l9.45489501953125-5.530694580078489,5.045800781249454,16.819494628906796-11.003991699218204-8.804296875000546-3.4967041015625-2.484503173827761ZM68.059326171835892,42.523135757474847l-7.690100097655886,37.191198730468386c-.071496582031614.345202636719478-.316595458984921.629003906250546-.647900390625182.749804687500728-7.395397949218932,2.696191406249454-12.261996459960756,6.533093261718022-15.438894653320858,10.606591796874454-6.486703491210392,8.317004394531068-5.91540222167896,17.57330322265625-5.67590026855396,19.729901123047057l13.880999755859193,7.893402099609375.038800048828307.023199462890261,10.339599609375,5.541400146485103c-.021099853515807-8.129199218750728,2.048797607421875-14.1488037109375,4.973901367186954-18.604302978515989,6.247894287109375-9.516497802734193,16.452893066406432-11.922198486327943,19.062493896484739-12.393890380859375l6.877899169921875-35.756799316406614-25.720898437500182-14.980505371093386ZM95.217230224569903,55.961331558256461l37.256793212891353-21.321691894531796-26.329394531250728-14.695605468749818-23.816302490234193,13.630102539062136-12.844097900390807,7.423901367187682,25.658001708984557,14.944104003906432c.025396728516171.0054931640625.050494384765443.011999511718386.074999999999818.019189453125364"/>
      <path class="cls-2" d="M105.987023925742506,17.690140152006279c-.166101074219114.004797363280886-.331298828125.050195312499454-.479296875000728.135998535156432l-24.194000244140625,13.983996582031068-14.433398437499818,8.260107421874636c-.186700439452579.106799316406068-.331298828125.267895507812682-.418499755859557.456994628906614-.065600585937318.103002929687136-.112902832031068.218103027343204-.138201904296693.340405273437682l-7.833099365234375,37.882800292968568c-7.538796997069767,2.846789550781068-12.522497558593386,6.85009765625-15.812799072265079,11.068688964843204-7.977099609375728,10.228100585937682-6.017199707031978,21.784002685547421-6.017199707031978,21.784002685547421.050604248047421.301300048828125.234399414062864.564996337890079.500299072265989.715997314452579l13.693502807616824,7.787701416015807-1.152801513671875,6.338696289062682-6.630300903319949,34.624200439453489c-.083599853515807.435803222655522.126000976562864.877307128906068.5177001953125,1.087597656249272l.047698974609375.025598144531614c.028900146484375.019702148437318.058905029296511.037109375.090203857422239.05450439453125l27.627294921874636,16.154296875c.312603759765807.167407226562318.687799072265989.159509277344114.991101074218932-.015795898437318.046899414061954-.026403808594296.091302490233829-.056201171874818.132897949218204-.089501953125364l37.886193847656614-24.086096191405886c.225610351562864-.160699462890989.37530517578125-.405902099609193.416711425781614-.679101562500364l2.436999511718568-27.69940185546875,5.132800292968568-2.713598632812136,4.292993164062864,3.025201416015079,13.6343994140625,10.963598632813046c.3302001953125.234301757812318.767407226561772.251000976561954,1.114306640624818.042303466796511l24.122802734375-15.447601318359375c.396594238281068-.238500976562136.582995605468568-.715399169921511.451989746093204-1.158898925780704l-26.449792480468204-86.191192626953125-.014807128906796-.0487060546875-.018298339843568-.046899414062864-.019396972656068-.045800781250364-.021801757812682-.04449462890625-.024096679687318-.043005371093386-.02630615234375-.04150390625-.027600097656432-.040197753905886-.029797363281432-.038598632812864-.030993652343568-.03729248046875-.033410644530704-.035803222655886-.034399414063046-.0343017578125-.044897460937136-.039099121094296-.05059814453125-.039306640625-.041394042968932-.028588867186954-.046105957031614-.028601074219296-27.806201171874818-16.19500732421875c-.313195800780704-.182995605468932-.701904296875-.184497070312318-1.016394042968386-.003894042968568l-.244006347656068.139599609375182ZM45.346630859336074,160.791128921537165l6.285498046874636-33.588299560547057.069598388671693-.382800292968568,1.083001708984739-5.655895996093932,10.610601806640261,5.687701416016353c.277697753906978.148699951171693.608599853516353.160394287108829.896099853515807.032299804686772.287500000000364-.129302978515625.499298095703125-.383502197265443.573498535156432-.690100097655886,0,0,3.284497070312682-13.399401855468568,18.277795410156614-13.283502197265989h-.000097656250546s-9.48089599609375,54.161700439453853-11.110797119140443,63.472894287109739l-26.685198974609193-15.592297363281432ZM133.928930664023028,36.151639175443961l-38.171301269530886,21.845202636718568-6.99530029296875,36.366796874999636c-.089501953125364.46539306640625-.487701416015625.8052978515625-.957299804687864.82440185546875l-.045703124999818.00079345703125-.048498535155886-.000195312500182c-.910101318359921.127795410156978-11.773901367188046,1.840197753906978-18.1697998046875,11.582495117188046-2.310797119141171,3.519696044922057-4.029998779296875,8.083197021484011-4.507098388671693,13.986096191406432,2.671801757812318-4.521600341797239,8.302697753905704-10.420397949219478,19.366400146484011-9.843597412109375.290997314453307.014898681640261.561297607421693.154400634764897.742895507812136.382397460936772.181500244140807.227899169922239.256604003906432.52239990234375.206402587890807.809503173828489l-10.927398681640625,62.653295898437136,34.408398437500182-21.963800048827579,2.44879150390625-27.780096435547421c.047399902343386-.320599365233647.2445068359375-.600201416014897.531201171875182-.75140380859375l6.132800292968568-3.241595458984193,11.927001953125-6.976202392577761c.269506835937136-.158197021484739.597204589843386-.182299804687318.887499999999818-.068096923828307.290307617187864.11529541015625.511999511719296.3572998046875.602001953125182.656396484375364l5.971105957030886,20.1676025390625,22.462292480468932-14.448999023437864-25.864392089843932-84.200994873046511ZM120.323327636680006,121.988528823881097l9.45489501953125-5.530694580078489,5.045800781249454,16.819494628906796-11.003991699218204-8.804296875000546-3.4967041015625-2.484503173827761ZM68.059326171835892,42.523135757474847l-7.690100097655886,37.191198730468386c-.071496582031614.345202636719478-.316595458984921.629003906250546-.647900390625182.749804687500728-7.395397949218932,2.696191406249454-12.261996459960756,6.533093261718022-15.438894653320858,10.606591796874454-6.486703491210392,8.317004394531068-5.91540222167896,17.57330322265625-5.67590026855396,19.729901123047057l13.880999755859193,7.893402099609375.038800048828307.023199462890261,10.339599609375,5.541400146485103c-.021099853515807-8.129199218750728,2.048797607421875-14.1488037109375,4.973901367186954-18.604302978515989,6.247894287109375-9.516497802734193,16.452893066406432-11.922198486327943,19.062493896484739-12.393890380859375l6.877899169921875-35.756799316406614-25.720898437500182-14.980505371093386ZM95.217230224569903,55.961331558256461l37.256793212891353-21.321691894531796-26.329394531250728-14.695605468749818-23.816302490234193,13.630102539062136-12.844097900390807,7.423901367187682,25.658001708984557,14.944104003906432c.025396728516171.0054931640625.050494384765443.011999511718386.074999999999818.019189453125364Z"/>
    </g>
  </g>
</svg>