<?xml version="1.0" encoding="UTF-8"?>
<svg id="Ebene_1" xmlns="http://www.w3.org/2000/svg" viewBox="0 0 199.999999999998181 200">
  <defs>
    <style>
      .cls-1 {
        fill: #172d4d;
      }

      .cls-2 {
        fill: #cfd8e5;
      }

      .cls-3 {
        fill: #e5bd73;
      }
    </style>
  </defs>
  <path class="cls-2" d="M29.355310305518287,25.851219255320757S40.882029628248347-2.12042039661992,75.508049923088038,8.82486844036066c34.626020294850605,10.945288836989675,21.41615659593117,52.255835127779392,16.698040035111262,61.86994452485942s-16.167279762250473,41.447606480390277-16.167279762250473,41.447606480390277c0,0-22.415865839029721,25.619796076450257-48.030647532959847,13.531054591489919C2.393380969058853,113.584732552140849,5.121267076519871,86.738565830200059,8.016084060978756,79.317203859050096c2.894816984458885-7.421361971159968,21.339226244539532-53.465984603729339,21.339226244539532-53.465984603729339Z"/>
  <path class="cls-3" d="M69.4363875537274,25.493551922520055l5.853185615820621-16.108580691879979S43.621858876758779.467158811030458,30.889331333119117,24.224567858990667c-12.732527543630567,23.757409047969304-16.595642289910757,39.236994137439979-16.595642289910757,39.236994137439979,0,0,32.887113639750169.889651187409982,37.728109873909489,5.574356398559758l5.898872345689597-15.122775337439634s-5.144769373438976-2.876280078420677-4.221978765788663-6.27166311693054,6.345710879329999-25.918970501129479,15.737695056708617-22.147928018100174Z"/>
  <path class="cls-1" d="M76.723056175578677,7.056301153270397c-10.0654296875-3.9267578125-21.08984375-3.62060546875-31.0361328125.86181640625-9.943359375,4.48046875-17.623046875,12.5966796875-21.62109375,22.8486328125l-.0400390625.1005859375.0048828125.001953125-.04833984375.1240234375-.00341796875-.00048828125.0029296875.00146484375-.0400390625.1025390625-.00390625-.0009765625.00390625.001953125-.04052734375.1025390625-.00341796875-.0009765625-.1943359375.49365234375.0048828125.001953125-.044921875.115234375-.0029296875-.00048828125-.04296875.107421875.00341796875.00146484375-.03857421875.09912109375-.00390625-.00146484375-.05078125.12939453125.00390625.001953125-.0400390625.103515625-.0029296875-.0009765625.00244140625.0009765625-.044921875.1162109375-.00341796875-.0009765625-.1728515625.443359375.0029296875.00146484375-.046875.11962890625-.0029296875-.0009765625-.0517578125.12890625.00439453125.001953125-.0439453125.11181640625-.00244140625-.00048828125-.103515625.26025390625.00390625.00146484375-.046875.1201171875-.0029296875-.00048828125-.0380859375.09619140625.00341796875.00146484375-.04150390625.1064453125-.00390625-.0009765625-.091796875.23876953125.00244140625.0009765625-.04736328125.12109375-.0029296875-.0009765625c-.0146484375.03271484375-.0263671875.0654296875-.0517578125.12939453125l.00390625.00146484375-.04296875.1103515625-.001953125-.00048828125-.1044921875.26171875.00390625.00146484375-.041015625.1044921875-.001953125-.00048828125-.1796875.45947265625.00244140625.0009765625-.04052734375.1044921875-.0029296875-.0009765625-.0390625.09814453125.0029296875.00146484375-.0419921875.10888671875-.00390625-.0009765625-.048828125.1240234375.00390625.00146484375-.0478515625.1220703125-.0029296875-.00048828125-.095703125.24169921875.00390625.00146484375-.04248046875.10888671875-.00146484375-.00048828125-.0966796875.24169921875.00341796875.00146484375-.04833984375.1240234375-.001953125-.00048828125-.0458984375.115234375.0029296875.0009765625-.03759765625.095703125-.00244140625-.00048828125-.0537109375.1337890625.00390625.00146484375-.0498046875.12646484375-.0029296875-.00048828125.0029296875.00146484375-.04248046875.1083984375-.00244140625-.00048828125-.0517578125.12890625.00341796875.00146484375-.044921875.115234375-.00146484375-.00048828125-.095703125.240234375.0029296875.00146484375-.04736328125.12158203125-.00146484375-.00048828125-.1357421875.34228515625.00341796875.00146484375-.04736328125.12158203125-.0029296875-.00048828125.00244140625.0009765625-.0361328125.09326171875-.00244140625-.00048828125.001953125.0009765625-.037109375.095703125-.0029296875-.0009765625.0029296875.00146484375-.0400390625.10107421875-.001953125-.00048828125-.1259765625.3212890625.0029296875.0009765625-.04248046875.10791015625-.00146484375-.00048828125-.0986328125.2470703125.00341796875.00146484375-.04638671875.119140625-.001953125-.00048828125-.09765625.2451171875.00341796875.00146484375-.05029296875.12890625-.001953125-.00048828125-.0400390625.1015625.001953125.0009765625-.037109375.095703125-.001953125-.00048828125-.1943359375.494140625.0029296875.00146484375-.0458984375.1171875h-.0009765625l-.0986328125.24658203125.0029296875.00146484375-.05078125.13037109375-.001953125-.00048828125-.0380859375.09716796875.001953125.0009765625-.04052734375.103515625-.00244140625-.00048828125-.333984375.8544921875.0029296875.0009765625-.05029296875.12939453125-.00146484375-.00048828125-.5048828125,1.29345703125c-.0146484375.033203125-.0263671875.0654296875-.052734375.13671875l.0009765625.00048828125-.04345703125.1103515625h-.00048828125l-.0419921875.10498046875.00146484375.00048828125-.04052734375.103515625-.0009765625-.00048828125-.3369140625.859375.00244140625.0009765625-.046875.11962890625h-.00048828125l-.1328125.33642578125.001953125.0009765625-.04052734375.103515625h-.00048828125l-.0458984375.1162109375.0009765625.00048828125-.037109375.09521484375-.001953125-.00048828125.001953125.0009765625-.0419921875.1064453125-.0009765625-.00048828125c-.0126953125.029296875-.0234375.05859375-.0224609375.05859375,0,0,.0009765625-.001953125.0029296875-.00537109375l-.1015625.25439453125.001953125.0009765625-.0458984375.1171875h0l-.0986328125.24658203125.001953125.0009765625-.04443359375.11474609375h-.00048828125l-.099609375.24951171875.001953125.0009765625-.04931640625.126953125h-.00048828125l-.0380859375.095703125.0009765625.00048828125-.04443359375.11328125h-.00048828125l-.0478515625.11865234375.001953125.0009765625-.0439453125.11181640625h0l-.04296875.1083984375.0009765625.00048828125-.037109375.09423828125-.0009765625-.00048828125-.087890625.22412109375.00146484375.00048828125-.04833984375.12451171875-.1015625.25341796875.001953125.0009765625-.04638671875.11962890625h-.00048828125l-.0380859375.09716796875h.00048828125l-.04150390625.10595703125-.0009765625-.00048828125-.1416015625.365234375c-.0146484375.03271484375-.0263671875.0654296875-.0498046875.1240234375l.00146484375.00048828125-.0556640625.142578125-.09033203125.2275390625.00146484375.00048828125-.0712890625.18310546875-.15869140625.404296875.00048828125.00048828125-.04052734375.1044921875-.0009765625-.00048828125-.1953125.498046875.00146484375.00048828125-.12060546875.30908203125h0l-.0380859375.09716796875h.00048828125l-.041015625.1044921875h-.00048828125l-.12109375.3115234375-.05029296875.12939453125h-.00048828125.00048828125l-.04345703125.11083984375h0l-.0478515625.1201171875.0009765625.00048828125-.109375.28076171875-.037109375.0927734375h.00048828125l-.08203125.21044921875-.00146484375.00390625h0l-.044921875.11572265625-.04296875.10791015625.00048828125.00048828125-.095703125.2451171875c-.0029296875.0068359375-.0087890625.02001953125-.00830078125.02001953125,0,0,.0009765625-.00341796875.0048828125-.01123046875l-.00146484375.00341796875-.1611328125.4130859375-.03076171875.07763671875h.00048828125l-.1123046875.28759765625-.03076171875.07763671875h.00048828125l-.08642578125.2216796875h0l-.19140625.48974609375-.1845703125.470703125.0009765625.00048828125-.5390625,1.38134765625-.13671875.34912109375h.00048828125l-.3828125.9814453125-.00537109375.0126953125h0l-.142578125.3662109375-.00390625.00927734375h0l-.30517578125.7822265625-.01708984375.04345703125h0l-.28466796875.7294921875-.00048828125.00146484375h0l-6.7724609375,17.353515625.00390625.00146484375c-8.25,21.17724609375,1.93017578125,44.99072265625,22.69921875,53.09228515625,4.7255859375,1.84326171875,9.59765625,2.71728515625,14.404296875,2.716796875,16.3232421875,0,31.875-10.07666015625,38.2646484375-26.4609375l.0791015625-.20361328125.0185546875.0068359375,17.8232421875-45.669921875-.0283203125-.0107421875c8.1455078125-21.140625-2.03125-44.86279296875-22.7529296875-52.94482421875ZM77.392001488078677,13.298976934520397c16.2265625,7.95263671875,23.677734375,27.42333984375,17.0126953125,44.72314453125l-.0068359375-.0029296875-10.9384765625,28.02783203125c-7.12109375-7.298828125-16.7607421875-13.7216796875-27.3408203125-18.20751953125l3.9296875-10.07666015625c4.5966796875.4208984375,8.888671875-2.208984375,10.5908203125-6.5732421875l.1767578125-.45263671875c.0009765625-.00341796875.0029296875-.0068359375.00390625-.01025390625l.26171875-.6748046875h.001953125l.1767578125-.45361328125c.0009765625-.00439453125.0029296875-.0087890625.0048828125-.0126953125l.0966796875-.24755859375c.013671875-.03076171875.0224609375-.05419921875.0234375-.060546875l.140625-.36669921875.001953125.00048828125.1767578125-.4521484375c.0009765625-.00439453125.0029296875-.00830078125.0048828125-.0126953125l.0966796875-.2470703125c.013671875-.03125.0224609375-.0546875.0234375-.060546875l.140625-.3671875.001953125.00048828125.146484375-.37744140625.0009765625.00048828125.0234375-.0615234375c.00390625-.00830078125.0068359375-.0166015625.009765625-.02490234375l.26171875-.67626953125.001953125.0009765625.1474609375-.37841796875c.0009765625-.00341796875.0029296875-.0068359375.00390625-.009765625l.2568359375-.66259765625.001953125.00048828125.4423828125-1.14111328125.001953125.00048828125.9111328125-2.3349609375c.0009765625-.00390625.0029296875-.0078125.00390625-.01220703125l.4404296875-1.12841796875c.001953125-.00390625.0029296875-.0078125.0048828125-.01171875l.0654296875-.17041015625c.0048828125-.01123046875.0107421875-.0234375.015625-.037109375l.2861328125-.7333984375c.001953125-.0048828125.0029296875-.0087890625.00390625-.01123046875l.140625-.3623046875c.0048828125-.009765625.0087890625-.01953125.013671875-.03076171875l.0966796875-.25v.00048828125l.193359375-.49658203125c.0029296875-.00537109375.0048828125-.01123046875.0068359375-.01708984375l.10546875-.2705078125c.0068359375-.01513671875.0126953125-.02978515625.0166015625-.04296875l.00390625-.009765625c.0009765625-.001953125.0009765625-.00341796875.001953125-.0048828125l.3095703125-.7919921875c.001953125-.00634765625.00390625-.01220703125.0068359375-.0185546875l.1025390625-.2626953125c.0087890625-.01953125.015625-.0361328125.0185546875-.04638671875l.3212890625-.82373046875c1.6943359375-4.34716796875.314453125-9.18994140625-3.3505859375-11.9892578125l4.40234375-11.287109375ZM56.359774925578677,45.713039434520397l-.0029296875-.0009765625.0400390625-.10205078125.0029296875.00048828125-.0029296875-.00146484375.044921875-.1142578125.0029296875.0009765625.087890625-.224609375-.00341796875-.00146484375.03662109375-.09375.0029296875.0009765625.04296875-.1103515625-.00244140625-.0009765625.03759765625-.09619140625.0029296875.00048828125.041015625-.10498046875-.0029296875-.00146484375.03857421875-.09814453125.00244140625.00048828125.0751953125-.19091796875-.0029296875-.00146484375.0400390625-.1025390625.0029296875.0009765625.041015625-.1064453125-.00244140625-.0009765625.03759765625-.095703125.0029296875.00048828125.087890625-.2236328125-.00341796875-.00146484375.03662109375-.0947265625.0029296875.0009765625.091796875-.23583984375-.00244140625-.0009765625.044921875-.1142578125.00244140625.00048828125.0908203125-.2333984375-.001953125-.0009765625.04541015625-.11669921875.00244140625.00048828125.087890625-.224609375-.00244140625-.0009765625.03857421875-.0986328125.001953125.00048828125-.001953125-.0009765625.04443359375-.11376953125.00244140625.00048828125.046875-.1181640625-.0029296875-.00146484375.04541015625-.11669921875.00244140625.00048828125-.001953125-.0009765625.04443359375-.11376953125.00244140625.00048828125-.00244140625-.0009765625.04541015625-.1171875.0029296875.0009765625.1826171875-.4697265625-.001953125-.0009765625.04443359375-.11376953125.00244140625.00048828125-.001953125-.0009765625.044921875-.1162109375.0029296875.00048828125.04296875-.11083984375-.00244140625-.0009765625.03759765625-.095703125.001953125.00048828125-.001953125-.0009765625.04443359375-.11376953125.00244140625.00048828125.12109375-.310546875-.001953125-.0009765625.0390625-.10107421875.0029296875.0009765625.041015625-.10595703125-.00244140625-.0009765625.03857421875-.09814453125.001953125.00048828125-.001953125-.0009765625.04443359375-.11376953125.00244140625.00048828125.04296875-.10986328125-.00244140625-.0009765625.03857421875-.09912109375.001953125.00048828125-.001953125-.0009765625.044921875-.11376953125.001953125.00048828125.0478515625-.12109375-.00244140625-.0009765625.04150390625-.10693359375.001953125.00048828125.083984375-.21435546875-.001953125-.0009765625.04345703125-.111328125.00244140625.00048828125.04296875-.1103515625-.001953125-.0009765625.0361328125-.09375.001953125.00048828125-.00146484375-.00048828125.04443359375-.11474609375.001953125.00048828125.087890625-.224609375-.001953125-.0009765625.0380859375-.09814453125.001953125.00048828125.1318359375-.3369140625-.001953125-.0009765625.03857421875-.0986328125.00146484375.00048828125.04296875-.1103515625-.00146484375-.00048828125.03759765625-.0966796875.001953125.00048828125-.00146484375-.00048828125.04443359375-.11376953125.001953125.00048828125.04296875-.11083984375-.001953125-.00048828125.03857421875-.0986328125.00146484375.00048828125-.00146484375-.00048828125.04443359375-.1142578125.001953125.00048828125.0869140625-.22265625-.001953125-.00048828125.03759765625-.09619140625.00146484375.00048828125.1357421875-.34619140625-.001953125-.0009765625.03662109375-.09423828125.00146484375.00048828125.0419921875-.10791015625-.0009765625-.00048828125.0361328125-.09375.001953125.00048828125-.00146484375-.00048828125.04443359375-.1142578125.001953125.00048828125.04296875-.11083984375-.00146484375-.00048828125.04443359375-.11474609375.001953125.00048828125-.001953125-.0009765625.041015625-.10498046875.001953125.00048828125-.00146484375-.0009765625.04443359375-.1142578125.001953125.00048828125.041015625-.10546875-.00146484375-.00048828125.03662109375-.09423828125.0009765625.00048828125.046875-.1181640625-.001953125-.0009765625.044921875-.11474609375.001953125.00048828125.04296875-.1103515625-.00146484375-.00048828125.03662109375-.09423828125.0009765625.00048828125.0419921875-.107421875-.0009765625-.00048828125.03857421875-.099609375.00146484375.00048828125.0859375-.22021484375-.0009765625-.00048828125.041015625-.10546875.0009765625.00048828125-.0009765625-.00048828125.04345703125-.1123046875.00146484375.00048828125.0400390625-.10302734375-.0009765625-.00048828125.03955078125-.1015625.00146484375.00048828125.0419921875-.10791015625-.00146484375-.00048828125.03662109375-.09326171875h.0009765625l.04296875-.1103515625-.0009765625-.00048828125.03759765625-.09619140625.00146484375.00048828125-.00146484375-.00048828125.044921875-.11474609375.00146484375.00048828125.0419921875-.1083984375-.0009765625-.00048828125.037109375-.09619140625.0009765625.00048828125.037109375-.0947265625-.0009765625-.00048828125.04345703125-.11181640625.00146484375.00048828125.0869140625-.22314453125-.0009765625-.00048828125.0380859375-.09765625h.0009765625l.0419921875-.1083984375h-.00048828125l.03662109375-.09375h.0009765625l.0888671875-.22705078125-.00146484375-.00048828125.04736328125-.1201171875h.0009765625l.08984375-.23046875-.0009765625-.00048828125.03662109375-.09375h.00048828125l.046875-.11767578125-.00146484375-.00048828125.044921875-.115234375.00146484375.00048828125.04296875-.11083984375-.0009765625-.00048828125.03662109375-.09375h.00048828125l.091796875-.2353515625h-.00048828125l.044921875-.11474609375h.00048828125l.0478515625-.12158203125-.0009765625-.00048828125.04296875-.109375.0009765625.00048828125.0927734375-.23779296875-.0009765625-.00048828125.044921875-.115234375.0009765625.00048828125.04296875-.1103515625-.0009765625-.00048828125.03662109375-.09375h.00048828125l.0419921875-.10791015625h-.00048828125l.0390625-.09912109375h.00048828125-.00048828125l.03857421875-.10009765625c1.00244140625-2.490234375,3.8525390625-3.72412109375,6.357421875-2.7470703125,2.458984375.95947265625,3.7275390625,3.74609375,2.81982421875,6.30322265625l-5.75537109375,14.748046875.0068359375.00244140625-.01953125.0498046875c-1.017578125,2.45751953125-3.861328125,3.66943359375-6.337890625,2.703125-2.49609375-.9736328125-3.7626953125-3.80615234375-2.822265625-6.31396484375ZM75.969149925578677,37.519680059520397v.00048828125c-.00390625.009765625-.0078125.01904296875-.01171875.02880859375l.001953125-.0078125.009765625-.021484375ZM75.954501488078677,37.550930059520397c-.001953125.0048828125-.0029296875.00927734375-.00390625.013671875l-.0048828125-.00146484375.0009765625-.0009765625.001953125.0009765625.005859375-.01220703125ZM75.524813988078677,38.658840215770397v.00048828125c-.00390625.00927734375-.0068359375.0185546875-.01171875.02783203125l.001953125-.00830078125.009765625-.02001953125ZM75.508212425578677,38.695949590770397c-.001953125.00439453125-.0029296875.0087890625-.0048828125.01318359375l-.0087890625.017578125.013671875-.03076171875ZM75.491610863078677,38.743801153270397c-.0009765625.00244140625-.001953125.0048828125-.0029296875.0068359375l.0009765625-.00244140625.001953125-.00439453125ZM75.083407738078677,39.790187872020397c-.0009765625.00341796875-.001953125.00634765625-.0029296875.00927734375h-.0009765625l.00390625-.00927734375ZM72.004306175578677,11.197414434520397l-4.40234375,11.287109375c-4.5625-.41845703125-8.814453125,2.16748046875-10.5439453125,6.466796875l-.0126953125-.0048828125-2.271484375,5.82080078125-.0087890625-.00146484375-.0498046875.1513671875-3.44287109375,8.8212890625.0126953125.00537109375c-1.6513671875,4.32861328125-.26953125,9.13330078125,3.37548828125,11.91748046875l-3.9326171875,10.0830078125c-9.521484375-3.36669921875-19.171875-5.1015625-28.2587890625-5.1015625-1.4365234375,0-2.8583984375.04345703125-4.2626953125.13037109375l.0341796875-.08740234375-.00390625-.001953125.04541015625-.1162109375.00439453125.0009765625-.00390625-.001953125.04736328125-.1220703125.00341796875.0009765625.0498046875-.125-.00390625-.001953125.04345703125-.11181640625.00439453125.0009765625-.00390625-.001953125.04150390625-.1064453125.00537109375.001953125.099609375-.25927734375-.00390625-.001953125.04150390625-.10595703125.00537109375.001953125.09765625-.25439453125-.00390625-.001953125.05126953125-.130859375.00244140625.0009765625.06640625-.16162109375-.00537109375-.001953125.04150390625-.10595703125.0029296875.00048828125.078125-.1953125-.00439453125-.001953125.04541015625-.11669921875.0048828125.0009765625-.00439453125-.001953125.0419921875-.107421875.00341796875.0009765625.0771484375-.1953125-.00390625-.001953125.03759765625-.09765625.00537109375.001953125.244140625-.62841796875-.00390625-.001953125.03955078125-.10205078125.00537109375.001953125.0791015625-.20361328125-.0029296875-.0009765625.060546875-.150390625-.00341796875-.00146484375.0673828125-.1728515625.00341796875.0009765625.046875-.11669921875-.00439453125-.001953125.0390625-.099609375.00244140625.00048828125c.0205078125-.04443359375.037109375-.08837890625.0361328125-.091796875l.0625-.158203125c.0107421875-.025390625.0205078125-.05126953125.0302734375-.0771484375l.0205078125-.05126953125-.00390625-.00146484375.0537109375-.1376953125.00390625.0009765625-.00390625-.00146484375.04150390625-.10595703125.00439453125.0009765625-.00390625-.00146484375.04150390625-.10693359375.00244140625.00048828125.095703125-.24267578125-.0029296875-.00146484375.041015625-.10546875.00390625.00146484375.1025390625-.26513671875-.0029296875-.00146484375.03955078125-.10107421875.00439453125.00146484375.103515625-.267578125-.00341796875-.001953125.03759765625-.09716796875.0048828125.00146484375.2421875-.62548828125-.0029296875-.0009765625.03662109375-.09375.00341796875.00048828125.17578125-.45361328125-.001953125-.00048828125.0380859375-.0986328125.00390625.0009765625-.00341796875-.00146484375.03759765625-.09716796875.0048828125.0009765625-.00439453125-.001953125.04150390625-.10546875.001953125.00048828125.09765625-.248046875-.0029296875-.00146484375.03955078125-.10107421875.00439453125.00146484375.1044921875-.271484375-.0029296875-.00146484375.04296875-.10986328125.001953125.00048828125.09765625-.2470703125-.0029296875-.00146484375.0400390625-.10205078125.00390625.00146484375.1357421875-.35205078125-.00244140625-.0009765625.04052734375-.103515625.00390625.0009765625.037109375-.09716796875-.0029296875-.0009765625.0390625-.1015625.001953125.00048828125c.0166015625-.03564453125.0302734375-.0712890625.029296875-.0712890625,0,0-.0009765625.001953125-.0029296875.00634765625l-.00244140625-.0009765625.04345703125-.11181640625.0009765625.00048828125.1005859375-.2529296875-.00244140625-.00146484375.04541015625-.11669921875.001953125.00048828125.099609375-.2509765625-.0029296875-.00146484375.0380859375-.09814453125.00390625.00146484375.099609375-.25927734375-.00244140625-.00146484375.04150390625-.10595703125.00390625.00146484375-.00390625-.00146484375.04150390625-.10693359375.00146484375.00048828125.0712890625-.18212890625c.0205078125-.04443359375.037109375-.08837890625.0625-.15625l-.00244140625-.00146484375.04541015625-.1162109375.0009765625.00048828125.0625-.15625-.00244140625-.0009765625.03955078125-.10107421875.0029296875.0009765625.1025390625-.26416015625-.00244140625-.0009765625.03955078125-.1015625.0029296875.0009765625-.0029296875-.0009765625.03955078125-.1015625h.00048828125l.07421875-.1875c.0166015625-.0361328125.0302734375-.072265625.0302734375-.072265625-.0009765625,0-.0009765625.001953125-.0029296875.00634765625l-.00244140625-.00146484375.04541015625-.1162109375.0009765625.00048828125.095703125-.2421875-.001953125-.0009765625.04736328125-.1220703125.00146484375.00048828125.095703125-.24365234375-.001953125-.0009765625.04150390625-.10595703125.00341796875.0009765625.1015625-.26318359375-.001953125-.0009765625.060546875-.15576171875.001953125.00048828125-.001953125-.0009765625.0458984375-.11669921875.001953125.00048828125-.001953125-.0009765625.0673828125-.17333984375.001953125.00048828125.0751953125-.19140625-.001953125-.0009765625.0419921875-.10791015625.0029296875.0009765625.099609375-.2578125-.001953125-.0009765625.06884765625-.17626953125.00244140625.00048828125-.001953125-.0009765625.04150390625-.107421875.00341796875.0009765625-.0029296875-.0009765625.04150390625-.1064453125h.00048828125c.01953125-.04345703125.0361328125-.0849609375.0517578125-.12939453125l-.001953125-.00048828125.04443359375-.11328125.00146484375.00048828125-.00146484375-.00048828125.04736328125-.1220703125h.0009765625l.1318359375-.3359375-.00146484375-.00048828125.037109375-.09521484375.00244140625.00048828125c.01171875-.02978515625.0234375-.06005859375.0341796875-.09033203125l.0380859375-.095703125-.001953125-.0009765625.0380859375-.09716796875.0029296875.0009765625.1015625-.26318359375-.001953125-.0009765625.0400390625-.10205078125.0029296875.0009765625.1015625-.26318359375-.001953125-.0009765625.04638671875-.11865234375.06591796875-.16357421875-.00146484375-.0009765625.0419921875-.10791015625h.00048828125l.095703125-.24267578125-.0009765625-.00048828125.041015625-.1064453125.0029296875.0009765625.1357421875-.35205078125-.00146484375-.00048828125.03955078125-.10107421875.001953125.00048828125-.001953125-.00048828125.037109375-.09521484375.0029296875.00048828125-.00244140625-.0009765625.04296875-.11083984375h.00048828125c.0166015625-.03662109375.0302734375-.07275390625.0302734375-.07275390625,0,0-.0009765625.0009765625-.001953125.00341796875l.0927734375-.23828125-.0009765625-.00048828125.0439453125-.11279296875.0009765625.00048828125-.0009765625-.00048828125.0478515625-.12255859375h0l.0517578125-.12939453125-.0009765625-.00048828125.0439453125-.11279296875.0009765625.00048828125-.0009765625-.00048828125.041015625-.10595703125.001953125.00048828125.13671875-.3525390625-.0009765625-.00048828125.0380859375-.09814453125.001953125.00048828125.0390625-.09765625-.00244140625-.0009765625.04150390625-.10595703125h0l.05859375-.1484375-.0009765625-.00048828125.0390625-.09912109375h.0009765625l.142578125-.365234375-.0009765625-.00048828125.0458984375-.1171875h0l.09765625-.24755859375-.0009765625-.00048828125.05078125-.12939453125.0576171875-.14599609375-.0009765625-.00048828125.06396484375-.16259765625.03271484375-.08203125-.0009765625-.00048828125.04296875-.109375.0009765625.00048828125.037109375-.09716796875h-.00048828125l.03857421875-.09814453125h.0009765625c.0107421875-.0263671875.0205078125-.052734375.02978515625-.0791015625l.0078125-.0205078125.03173828125-.07861328125-.0009765625-.00048828125.0400390625-.10205078125.001953125.00048828125.099609375-.2587890625-.00048828125-.00048828125.04150390625-.1064453125.001953125.00048828125.091796875-.2373046875-.0009765625-.00048828125.04541015625-.11669921875h.00048828125-.00048828125l.05908203125-.1513671875.0390625-.0966796875-.0009765625-.00048828125.04345703125-.1123046875h.00048828125-.00048828125l.04150390625-.1064453125.001953125.00048828125.099609375-.259765625h0l.041015625-.10595703125.001953125.00048828125-.001953125-.00048828125.10986328125-.28076171875.02783203125-.07080078125h-.00048828125l.037109375-.09423828125h.00048828125l.099609375-.25732421875.078125-.19921875h0l.09326171875-.2392578125.123046875-.3154296875h.00048828125-.00048828125l.037109375-.09521484375.00146484375.00048828125-.00146484375-.00048828125.064453125-.16552734375c.0009765625-.001953125.00537109375-.0126953125.00537109375-.0126953125,0,0-.0009765625.001953125-.0029296875.0068359375l.107421875-.2744140625h-.00048828125l.03955078125-.1015625.0009765625.00048828125.1875-.48291015625.0634765625-.1630859375.0009765625.00048828125.09228515625-.23876953125.068359375-.17529296875h.00048828125-.00048828125l.04736328125-.1220703125.0009765625.00048828125-.0009765625-.00048828125.0771484375-.19775390625.0068359375-.01611328125h0l.16796875-.43115234375.0009765625.00048828125.0654296875-.1708984375.11962890625-.306640625.02880859375-.07080078125-.0009765625-.00048828125.06640625-.17041015625c.00048828125-.0009765625.00390625-.0087890625.00390625-.0087890625,0,0-.0009765625.001953125-.0009765625.00244140625l.02880859375-.07470703125.00634765625-.015625h0l.35009765625-.8974609375c6.80712890625-17.2841796875,25.48388671875-26.5830078125,42.82373046875-21.44384765625ZM76.478915550578677,103.985500372020397c-7.1875,18.33984375-27.634765625,27.56494140625-45.5859375,20.564453125-17.95703125-7.0048828125-26.755859375-27.64990234375-19.6064453125-46.03662109375l-.0322265625-.01611328125.0263671875.01025390625.0537109375-.1376953125.0078125.001953125-.00732421875-.00341796875.03955078125-.1015625.0087890625.0029296875-.00830078125-.00341796875.041015625-.10498046875.00634765625.00146484375.0966796875-.24560546875-.0068359375-.00244140625.0361328125-.09228515625.0078125.00146484375-.00732421875-.00341796875.04736328125-.12109375.005859375.001953125.203125-.5166015625-.0068359375-.00341796875.04150390625-.1064453125.00830078125.00244140625.1015625-.26220703125-.0068359375-.00341796875.03759765625-.0966796875.00830078125.0029296875.14453125-.37109375-.0078125-.0029296875.0390625-.1005859375.005859375.00146484375.09765625-.24658203125-.0068359375-.00341796875.03955078125-.10107421875.00830078125.00244140625.1015625-.26318359375-.0068359375-.00341796875.0458984375-.11669921875.005859375.001953125.09765625-.2470703125-.0068359375-.00341796875.06884765625-.17626953125.00732421875.00146484375-.0068359375-.0029296875.0390625-.09912109375.0078125.001953125-.0078125-.0029296875.0458984375-.11669921875.005859375.00146484375.0693359375-.17822265625c.0205078125-.044921875.037109375-.08837890625.060546875-.15087890625l-.0068359375-.0029296875.037109375-.095703125.0068359375.001953125-.00634765625-.0029296875.04541015625-.11669921875.005859375.001953125.060546875-.1513671875-.0068359375-.0029296875.037109375-.09521484375.0068359375.001953125-.00634765625-.0029296875.04541015625-.11669921875.005859375.001953125.09765625-.24755859375-.00634765625-.0029296875.03955078125-.10107421875.0078125.00244140625.103515625-.267578125-.0068359375-.0029296875.04541015625-.11669921875.00537109375.0009765625.166015625-.42236328125-.005859375-.001953125.0361328125-.09326171875.0068359375.00146484375.14453125-.369140625-.0068359375-.00341796875.0673828125-.171875.0068359375.00146484375-.00634765625-.0029296875.037109375-.0947265625.00634765625.00146484375-.005859375-.0029296875.04541015625-.1162109375.00537109375.00146484375.0537109375-.134765625-.005859375-.00244140625.04345703125-.1123046875.00634765625.00146484375-.005859375-.0029296875.04541015625-.11572265625.00537109375.00146484375.09765625-.248046875-.005859375-.0029296875.03955078125-.1005859375.00732421875.00244140625.1015625-.26318359375-.005859375-.0029296875.06005859375-.15478515625.00634765625.00146484375-.005859375-.0029296875.04931640625-.12548828125.00634765625.00146484375.041015625-.10888671875c.0166015625-.0361328125.0302734375-.0712890625.029296875-.0712890625,0,0-.0009765625.001953125-.0029296875.00634765625l.14453125-.369140625-.005859375-.0029296875.03759765625-.09716796875.00732421875.00244140625.099609375-.2587890625-.00537109375-.0029296875.041015625-.10595703125.00732421875.00244140625.099609375-.25927734375-.00537109375-.0029296875.06201171875-.15869140625.005859375.00146484375-.00537109375-.00244140625.04345703125-.1123046875.005859375.00146484375-.00537109375-.00244140625.04736328125-.12158203125.0048828125.00146484375.060546875-.15087890625-.005859375-.00244140625.037109375-.09521484375.005859375.00146484375-.00537109375-.0029296875.04150390625-.1064453125.0068359375.00244140625.09765625-.25439453125-.0048828125-.00244140625.041015625-.10595703125.0068359375.00244140625.1005859375-.26123046875-.005859375-.001953125.03662109375-.09326171875.00634765625.00146484375c.0166015625-.04052734375.0322265625-.08203125.0458984375-.1220703125.0166015625-.037109375.0302734375-.07275390625.0302734375-.07275390625,0,0-.0009765625.0009765625-.001953125.00341796875l-.00537109375-.00244140625.03955078125-.10205078125.00390625.0009765625.0986328125-.248046875-.0048828125-.00244140625.0390625-.10009765625.005859375.001953125-.005859375-.0029296875.0439453125-.111328125.00390625.0009765625.0625-.15576171875-.00537109375-.00244140625.03955078125-.1015625.0068359375.001953125.099609375-.2587890625-.0048828125-.00244140625.0615234375-.158203125c10.92626953125-1.25830078125,23.56494140625.6337890625,35.6640625,5.35302734375,11.9091796875,4.6455078125,22.40234375,11.701171875,29.6025390625,19.8974609375l-4.6474609375,11.90966796875.017578125.0068359375-.11328125.28955078125Z"/>
  <g>
    <polygon class="cls-2" points="189.42557756244787 210.259945488920494 172.83479512015947 175.168551515240324 173.439542964399152 157.10781153698008 149.676566112959335 108.900769178880182 140.480103336129105 109.886284919730315 135.735685131749051 115.424983438800155 128.859095498728493 105.206915905950154 116.643813150538335 111.474656331810365 109.792082330028279 106.362909623380801 99.77029767276872 111.866086779180478 85.846261995548048 88.099514799000644 75.110199345159344 91.811665696600357 77.343130544959422 105.103317875260473 100.306211980378066 153.124172256630118 100.310691777898683 162.647583942140045 93.498772900858967 165.051939205020062 76.148020335538604 153.444749194770338 62.227707586618635 152.281815854900742 55.636930397678952 158.419079464980314 59.052417083148612 166.453554988450378 76.800782849079042 175.027161513660758 99.207192527279403 192.747134756070409 126.785539872409572 206.714388288210102 139.799837595288409 233.95492368612031 189.42557756244787 210.259945488920494"/>
    <path class="cls-1" d="M147.727615641779266,106.046798685500107c-2.559426322060972-.724124402209782-5.30088742010048-.31794710046961-7.513442303970805,1.110452154950508l-.185232757889025.121377426339677c-1.682685141420734,1.121719312830464-2.90295413486092,2.301580158459728-3.805999098420216,3.433162031629763l-1.018086366089847-2.129042535989356c-1.170391519070108-2.447546112870441-3.338877738320662-4.27476467284032-5.949147583700324-5.01375521350019-2.558507448589808-.724108228419936-5.294954873850656-.320783983400361-7.516972840190647,1.112595990939553l-.18096065339887.118878980000773c-1.733467001231475,1.155569641809961-2.977177477030637,2.372151865869455-3.887204463131638,3.534862220459217-1.203158402089684-2.277894777329493-3.280280292388852-3.979786478779715-5.769276833068943-4.684288031169672-2.559603627239994-.724495186350396-5.302757514580662-.316141701079687-7.512700735689577,1.11009754457973l-.185232757890844.121377426350591c-1.687150724890671,1.124765848499919-2.909499465529734,2.307899056299902-3.812963734550067,3.442414855049719-4.091118789528991-8.64021927442991-7.838555634329168-16.283536660470418-8.994200884959355-17.824717107169818-2.71111510044102-3.615524628669846-6.48443983199104-6.832448195320467-13.915695580230022-3.278897699130539-5.919020717210515,2.830870740290266-5.576928754129767,9.29673564615041-4.569437012391063,12.320116411759955.02496647074986.075075095290231.053076519810929.149102533250698.085071715460799.221727703510624.116343335570491.262353433899989,11.686246777209817,26.429648028090014,19.528667305119598,40.833022801859443,4.378519350329952,8.040839624,6.350371609869399,15.629373181130177,6.060935642590266,19.64467636065001-.00587148906925.062031742640102-.020883191469693.121145127150157-.021999181799401.184547396260314-.000291127909804.016539722380003-.0003738157302.052569266479622-.000923117690036.073332572050276-.104505511450043,1.039015212269987-.370975768901189,1.817447617209837-.80095435981093,2.266333183609277-.873724716318975.907088044990815-3.280620665200331.509559775660819-6.461947640340441-1.050179854749331-.562996102278703-.276097912450496-1.123826131619353-.654368084729867-1.667385587219542-1.126088396340492-12.742214455109206-11.04351193489947-25.884478932308411-12.038107601470074-31.782375229089666-7.368181067499791-3.585241427670553,2.839227288999609-4.244432674189738,7.359809390800365-1.763294295029482,12.093026637359799.845206732759834,1.611270988360047,2.277224046849369,2.866310593690287,4.033025469900167,3.533273196940172,14.128527740489517,5.370235910359952,25.767609807999179,15.011916934049623,32.722591478748654,20.772452824870015,2.221554447411108,1.841020867320367,3.976375349400769,3.294765589739654,5.353229317470323,4.247718013560188,5.876433843341147,4.069051397929798,8.684142220090507,5.758250096970187,17.112837159580522,8.733940278680166,5.656636440649891,1.997444402390101,8.048411534049592,3.50468190258016,8.796311871419675,4.04360471361997l12.02324182700977,25.14324336611935h0l1.531030263180583,3.20172105508027,4.555824736989962-2.178548794860035-1.088299218930842-2.275873055709781c-.000354610359864-.000741568290323-.000338436590027-.001660441749664-.000693046958986-.002402010029982l-12.708349057689702-26.575953285860123c-.117021421390746-.244717532869799-.272636740961389-.469157579679631-.46167176083145-.664405147290381-.386532773569343-.400571002099241-2.733229908009889-2.547116788729909-10.966627742749552-5.453557677679783-7.879686741389378-2.782195051139752-10.343973788629228-4.263869469949896-15.91893221905957-8.123561265970238-1.19740657029979-.829200287649655-2.87830192751062-2.221714680259538-5.006184047000716-3.984980456529229-7.195408909588878-5.960364683570333-19.238727984698926-15.936748947769956-34.15084494158873-21.604245766719941-.601333645361592-.228608832790087-1.081994037760523-.63929289987027-1.353402784630816-1.157328078410501-1.339990089070852-2.556418362089971-1.197064968941049-4.503988566239968.42543527153066-5.788722904479982,3.578744618320343-2.835665011540186,14.114716588828742-2.503148256039822,25.338478566918639,7.224608879189873.872371001751162.757299708770006,1.799721162140486,1.378061086929847,2.754033836850795,1.845613809290626,4.023927076570544,1.971831012539951,7.300956573790245,2.512254298819244,9.796008955920115,1.640322382389968.266675123270034,2.645986811839975.751616156350792,5.414019222059324,1.635305193020031,7.262007379389615.60159648905028,1.258070589449744,2.109019436989911,1.790508504769605,3.367460810590273,1.188734710540302,1.258441373580354-.601773794240216,1.790331199579668-2.109390221140529,1.188734710529388-3.367460810590273-1.171278044999781-2.449400033569873-1.511965921430601-8.94281496962958-1.451890465819815-12.460294942549808.000306695370455-.006980203590501-.001965924469914-.013638144349898-.001836534289396-.020989132070099.475488279829733-6.877779620929687-3.496731537121377-16.518339946909691-6.651150055669859-22.311799884269931-7.45566394359048-13.691756713600626-18.382607432220539-38.287738877700576-19.285404592770647-40.324306960789727-.231881423580489-.789777905060873-1.153293234980083-4.578221412710263,1.984104858580395-6.078948663210213,4.234354886979418-2.024825200400301,5.658242643779886-.965893207429872,7.697067646089636,1.752464813040206,1.81070379205994,2.414697132449874,14.087805412849775,28.801434061729196,21.400777551349165,44.866151478929169.577866304040072,1.269418121220042,2.075051041050756,1.829985897290499,3.344098378131093,1.252296898430359,1.269047337080337-.577688998870144,1.83053398660013-2.074857562100078,1.251748809099809-3.344291857099961-.95466974215924-2.097410242349724-5.544235665040105-12.163928756080168-10.315795953330962-22.355714890099989.209133562690113-.852606619489961.999354190971644-2.885111069989762,3.96683649905026-4.863114740550373l.122182673891075-.079838279350042c1.013765889349088-.654244395929709,2.220209748080379-.829341064689288,3.399670477700056-.494963740819912,1.214957751850307.343826051530414,2.223929354038773,1.194342994120234,2.768433573868606,2.333021090260445l9.401075461961227,19.659716709069471c.601596489059375,1.258070589450654,2.109019436999006,1.790508504770514,3.367460810590273,1.188734710530298,1.258441373589449-.601773794230212,1.790331199588763-2.109390221129615,1.188734710538483-3.367460810580269l-6.878554610299034-14.384570739089213c.182032153919863-.806390417370494.933099471460082-2.901719125370619,3.985411691539412-4.936688100240644l.121263800430825-.079854453129883c1.013943194529929-.653873611790004,2.221128621529715-.829324890909447,3.400589351160306-.494947567040072,1.214957751848488.343826051530414,2.223929354038773,1.194342994120234,2.768433573868606,2.333021090260445l9.401075461970322,19.659716709069471c.60159648905028,1.258070589450654,2.109019436989911,1.790508504770514,3.367460810581179,1.188734710530298,1.258441373598544-.601773794240216,1.790331199599677-2.109390221129615,1.188734710538483-3.367460810580269l-5.724829778499043-11.971878335450128c.237621065380154-.894018801579477,1.068188225690392-2.868825277450014,3.94843861174013-4.789170596729491l.122005368710234-.080209063499751c1.015426331088747-.654582832520646,2.220387053259401-.828970280550493,3.400589351160306-.494947567040072,1.214957751848488.343826051529504,2.223929354038773,1.194342994119324,2.768433573868606,2.333021090259535l9.39203289759098,19.640806717889973,9.926275866409924,21.205793580630598c.760219933568806,1.593597889259399,2.723146025819005,6.315855380979883,2.675451388578949,8.994178053539144-.011564853919481.66747291999036-.05005866196916,1.465359964330673-.091765593959281,2.35179729794072-.220605964079368,4.65845476072991-.522623882219705,11.038714232529856,1.595463844920232,15.468101577529524l13.014200499968865,27.215555928580216-.000741568288504.000354610369868,1.531030263178764,3.201721055090275,4.556195521130576-2.178726100049971-1.085107725619309-2.269198941190552c-.001418441470378-.002966273119455-.002095314661346-.006287156609687-.003691061310747-.009624213879761l-13.455690407929069-28.138808438970045c-1.569505488090726-3.282181213619879-1.291020425391253-9.160994553710225-1.107294529971114-13.050579263060172.04490206320952-.942633572639352.08447890772004-1.791606746899561.096787755190235-2.501347846299723.077775429510439-4.345513749080055-2.836018339719885-10.566558771660311-3.159245690019816-11.242498260189677l-9.926630476780701-21.206535148910007-9.401075461970322-19.659716709070381c-1.170214213889267-2.447175328729827-3.338877738318843-4.27476467284032-5.949147583698505-5.013755213490185Z"/>
  </g>
  <circle class="cls-1" cx="152.104761904738552" cy="50.838095238090318" r="31.504761904761832"/>
  <path class="cls-2" d="M146.742001254040588,34.234383852925021c0-1.376537493226351.496536738626673-2.504396933361932,1.491248950997033-3.383988004185085.993073477255166-.879181387041172,2.284396744709738-1.319181764340101,3.870692332146064-1.319181764340101,1.587934322544243,0,2.87761885488726.440000377298929,3.872331067253981,1.319181764340101.993073477258804.879591070823153,1.491248950997033,2.007450510958734,1.491248950997033,3.383988004185085s-.498175473738229,2.504806617138456-1.491248950997033,3.383988004185085c-.994712212366721.879591070817696-2.284396744709738,1.319181764340101-3.872331067253981,1.319181764340101-1.586295587436325,0-2.877618854890898-.439590693522405-3.870692332146064-1.319181764340101-.994712212370359-.879181387046629-1.491248950997033-2.007450510958734-1.491248950997033-3.383988004185085ZM154.064507054252317,73.26495735880053h-3.804778841262305c-1.626020009711283,0-2.944169670101473-1.318149660390191-2.944169670101473-2.944169670105111v-25.141109986283482c0-1.626020009711283,1.318149660390191-2.944169670105111,2.944169670105111-2.944169670105111h3.804778841258667c1.626020009714921,0,2.944169670105111,1.318149660393829,2.944169670105111,2.944169670105111v25.141109986283482c0,1.626020009714921-1.318149660390191,2.944169670105111-2.944169670105111,2.944169670105111Z"/>
</svg>