<?xml version="1.0" encoding="UTF-8"?>
<svg id="Ebene_1" data-name="Ebene 1" xmlns="http://www.w3.org/2000/svg" viewBox="0 0 2000 2000">
  <defs>
    <style>
      .cls-1 {
        fill: #172d4d;
      }

      .cls-2 {
        fill: #fff;
      }
    </style>
  </defs>
  <rect class="cls-2" x="43" y="43" width="1914" height="1914" rx="88.83" ry="88.83"/>
  <path class="cls-1" d="M1868.17,58c40.71,0,73.83,33.12,73.83,73.83v1736.33c0,40.71-33.12,73.83-73.83,73.83H131.83c-40.71,0-73.83-33.12-73.83-73.83V131.83c0-40.71,33.12-73.83,73.83-73.83h1736.33M1868.17,28H131.83c-57.35,0-103.83,46.49-103.83,103.83v1736.33c0,57.35,46.49,103.83,103.83,103.83h1736.33c57.35,0,103.83-46.49,103.83-103.83V131.83c0-57.35-46.49-103.83-103.83-103.83h0Z"/>
</svg>