<?xml version="1.0" encoding="UTF-8"?>
<svg id="Ebene_1" data-name="Ebene 1" xmlns="http://www.w3.org/2000/svg" viewBox="0 0 2000 2000">
  <defs>
    <style>
      .cls-1 {
        fill: #172d4d;
      }

      .cls-2 {
        fill: #cfd8e5;
      }
    </style>
  </defs>
  <ellipse class="cls-2" cx="991.618782096167706" cy="1050.398739495800783" rx="659.809523809526581" ry="737.523809523808723"/>
  <g>
    <path class="cls-1" d="M1299.9267578125,703.427734375c-67.6025390625,0-122.6015625,54.9990234375-122.6015625,122.6015625v254.0341796875c0,67.6025390625,54.9990234375,122.6015625,122.6015625,122.6015625s122.6015625-54.9990234375,122.6015625-122.6015625v-254.0341796875c0-67.6025390625-54.9990234375-122.6015625-122.6015625-122.6015625ZM1340.753173828130457,880.26214599609375v201.100402832036707c0,30.39794921875-22.107666015630457,55.040649414058862-49.37939453125,55.040649414058862-27.271484375,0-49.37939453125-24.642700195308862-49.37939453125-55.040649414058862v-242.743530273442957c0-30.3980712890625,22.10791015625-55.0406494140625,49.37939453125-55.0406494140625,27.271728515619543,0,49.37939453125,24.642578125,49.37939453125,55.0406494140625v41.64312744140625Z"/>
    <path class="cls-1" d="M819.197265625,1080.0634765625v-254.0341796875c0-67.6025390625-54.9990234375-122.6015625-122.6015625-122.6015625s-122.6015625,54.9990234375-122.6015625,122.6015625v254.0341796875c0,67.6025390625,54.9990234375,122.6015625,122.6015625,122.6015625s122.6015625-54.9990234375,122.6015625-122.6015625ZM661.345703125,1081.362548828130457v-242.743530273442957c0-30.3980712890625,22.10791015625-55.0406494140625,49.37939453125-55.0406494140625,27.271728515630457,0,49.37939453125,24.642578125,49.37939453125,55.0406494140625v242.743530273442957c0,30.39794921875-22.107666015619543,55.040649414058862-49.37939453125,55.040649414058862-27.271484375,0-49.37939453125-24.642700195308862-49.37939453125-55.040649414058862Z"/>
    <path class="cls-1" d="M999.734375,12.6844482421875c-428.43505859375,0-775.750244140619543,440.72235107421875-775.750244140619543,984.38092041015625,0,543.658630371095569,347.315185546869543,984.38092041015625,775.750244140619543,984.38092041015625s775.750244140630457-440.722290039060681,775.750244140630457-984.38092041015625c0-543.6585693359375-347.315185546880457-984.38092041015625-775.750244140630457-984.38092041015625ZM1141.1552734375,1286.465576171880457c0,37.997802734369543-66.34521484375,68.800903320308862-148.1865234375,68.800903320308862-81.8408203125,0-148.186279296869543-30.803100585939319-148.186279296869543-68.800903320308862,0-37.99755859375,66.345458984369543-68.80078125,148.186279296869543-68.80078125,81.84130859375,0,148.1865234375,30.80322265625,148.1865234375,68.80078125ZM492.77392578125,682.00823974609375c-20.161376953119543-45.02716064453125,35.0146484375-71.9195556640625,89.84033203125-89.6986083984375,39.95654296875-12.95721435546875,81.46142578125-20.56488037109375,123.38525390625-23.1717529296875,189.863037109380457-11.80584716796875,205.459716796880457,8.031005859375,206.8037109375,57.76251220703125,1.638671875,60.62615966796875-104.167236328119543,30.24212646484375-221.775390625,38.97869873046875-77.8154296875,5.78057861328125-163.358154296869543,94.06298828125-198.25390625,16.129150390625ZM543.994140625,1080.0634765625v-254.0341796875c0-84.14501953125,68.45703125-152.6015625,152.6015625-152.6015625s152.6015625,68.45654296875,152.6015625,152.6015625v254.0341796875c0,84.14453125-68.45703125,152.6015625-152.6015625,152.6015625s-152.6015625-68.45703125-152.6015625-152.6015625ZM1352.85009765625,1524.622314453130457c0,81.841064453119543-158.7548828125,148.186401367180224-354.5888671875,148.186401367180224s-354.5888671875-66.345336914060681-354.5888671875-148.186401367180224c0-2.664306640630457.72119140625-9.142578125,1.6259765625-15.73779296875,1.3408203125-9.774658203130457,9.828857421880457-16.95703125,19.691162109380457-16.68212890625,84.823974609369543,2.364501953119543,199.207763671869543,11.25048828125,331.186767578119543,11.25048828125,129.325439453130457,0,249.077880859380457-8.620971679691138,337.4541015625-10.6396484375,11.169189453130457-.255004882819776,20.21533203125,9.02294921875,19.703125,20.183349609369543-.232177734369543,5.0595703125-.4833984375,9.5732421875-.4833984375,11.625732421880457ZM1452.5283203125,1080.0634765625c0,84.14453125-68.45703125,152.6015625-152.6015625,152.6015625s-152.6015625-68.45703125-152.6015625-152.6015625v-254.0341796875c0-84.14501953125,68.45703125-152.6015625,152.6015625-152.6015625s152.6015625,68.45654296875,152.6015625,152.6015625v254.0341796875ZM1308.44091796875,665.88848876953125c-117.608154296869543-8.736572265625-223.4140625,21.6474609375-221.775390625-38.97869873046875,1.343994140630457-49.73150634765625,16.940673828130457-69.568359375,206.8037109375-57.76251220703125,41.923828125,2.60687255859375,83.4287109375,10.21453857421875,123.38525390625,23.1717529296875,54.82568359375,17.779052734375,110.001708984380457,44.67144775390625,89.84033203125,89.6986083984375-34.895751953119543,77.933837890625-120.4384765625-10.34857177734375-198.25390625-16.129150390625Z"/>
  </g>
  <path class="cls-2" d="M1000,1996.2080078125c-109.7255859375,0-216.099609375-26.68359375-316.166015625-79.30859375-96.1083984375-50.5439453125-182.3046875-122.7548828125-256.1953125-214.6298828125-73.50390625-91.3916015625-131.173828125-197.7041015625-171.4091796875-315.9814453125-41.544921875-122.12890625-62.6103515625-251.80078125-62.6103515625-385.4130859375s21.0654296875-263.2841796875,62.6103515625-385.41259765625c40.2353515625-118.2783203125,97.9052734375-224.59033203125,171.4091796875-315.98291015625,73.890625-91.8740234375,160.0869140625-164.0859375,256.1953125-214.62939453125C783.900390625,32.224609375,890.2744140625,5.54150390625,1000,5.54150390625s216.099609375,26.68310546875,316.166015625,79.30859375c96.1083984375,50.54345703125,182.3046875,122.75537109375,256.1953125,214.62939453125,73.50390625,91.392578125,131.173828125,197.70458984375,171.4091796875,315.98291015625,41.544921875,122.12841796875,62.6103515625,251.80029296875,62.6103515625,385.41259765625s-21.0654296875,263.2841796875-62.6103515625,385.4130859375c-40.2353515625,118.27734375-97.9052734375,224.58984375-171.4091796875,315.9814453125-73.890625,91.875-160.0869140625,164.0859375-256.1953125,214.6298828125-100.06640625,52.625-206.4404296875,79.30859375-316.166015625,79.30859375ZM1000,65.54150390625c-411.5556640625,0-746.380859375,419.5888671875-746.380859375,935.33349609375,0,515.744140625,334.8251953125,935.3330078125,746.380859375,935.3330078125s746.380859375-419.5888671875,746.380859375-935.3330078125c0-515.74462890625-334.8251953125-935.33349609375-746.380859375-935.33349609375Z"/>
  <path class="cls-2" d="M564.774882397879992,707.734257684798649c5.947907904550448-2.7516276026181,11.93786750829895-5.404092490434778,17.972678651340175-7.959492385044541l-11.943976793159891,5.040417420274025c45.640841466640268-19.151073749203533,93.649748839288804-32.148556353975437,142.681782218029184-38.862543861249833-4.430660203490334.595349440782229-8.861320406989762,1.190698881564458-13.29198061048919,1.786048322346687,49.644663143239086-6.6387838590108,99.989744714290282-6.794235695678253,149.651569759169433-.235606217908753-4.430660203490334-.595349440782229-8.861320406989762-1.190698881564458-13.29198061048919-1.786048322345778,7.084710275788893.959139274358677,14.148269228569916,2.044723873162184,21.193868591839419,3.258299450180857,13.580176061739621,2.339129597128704,26.231679457348946,2.155223247962567,38.527938014129177-5.040417420274025,10.371680423380894-6.0693978666568,20.263028263210799-17.961681746917748,22.977994274011508-29.881553646891007,2.915299351479916-12.799421680223531,2.284397521738356-27.166584153485019-5.040417420270387-38.527938014135543-6.658886295919729-10.328447083603351-17.264884908710883-20.804824859375003-29.881553646899192-22.977994274006051-47.924044748811866-8.254720040187749-96.455428407651198-11.900923016311935-145.025586059651687-8.728370247632483-48.634002968128698,3.176723079097428-97.323871785520168,11.473150224478559-143.906542761429591,25.911789540669815-27.728066990810476,8.594517013045333-54.760006073520344,19.472889975627368-81.095708413429747,31.656341141258054-10.743566735489367,4.970200489710805-19.956192712639677,18.908304291141576-22.977994274000594,29.881553646891007-3.295885878769695,11.968548186014232-1.807807962999505,27.905811378463113,5.040417420270387,38.527938014135543,6.883039151551202,10.676125479827533,17.132407960079945,20.074146187645965,29.881553646890097,22.977994274006051,4.430660203499428.595349440782229,8.861320407000676,1.190698881564458,13.291980610491009,1.786048322346687,9.025402683168068-.028052208529516,17.437388484388066-2.303540789403087,25.235957403649081-6.826465742620712h0Z"/>
</svg>