<?xml version="1.0" encoding="UTF-8"?>
<svg id="Ebene_1" xmlns="http://www.w3.org/2000/svg" viewBox="0 0 200 200">
  <defs>
    <style>
      .cls-1 {
        fill: #cfd8e5;
        stroke: #172d4d;
        stroke-linejoin: round;
        stroke-width: 6px;
      }
    </style>
  </defs>
  <path class="cls-1" d="M81.655998229980014,81.680000305180329c-1.599998474120184,1.51999664306004-3.599998474120184,2.319999694819671-5.68000030516987,2.319999694819671-2.079994201660156,0-4.079994201660156-.800003051759631-5.680000305180329-2.319999694819671l-38.295997619629816-38.319999694830585-2.799999237060092,2.720001220710401-11.520000457760034,11.599998474120184c-1.600000381469727,1.520000457760034-3.600000381469727,2.319999694819671-5.680000305179874,2.319999694819671-1.039999961850299,0-2.079999923700143-.240001678469525-3.039999961850299-.639999389650256-3.040000081059588-1.200000762939453-4.960000038149701-4.159999847409381-4.960000038149701-7.360000610349744V12c0-4.40000009537016,3.59999990462984-8,8-8h40c3.200000762939908,0,6.159999847409836,1.919999957090113,7.360000610349744,4.960000038149701,1.279998779300058,2.960000038140606.559997558600116,6.399999618530273-1.68000030516987,8.720000267030628l-11.59999847411973,11.520000457760034-2.720001220710401,2.799999237059637,38.304000854500373,38.319999694820581c3.119995117179769,3.120002746589307,3.119995117179769,8.239997863769531,0,11.360000610359748h-.008003234870102ZM118.344001770019986,81.680000305180329c1.59999847411973,1.51999664306004,3.59999847411973,2.319999694819671,5.680000305179874,2.319999694819671,2.079994201660156,0,4.079994201660156-.800003051759631,5.68000030516987-2.319999694819671l38.31999969483013-38.319999694830585,2.800003051750082,2.720001220710401,11.51998901368006,11.599998474120184c1.576004028319858,1.520000457760034,3.576004028319858,2.319999694819671,5.656005859369998,2.319999694819671,1.039993286130084,0,2.080001831060144-.240001678469525,3.039993286130084-.639999389650256,3.04000854493006-1.200000762939453,4.960006713869916-4.159999847409381,4.960006713869916-7.360000610349744V12c0-4.40000009537016-3.600006103510168-8-8-8h-40c-3.199996948239914,0-6.160003662110284,1.919999957090113-7.360000610350198,4.960000038149701-1.279998779300058,2.960000038140606-.559997558589657,6.399999618530273,1.680007934570312,8.720000267030628l11.599990844729746,11.520000457760034,2.720001220699942,2.799999237059637-38.304000854489914,38.319999694820581c-3.119995117189774,3.120002746589307-3.119995117189774,8.239997863769531,0,11.360000610359748h.008003234860098ZM81.655998229980014,118.319999694820581c-1.599998474120184-1.51999664306004-3.599998474120184-2.319999694820581-5.68000030516987-2.319999694820581-2.079994201660156,0-4.079994201660156.800003051760541-5.680000305180329,2.319999694820581l-38.295997619629816,38.319999694829676-2.799999237060092-2.720001220700397-11.520000457760034-11.599990844729291c-1.600000381469727-1.520004272460028-3.600000381469727-2.320007324220569-5.680000305179874-2.320007324220569-1.039999961850299,0-2.079999923700143.240005493160425-3.039999961850299.639999389650256-3.040000081059588,1.199996948239459-4.960000038149701,4.160003662110284-4.960000038149701,7.360000610349744v40c0,4.399993896479828,3.59999990462984,8,8,8h40c3.200000762939908,0,6.159999847409836-1.91999816894986,7.360000610349744-4.960006713869916,1.279998779300058-2.959991455079944.559997558600116-6.399993896479828-1.68000030516987-8.719985961909515l-11.59999847411973-11.520004272460028-2.720001220710401-2.800003051760541,38.304000854500373-38.319999694819671c3.119995117179769-3.120002746590217,3.119995117179769-8.239997863770441,0-11.360000610359748h-.008003234870102ZM118.344001770019986,118.319999694820581c1.59999847411973-1.51999664306004,3.59999847411973-2.319999694820581,5.680000305179874-2.319999694820581,2.079994201660156,0,4.079994201660156.800003051760541,5.68000030516987,2.319999694820581l38.31999969483013,38.319999694829676,2.800003051750082-2.720001220700397,11.51998901368006-11.599990844729291c1.576004028319858-1.520004272460028,3.576004028319858-2.320007324220569,5.656005859369998-2.320007324220569,1.039993286130084,0,2.080001831060144.240005493160425,3.039993286130084.639999389650256,3.04000854493006,1.199996948239459,4.960006713869916,4.160003662110284,4.960006713869916,7.360000610349744v40c0,4.399993896479828-3.600006103510168,8-8,8h-40c-3.199996948239914,0-6.160003662110284-1.91999816894986-7.360000610350198-4.960006713869916-1.279998779300058-2.959991455079944-.559997558589657-6.399993896479828,1.680007934570312-8.719985961909515l11.599990844729746-11.520004272460028,2.720001220699942-2.800003051760541-38.304000854489914-38.319999694819671c-3.119995117189774-3.120002746590217-3.119995117189774-8.239997863770441,0-11.360000610359748h.008003234860098Z"/>
</svg>