<?xml version="1.0" encoding="UTF-8"?>
<svg id="Ebene_1" xmlns="http://www.w3.org/2000/svg" xmlns:xlink="http://www.w3.org/1999/xlink" viewBox="0 0 200 200">
  <defs>
    <style>
      .cls-1, .cls-2 {
        fill: none;
      }

      .cls-3 {
        fill: #e9f2fa;
      }

      .cls-4 {
        clip-path: url(#clippath-1);
      }

      .cls-2 {
        stroke: #fff;
        stroke-miterlimit: 6.51200008392334;
        stroke-width: .395600008964539px;
      }

      .cls-5 {
        fill: #2e3a4d;
      }

      .cls-6 {
        clip-path: url(#clippath);
      }
    </style>
    <clipPath id="clippath">
      <rect class="cls-1" x=".000000000039108" y="-.000000000069122" width="200" height="200"/>
    </clipPath>
    <clipPath id="clippath-1">
      <rect class="cls-1" x=".000000000039108" y="-.000000000069122" width="200" height="200"/>
    </clipPath>
  </defs>
  <g class="cls-6">
    <g class="cls-4">
      <rect class="cls-5" x="2.577258300820176" y="3.038354492118742" width="195.067102050781614" height="195.00030517578125" rx="7.799999999999272" ry="7.799999999999272"/>
      <path class="cls-3" d="M9.676429748574265,100.681970214774992v-39.608691406250728h24.556999206542969v34.064001464844296h26.538195800781068v-34.064001464844296h19.819805908203307l-.212805175780886.89129638671875c-.413299560546875,1.731298828125546-7.662695312500546,33.823095703125546-8.544897460938046,37.826098632813228-.492102050780886,2.232696533203125-.798297119140443,4.156896972655886-.680596923827579,4.274096679687318.117596435546147.117199707031432,4.967395019531068.869305419922057,10.777600097655522,1.670202636718386l10.563696289063046,1.457000732421875,1.610803222655704-1.885101318359375c4.547900390625728-5.320697021484193,12.277191162109375-5.411199951171511,16.740899658203489-.195397949218204,5.850695800781068,6.833996582030522.769995117187136,17.506597900390261-8.3153076171875,17.465899658202943-3.222991943359375-.014703369140989-5.804193115234739-1.201403808593568-8.227795410156432-3.783300781250546l-1.918298339843204-2.042999267578125-10.549902343750546,1.495996093750364c-5.802496337890261.822100830077943-10.638500976562682,1.584002685546693-10.746997070312318,1.691400146484739-.413500976562318.413500976562318,1.709295654296511,5.621203613281068,3.414398193359375,8.375604248046329,3.132800292968568,5.061199951172057,6.908203125,8.277996826172057,12.431597900390443,10.5928955078125,1.404699707031796.587603759765443,2.628399658203307,1.139501953125546,2.719104003906068,1.225799560546875.090600585937864.0863037109375-6.370404052733647.156201171875182-14.358203124999818.156201171875182h-14.523101806640625v-29.310498046875182h-26.538195800781068v29.310498046875182H9.676429748574265v-39.607000732421511Z"/>
      <path class="cls-2" d="M9.676429748574265,100.681970214774992v-39.608691406250728h24.556999206542969v34.064001464844296h26.538195800781068v-34.064001464844296h19.819805908203307l-.212805175780886.89129638671875c-.413299560546875,1.731298828125546-7.662695312500546,33.823095703125546-8.544897460938046,37.826098632813228-.492102050780886,2.232696533203125-.798297119140443,4.156896972655886-.680596923827579,4.274096679687318.117596435546147.117199707031432,4.967395019531068.869305419922057,10.777600097655522,1.670202636718386l10.563696289063046,1.457000732421875,1.610803222655704-1.885101318359375c4.547900390625728-5.320697021484193,12.277191162109375-5.411199951171511,16.740899658203489-.195397949218204,5.850695800781068,6.833996582030522.769995117187136,17.506597900390261-8.3153076171875,17.465899658202943-3.222991943359375-.014703369140989-5.804193115234739-1.201403808593568-8.227795410156432-3.783300781250546l-1.918298339843204-2.042999267578125-10.549902343750546,1.495996093750364c-5.802496337890261.822100830077943-10.638500976562682,1.584002685546693-10.746997070312318,1.691400146484739-.413500976562318.413500976562318,1.709295654296511,5.621203613281068,3.414398193359375,8.375604248046329,3.132800292968568,5.061199951172057,6.908203125,8.277996826172057,12.431597900390443,10.5928955078125,1.404699707031796.587603759765443,2.628399658203307,1.139501953125546,2.719104003906068,1.225799560546875.090600585937864.0863037109375-6.370404052733647.156201171875182-14.358203124999818.156201171875182h-14.523101806640625v-29.310498046875182h-26.538195800781068v29.310498046875182H9.676429748574265v-39.607000732421511Z"/>
      <path class="cls-3" d="M118.414306640664108,139.947192382743197c.206701660155886-.190502929687682,1.285998535156068-.642999267577579,2.397900390625182-1.002801513671329,9.479296874999818-3.073498535156432,16.780493164062136-14.809100341797603,16.7886962890625-26.98590087890625.004797363280886-7.030895996093932-2.114697265625182-12.499200439453489-6.731494140624818-17.358489990234375-3.135302734375728-3.300000000000182-6.467700195313228-5.4010009765625-10.890698242187682-6.866308593750546-2.90740966796875-.962902832031432-3.724609375-1.051892089843932-9.902600097656432-1.0791015625-6.314599609375364-.027697753906068-6.949499511718386.038903808594114-10.2030029296875,1.0736083984375-1.908300781249636.606701660156432-3.737194824218932,1.205798339843568-4.064398193359011,1.331298828125-.384197998047057.147497558594296-.533001708984557.037500000000364-.420001220703853-.310900878906068.096002197265989-.296606445312136.737200927735103-2.990002441406432,1.424902343750546-5.985302734375182l1.25-5.446203613280886h35.975390624999818v-16.336096191406796l18.517504882812318.197302246094296c17.262292480469114.184094238281432,18.7322998046875.25439453125,21.685302734375,1.039099121093386,8.212890625,2.181896972656432,13.051000976563046,6.577099609375182,15.527099609375,14.108898925781432.913195800781068,2.781005859375,1.045092773437318,3.847094726562318,1.07440185546875,8.713903808593386.024389648438046,4.139501953125546-.144909667968932,6.197998046875-.665808105468386,8.119702148437682-2.266101074218568,8.36859130859375-8.302392578125364,14.235589599609739-16.927001953125,16.452789306640625-3.169592285156796.815600585937318-10.675891113281068,1.33160400390625-19.705895996094114,1.354400634765625l-6.832299804686954.017901611327943v29.30889892578125h-14.338696289062682c-8.240502929687864,0-14.177404785156796-.146502685546693-13.960900878906614-.346697998046693h.001599121093932ZM161.005310058632858,94.10358886711856c2.760888671875364-.819995117187318,5.24029541015625-3.210095214843932,5.909289550781068-5.699597167968932,1.258410644531068-4.674291992187136-1.346301269531068-9.401501464843932-5.89459228515625-10.694592285156432-.788000488280886-.224011230468932-4.330297851562136-.521105957031068-7.869396972656432-.660302734374454l-6.43670654296875-.2528076171875v18.467004394530704l6.075305175781978-.26190185546875c3.670996093749636-.158398437500182,6.921899414061954-.513598632812318,8.216101074218386-.897595214843932v-.000207519530704Z"/>
      <path class="cls-2" d="M118.414306640664108,139.947192382743197c.206701660155886-.190502929687682,1.285998535156068-.642999267577579,2.397900390625182-1.002801513671329,9.479296874999818-3.073498535156432,16.780493164062136-14.809100341797603,16.7886962890625-26.98590087890625.004797363280886-7.030895996093932-2.114697265625182-12.499200439453489-6.731494140624818-17.358489990234375-3.135302734375728-3.300000000000182-6.467700195313228-5.4010009765625-10.890698242187682-6.866308593750546-2.90740966796875-.962902832031432-3.724609375-1.051892089843932-9.902600097656432-1.0791015625-6.314599609375364-.027697753906068-6.949499511718386.038903808594114-10.2030029296875,1.0736083984375-1.908300781249636.606701660156432-3.737194824218932,1.205798339843568-4.064398193359011,1.331298828125-.384197998047057.147497558594296-.533001708984557.037500000000364-.420001220703853-.310900878906068.096002197265989-.296606445312136.737200927735103-2.990002441406432,1.424902343750546-5.985302734375182l1.25-5.446203613280886h35.975390624999818v-16.336096191406796l18.517504882812318.197302246094296c17.262292480469114.184094238281432,18.7322998046875.25439453125,21.685302734375,1.039099121093386,8.212890625,2.181896972656432,13.051000976563046,6.577099609375182,15.527099609375,14.108898925781432.913195800781068,2.781005859375,1.045092773437318,3.847094726562318,1.07440185546875,8.713903808593386.024389648438046,4.139501953125546-.144909667968932,6.197998046875-.665808105468386,8.119702148437682-2.266101074218568,8.36859130859375-8.302392578125364,14.235589599609739-16.927001953125,16.452789306640625-3.169592285156796.815600585937318-10.675891113281068,1.33160400390625-19.705895996094114,1.354400634765625l-6.832299804686954.017901611327943v29.30889892578125h-14.338696289062682c-8.240502929687864,0-14.177404785156796-.146502685546693-13.960900878906614-.346697998046693h.001599121093932ZM161.005310058632858,94.10358886711856c2.760888671875364-.819995117187318,5.24029541015625-3.210095214843932,5.909289550781068-5.699597167968932,1.258410644531068-4.674291992187136-1.346301269531068-9.401501464843932-5.89459228515625-10.694592285156432-.788000488280886-.224011230468932-4.330297851562136-.521105957031068-7.869396972656432-.660302734374454l-6.43670654296875-.2528076171875v18.467004394530704l6.075305175781978-.26190185546875c3.670996093749636-.158398437500182,6.921899414061954-.513598632812318,8.216101074218386-.897595214843932v-.000207519530704Z"/>
    </g>
  </g>
</svg>