<?xml version="1.0" encoding="UTF-8"?>
<svg id="Ebene_1" xmlns="http://www.w3.org/2000/svg" xmlns:xlink="http://www.w3.org/1999/xlink" viewBox="0 0 200.000000000001819 200">
  <defs>
    <style>
      .cls-1 {
        fill: #cfd8e5;
      }

      .cls-2, .cls-3 {
        fill: none;
      }

      .cls-4 {
        clip-path: url(#clippath-1);
      }

      .cls-3 {
        stroke: #172d4d;
        stroke-miterlimit: 10;
        stroke-width: 6px;
      }

      .cls-5 {
        clip-path: url(#clippath);
      }
    </style>
    <clipPath id="clippath">
      <rect class="cls-2" x=".000000000003638" y=".00000000458931" width="200" height="200"/>
    </clipPath>
    <clipPath id="clippath-1">
      <rect class="cls-2" x=".000000000003638" y=".00000000458931" width="200" height="200"/>
    </clipPath>
  </defs>
  <g class="cls-5">
    <g class="cls-4">
      <path class="cls-1" d="M34.838378906253638,42.12567139130806S57.688378906254002-12.048315425097826,126.92237548828507,8.194677738963946c.381994628905886.11199951171875.759997558593568.23699951171875,1.13299560546875.376000976562864,27.34600830078125,10.181994628906068,32.72601318359375,21.997998046875182,37.073010253906432,33.386999511718386.153002929687318.400000000000546.291003417968568.804003906250728.411999511718022,1.215002441406796,15.581994628906614,53.214990234374454-52.291003417968568,67.8389892578125-53.038000488280886,89.776989746093932-.108007812499636,18.014001464843204-45.520001220703307,21.25-32.360003662109193-20.170996093750546,11.280004882812136-35.503002929687682,43.163995361327579-25.121997070312318,45.183001708984193-48.53399658203125.71099853515625-8.239001464843568.61199951171875-14.875-5.2760009765625-21.320996093750182-1.994006347656068-2.183007812499454-4.542004394531432-3.785998535156068-7.353002929687136-4.7030029296875-47.491998291015989-15.488000488280704-37.483996582031978,47.073999023437864-70.417996215820494,31.18499755859375-6.149002075195312-2.967004394530704-10.025000000000546-9.256994628905886-9.805001831055051-16.08099365234375.205001831054688-6.347009277343204,2.366000366210756-11.198010253905522,2.366000366210756-11.198010253905522l-.000997924804324-.001000976562864Z"/>
      <path class="cls-3" d="M34.838378906253638,42.12567139130806S57.688378906254002-12.048315425097826,126.92237548828507,8.194677738963946c.381994628905886.11199951171875.759997558593568.23699951171875,1.13299560546875.376000976562864,27.34600830078125,10.181994628906068,32.72601318359375,21.997998046875182,37.073010253906432,33.386999511718386.153002929687318.400000000000546.291003417968568.804003906250728.411999511718022,1.215002441406796,15.581994628906614,53.214990234374454-52.291003417968568,67.8389892578125-53.038000488280886,89.776989746093932-.108007812499636,18.014001464843204-45.520001220703307,21.25-32.360003662109193-20.170996093750546,11.280004882812136-35.503002929687682,43.163995361327579-25.121997070312318,45.183001708984193-48.53399658203125.71099853515625-8.239001464843568.61199951171875-14.875-5.2760009765625-21.320996093750182-1.994006347656068-2.183007812499454-4.542004394531432-3.785998535156068-7.353002929687136-4.7030029296875-47.491998291015989-15.488000488280704-37.483996582031978,47.073999023437864-70.417996215820494,31.18499755859375-6.149002075195312-2.967004394530704-10.025000000000546-9.256994628905886-9.805001831055051-16.08099365234375.205001831054688-6.347009277343204,2.366000366210756-11.198010253905522,2.366000366210756-11.198010253905522l-.000997924804324-.001000976562864Z"/>
      <path class="cls-1" d="M97.314379882815956,158.426669316112566c10.400598144531614,0,18.831994628906614,8.526699829101744,18.831994628906614,19.044999694824583s-8.431396484375,19.044999694823673-18.831994628906614,19.044999694823673c-10.400604248046875,0-18.832000732421875-8.526699829100835-18.832000732421875-19.044999694823673s8.431396484375-19.044999694824583,18.832000732421875-19.044999694824583"/>
      <ellipse class="cls-3" cx="97.314378356937141" cy="177.471669010937148" rx="18.831996154782711" ry="19.044999694826675"/>
    </g>
  </g>
</svg>