<?xml version="1.0" encoding="UTF-8"?>
<svg id="Ebene_1" xmlns="http://www.w3.org/2000/svg" viewBox="0 0 200 200">
  <defs>
    <style>
      .cls-1 {
        fill: #172d4d;
      }

      .cls-2 {
        fill: #cfd8e5;
      }
    </style>
  </defs>
  <circle class="cls-1" cx="100.12670433407402" cy="100" r="99.123809523809541"/>
  <path class="cls-2" d="M83.253786301291257,47.759544106166686c0-4.331016393440223,1.562259484768219-7.879614051523276,4.691934426227817-10.647081967216764,3.124518969549172-2.76617892271679,7.187424824349364-4.150557377046425,12.17840562060519-4.150557377046425,4.996136768149881,0,9.05388665105238,1.384378454329635,12.183561592501064,4.150557377046425,3.124518969558267,2.767467915693487,4.691934426227817,6.316065573776541,4.691934426227817,10.647081967216764s-1.567415456669551,7.880903044491788-4.691934426227817,10.647081967216764c-3.129674941448684,2.767467915684392-7.187424824351183,4.150557377047335-12.183561592501064,4.150557377047335-4.990980796255826,0-9.053886651056018-1.383089461362943-12.17840562060519-4.150557377047335-3.129674941459598-2.766178922724976-4.691934426227817-6.316065573776541-4.691934426227817-10.647081967216764ZM106.292673958059822,170.561904761898404h-11.971021215189467c-5.115966221615963,0-9.263276277648401-4.147310056034257-9.263276277648401-9.263276277649311v-79.101775313548387c0-5.115966221616873,4.147310056034257-9.26327627765022,9.26327627765022-9.26327627765022l11.971021215187648-.000000000001819c5.115966221614144,0,9.26327627765022,4.147310056037895,9.26327627765022,9.263276277652039v79.101775313548387c0,5.115966221615054-4.147310056036076,9.263276277649311-9.26327627765022,9.263276277649311Z"/>
</svg>