<?xml version="1.0" encoding="UTF-8"?>
<svg id="Ebene_1" data-name="Ebene 1" xmlns="http://www.w3.org/2000/svg" viewBox="0 0 2000 2000">
  <defs>
    <style>
      .cls-1 {
        fill: #172d4d;
      }

      .cls-2, .cls-3 {
        fill: #cfd8e5;
      }

      .cls-4, .cls-5 {
        fill: #fff;
      }

      .cls-3, .cls-5, .cls-6 {
        fill-rule: evenodd;
      }
    </style>
  </defs>
  <path class="cls-1" d="M1988.322027678961604,1318.378948291421693l-82.31984552045833-535.377604995746879-.061868554734247.023867395037087c-1.672051026638655-111.260128702469956-60.194103633817576-208.735036715934257-147.828511340861951-264.646009639765907l-21.450787955471242-95.455446384759853s-6.451396879818276-31.332956200156332-45.482988022245991-46.490685441211099c-3.462772341452364-8.68479837074301-14.736716392841117-28.163792818882939-47.441981138943447-33.730696039594477-42.494630158687869-7.23308740164066-99.455568458059133-4.520671292437328-132.004561768499116,4.520737961140185-32.549259985242315,9.041409253577513-39.782280718183756,23.507650725563508-42.49463015868605,34.357315162375016-.086935986391836.34747727076865-.189072436663992.779090442476445-.304542627180126,1.28417252293184-29.742507663811921,12.27690799256743-37.432609012328612,28.590405838001971-40.611906036187065,41.307527264734745-2.313403932392248,9.253482392163278-12.247040414418734,60.418243807323961-19.50459522940946,98.189596490559779-2.037928858942905,1.366375031539064-4.05399038388714,2.76281764732812-6.058584892218278,4.174527395696714h-802.019142200482747c-3.143829274808013-2.277736177238694-6.325259697106958-4.506604196481931-9.553891559868134-6.671203587746277-7.257554814990726-37.771352683235818-17.191191297017212-88.936114098396502-19.50459522940946-98.189596490559779-3.179297023858453-12.717121426734593-10.869398372375144-29.030619272167314-40.611906036187065-41.307527264734745-.115470190516135-.505082080455395-.21760664078829-.936695252165009-.304542627180126-1.28417252293184-2.712349440502294-10.849664436813327-9.945370173443735-25.315905908797504-42.494630158687869-34.357315162375016-32.548993310438163-9.041409253577513-89.509931609809428-11.753825362780844-132.004561768497297-4.520737961140185-32.70526474610233,5.566903220709719-43.979208797491083,25.045897668849648-47.441981138943447,33.730696039594477-39.031591142429534,15.157729241054767-45.482988022245991,46.490685441211099-45.482988022245991,46.490685441211099l-21.450787955473061,95.455446384759853c-87.634407707042556,55.91097292383165-146.156460314221476,153.385880937295951-147.828511340860132,264.646009639765907l-.061868554734247-.023867395037087L11.677972321038396,1315.882205430672911c-2.597145924790311,13.203469602143741-3.971854543980953,26.845752595731028-3.971854543980953,40.810712103229889,0,116.127677247361135,94.139939572252842,210.267750157017872,210.267750157019691,210.267750157017872,82.312378625922065,0,153.5654864183889-47.3041102648167,188.089740008623266-116.203546229353378l128.066841599542386-234.164746097718307c38.03582742098115,61.722550278027484,104.655193803739166,102.641532352041395,180.484441248059738,102.641532352041395,94.261809958086815,0,174.29411900222658-63.227662876808608,202.877124614391505-151.04940963428453h164.234878687098899c27.870183858702148,89.11418619936012,108.507844709934943,153.546152495033311,203.658215117904547,153.546152495033311,75.829247444320572,0,142.448613827078589-40.918982074013911,180.484441248059738-102.641665689439833l128.066841599542386,234.164746097714669c34.524253590234366,68.899435964540316,105.777361382701201,116.203546229357016,188.089740008623266,116.203546229357016,116.127810584766848,0,210.267750157019691-94.139939572254661,210.267750157019691-210.26775015702151,0-13.964959507498861-1.374708619190642-27.607242501086148-3.971854543980953-40.810578765827813Z"/>
  <ellipse class="cls-2" cx="710.865663494733326" cy="1084.532769575064322" rx="147.928628681895589" ry="153.53525309258066"/>
  <ellipse class="cls-2" cx="1289.125816301534542" cy="1087.02945528031978" rx="147.928628681896043" ry="153.535253092582025"/>
  <ellipse class="cls-2" cx="1595.795421562959291" cy="633.880997809966175" rx="73.173385504395355" ry="69.907200052205553"/>
  <ellipse class="cls-2" cx="1432.26250715512424" cy="781.185455062824531" rx="73.173385504395355" ry="69.907200052205098"/>
  <ellipse class="cls-2" cx="1759.328335970794342" cy="783.682140778974372" rx="73.173385504395355" ry="69.907200052204189"/>
  <ellipse class="cls-2" cx="1595.795421562959291" cy="930.986598031833182" rx="73.173385504395355" ry="69.907200052205098"/>
  <path class="cls-2" d="M468.201597702469371,705.032771293033875l.003200097658919-.00253341064672h-.003200097658919v-67.774170011845854c0-9.447872809081673-7.659014194363408-17.106887003443262-17.106887003445081-17.106887003443262h-83.130340362966308c-9.447872809081673,0-17.106887003445081,7.659014194361589-17.106887003445081,17.106887003443262v67.774170011845854h-.00160004882855l.00160004882855.00126670532336v.005000152592402h.006133520513686l47.812673927775904,39.248918807432347c6.309347140246246,5.179276398755974,15.399010739802179,5.179266267254206,21.708346334205999-.000024196511731l47.812427115677565-39.248894610920615h.004533471683317v-.003733447269042Z"/>
  <path class="cls-2" d="M468.201597702469371,863.021140889008166l.003200097658919.00253341064672h-.003200097658919v67.774170011847673c0,9.447872809079854-7.659014194363408,17.106887003443262-17.106887003445081,17.106887003443262h-83.130340362966308c-9.447872809081673,0-17.106887003445081-7.659014194363408-17.106887003445081-17.106887003443262v-67.774170011847673h-.00160004882855l.00160004882855-.00126670532336v-.005000152592402h.006133520513686l47.812673927775904-39.248918807432347c6.309347140246246-5.179276398754155,15.399010739802179-5.179266267252387,21.708346334205999.00002419651355l47.812427115677565,39.248894610918796h.004533471683317v.003733447269042Z"/>
  <path class="cls-2" d="M330.536155746602162,725.355698926963669l-.00253341064672-.003200097658919v.003200097658919l-67.774170011845854-.000000003044988c-9.447872809081673-.000000000422006-17.106887003787051,7.659014193595794-17.106887004210876,17.106887002677468l-.000000003732566,83.130340362966308c-.000000000423825,9.447872809081673,7.659014193592157,17.10688700378887,17.106887002675649,17.106887004210876l67.774170011845854.000000003044988v.00160004882855l.00126670532336-.00160004882855h.005000152590583v-.006133520511867l39.248918809580573-47.812673926015123c5.179276399039736-6.309347140013415,5.179266267943603-15.399010739569349-.000024195536753-21.708346334205999l-39.248894608774208-47.812427117438347v-.004533471683317h-.003733447269042Z"/>
  <path class="cls-2" d="M488.524525342576453,725.355698934055908l.00253341064672-.003200097658919v.003200097658919l67.774170011847673.00000000304135c9.447872809079854.000000000425644,17.106887003099473,7.659014195132841,17.10688700267383,17.106887004214514l-.000000003730747,83.130340362966308c-.000000000425644,9.447872809081673-7.659014195131022,17.106887003099473-17.106887004210876,17.106887002675649l-67.774170011847673-.000000003043169v.001600048830369l-.001266705321541-.001600048830369h-.005000152592402v-.006133520511867l-39.248918805287758-47.812673929538505c-5.179276398472211-6.309347140479076-5.17926626656299-15.39901074003501.000024197486709-21.708346334205999l39.248894613068842-47.812427113914964v-.004533471683317h.003733447267223Z"/>
  <path class="cls-3" d="M930.194624470743292,665.833879298796091l33.911200013859343-67.650056326419872h100.879983363642168l103.299422878624682,256.96678187489124h-88.652401776023908l-23.881289547698543-75.189780742486619h-98.394797568736976l-33.434725225048169,75.189780742486619h-92.154268290258187l69.860842798827434-137.087361884821803s-24.321429935002016-5.242366603279152-40.610047199321343,5.927908665717041c-17.411979430544307,11.940456084974358-17.071914905378435-20.378245202124162,7.012247613962245-39.295779063701048,24.084165467605999-18.9171446907676,44.840354486575961-23.108797292999952,62.163832938171254-18.861493265665558"/>
  <path class="cls-5" d="M972.173722720754085,664.529661794038475c6.434281467734763-12.937452721889713,19.838985194188353-21.837818512898593,35.316149412161394-21.837818512898593,21.743845450811932,0,39.397065953988204,17.566940169230293,39.397065953988204,39.204577475220503,0,21.637649099044211-17.653220503176271,39.204595164803322-39.397065953988204,39.204595164803322-13.415951269766083,0-25.274638729390063-6.687263457486551-32.384352932409456-16.898409588189679,4.284603631482241,3.028102653866881,9.53560802402535,4.807627435026006,15.205210460158924,4.807627435026006,14.462280625473795,0,26.204194906456905-11.580284401554309,26.204194906456905-25.843984054370594,0-14.263310482010638-11.74191428098311-25.843594883564947-26.204194906456905-25.843594883564947-7.037540493503911,0-13.431082175404299,2.741755492834272-18.137006939910862,7.207006963973981Z"/>
  <path class="cls-6" d="M972.173722720754085,664.529661794038475c4.705924764506562-4.465251471139709,11.09946644640695-7.207006963973981,18.137006939910862-7.207006963973981,14.462280625473795,0,26.204194906456905,11.580284401554309,26.204194906456905,25.843594883564947,0,14.263699652816285-11.74191428098311,25.843984054370594-26.204194906456905,25.843984054370594-5.669602436133573,0-10.920606828676682-1.779524781159125-15.205210460158924-4.807627435026006-4.423102327997185-6.328648457285453-7.012713021578747-14.019088112347163-7.012713021578747-22.306185576613643,0-6.235896082112959,1.466087672184585-12.133661700032462,4.080916541826809-17.36675896232191Z"/>
  <ellipse class="cls-4" cx="983.326711092079677" cy="684.184120057352629" rx="9.853698642918062" ry="9.427851437905701"/>
</svg>