<?xml version="1.0" encoding="UTF-8"?>
<svg id="Ebene_1" data-name="Ebene 1" xmlns="http://www.w3.org/2000/svg" viewBox="0 0 2000 2000">
  <defs>
    <style>
      .cls-1 {
        fill: #172d4d;
      }

      .cls-2, .cls-3 {
        fill: #fff;
      }

      .cls-3, .cls-4, .cls-5 {
        fill-rule: evenodd;
      }

      .cls-4, .cls-6 {
        fill: #e9f2fa;
      }
    </style>
  </defs>
  <path class="cls-1" d="M1988.322027678959785,1318.378948291419874l-82.319845520460149-535.37760499574506-.061868554730609.023867395037087c-1.672051026638655-111.260128702469956-60.194103633819395-208.735036715934257-147.828511340860132-264.646009639765907l-21.450787955469423-95.455446384759853s-6.451396879820095-31.332956200156332-45.482988022249629-46.490685441211099c-3.462772341448726-8.68479837074301-14.736716392839298-28.163792818882939-47.441981138939809-33.730696039594477-42.494630158689688-7.23308740164066-99.455568458060952-4.520671292437328-132.004561768500935,4.520737961140185-32.549259985238677,9.041409253577513-39.782280718189213,23.507650725563508-42.494630158689688,34.357315162375016-.086935986390017.34747727076865-.189072436660354.779090442476445-.304542627178307,1.28417252293184-29.742507663810102,12.27690799256743-37.432609012330431,28.590405838001971-40.611906036190703,41.307527264734745-2.313403932390429,9.253482392163278-12.247040414409639,60.418243807323961-19.504595229411279,98.189596490559779-2.037928858939267,1.366375031539064-4.053990383879864,2.76281764732812-6.058584892209183,4.174527395696714h-802.019142200490023c-3.143829274798918-2.277736177238694-6.325259697099682-4.506604196481931-9.553891559859039-6.671203587746277-7.25755481500164-37.771352683235818-17.19119129702085-88.936114098396502-19.504595229411279-98.189596490559779-3.179297023860272-12.717121426734593-10.869398372380601-29.030619272166405-40.611906036190703-41.307527264734745-.115470190517954-.505082080455395-.21760664078829-.936695252165009-.304542627178307-1.28417252293184-2.712349440500475-10.849664436813327-9.945370173440097-25.315905908797504-42.494630158689688-34.357315162375016-32.548993310439982-9.041409253577513-89.509931609811247-11.753825362780844-132.004561768500935-4.520737961140185-32.705264746100511,5.566903220709719-43.979208797491083,25.045897668849648-47.441981138939809,33.730696039595387-39.031591142429534,15.157729241053858-45.482988022249629,46.490685441210189-45.482988022249629,46.490685441210189l-21.450787955469423,95.455446384759853c-87.634407707040737,55.91097292383165-146.156460314221476,153.385880937295951-147.828511340860132,264.646009639765907l-.061868554730609-.023867395037087L11.677972321040215,1315.882205430669273c-2.597145924790311,13.203469602151017-3.971854543980953,26.845752595731028-3.971854543980953,40.810712103229889,0,116.127677247361135,94.139939572251023,210.26775015702151,210.26775015702151,210.26775015702151,82.312378625920246,0,153.5654864183889-47.304110264820338,188.089740008619628-116.20354622934974l128.066841599540567-234.164746097721945c38.035827420979331,61.722550278031122,104.655193803739166,102.641532352041395,180.484441248059738,102.641532352041395,94.261809958088634,0,174.294119002228399-63.227662876810427,202.877124614389686-151.049409634280892h164.234878687098899c27.870183858711243,89.11418619936012,108.5078447099404,153.546152495029673,203.658215117910004,153.546152495029673,75.829247444320572,0,142.448613827080408-40.918982074008454,180.484441248059738-102.641665689439833l128.066841599540567,234.164746097711031c34.524253590230728,68.899435964540316,105.777361382699382,116.203546229360654,188.089740008619628,116.203546229360654,116.127810584770486,0,210.26775015702151-94.139939572251023,210.26775015702151-210.26775015702151,0-13.964959507498861-1.374708619190642-27.607242501089786-3.971854543980953-40.810578765829632Z"/>
  <ellipse class="cls-6" cx="710.865663494731962" cy="1084.532769575063867" rx="147.928628681892405" ry="153.535253092586572"/>
  <ellipse class="cls-6" cx="1289.125816301534996" cy="1087.02945528031978" rx="147.928628681895589" ry="153.535253092580206"/>
  <ellipse class="cls-6" cx="1595.795421562957472" cy="633.880997809966175" rx="73.173385504393536" ry="69.907200052205553"/>
  <ellipse class="cls-6" cx="1432.262507155124695" cy="781.185455062824531" rx="73.173385504394901" ry="69.907200052205098"/>
  <ellipse class="cls-6" cx="1759.328335970794797" cy="783.682140778974372" rx="73.173385504394901" ry="69.907200052204189"/>
  <ellipse class="cls-6" cx="1595.795421562957472" cy="930.986598031833637" rx="73.173385504393536" ry="69.907200052206463"/>
  <path class="cls-6" d="M468.201597702469371,705.032771293033875l.003200097660738-.00253341064672h-.003200097660738v-67.774170011845854c0-9.447872809081673-7.65901419435977-17.106887003443262-17.106887003448719-17.106887003443262h-83.130340362960851c-9.447872809079854,0-17.106887003450538,7.659014194361589-17.106887003450538,17.106887003443262v67.774170011845854h-.00160004882855l.00160004882855.00126670532336v.005000152592402h.006133520520962l47.812673927770447,39.248918807432347c6.309347140249884,5.179276398755974,15.39901073980036,5.179266267255116,21.708346334209637-.000024196511731l47.812427115679384-39.248894610920615h.004533471679679v-.003733447269042Z"/>
  <path class="cls-6" d="M468.201597702469371,863.021140889008166l.003200097660738.00253341064672h-.003200097660738v67.774170011847673c0,9.447872809079854-7.65901419435977,17.106887003443262-17.106887003448719,17.106887003443262h-83.130340362960851c-9.447872809079854,0-17.106887003450538-7.659014194363408-17.106887003450538-17.106887003443262v-67.774170011847673h-.00160004882855l.00160004882855-.00126670532336v-.005000152592402h.006133520520962l47.812673927770447-39.248918807432347c6.309347140249884-5.179276398754155,15.39901073980036-5.179266267252387,21.708346334209637.00002419651355l47.812427115679384,39.248894610918796h.004533471679679v.003733447269042Z"/>
  <path class="cls-6" d="M330.536155746600343,725.355698926963669l-.002533410641263-.003200097658919v.003200097658919l-67.774170011849492-.000000003044988c-9.447872809079854-.000000000422006-17.10688700378887,7.659014193596704-17.106887004209057,17.106887002677468l-.000000003730747,83.130340362967218c-.000000000429281,9.447872809080764,7.659014193590338,17.106887003787961,17.106887002670192,17.106887004209966l67.774170011849492.000000003044988v.00160004882855l.001266705321541-.00160004882855h.005000152588764v-.006133520510957l39.248918809580573-47.812673926016032c5.179276399039736-6.309347140013415,5.17926626794906-15.399010739569349-.000024195529477-21.708346334205999l-39.248894608781484-47.812427117438347v-.004533471683317h-.003733447269042Z"/>
  <path class="cls-6" d="M488.524525342580091,725.355698934055908l.002533410639444-.003200097658919v.003200097658919l67.774170011851311.00000000304135c9.447872809079854.000000000425644,17.106887003099473,7.659014195132841,17.106887002668373,17.106887004214514l-.000000003728928,83.130340362966308c-.000000000420187,9.447872809081673-7.659014195131022,17.106887003099473-17.106887004210876,17.106887002675649l-67.774170011838578-.000000003043169v.001600048830369l-.001266705330636-.001600048830369h-.005000152590583v-.006133520511867l-39.248918805289577-47.812673929538505c-5.179276398470392-6.309347140479076-5.179266266559353-15.39901074003501.000024197490347-21.708346334205999l39.248894613068842-47.812427113914964v-.004533471683317h.003733447270861Z"/>
  <path class="cls-4" d="M930.194624470739654,665.833879298796091l33.911200013859343-67.650056326419872h100.879983363651263l103.299422878619225,256.966781874892149h-88.65240177602027l-23.881289547698543-75.189780742487528h-98.394797568740614l-33.434725225049988,75.189780742487528h-92.154268290260006l69.860842798829253-137.087361884822712s-24.321429935000197-5.242366603279152-40.610047199319524,5.927908665717041c-17.411979430540669,11.940456084974358-17.071914905380254-20.378245202124162,7.012247613960426-39.295779063701048,24.084165467609637-18.9171446907676,44.840354486579599-23.108797292999952,62.163832938169435-18.861493265665558"/>
  <path class="cls-3" d="M972.173722720750447,664.529661794039384c6.43428146774022-12.937452721890622,19.838985194190172-21.837818512899503,35.31614941216867-21.837818512899503,21.743845450811932,0,39.397065953980928,17.566940169230293,39.397065953980928,39.204577475220503,0,21.637649099044211-17.653220503168995,39.204595164803322-39.397065953980928,39.204595164803322-13.415951269769721,0-25.274638729388244-6.687263457486551-32.384352932409456-16.898409588189679,4.284603631480422,3.028102653866881,9.535608024019893,4.807627435026006,15.205210460160743,4.807627435026006,14.462280625470157,0,26.204194906449629-11.580284401554309,26.204194906449629-25.843984054369685,0-14.263310482011548-11.741914280979472-25.843594883565856-26.204194906449629-25.843594883565856-7.037540493509368,0-13.431082175409756,2.741755492834272-18.137006939919956,7.207006963974891Z"/>
  <path class="cls-5" d="M972.173722720750447,664.529661794039384c4.7059247645102-4.465251471140618,11.099466446410588-7.207006963974891,18.137006939919956-7.207006963974891,14.462280625470157,0,26.204194906449629,11.580284401554309,26.204194906449629,25.843594883565856,0,14.263699652815376-11.741914280979472,25.843984054369685-26.204194906449629,25.843984054369685-5.669602436140849,0-10.92060682868032-1.779524781159125-15.205210460160743-4.807627435026006-4.423102327999004-6.328648457285453-7.012713021578747-14.019088112347163-7.012713021578747-22.306185576613643,0-6.235896082112959,1.466087672179128-12.133661700032462,4.080916541819533-17.366758962321001Z"/>
  <ellipse class="cls-2" cx="983.326711092080131" cy="684.184120057352629" rx="9.853698642919426" ry="9.427851437905701"/>
</svg>