<?xml version="1.0" encoding="UTF-8"?>
<svg id="Ebene_1" data-name="Ebene 1" xmlns="http://www.w3.org/2000/svg" viewBox="0 0 2000 2000">
  <defs>
    <style>
      .cls-1 {
        fill: #cfd8e5;
        fill-rule: evenodd;
        stroke: #172d4d;
        stroke-miterlimit: 10;
        stroke-width: 60px;
      }
    </style>
  </defs>
  <path class="cls-1" d="M1529.928011856318335,1759.160513102102414l-358.276963660511683-358.283273375311182-171.488962193259795-171.486438307338176-229.556005527123489-229.556005527125308,229.225628860353027-229.225565763204941,171.488962193256157-171.486501404486262,358.277216049107665-358.283210278164916c23.666478260602162-23.660420934396825,23.666478260602162-62.077876641729745,0-85.744481096628078l-85.738423770424561-85.73829757612657c-23.666478260602162-23.666604454898334-62.084060162229434-23.666604454898334-85.744481096626259,0l-358.283273375313001,358.277089854809674-171.486438307339995,171.48889909610989-269.165113971019309,269.165113971019309c-1.0358027810762.904308324707017-2.056714635229582,1.83429718863772-3.043301640889695,2.820884194296013l-85.743219153668178,85.743219153669997c-3.759328076055681,3.759264978907595-6.915952194700367,7.893263919608216-9.48072506538665,12.279272869302076-13.95557479942363,23.289346607183688-10.910758826979873,53.955759366433995,9.15034839861255,74.016740397732065l85.743219153671816,85.743219153669997c2.075139002437936,2.075139002437936,4.269405420243856,3.957453120679929,6.551755456614046,5.668647773627526l266.31741348883952,266.317413488837701,171.486438307336357,171.488962193257976,358.283273375313001,358.276963660513502c23.660420934396825,23.666730649194506,62.077750447435392,23.666730649194506,85.744481096626259,0l85.738171381832217-85.738171381832217c23.666730649194506-23.666730649192687,23.666730649194506-62.084060162231253,0-85.744481096628078Z"/>
</svg>