<svg viewBox="0 0 2000 2000" xmlns="http://www.w3.org/2000/svg" style="fill-rule:evenodd;clip-rule:evenodd;stroke-linejoin:round;stroke-miterlimit:2">
    <path style="fill:#b9bec6" d="M-1024 1191.65h825.427v714.841H-1024z" transform="matrix(1.15772 -.66841 1.33682 .77181 -365.471 -155.909)"/>
    <path style="fill:#e3e5e8" d="M-1024 1191.65h825.427v714.841H-1024z" transform="matrix(1.15772 .66841 0 1.2542 2183.17 -810.113)"/>
    <path style="fill:#8f97a3" d="M-1024 1191.65h825.427v714.841H-1024z" transform="matrix(1.15772 -.66841 0 1.2542 1227.55 -1627.29)"/>
    <path d="m1072.72 524.367.51-.292.34.777.51-.295.34.791.51-.291.34.777.51-.295.34.791.51-.292.34.777.51-.295.34.791.51-.292.34.777.51-.295.34.79.51-.291.34.777.51-.295.34.791.51-.292.34.777.51-.295.34.791.51-.292.34.778.51-.296.34.791.51-.292.34.777.51-.295.34.791.51-.291.34.777.51-.295.34.791.51-.292.34.777.51-.295.34.791.51-.292.34.791.51-.292.34.777.51-.295.34.791.51-.292.34.777.51-.295.34.791.51-.292.34.778.51-.296.34.791.51-.292.34.778.51-.296.35.791.5-.291.34.776.51-.294.34.791.51-.292.34.777.51-.295.35.791.5-.292.34.777.51-.295.35.791.5-.292.34.777.51-.295.35.79.5-.291.34.777.51-.295.35.791.5-.292.34.778.51-.296.35.791.5-.292.34.778.51-.296.35.791.5-.291.34.776.51-.294.35.791.5-.292.34.777.51-.295.35.791.5-.292.34.777.51-.295.35.791.5-.292.34.777.51-.295.35.79.5-.291.34.777.51-.295.35.791.5-.292.34.778.51-.296.35.791.5-.292.34.778.51-.296.35.791.5-.291.34.776.51-.294.35.791.5-.292.35.791.5-.292.34.777.51-.295.35.791.5-.292.34.777.51-.295.35.791.5-.292.34.777.51-.295.35.791.5-.292.34.778.51-.296.35.791.5-.292.34.778.51-.296.35.791.5-.291.34.777.51-.295.35.791.5-.292.34.776.51-.294.35.791.5-.292.34.777.51-.295.35.791.5-.292.34.777.51-.295.35.791.5-.292.34.777.51-.295.35.79.5-.291.34.778.51-.296.35.791.5-.292.34.778.51-.296.35.791.5-.291.34.777.52-.295.34.791.51-.292.33.776.51-.294.35.791.5-.292.34.777.51-.295.35.791.51-.292.33.777.52-.295.34.791.5-.292.34.777.52-.295.34.79.5-.291.34.778.52-.296.34.791.51-.292.33.778.51-.296.35.791.51-.291.34.791.51-.292.34.777.51-.295.34.79.51-.291.33.777.51-.295.35.791.51-.292.33.777.52-.295.34.791.51-.292.34.777.51-.295.34.791.51-.292.34.777.51-.295.34.791.51-.292.33.778.52-.296.34.791.51-.291.33.777.52-.295.34.791.51-.292.34.777.51-.295.34.791.51-.292.34.776.51-.294.34.791.51-.292.34.777.51-.295.34.791.51-.292.34.777.51-.295.34.791.51-.292.34.778.51-.296.34.791.51-.292.34.778.51-.296.34.791.51-.291.34.777.51-.295.34.791.51-.292.34.777.51-.295.34.791.51-.292.34.776.51-.294.34.791.51-.292.34.777.51-.295.34.791.51-.292.34.777.51-.295.34.791.51-.292.34.791.51-.292.34.777.51-.295.34.792.51-.292.34.777.51-.295.34.791.51-.292.34.777.51-.295.34.791.51-.292.34.777.51-.295.34.79.51-.291.34.777.51-.295.34.791.51-.292.34.777.51-.295.34.791.51-.292.34.778.51-.296.35.791.5-.292.34.777.51-.295.34.791.51-.291.34.777.51-.295.34.791.51-.292.34.777.51-.295.35.791.5-.292.34.777.51-.295.35.79.5-.291.34.777.51-.295.35.791.5-.292.34.777.51-.295.34.791.51-.292.34.778.51-.296.35.791.5-.292.34.778.51-.296.35.791.5-.291.34.777.51-.295.35.791.5-.292.34.777.51-.295.35.791.5-.292.34.777.51-.295.35.791.5-.292.34.777.51-.295.35.791.5-.292.35.791.5-.292.34.778.51-.296.35.791.5-.292.34.778.51-.296.35.791.5-.291.34.776.51-.294.35.791.5-.292.34.777.51-.295.35.791.5-.292.34.777.51-.295.35.791.5-.292.34.777.51-.295.35.79.5-.291.34.777.51-.295.35.791.5-.292.34.778.51-.296.35.791.5-.292.34.778.51-.296.35.791.5-.291.34.776.51-.294.35.791.5-.292.34.777.51-.295.35.791.5-.292.34.777.51-.295.35.791.5-.292.34.777.51-.295.35.79.5-.291.34.777.51-.295.35.791.5-.292.34.778.51-.296.35.791.5-.292.34.778.52-.296.34.791.5-.291.34.777.52-.295.34.79.5-.291.34.777.51-.295.35.791.51-.292.33.777.51-.295.35.791.51-.292.34.791.51-.292.33.777.52-.295.34.79.5-.291.34.778.51-.296.35.791.51-.292.33.778.51-.296.35.791.51-.291.33.777.52-.295.34.791.51-.292.34.776.51-.294.34.791.5-.292.34.777.52-.295.34.791.51-.292.33.777.52-.295.34.791.51-.292 268.46 616.143-230.4 133.02-.27-.83-.58.33-.26-.82-.59.34-.27-.83-.58.33-.27-.82-.58.34-.27-.83-.58.33-.27-.82-.58.34-.27-.83-.58.33-.27-.82-.58.34-.27-.84-.58.34-.27-.82-.58.34-.27-.84-.58.34-.27-.82-.58.34-.27-.84-.58.34-.27-.82-.58.33-.27-.83-.58.33-.27-.83-.58.34-.27-.82-.58.33-.27-.83-.58.33-.27-.81-.58.33-.27-.83-.58.33-.27-.82-.58.34-.27-.83-.58.33-.27-.82-.58.34-.27-.83-.58.33-.27-.82-.58.34-.27-.83-.58.33-.27-.82-.58.34-.27-.83-.58.33-.27-.82-.58.34-.27-.84-.58.34-.27-.82-.58.33-.27-.83-.58.34-.27-.82-.58.33-.27-.83-.58.33-.27-.81-.58.33-.27-.83-.58.33-.27-.82-.58.34-.27-.83-.58.33-.27-.82-.58.34-.27-.83-.58.33-.27-.82-.58.34-.27-.83-.58.33-.27-.82-.58.34-.27-.84-.58.34-.27-.82-.58.34-.27-.84-.58.34-.27-.82-.58.34-.28-.84-.57.34-.27-.82-.58.34-.27-.84-.58.34-.27-.82-.58.33-.27-.83-.58.33-.27-.81-.58.33-.27-.83-.58.33-.28-.83-.57.33-.27-.81-.58.33-.27-.83-.58.33-.27-.81-.58.33-.27-.83-.58.33-.27-.82-.58.34-.27-.83-.58.33-.27-.82-.58.34-.28-.83-.57.33-.27-.82-.58.34-.28-.84-.57.34-.27-.82-.58.34-.28-.84-.57.34-.27-.82-.58.34-.28-.84-.57.34-.27-.82-.58.33-.28-.83-.57.34-.27-.82-.58.33-.28-.83-.57.33-.27-.81-.58.33-.28-.83-.57.33-.27-.82-.58.34-.28-.83-.58.33-.26-.82-.58.34-.28-.83-.57.33-.27-.82-.58.34-.28-.83-.57.33-.27-.82-.59.34-.27-.83-.57.33-.27-.82-.59.34-.27-.84-.57.34-.27-.82-.58.33-.28-.83-.58.34-.26-.82-.58.33-.28-.83-.58.33-.26-.81-.59.33-.27-.83-.58.33-.26-.81-.59.33-.27-.83-.57.33-.28-.83-.58.33-.26-.82-.59.34-.27-.83-.58.33-.26-.82-.59.34-.27-.83-.58.33-.26-.82-.59.34-.27-.83-.58.33-.26-.82-.59.34-.27-.83-.58.33-.26-.82-.59.34-.27-.84-.58.34-.26-.82-.59.34-.27-.84-.58.34-.26-.82-.59.33-.27-.83-.58.33-.26-.81-.59.33-.27-.83-.58.33-.26-.81-.59.33-.27-.83-.58.33-.27-.81-.58.33-.27-.83-.58.33-.26-.82-.59.34-.27-.83-.58.33-.26-.82-.59.34-.27-.83-.58.33-.26-.82-.59.34-.27-.84-.58.34-.27-.82-.58.34-.27-.84-.58.34-.27-.82-.58.34-.27-.84-.58.34-.27-.82-.58.33-.27-.83-.58.34-.27-.82-.58.33-.27-.83-.58.33-.26-.81-.59.33-.27-.83-.58.33-.27-.83-.58.33-.27-.81-.58.33-.27-.83-.58.33-.27-.82-.58.34-.27-.83-.58.33-.27-.82-.58.34-.27-.83-.58.33-.27-.82-.58.34-.27-.83-.58.33-.27-.82-.58.34-.27-.84-.58.34-.27-.82-.58.34-.27-.84-.58.34-.27-.82-.58.33-.27-.83-.58.34-.27-.82-.58.33-.27-.83-.58.33-.27-.81-.58.33-.27-.83-.58.33-.27-.82-.58.34-.27-.83-.58.33-.27-.82-.58.34-.27-.83-.58.33-.27-.82-.58.34-.27-.83-.58.33-.27-.82-.58.34-.27-.83-.58.33-.27-.82-.58.34-.27-.84-.58.34-.27-.82-.58.34-.27-.84-.58.34-.27-.82-.58.33-.27-.83-.58.33-.27-.81-.58.33-.27-.83-.58.33-.27-.81-.58.33-.27-.83-.58.33-.27-.81-.58.33-.27-.83-.58.33-.28-.83-.57.33-.27-.81-.58.33-.27-.83-.58.33-.27-.82-.58.34-.27-.83-.58.33-.27-.82-.58.34-.27-.83-.58.33-.27-.82-.58.34-.27-.84-.58.34-.27-.82-.58.34-.27-.84-.58.34-.27-.82-.58.34-.27-.84-.58.34-.27-.82-.58.33-.28-.83-.57.34-.27-.82-.58.33-.27-.83-.58.33-.27-.81-.58.33-.27-.83-.58.33-.27-.82-.58.34-.28-.83-.57.33-.27-.82-.58.34-.28-.83-.57.33-.27-.82-.58.34-.27-.83-.58.33-.27-.82-.58.34-.28-.84-.57.34-.27-.82-.58.34-.28-.84-.57.34-.27-.82-.58.34-.28-.84-.57.34-.27-.82-.58.33-.28-.83-.57.33-.27-.81-.58.33-.28-.83-.58.33-.26-.82-.58.34-.28-.83-.58.33-.26-.82-.58.34-.28-.83-.57.33-.28-.83-.58.33-.26-.82-.58.34-.28-.83-.57.33-.27-.82-.59.34-.27-.83-.58.33-.26-.82-.59.34-.27-.83-.57.33-.27-.82-.58.34-.28-.84-.58.34-.26-.82-.59.33-.27-.83-.58.34-.26-.82-.59.33-.27-.83-.57.33-.27-.81-.59.33-.27-.83-.58.33-.26-.81-.59.33-.27-.83-.58.33-.26-.82-.59.34-.27-.83-.58.33-.26-.82-.59.34-.27-.83-.58.33-.23-.71-122.879 70.94-86.893 275.81-239.499 138.28.437-1.25-1.288.75.43-1.22-1.28.73.437-1.24-1.287.75.429-1.23-1.279.74.437-1.24-1.288.74.429-1.22-1.277.74.437-1.24-1.288.74.43-1.22-1.28.74.437-1.24-1.287.74.429-1.22-1.28.74.437-1.24-1.287.74.429-1.22-1.279.74.436-1.24-1.285.74.429-1.22-1.279.74.437-1.25-1.288.75.437-1.24-1.287.74.429-1.22-1.279.74.437-1.24-1.288.74.43-1.22-1.28.74.437-1.24-1.285.74.429-1.22-1.28.74.437-1.25-1.287.75.429-1.22-1.279.73.437-1.24-1.288.74.43-1.22-1.28.74.437-1.24-1.287.74.429-1.22-1.28.74.437-1.24-1.285.74.429-1.22-1.28.74.437-1.24-1.287.74.429-1.22-1.279.74.437-1.24-1.288.74.43-1.22-1.28.74.437-1.24-1.287.74.429-1.22-1.278.74.437-1.25-1.287.75.429-1.22-1.279.74.436-1.25-1.287.75.43-1.22-1.28.73.437-1.24-1.287.74.429-1.22-1.28.74.437-1.24-1.285.74.429-1.22-1.28.74.437-1.24-1.287.74.429-1.22-1.279.74.437-1.24-1.288.74.43-1.22-1.28.74.437-1.24-1.287.74.429-1.22-1.278.74.437-1.24-1.287.74.429-1.22-1.28.74.437-1.24-1.287.74.429-1.22-1.279.74.437-1.25-1.288.75.437-1.24-1.287.74.429-1.22-1.277.74.437-1.25-1.288.75.43-1.22-1.28.74.437-1.25-1.287.75.429-1.22-1.28.73.437-1.24-1.287.75.429-1.23-1.279.74.436-1.24-1.285.74.429-1.22-1.279.74.437-1.24-1.288.74.43-1.22-1.28.74.437-1.24-1.287.74.429-1.22-1.28.74.437-1.24-1.287.74.429-1.22-1.279.74.436-1.24-1.285.74.43-1.22-1.28.74.437-1.24-1.287.74.429-1.22-1.28.74.437-1.25-1.287.75.429-1.22-1.279.74.437-1.25-1.288.75.429-1.22-1.277.73.437-1.24-1.288.75.43-1.23-1.28.74.437-1.24-1.287.74.429-1.22-1.28.74.437-1.24-1.287.74.429-1.22-1.279.74.436-1.24-1.285.74.429-1.22-1.279.74.437-1.24-1.288.74.43-1.22-1.28.74.437-1.24-1.287.74.429-1.22-1.28.74.437-1.25-1.287.75.429-1.22-1.277.74.437-1.25-1.288.75.437-1.25-1.287.75.429-1.22-1.279.73.437-1.24-1.288.75.43-1.23-1.28.74.437-1.24-1.287.74.429-1.21-1.278.73.437-1.24-1.287.74.429-1.22-1.28.74.437-1.24-1.287.74.429-1.22-1.279.74.437-1.24-1.288.74.43-1.22-1.28.74.437-1.24-1.286.74.43-1.22-1.28.74.437-1.24-1.287.74.429-1.22-1.279.74.436-1.24-1.287.74.43-1.22-1.28.74.437-1.25-1.287.75.428-1.22-1.277.74.437-1.25-1.287.75.429-1.22-1.28.73.437-1.24-1.287.75.429-1.23-1.279.74.437-1.24-1.288.74.43-1.22-1.28.74.437-1.24-1.287.74.429-1.22-1.278.74.437-1.24-1.287.74.429-1.22-1.28.74.437-1.24-1.287.74.43-1.22-1.28.74.437-1.24-1.288.74.43-1.22-1.28.74.437-1.24-1.285.74.429-1.22-1.28.74.437-1.25-1.287.75.437-1.25-1.287.75.429-1.22-1.28.74.437-1.25-1.287.75.429-1.22-1.279.74.436-1.25-1.285.75.429-1.22-1.279.73.437-1.24-1.288.74.43-1.22-1.28.74.437-1.24-1.287.74.429-1.22-1.28.74.437-1.24-1.287.74.429-1.22-1.278.74.437-1.24-1.287.74.43-1.22-1.28.74.437-1.24-1.287.74.429-1.22-1.28.74.437-1.25-1.287.75.429-1.22-1.279.74.436-1.25-1.285.75.429-1.22-1.279.73.437-1.24-1.288.75.43-1.22-1.28.73.437-1.24-1.287.74.429-1.22-1.28.74.437-1.24-1.287.74.429-1.22-1.278.74.437-1.24-1.287.74.429-1.22-1.279.74.437-1.24-1.288.74.43-1.22-1.28.74.437-1.24-1.287.74.429-1.22-1.28.74.437-1.24-1.287.74.429-1.22-1.277.74.437-1.24-1.288.74.43-1.22-1.28.74.437-1.25-1.287.75.429-1.22-1.28.74.437-1.25-1.287.75.437-1.25-1.287.75.429-1.22-1.278.73.437-1.24-1.287.75.429-1.23-1.28.74.437-1.24-1.287.74.429-1.22-1.279.74.437-1.24-1.288.74.43-1.22-1.28.74.437-1.24-1.285.74.429-1.22-1.28.74.437-1.24-1.287.74.429-1.22-1.279.74.437-1.24-1.288.74.43-1.22-1.28.74.437-1.24-1.287.74.429-1.22-1.278.74.437-1.25-1.287.75.429-1.22-1.28.74.437-1.25-1.287.75.429-1.22-1.279.74.437-1.25-1.288.75.43-1.22-1.28.73.437-1.24-1.286.74.43-1.22-1.28.74.437-1.24-1.287.74.429-1.22-1.28.74.437-1.24-1.287.74.43-1.22-1.28.74.437-1.24-1.287.74.428-1.22-1.277.74.437-1.24-1.287.74.429-1.22-1.28.74.437-1.25-1.287.75.429-1.22-1.279.74.437-1.25-1.288.75.43-1.22-1.28.73.437-1.24-1.287.75.429-1.22-1.278.73.437-1.24-1.287.75.437-1.25-1.288.75.43-1.22-1.28.73.437-1.24-1.287.75.429-1.23-1.28.74.437-1.24-1.287.74.429-1.22-1.277.74.436-1.24-1.287.74.43-1.22-1.28.74.437-1.24-1.287.74.429-1.22-1.28.74.437-1.24-1.287.74.429-1.22-1.279.74.436-1.24-1.285.74.429-1.22-1.279.74.437-1.24-1.288.74.43-1.22-1.28.74.437-1.25-1.287.75.429-1.22-1.28.73.437-1.24-1.287.75.429-1.22-1.278.73.437-1.24-1.287.74 130.876-372.1c-.202-.11-.4-.24-.594-.37a7.428 7.428 0 0 1-.765-.44 6.098 6.098 0 0 1-.931-.54 6.158 6.158 0 0 1-.77-.45 5.267 5.267 0 0 1-.93-.53 6.17 6.17 0 0 1-.771-.45 6.976 6.976 0 0 1-.93-.53 6.132 6.132 0 0 1-.774-.45 6.798 6.798 0 0 1-.925-.53 6.158 6.158 0 0 1-.77-.45 6.041 6.041 0 0 1-.93-.54 5.028 5.028 0 0 1-.771-.44 6.089 6.089 0 0 1-.93-.54 6.164 6.164 0 0 1-.771-.44 6.069 6.069 0 0 1-.933-.54 7.55 7.55 0 0 1-.766-.44 6.089 6.089 0 0 1-.93-.54 7.61 7.61 0 0 1-.77-.44 6.041 6.041 0 0 1-.93-.54 6.17 6.17 0 0 1-.771-.45 5.303 5.303 0 0 1-.93-.53 6.215 6.215 0 0 1-.775-.45c-.32-.15-.628-.33-.924-.53a6.158 6.158 0 0 1-.77-.45 6.987 6.987 0 0 1-.931-.53 6.158 6.158 0 0 1-.77-.45 6.041 6.041 0 0 1-.93-.54 5.075 5.075 0 0 1-.771-.44 6.089 6.089 0 0 1-.93-.54 5.056 5.056 0 0 1-.774-.44 5.948 5.948 0 0 1-.925-.54 5.066 5.066 0 0 1-.77-.44 6.041 6.041 0 0 1-.93-.54 7.517 7.517 0 0 1-.771-.44 6.089 6.089 0 0 1-.93-.54 6.042 6.042 0 0 1-.85-.5 6.215 6.215 0 0 1-.775-.45c-.32-.15-.628-.32-.924-.53a7.624 7.624 0 0 1-.771-.44 6.089 6.089 0 0 1-.93-.54 7.61 7.61 0 0 1-.77-.44 7.057 7.057 0 0 1-.931-.54 6.158 6.158 0 0 1-.77-.45 6.078 6.078 0 0 1-.934-.54 5.02 5.02 0 0 1-.765-.44 6.976 6.976 0 0 1-.93-.53 6.17 6.17 0 0 1-.771-.45 6.089 6.089 0 0 1-.93-.54 5.066 5.066 0 0 1-.77-.44 6.041 6.041 0 0 1-.93-.54 6.14 6.14 0 0 1-.775-.44c-.32-.15-.628-.33-.924-.54a6.093 6.093 0 0 1-.771-.44 6.089 6.089 0 0 1-.93-.54 7.735 7.735 0 0 1-.771-.44 6.089 6.089 0 0 1-.93-.54 7.61 7.61 0 0 1-.77-.44 6.964 6.964 0 0 1-.934-.54 6.03 6.03 0 0 1-.765-.45 5.267 5.267 0 0 1-.93-.53 6.17 6.17 0 0 1-.771-.45 6.976 6.976 0 0 1-.93-.53 6.158 6.158 0 0 1-.77-.45 6.914 6.914 0 0 1-.93-.53 6.144 6.144 0 0 1-.775-.45c-.32-.15-.628-.33-.924-.54a5.028 5.028 0 0 1-.771-.44 6.089 6.089 0 0 1-.93-.54 6.164 6.164 0 0 1-.771-.44 6.089 6.089 0 0 1-.93-.54 6.082 6.082 0 0 1-.77-.44 6.041 6.041 0 0 1-.93-.54 6.215 6.215 0 0 1-.775-.45c-.32-.15-.628-.32-.924-.53a6.109 6.109 0 0 1-.851-.5 7.61 7.61 0 0 1-.77-.44 6.041 6.041 0 0 1-.93-.54 6.17 6.17 0 0 1-.771-.45 5.303 5.303 0 0 1-.93-.53 6.132 6.132 0 0 1-.774-.45 6.798 6.798 0 0 1-.925-.53 6.158 6.158 0 0 1-.77-.45 6.914 6.914 0 0 1-.93-.53 6.098 6.098 0 0 1-.771-.45 6.089 6.089 0 0 1-.93-.54 5.124 5.124 0 0 1-.771-.44 6.069 6.069 0 0 1-.933-.54 6.036 6.036 0 0 1-.766-.44 6.089 6.089 0 0 1-.93-.54 6.082 6.082 0 0 1-.77-.44 6.041 6.041 0 0 1-.93-.54 6.093 6.093 0 0 1-.771-.44 6.089 6.089 0 0 1-.93-.54 6.132 6.132 0 0 1-.774-.45 5.886 5.886 0 0 1-.925-.53c-14.994-7.24-2.478-78.54 43.865-147.33 62.592-92.91 116.535-136.633 161.557-149.88l88.131-253.896 262.178-151.368.34.791Z" style="fill:#0a4f74"/>
    <g transform="matrix(1.0043 -.57983 0 1.15967 611.846 856.716)">
        <clipPath id="a">
            <path d="m304.434 311.751 87.754-175.062h261.053l267.314 664.968H691.144l-61.799-194.573H374.723l-86.521 194.573H49.729l180.783-354.749s-62.938-13.566-105.089 15.34c-45.058 30.899-44.178-52.734 18.146-101.688 62.324-48.953 116.036-59.8 160.865-48.809"/>
        </clipPath>
        <g clip-path="url(#a)">
            <use width="875" height="1122" transform="matrix(.99523 .49761 0 .8616 49.729 -165.063)"/>
        </g>
    </g>
    <path d="M977.277 305.58c-2.432-1.277-3.947-4.182-3.947-8.366v-88.749c0-8.123 5.712-18.017 12.747-22.078 3.626-2.094 6.9-2.232 9.222-.763.138.073.274.151.407.235.152.079.3.164.445.256.14.074.277.154.412.239.141.074.279.154.414.239.146.076.289.159.428.247.144.075.285.157.422.244.141.074.279.154.414.239.146.076.289.159.428.247.147.077.29.16.43.248.135.072.268.148.397.23.149.077.295.161.437.251.147.077.287.16.427.249.14.071.27.148.4.229.15.08.3.165.45.257.13.071.26.148.39.229.15.078.3.162.44.252.15.077.29.16.43.249.14.071.27.148.4.229.15.079.3.165.44.257.14.074.28.153.41.238.14.073.28.151.41.235.15.079.3.164.45.256.14.074.27.154.41.239.14.074.28.154.41.239.15.077.29.159.43.247.14.076.29.157.42.244.14.074.28.154.42.239.14.076.29.159.42.247.15.077.29.16.43.248.14.072.27.148.4.23.15.077.3.161.44.251.14.077.29.16.43.249.13.072.27.148.4.229.15.08.3.165.44.257.14.074.28.154.41.239.14.073.28.151.41.234.15.079.3.165.44.257.14.074.28.153.42.238.14.075.28.154.41.239.15.077.29.159.43.247.14.076.28.157.42.244.14.074.28.154.42.239.14.077.28.159.42.247.14.074.28.154.42.239.14.077.29.159.42.247.15.076.29.157.43.244.14.074.28.154.41.239.15.076.29.159.43.247.15.077.29.16.43.248.13.072.27.148.4.23.15.077.29.161.43.251.15.077.29.16.43.249.14.072.27.148.4.229 2.44 1.273 3.96 4.181 3.96 8.374v88.748c0 2.485-.53 5.136-1.47 7.734 17.12-3.531 32.44-1.353 44.84 5.886l.18.106.1.057a67.516 67.516 0 0 1 .98.566l.19.107.16.094c.16.095.33.191.49.285.14.081.29.163.42.244l.19.107.16.094c.17.095.33.19.5.285l.18.107.24.136.06.039.12.068.1.057c.19.106.37.213.56.323l.19.106c.08.046.15.091.23.137l.07.039.12.068.09.057c.21.118.42.239.63.361l.12.068.1.056c.18.107.37.214.56.323l.18.107.24.137.06.038.12.069.1.056c.21.119.42.239.63.361.11.069.23.137.35.206l.19.106.09.057c.21.119.42.239.63.361l.36.205.18.107.16.094c.17.095.34.191.5.285l.42.244.19.107.16.094c.16.095.33.19.49.285l.19.107c.08.045.16.091.23.136l.07.039.12.068.09.057c.19.106.38.213.57.323l.18.106.24.137.06.039.12.068.1.057a50.637 50.637 0 0 1 .98.566l.19.107.09.056a67.516 67.516 0 0 1 .98.567l.19.106.16.095c.17.094.33.19.5.285l.42.244.18.106.17.094c.16.095.33.191.49.286l.19.106.16.094c.17.095.33.191.49.285.15.082.29.163.43.244l.18.107.16.094c.17.095.33.19.5.285l.18.107.24.137.06.038.12.068.1.057c.19.106.37.213.56.323l.19.106c.07.046.15.092.23.137l.07.039.12.068.09.057c12.51 7.101 22.09 19.296 27.61 35.931 1.77-2.106 3.79-3.885 5.93-5.122l76.89-44.39c3.63-2.093 6.9-2.232 9.22-.762.14.072.28.15.41.234.15.079.3.165.44.257.14.074.28.153.42.238.14.074.28.154.41.239.15.077.29.159.43.247.14.076.28.157.42.244.14.074.28.154.41.239.15.076.29.159.43.247.15.077.29.16.43.249.14.071.27.148.4.229.15.078.29.162.44.252.14.077.29.16.43.248.13.072.26.148.39.23.15.079.3.165.45.256.13.072.27.148.4.23.15.077.29.161.43.251.15.077.29.16.43.249.14.071.27.148.4.229.15.079.3.165.45.257.13.074.27.154.41.239.14.072.27.151.4.234.16.079.3.165.45.257.14.074.28.153.41.238.14.075.28.154.42.239.14.077.28.159.42.247.15.076.29.157.43.244.14.074.28.154.41.239.15.076.29.159.43.247.14.077.29.16.43.249.13.071.27.148.39.229.15.078.3.162.44.252.15.077.29.16.43.248.14.072.27.148.4.23.15.079.3.165.44.256.14.074.28.154.42.239.13.073.27.151.4.234.16.08.3.165.45.257.14.074.27.154.41.239.14.074.28.154.41.239.15.076.29.158.43.247.15.075.29.157.42.243.14.075.28.154.42.239.14.077.29.159.43.247.14.075.28.154.41.239.15.077.29.159.43.247.14.076.28.157.42.244.14.074.28.154.41.239.15.076.29.159.43.247.15.077.29.16.43.249.14.071.27.148.4.229.15.078.29.162.44.252.14.077.29.16.43.248.13.072.26.148.39.23 2.44 1.273 3.97 4.18 3.97 8.373 0 8.124-5.72 18.018-12.75 22.079l-76.89 44.389c-3.61 2.09-6.88 2.232-9.2.773-.16-.08-.3-.165-.45-.257a5.166 5.166 0 0 1-.41-.239c-.14-.073-.27-.151-.41-.234-.15-.079-.3-.165-.44-.257a4.877 4.877 0 0 1-.41-.239c-.15-.074-.28-.153-.42-.238-.14-.077-.29-.159-.43-.247a8.27 8.27 0 0 1-.42-.244 5.166 5.166 0 0 1-.41-.239 5.648 5.648 0 0 1-.43-.247 8.143 8.143 0 0 1-.42-.239 8.347 8.347 0 0 1-.42-.247 5.62 5.62 0 0 1-.43-.244 5.166 5.166 0 0 1-.41-.239 5.33 5.33 0 0 1-.43-.247c-.14-.077-.29-.16-.43-.249-.13-.071-.27-.147-.39-.229-.15-.078-.3-.161-.44-.251-.15-.077-.29-.16-.43-.249a5.544 5.544 0 0 1-.4-.229 5.62 5.62 0 0 1-.44-.257 8.143 8.143 0 0 1-.42-.239c-.13-.073-.27-.151-.4-.234-.15-.079-.3-.165-.45-.257a5.166 5.166 0 0 1-.41-.239 5.166 5.166 0 0 1-.41-.239 5.046 5.046 0 0 1-.43-.247 3.85 3.85 0 0 1-.42-.243 8.143 8.143 0 0 1-.42-.239c-.14-.077-.29-.159-.43-.247-.14-.077-.29-.16-.43-.249a7.908 7.908 0 0 1-.39-.229c-.15-.078-.3-.162-.44-.252a8.555 8.555 0 0 1-.39-.221c.09 2.046.14 4.134.14 6.261 0 45.587-20.62 97.56-51.66 138.276v82.74c0 15.408-13.35 35.62-29.78 45.108l-15.99 9.233v8.501c0 3.884-2.37 8.404-5.28 10.086l-17.01 9.819c-1.415.818-2.703.815-3.652.149a2.763 2.763 0 0 1-.431-.248 2.758 2.758 0 0 1-.417-.242 2.655 2.655 0 0 1-.416-.24 2.613 2.613 0 0 1-.431-.248 2.599 2.599 0 0 1-.417-.242 2.69 2.69 0 0 1-.419-.241 2.671 2.671 0 0 1-.423-.245 2.656 2.656 0 0 1-.422-.244 2.611 2.611 0 0 1-.419-.241 2.596 2.596 0 0 1-.423-.245 2.611 2.611 0 0 1-.419-.241 2.675 2.675 0 0 1-.424-.244 2.783 2.783 0 0 1-.422-.244 2.652 2.652 0 0 1-.418-.242 2.6 2.6 0 0 1-.424-.244 2.57 2.57 0 0 1-.424-.246 2.6 2.6 0 0 1-.412-.237 2.653 2.653 0 0 1-.428-.247 2.57 2.57 0 0 1-.424-.246 2.6 2.6 0 0 1-.412-.237 2.692 2.692 0 0 1-.431-.249 2.67 2.67 0 0 1-.417-.241 2.655 2.655 0 0 1-.416-.24 2.613 2.613 0 0 1-.431-.248 2.676 2.676 0 0 1-.417-.242 2.69 2.69 0 0 1-.419-.241 2.671 2.671 0 0 1-.423-.245 2.644 2.644 0 0 1-.384-.217l-5.856 3.38c-9.438 5.45-17.856 6.184-23.311 2.904a11.719 11.719 0 0 1-.465-.268 11.543 11.543 0 0 1-.405-.235 12.596 12.596 0 0 1-.394-.226 11.735 11.735 0 0 1-.465-.269 11.521 11.521 0 0 1-.405-.234 13.658 13.658 0 0 1-.41-.236c-.146-.081-.29-.164-.432-.25-.143-.079-.284-.16-.422-.244a11.788 11.788 0 0 1-.41-.236c-.146-.081-.29-.164-.432-.25a11.788 11.788 0 0 1-.41-.236c-.146-.081-.29-.164-.433-.25a11.83 11.83 0 0 1-.422-.244 12.75 12.75 0 0 1-.409-.236 12.42 12.42 0 0 1-.433-.249 12.722 12.722 0 0 1-.437-.254c-.127-.07-.253-.143-.377-.217a14.2 14.2 0 0 1-.45-.259 14.579 14.579 0 0 1-.437-.253 12.735 12.735 0 0 1-.377-.218 11.719 11.719 0 0 1-.465-.268 11.543 11.543 0 0 1-.405-.235 10.89 10.89 0 0 1-.394-.227 10.598 10.598 0 0 1-.465-.268 13.346 13.346 0 0 1-.405-.234 13.658 13.658 0 0 1-.41-.236c-.146-.081-.29-.164-.432-.25-.143-.079-.284-.16-.422-.244a11.788 11.788 0 0 1-.41-.236c-.146-.081-.29-.164-.432-.25a11.853 11.853 0 0 1-.438-.253c-.127-.07-.253-.143-.377-.218a12.49 12.49 0 0 1-.45-.259 11.242 11.242 0 0 1-.437-.253c-.127-.07-.253-.143-.377-.217a13.368 13.368 0 0 1-.465-.269 10.135 10.135 0 0 1-.405-.234 12.618 12.618 0 0 1-.394-.227 12.479 12.479 0 0 1-.465-.268 12.735 12.735 0 0 1-.377-.218 11.719 11.719 0 0 1-.465-.268 11.543 11.543 0 0 1-.405-.235 10.89 10.89 0 0 1-.394-.227 10.598 10.598 0 0 1-.465-.268 13.346 13.346 0 0 1-.405-.234 11.81 11.81 0 0 1-.41-.237c-.146-.08-.29-.163-.432-.249-.143-.079-.284-.16-.422-.244a11.788 11.788 0 0 1-.41-.236c-.146-.081-.29-.164-.432-.25a11.853 11.853 0 0 1-.438-.253 12.735 12.735 0 0 1-.377-.218 12.49 12.49 0 0 1-.45-.259c-4.282-2.363-6.858-7.086-6.858-13.857v-78.381l-.115-.066-.162-.094a72.586 72.586 0 0 1-.495-.286l-.185-.106-.162-.094a54.44 54.44 0 0 1-.495-.286 52.8 52.8 0 0 1-.422-.243l-.185-.107-.162-.094-.495-.285-.186-.107a28.55 28.55 0 0 1-.235-.137l-.066-.038-.119-.069-.097-.056c-.187-.106-.373-.214-.561-.323l-.186-.107-.235-.136-.066-.039-.119-.068-.097-.057a48.38 48.38 0 0 1-.626-.361 56.008 56.008 0 0 1-.355-.205l-.186-.107-.097-.057c-.21-.118-.418-.239-.626-.361a56.008 56.008 0 0 1-.355-.205l-.186-.107-.162-.094a72.65 72.65 0 0 1-.916-.529l-.186-.106-.162-.094a72.586 72.586 0 0 1-.495-.286l-.185-.106-.236-.137-.066-.039-.119-.068-.097-.057a66.285 66.285 0 0 1-.561-.322l-.185-.107-.236-.137-.066-.038-.119-.069-.097-.056a56.18 56.18 0 0 1-.626-.361l-.355-.206-.186-.106-.097-.057a56.18 56.18 0 0 1-.626-.361l-.119-.068-.097-.057a48.38 48.38 0 0 1-.626-.361 56.008 56.008 0 0 1-.355-.205l-.186-.107-.097-.057c-.21-.118-.418-.239-.626-.361a56.008 56.008 0 0 1-.355-.205l-.186-.107-.162-.094a72.65 72.65 0 0 1-.916-.529l-.186-.106-.162-.095c-.166-.094-.332-.19-.495-.285l-.185-.106-.236-.137-.066-.039-.119-.068-.097-.057a66.285 66.285 0 0 1-.561-.322c-12.442-7.118-21.972-19.29-27.47-35.873-1.782 2.125-3.817 3.921-5.976 5.168l-76.836 44.362c-3.618 2.088-6.886 2.231-9.207.772a6.119 6.119 0 0 1-.445-.257 6.061 6.061 0 0 1-.413-.239 6.28 6.28 0 0 1-.406-.234 5.772 5.772 0 0 1-.445-.257 6.061 6.061 0 0 1-.413-.239 5.69 5.69 0 0 1-.414-.239 6.067 6.067 0 0 1-.428-.246 6.083 6.083 0 0 1-.422-.244 6.083 6.083 0 0 1-.414-.239 6.251 6.251 0 0 1-.428-.247 6.083 6.083 0 0 1-.414-.239 6.251 6.251 0 0 1-.428-.247 6.083 6.083 0 0 1-.422-.244 5.85 5.85 0 0 1-.414-.239 5.862 5.862 0 0 1-.428-.247 5.927 5.927 0 0 1-.43-.249 5.592 5.592 0 0 1-.397-.229 6.096 6.096 0 0 1-.437-.251 5.927 5.927 0 0 1-.43-.249 6.202 6.202 0 0 1-.397-.229 6.119 6.119 0 0 1-.445-.257 6.061 6.061 0 0 1-.413-.239 6.28 6.28 0 0 1-.406-.234 5.772 5.772 0 0 1-.445-.257 6.061 6.061 0 0 1-.413-.239 6.083 6.083 0 0 1-.414-.239 5.711 5.711 0 0 1-.428-.247 5.692 5.692 0 0 1-.422-.243 6.535 6.535 0 0 1-.414-.239 6.251 6.251 0 0 1-.428-.247 5.927 5.927 0 0 1-.43-.249 6.007 6.007 0 0 1-.397-.229 6.108 6.108 0 0 1-.437-.252 5.927 5.927 0 0 1-.43-.249 6.007 6.007 0 0 1-.397-.229 5.772 5.772 0 0 1-.445-.257 5.795 5.795 0 0 1-.412-.238 5.654 5.654 0 0 1-.407-.235 6.108 6.108 0 0 1-.445-.256 5.772 5.772 0 0 1-.397-.23 6.108 6.108 0 0 1-.445-.256 6.061 6.061 0 0 1-.413-.239 6.28 6.28 0 0 1-.406-.234 6.119 6.119 0 0 1-.445-.257 6.061 6.061 0 0 1-.413-.239 6.083 6.083 0 0 1-.414-.239 5.711 5.711 0 0 1-.428-.247 6.07 6.07 0 0 1-.422-.243 6.535 6.535 0 0 1-.414-.239 6.251 6.251 0 0 1-.428-.247 5.927 5.927 0 0 1-.43-.249 6.489 6.489 0 0 1-.397-.229 6.108 6.108 0 0 1-.437-.252c-2.432-1.277-3.947-4.182-3.947-8.366 0-8.124 5.712-18.017 12.747-22.079l76.837-44.361c3.626-2.094 6.9-2.232 9.222-.763.138.073.274.151.406.234.152.08.301.165.445.257.141.074.278.154.413.239.141.074.279.154.414.239.146.076.288.158.428.247.144.075.285.157.422.243.141.075.279.154.414.239.146.077.289.159.428.247.147.077.29.16.43.249.135.072.268.148.397.229.149.078.295.162.437.252.147.077.29.16.43.249.135.071.268.148.397.229.152.079.301.165.445.257.135.071.268.148.397.229.149.078.295.162.437.252.147.077.29.16.43.248.136.072.268.148.397.23.152.079.301.165.445.256.141.074.278.154.413.239.138.073.274.151.406.234.152.08.301.165.445.257.141.074.278.154.413.239.141.074.279.154.414.239.146.076.288.158.428.247.144.075.285.157.422.243.141.075.279.154.414.239.146.077.289.159.428.247.147.077.29.16.43.249.135.072.268.148.397.229.149.078.295.162.437.252.147.077.29.16.43.249.135.071.268.148.397.229.152.079.301.165.445.257l.003.001a143.827 143.827 0 0 1-.136-6.314c0-30.137 9.009-63.064 24.089-93.692l-3.155-1.821-.008-.005-1.246-.719-.018-.011-7.153-4.13-.008-.004-1.246-.719-.018-.011-54.357-31.384-.063-.036-3.728-2.153-.025-.014-.397-.229c-4.975-2.872-4.975-12.2 0-20.816 4.975-8.617 13.052-13.281 18.027-10.408l.749.433.095.053 8.412 4.857.013.007 54.357 31.383.045.026 6.274 3.623.003.002 1.475.851c18.985-28.374 42.996-52.64 69.095-67.708a144.619 144.619 0 0 1 5.515-3.029h-.002a6.29 6.29 0 0 1-.397-.23 6.327 6.327 0 0 1-.445-.256 6.487 6.487 0 0 1-.412-.239 6.303 6.303 0 0 1-.407-.234c-.152-.08-.3-.165-.445-.257a6.04 6.04 0 0 1-.412-.239 5.85 5.85 0 0 1-.414-.239 5.518 5.518 0 0 1-.428-.247 6.07 6.07 0 0 1-.422-.243 6.266 6.266 0 0 1-.414-.239 6.251 6.251 0 0 1-.428-.247 5.927 5.927 0 0 1-.43-.249 6.202 6.202 0 0 1-.397-.229 5.897 5.897 0 0 1-.437-.252 5.927 5.927 0 0 1-.43-.249 5.76 5.76 0 0 1-.397-.229 5.589 5.589 0 0 1-.445-.257 6.061 6.061 0 0 1-.413-.239 5.7 5.7 0 0 1-.407-.234 5.967 5.967 0 0 1-.445-.257 5.824 5.824 0 0 1-.397-.229 6.327 6.327 0 0 1-.445-.256 6.487 6.487 0 0 1-.412-.239 6.303 6.303 0 0 1-.407-.234c-.152-.08-.3-.165-.445-.257a6.04 6.04 0 0 1-.412-.239 5.85 5.85 0 0 1-.414-.239 5.862 5.862 0 0 1-.428-.247 5.704 5.704 0 0 1-.422-.244 5.486 5.486 0 0 1-.414-.239 5.85 5.85 0 0 1-.428-.246 6.32 6.32 0 0 1-.43-.249 6.202 6.202 0 0 1-.397-.229 5.897 5.897 0 0 1-.437-.252Zm95.193-9.439c.07.043.14.086.21.127.07.043.15.085.22.124.07.041.13.08.2.118.07.039.13.076.2.112.07.045.15.089.22.132.07.04.14.079.21.116.07.044.14.087.21.128.07.041.15.081.22.119.07.042.13.083.2.123.07.04.14.079.21.116.07.044.14.086.21.128.07.04.14.078.22.116.06.044.13.086.21.127.07.042.14.081.21.12.07.042.14.083.21.122.07.041.14.079.21.117.07.044.14.086.21.127.07.039.13.076.2.112.07.045.14.089.22.132.07.043.15.085.22.125.07.04.13.079.2.117l.21.117c.07.043.14.086.21.127.07.038.14.076.2.111.08.046.15.09.22.133.08.043.15.085.23.124.06.04.13.08.19.118l.21.111c.07.046.14.09.21.133.08.043.15.085.23.124.07.04.13.08.2.118.07.04.14.079.21.116.07.044.14.086.21.128.07.038.13.075.2.111.07.045.14.089.22.132.07.044.15.085.23.125.06.04.12.079.19.117.07.039.13.076.2.112.07.045.15.089.22.132l.21.117c.07.044.14.086.21.127.08.043.15.085.23.125.06.04.13.079.19.117.07.039.14.076.21.112l.21.132c.07.04.15.079.22.116.06.044.14.087.21.128.07.041.14.081.21.119a11.44 11.44 0 0 0 .42.239 7.306 7.306 0 0 0 .42.244c.07.044.14.086.21.127.07.042.15.082.22.12.06.042.13.083.2.123.07.04.14.078.21.116.07.044.14.086.21.127.07.039.14.076.2.112.08.045.15.089.22.132.08.043.15.085.23.125.06.04.13.079.2.117.06.04.13.079.21.117a7.821 7.821 0 0 0 .41.238c.07.046.14.09.22.133.07.043.15.085.22.124.07.04.13.08.2.118.07.038.13.076.2.111a7.306 7.306 0 0 0 .43.249c.07.044.14.086.21.127.08.044.15.085.23.125.06.04.13.079.19.118l.21.111c.07.045.14.09.21.132.07.041.14.079.21.117.07.044.14.086.21.127.08.041.15.081.22.12.07.042.14.083.21.122.06.041.14.079.21.117a7.821 7.821 0 0 0 .42.244c.07.043.14.086.21.127.07.041.14.081.22.119.06.042.13.083.2.123l.21.117c.07.043.14.086.21.127.07.041.15.081.22.119.07.042.13.083.2.123.07.04.14.079.21.116.07.044.14.087.21.128.07.04.14.079.22.116.06.044.14.086.21.127.07.042.14.082.21.12a11.44 11.44 0 0 0 .42.239 7.821 7.821 0 0 0 .41.239c.07.045.14.089.22.132.07.043.15.085.23.125.06.04.12.079.19.117.07.041.14.079.21.117.07.044.14.086.21.127.07.039.14.076.2.112.07.045.15.089.22.132.08.043.15.085.23.124.06.04.13.08.19.118 4.98 2.872 13.06-1.791 18.03-10.408l54.34-94.119c4.98-8.616 4.98-17.944 0-20.816a2.754 2.754 0 0 0-.23-.124c-.06-.04-.12-.08-.19-.118-.07-.038-.13-.076-.2-.111-.07-.046-.15-.09-.22-.133-.07-.04-.14-.079-.21-.116a7.821 7.821 0 0 0-.21-.127c-.08-.044-.15-.085-.23-.125-.06-.04-.13-.079-.2-.118a2.641 2.641 0 0 0-.2-.111c-.07-.045-.14-.09-.22-.132-.07-.041-.14-.079-.21-.117a7.821 7.821 0 0 0-.21-.127 3.198 3.198 0 0 0-.22-.12 7.35 7.35 0 0 0-.41-.239 7.821 7.821 0 0 0-.42-.244c-.07-.043-.14-.086-.21-.127-.07-.041-.15-.081-.22-.119-.07-.043-.13-.083-.2-.123l-.21-.117c-.07-.043-.14-.086-.21-.127-.08-.041-.15-.081-.22-.119-.07-.042-.14-.083-.2-.123-.07-.04-.14-.079-.22-.116-.06-.044-.14-.087-.21-.128-.07-.04-.14-.079-.21-.116a7.821 7.821 0 0 0-.42-.247 11.44 11.44 0 0 0-.42-.239 7.821 7.821 0 0 0-.21-.127c-.07-.039-.13-.076-.2-.112-.07-.045-.15-.089-.22-.132-.08-.044-.15-.085-.23-.125-.06-.04-.13-.079-.19-.117a7.35 7.35 0 0 0-.21-.117 7.821 7.821 0 0 0-.21-.127 7.133 7.133 0 0 0-.21-.112l-.21-.132c-.08-.043-.15-.085-.23-.124-.07-.04-.13-.08-.2-.118a2.09 2.09 0 0 0-.2-.111 7.306 7.306 0 0 0-.43-.249c-.07-.044-.14-.086-.21-.128a2.754 2.754 0 0 0-.23-.124 2.39 2.39 0 0 0-.19-.118c-.07-.038-.13-.075-.2-.111-.07-.045-.15-.09-.22-.132-.07-.041-.14-.079-.21-.117a7.821 7.821 0 0 0-.21-.127c-.07-.042-.15-.081-.22-.12-.07-.042-.13-.083-.2-.122-.07-.041-.14-.079-.21-.117a7.821 7.821 0 0 0-.21-.127c-.07-.04-.15-.079-.22-.117a1.663 1.663 0 0 0-.21-.127 7.44 7.44 0 0 0-.21-.119 11.026 11.026 0 0 0-.42-.24c-.07-.043-.14-.086-.21-.127a2.641 2.641 0 0 0-.2-.111c-.07-.046-.15-.09-.22-.133a2.754 2.754 0 0 0-.23-.124c-.06-.04-.12-.08-.19-.118-.07-.04-.14-.079-.21-.116-.07-.044-.14-.086-.21-.128-.07-.038-.14-.075-.2-.111-.08-.045-.15-.089-.22-.132-.08-.044-.15-.085-.23-.125a2.64 2.64 0 0 0-.2-.117 2.334 2.334 0 0 0-.2-.112l-.21-.132c-.08-.04-.15-.079-.22-.117-.07-.043-.14-.086-.21-.127-.07-.043-.15-.085-.22-.124-.07-.041-.13-.08-.2-.118-.07-.039-.13-.076-.2-.112a3.198 3.198 0 0 0-.22-.132c-.08-.043-.15-.085-.23-.124-.06-.041-.13-.08-.19-.118-.07-.039-.14-.076-.2-.112-.07-.045-.15-.089-.22-.132-.07-.04-.14-.079-.21-.116a7.87 7.87 0 0 0-.21-.128c-.08-.043-.15-.085-.23-.124-.06-.04-.13-.08-.19-.118l-.21-.111c-.07-.045-.14-.09-.22-.133-.06-.04-.14-.078-.21-.116a7.821 7.821 0 0 0-.21-.127c-.07-.042-.14-.081-.21-.12a7.58 7.58 0 0 0-.21-.122 7.35 7.35 0 0 0-.21-.117 7.821 7.821 0 0 0-.42-.244c-.07-.043-.14-.086-.21-.127-.07-.041-.15-.081-.22-.119-.07-.043-.13-.084-.2-.123l-.21-.117c-.07-.043-.14-.086-.21-.127-.07-.038-.14-.076-.21-.111-.07-.046-.14-.09-.21-.133-.08-.043-.15-.085-.23-.124-.07-.04-.13-.08-.2-.118-.07-.04-.14-.079-.21-.116a7.87 7.87 0 0 0-.21-.128c-4.97-2.872-13.05 1.792-18.02 10.409l-54.34 94.118c-4.98 8.616-4.98 17.944 0 20.816l.21.117Z" style="fill:#454c55"/>
    <path d="M227 485.029c0-4.399-3.093-7.97-6.903-7.97h-22.235c-3.81 0-6.903 3.571-6.903 7.97v15.942c0 4.399 3.093 7.97 6.903 7.97h22.235c3.81 0 6.903-3.571 6.903-7.97v-15.942Z" style="fill:#343434" transform="matrix(.76483 -.44158 0 .88315 849.412 336.119)"/>
    <path d="M448.841 377.918c0-12.573-13.636-22.78-30.431-22.78h-60.861c-16.796 0-30.431 10.207-30.431 22.78v76.164c0 12.573 13.635 22.78 30.431 22.78h60.861c16.795 0 30.431-10.207 30.431-22.78v-76.164Z" style="fill:#666" transform="matrix(.97847 -.56492 0 1.22552 629.62 312.547)"/>
    <circle cx="362.407" cy="233.407" r="145.407" style="fill:#fcf5cf" transform="matrix(.76483 -.44158 0 .88315 732.065 412.562)"/>
    <path d="m217.313 253.683 228.854-132.129c20.952-12.096 34.228-28.385 29.629-36.351-4.6-7.966-25.344-4.613-46.295 7.484L200.646 224.816c-20.952 12.096-34.228 28.385-29.628 36.351 4.599 7.966 25.343 4.613 46.295-7.484Z" style="fill:#fcf5cf" transform="matrix(.44849 -.15232 .36555 .44849 923.256 218.32)"/>
    <path d="m217.313 253.683 228.854-132.129c20.949-12.095 34.222-28.382 29.623-36.348-4.599-7.966-25.341-4.614-46.289 7.481L200.646 224.816c-20.949 12.095-34.222 28.381-29.623 36.348 4.599 7.966 25.341 4.614 46.29-7.481Z" style="fill:#fcf5cf" transform="matrix(.38242 -.51163 .66236 -.2145 770.858 461.47)"/>
    <path d="m217.313 253.683 228.854-132.129c20.942-12.09 34.209-28.374 29.61-36.34-4.599-7.966-25.335-4.618-46.276 7.473L200.646 224.816c-20.941 12.09-34.209 28.374-29.61 36.34 4.599 7.966 25.335 4.618 46.277-7.473Z" style="fill:#fcf5cf" transform="matrix(.25197 .2961 -.14547 .84882 1125.982 116.001)"/>
    <path d="m217.313 253.683 228.854-132.129c20.945-12.092 34.215-28.377 29.616-36.343-4.599-7.967-25.338-4.617-46.282 7.476L200.646 224.816c-20.945 12.092-34.215 28.377-29.616 36.343 4.6 7.967 25.338 4.617 46.283-7.476Z" style="fill:#fcf5cf" transform="matrix(.09227 -.57121 .57121 -.75185 758.127 702.968)"/>
    <path d="m231.924 278.991 228.855-132.129c20.954-12.098 27.686-39.728 15.022-61.662-12.664-21.934-39.957-29.92-60.912-17.822l-228.855 132.13c-20.954 12.098-27.685 39.728-15.022 61.662 12.664 21.934 39.958 29.92 60.912 17.821Z" style="fill:#fcf5cf" transform="matrix(-.2518 -.015 .14538 -.36171 892.453 626.069)"/>
</svg>
