<?xml version="1.0" encoding="UTF-8"?>
<svg id="Ebene_1" data-name="Ebene 1" xmlns="http://www.w3.org/2000/svg" viewBox="0 0 2000 2000">
  <defs>
    <style>
      .cls-1 {
        fill: #cfd8e5;
        stroke: #172d4d;
        stroke-linecap: round;
        stroke-linejoin: round;
        stroke-width: 30px;
      }
    </style>
  </defs>
  <g>
    <path class="cls-1" d="M371.35,1770.88c21.82-27.16,112.63-72.84,156.31-63.8l-87.6,125.82,138.88-125.06c16.96,160.52-85.02,241.28-237.93,240.55-8.25-8.89,18.37-162.59,30.35-177.5Z"/>
    <path class="cls-1" d="M239.98,1547.72c32.25-4.03,122.78,27.15,146.2,64.23l-140.39,28.15,174.28,8.36c-92.81,126.22-213.6,112.19-315.64,4.39.24-12.12,117.84-102.91,135.55-105.13Z"/>
    <path class="cls-1" d="M200.63,1334.82c30.58,1.99,108.39,49.3,123.06,90.02l-135.08,1.75,159.53,40.35c-109.56,106.82-218.58,70.77-292.61-53.9,2.51-11.86,128.31-79.32,145.1-78.23Z"/>
    <path class="cls-1" d="M199.1,1112.18c25.47,17.03,69.14,96.95,61.43,139.55l-117.8-66.13,117.88,114.81c-148.33,37.6-224.64-48.2-226.29-193.18,8.11-9.01,150.79-4.4,164.77,4.95Z"/>
    <path class="cls-1" d="M212.11,861.02c24.36,18.59,62.95,101.07,52.6,143.11l-113.44-73.35,110.49,121.95c-150.39,28.27-221.19-62.12-213.79-206.93,8.65-8.48,150.77,5.02,164.14,15.22Z"/>
    <path class="cls-1" d="M290.69,847.04c-15.62,26.36-20.5,117.3,4.84,152.39l77.7-110.51-56.76,154.46c150.02-30.13,181.81-140.46,120.7-271.95-11.2-4.62-137.91,61.13-146.48,75.6Z"/>
    <path class="cls-1" d="M342.49,1069.39c-20.99,22.32-45.57,110.01-28.49,149.78l99.92-90.92-89.05,138.38c152.98,3.29,208.05-97.46,177.07-239.11-9.92-6.95-147.92,29.61-159.44,41.86Z"/>
    <path class="cls-1" d="M442.54,1261.79c-24.61,18.25-64.33,100.2-54.56,142.37l114.44-71.79-112.14,120.42c149.98,30.32,222.02-59.09,216.6-203.98-8.54-8.6-150.82,2.95-164.33,12.98Z"/>
    <path class="cls-1" d="M538.15,1446.48c-29.24,16.67-85.81,97.49-83.05,141.63l133.6-64.1-139.89,114.24c152.85,43.77,244.86-41.99,265.06-191.26-7.47-9.55-159.68-9.67-175.73-.51Z"/>
    <path class="cls-1" d="M139.77,739.06c5.81,30.08,62.51,101.35,104.75,110.79l-15.21-134.23,41.09,108.64c92.23-122.1,61.74-181.16-71.23-238.96-11.45,3.97-62.59,137.25-59.4,153.77Z"/>
  </g>
  <g>
    <path class="cls-1" d="M1628.65,1770.58c-21.82-27.16-112.63-72.84-156.31-63.8l87.6,125.82-138.88-125.06c-16.96,160.52,85.02,241.28,237.93,240.55,8.25-8.89-18.37-162.59-30.35-177.5Z"/>
    <path class="cls-1" d="M1760.02,1547.42c-32.25-4.03-122.78,27.15-146.2,64.23l140.39,28.15-174.28,8.36c92.81,126.22,213.6,112.19,315.64,4.39-.24-12.12-117.84-102.91-135.55-105.13Z"/>
    <path class="cls-1" d="M1799.37,1334.52c-30.58,1.99-108.39,49.3-123.06,90.02l135.08,1.75-159.53,40.35c109.56,106.82,218.58,70.77,292.61-53.9-2.51-11.86-128.31-79.32-145.1-78.23Z"/>
    <path class="cls-1" d="M1800.9,1111.89c-25.47,17.03-69.14,96.95-61.43,139.55l117.8-66.13-117.88,114.81c148.33,37.6,224.64-48.2,226.29-193.18-8.11-9.01-150.79-4.4-164.77,4.95Z"/>
    <path class="cls-1" d="M1787.89,860.72c-24.36,18.59-62.95,101.07-52.6,143.11l113.44-73.35-110.49,121.95c150.39,28.27,221.19-62.12,213.79-206.93-8.65-8.48-150.77,5.02-164.14,15.22Z"/>
    <path class="cls-1" d="M1709.31,846.74c15.62,26.36,20.5,117.3-4.84,152.39l-77.7-110.51,56.76,154.46c-150.02-30.13-181.81-140.46-120.7-271.95,11.2-4.62,137.91,61.13,146.48,75.6Z"/>
    <path class="cls-1" d="M1657.51,1069.09c20.99,22.32,45.57,110.01,28.49,149.78l-99.92-90.92,89.05,138.38c-152.98,3.29-208.05-97.46-177.07-239.11,9.92-6.95,147.92,29.61,159.44,41.86Z"/>
    <path class="cls-1" d="M1557.46,1261.49c24.61,18.25,64.33,100.2,54.56,142.37l-114.44-71.79,112.14,120.42c-149.98,30.32-222.02-59.09-216.6-203.98,8.54-8.6,150.82,2.95,164.33,12.98Z"/>
    <path class="cls-1" d="M1461.85,1446.19c29.24,16.67,85.81,97.49,83.05,141.63l-133.6-64.1,139.89,114.24c-152.85,43.77-244.86-41.99-265.06-191.26,7.47-9.55,159.68-9.67,175.73-.51Z"/>
    <path class="cls-1" d="M1860.23,738.77c-5.81,30.08-62.51,101.35-104.75,110.79l15.21-134.23-41.09,108.64c-92.23-122.1-61.74-181.16,71.23-238.96,11.45,3.97,62.59,137.25,59.4,153.77Z"/>
  </g>
  <g>
    <path class="cls-1" d="M414.73,392.55h178.35v78.81h-280.81V46.35h102.46v346.2Z"/>
    <path class="cls-1" d="M784.57,477.2c-48.46,0-87.67-14.45-117.64-43.35-29.97-28.9-44.95-66.5-44.95-112.82v-8.17c0-32.3,5.98-60.81,17.95-85.53,11.97-24.71,29.43-43.83,52.4-57.36,22.96-13.52,50.21-20.29,81.73-20.29,44.37,0,79.4,13.77,105.09,41.3,25.69,27.54,38.53,65.92,38.53,115.16v38.24h-195.58c3.5,17.71,11.19,31.63,23.06,41.74,11.87,10.12,27.24,15.18,46.12,15.18,31.13,0,55.46-10.9,72.98-32.69l44.95,53.13c-12.26,16.93-29.63,30.41-52.1,40.43-22.48,10.02-46.66,15.03-72.54,15.03ZM773.48,225.58c-28.8,0-45.93,19.07-51.38,57.21h99.25v-7.59c.39-15.76-3.61-27.97-11.97-36.64-8.37-8.66-20.34-12.99-35.9-12.99Z"/>
    <path class="cls-1" d="M1079.4,354.31l49.92-198.79h103.62l-103.04,315.84h-100.42l-103.04-315.84h103.92l49.04,198.79Z"/>
    <path class="cls-1" d="M1411.29,477.2c-48.46,0-87.67-14.45-117.64-43.35-29.97-28.9-44.95-66.5-44.95-112.82v-8.17c0-32.3,5.98-60.81,17.95-85.53,11.97-24.71,29.43-43.83,52.39-57.36,22.96-13.52,50.21-20.29,81.74-20.29,44.37,0,79.4,13.77,105.09,41.3,25.69,27.54,38.53,65.92,38.53,115.16v38.24h-195.58c3.5,17.71,11.19,31.63,23.06,41.74,11.87,10.12,27.24,15.18,46.12,15.18,31.13,0,55.46-10.9,72.97-32.69l44.95,53.13c-12.26,16.93-29.63,30.41-52.1,40.43-22.48,10.02-46.66,15.03-72.54,15.03ZM1400.2,225.58c-28.8,0-45.93,19.07-51.38,57.21h99.25v-7.59c.39-15.76-3.6-27.97-11.97-36.64-8.37-8.66-20.34-12.99-35.9-12.99Z"/>
    <path class="cls-1" d="M1687.72,471.36h-98.66V23h98.66v448.36Z"/>
  </g>
</svg>