<?xml version="1.0" encoding="UTF-8"?>
<svg id="Ebene_1" xmlns="http://www.w3.org/2000/svg" viewBox="0 0 200 200">
  <defs>
    <style>
      .cls-1 {
        fill: #cfd8e5;
        stroke: #172d4d;
        stroke-linecap: round;
        stroke-linejoin: round;
        stroke-width: 6px;
      }
    </style>
  </defs>
  <path class="cls-1" d="M171.365527343750728,76.515936283880364h-2.358081054688228c.558642578125728-1.205883789059953.387719726562864-2.485333251950578.387719726562864-2.485333251950578l.072607421874636-.022607421869907c-2.412939453124636-36.361395263679697-32.670117187499272-65.107995605470023-69.642480468750364-65.107995605470023-37.818334960936227,0-68.609619140625,30.077392578120453-69.763037109374636,67.615936279290509h-1.427783203124818c-3.992529296875546,0-7.229077148436772,3.236566162109739-7.229077148436772,7.229071044929697v100.125915527340112c0,3.992504882809953,3.236547851561227,7.22907714844041,7.229077148436772,7.22907714844041h142.731054687500546c3.992529296874636,0,7.229077148436772-3.236572265630457,7.229077148436772-7.22907714844041v-100.125915527340112c0-3.992504882819958-3.236547851562136-7.229071044929697-7.229077148436772-7.229071044929697ZM99.825292968749636,26.349694828810243c27.405297851562864,0,49.890820312501091,21.059289550779795,52.159472656250728,47.877734374999818l.036889648437864.009912109369907s-.0111083984375.117993164059953-.009790039062864.315252685550149c.017846679687864.227593994140079.0343017578125.455572509759804.049243164063228.683972167969841.051879882810681.381481933590294.155810546873909.832421875000364.355175781249272,1.279370117180406H47.521777343750728c1.144433593749454-27.899200439450397,24.123217773439137-50.166241455070121,52.303515624998909-50.166241455070121Z"/>
</svg>