<?xml version="1.0" encoding="UTF-8"?>
<svg id="Ebene_1" data-name="Ebene 1" xmlns="http://www.w3.org/2000/svg" viewBox="0 0 2000 2000">
  <defs>
    <style>
      .cls-1 {
        fill: #cfd8e5;
        fill-rule: evenodd;
        stroke: #172d4d;
        stroke-miterlimit: 10;
        stroke-width: 60px;
      }
    </style>
  </defs>
  <g id="close-icon1">
    <path class="cls-1" d="M832.575140086206375,832.575158438837207l-699.592343867283489-.000018373972125c-46.201907306869543-.000596644906182-83.712429959618021,37.509926006157912-83.712420781517721,83.71242077775878l-.000000003758032,167.424878275824085c-.000009180166671,46.202494771605416,37.510513470893784,83.713017424353893,83.712420777766965,83.712420781521359l699.592343867276213-.000018342565454.001174913755676,699.59353715501129c-.001184109634778,46.201319842137309,37.506309426407825,83.708813379860658,83.71365078204326,83.713650785797654l167.420068408337102-.004809863727132c46.207258743404964.004773151980771,83.717781396153441-37.505749499083322,83.712420781514084-83.712420777759689l.004754808382131-699.587570716339542,699.588764004070981-.005948064699624c46.206083813944133.00594808144524,83.71357735167112-37.501545454601001,83.713650785794016-83.713650782039622l.000000003765308-167.415258540852847c-.000073432052886-46.212105327444988-37.507566968091851-83.719598865171065-83.71365078204326-83.713650785799473l-699.588764004074619-.005948096108114-.004754776960908-699.587570716335904c.005360616716644-46.206671278679096-37.50516203434745-83.717193931426664-83.712420777766965-83.712420781524088l-167.420068408337102-.004809871240468c-46.207341355631797.004837403856982-83.714834893358784,37.512330939900494-83.713650785797654,83.713650782037803l-.001174945165985,699.593537155013109Z"/>
  </g>
</svg>