<?xml version="1.0" encoding="UTF-8"?>
<svg id="Ebene_1" data-name="Ebene 1" xmlns="http://www.w3.org/2000/svg" viewBox="0 0 2000 2000">
  <defs>
    <style>
      .cls-1 {
        fill: #172d4d;
      }

      .cls-2 {
        fill: #cfd8e5;
        fill-rule: evenodd;
      }
    </style>
  </defs>
  <path class="cls-2" d="M1000,1970.5c-30.42,0-61.19-1.45-91.47-4.32-14.19-1.34-25.69-12.1-27.96-26.17l-25.52-157.87c-1.38-8.52-7.98-15.43-16.43-17.22-27.37-5.77-54.73-13.11-81.33-21.79-2.11-.69-4.31-1.04-6.54-1.04-6.35,0-12.28,2.82-16.29,7.74l-101.04,123.96c-5.97,7.33-14.82,11.53-24.29,11.53-4.51,0-8.89-.96-13.01-2.84-55.44-25.37-108.74-56.15-158.43-91.47-11.62-8.26-16.19-23.33-11.13-36.65l56.84-149.48c3.07-8.06.81-17.35-5.62-23.12-20.82-18.69-40.86-38.72-59.54-59.54-3.99-4.44-9.7-6.99-15.66-6.99-2.56,0-5.07.46-7.46,1.37l-149.48,56.84c-3.57,1.36-7.31,2.05-11.11,2.05-10.12,0-19.67-4.92-25.53-13.17-35.32-49.69-66.1-102.99-91.47-158.43-5.93-12.96-2.36-28.3,8.69-37.3l123.96-101.04c6.69-5.45,9.38-14.63,6.69-22.84-8.69-26.59-16.02-53.96-21.79-81.33-1.78-8.45-8.7-15.05-17.21-16.43l-157.87-25.52c-14.07-2.27-24.83-13.77-26.17-27.96-5.75-60.69-5.75-122.24,0-182.94,1.34-14.19,12.1-25.69,26.17-27.96l157.87-25.52c8.52-1.38,15.43-7.98,17.22-16.43,5.77-27.37,13.11-54.74,21.79-81.34,2.68-8.2,0-17.38-6.69-22.83l-123.96-101.03c-11.04-9-14.62-24.34-8.69-37.3,25.37-55.44,56.15-108.74,91.47-158.43,5.86-8.25,15.41-13.17,25.53-13.17,3.8,0,7.54.69,11.11,2.05l149.48,56.83c2.39.91,4.91,1.37,7.46,1.37,5.96,0,11.67-2.55,15.66-6.99,18.67-20.81,38.71-40.84,59.54-59.54,6.42-5.77,8.68-15.06,5.62-23.12l-56.83-149.47c-5.06-13.32-.49-28.39,11.13-36.65,49.68-35.32,102.99-66.1,158.43-91.47,4.12-1.89,8.5-2.84,13.01-2.84,9.46,0,18.31,4.2,24.28,11.53l101.04,123.96c4.01,4.92,9.95,7.74,16.29,7.74,2.22,0,4.43-.35,6.54-1.04,26.58-8.68,53.95-16.01,81.33-21.79,8.45-1.78,15.05-8.7,16.42-17.21l25.52-157.87c2.27-14.07,13.77-24.83,27.96-26.17,30.28-2.87,61.05-4.32,91.47-4.32s61.19,1.45,91.47,4.32c14.19,1.34,25.69,12.1,27.96,26.17l25.52,157.87c1.38,8.52,7.98,15.43,16.43,17.21,27.39,5.78,54.75,13.11,81.34,21.8,2.11.69,4.31,1.04,6.54,1.04,6.35,0,12.28-2.82,16.29-7.73l101.03-123.96c5.97-7.33,14.82-11.53,24.29-11.53,4.51,0,8.89.96,13.02,2.84,55.44,25.37,108.74,56.15,158.43,91.47,11.62,8.26,16.19,23.33,11.13,36.64l-56.83,149.47c-3.07,8.06-.81,17.35,5.62,23.12,20.82,18.69,40.85,38.72,59.54,59.54,3.99,4.44,9.69,6.99,15.66,6.99,2.56,0,5.07-.46,7.46-1.37l149.47-56.84c3.57-1.36,7.31-2.05,11.11-2.05,10.12,0,19.67,4.92,25.53,13.17,35.32,49.69,66.1,103,91.47,158.43,5.93,12.96,2.36,28.3-8.69,37.3l-123.96,101.03c-6.69,5.45-9.38,14.62-6.7,22.83,8.68,26.59,16.02,53.95,21.79,81.34,1.78,8.45,8.7,15.05,17.22,16.43l157.86,25.52c14.07,2.27,24.83,13.77,26.17,27.96,5.75,60.69,5.75,122.24,0,182.94-1.34,14.19-12.1,25.69-26.17,27.96l-157.87,25.52c-8.51,1.38-15.43,7.98-17.21,16.42-5.78,27.38-13.11,54.75-21.79,81.34-2.68,8.21,0,17.38,6.7,22.83l123.96,101.03c11.04,9,14.62,24.34,8.68,37.3-25.38,55.44-56.15,108.75-91.47,158.43-5.86,8.25-15.41,13.17-25.53,13.17-3.8,0-7.54-.69-11.11-2.05l-149.47-56.83c-2.39-.91-4.91-1.37-7.47-1.37-5.96,0-11.67,2.55-15.66,6.99-18.7,20.84-38.74,40.87-59.54,59.54-6.43,5.77-8.68,15.06-5.62,23.12l56.83,149.48c5.06,13.32.49,28.39-11.13,36.64-49.69,35.33-103,66.1-158.43,91.47-4.12,1.89-8.5,2.84-13.01,2.84-9.46,0-18.31-4.2-24.28-11.53l-101.03-123.96c-4.01-4.92-9.95-7.74-16.29-7.74-2.23,0-4.43.35-6.54,1.04-26.59,8.68-53.96,16.02-81.33,21.79-8.45,1.78-15.05,8.7-16.43,17.21l-25.52,157.87c-2.27,14.07-13.77,24.83-27.96,26.17-30.28,2.87-61.05,4.32-91.47,4.32ZM1000,365.58c-173.81,0-336.22,69.47-457.32,195.6-120.95,125.98-183.66,291.14-176.57,465.05,13.35,327.39,280.26,594.31,607.65,607.65,8.71.36,17.54.54,26.23.54,173.81,0,336.23-69.47,457.33-195.62,120.96-125.99,183.66-291.16,176.56-465.07-13.36-327.36-280.26-594.27-607.63-607.63-8.72-.36-17.55-.54-26.25-.54Z"/>
  <path class="cls-1" d="M1000,44.5c29.95,0,60.25,1.43,90.06,4.25,7.39.7,13.38,6.31,14.57,13.63l25.52,157.87c2.36,14.59,13.66,26.44,28.14,29.5,26.86,5.67,53.71,12.86,79.78,21.38,3.62,1.18,7.39,1.78,11.2,1.78,10.88,0,21.05-4.83,27.92-13.26l101.03-123.96c3.11-3.82,7.72-6.01,12.66-6.01,2.34,0,4.62.5,6.77,1.48,54.58,24.98,107.06,55.28,155.98,90.06,6.05,4.3,8.44,12.15,5.8,19.09l-56.84,149.48c-5.25,13.82-1.39,29.74,9.62,39.61,20.42,18.33,40.07,37.98,58.4,58.4,6.83,7.61,16.6,11.97,26.82,11.97,4.39,0,8.69-.79,12.8-2.35l149.47-56.84c1.86-.71,3.81-1.07,5.78-1.07,5.28,0,10.25,2.57,13.31,6.87,34.78,48.92,65.08,101.4,90.06,155.98,3.09,6.75,1.23,14.74-4.52,19.43l-123.96,101.03c-11.45,9.34-16.07,25.06-11.48,39.12,8.52,26.08,15.71,52.92,21.38,79.78,3.05,14.47,14.91,25.78,29.5,28.14l157.87,25.52c7.33,1.18,12.93,7.17,13.63,14.57,5.66,59.76,5.66,120.35,0,180.11-.7,7.39-6.3,13.38-13.63,14.57l-157.87,25.52c-14.59,2.36-26.44,13.67-29.5,28.13-5.67,26.86-12.86,53.7-21.38,79.78-4.59,14.06.02,29.78,11.48,39.12l123.96,101.03c5.75,4.69,7.61,12.68,4.52,19.43-24.98,54.58-55.28,107.06-90.06,155.98-3.06,4.3-8.03,6.87-13.31,6.87-1.97,0-3.92-.36-5.78-1.07l-149.48-56.84c-4.1-1.56-8.41-2.35-12.8-2.35-10.22,0-19.99,4.36-26.82,11.97-18.34,20.44-37.99,40.08-58.4,58.4-11.01,9.88-14.87,25.8-9.62,39.62l56.84,149.48c2.64,6.94.25,14.79-5.8,19.09-48.92,34.78-101.41,65.08-155.98,90.06-2.15.98-4.43,1.48-6.77,1.48-4.93,0-9.55-2.19-12.66-6.01l-101.03-123.96c-6.87-8.43-17.05-13.26-27.92-13.26-3.81,0-7.57.6-11.2,1.78-26.08,8.52-52.93,15.71-79.78,21.38-14.47,3.05-25.78,14.91-28.14,29.5l-25.52,157.87c-1.18,7.33-7.17,12.93-14.56,13.63-29.81,2.82-60.11,4.25-90.06,4.25s-60.25-1.43-90.06-4.25c-7.39-.7-13.38-6.31-14.56-13.63l-25.52-157.87c-2.36-14.59-13.67-26.45-28.14-29.5-26.85-5.66-53.69-12.85-79.78-21.38-3.62-1.18-7.39-1.78-11.19-1.78-10.88,0-21.05,4.83-27.92,13.26l-101.03,123.96c-3.11,3.82-7.72,6.01-12.66,6.01-2.34,0-4.62-.5-6.77-1.48-54.58-24.98-107.06-55.28-155.98-90.06-6.05-4.3-8.44-12.15-5.8-19.09l56.84-149.48c5.25-13.82,1.39-29.74-9.62-39.61-20.42-18.33-40.07-37.98-58.4-58.4-6.83-7.61-16.6-11.97-26.82-11.97-4.39,0-8.69.79-12.8,2.35l-149.48,56.84c-1.86.71-3.81,1.07-5.78,1.07-5.28,0-10.25-2.57-13.31-6.87-34.78-48.92-65.08-101.4-90.06-155.98-3.09-6.75-1.23-14.74,4.52-19.43l123.96-101.04c11.46-9.34,16.07-25.06,11.48-39.12-8.52-26.09-15.71-52.93-21.38-79.78-3.05-14.47-14.91-25.78-29.5-28.14l-157.87-25.52c-7.33-1.18-12.93-7.17-13.63-14.57-5.66-59.76-5.66-120.35,0-180.11.7-7.39,6.31-13.38,13.63-14.57l157.87-25.52c14.59-2.36,26.44-13.66,29.5-28.14,5.66-26.85,12.86-53.69,21.38-79.78,4.59-14.06-.02-29.78-11.48-39.12l-123.96-101.03c-5.75-4.69-7.61-12.68-4.52-19.43,24.98-54.58,55.28-107.06,90.06-155.98,3.06-4.3,8.03-6.87,13.31-6.87,1.97,0,3.92.36,5.78,1.07l149.48,56.83c4.1,1.56,8.41,2.35,12.8,2.35,10.22,0,19.99-4.36,26.82-11.97,18.32-20.41,37.96-40.05,58.4-58.4,11.01-9.88,14.87-25.8,9.62-39.62l-56.84-149.47c-2.64-6.94-.25-14.79,5.8-19.09,48.92-34.78,101.4-65.08,155.98-90.06,2.15-.98,4.43-1.48,6.77-1.48,4.93,0,9.55,2.19,12.66,6.01l101.04,123.96c6.87,8.43,17.04,13.26,27.92,13.26,3.81,0,7.57-.6,11.2-1.78,26.08-8.52,52.92-15.71,79.78-21.38,14.47-3.05,25.77-14.91,28.13-29.5l25.52-157.87c1.18-7.33,7.17-12.93,14.57-13.63,29.81-2.82,60.11-4.25,90.06-4.25M999.99,1649.42c177.93,0,344.19-71.11,468.15-200.23,123.81-128.97,188-298.04,180.73-476.07-13.68-335.11-286.89-608.33-622-622-8.93-.36-17.95-.55-26.87-.55-177.94,0-344.21,71.12-468.16,200.24-123.8,128.95-187.98,298.01-180.72,476.03,13.66,335.14,286.89,608.37,622.03,622.03,8.92.36,17.95.55,26.84.55M1000,14.5c-31,0-61.99,1.46-92.88,4.39-20.99,1.99-37.99,17.9-41.35,38.71l-25.52,157.87c-.4,2.46-2.27,4.42-4.71,4.93-28.01,5.91-55.68,13.33-82.9,22.21-.62.2-1.25.3-1.88.3-1.78,0-3.5-.79-4.67-2.21l-101.03-123.96c-9.01-11.06-22.31-17.05-35.91-17.05-6.5,0-13.06,1.37-19.26,4.2-56.43,25.83-110.3,56.93-160.88,92.89-17.18,12.21-23.95,34.5-16.46,54.2l56.84,149.47c.89,2.33.24,4.96-1.62,6.63-21.3,19.12-41.56,39.38-60.69,60.68-1.17,1.3-2.81,2.01-4.49,2.01-.72,0-1.44-.13-2.13-.39l-149.48-56.84c-5.38-2.04-10.94-3.03-16.44-3.03-14.67,0-28.88,6.99-37.76,19.48-35.96,50.58-67.06,104.45-92.88,160.88-8.77,19.17-3.49,41.85,12.85,55.17l123.96,101.03c1.93,1.58,2.69,4.18,1.91,6.55-8.89,27.21-16.3,54.89-22.21,82.9-.52,2.44-2.47,4.32-4.93,4.71l-157.87,25.52c-20.81,3.36-36.72,20.36-38.71,41.35-5.85,61.78-5.85,123.98,0,185.77,1.99,20.99,17.9,37.99,38.71,41.35l157.87,25.52c2.46.4,4.42,2.27,4.93,4.71,5.91,28.01,13.32,55.68,22.21,82.9.77,2.37.02,4.97-1.91,6.55l-123.96,101.03c-16.34,13.32-21.62,36-12.85,55.17,25.83,56.43,56.93,110.3,92.88,160.88,8.88,12.5,23.09,19.48,37.76,19.48,5.5,0,11.07-.98,16.44-3.03l149.48-56.84c.7-.26,1.42-.39,2.13-.39,1.68,0,3.33.71,4.49,2.01,19.12,21.3,39.38,41.56,60.68,60.69,1.86,1.67,2.5,4.3,1.62,6.63l-56.84,149.48c-7.49,19.71-.73,41.99,16.46,54.2,50.58,35.96,104.45,67.06,160.88,92.88,6.2,2.84,12.76,4.2,19.26,4.2,13.6,0,26.9-5.99,35.91-17.05l101.04-123.96c1.16-1.43,2.89-2.21,4.67-2.21.63,0,1.26.1,1.88.3,27.21,8.89,54.88,16.3,82.9,22.21,2.44.52,4.32,2.47,4.71,4.93l25.52,157.87c3.36,20.81,20.36,36.72,41.35,38.71,30.89,2.92,61.89,4.39,92.88,4.39s61.99-1.46,92.88-4.39c20.99-1.99,37.99-17.9,41.35-38.71l25.52-157.87c.4-2.46,2.27-4.42,4.71-4.93,28.01-5.91,55.69-13.32,82.9-22.21.62-.2,1.25-.3,1.88-.3,1.78,0,3.5.79,4.67,2.21l101.03,123.96c9.01,11.06,22.31,17.05,35.91,17.05,6.5,0,13.06-1.37,19.26-4.2,56.43-25.83,110.3-56.93,160.88-92.88,17.18-12.21,23.95-34.5,16.46-54.2l-56.84-149.48c-.89-2.33-.24-4.96,1.62-6.63,21.3-19.12,41.56-39.38,60.69-60.69,1.17-1.3,2.81-2.01,4.49-2.01.72,0,1.44.13,2.13.39l149.47,56.84c5.38,2.04,10.94,3.03,16.44,3.03,14.67,0,28.88-6.99,37.76-19.48,35.96-50.58,67.06-104.45,92.89-160.88,8.77-19.17,3.49-41.85-12.85-55.17l-123.96-101.03c-1.93-1.58-2.69-4.18-1.91-6.55,8.89-27.21,16.3-54.88,22.21-82.9.52-2.44,2.47-4.32,4.93-4.71l157.87-25.52c20.81-3.36,36.72-20.37,38.71-41.35,5.85-61.78,5.85-123.98,0-185.76-1.99-20.99-17.9-37.99-38.71-41.35l-157.87-25.52c-2.46-.4-4.42-2.27-4.93-4.71-5.91-28.01-13.33-55.69-22.21-82.9-.77-2.37-.02-4.97,1.91-6.55l123.96-101.03c16.34-13.32,21.62-36,12.85-55.17-25.83-56.43-56.93-110.3-92.89-160.88-8.88-12.5-23.09-19.48-37.76-19.48-5.5,0-11.07.98-16.44,3.03l-149.47,56.84c-.7.26-1.42.39-2.13.39-1.68,0-3.32-.71-4.49-2.01-19.12-21.3-39.38-41.56-60.69-60.69-1.86-1.67-2.5-4.3-1.62-6.63l56.84-149.47c7.49-19.71.73-41.99-16.46-54.2-50.58-35.96-104.45-67.06-160.88-92.89-6.2-2.84-12.76-4.2-19.26-4.2-13.6,0-26.9,5.99-35.91,17.05l-101.03,123.96c-1.16,1.43-2.89,2.21-4.67,2.21-.63,0-1.26-.1-1.88-.3-27.21-8.89-54.89-16.3-82.9-22.21-2.44-.52-4.32-2.47-4.71-4.93l-25.52-157.87c-3.36-20.81-20.37-36.72-41.35-38.71-30.89-2.92-61.89-4.39-92.88-4.39h0ZM999.99,1619.42c-8.52,0-17.02-.17-25.62-.52-321.51-13.11-580.17-271.77-593.28-593.28-14.37-352.49,269.48-645.02,618.91-645.04,8.52,0,17.05.17,25.64.52,321.49,13.12,580.13,271.76,593.25,593.25,14.39,352.49-269.48,645.07-618.9,645.07h0Z"/>
</svg>