<?xml version="1.0" encoding="UTF-8"?>
<svg id="Ebene_1" data-name="Ebene 1" xmlns="http://www.w3.org/2000/svg" viewBox="0 0 2000 2000">
  <defs>
    <style>
      .cls-1 {
        fill: #59ace8;
      }

      .cls-1, .cls-2, .cls-3, .cls-4, .cls-5, .cls-6, .cls-7, .cls-8, .cls-9, .cls-10 {
        fill-rule: evenodd;
      }

      .cls-11, .cls-7, .cls-9 {
        fill: #172d4d;
      }

      .cls-2 {
        fill: #45a0e5;
      }

      .cls-3 {
        fill: #b9bec6;
      }

      .cls-4 {
        fill: #e3e5e8;
      }

      .cls-12 {
        fill: #cfd8e5;
        stroke-width: 48px;
      }

      .cls-12, .cls-13, .cls-7, .cls-14, .cls-15 {
        stroke: #172d4d;
        stroke-miterlimit: 10;
      }

      .cls-5 {
        fill: #8f97a3;
      }

      .cls-6 {
        fill: #b8ddf5;
      }

      .cls-13 {
        fill: #e6e6e6;
      }

      .cls-13, .cls-15 {
        stroke-width: 70px;
      }

      .cls-7 {
        stroke-width: 25px;
      }

      .cls-8 {
        fill: #92caf0;
      }

      .cls-10 {
        fill: #172d4f;
      }

      .cls-14 {
        fill: #8abee5;
        stroke-width: 34px;
      }

      .cls-15 {
        fill: none;
        stroke-linecap: round;
      }
    </style>
  </defs>
  <rect class="cls-14" x="48" y="574.84" width="1904" height="1379.83" rx="137.35" ry="137.35"/>
  <g>
    <rect class="cls-13" x="126.4" y="430.19" width="1735.6" height="1414.48" rx="137.35" ry="137.35"/>
    <g>
      <line class="cls-15" x1="268.38" y1="646.94" x2="582.62" y2="646.94"/>
      <line class="cls-15" x1="538.14" y1="982.95" x2="852.38" y2="982.95"/>
      <line class="cls-15" x1="268.38" y1="1522.47" x2="582.62" y2="1522.47"/>
      <line class="cls-15" x1="751.36" y1="647.26" x2="854.11" y2="647.26"/>
      <line class="cls-15" x1="276.21" y1="983.28" x2="378.96" y2="983.28"/>
      <line class="cls-15" x1="268.38" y1="814.47" x2="852.38" y2="814.47"/>
      <line class="cls-15" x1="268.38" y1="1149.54" x2="852.38" y2="1149.54"/>
      <line class="cls-15" x1="268.38" y1="1346.42" x2="480.4" y2="1346.42"/>
      <line class="cls-15" x1="636.57" y1="1346.42" x2="844.81" y2="1346.42"/>
      <line class="cls-15" x1="741.8" y1="1518.36" x2="844.55" y2="1518.36"/>
    </g>
    <g>
      <line class="cls-15" x1="1138.8" y1="644.4" x2="1453.04" y2="644.4"/>
      <line class="cls-15" x1="1408.56" y1="980.42" x2="1722.8" y2="980.42"/>
      <line class="cls-15" x1="1138.8" y1="1519.93" x2="1453.04" y2="1519.93"/>
      <line class="cls-15" x1="1621.78" y1="644.72" x2="1724.53" y2="644.72"/>
      <line class="cls-15" x1="1146.63" y1="980.74" x2="1249.38" y2="980.74"/>
      <line class="cls-15" x1="1138.8" y1="811.94" x2="1722.8" y2="811.94"/>
      <line class="cls-15" x1="1138.8" y1="1147" x2="1722.8" y2="1147"/>
      <line class="cls-15" x1="1138.8" y1="1343.88" x2="1350.82" y2="1343.88"/>
      <line class="cls-15" x1="1506.99" y1="1343.88" x2="1715.23" y2="1343.88"/>
      <line class="cls-15" x1="1612.22" y1="1515.82" x2="1714.97" y2="1515.82"/>
    </g>
    <path class="cls-12" d="M943,1854.67H295.2s-159.43-12-165.2-192c0,0,34.63,69,188.28,69h442.21s114.7,0,182.51,123Z"/>
    <path class="cls-12" d="M1037.31,1853.67h647.8s159.43-12,165.2-192c0,0-34.63,69-188.28,69h-442.21s-114.7,0-182.51,123Z"/>
  </g>
  <line class="cls-13" x1="984" y1="1852.67" x2="984" y2="622.46"/>
  <polygon class="cls-3" points="505.73 750.32 977.52 477.93 1449.32 750.32 977.53 1022.71 505.73 750.32"/>
  <polygon class="cls-4" points="977.52 35.29 1449.31 307.68 1449.31 750.31 977.52 477.92 977.52 35.29"/>
  <g>
    <polygon class="cls-5" points="505.73 307.68 977.52 35.3 977.52 477.93 505.73 750.32 505.73 307.68"/>
    <path class="cls-7" d="M1454.96,756.64c.35-.31.67-.66.97-1.02,1.19-1.48,1.87-3.35,1.88-5.31,0-.06,0-.11,0-.17v-442.47c0-3.03-1.62-5.83-4.24-7.35L981.76,27.95c-2.62-1.51-5.86-1.51-8.48,0,0,0-.01,0-.02.01l-471.78,272.38c-2.62,1.51-4.24,4.32-4.24,7.35v442.63c0,3.03,1.62,5.83,4.24,7.35.03.02.06.03.09.05l471.71,272.34c2.62,1.51,5.85,1.51,8.48,0l471.79-272.39c.46-.27.89-.57,1.28-.91.03-.02.06-.05.09-.07.01-.01.03-.02.04-.04ZM986,49.99l454.83,262.59v423.04s-408.6-235.9-454.83-262.59V49.99ZM514.21,312.58L969.04,49.99v423.04l-454.83,262.59v-423.04ZM977.53,1012.91l-454.83-262.6,454.83-262.59,454.83,262.6-454.83,262.59Z"/>
  </g>
  <g id="Avatar">
    <path class="cls-2" d="M823.33,450.63c54.17-31.27,98.15,12.48,98.15,97.65s15.27,145.5-98.15,210.98c-107.11,61.84-98.15-12.47-98.15-97.64s43.98-179.71,98.15-210.98Z"/>
    <path class="cls-9" d="M863.1,432.24c-13.53-1.4-28.42,1.97-44.04,10.98-41.71,24.08-77.96,84.16-93.86,149.65-13.63,41.59-16.76,82.88-8.88,136.75.53,3.64,3.55,38.2,16.4,54.58,57.3,44.19,81.1,34.55,89.05,33.05,13.81-2.6,31.51-9.76,54.03-22.77,47.3-27.31,72.93-53.97,86.9-81.57,20.69-40.87,15.53-84.21,15.53-136.82,0-43.26-11.24-76.31-28.79-95.83-2.46-3.8-6.02-7.73-10.96-11.4-57.39-42.65-60.68-37.83-60.68-37.83-3.77-2.18-8.43-2.15-12.17.07l-2.51,1.14ZM917.59,478.81c7.87,18.43,12.45,41.87,12.45,69.47,0,52.61,5.16,95.96-15.53,136.82-13.97,27.59-39.6,54.26-86.9,81.57-15.35,8.86-28.45,15.01-39.62,18.85,1.89,4.91,4.44,8.91,7.99,11.71,5.23,4.13,12.57,5.1,22.6,3.2,12.46-2.35,28.33-9.04,48.65-20.77,43.43-25.08,67.36-49.14,80.19-74.48,19.51-38.53,13.68-79.5,13.68-129.09,0-28.2-4.95-51.63-13.77-68.87-7.42-14.51-17.53-24.46-29.74-28.42ZM898.13,477.47c.35.64.69,1.28,1.02,1.94,8.82,17.24,13.77,40.67,13.77,68.87,0,49.6,5.83,90.57-13.68,129.09-12.83,25.34-36.76,49.41-80.19,74.48-13.58,7.84-25.17,13.43-35.08,16.98-3.23-21.5-2.06-49.79-2.06-79.39,0-82.05,41.69-173.44,93.88-203.58h0c7.75-4.47,15.23-7.26,22.35-8.38Z"/>
    <path class="cls-9" d="M766.22,405.77c2.42,8.66,8.48,24.21,18.21,31.7,45.48,35.05,52.96,34.1,63.36,35.48,15.44,2.04,32.54,1.14,49.04-13.67,28.28-25.38,42.82-76.59,32.3-114.32-4.68-16.77-13.4-28.41-23.89-34.95-.45-.28-44.68-28.67-57.68-32.23-15.03-4.11-32.54-1.14-49.04,13.67h0c-28.28,25.39-42.82,76.59-32.3,114.32ZM883.2,327.74c5.51,36.23-8.84,80.65-34.55,103.73-2.37,2.13-4.77,4.03-7.18,5.7,3.41,6.56,8,11.03,13.62,12.81,7.89,2.51,16.87-.77,25.64-8.63,22.23-19.95,33.45-60.26,25.18-89.91-3.36-12.07-9.35-20.28-17.49-22.87-1.69-.54-3.44-.81-5.22-.83ZM860.31,339.55c1.48,25.64-8.34,54.65-25.27,71.63-1.48-25.64,8.34-54.65,25.27-71.63Z"/>
    <path class="cls-2" d="M871.51,478.44c54.17-31.27,98.15,12.48,98.15,97.65s15.27,145.5-98.15,210.98c-107.11,61.84-98.15-12.47-98.15-97.64s43.98-179.71,98.15-210.98Z"/>
    <path class="cls-1" d="M884.99,502.81c46.78-27.01,84.76,10.78,84.76,84.33s13.18,125.66-84.76,182.21c-92.5,53.41-84.77-10.77-84.77-84.33s37.98-155.2,84.77-182.21Z"/>
    <path class="cls-8" d="M898.38,551.53c28.94-16.71,52.44,6.67,52.44,52.17s8.16,77.74-52.44,112.73c-57.23,33.04-52.44-6.66-52.44-52.17s23.5-96.02,52.44-112.73Z"/>
    <path class="cls-6" d="M902.37,593.38c17.41-10.05,31.54,4.01,31.54,31.38s4.91,46.76-31.54,67.8c-34.42,19.87-31.54-4.01-31.54-31.38s14.13-57.75,31.54-67.8Z"/>
    <path class="cls-2" d="M853.74,329.13c24.72-22.19,52.39-12.85,61.79,20.86,9.4,33.71-3.02,79.03-27.74,101.22-24.72,22.19-52.39,12.85-61.79-20.86-9.4-33.71,3.02-79.03,27.74-101.22Z"/>
  </g>
  <g id="Fernseher_rechts" data-name="Fernseher rechts">
    <g>
      <polygon class="cls-5" points="1068.89 197.74 1353.78 362.22 1353.78 613.12 1068.89 448.64 1068.89 197.74"/>
      <path class="cls-11" d="M1353.78,620.82c-1.33,0-2.66-.34-3.85-1.03l-284.89-164.48c-2.38-1.38-3.85-3.92-3.85-6.67v-250.9c0-2.75,1.47-5.29,3.85-6.67,2.38-1.38,5.32-1.38,7.7,0l284.89,164.48c2.38,1.38,3.85,3.92,3.85,6.67v250.9c0,2.75-1.47,5.29-3.85,6.67-1.19.69-2.52,1.03-3.85,1.03ZM1076.59,444.19l269.49,155.59v-233.11l-269.49-155.59v233.11Z"/>
    </g>
    <g id="Videobutton">
      <path class="cls-2" d="M1211.33,319.22c40.23,23.23,72.85,79.72,72.85,126.18s-32.62,65.29-72.85,42.06-72.85-79.72-72.85-126.18,32.62-65.29,72.85-42.06Z"/>
      <path class="cls-10" d="M1256.55,431.04l-72.27,8.28v-100.02l72.27,91.73Z"/>
    </g>
  </g>
</svg>