<?xml version="1.0" encoding="UTF-8"?>
<svg id="Ebene_1" xmlns="http://www.w3.org/2000/svg" viewBox="0 0 200 200">
  <defs>
    <style>
      .cls-1 {
        fill: #59ace8;
      }

      .cls-1, .cls-2, .cls-3, .cls-4, .cls-5, .cls-6, .cls-7, .cls-8, .cls-9, .cls-10, .cls-11 {
        fill-rule: evenodd;
      }

      .cls-12 {
        fill: #fff;
      }

      .cls-13 {
        fill: none;
      }

      .cls-2 {
        fill: #45a0e5;
      }

      .cls-3, .cls-6, .cls-9, .cls-10, .cls-11 {
        stroke: #172d4d;
        stroke-linejoin: round;
      }

      .cls-3, .cls-7 {
        fill: #172d4d;
      }

      .cls-3, .cls-9, .cls-10, .cls-11 {
        stroke-width: 3px;
      }

      .cls-4 {
        fill: #b8ddf5;
      }

      .cls-5 {
        fill: #92caf0;
      }

      .cls-6 {
        stroke-linecap: round;
        stroke-width: 2.52399903112898px;
      }

      .cls-6, .cls-10 {
        fill: #8f97a3;
      }

      .cls-8 {
        fill: #172d4f;
      }

      .cls-9 {
        fill: #b9bec6;
      }

      .cls-11 {
        fill: #e3e5e8;
      }
    </style>
  </defs>
  <rect id="lernwelt-icon" class="cls-13" x="-53.518226268624858" y=".2527438207253" width="191.493000692531496" height="191.493000692533315"/>
  <rect id="lernwelt-icon-2" data-name="lernwelt-icon" class="cls-13" x="-53.518226268624858" y="-2.847619047624448" width="191.493000692531496" height="191.493000692532405"/>
  <g>
    <polygon class="cls-9" points="9.897984952355728 142.411256376352867 98.649847172522641 91.170392126569823 187.401928441504424 142.4113186298664 98.650066221337511 193.652182879649445 9.897984952355728 142.411256376352867"/>
    <path class="cls-3" d="M99.447254587904354,89.788175799483724c-.492897288879249-.284573763139633-1.10114797706683-.284633339006177-1.5948901587808.000428579412073L9.100392284664849,141.029532093443777c-.493523973792435.284935936129841-.797920535192134.811912160888824-.798560345393525,1.381429438043597.000616091595475.570227215060186.304701941457097,1.09714673083181.798842006845007,1.382438009762154l88.751975178304747,51.240865251952528c.49289728887652.284573763139633,1.101357981681758.284512092895056,1.594881955474193-.000423843234785l88.751758858521498-51.240804573968489c.493743822374199-.285062865656982.797927097834872-.811915949835566.798773631332551-1.381552578623086-.000413039485466-.57036194754437-.304693738152309-1.097151467009098-.797606182842173-1.381733980344507l-88.753202799002793-51.241574017547464ZM98.649514174971955,93.012798581898096l85.561146486530561,49.398643456790523-85.560487691410344,49.398325007147832L13.08902648356252,142.411123589045928l85.560487691409435-49.398325007147832h0Z"/>
  </g>
  <g>
    <polygon class="cls-11" points="98.649389130538111 7.90377679915764 187.401251350705024 59.144641048950689 187.401251350705024 142.410973745811134 98.649389130538111 91.170109496026271 98.649389130538111 7.90377679915764"/>
    <path class="cls-3" d="M188.996991116236131,59.144561834911656c0-.569600259957951-.304073559236713-1.096935936120644-.797815740949773-1.381997854538895L99.447203230827654,6.521636265824782c-.493523973793344-.284935936139846-1.102097664142093-.284516908857768-1.595634763223643.000139837084134-.493523973794254.284664323827201-.797807537646804.811378101587252-.797807537646804,1.38214432228051v83.266218944598222c0,.570766220692349.30428356385255,1.097057182231765.797807537646804,1.381993118362516l88.75175885851877,51.24080457396758c.493743822376018.285062865657892,1.10210422678847.285686658540726,1.595848049163578-.000016696503735.49374218171306-.28453834154061.797815740949773-.811373365409963.797815740949773-1.382139586103222V59.144561834911656ZM185.805511585172098,60.066085190827835v79.580730795132695s-76.863546825136837-44.377148491300431-85.560487691410344-49.398325007137828V10.667760183680912l85.560487691410344,49.398325007146923h0Z"/>
  </g>
  <g>
    <polygon class="cls-10" points="9.897175309687555 59.145119333684306 98.649037529856287 7.904255083899443 98.649037529856287 91.170587780760798 9.897175309687555 142.411452030554756 9.897175309687555 59.145119333684306"/>
    <path class="cls-3" d="M100.244777295386484,7.904334297929381c0-.570766220694168-.304073559235803-1.097601244562611-.797815740948863-1.382139586102312-.493743822376928-.284537394300969-1.10210422678847-.285079562162537-1.595848049164488-.000016696505554L9.099354646753454,57.762982589290004c-.493523973792435.284935936129841-.797807537645895.812392858404564-.797807537645895,1.381993118362516v83.266218944599132c0,.570766220701444.30428356385346,1.0974799984524.797807537645895,1.382144322279601.49353709908155.285822706686304,1.102110789433027.285075773224889,1.595634763224552.000139837093229l88.751972144459614-51.24092771454707c.49374218171306-.285061918418251.797815740948863-.811231633846546.797815740948863-1.381997854549809V7.904334297929381ZM97.05329776432427,10.668299091479639v79.580730795132695L11.492810072911197,139.647354893758347V60.066624098626562L97.05329776432427,10.668299091479639h0Z"/>
  </g>
  <g id="Avatar">
    <path class="cls-2" d="M69.889117046760475,86.479660543504906c10.104116636010076-5.833609766405971,18.307792434252406,2.327749290800966,18.307792434252406,18.213694621506875,0,15.886942507995627,2.847359313384004,27.139760353497877-18.307792434252406,39.353683083284523-19.97920296043867,11.534988927175618-18.308446550558074-2.326362148746739-18.308446550558074-18.213304656743276,0-15.885945330705908,8.203604114266454-33.520044240975039,18.308446550558074-39.354073048048122Z"/>
    <path class="cls-7" d="M77.305862513028842,83.04926786894157c-2.52416269781861-.261292573449282-5.301769607887763.367090586289123-8.214762209701803,2.048878098627029-7.779496655576622,4.491565106271082-14.542358793772109,15.697254202976183-17.507630948325641,27.914511153501735-2.542068415413269,7.758341728134837-3.125643451900942,15.459226205811319-1.656606135995389,25.506870029810671.099480754113756.679797814893391.661705092418742,7.124488675537577,3.058236957255758,10.179762774173469,10.687229745041805,8.242812942234195,15.127181503468819,6.444702548458736,16.609627653911957,6.164160159813946,2.576348748117198-.485429614124769,5.876727809979457-1.820141906613571,10.078084712685268-4.246354952801084,8.822563144456581-5.093720831106111,13.602898854248451-10.067746848964816,16.209209291042498-15.214121242576766,3.860020395214633-7.623335890059025,2.896810835490214-15.708176456960246,2.896810835490214-25.521234342427306,0-8.068553610326489-2.097037700027613-14.234724072623067-5.370990634293776-17.875773437076532-.459395027997743-.708427093788487-1.123110422914579-1.441363515107696-2.043904937505431-2.125666978916342-10.705702321188255-7.955672787524236-11.318382914622816-7.056804595528774-11.318382914622816-7.056804595528774-.703740283885054-.406250577669198-1.57206239694915-.401078723858518-2.270817831909881.013598761371213l-.468873838030959.212174572028744ZM87.471266818500226,91.73529407283786c1.468081837827413,3.436916002424368,2.321759130953978,7.810329085742524,2.321759130953978,12.957948230612601,0,9.813057885457056.963209559726238,17.898845164579143-2.896904337931119,25.521222654612757-2.606222778252231,5.146374393612859-7.386651990487735,10.121370499310615-16.209215134943406,15.215079642612181-2.862816854012635,1.652585530998294-5.307227812925703,2.799626735103629-7.389620693014876,3.515808687639037.353117815150654.915342153461097.827251165527741,1.661211131257005,1.490773711659131,2.184941683074612.976042769857486.769805602883025,2.343778955986636.950756203265883,4.215049166519748.59745722712978,2.324342135909319-.43851476396776,5.283577539066755-1.686094468554984,9.07389770786267-3.873899663902193,8.101495689335025-4.677225892163733,12.564431516723744-9.166769008130359,14.957708327808177-13.892826550492828,3.639132564400825-7.186726238328447,2.552604971816436-14.828260041115755,2.552604971816436-24.079286437060546,0-5.260307118872333-.923576212233456-9.630465148441544-2.569359440597509-12.845727768807592-1.384876352480205-2.705604186017808-3.269552475599085-4.562802279068819-5.54669341013323-5.30071770541781ZM83.841133864117182,91.486256163153485c.064633562854397.118631222965632.128302881782474.239272748422991.190920298236961.361731727593906,1.64578907226587,3.215262620367866,2.56935944059569,7.585514152378892,2.56935944059569,12.845254412703071,0,9.251026395944791,1.08652759258257,16.89350691094478-2.552604971814617,24.079286437060546-2.393183308643529,4.726045854549739-6.856212638474062,9.215600658329095-14.957708327808177,13.892814862678279-2.533068805394578,1.463009330366731-4.694927073161125,2.50473172164584-6.543984609877953,3.166343311624587-.602249227275024-4.010822302047927-.384709952654703-9.286452133562307-.384709952654703-14.8091154161757,0-15.305075742785448,7.775762401807697-32.352166258196121,17.510313299623704-37.972393494867902h.000093502440905c1.444817261542084-.83424047304743,2.841182726552688-1.353471219858875,4.16832132125819-1.563921840616786Z"/>
    <path class="cls-7" d="M59.235528026382781,78.112026342997524c.450588266764498,1.615722193343572,1.581161353311472,4.515209536230032,3.396032059766185,5.913591147639636,8.484101837048911,6.537281653590071,9.878836853233224,6.361012019190639,11.819240431628714,6.617132738839246,2.880816074050017.380309493986715,6.06994476194177.21303946961234,9.147045836823054-2.5489642204966,5.275343480289848-4.734951962132982,7.986405871350144-14.286331576568045,6.024175316709261-21.3235065032286-.872155713177563-3.128042373921744-2.49955986783516-5.298421051693367-4.45556082229723-6.519668131120852-.08454373904533-.052852255202197-8.333679783891967-5.348018253134796-10.759612322756766-6.011061599255299-2.803074637639838-.765972002770468-6.070038264384493-.213036547659613-9.147139339263049,2.548964220486596h0c-5.275249977848944,4.735045464574796-7.986405871350144,14.286430922918044-6.024181160610169,21.323512347135875ZM81.056730495313786,63.556734992755992c1.028222976252437,6.757503279505727-1.648465579662115,15.044075364466153-6.444696704551461,19.349126475065532-.442541212873039.397157465211421-.889576386854969.751034987699313-1.338820556019527,1.062976665069073.636330867290781,1.224022933165543,1.492398316583603,2.057112157406664,2.540058112914267,2.390313952464567,1.471529740368169.468102442878262,3.146900647642724-.142760696842743,4.782059661063613-1.610556183439257,4.146301496227352-3.721666000948062,6.239125742473334-11.239776580632679,4.696843873216494-16.77095442933205-.627617608500259-2.250615460600784-1.743639377549698-3.783517866166221-3.261990465623057-4.266463821673824-.315962282362307-.100532656586438-.641309872314196-.15128110684509-.973453921000328-.154442658154039ZM76.785766868631981,65.760821300771568c.276802290976775,4.782825212306307-1.556166981855313,10.19288817944016-4.713984039572097,13.360756749647408-.276702944633143-4.782924558654486,1.556266328200763-10.19288817944016,4.713984039572097-13.360756749647408Z"/>
    <path class="cls-2" d="M78.874997482317667,91.667693940908975c10.104116636009167-5.833609766415975,18.307792434255134,2.327749290800966,18.307792434255134,18.213694621495961,0,15.886942507997446,2.847359313383095,27.139760353507882-18.307792434255134,39.353683083295437-19.97920296043867,11.534988927166523-18.308446550558074-2.326362148756743-18.308446550558074-18.21330465675328,0-15.885945330695904,8.203604114266454-33.52004424097413,18.308446550558074-39.354073048038117Z"/>
    <path class="cls-1" d="M81.389381907158167,96.211968495119436c8.726098332662332-5.038006407164175,15.81094149942237,2.010282672492394,15.81094149942237,15.72965776914134,0,13.720236276089054,2.459031130782932,23.438362696151671-15.81094149942237,33.98651785790662-17.25440193551276,9.961816173616171-15.811506406122135-2.009084712750337-15.811506406122135-15.729320988830295,0-13.719375096658041,7.084781259175543-28.948486340294949,15.811506406122135-33.986854638217665Z"/>
    <path class="cls-5" d="M83.888083009951515,105.299196337595276c5.398655522703848-3.116907833257756,9.781900614790175,1.243723531845717,9.781900614790175,9.731615467941992,0,8.488424729895087,1.521351409142881,14.500827896321425-9.781900614790175,21.026748030803901-10.674939560496568,6.163164624181263-9.782250110816676-1.242982379203568-9.782250110816676-9.731407109098654,0-8.487891936096275,4.383206791154407-17.909824662236133,9.782250110816676-21.026956389647239Z"/>
    <path class="cls-4" d="M84.630778553637356,113.105986821996339c3.247123258158354-1.874729646893684,5.883508748003806.748063939927306,5.883508748003806,5.853285109783428,0,5.105541629907748.915045518958323,8.721828040822402-5.883508748003806,12.646979698756695-6.420643877082512,3.706964741249067-5.8837189589849-.74761815808597-5.8837189589849-5.853159787984623,0-5.105221169856122,2.636362453026777-10.772240707829042,5.8837189589849-12.6471050205555Z"/>
    <path class="cls-2" d="M75.560838879931907,63.815497837800649c4.611520648557416-4.139214499145055,9.771329586088541-2.396971226865389,11.5247681935316,3.891405898387347,1.753438607444878,6.288377125243642-.563487441692814,14.741597583055409-5.175008090252049,18.880812082199554-4.611520648557416,4.13921449913596-9.771329586088541,2.396971226855385-11.524768193529781-3.891405898387347-1.753438607445787-6.288377125252737.563487441690995-14.741597583054499,5.17500809025023-18.880812082199554Z"/>
  </g>
  <g id="Fernseher_rechts">
    <polygon class="cls-6" points="115.692613671708386 39.309038317921477 168.831912220763115 69.989041971384722 168.831912220763115 116.787787232507071 115.692613671708386 86.107783579045645 115.692613671708386 39.309038317921477"/>
    <g id="Videobutton">
      <path class="cls-2" d="M142.261899045683094,61.96743282798252c7.504542601833236,4.332758193546397,13.588173279914372,14.869938793617621,13.588173279914372,23.535452686802273,0,8.665516387092794-6.083630678081136,12.177909089144123-13.588173279914372,7.84515089560773-7.504540442051621-4.332756946591871-13.588173279912553-14.869936299719484-13.588173279912553-23.535452686812278,0-8.665513893184652,6.083632837860932-12.177907842190507,13.588173279912553-7.845150895597726Z"/>
      <path class="cls-8" d="M150.696183835353622,82.825462631071787l-13.480010344628681,1.545172865799941v-18.655638686106613l13.480010344628681,17.110465820306672Z"/>
    </g>
  </g>
  <g>
    <path d="M34.953591104606858,77.681737986477856l9.116488070078958,28.415438797339448,9.08843733755657-28.415438797339448h12.959438425773442v40.841913305171147h-9.8738578482089v-9.53724905792933l.953724905793024-19.52335658744687-9.87385784820799,29.060605645376199h-6.507769945410473l-9.901908580733107-29.088656377899497.953724905793933,19.551407319970167v9.53724905792933h-9.845807115686512v-40.841913305171147h12.931387693251054Z"/>
    <path d="M92.023180433068774,119.084665942114952c-4.65642159887102,0-8.424850508495183-1.38851125990459-11.304445206897981-4.16553377971286-2.880062210610049-2.777022519809179-4.31981280859145-6.390798390788405-4.31981280859145-10.841608120264027v-.78542051065233c0-3.104047309804628.575040016728053-5.843809106583649,1.725120050184159-8.218911380548889,1.150080033456106-2.374681512983443,2.828261857885082-4.212004493259883,5.035106487935991-5.511968940832958,2.206377117843658-1.299543686588549,4.824725994010805-1.949525910370539,7.854205106528752-1.949525910370539,4.263711343544855,0,7.629799246343282,1.323199804341129,10.09826370839528,3.969178652049777,2.468464462052907,2.646399608692263,3.702696693078906,6.335070935508156,3.702696693078906,11.066060731665857v3.674645960554699h-18.793990790623866c.33660879027957,1.70183794219065,1.075091075176715,3.039109864018428,2.216007869341411,4.011254750835178,1.140449281957444.972518896584006,2.617881363960805,1.458638091213288,4.43201573868555,1.458638091213288,2.991797628495988,0,5.32963917943016-1.047133845096141,7.012683130828918-3.141682042612047l4.31981280859145,5.105233319244689c-1.178130765979404,1.626942486352164-2.847149351116968,2.922044806952727-5.007055755412694,3.885026454479885-2.159906404295725.962888145083525-4.483722588967794,1.444612724950275-6.970607032044427,1.444612724950275ZM90.95725259718256,94.904887755797063c-2.767859280516859,0-4.413595757660005,1.832928365514817-4.936928924103995,5.497943574569945h9.53724905792842v-.729319045605735c.037213971814708-1.514739556259883-.346239541779141-2.688054946494049-1.150080033456106-3.520366931677017-.804308003885126-.831891224199353-1.954388037341232-1.248257597287193-3.450240100368319-1.248257597287193Z"/>
    <path d="M122.696936954645025,88.17271195020021l.308558057757182,3.562443030461509c2.09417418774774-2.748971787285882,4.983399637650109-4.123457680928368,8.667676349706198-4.123457680928368,3.160102023634863,0,5.521132180122549.944514915277068,7.082809962137617,2.833123984855774,1.561210269805997,1.889029830562322,2.370286898220911,4.731363805924047,2.426388363267506,8.527422687088801v19.551407319971077h-9.481147592882735v-19.158697064644912c0-1.5331595372827-.308558057756272-2.660004213970751-.925674173268817-3.380113269059621-.617116115514364-.719688294106163-1.739145416447172-1.079953202147408-3.366087902798427-1.079953202147408-1.851348346539453,0-3.225834240181939.729319045605735-4.123457680928368,2.187957136819023v21.430806399032917h-9.453096860359437v-30.350939341448793h8.864031477369281Z"/>
    <path d="M169.892668434898042,115.241715586420469c-2.001232760655512,2.562247411121461-4.703359824627114,3.842950355694484-8.106661699239339,3.842950355694484-3.328873930984628,0-5.848577731111618-.967750272054218-7.559672415034584-2.903250816163563-1.711094683922056-1.935500544109345-2.566642025883084-4.716917678679238-2.566642025883084-8.345092925687823v-19.663610250063357h9.453096860358528v19.719711715109952c0,2.59946138293617,1.262282963549296,3.899051820741988,3.786848890648798,3.899051820741988,2.169069643585317,0,3.711859932367588-.775789759153668,4.628370866347723-2.32821079943642v-21.29055273641552h9.509198325405123v30.350939341448793h-8.864031477369281l-.280507325233884-3.281935705228534ZM153.763497233990165,80.234354646100655c0-1.028246351864254.406735621587359-1.907449811586048,1.220206864763895-2.636768857192692s1.818435487044553-1.093978568408602,3.015453746256753-1.093978568408602c1.19655074700222,0,2.201982503081126.364659522802867,3.015453746257663,1.093978568408602.813471243175627.729319045606644,1.220206864763895,1.608522505328438,1.220206864763895,2.636768857192692,0,1.028667112846051-.406735621588268,1.907449811585138-1.220206864763895,2.636768857191782-.813471243176537.729319045606644-1.818902999255442,1.093978568409511-3.015453746257663,1.093978568409511-1.1970182592122,0-2.201982503080217-.364659522802867-3.015453746256753-1.093978568409511s-1.220206864763895-1.608101744345731-1.220206864763895-2.636768857191782ZM168.321827413592473,80.234354646100655c0-1.028246351864254.406735621588268-1.907449811586048,1.220206864764805-2.636768857192692s1.818435487043644-1.093978568408602,3.015453746256753-1.093978568408602c1.19655074700313,0,2.201982503081126.364659522802867,3.015453746256753,1.093978568408602.813471243176537.729319045606644,1.220206864764805,1.608522505328438,1.220206864764805,2.636768857192692,0,1.028667112846051-.406735621588268,1.907449811585138-1.220206864764805,2.636768857191782-.813471243175627.729319045606644-1.818902999253623,1.093978568409511-3.015453746256753,1.093978568409511-1.19701825921311,0-2.201982503080217-.364659522802867-3.015453746256753-1.093978568409511s-1.220206864764805-1.608101744345731-1.220206864764805-2.636768857191782Z"/>
  </g>
  <g>
    <path class="cls-12" d="M33.34871519450644,76.349608698945303l9.116488070078958,28.415345294897634,9.08843733755657-28.415345294897634h12.959438425773442v40.841819802728423h-9.8738578482089v-9.53724905792842l.953724905793933-19.523263085005055-9.8738578482089,29.060512142933476h-6.507769945410473l-9.901908580732197-29.088562875457683.953724905793024,19.551313817529262v9.53724905792842h-9.845807115686512v-40.841819802728423h12.931387693251054Z"/>
    <path class="cls-12" d="M90.418304522968356,117.752443152140586c-4.65642159887102,0-8.424850508496093-1.38851125990459-11.304445206897981-4.165533779713769-2.880062210610959-2.77702251980827-4.31981280859145-6.39070488834659-4.31981280859145-10.841608120263118v-.78542051065233c0-3.103953807363723.575040016728053-5.843715604141835,1.725120050184159-8.218817878107075,1.150080033456106-2.374681512983443,2.828261857884172-4.212004493259883,5.035106487935082-5.511968940832958,2.206377117843658-1.299543686589459,4.824725994011715-1.949525910370539,7.854205106530571-1.949525910370539,4.263711343544855,0,7.629799246342372,1.32319980434022,10.09826370839437,3.969178652049777,2.468464462053817,2.646399608692263,3.702696693078906,6.335070935508156,3.702696693078906,11.065967229224043v3.674645960554699h-18.793990790623866c.33660879027866,1.701931444632464,1.075091075175806,3.039203366460242,2.216007869341411,4.011254750835178,1.140449281956535.972612399024911,2.617881363959896,1.458638091212379,4.43201573868555,1.458638091212379,2.991797628495078,0,5.32963917943016-1.047040342653418,7.012683130828918-3.141682042612047l4.31981280859145,5.10523331924378c-1.178130765979404,1.626942486353073-2.847149351116968,2.92213830939636-5.007055755412694,3.885026454479885-2.159906404295725.962981647527158-4.483722588968703,1.444612724952094-6.970607032044427,1.444612724952094ZM89.352376687082142,93.572758468263601c-2.767859280517769,0-4.413595757660914,1.832928365515727-4.936928924103995,5.497943574570854h9.53724905792842v-.729319045605735c.037213971813799-1.514739556259883-.346239541780051-2.688054946494049-1.150080033456106-3.520366931677017-.804308003886035-.831891224200263-1.954388037341232-1.248257597288102-3.450240100368319-1.248257597288102Z"/>
    <path class="cls-12" d="M121.092061044544607,86.840582662667657l.308558057756272,3.562443030461509c2.094174187749559-2.748971787285882,4.983399637651019-4.123457680928368,8.667676349706198-4.123457680928368,3.160102023634863,0,5.521132180123459.944514915276159,7.082809962137617,2.833123984855774,1.561210269806907,1.889029830561412,2.370286898220911,4.731363805924047,2.426388363267506,8.527422687088801v19.551313817528353h-9.481147592882735v-19.158603562202188c0-1.5331595372827-.308558057756272-2.660004213970751-.925674173268817-3.380113269059621-.617116115514364-.719688294106163-1.739145416447172-1.079953202148317-3.366087902798427-1.079953202148317-1.851348346539453,0-3.225834240181939.729319045606644-4.123457680928368,2.187957136819932v21.430712896590194h-9.453096860359437v-30.35084583900607h8.86403147737019Z"/>
    <path class="cls-12" d="M168.287792524796714,113.909492796445193c-2.001232760655512,2.562340913564185-4.703359824626204,3.842950355695393-8.106661699239339,3.842950355695393-3.328873930983718,0-5.848577731111618-.967750272055127-7.559672415034584-2.903250816163563-1.711094683922056-1.935500544109345-2.566642025883084-4.716824176238333-2.566642025883084-8.345092925688732v-19.663516747620633h9.453096860358528v19.719618212668138c0,2.599554885377984,1.262282963549296,3.899051820741079,3.786848890648798,3.899051820741079,2.169069643586226,0,3.711859932368498-.775696256711853,4.628370866347723-2.32821079943551v-21.290459233973706h9.509198325405123v30.35084583900607h-8.864031477369281l-.280507325233884-3.281935705228534ZM152.158621323888838,78.902225358567193c0-1.028246351863345.406735621587359-1.907449811585138,1.220206864763895-2.636768857191782s1.818435487045463-1.093978568408602,3.015453746257663-1.093978568408602c1.196550747001311,0,2.201982503080217.364659522801958,3.015453746256753,1.093978568408602.813471243175627.729319045606644,1.220206864763895,1.608522505328438,1.220206864763895,2.636768857191782,0,1.028667112846961-.406735621588268,1.907449811586048-1.220206864763895,2.636768857192692-.813471243176537.729319045605735-1.818902999255442,1.093978568409511-3.015453746256753,1.093978568409511-1.1970182592122,0-2.201982503081126-.364659522803777-3.015453746257663-1.093978568409511s-1.220206864763895-1.608101744345731-1.220206864763895-2.636768857192692ZM166.716951503491146,78.902225358567193c0-1.028246351863345.406735621588268-1.907449811585138,1.220206864764805-2.636768857191782s1.818435487044553-1.093978568408602,3.015453746256753-1.093978568408602c1.19655074700313,0,2.201982503081126.364659522801958,3.015453746256753,1.093978568408602.813471243176537.729319045606644,1.220206864764805,1.608522505328438,1.220206864764805,2.636768857191782,0,1.028667112846961-.406735621588268,1.907449811586048-1.220206864764805,2.636768857192692-.813471243175627.729319045605735-1.818902999253623,1.093978568409511-3.015453746256753,1.093978568409511-1.1970182592122,0-2.201982503080217-.364659522803777-3.015453746256753-1.093978568409511s-1.220206864764805-1.608101744345731-1.220206864764805-2.636768857192692Z"/>
  </g>
</svg>