<?xml version="1.0" encoding="UTF-8"?>
<svg id="Ebene_1" xmlns="http://www.w3.org/2000/svg" viewBox="0 0 200 200">
  <defs>
    <style>
      .cls-1 {
        fill: #172d4d;
      }

      .cls-2 {
        fill: #cfd8e5;
      }

      .cls-3 {
        fill: #e5bd73;
      }
    </style>
  </defs>
  <path class="cls-3" d="M85.55,41.45c-11.3,0-20.5-9.2-20.5-20.5S74.24.45,85.55.45s20.5,9.2,20.5,20.5-9.2,20.5-20.5,20.5ZM85.55,6.45c-8,0-14.5,6.5-14.5,14.5s6.5,14.5,14.5,14.5,14.5-6.5,14.5-14.5-6.5-14.5-14.5-14.5Z"/>
  <polygon class="cls-2" points="142.13 199.08 142.33 152.96 152.23 133.92 151.47 70.07 141.11 66.41 133.19 69.92 131.05 55.44 114.75 55.9 110.02 46.91 96.46 47.67 93.72 15.06 80.31 13.54 75.89 28.93 75.89 92.16 71.01 102.37 62.48 101.46 49.83 80.13 35.51 71.75 25.3 74.95 24.84 85.31 39.47 103.59 54.4 134.07 76.8 163.17 76.79 199.04 142.13 199.08"/>
  <path class="cls-1" d="M150.85,66.01c-2.37-2.09-5.52-3.06-8.62-2.66l-.26.04c-2.38.34-4.29.98-5.84,1.73v-2.8c0-3.22-1.39-6.29-3.81-8.42-2.37-2.09-5.51-3.06-8.63-2.66l-.25.03c-2.45.35-4.41,1.02-5.98,1.8-.12-3.06-1.48-5.95-3.78-7.98-2.37-2.09-5.52-3.06-8.62-2.66l-.26.04c-2.38.34-4.3.98-5.85,1.74.04-11.36-.06-21.47-.5-23.71-1.05-5.26-3.45-10.65-13.23-10.65-7.79,0-10.74,7.11-11.21,10.86-.01.09-.02.19-.02.28,0,.34-1.02,34.32,0,53.77.57,10.86-1.2,20.01-3.57,24.16-.04.06-.08.12-.12.19,0,.02-.03.06-.04.08-.64,1.06-1.33,1.76-2.02,2.02-1.4.52-3.78-1.14-6.39-4.44-.46-.58-.87-1.28-1.21-2.06-8-18.37-21.57-26.17-30.29-24.19-5.3,1.21-8.32,5.71-8.09,12.06.08,2.16.97,4.24,2.51,5.85,12.39,13,19.92,29.3,24.43,39.04,1.44,3.11,2.57,5.57,3.56,7.3,4.21,7.37,6.36,10.62,13.87,18.13,5.04,5.04,6.83,7.88,7.36,8.84v33.11h0v4.22h6v-3s0,0,0,0v-35c0-.32-.05-.64-.15-.95-.21-.63-1.62-4.13-8.96-11.47-7.02-7.02-8.9-9.87-12.9-16.87-.86-1.5-1.95-3.86-3.32-6.84-4.66-10.08-12.45-26.94-25.53-40.66-.53-.55-.83-1.24-.86-1.93-.13-3.43,1.03-5.44,3.42-5.99,5.29-1.21,16.41,4.55,23.46,20.73.55,1.26,1.22,2.4,2.01,3.39,3.3,4.18,6.54,6.43,9.66,6.78-1.07,2.97-1.97,6.19-1.97,8.62,0,1.66,1.34,3,3,3s3-1.34,3-3c0-3.23,2.96-10.36,4.83-14.1,0,0,0-.02,0-.02,4.03-7.13,4.72-19.5,4.31-27.32-.97-18.5-.08-50.46,0-53.1.16-.97,1.11-5.5,5.24-5.5,5.58,0,6.56,1.86,7.35,5.82.7,3.52.34,38.09-.06,59.06-.03,1.66,1.29,3.02,2.94,3.06s3.03-1.29,3.06-2.94c.05-2.74.29-15.88.4-29.25.66-.81,2.55-2.58,6.74-3.18l.17-.02c1.42-.18,2.8.25,3.9,1.21,1.13.99,1.77,2.42,1.77,3.92v25.89c0,1.66,1.34,3,3,3s3-1.34,3-3v-18.94c.61-.77,2.49-2.63,6.8-3.25l.17-.02c1.42-.18,2.81.25,3.9,1.21,1.13.99,1.77,2.42,1.77,3.92v25.89c0,1.66,1.34,3,3,3s3-1.34,3-3v-15.77c.71-.84,2.62-2.53,6.69-3.11l.17-.02c1.42-.18,2.8.25,3.9,1.21,1.13.99,1.77,2.42,1.77,3.92v25.86l-.23,27.82c0,2.1-.32,8.17-1.74,11.01-.35.71-.8,1.54-1.3,2.47-2.62,4.88-6.22,11.56-6.22,17.4v35.84h0v4.22h6v-2.99s0,0,0-.01v-37.06c0-4.32,3.31-10.48,5.5-14.56.53-.99,1.01-1.88,1.39-2.63,2.31-4.62,2.38-12.78,2.38-13.67l.23-27.82v-25.89c0-3.22-1.39-6.29-3.81-8.42Z"/>
</svg>