<?xml version="1.0" encoding="UTF-8"?>
<svg id="Gesperrte_Dokumentelemente" xmlns="http://www.w3.org/2000/svg" viewBox="0 0 2000 2000">
  <defs>
    <style>
      .cls-1 {
        fill: #172d4d;
      }

      .cls-2 {
        fill: #cfd8e5;
      }
    </style>
  </defs>
  <g>
    <path class="cls-2" d="M1317.4,1929.04c-5.83,0-11.62-1.7-16.6-5.01l-300.79-199.82-300.79,199.82c-4.98,3.31-10.77,5.01-16.6,5.01-3.46,0-6.93-.6-10.26-1.81-8.95-3.26-15.83-10.58-18.52-19.72l-101.98-346.42-358.86-40.28c-9.47-1.06-17.87-6.56-22.63-14.81-4.76-8.25-5.33-18.28-1.51-27.01l144.55-330.92-249.02-261.53c-6.57-6.9-9.47-16.51-7.82-25.9,1.65-9.38,7.67-17.42,16.2-21.66l323.45-160.59-22.65-360.4c-.6-9.51,3.36-18.74,10.66-24.86,5.46-4.58,12.31-7.02,19.28-7.02,2.35,0,4.72.28,7.05.84l351,84.89,214.31-290.65c5.66-7.67,14.62-12.2,24.15-12.2s18.49,4.53,24.15,12.2l214.31,290.65,351-84.89c2.33-.56,4.7-.84,7.05-.84,6.98,0,13.82,2.44,19.28,7.02,7.3,6.12,11.25,15.35,10.66,24.86l-22.65,360.4,323.45,160.59c8.54,4.24,14.55,12.28,16.2,21.66,1.66,9.38-1.25,19-7.82,25.9l-249.02,261.53,144.55,330.92c3.81,8.73,3.25,18.76-1.51,27.01-4.76,8.25-13.17,13.75-22.63,14.81l-358.86,40.28-101.98,346.42c-2.69,9.14-9.56,16.46-18.52,19.72-3.33,1.21-6.8,1.81-10.26,1.81Z"/>
    <path class="cls-1" d="M1000,99l226.14,306.69,370.37-89.58-23.9,380.3,341.3,169.45-262.76,275.96,152.53,349.19-378.67,42.5-107.61,365.53-317.39-210.85-317.39,210.85-107.61-365.53-378.67-42.5,152.53-349.19L86.1,865.85l341.3-169.45-23.9-380.3,370.37,89.58,226.14-306.69M1596.51,316.11h0M1000,39c-19.06,0-36.98,9.05-48.29,24.39l-202.49,274.61-331.63-80.21c-4.67-1.13-9.4-1.68-14.1-1.68-13.96,0-27.65,4.87-38.57,14.04-14.6,12.25-22.51,30.71-21.31,49.73l21.4,340.52L59.42,812.11c-17.07,8.47-29.1,24.55-32.41,43.32-3.31,18.77,2.49,37.99,15.64,51.79l235.27,247.09-136.57,312.66c-7.63,17.46-6.51,37.51,3.02,54.02,9.53,16.5,26.33,27.5,45.27,29.63l339.06,38.05,96.35,327.3c5.38,18.28,19.13,32.92,37.04,39.44,6.66,2.42,13.61,3.62,20.52,3.62,11.67,0,23.24-3.4,33.2-10.02l284.19-188.79,284.19,188.79c9.97,6.62,21.54,10.02,33.2,10.02,6.91,0,13.85-1.19,20.52-3.62,17.91-6.52,31.65-21.16,37.04-39.44l96.35-327.3,339.06-38.05c18.94-2.13,35.74-13.12,45.27-29.63,9.53-16.5,10.65-36.55,3.02-54.02l-136.57-312.66,235.27-247.09c13.14-13.8,18.94-33.03,15.64-51.79s-15.34-34.85-32.41-43.32l-305.6-151.72,21.35-339.71c.11-1.51.17-3.03.17-4.57,0-32.63-26.04-59.17-58.47-59.98-.51-.01-1.02-.02-1.53-.02-.67,0-1.33.01-2,.03-4.62.15-9.11.82-13.41,1.96l-330.33,79.89-202.49-274.61c-11.31-15.34-29.23-24.39-48.29-24.39h0Z"/>
  </g>
  <g>
    <path class="cls-1" d="M791.08,925.31l92.97-189.06h156.64l-158.98,282.03,163.28,286.72h-158.2l-95.7-192.58-95.7,192.58h-157.81l162.89-286.72-158.59-282.03h156.25l92.97,189.06Z"/>
    <path class="cls-1" d="M1226.62,1112.03v192.97h-137.11v-568.75h226.95c43.49,0,81.96,8.01,115.43,24.02,33.46,16.02,59.38,38.81,77.73,68.36,18.36,29.56,27.54,63.09,27.54,100.59,0,55.47-19.86,99.8-59.57,133.01-39.72,33.2-94.21,49.8-163.48,49.8h-87.5ZM1226.62,1006.17h89.84c26.56,0,46.81-6.64,60.74-19.92,13.93-13.28,20.9-32.03,20.9-56.25,0-26.56-7.17-47.78-21.48-63.67-14.33-15.88-33.86-23.96-58.59-24.22h-91.41v164.06Z"/>
  </g>
</svg>