<svg viewBox="0 0 2001 2000" xmlns="http://www.w3.org/2000/svg" xml:space="preserve" style="fill-rule:evenodd;clip-rule:evenodd;stroke-linejoin:round;stroke-miterlimit:2">
    <path style="fill:none" d="M0 0h2000v2000H0z" transform="translate(.39)"/>
    <path d="M1399 457.84c0-25.3-15.18-45.84-33.88-45.84H585.88c-18.699 0-33.88 20.54-33.88 45.84v1054.32c0 25.3 15.181 45.84 33.88 45.84h779.24c18.7 0 33.88-20.54 33.88-45.84V457.84Z" style="fill:#e6e6e6" transform="matrix(2.36128 0 0 1.7452 -1303.03 -719.023)"/>
    <circle cx="1091.47" cy="986.475" r="601.475" style="fill:#996e12" transform="translate(-796.98 -621.983) scale(1.64422)"/>
    <circle cx="1091.47" cy="986.475" r="601.475" style="fill:#ca9318" transform="translate(-622.954 -464.698) scale(1.48478)"/>
    <path d="M321.819 573.168 203.877 373.074l81.471-148.936L733.209 77.576l80.201 129.969-73.816 96.345 17.2 31.885 147.931 16.554 122.185 185.409-79.1 150.198-178.658-31.858-38.703-6.698-41.687 74.778s-57.766 10.219-109.33-29.294c-21.946-16.817-42.769-42.644-57.536-82.101l-200.077-39.595Z" style="fill:url(#a)" transform="rotate(90.489 990.864 782.503) scale(1.92431)"/>
    <path d="M321.819 573.168 203.877 373.074l81.471-148.936L733.209 77.576l80.201 129.969-73.816 96.345 17.2 31.885 147.931 16.554 122.185 185.409-79.1 150.198-178.658-31.858-38.703-6.698-41.687 74.778s-57.766 10.219-109.33-29.294c-21.946-16.817-42.769-42.644-57.536-82.101l-200.077-39.595Z" style="fill:url(#b)" transform="rotate(90.489 990.861 782.502) scale(1.92431)"/>
    <path d="M1083.25 193.676a8.783 8.783 0 0 0-4.15 1.195L869.855 316.877l-124.832 72.072a8.815 8.815 0 0 0-3.613 3.975 8.813 8.813 0 0 0-1.186 2.955l-66.647 328.614c-65.25 24.924-108.315 59.788-136.695 96.462-68.806 88.917-51.438 189.015-51.438 189.015a8.826 8.826 0 0 0 4.36 6.19l118.948 67.05-9.783 54.98-56.328 300.33a8.823 8.823 0 0 0 4.523 9.41l.414.22c.251.17.512.32.784.47l239.997 139.11a8.838 8.838 0 0 0 8.59-.17c.406-.23.79-.49 1.149-.78l327.592-210.02a8.848 8.848 0 0 0 3.59-5.9l20.21-240.17 44.4-23.69 37.31 26.08 118.54 94.58a8.826 8.826 0 0 0 9.66.33l208.58-134.69a8.818 8.818 0 0 0 3.88-10.06l-232.1-746.207-.13-.422-.16-.406-.17-.396-.19-.385-.21-.372-.23-.359-.24-.347-.26-.334-.27-.322-.29-.309-.3-.297-.39-.337-.44-.339-.36-.247-.4-.246-241.55-139.457a8.8 8.8 0 0 0-8.81 0l-2.11 1.218ZM562.354 1436.03l53.374-291.34.59-3.32 9.201-49.06 92.157 48.95a8.836 8.836 0 0 0 7.768.25 8.835 8.835 0 0 0 4.948-6s28.028-116.25 157.989-115.74h-.001l-94.213 550.53-231.813-134.27ZM1326.05 352.774 995.913 543.379l-59.434 315.447a8.82 8.82 0 0 1-8.271 7.177l-.396.009h-.42c-7.885 1.137-101.992 16.338-157.109 100.992-19.913 30.584-34.664 70.196-38.605 121.376 23.009-39.28 71.622-90.595 167.538-85.96a8.81 8.81 0 0 1 6.451 3.29 8.82 8.82 0 0 1 1.816 7.01l-92.65 543.42 297.517-191.51 20.31-240.87c.4-2.78 2.1-5.21 4.58-6.53l53.05-28.3 103.15-60.86a8.824 8.824 0 0 1 7.69-.62c2.52.99 4.45 3.08 5.24 5.67l52.42 174.61 194.22-125.98-226.96-728.976Zm-115.1 744.456 81.77-48.25 44.29 145.62-95.67-75.95-30.39-21.42ZM755.323 410.171l-65.43 322.615a8.82 8.82 0 0 1-5.591 6.521c-64.012 23.613-106.068 57.031-133.47 92.443-55.951 72.303-50.694 152.515-48.547 171.2l120.577 67.96.337.2 89.803 47.69c-.451-70.46 17.292-122.705 42.499-161.42 53.841-82.692 142.216-103.88 164.819-108.055l58.437-310.155-223.434-128.999Zm235.839 115.583 322.228-186.038-228.7-126.509-205.983 118.926-111.084 64.772L990.511 525.59c.221.047.438.102.651.164Z" style="fill:#fff;stroke:#fff;stroke-width:39.73px" transform="rotate(.203 14074.748 -49630.523) scale(1.1537)"/>
    <defs>
        <linearGradient id="a" x1="0" y1="0" x2="1" y2="0" gradientUnits="userSpaceOnUse" gradientTransform="scale(-617.777) rotate(65.898 .269 -1.567)">
            <stop offset="0" style="stop-color:#e8b33d;stop-opacity:1"/>
            <stop offset="1" style="stop-color:#b77f00;stop-opacity:1"/>
        </linearGradient>
        <linearGradient id="b" x1="0" y1="0" x2="1" y2="0" gradientUnits="userSpaceOnUse" gradientTransform="scale(-303.53) rotate(71.187 -.104 -2.3)">
            <stop offset="0" style="stop-color:#e8b33d;stop-opacity:1"/>
            <stop offset="1" style="stop-color:#b77f00;stop-opacity:1"/>
        </linearGradient>
    </defs>
</svg>
