<svg viewBox="0 0 2000 2000" xmlns="http://www.w3.org/2000/svg" xml:space="preserve" style="fill-rule:evenodd;clip-rule:evenodd;stroke-linejoin:round;stroke-miterlimit:2">
    <g transform="translate(-2208.333)">
        <path style="fill:none" d="M2208.33 0h2000v2000h-2000z"/>
        <clipPath id="a">
            <path d="M2208.33 0h2000v2000h-2000z"/>
        </clipPath>
        <g clip-path="url(#a)">
            <path d="M2787.79 1310.81 2476.98 1000 2239 1237.98l546.59 546.59 1.77-1.76 1.77 1.76L4173.72 399.981l-237.55-237.555L2787.79 1310.81Z" style="fill:#6ee96e" transform="translate(.333)"/>
            <path d="m2788.116 1266.61-288.71-288.71c-12.203-12.201-31.99-12.201-44.194 0l-237.98 237.98c-12.204 12.21-12.204 31.99 0 44.2l546.593 546.59c6.552 6.55 15.289 9.59 23.865 9.1 8.576.49 17.313-2.55 23.865-9.1L4196.15 422.078c12.2-12.204 12.2-31.991 0-44.194l-237.56-237.555c-12.2-12.204-31.99-12.204-44.19 0l-1126.284 1126.28Zm-504.593-28.63 193.786-193.79 288.71 288.71c12.204 12.21 31.99 12.21 44.194 0L3936.5 206.62l193.36 193.36-1342.17 1342.17-504.167-504.17Z"/>
        </g>
    </g>
</svg>
