<?xml version="1.0" encoding="UTF-8" standalone="no"?>
<!DOCTYPE svg PUBLIC "-//W3C//DTD SVG 1.1//EN" "http://www.w3.org/Graphics/SVG/1.1/DTD/svg11.dtd">
<svg width="100%" height="100%" viewBox="0 0 1000 1000" version="1.1" xmlns="http://www.w3.org/2000/svg" xmlns:xlink="http://www.w3.org/1999/xlink" xml:space="preserve" xmlns:serif="http://www.serif.com/" style="fill-rule:evenodd;clip-rule:evenodd;stroke-linecap:round;stroke-linejoin:round;stroke-miterlimit:1.5;">
    <g id="Sechseck" transform="matrix(-0.00472644,0.999989,-0.999989,-0.00472644,989.825,-10.1925)">
        <path d="M268.975,892.026L23.952,491.034L259.175,89.016L728.244,89.82L975.964,483.474L730.951,886.04L268.975,892.026Z" style="fill:rgb(23,45,79);stroke:white;stroke-width:8.33px;"/>
    </g>
    <g id="Wand-links" serif:id="Wand links" transform="matrix(0.008597,0.999963,-0.999963,0.008597,983.152,-16.7151)">
        <path d="M725.661,889.082L500,485.291L23.988,485.291L263.503,889.082L725.661,889.082Z" style="fill:none;stroke:white;stroke-width:8.33px;"/>
    </g>
    <g id="Wand-rechts" serif:id="Wand rechts" transform="matrix(0.008597,0.999963,-0.999963,0.008597,983.152,-16.7151)">
        <path d="M731.381,92.128L500,485.291L23.988,485.291L264.826,85.843L731.381,92.128Z" style="fill:none;stroke:white;stroke-width:8.33px;"/>
    </g>
    <g id="Buchstabe" transform="matrix(-0.00472644,0.999989,-0.999989,-0.00472644,989.825,-10.1925)">
        <path d="M321.819,573.168L194.847,376.318L278.89,229.02L730.927,89.016L805.103,209.996L739.594,303.89L756.794,335.775L894.039,354.8L975.964,482.904L863.383,669.054L769.95,653.652L733.387,647.862L688.762,724.158C688.762,724.158 630.996,734.377 579.432,694.864C557.486,678.047 536.663,652.22 521.896,612.763L321.819,573.168Z" style="fill:rgb(229,188,113);stroke:white;stroke-width:8.33px;"/>
    </g>
    <g transform="matrix(-0.00472644,0.999989,-0.999989,-0.00472644,989.825,-10.1925)">
        <path d="M805.103,209.996L704.212,238.189L738.953,302.614L805.103,209.996Z" style="fill:none;stroke:white;stroke-width:8.33px;"/>
    </g>
    <g transform="matrix(-0.00472644,0.999989,-0.999989,-0.00472644,989.825,-10.1925)">
        <path d="M321.819,573.168L401.029,444.309L277.979,229.033L194.847,375.597L321.819,573.168Z" style="fill:none;stroke:white;stroke-width:8.33px;"/>
    </g>
    <g transform="matrix(-0.00472644,0.999989,-0.999989,-0.00472644,989.825,-10.1925)">
        <path d="M401.029,444.309L594.838,479.877L594.838,480.472C594.838,480.472 611.465,607.752 758.352,602.491" style="fill:none;stroke:white;stroke-width:8.33px;"/>
    </g>
    <g transform="matrix(-0.00472644,0.999989,-0.999989,-0.00472644,989.825,-10.1925)">
        <path d="M687.27,496.841L938.814,543.005L860.298,670.682L733.88,647.259L758.352,602.491C758.352,602.491 683.45,584.492 687.27,496.841Z" style="fill:none;stroke:white;stroke-width:8.33px;"/>
    </g>
    <g id="Sechseck1" serif:id="Sechseck" transform="matrix(-0.00472644,0.999989,-0.999989,-0.00472644,989.825,-10.1925)">
        <path d="M268.975,892.026L23.952,491.034L259.175,89.016L728.244,89.82L975.964,483.474L730.951,886.04L268.975,892.026Z" style="fill:none;stroke:white;stroke-width:8.33px;"/>
    </g>
</svg>
