<?xml version="1.0" encoding="UTF-8" standalone="no"?>
<!DOCTYPE svg PUBLIC "-//W3C//DTD SVG 1.1//EN" "http://www.w3.org/Graphics/SVG/1.1/DTD/svg11.dtd">
<svg width="100%" height="100%" viewBox="0 0 513 513" version="1.1" xmlns="http://www.w3.org/2000/svg" xmlns:xlink="http://www.w3.org/1999/xlink" xml:space="preserve" xmlns:serif="http://www.serif.com/" style="fill-rule:evenodd;clip-rule:evenodd;stroke-linejoin:round;stroke-miterlimit:2;">
    <g>
        <g>
            <g>
                <path d="M501.9,356.616L502.18,356.465L283.582,136.702L283.258,33.292L177.54,4.969L166.258,16.272L222.515,72.378L167.725,127.297L111.468,71.148L100.208,82.322L128.552,187.976L229.115,188.364L228.446,188.903L448.511,410.047L448.791,409.788C463.524,424.111 487.058,424.111 501.51,409.508C516.201,395.012 516.266,371.435 501.9,356.616ZM487.663,395.551C481.127,402.109 470.557,402.109 464.108,395.551C457.594,389.058 457.55,378.575 464.065,372.039C470.558,365.503 481.149,365.503 487.685,371.996C494.134,378.489 494.22,389.037 487.663,395.551Z" style="fill:rgb(215,0,0);fill-rule:nonzero;"/>
                <path d="M47.101,232.67C48.891,233.015 90.739,241.363 99.734,288.581C88.366,300.639 81.269,317.486 81.269,336.188C81.269,336.404 81.312,336.555 81.312,336.663L200.598,336.663L200.598,336.188C200.598,317.486 193.501,300.639 182.155,288.581C191.15,241.384 232.976,233.015 234.745,232.67C238.649,231.915 241.303,228.183 240.591,224.236C239.879,220.332 236.126,217.7 232.178,218.39C231.682,218.498 183.428,227.816 169.644,278.378C161.124,273.244 151.33,270.289 140.912,270.289C130.536,270.289 120.743,273.266 112.201,278.421C98.374,227.816 50.185,218.541 49.646,218.433C45.742,217.743 42.01,220.374 41.298,224.279C40.522,228.184 43.175,231.915 47.101,232.67Z" style="fill:rgb(215,0,0);fill-rule:nonzero;"/>
                <path d="M275.083,290.696C270.014,289.1 264.621,291.969 263.003,297.059C263.003,297.059 251.204,335.11 248.702,343.285C243.59,344.666 227.951,349.088 217.166,352.064C216.756,350.338 216.454,348.634 216.044,346.952L65.781,346.952C65.414,348.635 65.069,350.339 64.702,352.064C53.917,349.023 38.256,344.665 33.166,343.285C30.621,335.11 18.843,297.037 18.843,297.037C17.29,291.968 11.876,289.077 6.807,290.674C1.695,292.206 -1.153,297.598 0.444,302.71L17.852,358.967L61.921,371.241C61.641,375.296 61.382,379.416 61.382,383.623C61.382,388.757 61.706,393.869 62.159,398.852L18.11,418.567L4.348,496.309C3.442,501.529 6.936,506.577 12.2,507.483C17.42,508.411 22.446,504.959 23.352,499.696C23.352,499.696 33.814,440.786 35.324,431.985C39.573,430.065 53.508,423.81 65.415,418.568C75.834,463.047 105.731,495.231 140.977,495.231C176.202,495.231 206.142,463.091 216.583,418.568C228.425,423.81 242.382,430.065 246.631,431.985C248.119,440.721 258.581,499.696 258.581,499.696C259.509,504.959 264.513,508.411 269.798,507.483C275.061,506.577 278.491,501.594 277.607,496.309L263.823,418.568L219.819,398.917C220.272,393.934 220.574,388.822 220.574,383.71C220.574,379.504 220.315,375.362 220.035,371.285L264.083,359.033L281.512,302.755C283.021,297.642 280.152,292.249 275.083,290.696Z" style="fill:rgb(215,0,0);fill-rule:nonzero;"/>
            </g>
        </g>
    </g>
</svg>
