<?xml version="1.0" encoding="UTF-8" standalone="no"?>
<!DOCTYPE svg PUBLIC "-//W3C//DTD SVG 1.1//EN" "http://www.w3.org/Graphics/SVG/1.1/DTD/svg11.dtd">
<svg width="100%" height="100%" viewBox="0 0 1024 1024" version="1.1" xmlns="http://www.w3.org/2000/svg" xmlns:xlink="http://www.w3.org/1999/xlink" xml:space="preserve" xmlns:serif="http://www.serif.com/" style="fill-rule:evenodd;clip-rule:evenodd;stroke-linejoin:round;stroke-miterlimit:2;">
    <g transform="matrix(1.2216,0,0,1.2216,-107.501,-105.518)">
        <path d="M137,410L88,411.5L88,406C88,406 247.634,286.293 561,262L563,267L449,350C449,350 480.306,371.763 494,391C494,391 503.006,393.606 512,406C512,406 541.206,363.359 643,367C744.794,370.641 795.228,422.667 801,504L801,749L687,749L686,512C686,512 685.441,451.534 627,455C568.559,458.466 571,512 571,512L571,749L456,749L456,512C456,512 454.636,475.244 429,461C429,461 397.625,485.138 345,493C345,493 342.894,497.075 342,512C341.106,526.925 342,749 342,749L227,749L227,512C227,512 226.674,485.831 230,480C230,480 225.878,413.073 228.991,413C228.991,413 142.963,412.42 137,410" style="fill:white;"/>
    </g>
</svg>
