<?xml version="1.0" encoding="UTF-8" standalone="no"?>
<!DOCTYPE svg PUBLIC "-//W3C//DTD SVG 1.1//EN" "http://www.w3.org/Graphics/SVG/1.1/DTD/svg11.dtd">
<svg width="100%" height="100%" viewBox="0 0 286 286" version="1.1" xmlns="http://www.w3.org/2000/svg" xmlns:xlink="http://www.w3.org/1999/xlink" xml:space="preserve" xmlns:serif="http://www.serif.com/" style="fill-rule:evenodd;clip-rule:evenodd;stroke-linejoin:round;stroke-miterlimit:2;">
    <g id="XMLID_791_">
        <path id="XMLID_792_" d="M142.75,125.5C177.351,125.5 205.501,97.351 205.501,62.75C205.501,28.149 177.351,0 142.75,0C108.149,0 79.999,28.149 79.999,62.75C79.999,97.351 108.149,125.5 142.75,125.5ZM142.75,30C160.809,30 175.501,44.691 175.501,62.75C175.501,80.809 160.809,95.5 142.75,95.5C124.691,95.5 109.999,80.809 109.999,62.75C109.999,44.691 124.691,30 142.75,30Z" style="fill:white;fill-rule:nonzero;"/>
        <path id="XMLID_795_" d="M142.75,155.5C79.339,155.5 27.75,207.089 27.75,270.5C27.75,278.784 34.466,285.5 42.75,285.5L242.75,285.5C251.034,285.5 257.75,278.784 257.75,270.5C257.75,207.089 206.161,155.5 142.75,155.5ZM59.075,255.5C66.181,215.761 100.998,185.5 142.75,185.5C184.502,185.5 219.319,215.761 226.425,255.5L59.075,255.5Z" style="fill:white;fill-rule:nonzero;"/>
    </g>
</svg>
