<?xml version="1.0" encoding="UTF-8" standalone="no"?>
<!DOCTYPE svg PUBLIC "-//W3C//DTD SVG 1.1//EN" "http://www.w3.org/Graphics/SVG/1.1/DTD/svg11.dtd">
<svg width="100%" height="100%" viewBox="0 0 2000 2000" version="1.1" xmlns="http://www.w3.org/2000/svg" xmlns:xlink="http://www.w3.org/1999/xlink" xml:space="preserve" xmlns:serif="http://www.serif.com/" style="fill-rule:evenodd;clip-rule:evenodd;stroke-linejoin:round;stroke-miterlimit:2;">
    <g id="Fernseher" transform="matrix(2.91267,0,0,2.91267,-1831.85,-1003.12)">
        <path d="M1066.94,950.354C1066.94,949.795 1066.49,949.341 1065.93,949.341L878.572,949.341C878.013,949.341 877.559,949.795 877.559,950.354L877.559,998.987C877.559,999.546 878.013,1000 878.572,1000L1065.93,1000C1066.49,1000 1066.94,999.546 1066.94,998.987L1066.94,950.354Z" style="fill:rgb(23,45,79);"/>
        <g transform="matrix(2.28388,0,0,0.263942,-1248.25,738.484)">
            <path d="M1066.94,956.94C1066.94,952.746 1066.55,949.341 1066.07,949.341L878.437,949.341C877.952,949.341 877.559,952.746 877.559,956.94L877.559,992.401C877.559,996.595 877.952,1000 878.437,1000L1066.07,1000C1066.55,1000 1066.94,996.595 1066.94,992.401L1066.94,956.94Z" style="fill:rgb(23,45,79);"/>
        </g>
        <g transform="matrix(1,0,0,1.42557,0,-415.36)">
            <path d="M1302.5,578.274C1302.5,566.721 1289.13,557.341 1272.66,557.341L671.841,557.341C655.372,557.341 642,566.721 642,578.274L642,955.067C642,966.62 655.372,976 671.841,976L1272.66,976C1289.13,976 1302.5,966.62 1302.5,955.067L1302.5,578.274Z" style="fill:rgb(23,45,79);"/>
        </g>
        <g transform="matrix(0.934359,0,0,1.31572,63.8197,-331.137)">
            <path d="M1302.5,569.901C1302.5,562.969 1294.58,557.341 1284.82,557.341L659.686,557.341C649.925,557.341 642,562.969 642,569.901L642,963.44C642,970.372 649.925,976 659.686,976L1284.82,976C1294.58,976 1302.5,970.372 1302.5,963.44L1302.5,569.901Z" style="fill:rgb(205,215,228);"/>
        </g>
        <g id="Videobutton" transform="matrix(1.2505,0,0,1.2505,-221.213,-446.76)">
            <g transform="matrix(1.32664,0,0,1.32664,569.679,532.734)">
                <circle cx="289.99" cy="272" r="96" style="fill:rgb(229,188,113);"/>
            </g>
            <g transform="matrix(6.12323e-17,1,-0.834359,5.10897e-17,1714.28,-94.2356)">
                <path d="M990.236,816L1065.95,967.426L914.523,967.426L990.236,816Z" style="fill:rgb(23,45,79);"/>
            </g>
        </g>
    </g>
</svg>
