<?xml version="1.0" encoding="UTF-8" standalone="no"?>
<!DOCTYPE svg PUBLIC "-//W3C//DTD SVG 1.1//EN" "http://www.w3.org/Graphics/SVG/1.1/DTD/svg11.dtd">
<svg width="100%" height="100%" viewBox="0 0 2000 2000" version="1.1" xmlns="http://www.w3.org/2000/svg" xmlns:xlink="http://www.w3.org/1999/xlink" xml:space="preserve" xmlns:serif="http://www.serif.com/" style="fill-rule:evenodd;clip-rule:evenodd;stroke-linecap:round;stroke-linejoin:round;stroke-miterlimit:1.5;">
    <rect id="Zettel_gold_text-icon" x="0" y="0" width="2000" height="2000" style="fill:none;"/>
    <g id="Zettel_gold_text-icon1" serif:id="Zettel_gold_text-icon">
        <g id="Zettel_gold_text-icon2" serif:id="Zettel_gold_text-icon" transform="matrix(1.77887,0,0,1.32315,-755.747,-215.758)">
            <g transform="matrix(1,0,0,1,70.6291,-100.276)">
                <path d="M1436,308.409C1436,294.386 1427.53,283 1417.1,283L509.9,283C499.469,283 491,294.386 491,308.409L491,1635.59C491,1649.61 499.469,1661 509.9,1661L1417.1,1661C1427.53,1661 1436,1649.61 1436,1635.59L1436,308.409Z" style="fill:rgb(23,45,79);stroke:rgb(242,242,242);stroke-width:21.26px;"/>
            </g>
            <g transform="matrix(1,0,0,1,40.7097,-69.4438)">
                <path d="M1436,308.409C1436,294.386 1427.53,283 1417.1,283L509.9,283C499.469,283 491,294.386 491,308.409L491,1635.59C491,1649.61 499.469,1661 509.9,1661L1417.1,1661C1427.53,1661 1436,1649.61 1436,1635.59L1436,308.409Z" style="fill:rgb(23,45,79);stroke:rgb(242,242,242);stroke-width:21.26px;"/>
            </g>
            <g transform="matrix(1,0,0,1,11.3526,-39.3676)">
                <path d="M1436,308.409C1436,294.386 1427.53,283 1417.1,283L509.9,283C499.469,283 491,294.386 491,308.409L491,1635.59C491,1649.61 499.469,1661 509.9,1661L1417.1,1661C1427.53,1661 1436,1649.61 1436,1635.59L1436,308.409Z" style="fill:rgb(23,45,79);stroke:rgb(242,242,242);stroke-width:21.26px;"/>
            </g>
            <g transform="matrix(1,0,0,1,-19.6911,-9.29137)">
                <path d="M1436,308.409C1436,294.386 1427.53,283 1417.1,283L509.9,283C499.469,283 491,294.386 491,308.409L491,1635.59C491,1649.61 499.469,1661 509.9,1661L1417.1,1661C1427.53,1661 1436,1649.61 1436,1635.59L1436,308.409Z" style="fill:rgb(23,45,79);stroke:white;stroke-width:21.26px;"/>
            </g>
            <g id="Text" transform="matrix(1.49982,0,0,1.49982,-427.833,-480.48)">
                <g transform="matrix(1,0,0,1,-2.96512,0)">
                    <path d="M661,567L894,567" style="fill:none;stroke:white;stroke-width:14.18px;"/>
                </g>
                <g transform="matrix(1,0,0,1,-2.96512,139.496)">
                    <path d="M661,567L894,567" style="fill:none;stroke:white;stroke-width:14.18px;"/>
                    <g transform="matrix(0.201717,0,0,0.201717,789.665,452.627)">
                        <path d="M661,567L894,567" style="fill:none;stroke:white;stroke-width:70.28px;"/>
                    </g>
                    <g transform="matrix(0.313305,0,0,0.201717,791.906,452.627)">
                        <path d="M661,567L894,567" style="fill:none;stroke:white;stroke-width:50.86px;"/>
                    </g>
                    <g transform="matrix(0.313305,0,0,0.201717,893.906,452.627)">
                        <path d="M661,567L894,567" style="fill:none;stroke:white;stroke-width:50.86px;"/>
                    </g>
                </g>
                <g transform="matrix(1,0,0,1,-2.96512,278.992)">
                    <path d="M661,567L894,567" style="fill:none;stroke:white;stroke-width:14.18px;"/>
                    <g transform="matrix(0.201717,0,0,0.201717,789.665,452.627)">
                        <path d="M661,567L894,567" style="fill:none;stroke:white;stroke-width:70.28px;"/>
                    </g>
                    <g transform="matrix(0.313305,0,0,0.201717,791.906,452.627)">
                        <path d="M661,567L894,567" style="fill:none;stroke:white;stroke-width:50.86px;"/>
                    </g>
                    <g transform="matrix(0.313305,0,0,0.201717,893.906,452.627)">
                        <path d="M661,567L894,567" style="fill:none;stroke:white;stroke-width:50.86px;"/>
                    </g>
                </g>
                <g transform="matrix(1,0,0,1,-2.96512,418.488)">
                    <path d="M661,567L894,567" style="fill:none;stroke:white;stroke-width:14.18px;"/>
                    <g transform="matrix(0.201717,0,0,0.201717,789.665,452.627)">
                        <path d="M661,567L894,567" style="fill:none;stroke:white;stroke-width:70.28px;"/>
                    </g>
                    <g transform="matrix(0.313305,0,0,0.201717,791.906,452.627)">
                        <path d="M661,567L894,567" style="fill:none;stroke:white;stroke-width:50.86px;"/>
                    </g>
                    <g transform="matrix(0.313305,0,0,0.201717,893.906,452.627)">
                        <path d="M661,567L894,567" style="fill:none;stroke:white;stroke-width:50.86px;"/>
                    </g>
                </g>
                <g transform="matrix(1,0,0,1,-2.96512,557.984)">
                    <path d="M661,567L894,567" style="fill:none;stroke:white;stroke-width:14.18px;"/>
                    <g transform="matrix(0.201717,0,0,0.201717,789.665,452.627)">
                        <path d="M661,567L894,567" style="fill:none;stroke:white;stroke-width:70.28px;"/>
                    </g>
                    <g transform="matrix(0.313305,0,0,0.201717,791.906,452.627)">
                        <path d="M661,567L894,567" style="fill:none;stroke:white;stroke-width:50.86px;"/>
                    </g>
                    <g transform="matrix(0.313305,0,0,0.201717,893.906,452.627)">
                        <path d="M661,567L894,567" style="fill:none;stroke:white;stroke-width:50.86px;"/>
                    </g>
                </g>
                <g transform="matrix(-1,0,0,1,1832.03,697.48)">
                    <path d="M661,567L894,567" style="fill:none;stroke:white;stroke-width:14.18px;"/>
                    <g transform="matrix(0.201717,0,0,0.201717,789.665,452.627)">
                        <path d="M661,567L894,567" style="fill:none;stroke:white;stroke-width:70.28px;"/>
                    </g>
                    <g transform="matrix(0.313305,0,0,0.201717,791.906,452.627)">
                        <path d="M661,567L894,567" style="fill:none;stroke:white;stroke-width:50.86px;"/>
                    </g>
                    <g transform="matrix(0.313305,0,0,0.201717,893.906,452.627)">
                        <path d="M661,567L894,567" style="fill:none;stroke:white;stroke-width:50.86px;"/>
                    </g>
                </g>
                <g transform="matrix(-1,0,0,1,1831.53,7.1847)">
                    <g transform="matrix(1,0,0,1,83.919,39.3139)">
                        <path d="M661,567L894,567" style="fill:none;stroke:white;stroke-width:14.18px;"/>
                    </g>
                    <g transform="matrix(0.201717,0,0,0.201717,882.746,491.941)">
                        <path d="M661,567L894,567" style="fill:none;stroke:white;stroke-width:70.28px;"/>
                    </g>
                    <g transform="matrix(0.201717,0,0,0.201717,526.422,491.941)">
                        <path d="M661,567L894,567" style="fill:none;stroke:white;stroke-width:70.28px;"/>
                    </g>
                    <g transform="matrix(0.313305,0,0,0.201717,894.149,491.941)">
                        <path d="M661,567L894,567" style="fill:none;stroke:white;stroke-width:50.86px;"/>
                    </g>
                </g>
                <g transform="matrix(1,0,0,1,-2.46512,146.681)">
                    <g transform="matrix(1,0,0,1,83.919,39.3139)">
                        <path d="M661,567L894,567" style="fill:none;stroke:white;stroke-width:14.18px;"/>
                    </g>
                    <g transform="matrix(0.201717,0,0,0.201717,882.746,491.941)">
                        <path d="M661,567L894,567" style="fill:none;stroke:white;stroke-width:70.28px;"/>
                    </g>
                    <g transform="matrix(0.201717,0,0,0.201717,526.422,491.941)">
                        <path d="M661,567L894,567" style="fill:none;stroke:white;stroke-width:70.28px;"/>
                    </g>
                    <g transform="matrix(0.313305,0,0,0.201717,894.149,491.941)">
                        <path d="M661,567L894,567" style="fill:none;stroke:white;stroke-width:50.86px;"/>
                    </g>
                </g>
                <g transform="matrix(-1,0,0,1,1831.53,286.177)">
                    <g transform="matrix(1,0,0,1,83.919,39.3139)">
                        <path d="M661,567L894,567" style="fill:none;stroke:white;stroke-width:14.18px;"/>
                    </g>
                    <g transform="matrix(0.201717,0,0,0.201717,882.746,491.941)">
                        <path d="M661,567L894,567" style="fill:none;stroke:white;stroke-width:70.28px;"/>
                    </g>
                    <g transform="matrix(0.201717,0,0,0.201717,526.422,491.941)">
                        <path d="M661,567L894,567" style="fill:none;stroke:white;stroke-width:70.28px;"/>
                    </g>
                    <g transform="matrix(0.313305,0,0,0.201717,894.149,491.941)">
                        <path d="M661,567L894,567" style="fill:none;stroke:white;stroke-width:50.86px;"/>
                    </g>
                </g>
                <g transform="matrix(1,0,0,1,-2.46512,425.672)">
                    <g transform="matrix(1,0,0,1,83.919,39.3139)">
                        <path d="M661,567L894,567" style="fill:none;stroke:white;stroke-width:14.18px;"/>
                    </g>
                    <g transform="matrix(0.201717,0,0,0.201717,882.746,491.941)">
                        <path d="M661,567L894,567" style="fill:none;stroke:white;stroke-width:70.28px;"/>
                    </g>
                    <g transform="matrix(0.201717,0,0,0.201717,526.422,491.941)">
                        <path d="M661,567L894,567" style="fill:none;stroke:white;stroke-width:70.28px;"/>
                    </g>
                    <g transform="matrix(0.313305,0,0,0.201717,894.149,491.941)">
                        <path d="M661,567L894,567" style="fill:none;stroke:white;stroke-width:50.86px;"/>
                    </g>
                </g>
                <g transform="matrix(1,0,0,1,-2.46512,565.168)">
                    <g transform="matrix(1,0,0,1,83.919,39.3139)">
                        <path d="M661,567L894,567" style="fill:none;stroke:white;stroke-width:14.18px;"/>
                    </g>
                    <g transform="matrix(0.201717,0,0,0.201717,882.746,491.941)">
                        <path d="M661,567L894,567" style="fill:none;stroke:white;stroke-width:70.28px;"/>
                    </g>
                    <g transform="matrix(0.201717,0,0,0.201717,526.422,491.941)">
                        <path d="M661,567L894,567" style="fill:none;stroke:white;stroke-width:70.28px;"/>
                    </g>
                    <g transform="matrix(0.313305,0,0,0.201717,894.149,491.941)">
                        <path d="M661,567L894,567" style="fill:none;stroke:white;stroke-width:50.86px;"/>
                    </g>
                </g>
                <g transform="matrix(1,0,0,1,-2.46512,704.664)">
                    <g transform="matrix(1,0,0,1,83.919,39.3139)">
                        <path d="M661,567L894,567" style="fill:none;stroke:white;stroke-width:14.18px;"/>
                    </g>
                    <g transform="matrix(0.201717,0,0,0.201717,882.746,491.941)">
                        <path d="M661,567L894,567" style="fill:none;stroke:white;stroke-width:70.28px;"/>
                    </g>
                    <g transform="matrix(0.201717,0,0,0.201717,526.422,491.941)">
                        <path d="M661,567L894,567" style="fill:none;stroke:white;stroke-width:70.28px;"/>
                    </g>
                    <g transform="matrix(0.313305,0,0,0.201717,894.149,491.941)">
                        <path d="M661,567L894,567" style="fill:none;stroke:white;stroke-width:50.86px;"/>
                    </g>
                </g>
                <g transform="matrix(1,0,0,1,-2.55561,4.62662)">
                    <g transform="matrix(0.201717,0,0,0.201717,783.524,540.997)">
                        <path d="M661,567L894,567" style="fill:none;stroke:white;stroke-width:70.28px;"/>
                    </g>
                    <g transform="matrix(0.201717,0,0,0.201717,857.544,540.997)">
                        <path d="M661,567L894,567" style="fill:none;stroke:white;stroke-width:70.28px;"/>
                    </g>
                    <g transform="matrix(0.313305,0,0,0.201717,453.256,540.997)">
                        <path d="M661,567L894,567" style="fill:none;stroke:white;stroke-width:50.86px;"/>
                    </g>
                    <g transform="matrix(0.313305,0,0,0.201717,597.551,540.997)">
                        <path d="M661,567L894,567" style="fill:none;stroke:white;stroke-width:50.86px;"/>
                    </g>
                    <g transform="matrix(0.313305,0,0,0.201717,893.736,540.997)">
                        <path d="M661,567L894,567" style="fill:none;stroke:white;stroke-width:50.86px;"/>
                    </g>
                </g>
                <g transform="matrix(-1,0,0,1,1831.63,144.123)">
                    <g transform="matrix(0.201717,0,0,0.201717,783.524,540.997)">
                        <path d="M661,567L894,567" style="fill:none;stroke:white;stroke-width:70.28px;"/>
                    </g>
                    <g transform="matrix(0.201717,0,0,0.201717,857.544,540.997)">
                        <path d="M661,567L894,567" style="fill:none;stroke:white;stroke-width:70.28px;"/>
                    </g>
                    <g transform="matrix(0.313305,0,0,0.201717,453.256,540.997)">
                        <path d="M661,567L894,567" style="fill:none;stroke:white;stroke-width:50.86px;"/>
                    </g>
                    <g transform="matrix(0.313305,0,0,0.201717,597.551,540.997)">
                        <path d="M661,567L894,567" style="fill:none;stroke:white;stroke-width:50.86px;"/>
                    </g>
                    <g transform="matrix(0.313305,0,0,0.201717,893.736,540.997)">
                        <path d="M661,567L894,567" style="fill:none;stroke:white;stroke-width:50.86px;"/>
                    </g>
                </g>
                <g transform="matrix(1,0,0,1,-2.55561,283.618)">
                    <g transform="matrix(0.201717,0,0,0.201717,783.524,540.997)">
                        <path d="M661,567L894,567" style="fill:none;stroke:white;stroke-width:70.28px;"/>
                    </g>
                    <g transform="matrix(0.201717,0,0,0.201717,857.544,540.997)">
                        <path d="M661,567L894,567" style="fill:none;stroke:white;stroke-width:70.28px;"/>
                    </g>
                    <g transform="matrix(0.313305,0,0,0.201717,453.256,540.997)">
                        <path d="M661,567L894,567" style="fill:none;stroke:white;stroke-width:50.86px;"/>
                    </g>
                    <g transform="matrix(0.313305,0,0,0.201717,597.551,540.997)">
                        <path d="M661,567L894,567" style="fill:none;stroke:white;stroke-width:50.86px;"/>
                    </g>
                    <g transform="matrix(0.313305,0,0,0.201717,893.736,540.997)">
                        <path d="M661,567L894,567" style="fill:none;stroke:white;stroke-width:50.86px;"/>
                    </g>
                </g>
                <g transform="matrix(-1,0,0,1,1831.63,423.114)">
                    <g transform="matrix(0.201717,0,0,0.201717,783.524,540.997)">
                        <path d="M661,567L894,567" style="fill:none;stroke:white;stroke-width:70.28px;"/>
                    </g>
                    <g transform="matrix(0.201717,0,0,0.201717,857.544,540.997)">
                        <path d="M661,567L894,567" style="fill:none;stroke:white;stroke-width:70.28px;"/>
                    </g>
                    <g transform="matrix(0.313305,0,0,0.201717,453.256,540.997)">
                        <path d="M661,567L894,567" style="fill:none;stroke:white;stroke-width:50.86px;"/>
                    </g>
                    <g transform="matrix(0.313305,0,0,0.201717,597.551,540.997)">
                        <path d="M661,567L894,567" style="fill:none;stroke:white;stroke-width:50.86px;"/>
                    </g>
                    <g transform="matrix(0.313305,0,0,0.201717,893.736,540.997)">
                        <path d="M661,567L894,567" style="fill:none;stroke:white;stroke-width:50.86px;"/>
                    </g>
                </g>
                <g transform="matrix(1,0,0,1,-2.55561,562.61)">
                    <g transform="matrix(0.201717,0,0,0.201717,783.524,540.997)">
                        <path d="M661,567L894,567" style="fill:none;stroke:white;stroke-width:70.28px;"/>
                    </g>
                    <g transform="matrix(0.201717,0,0,0.201717,857.544,540.997)">
                        <path d="M661,567L894,567" style="fill:none;stroke:white;stroke-width:70.28px;"/>
                    </g>
                    <g transform="matrix(0.313305,0,0,0.201717,453.256,540.997)">
                        <path d="M661,567L894,567" style="fill:none;stroke:white;stroke-width:50.86px;"/>
                    </g>
                    <g transform="matrix(0.313305,0,0,0.201717,597.551,540.997)">
                        <path d="M661,567L894,567" style="fill:none;stroke:white;stroke-width:50.86px;"/>
                    </g>
                    <g transform="matrix(0.313305,0,0,0.201717,893.736,540.997)">
                        <path d="M661,567L894,567" style="fill:none;stroke:white;stroke-width:50.86px;"/>
                    </g>
                </g>
                <g transform="matrix(-1,0,0,1,1831.63,702.106)">
                    <g transform="matrix(0.201717,0,0,0.201717,783.524,540.997)">
                        <path d="M661,567L894,567" style="fill:none;stroke:white;stroke-width:70.28px;"/>
                    </g>
                    <g transform="matrix(0.201717,0,0,0.201717,857.544,540.997)">
                        <path d="M661,567L894,567" style="fill:none;stroke:white;stroke-width:70.28px;"/>
                    </g>
                    <g transform="matrix(0.313305,0,0,0.201717,453.256,540.997)">
                        <path d="M661,567L894,567" style="fill:none;stroke:white;stroke-width:50.86px;"/>
                    </g>
                    <g transform="matrix(0.313305,0,0,0.201717,597.551,540.997)">
                        <path d="M661,567L894,567" style="fill:none;stroke:white;stroke-width:50.86px;"/>
                    </g>
                    <g transform="matrix(0.313305,0,0,0.201717,893.736,540.997)">
                        <path d="M661,567L894,567" style="fill:none;stroke:white;stroke-width:50.86px;"/>
                    </g>
                </g>
            </g>
        </g>
    </g>
</svg>
