<?xml version="1.0" encoding="UTF-8"?>
<svg id="Ebene_1" data-name="Ebene 1" xmlns="http://www.w3.org/2000/svg" viewBox="0 0 2000 2000">
  <defs>
    <style>
      .cls-1 {
        fill: #cfd8e5;
        fill-rule: evenodd;
        stroke: #172d4d;
        stroke-miterlimit: 10;
        stroke-width: 30px;
      }

      .cls-2 {
        fill: none;
      }
    </style>
  </defs>
  <rect id="home-icon" class="cls-2" width="2000" height="2000"/>
  <path class="cls-1" d="m118.6,942.21c-10.44-6.42-18.79-16.16-23.42-28.11-8.56-22.06-2.68-47.11,14.8-63.06C319.56,659.72,772.17,246.54,937.72,95.41c35.27-32.2,89.28-32.2,124.55,0,165.55,151.13,618.17,564.31,827.75,755.63,17.47,15.95,23.35,41,14.79,63.06-4.63,11.95-12.98,21.69-23.42,28.11v940.04c0,29.41-23.87,53.28-53.28,53.28h-502.44c-12.56,0-24.61-4.99-33.49-13.87-8.89-8.89-13.88-20.93-13.88-33.5v-569.86c0-15.36-12.47-27.83-27.83-27.83h-500.95c-15.36,0-27.83,12.47-27.83,27.83v569.86c0,12.57-4.99,24.61-13.88,33.5-8.88,8.88-20.92,13.87-33.49,13.87H171.88c-29.4,0-53.28-23.87-53.28-53.28v-940.04Z"/>
</svg>