<svg viewBox="0 0 2000 2000" xmlns="http://www.w3.org/2000/svg" xml:space="preserve" style="fill-rule:evenodd;clip-rule:evenodd;stroke-linejoin:round;stroke-miterlimit:2">
    <path style="fill:none" d="M0 0h2000v2000H0z"/>
    <path d="M1399 457.84c0-25.3-15.18-45.84-33.88-45.84H585.88c-18.699 0-33.88 20.54-33.88 45.84v1054.32c0 25.3 15.181 45.84 33.88 45.84h779.24c18.7 0 33.88-20.54 33.88-45.84V457.84Z" style="fill:#e6e6e6" transform="matrix(2.36128 0 0 1.7452 -1303.42 -719.023)"/>
    <path d="M2391.05 942.208a57.258 57.258 0 0 1-23.42-28.109c-8.56-22.059-2.68-47.108 14.8-63.06l827.74-755.627c35.27-32.201 89.28-32.201 124.55 0 165.55 151.126 618.17 564.306 827.75 755.627 17.47 15.952 23.35 41.001 14.79 63.06a57.258 57.258 0 0 1-23.42 28.109v940.042c0 29.41-23.87 53.28-53.28 53.28h-502.44c-12.56 0-24.61-4.99-33.49-13.87a47.358 47.358 0 0 1-13.88-33.5V1318.3c0-15.36-12.47-27.83-27.83-27.83h-500.95c-15.36 0-27.83 12.47-27.83 27.83v569.86c0 12.57-4.99 24.61-13.88 33.5a47.35 47.35 0 0 1-33.49 13.87h-502.44c-29.4 0-53.28-23.87-53.28-53.28V942.208Z" style="fill:#172d4d" transform="translate(-2272.45)"/>
</svg>
