<svg id="Ebene_1" data-name="Ebene 1" xmlns="http://www.w3.org/2000/svg" viewBox="0 0 2000 2000">
    <defs>
        <style>
            .cls-1{fill:#b9bec6}.cls-1,.cls-10,.cls-2,.cls-3,.cls-4,.cls-5,.cls-6,.cls-7,.cls-8,.cls-9{fill-rule:evenodd}.cls-2{fill:#e3e5e8}.cls-11,.cls-3{fill:#45a0e5}.cls-4{fill:#59ace8}.cls-5{fill:#b8ddf5}.cls-6{fill:#172d4f}.cls-12,.cls-7,.cls-8{fill:#172d4d}.cls-8{stroke:#172d4d;stroke-miterlimit:10;stroke-width:25px}.cls-9{fill:#8f97a3}.cls-10{fill:#92caf0}
        </style>
    </defs>
    <path class="cls-12" d="M1479-91v1137h-.01c-.54 121.59-99.72 220-221.99 220s-221.44-98.41-221.99-220h-.01V718h-.57v-8.79h-.01c-.54-174.61-142.25-316-316.99-316s-316.45 141.39-316.99 316h-.01V2137h95V709.21h.01c.54-121.59 99.72-220 221.99-220s221.44 98.41 221.99 220h.01v328h.57v8.79h.01c.54 174.61 142.25 316 316.99 316s316.45-141.39 316.99-316h.01V-91h-95Z"/>
    <path class="cls-1" d="m74.86 1616.59 371.43-214.44 371.42 214.44-371.42 214.44-371.43-214.44z"/>
    <path class="cls-2" d="m446.28 1053.68 371.43 214.44v348.47l-371.43-214.44v-348.47z"/>
    <path class="cls-9" d="m74.86 1268.12 371.42-214.44v348.47L74.86 1616.59v-348.47z"/>
    <path class="cls-8" d="M822.16 1621.57a6.72 6.72 0 0 0 2.24-4.98V1268.12a6.67 6.67 0 0 0-3.34-5.78L449.63 1047.9a6.696 6.696 0 0 0-6.68 0h-.01L71.53 1262.34a6.67 6.67 0 0 0-3.34 5.78v348.47c0 2.39 1.27 4.59 3.34 5.78.02.01.05.02.07.04l371.36 214.41a6.677 6.677 0 0 0 6.67 0l371.43-214.44c.36-.21.7-.45 1.01-.72.02-.02.05-.04.07-.06.01 0 .02-.02.03-.03Zm-369.19-556.33 358.07 206.73v333.04s-321.67-185.72-358.07-206.73v-333.04ZM81.54 1271.97l358.07-206.73v333.04L81.54 1605.01v-333.04Zm364.75 551.34L88.22 1616.58l358.07-206.73 358.07 206.73-358.07 206.73Z"/>
    <g id="Avatar">
        <path class="cls-3" d="M324.9 1380.66c42.65-24.62 77.27 9.82 77.27 76.87s12.02 114.55-77.27 166.1c-84.33 48.69-77.27-9.82-77.27-76.87s34.62-141.48 77.27-166.1Z"/>
        <path class="cls-7" d="M356.2 1366.18c-10.65-1.1-22.38 1.55-34.67 8.65-32.83 18.96-61.38 66.25-73.89 117.82-10.73 32.75-13.19 65.25-6.99 107.66.42 2.87 2.79 30.07 12.91 42.97 45.11 34.79 63.85 27.2 70.1 26.02 10.87-2.05 24.8-7.68 42.54-17.92 37.24-21.5 57.41-42.49 68.41-64.21 16.29-32.18 12.23-66.3 12.23-107.72 0-34.05-8.85-60.08-22.67-75.45-1.94-2.99-4.74-6.08-8.63-8.97-45.19-33.58-47.77-29.78-47.77-29.78a9.49 9.49 0 0 0-9.58.06l-1.98.9Zm42.9 36.66c6.2 14.51 9.8 32.96 9.8 54.69 0 41.42 4.07 75.54-12.23 107.72-11 21.72-31.18 42.72-68.41 64.22-12.08 6.97-22.4 11.82-31.19 14.84 1.49 3.86 3.49 7.01 6.29 9.22 4.12 3.25 9.89 4.01 17.79 2.52 9.81-1.85 22.3-7.12 38.3-16.35 34.19-19.74 53.03-38.69 63.13-58.64 15.36-30.33 10.77-62.58 10.77-101.63 0-22.2-3.9-40.65-10.84-54.22-5.85-11.42-13.8-19.26-23.41-22.37Zm-15.32-1.05c.27.5.54 1.01.81 1.53 6.95 13.57 10.84 32.02 10.84 54.22 0 39.05 4.59 71.3-10.77 101.63-10.1 19.95-28.94 38.9-63.13 58.64-10.69 6.17-19.82 10.57-27.62 13.36-2.54-16.93-1.62-39.19-1.62-62.5 0-64.6 32.82-136.55 73.9-160.27 6.1-3.52 11.99-5.71 17.59-6.6Z"/>
        <path class="cls-7" d="M279.93 1345.34c1.9 6.82 6.67 19.06 14.33 24.96 35.81 27.59 41.7 26.85 49.88 27.93 12.16 1.61 25.62.9 38.61-10.76 22.27-19.98 33.71-60.3 25.43-90-3.68-13.2-10.55-22.36-18.81-27.52-.36-.22-35.17-22.57-45.41-25.37-11.83-3.23-25.62-.9-38.61 10.76-22.26 19.98-33.71 60.3-25.43 90Zm92.1-61.43c4.34 28.52-6.96 63.5-27.2 81.67a57.803 57.803 0 0 1-5.65 4.49c2.69 5.17 6.3 8.68 10.72 10.09 6.21 1.98 13.28-.6 20.18-6.8 17.5-15.71 26.33-47.44 19.82-70.78-2.65-9.5-7.36-15.97-13.77-18.01-1.33-.42-2.71-.64-4.11-.65Zm-18.03 9.3c1.17 20.19-6.57 43.02-19.9 56.39-1.17-20.19 6.57-43.02 19.9-56.39Z"/>
        <path class="cls-3" d="M362.82 1402.56c42.65-24.62 77.27 9.82 77.27 76.87s12.02 114.55-77.27 166.1c-84.33 48.69-77.27-9.82-77.27-76.87s34.62-141.48 77.27-166.1Z"/>
        <path class="cls-4" d="M373.44 1421.74c36.83-21.26 66.73 8.48 66.73 66.39s10.38 98.93-66.73 143.45c-72.82 42.05-66.73-8.48-66.73-66.39s29.9-122.18 66.73-143.45Z"/>
        <path class="cls-10" d="M383.98 1460.09c22.79-13.16 41.29 5.25 41.29 41.07s6.42 61.2-41.29 88.75c-45.06 26.01-41.29-5.25-41.29-41.07s18.5-75.59 41.29-88.75Z"/>
        <path class="cls-5" d="M387.12 1493.04c13.7-7.91 24.83 3.16 24.83 24.7s3.86 36.81-24.83 53.38c-27.1 15.65-24.83-3.16-24.83-24.7s11.13-45.47 24.83-53.38Z"/>
        <ellipse class="cls-11" cx="362.24" cy="1333.06" rx="58.49" ry="36.2" transform="rotate(-76.75 362.22 1333.046)"/>
    </g>
    <g id="Fernseher_rechts" data-name="Fernseher rechts">
        <path class="cls-9" d="m518.22 1181.57 224.28 129.49v197.52l-224.28-129.49v-197.52z"/>
        <path class="cls-12" d="M742.5 1514.64c-1.05 0-2.09-.27-3.03-.81l-224.28-129.49a6.043 6.043 0 0 1-3.03-5.25v-197.52c0-2.17 1.16-4.17 3.03-5.25a6.072 6.072 0 0 1 6.06 0l224.28 129.49a6.043 6.043 0 0 1 3.03 5.25v197.52c0 2.17-1.16 4.17-3.03 5.25-.94.54-1.98.81-3.03.81Zm-218.22-139.05 212.16 122.49v-183.52l-212.16-122.49v183.52Z"/>
        <g id="Videobutton">
            <ellipse class="cls-11" cx="630.36" cy="1343.43" rx="46.83" ry="81.11" transform="rotate(-30 630.351 1343.422)"/>
            <path class="cls-6" d="m665.96 1365.24-56.89 6.52v-78.74l56.89 72.22Z"/>
        </g>
    </g>
    <path class="cls-1" d="m1159.86 696.59 371.43-214.44 371.42 214.44-371.42 214.44-371.43-214.44z"/>
    <path class="cls-2" d="m1531.28 133.68 371.43 214.44v348.47l-371.43-214.44V133.68z"/>
    <path class="cls-9" d="m1159.86 348.12 371.42-214.44v348.47l-371.42 214.44V348.12z"/>
    <path class="cls-8" d="M1907.16 701.57a6.72 6.72 0 0 0 2.24-4.98V348.12a6.67 6.67 0 0 0-3.34-5.78L1534.63 127.9a6.696 6.696 0 0 0-6.68 0h-.01l-371.41 214.44a6.67 6.67 0 0 0-3.34 5.78v348.47c0 2.39 1.27 4.59 3.34 5.78.02.01.05.02.07.04l371.36 214.41a6.677 6.677 0 0 0 6.67 0l371.43-214.44c.36-.21.7-.45 1.01-.72.02-.02.05-.04.07-.06.01 0 .02-.02.03-.03Zm-369.2-556.32 358.07 206.73v333.04s-321.67-185.72-358.07-206.73V145.25Zm-371.43 206.73 358.07-206.73v333.04l-358.07 206.73V351.98Zm364.75 551.34-358.07-206.73 358.07-206.73 358.07 206.73-358.07 206.73Z"/>
    <g id="Avatar-2" data-name="Avatar">
        <path class="cls-3" d="M1409.9 460.66c42.65-24.62 77.27 9.82 77.27 76.87s12.02 114.55-77.27 166.1c-84.33 48.69-77.27-9.82-77.27-76.87s34.62-141.48 77.27-166.1Z"/>
        <path class="cls-7" d="M1441.2 446.18c-10.65-1.1-22.38 1.55-34.67 8.65-32.83 18.96-61.38 66.25-73.89 117.82-10.73 32.75-13.19 65.25-6.99 107.66.42 2.87 2.79 30.07 12.91 42.97 45.11 34.79 63.85 27.2 70.1 26.02 10.87-2.05 24.8-7.68 42.54-17.92 37.24-21.5 57.41-42.49 68.41-64.21 16.29-32.18 12.23-66.3 12.23-107.72 0-34.05-8.85-60.08-22.67-75.45-1.94-2.99-4.74-6.08-8.63-8.97-45.19-33.58-47.77-29.78-47.77-29.78a9.49 9.49 0 0 0-9.58.06l-1.98.9Zm42.9 36.66c6.2 14.51 9.8 32.96 9.8 54.69 0 41.42 4.07 75.54-12.23 107.72-11 21.72-31.18 42.72-68.41 64.22-12.08 6.97-22.4 11.82-31.19 14.84 1.49 3.86 3.49 7.01 6.29 9.22 4.12 3.25 9.89 4.01 17.79 2.52 9.81-1.85 22.3-7.12 38.3-16.35 34.19-19.74 53.03-38.69 63.13-58.64 15.36-30.33 10.77-62.58 10.77-101.63 0-22.2-3.9-40.65-10.84-54.22-5.85-11.42-13.8-19.26-23.41-22.37Zm-15.32-1.05c.27.5.54 1.01.81 1.53 6.95 13.57 10.84 32.02 10.84 54.22 0 39.05 4.59 71.3-10.77 101.63-10.1 19.95-28.94 38.9-63.13 58.64-10.69 6.17-19.82 10.57-27.62 13.36-2.54-16.93-1.62-39.19-1.62-62.5 0-64.6 32.82-136.55 73.9-160.27 6.1-3.52 11.99-5.71 17.59-6.6Z"/>
        <path class="cls-7" d="M1364.93 425.34c1.9 6.82 6.67 19.06 14.33 24.96 35.81 27.59 41.7 26.85 49.88 27.93 12.16 1.61 25.62.9 38.61-10.76 22.27-19.98 33.71-60.3 25.43-90-3.68-13.2-10.55-22.36-18.81-27.52-.36-.22-35.17-22.57-45.41-25.37-11.83-3.23-25.62-.9-38.61 10.76-22.26 19.98-33.71 60.3-25.43 90Zm92.1-61.43c4.34 28.52-6.96 63.5-27.2 81.67a57.803 57.803 0 0 1-5.65 4.49c2.69 5.17 6.3 8.68 10.72 10.09 6.21 1.98 13.28-.6 20.18-6.8 17.5-15.71 26.33-47.44 19.82-70.78-2.65-9.5-7.36-15.97-13.77-18.01-1.33-.42-2.71-.64-4.11-.65Zm-18.03 9.3c1.17 20.19-6.57 43.02-19.9 56.39-1.17-20.19 6.57-43.02 19.9-56.39Z"/>
        <path class="cls-3" d="M1447.82 482.56c42.65-24.62 77.27 9.82 77.27 76.87s12.02 114.55-77.27 166.1c-84.33 48.69-77.27-9.82-77.27-76.87s34.62-141.48 77.27-166.1Z"/>
        <path class="cls-4" d="M1458.44 501.74c36.83-21.26 66.73 8.48 66.73 66.39s10.38 98.93-66.73 143.45c-72.82 42.05-66.73-8.48-66.73-66.39s29.9-122.18 66.73-143.45Z"/>
        <path class="cls-10" d="M1468.98 540.09c22.79-13.16 41.29 5.25 41.29 41.07s6.42 61.2-41.29 88.75c-45.06 26.01-41.29-5.25-41.29-41.07s18.5-75.59 41.29-88.75Z"/>
        <path class="cls-5" d="M1472.12 573.04c13.7-7.91 24.83 3.16 24.83 24.7s3.86 36.81-24.83 53.38c-27.1 15.65-24.83-3.16-24.83-24.7s11.13-45.47 24.83-53.38Z"/>
        <ellipse class="cls-11" cx="1447.24" cy="413.06" rx="58.49" ry="36.2" transform="rotate(-76.75 1447.213 413.068)"/>
    </g>
    <g id="Fernseher_rechts-2" data-name="Fernseher rechts">
        <path class="cls-9" d="m1603.22 261.57 224.28 129.49v197.52l-224.28-129.49V261.57z"/>
        <path class="cls-12" d="M1827.5 594.64c-1.05 0-2.09-.27-3.03-.81l-224.28-129.49a6.043 6.043 0 0 1-3.03-5.25V261.57c0-2.17 1.16-4.17 3.03-5.25a6.072 6.072 0 0 1 6.06 0l224.28 129.49a6.043 6.043 0 0 1 3.03 5.25v197.52c0 2.17-1.16 4.17-3.03 5.25-.94.54-1.98.81-3.03.81Zm-218.22-139.05 212.16 122.49V394.56l-212.16-122.49v183.52Z"/>
        <g id="Videobutton-2" data-name="Videobutton">
            <ellipse class="cls-11" cx="1715.36" cy="423.43" rx="46.83" ry="81.11" transform="rotate(-30 1715.344 423.425)"/>
            <path class="cls-6" d="m1750.96 445.24-56.89 6.52v-78.74l56.89 72.22Z"/>
        </g>
    </g>
</svg>
