<svg viewBox="0 0 2000 2000" xmlns="http://www.w3.org/2000/svg" xml:space="preserve" style="fill-rule:evenodd;clip-rule:evenodd;stroke-linecap:round;stroke-linejoin:round;stroke-miterlimit:1.5"><path d="M577.798 1507.27c-47.171-.61-59.797 59.58-118.654 79.6-58.856 20.02-107.505 40.98-138.257 11.24-30.752-29.74-12.948-102.57 21.952-144.02 134.614-159.89 640.37-651.457 771.601-801.502 34.81-39.79-10.36-92.063-8.85-182.471 3.01-181.031 128.96-279.976 310.02-279.976 181.06 0 328.05 146.995 328.05 328.051 0 181.057-119.35 283.583-300.41 283.583-38.43 0-138.45-9.612-167.31 13.658-96.74 78.01-424.568 366.817-478.365 471.827-31.309 61.12 99.619 91.44 95.494 145.09-4.126 53.65-129.11 153.63-182.594 159.54-53.484 5.92-85.505-84-132.677-84.62ZM1469.6 309.859c76.12 0 137.91 61.796 137.91 137.911 0 76.115-61.79 137.911-137.91 137.911-76.11 0-137.91-61.796-137.91-137.911 0-76.115 61.8-137.911 137.91-137.911Z" style="fill:#cfd8e5;stroke:#172d4d;stroke-width:30px" transform="translate(-24.374 98.466)"/><path d="M918.651 1538.61c-31.851-9.8-159.447-116.9-184.788-135.21" style="fill:#cfd8e5;stroke:#172d4d;stroke-width:30px" transform="translate(-115.374 80.706)"/></svg>