<?xml version="1.0" encoding="UTF-8"?>
<svg id="Ebene_1" xmlns="http://www.w3.org/2000/svg" viewBox="0 0 2000 2000">
  <defs>
    <style>
      .cls-1 {
        fill: #172d4d;
      }

      .cls-2 {
        fill: #cfd8e5;
      }
    </style>
  </defs>
  <path class="cls-2" d="M1779.27,1966.99c-12.02,0-23.32-4.68-31.82-13.18l-747.45-747.45L252.55,1953.81c-8.5,8.5-19.8,13.18-31.82,13.18s-23.32-4.68-31.82-13.18l-142.72-142.72c-17.55-17.55-17.55-46.09,0-63.64l747.45-747.45L46.19,252.55c-8.5-8.5-13.18-19.8-13.18-31.82s4.68-23.32,13.18-31.82L188.91,46.19c8.5-8.5,19.8-13.18,31.82-13.18s23.32,4.68,31.82,13.18l747.45,747.45L1747.45,46.19c8.5-8.5,19.8-13.18,31.82-13.18s23.32,4.68,31.82,13.18l142.72,142.72c8.5,8.5,13.18,19.8,13.18,31.82s-4.68,23.32-13.18,31.82l-747.45,747.45,747.45,747.45c17.55,17.55,17.55,46.09,0,63.64l-142.72,142.72c-8.5,8.5-19.8,13.18-31.82,13.18Z"/>
  <path class="cls-1" d="M1779.27,48.01c8.01,0,15.55,3.12,21.21,8.79l142.72,142.72c5.67,5.67,8.79,13.2,8.79,21.21,0,8.01-3.12,15.55-8.79,21.21l-736.84,736.84-21.21,21.21,21.21,21.21,736.84,736.84c5.67,5.67,8.79,13.2,8.79,21.21,0,8.01-3.12,15.55-8.79,21.21l-142.72,142.72c-5.67,5.67-13.2,8.79-21.21,8.79s-15.55-3.12-21.21-8.79l-736.84-736.84-21.21-21.21-21.21,21.21L241.95,1943.2c-5.67,5.67-13.2,8.79-21.21,8.79s-15.55-3.12-21.21-8.79l-142.72-142.72c-5.67-5.67-8.79-13.2-8.79-21.21s3.12-15.55,8.79-21.21l736.84-736.84,21.21-21.21-21.21-21.21L56.8,241.95c-5.67-5.67-8.79-13.2-8.79-21.21s3.12-15.55,8.79-21.21L199.52,56.8c5.67-5.67,13.2-8.79,21.21-8.79s15.55,3.12,21.21,8.79l736.84,736.84,21.21,21.21,21.21-21.21L1758.05,56.8c5.67-5.67,13.2-8.79,21.21-8.79M1779.27,18.01c-15.36,0-30.71,5.86-42.43,17.57l-736.84,736.84L263.16,35.58c-11.72-11.72-27.07-17.57-42.43-17.57s-30.71,5.86-42.43,17.57L35.58,178.31c-23.43,23.43-23.43,61.42,0,84.85l736.84,736.84L35.58,1736.84c-23.43,23.43-23.43,61.42,0,84.85l142.72,142.72c11.72,11.72,27.07,17.57,42.43,17.57s30.71-5.86,42.43-17.57l736.84-736.84,736.84,736.84c11.72,11.72,27.07,17.57,42.43,17.57s30.71-5.86,42.43-17.57l142.72-142.72c23.43-23.43,23.43-61.42,0-84.85l-736.84-736.84,736.84-736.84c23.43-23.43,23.43-61.42,0-84.85l-142.72-142.72c-11.72-11.72-27.07-17.57-42.43-17.57h0Z"/>
</svg>