<?xml version="1.0" encoding="UTF-8"?>
<svg id="Ebene_1" data-name="Ebene 1" xmlns="http://www.w3.org/2000/svg" viewBox="0 0 2000 2000">
  <defs>
    <style>
      .cls-1 {
        fill: #b9bec6;
      }

      .cls-1, .cls-2, .cls-3, .cls-4, .cls-5, .cls-6, .cls-7, .cls-8, .cls-9, .cls-10 {
        fill-rule: evenodd;
      }

      .cls-2 {
        fill: #e3e5e8;
      }

      .cls-11 {
        fill: #fff;
      }

      .cls-3, .cls-12 {
        fill: #45a0e5;
      }

      .cls-4 {
        fill: #59ace8;
      }

      .cls-5 {
        stroke: #172d4d;
        stroke-linecap: round;
        stroke-linejoin: round;
        stroke-width: 25.24px;
      }

      .cls-5, .cls-9 {
        fill: #8f97a3;
      }

      .cls-6 {
        fill: #b8ddf5;
      }

      .cls-7 {
        fill: #172d4f;
      }

      .cls-8 {
        fill: #172d4d;
      }

      .cls-13 {
        fill: none;
      }

      .cls-10 {
        fill: #92caf0;
      }
    </style>
  </defs>
  <rect id="lernwelt-icon" class="cls-13" x="-589.71" y="-82.57" width="2000" height="2000"/>
  <g>
    <polygon class="cls-1" points="72.63 1434.54 999.57 899.37 1926.52 1434.55 999.57 1969.72 72.63 1434.54"/>
    <path class="cls-8" d="m1007.9,884.94c-5.15-2.97-11.5-2.97-16.66,0L64.3,1420.11c-5.15,2.98-8.33,8.48-8.34,14.43,0,5.96,3.18,11.46,8.34,14.44l926.95,535.17c5.15,2.97,11.5,2.97,16.66,0l926.95-535.17c5.16-2.98,8.33-8.48,8.34-14.43,0-5.96-3.18-11.46-8.33-14.43l-926.96-535.18Zm-8.33,33.68l893.62,515.93-893.61,515.93L105.95,1434.54l893.61-515.93h0Z"/>
  </g>
  <g>
    <polygon class="cls-2" points="999.57 29.72 1926.51 564.89 1926.51 1434.54 999.57 899.37 999.57 29.72"/>
    <path class="cls-8" d="m1943.18,564.89c0-5.95-3.18-11.46-8.33-14.43L1007.9,15.28c-5.15-2.98-11.51-2.97-16.67,0-5.15,2.97-8.33,8.47-8.33,14.44v869.65c0,5.96,3.18,11.46,8.33,14.43l926.95,535.17c5.16,2.98,11.51,2.98,16.67,0,5.16-2.97,8.33-8.47,8.33-14.44v-869.65Zm-33.33,9.62v831.16s-802.78-463.49-893.61-515.93V58.58l893.61,515.93h0Z"/>
  </g>
  <g>
    <polygon class="cls-9" points="72.62 564.89 999.56 29.72 999.56 899.37 72.62 1434.55 72.62 564.89"/>
    <path class="cls-8" d="m1016.23,29.72c0-5.96-3.18-11.46-8.33-14.44-5.16-2.97-11.51-2.98-16.67,0L64.28,550.46c-5.15,2.98-8.33,8.48-8.33,14.43v869.65c0,5.96,3.18,11.46,8.33,14.44,5.15,2.99,11.51,2.98,16.67,0l926.95-535.17c5.16-2.98,8.33-8.47,8.33-14.43V29.72Zm-33.33,28.87v831.16L89.28,1405.68v-831.16L982.9,58.59h0Z"/>
  </g>
  <g id="Avatar">
    <path class="cls-3" d="m699.19,850.38c105.53-60.93,191.21,24.31,191.21,190.23s29.74,283.45-191.21,411.02c-208.67,120.47-191.22-24.3-191.22-190.22s85.68-350.09,191.22-411.02Z"/>
    <path class="cls-8" d="m776.65,814.55c-26.36-2.73-55.37,3.83-85.8,21.4-81.25,46.91-151.88,163.95-182.85,291.55-26.55,81.03-32.64,161.46-17.3,266.4,1.04,7.1,6.91,74.41,31.94,106.32,111.62,86.09,157.99,67.31,173.48,64.38,26.91-5.07,61.38-19.01,105.26-44.35,92.15-53.2,142.07-105.15,169.29-158.9,40.32-79.62,30.26-164.06,30.26-266.55,0-84.27-21.9-148.67-56.1-186.7-4.8-7.4-11.73-15.05-21.35-22.2-111.81-83.09-118.21-73.7-118.21-73.7-7.35-4.24-16.42-4.19-23.72.14l-4.9,2.22Zm106.17,90.72c15.33,35.9,24.25,81.57,24.25,135.34,0,102.49,10.06,186.94-30.26,266.55-27.22,53.75-77.15,105.71-169.29,158.91-29.9,17.26-55.43,29.24-77.18,36.72,3.69,9.56,8.64,17.35,15.57,22.82,10.19,8.04,24.48,9.93,44.02,6.24,24.28-4.58,55.18-17.61,94.77-40.46,84.61-48.85,131.23-95.74,156.22-145.1,38.01-75.06,26.66-154.87,26.66-251.49,0-54.94-9.65-100.58-26.84-134.16-14.46-28.26-34.15-47.66-57.93-55.36Zm-37.91-2.6c.68,1.24,1.34,2.5,1.99,3.78,17.19,33.58,26.84,79.22,26.84,134.16,0,96.62,11.35,176.44-26.66,251.49-24.99,49.36-71.61,96.25-156.22,145.1-26.46,15.28-49.03,26.16-68.35,33.07-6.29-41.89-4.02-96.99-4.02-154.67,0-159.85,81.21-337.89,182.88-396.59h0c15.09-8.71,29.67-14.14,43.53-16.33Z"/>
    <path class="cls-8" d="m587.92,762.99c4.71,16.88,16.51,47.16,35.47,61.76,88.61,68.28,103.18,66.44,123.44,69.11,30.09,3.97,63.4,2.23,95.53-26.62,55.1-49.45,83.41-149.21,62.92-222.71-9.11-32.67-26.11-55.34-46.53-68.09-.88-.55-87.04-55.86-112.38-62.78-29.28-8-63.4-2.23-95.53,26.62h0c-55.1,49.45-83.41,149.21-62.92,222.71Zm227.91-152.02c10.74,70.58-17.22,157.12-67.31,202.09-4.62,4.15-9.29,7.84-13.98,11.1,6.65,12.78,15.59,21.48,26.53,24.97,15.37,4.89,32.87-1.49,49.95-16.82,43.3-38.87,65.16-117.39,49.05-175.16-6.55-23.51-18.21-39.52-34.07-44.56-3.3-1.05-6.7-1.58-10.17-1.61Zm-44.61,23.02c2.89,49.95-16.25,106.46-49.23,139.54-2.89-49.95,16.25-106.46,49.23-139.54Z"/>
    <path class="cls-3" d="m793.04,904.57c105.53-60.93,191.21,24.31,191.21,190.23s29.74,283.45-191.21,411.02c-208.67,120.47-191.22-24.3-191.22-190.22s85.68-350.09,191.22-411.02Z"/>
    <path class="cls-4" d="m819.3,952.03c91.14-52.62,165.13,21,165.13,164.28s25.68,244.8-165.13,354.96c-180.21,104.04-165.14-20.98-165.14-164.28s74-302.35,165.14-354.97Z"/>
    <path class="cls-10" d="m845.4,1046.94c56.38-32.55,102.16,12.99,102.16,101.64s15.89,151.45-102.16,219.61c-111.49,64.37-102.17-12.98-102.17-101.64s45.78-187.05,102.17-219.61Z"/>
    <path class="cls-6" d="m853.15,1128.47c33.91-19.58,61.45,7.81,61.45,61.13s9.56,91.09-61.45,132.09c-67.06,38.72-61.45-7.81-61.45-61.13s27.53-112.51,61.45-132.09Z"/>
    <ellipse class="cls-12" cx="791.58" cy="732.59" rx="144.73" ry="89.59" transform="translate(-102.95 1335.18) rotate(-76.75)"/>
  </g>
  <g id="Fernseher_rechts" data-name="Fernseher rechts">
    <polygon class="cls-5" points="1177.57 357.72 1732.57 678.15 1732.57 1166.93 1177.57 846.5 1177.57 357.72"/>
    <g id="Videobutton">
      <ellipse class="cls-12" cx="1455.07" cy="758.24" rx="115.88" ry="200.7" transform="translate(-184.18 829.12) rotate(-30)"/>
      <path class="cls-7" d="m1543.16,812.22l-140.79,16.14v-194.84l140.79,178.71Z"/>
    </g>
  </g>
  <g>
    <path d="m334.31,758.49l95.21,296.78,94.92-296.78h135.35v426.56h-103.12v-99.61l9.96-203.91-103.12,303.52h-67.97l-103.42-303.81,9.96,204.2v99.61h-102.83v-426.56h135.06Z"/>
    <path d="m930.36,1190.92c-48.63,0-87.99-14.5-118.07-43.51-30.08-29-45.12-66.75-45.12-113.23v-8.2c0-32.42,6.01-61.03,18.02-85.84,12.01-24.8,29.54-43.99,52.59-57.57,23.04-13.57,50.39-20.36,82.03-20.36,44.53,0,79.69,13.82,105.47,41.46,25.78,27.64,38.67,66.17,38.67,115.58v38.38h-196.29c3.52,17.77,11.23,31.74,23.14,41.89,11.91,10.16,27.34,15.23,46.29,15.23,31.25,0,55.66-10.94,73.24-32.81l45.12,53.32c-12.3,16.99-29.74,30.52-52.29,40.58-22.56,10.06-46.83,15.09-72.8,15.09Zm-11.13-252.54c-28.91,0-46.1,19.14-51.56,57.42h99.61v-7.62c.39-15.82-3.62-28.07-12.01-36.77-8.4-8.69-20.41-13.04-36.04-13.04Z"/>
    <path d="m1250.73,868.06l3.22,37.21c21.87-28.71,52.05-43.07,90.53-43.07,33,0,57.66,9.86,73.97,29.59,16.31,19.73,24.76,49.42,25.34,89.06v204.2h-99.02v-200.1c0-16.01-3.22-27.78-9.67-35.3-6.45-7.52-18.16-11.28-35.16-11.28-19.34,0-33.69,7.62-43.07,22.85v223.83h-98.73v-316.99h92.58Z"/>
    <path d="m1743.65,1150.78c-20.9,26.76-49.12,40.14-84.67,40.14s-61.08-10.11-78.96-30.32-26.81-49.26-26.81-87.16v-205.37h98.73v205.96c0,27.15,13.18,40.72,39.55,40.72,22.65,0,38.77-8.1,48.34-24.32v-222.36h99.32v316.99h-92.58l-2.93-34.28Zm-168.46-365.63c0-10.74,4.25-19.92,12.74-27.54s18.99-11.43,31.49-11.43,23,3.81,31.49,11.43,12.74,16.8,12.74,27.54-4.25,19.92-12.74,27.54-19,11.43-31.49,11.43-23-3.81-31.49-11.43-12.74-16.8-12.74-27.54Zm152.05,0c0-10.74,4.25-19.92,12.74-27.54s18.99-11.43,31.49-11.43,23,3.81,31.49,11.43,12.74,16.8,12.74,27.54-4.25,19.92-12.74,27.54-19,11.43-31.49,11.43-23-3.81-31.49-11.43-12.74-16.8-12.74-27.54Z"/>
  </g>
  <g>
    <path class="cls-11" d="m317.55,744.58l95.21,296.78,94.92-296.78h135.35v426.56h-103.12v-99.61l9.96-203.91-103.12,303.52h-67.97l-103.42-303.81,9.96,204.2v99.61h-102.83v-426.56h135.06Z"/>
    <path class="cls-11" d="m913.6,1177c-48.63,0-87.99-14.5-118.07-43.51-30.08-29-45.12-66.75-45.12-113.23v-8.2c0-32.42,6.01-61.03,18.02-85.84,12.01-24.8,29.54-43.99,52.59-57.57,23.04-13.57,50.39-20.36,82.03-20.36,44.53,0,79.69,13.82,105.47,41.46,25.78,27.64,38.67,66.17,38.67,115.58v38.38h-196.29c3.52,17.78,11.23,31.74,23.14,41.89,11.91,10.16,27.34,15.23,46.29,15.23,31.25,0,55.66-10.94,73.24-32.81l45.12,53.32c-12.3,16.99-29.74,30.52-52.29,40.58-22.56,10.06-46.83,15.09-72.8,15.09Zm-11.13-252.54c-28.91,0-46.1,19.14-51.56,57.42h99.61v-7.62c.39-15.82-3.62-28.07-12.01-36.77-8.4-8.69-20.41-13.04-36.04-13.04Z"/>
    <path class="cls-11" d="m1233.96,854.15l3.22,37.21c21.87-28.71,52.05-43.07,90.53-43.07,33,0,57.66,9.86,73.97,29.59,16.31,19.73,24.76,49.42,25.34,89.06v204.2h-99.02v-200.1c0-16.01-3.22-27.78-9.67-35.3-6.45-7.52-18.16-11.28-35.16-11.28-19.34,0-33.69,7.62-43.07,22.85v223.83h-98.73v-316.99h92.58Z"/>
    <path class="cls-11" d="m1726.89,1136.87c-20.9,26.76-49.12,40.14-84.67,40.14s-61.08-10.11-78.96-30.32-26.81-49.26-26.81-87.16v-205.37h98.73v205.96c0,27.15,13.18,40.72,39.55,40.72,22.65,0,38.77-8.1,48.34-24.32v-222.36h99.32v316.99h-92.58l-2.93-34.28Zm-168.46-365.62c0-10.74,4.25-19.92,12.74-27.54s18.99-11.43,31.49-11.43,23,3.81,31.49,11.43,12.74,16.8,12.74,27.54-4.25,19.92-12.74,27.54-19,11.43-31.49,11.43-23-3.81-31.49-11.43-12.74-16.8-12.74-27.54Zm152.05,0c0-10.74,4.25-19.92,12.74-27.54s18.99-11.43,31.49-11.43,23,3.81,31.49,11.43,12.74,16.8,12.74,27.54-4.25,19.92-12.74,27.54-19,11.43-31.49,11.43-23-3.81-31.49-11.43-12.74-16.8-12.74-27.54Z"/>
  </g>
</svg>