<svg id="Ebene_1" data-name="Ebene 1" xmlns="http://www.w3.org/2000/svg" viewBox="0 0 2000 2000">
    <defs>
        <style>
            .cls-1{fill:#172d4d;stroke:#e5bd73;stroke-miterlimit:10;stroke-width:40px}
        </style>
    </defs>
    <path class="cls-1" d="M1458.64 665.04s-.1 1.04-.09 2.78c.16 2.01.3 4.02.43 6.03 1.52 11.2 8.06 29.19 34.23 30.05h3.97c1.07-.03 2.16-.09 3.29-.17 6.54-.51 10.86-.39 13.46.17h45.64c2.64-.44 6.52-.6 11.94-.39 45.92 1.76 40.29-40.29 40.29-40.29l.64-.2c-21.27-320.57-288.03-574.01-613.99-574.01s-613.04 273.2-615.33 611.1h-.03v244.07h153.25V703.9h.59c.26-254.68 206.79-461.05 461.52-461.05 241.61 0 439.85 185.67 459.86 422.11l.33.09Z"/>
    <rect class="cls-1" x="307.08" y="900.79" width="1385.83" height="1010.21" rx="72.29" ry="72.29"/>
</svg>
