<svg id="Ebene_1" data-name="Ebene 1" xmlns="http://www.w3.org/2000/svg" viewBox="0 0 2000 2000">
    <defs>
        <style>
            .cls-2{fill:#172d4d;stroke:#172d4d;stroke-miterlimit:10;stroke-width:40px}
        </style>
    </defs>
    <path d="M2000 80c0-44.15-35.84-80-80-80H80C35.85 0 0 35.85 0 80v1840c0 44.15 35.85 80 80 80h1840c44.16 0 80-35.85 80-80V80Z" style="fill:#e6e6e6;fill-rule:evenodd"/>
    <path class="cls-2" d="M1364.17 354.89s.76.91 2.16 2.3c1.74 1.48 3.46 2.98 5.18 4.49 10.2 7.76 29.88 16.95 51.55-3.35l3.18-3.18c.83-.89 1.67-1.8 2.5-2.78 4.84-5.65 8.39-9.02 10.94-10.66l36.6-36.6c1.77-2.47 4.75-5.71 9.26-9.89 38.24-35.42 0-64.63 0-64.63l.35-.67C1211.73-10.15 794.51.53 533.08 261.97s-272.56 710.82-3.39 983.67l-.02.02 195.75 195.75 122.91-122.91-192.72-192.72.48-.48c-204.06-204.47-203.93-535.64.38-739.95 193.78-193.78 501.69-203.87 707.37-30.28l.33-.19Z"/>
    <rect class="cls-2" x="214.05" y="796.62" width="1571.89" height="1145.84" rx="72.29" ry="72.29"/>
</svg>
