<svg version="1.1" id="Ebene_1" xmlns="http://www.w3.org/2000/svg" xmlns:xlink="http://www.w3.org/1999/xlink" x="0" y="0" viewBox="0 0 2000 2000" style="enable-background:new 0 0 2000 2000" xml:space="preserve"><style>.st1{fill-rule:evenodd;clip-rule:evenodd;fill:#6ee96e}.st1,.st2{clip-path:url(#SVGID_00000178198427337405004280000006594748714460744070_)}.st3{clip-path:url(#SVGID_00000009572816446986759130000009031032777612255653_);fill-rule:evenodd;clip-rule:evenodd}</style><path d="M1000 119.5c63.5 0 262.8 610.3 262.8 610.3s642 1 661.6 61.4-499.2 438.5-499.2 438.5 197.5 610.9 146.1 648.2c-51.4 37.3-571.4-339.3-571.4-339.3s-520 376.6-571.3 339.3c-51.4-37.3 146.1-648.2 146.1-648.2S55.9 851.5 75.5 791.1s661.6-61.4 661.6-61.4S936.5 119.5 1000 119.5h0z" style="fill-rule:evenodd;clip-rule:evenodd;fill:#e5bd73;stroke:#000;stroke-width:120;stroke-linecap:round;stroke-linejoin:round;stroke-miterlimit:1.5"/><defs><path id="SVGID_1_" d="M524.2 119.4h1434v1434h-1434z"/></defs><clipPath id="SVGID_00000143586873569243655960000000805811793158515859_"><use xlink:href="#SVGID_1_" style="overflow:visible"/></clipPath><path style="clip-path:url(#SVGID_00000143586873569243655960000000805811793158515859_);fill-rule:evenodd;clip-rule:evenodd;fill:#6ee96e" d="M939.9 1059.3 717 836.4 546.4 1007l391.9 391.9 1.3-1.2 1.2 1.2 992.8-992.7-170.3-170.3z"/><g style="clip-path:url(#SVGID_00000143586873569243655960000000805811793158515859_)"><defs><path id="SVGID_00000152978731865787439370000011569064663389648048_" d="M524.2 119.4h1434v1434h-1434z"/></defs><clipPath id="SVGID_00000165232107729069355970000001219167045830612116_"><use xlink:href="#SVGID_00000152978731865787439370000011569064663389648048_" style="overflow:visible"/></clipPath><path style="clip-path:url(#SVGID_00000165232107729069355970000001219167045830612116_);fill-rule:evenodd;clip-rule:evenodd" d="m939.9 1027.6-207-207c-8.7-8.7-22.9-8.7-31.7 0L530.5 991.2c-8.8 8.8-8.8 22.9 0 31.7l391.9 391.9c4.7 4.7 11 6.9 17.1 6.5 6.1.4 12.4-1.8 17.1-6.5L1949.4 422c8.7-8.8 8.7-22.9 0-31.7L1779.1 220c-8.7-8.8-22.9-8.8-31.7 0l-807.5 807.6zM578.1 1007 717 868.1l207 207c8.8 8.8 22.9 8.8 31.7 0l807.5-807.5 138.6 138.6-962.3 962.3L578.1 1007z"/></g></svg>