<svg xmlns="http://www.w3.org/2000/svg" viewBox="0 0 2000 2000" style="enable-background:new 0 0 2000 2000" xml:space="preserve"><path d="M900.2 126.7h0l32.4 437.5-82.9 132.7L988 866.6l-155 145.8 162.2 143.8c-39.2 142.8-56 155.7-87.8 257.1h0c-22.9 16.6-472.6 340.4-518.1 307.5C342.8 1686.8 522 1132 522 1132S50.8 788.5 68.7 733.8c17.9-54.9 600.9-55.6 600.9-55.6s165.8-508.1 230.6-551.5h0z" style="fill-rule:evenodd;clip-rule:evenodd;fill:#8c8c8c;stroke:#4c4c4c;stroke-width:60;stroke-linecap:round;stroke-linejoin:round;stroke-miterlimit:10"/><path d="M1219.4 179.8c3.3-1.3 6.4-1.8 8.9-1.2 56.4 12.3 114.7 592.6 114.7 592.6s569.5 125.6 575.1 182.8c5.7 57.5-528 292-528 292s56.5 580.3 3.7 603.6c-52.9 23.1-441.1-412-441.1-412s1.9-.9 0 0c52.8-92.3 70.6-101 139.7-231.9l-127.5-175 182.5-109.2-98.9-195.3 109.4-111.9 61.5-434.5h0z" style="fill:none;stroke:#4c4c4c;stroke-width:60;stroke-linecap:round;stroke-linejoin:round;stroke-miterlimit:10"/></svg>