<?xml version="1.0" encoding="utf-8"?>
<!-- Generator: Adobe Illustrator 27.9.0, SVG Export Plug-In . SVG Version: 6.00 Build 0)  -->
<svg version="1.1" id="Ebene_1" xmlns:serif="http://www.serif.com/"
	 xmlns="http://www.w3.org/2000/svg" xmlns:xlink="http://www.w3.org/1999/xlink" x="0px" y="0px" viewBox="0 0 1920 1080"
	 style="enable-background:new 0 0 1920 1080;" xml:space="preserve">
<style type="text/css">
	
		.st0{fill-rule:evenodd;clip-rule:evenodd;fill:#EC7D00;stroke:#000000;stroke-width:15;stroke-linecap:round;stroke-linejoin:round;stroke-miterlimit:10;}
</style>
<g transform="matrix(1,0,0,1,-32.8639,0)">
	<g id="easy">
		<path id="solved" class="st0" d="M985.6,57c31.7,0,131.3,304.8,131.3,304.8s320.7,0.5,330.5,30.6c9.8,30.2-249.3,219-249.3,219
			s98.6,305.1,73,323.8c-25.7,18.6-285.4-169.4-285.4-169.4S725.9,953.9,700.3,935.3c-25.7-18.6,73-323.8,73-323.8
			s-259.1-188.9-249.3-219c9.8-30.2,330.5-30.6,330.5-30.6S953.9,57,985.6,57z"/>
	</g>
</g>
</svg>
