<svg xmlns="http://www.w3.org/2000/svg" viewBox="0 0 2000 2000" style="enable-background:new 0 0 2000 2000" xml:space="preserve"><path d="M977.2 134.2h0l32.4 437.5-82.9 132.7L1065 874.1l-155 145.8 162.2 143.8c-39.2 142.8-56 155.7-87.8 257.1h0c-22.9 16.6-472.6 340.4-518.1 307.5-46.5-34 132.7-588.8 132.7-588.8S127.8 796 145.7 741.3c17.9-54.9 600.9-55.6 600.9-55.6s165.8-508.1 230.6-551.5z" style="fill-rule:evenodd;clip-rule:evenodd;fill:#8c8c8c;stroke:#000;stroke-width:60;stroke-linecap:round;stroke-linejoin:round;stroke-miterlimit:10" transform="translate(-76.995 -7.512)"/><path d="M976.4 134.4c2.9-2 5.9-3.1 8.4-3.1 57.7 0 238.8 554.3 238.8 554.3s583.2.9 600.9 55.6c17.9 54.9-453.3 398.2-453.3 398.2s179.3 554.8 132.7 588.8c-46.7 33.9-519-308.1-519-308.1s1.7-1.3 0 0c31.8-101.5 47.4-113.8 86.9-256.4l-162-143.7 154.9-145.7-138.4-169.6 82.9-132.7-32.8-437.6z" style="fill:none;stroke:#000;stroke-width:60;stroke-linecap:round;stroke-linejoin:round;stroke-miterlimit:10" transform="rotate(12.351 888.203 1280.112)"/></svg>