<svg xmlns="http://www.w3.org/2000/svg" viewBox="0 0 1920 1080" style="enable-background:new 0 0 1920 1080" xml:space="preserve"><path d="M979 62.1h0l17.8 240.6-45.6 73 76.1 93.3-85.3 80.2 89.2 79.1c-21.6 78.5-30.8 85.6-48.3 141.4h0C970.3 778.8 723 956.9 698 938.8 672.4 920.1 771 615 771 615S511.9 426.1 521.7 396c9.8-30.2 330.5-30.6 330.5-30.6S943.4 86 979 62.1z" style="fill-rule:evenodd;clip-rule:evenodd;fill:#8c8c8c;stroke:#000;stroke-width:15;stroke-linecap:round;stroke-linejoin:round;stroke-miterlimit:10" transform="translate(-76.995 -7.512)"/><path d="M817.3 71c1.6-1.1 3.2-1.7 4.6-1.7 31.7 0 131.3 304.8 131.3 304.8s320.7.5 330.5 30.6c9.8 30.2-249.3 219-249.3 219s98.6 305.1 73 323.8C1081.7 966.1 822 778.1 822 778.1s.9-.7 0 0c17.5-55.8 26.1-62.6 47.8-141L780.6 558l85.2-80.1-76.1-93.3 45.6-73-18-240.6z" style="fill:none;stroke:#000;stroke-width:15;stroke-linecap:round;stroke-linejoin:round;stroke-miterlimit:10" transform="rotate(12.351 888.203 1280.112)"/></svg>