<svg version="1.1" id="Ebene_1" xmlns="http://www.w3.org/2000/svg" xmlns:xlink="http://www.w3.org/1999/xlink" x="0" y="0" viewBox="0 0 2000 2000" style="enable-background:new 0 0 2000 2000" xml:space="preserve"><style>.st1{fill-rule:evenodd;clip-rule:evenodd;fill:#6ee96e}.st1,.st2{clip-path:url(#SVGID_00000002353621602692136510000010301660740129183135_)}.st3{clip-path:url(#SVGID_00000013885131667499662210000002963256467426829460_);fill-rule:evenodd;clip-rule:evenodd}</style><g transform="translate(-32.864)"><g id="easy"><path id="solved" d="M1032.7 119.4c63.4 0 262.9 610.3 262.9 610.3s642.1 1 661.7 61.3c19.6 60.5-499.1 438.4-499.1 438.4s197.4 610.9 146.2 648.3C1553 1915 1033 1538.5 1033 1538.5S512.7 1915.1 461.4 1878c-51.4-37.3 146.2-648.3 146.2-648.3S88.8 851.5 108.4 791.2c19.6-60.5 661.7-61.3 661.7-61.3s199.1-610.5 262.6-610.5z" style="fill-rule:evenodd;clip-rule:evenodd;fill:#bf8970;stroke:#000;stroke-width:60;stroke-linecap:round;stroke-linejoin:round;stroke-miterlimit:10"/></g></g><defs><path id="SVGID_1_" d="M524.2 119.4h1434v1434h-1434z"/></defs><clipPath id="SVGID_00000110441661647523572760000006113327147764934031_"><use xlink:href="#SVGID_1_" style="overflow:visible"/></clipPath><path style="clip-path:url(#SVGID_00000110441661647523572760000006113327147764934031_);fill-rule:evenodd;clip-rule:evenodd;fill:#6ee96e" d="M939.9 1059.3 717 836.4 546.4 1007l391.9 391.9 1.3-1.2 1.2 1.2 992.8-992.7-170.3-170.3z"/><g style="clip-path:url(#SVGID_00000110441661647523572760000006113327147764934031_)"><defs><path id="SVGID_00000010307331916876941260000009021287576919573423_" d="M524.2 119.4h1434v1434h-1434z"/></defs><clipPath id="SVGID_00000077316472688696503840000004598776666228378248_"><use xlink:href="#SVGID_00000010307331916876941260000009021287576919573423_" style="overflow:visible"/></clipPath><path style="clip-path:url(#SVGID_00000077316472688696503840000004598776666228378248_);fill-rule:evenodd;clip-rule:evenodd" d="m939.9 1027.6-207-207c-8.7-8.7-22.9-8.7-31.7 0L530.5 991.2c-8.8 8.8-8.8 22.9 0 31.7l391.9 391.9c4.7 4.7 11 6.9 17.1 6.5 6.1.4 12.4-1.8 17.1-6.5L1949.4 422c8.7-8.8 8.7-22.9 0-31.7L1779.1 220c-8.7-8.8-22.9-8.8-31.7 0l-807.5 807.6zM578.1 1007 717 868.1l207 207c8.8 8.8 22.9 8.8 31.7 0l807.5-807.5 138.6 138.6-962.3 962.3L578.1 1007z"/></g></svg>