<svg xmlns="http://www.w3.org/2000/svg" viewBox="0 0 2000 2000" style="enable-background:new 0 0 2000 2000" xml:space="preserve"><path d="m905 126.8-.2.2 32.6 437.3L854.5 697l138.3 169.5-155 145.7L1000 1156c-39.2 142.8-56 155.6-87.8 257.1h0c-22.9 16.6-472.6 340.4-518 307.5-46.7-33.9 132.7-588.7 132.7-588.7S55.6 788.6 73.5 733.9c17.9-54.9 600.9-55.6 600.9-55.6S840 170.3 905 126.8z" style="fill-rule:evenodd;clip-rule:evenodd;fill:#e5bd73;stroke:#cca26a;stroke-width:60;stroke-linecap:round;stroke-linejoin:round;stroke-miterlimit:10"/><path d="M1224.2 179.8c3.3-1.3 6.4-1.8 8.9-1.2 56.4 12.3 114.8 592.4 114.8 592.4s569.4 125.6 575.1 182.8c5.7 57.5-528 292-528 292s56.5 580.2 3.7 603.5c-53.1 23.2-441.2-411.9-441.2-411.9s1.9-.9 0 0c52.8-92.3 70.6-101 139.8-232l-127.7-175.2L1152.1 921l-99-195.1L1162.5 614l61.7-434.2h0z" style="fill:none;stroke:#cca26a;stroke-width:60;stroke-linecap:round;stroke-linejoin:round;stroke-miterlimit:10"/></svg>