<svg xmlns="http://www.w3.org/2000/svg" viewBox="0 0 2000 2000" style="enable-background:new 0 0 2000 2000" xml:space="preserve"><path d="m979.7 112.9-.2.2 33.4 448.1-85 136L1069.7 871l-158.8 149.3 166.2 147.4c-40.2 146.3-57.4 159.5-90 263.5h0c-23.5 17-484.3 348.8-530.9 315.1-47.9-34.7 136-603.3 136-603.3s-483-351.8-464.7-407.9c18.3-56.3 615.8-57 615.8-57s169.8-520.6 236.4-565.2z" style="fill-rule:evenodd;clip-rule:evenodd;fill:#ffb000;stroke:#000;stroke-width:15;stroke-linecap:round;stroke-linejoin:round;stroke-miterlimit:10" transform="translate(-76.995 -7.512)"/><path d="M982.3 112.6c3-2 6-3.2 8.6-3.2 59.1 0 244.7 567.9 244.7 567.9s597.6.9 615.8 57c18.3 56.3-464.5 408.1-464.5 408.1s183.7 568.5 136 603.3c-48.1 34.8-532-315.6-532-315.6s1.7-1.3 0 0c32.6-104 48.6-116.6 89.1-262.9l-166.2-147.4 158.8-149.3-141.9-173.7 85-136-33.4-448.2z" style="fill:none;stroke:#000;stroke-width:15;stroke-linecap:round;stroke-linejoin:round;stroke-miterlimit:10" transform="rotate(12.351 888.203 1280.112)"/></svg>