<svg xmlns="http://www.w3.org/2000/svg" viewBox="0 0 2000 2000" style="enable-background:new 0 0 2000 2000" xml:space="preserve"><path d="M974.9 112.9h0l33.2 448.3-85 136 141.8 173.9L906 1020.5l166.2 147.4c-40.2 146.3-57.4 159.5-90 263.5h0c-23.5 17-484.3 348.8-530.9 315.1-47.7-34.8 136-603.4 136-603.4S104.5 791.1 122.8 735c18.3-56.3 615.8-57 615.8-57s169.9-520.6 236.3-565.1z" style="fill-rule:evenodd;clip-rule:evenodd;fill:#8c8c8c;stroke:#000;stroke-width:15;stroke-linecap:round;stroke-linejoin:round;stroke-miterlimit:10" transform="translate(-76.995 -7.512)"/><path d="M977.6 113.7c3-2 6-3.2 8.6-3.2 59.1 0 244.7 568 244.7 568s597.6.9 615.8 57c18.3 56.3-464.5 408.1-464.5 408.1s183.7 568.5 136 603.4c-47.9 34.7-531.8-315.7-531.8-315.7s1.7-1.3 0 0c32.6-104 48.6-116.6 89.1-262.7l-166.2-147.4L1068 871.9 926.2 698.1l85-136-33.6-448.4z" style="fill:none;stroke:#000;stroke-width:15;stroke-linecap:round;stroke-linejoin:round;stroke-miterlimit:10" transform="rotate(12.351 888.203 1280.112)"/></svg>