<svg xmlns="http://www.w3.org/2000/svg" viewBox="0 0 1920 1080" style="enable-background:new 0 0 1920 1080" xml:space="preserve"><path d="m983.8 62.1-.1.1 17.9 240.5-45.6 73 76.1 93.3-85.2 80.1 89.2 79.1c-21.6 78.5-30.8 85.6-48.3 141.4h0c-12.6 9.1-259.9 187.2-284.9 169.1-25.7-18.6 73-323.8 73-323.8S516.7 426.1 526.5 396c9.8-30.2 330.5-30.6 330.5-30.6S948.1 86 983.8 62.1z" style="fill-rule:evenodd;clip-rule:evenodd;fill:#ec7d00;stroke:#000;stroke-width:15;stroke-linecap:round;stroke-linejoin:round;stroke-miterlimit:10" transform="translate(-76.995 -7.512)"/><path d="M822 69.9c1.6-1.1 3.2-1.7 4.6-1.7 31.7 0 131.3 304.8 131.3 304.8s320.7.5 330.5 30.6c9.8 30.2-249.3 219-249.3 219s98.6 305.1 73 323.8C1086.3 965.1 826.6 777 826.6 777s.9-.7 0 0c17.5-55.8 26.1-62.6 47.8-141.1l-89.2-79.1 85.2-80.1-76.1-93.3 45.6-73L822 69.9z" style="fill:none;stroke:#000;stroke-width:15;stroke-linecap:round;stroke-linejoin:round;stroke-miterlimit:10" transform="rotate(12.351 888.203 1280.112)"/></svg>