<?xml version="1.0" encoding="utf-8"?>
<!-- Generator: Adobe Illustrator 27.9.0, SVG Export Plug-In . SVG Version: 6.00 Build 0)  -->
<svg version="1.1" id="Ebene_1" xmlns:serif="http://www.serif.com/"
	 xmlns="http://www.w3.org/2000/svg" xmlns:xlink="http://www.w3.org/1999/xlink" x="0px" y="0px" viewBox="0 0 1920 1080"
	 style="enable-background:new 0 0 1920 1080;" xml:space="preserve">
<style type="text/css">
	
		.st0{fill-rule:evenodd;clip-rule:evenodd;fill:#FFB000;stroke:#000000;stroke-width:30;stroke-linecap:round;stroke-linejoin:round;stroke-miterlimit:10;}
	.st1{fill:none;stroke:#000000;stroke-width:30;stroke-linecap:round;stroke-linejoin:round;stroke-miterlimit:10;}
</style>
<g id="required-tried" serif:id="required tried">
	<g id="required_tried" transform="matrix(1,0,0,1,-76.9954,-7.51177)">
		<path class="st0" d="M983.8,62.1L983.8,62.1l17.8,240.6l-45.6,73l76.1,93.3l-85.2,80.1l89.2,79.1c-21.6,78.5-30.8,85.6-48.3,141.4
			l0,0c-12.6,9.1-259.9,187.2-284.9,169.1c-25.7-18.6,73-323.8,73-323.8S516.7,426.1,526.5,396c9.8-30.2,330.5-30.6,330.5-30.6
			S948.1,86,983.8,62.1z"/>
	</g>
	<g id="required_tried1" transform="matrix(0.976856,0.213898,-0.213898,0.976856,294.37,-160.358)" serif:id="required_tried">
		<path class="st1" d="M822,69.9c1.6-1.1,3.2-1.7,4.6-1.7c31.7,0,131.3,304.8,131.3,304.8s320.7,0.5,330.5,30.6
			c9.8,30.2-249.3,219-249.3,219s98.6,305.1,73,323.8C1086.3,965.1,826.6,777,826.6,777s0.9-0.7,0,0c17.5-55.8,26.1-62.6,47.8-141.1
			l-89.2-79.1l85.2-80.1l-76.1-93.3l45.6-73L822,69.9z"/>
	</g>
</g>
</svg>
