<?xml version="1.0" encoding="utf-8"?>
<!-- Generator: Adobe Illustrator 27.9.0, SVG Export Plug-In . SVG Version: 6.00 Build 0)  -->
<svg version="1.1" id="Ebene_1" xmlns:serif="http://www.serif.com/"
	 xmlns="http://www.w3.org/2000/svg" xmlns:xlink="http://www.w3.org/1999/xlink" x="0px" y="0px" viewBox="0 0 1920 1080"
	 style="enable-background:new 0 0 1920 1080;" xml:space="preserve">
<style type="text/css">
	
		.st0{fill-rule:evenodd;clip-rule:evenodd;fill:#8C8C8C;stroke:#000000;stroke-width:15;stroke-linecap:round;stroke-linejoin:round;stroke-miterlimit:10;}
	.st1{fill:none;stroke:#000000;stroke-width:15;stroke-linecap:round;stroke-linejoin:round;stroke-miterlimit:10;}
</style>
<g id="medium">
	<g id="tried">
		<g id="tried1" transform="matrix(1,0,0,1,-76.9954,-7.51177)" serif:id="tried">
			<path class="st0" d="M979,62.1L979,62.1l17.8,240.6l-45.6,73l76.1,93.3L942,549.2l89.2,79.1c-21.6,78.5-30.8,85.6-48.3,141.4l0,0
				C970.3,778.8,723,956.9,698,938.8C672.4,920.1,771,615,771,615S511.9,426.1,521.7,396c9.8-30.2,330.5-30.6,330.5-30.6
				S943.4,86,979,62.1z"/>
		</g>
		<g id="tried2" transform="matrix(0.976856,0.213898,-0.213898,0.976856,294.37,-160.358)" serif:id="tried">
			<path class="st1" d="M817.3,71c1.6-1.1,3.2-1.7,4.6-1.7c31.7,0,131.3,304.8,131.3,304.8s320.7,0.5,330.5,30.6
				c9.8,30.2-249.3,219-249.3,219s98.6,305.1,73,323.8C1081.7,966.1,822,778.1,822,778.1s0.9-0.7,0,0c17.5-55.8,26.1-62.6,47.8-141
				L780.6,558l85.2-80.1l-76.1-93.3l45.6-73L817.3,71z"/>
		</g>
	</g>
</g>
</svg>
