<svg xmlns="http://www.w3.org/2000/svg" viewBox="0 0 2000 2000" style="enable-background:new 0 0 2000 2000" xml:space="preserve"><path d="M984 145.7h0l32.4 437.5-82.9 132.7 138.4 169.6L917 1031.2l162.2 143.8c-39.2 142.8-56 155.6-87.8 257.1h0c-22.9 16.6-472.6 340.4-518.1 307.5-46.7-33.9 132.7-588.7 132.7-588.7s-471.3-343.3-453.5-398c17.9-54.9 600.9-55.6 600.9-55.6S919.1 189.2 984 145.7zm0 0h0" style="fill-rule:evenodd;clip-rule:evenodd;fill:#8c8c8c;stroke:#000;stroke-width:120;stroke-linecap:round;stroke-linejoin:round;stroke-miterlimit:10" transform="translate(-76.995 -7.512)"/><path d="M985.5 144.2c2.9-2 5.9-3.1 8.4-3.1 57.7 0 238.8 554.2 238.8 554.2s583.2.9 600.9 55.6c17.9 54.9-453.3 398.2-453.3 398.2s179.3 554.8 132.7 588.7c-46.9 34-519.1-308-519.1-308s1.7-1.3 0 0c31.8-101.5 47.4-113.8 86.9-256.4l-162.2-143.8 155-145.7-138.4-169.6 82.9-132.7-32.6-437.4z" style="fill:none;stroke:#000;stroke-width:120;stroke-linecap:round;stroke-linejoin:round;stroke-miterlimit:10" transform="rotate(12.351 888.203 1280.112)"/></svg>