<?xml version="1.0" encoding="UTF-8"?>
<svg id="Ebene_1" data-name="Ebene 1" xmlns="http://www.w3.org/2000/svg" viewBox="0 0 2000 2000">
  <defs>
    <style>
      .cls-1 {
        fill: #172d4d;
      }
    </style>
  </defs>
  <path class="cls-1" d="m1973.73,1963.06c-56.23-20.47-102.38-47.69-137.17-80.9-60.62-57.85-65.67-114-65.85-116.36-.04-.47-.05-.93-.05-1.4.05-11.9,4.96-1193.05,0-1479.1-1.47-84.71-30.03-149.6-84.89-192.86-82.92-65.39-200.2-60.09-201.37-60.03-.48.02-1.01.04-1.48.04l-1469.91-.16c16.51,8.33,32.81,18.4,48.25,30.53,64.9,50.98,98.65,125.63,100.31,221.9,4.88,282.11-1.98,1431.05-2.26,1476.99,1.12,6.44,10.57,51.65,59.76,97.4,70.93,65.95,192.33,103.51,351.08,108.63h0s1416.85-.01,1416.85-.01c-4.48-1.5-8.92-3.06-13.27-4.65Zm-443.59-794.97c0,13.63-12.98,24.67-29,24.67H424.58c-16.02,0-29-11.04-29-24.67s12.98-24.67,29-24.67h1076.57c16.02,0,29,11.04,29,24.67ZM395.58,840.72c0-13.63,12.98-24.67,29-24.67h1076.57c16.02,0,29,11.04,29,24.67s-12.98,24.67-29,24.67H424.58c-16.02,0-29-11.04-29-24.67Zm0-327.38c0-13.63,12.98-24.67,29-24.67h1076.57c16.02,0,29,11.04,29,24.67s-12.98,24.67-29,24.67H424.58c-16.02,0-29-11.04-29-24.67Zm1105.56,1006.81H424.58c-16.02,0-29-11.04-29-24.67s12.98-24.67,29-24.67h1076.57c16.02,0,29,11.04,29,24.67s-12.98,24.67-29,24.67Z"/>
</svg>