<svg viewBox="0 0 2000 2000" xmlns="http://www.w3.org/2000/svg" xml:space="preserve" style="fill-rule:evenodd;clip-rule:evenodd;stroke-linecap:round;stroke-linejoin:round;stroke-miterlimit:1.5">
    <path style="fill:none" d="M8832.33 0h2000v2000h-2000z" transform="translate(-8832.33)"/>
    <path d="M424 353s134.794-10.921 137 175c2.206 185.921-1 949-1 949s11.044 135.98 191 144.33h729c-182.96-12.35-190-143.33-190-143.33s2.21-764.079 0-950c-2.21-185.921-137-175-137-175l-729-.121" style="fill:#449fe4;stroke:#fff;stroke-width:36.26px" transform="matrix(1.763 0 0 1.43797 -678.375 -408.156)"/>
    <path d="M661 567h233" style="fill:none;stroke:#fff;stroke-width:25.9px" transform="matrix(2.12596 0 0 1.71283 -993.537 -636.881)"/>
    <path d="M661 567h233" style="fill:none;stroke:#fff;stroke-width:25.9px" transform="matrix(2.12596 0 0 1.71283 -993.537 -159.014)"/>
    <path d="M661 567h233" style="fill:none;stroke:#fff;stroke-width:128.4px" transform="matrix(.42884 0 0 .3455 685.255 616.26)"/>
    <path d="M661 567h233" style="fill:none;stroke:#fff;stroke-width:94.24px" transform="matrix(.66607 0 0 .3455 690.02 616.26)"/>
    <path d="M661 567h233" style="fill:none;stroke:#fff;stroke-width:94.24px" transform="matrix(.66607 0 0 .3455 906.867 616.26)"/>
    <path d="M661 567h233" style="fill:none;stroke:#fff;stroke-width:25.9px" transform="matrix(2.12596 0 0 1.71283 -993.537 318.853)"/>
    <path d="M661 567h233" style="fill:none;stroke:#fff;stroke-width:128.4px" transform="matrix(.42884 0 0 .3455 685.255 1094.128)"/>
    <path d="M661 567h233" style="fill:none;stroke:#fff;stroke-width:94.24px" transform="matrix(.66607 0 0 .3455 690.02 1094.128)"/>
    <path d="M661 567h233" style="fill:none;stroke:#fff;stroke-width:94.24px" transform="matrix(.66607 0 0 .3455 906.867 1094.128)"/>
    <path d="M661 567h233" style="fill:none;stroke:#fff;stroke-width:25.9px" transform="matrix(2.12596 0 0 1.71283 -814.066 -318.303)"/>
    <path d="M661 567h233" style="fill:none;stroke:#fff;stroke-width:128.4px" transform="matrix(.42884 0 0 .3455 884.204 456.972)"/>
    <path d="M661 567h233" style="fill:none;stroke:#fff;stroke-width:128.4px" transform="matrix(.42884 0 0 .3455 126.676 456.972)"/>
    <path d="M661 567h233" style="fill:none;stroke:#fff;stroke-width:94.24px" transform="matrix(.66607 0 0 .3455 908.447 456.972)"/>
    <path d="M661 567h233" style="fill:none;stroke:#fff;stroke-width:25.9px" transform="matrix(2.12596 0 0 1.71283 -814.066 159.563)"/>
    <path d="M661 567h233" style="fill:none;stroke:#fff;stroke-width:128.4px" transform="matrix(.42884 0 0 .3455 884.204 934.837)"/>
    <path d="M661 567h233" style="fill:none;stroke:#fff;stroke-width:128.4px" transform="matrix(.42884 0 0 .3455 126.676 934.837)"/>
    <path d="M661 567h233" style="fill:none;stroke:#fff;stroke-width:94.24px" transform="matrix(.66607 0 0 .3455 908.447 934.837)"/>
    <path d="M661 567h233" style="fill:none;stroke:#fff;stroke-width:25.9px" transform="matrix(2.12596 0 0 1.71283 -814.066 637.43)"/>
    <path d="M661 567h233" style="fill:none;stroke:#fff;stroke-width:128.4px" transform="matrix(.42884 0 0 .3455 884.204 1412.704)"/>
    <path d="M661 567h233" style="fill:none;stroke:#fff;stroke-width:128.4px" transform="matrix(.42884 0 0 .3455 126.676 1412.704)"/>
    <path d="M661 567h233" style="fill:none;stroke:#fff;stroke-width:94.24px" transform="matrix(.66607 0 0 .3455 908.447 1412.704)"/>
    <path d="M661 567h233" style="fill:none;stroke:#fff;stroke-width:128.4px" transform="matrix(.42884 0 0 .3455 673.07 297.682)"/>
    <path d="M661 567h233" style="fill:none;stroke:#fff;stroke-width:128.4px" transform="matrix(.42884 0 0 .3455 830.434 297.682)"/>
    <path d="M661 567h233" style="fill:none;stroke:#fff;stroke-width:94.24px" transform="matrix(.66607 0 0 .3455 -29.064 297.682)"/>
    <path d="M661 567h233" style="fill:none;stroke:#fff;stroke-width:94.24px" transform="matrix(.66607 0 0 .3455 277.7 297.682)"/>
    <path d="M661 567h233" style="fill:none;stroke:#fff;stroke-width:94.24px" transform="matrix(.66607 0 0 .3455 907.376 297.682)"/>
    <path d="M661 567h233" style="fill:none;stroke:#fff;stroke-width:128.4px" transform="matrix(.42884 0 0 .3455 673.07 775.547)"/>
    <path d="M661 567h233" style="fill:none;stroke:#fff;stroke-width:128.4px" transform="matrix(.42884 0 0 .3455 830.434 775.547)"/>
    <path d="M661 567h233" style="fill:none;stroke:#fff;stroke-width:94.24px" transform="matrix(.66607 0 0 .3455 -29.064 775.547)"/>
    <path d="M661 567h233" style="fill:none;stroke:#fff;stroke-width:94.24px" transform="matrix(.66607 0 0 .3455 277.7 775.547)"/>
    <path d="M661 567h233" style="fill:none;stroke:#fff;stroke-width:94.24px" transform="matrix(.66607 0 0 .3455 907.376 775.547)"/>
    <path d="M661 567h233" style="fill:none;stroke:#fff;stroke-width:128.4px" transform="matrix(.42884 0 0 .3455 673.07 1253.414)"/>
    <path d="M661 567h233" style="fill:none;stroke:#fff;stroke-width:128.4px" transform="matrix(.42884 0 0 .3455 830.434 1253.414)"/>
    <path d="M661 567h233" style="fill:none;stroke:#fff;stroke-width:94.24px" transform="matrix(.66607 0 0 .3455 -29.064 1253.414)"/>
    <path d="M661 567h233" style="fill:none;stroke:#fff;stroke-width:94.24px" transform="matrix(.66607 0 0 .3455 277.7 1253.414)"/>
    <path d="M661 567h233" style="fill:none;stroke:#fff;stroke-width:94.24px" transform="matrix(.66607 0 0 .3455 907.376 1253.414)"/>
</svg>
