<svg viewBox="0 0 2000 2000" xmlns="http://www.w3.org/2000/svg" xml:space="preserve" style="fill-rule:evenodd;clip-rule:evenodd;stroke-linecap:round;stroke-linejoin:round;stroke-miterlimit:1.5">
    <path style="fill:none" d="M11040.3 0h2000v2000h-2000z" transform="translate(-11040.33)"/>
    <path d="M1399 457.84c0-25.3-15.18-45.84-33.88-45.84H585.88c-18.699 0-33.88 20.54-33.88 45.84v1054.32c0 25.3 15.181 45.84 33.88 45.84h779.24c18.7 0 33.88-20.54 33.88-45.84V457.84Z" style="fill:#e6e6e6" transform="matrix(2.36128 0 0 1.7452 -1303.42 -719.023)"/>
    <path d="M424 353s134.794-10.921 137 175c2.206 185.921-1 949-1 949s11.044 135.98 191 144.33h729c-182.96-12.35-190-143.33-190-143.33s2.21-764.079 0-950c-2.21-185.921-137-175-137-175l-729-.121" style="fill:#ffb66d;stroke:#fff;stroke-width:36.27px" transform="matrix(1.7627 0 0 1.43773 -678.05 -408.07)"/>
    <path d="M661 567h233" style="fill:none;stroke:#fff;stroke-width:25.9px" transform="matrix(2.1256 0 0 1.71254 -987.252 -636.755)"/>
    <path d="M661 567h233" style="fill:none;stroke:#fff;stroke-width:25.9px" transform="matrix(2.1256 0 0 1.71254 -987.252 -158.97)"/>
    <path d="M661 567h233" style="fill:none;stroke:#fff;stroke-width:128.42px" transform="matrix(.42877 0 0 .34545 691.255 616.172)"/>
    <path d="M661 567h233" style="fill:none;stroke:#fff;stroke-width:94.25px" transform="matrix(.66596 0 0 .34545 696.018 616.172)"/>
    <path d="M661 567h233" style="fill:none;stroke:#fff;stroke-width:94.25px" transform="matrix(.66596 0 0 .34545 912.829 616.172)"/>
    <path d="M661 567h233" style="fill:none;stroke:#fff;stroke-width:25.9px" transform="matrix(2.1256 0 0 1.71254 -987.252 318.815)"/>
    <path d="M661 567h233" style="fill:none;stroke:#fff;stroke-width:128.42px" transform="matrix(.42877 0 0 .34545 691.255 1093.957)"/>
    <path d="M661 567h233" style="fill:none;stroke:#fff;stroke-width:94.25px" transform="matrix(.66596 0 0 .34545 696.018 1093.957)"/>
    <path d="M661 567h233" style="fill:none;stroke:#fff;stroke-width:94.25px" transform="matrix(.66596 0 0 .34545 912.829 1093.957)"/>
    <path d="M661 567h233" style="fill:none;stroke:#fff;stroke-width:25.9px" transform="matrix(2.1256 0 0 1.71254 -807.811 -318.231)"/>
    <path d="M661 567h233" style="fill:none;stroke:#fff;stroke-width:128.42px" transform="matrix(.42877 0 0 .34545 890.17 456.911)"/>
    <path d="M661 567h233" style="fill:none;stroke:#fff;stroke-width:128.42px" transform="matrix(.42877 0 0 .34545 132.77 456.911)"/>
    <path d="M661 567h233" style="fill:none;stroke:#fff;stroke-width:94.25px" transform="matrix(.66596 0 0 .34545 914.408 456.911)"/>
    <path d="M661 567h233" style="fill:none;stroke:#fff;stroke-width:25.9px" transform="matrix(2.1256 0 0 1.71254 -807.811 159.552)"/>
    <path d="M661 567h233" style="fill:none;stroke:#fff;stroke-width:128.42px" transform="matrix(.42877 0 0 .34545 890.17 934.695)"/>
    <path d="M661 567h233" style="fill:none;stroke:#fff;stroke-width:128.42px" transform="matrix(.42877 0 0 .34545 132.77 934.695)"/>
    <path d="M661 567h233" style="fill:none;stroke:#fff;stroke-width:94.25px" transform="matrix(.66596 0 0 .34545 914.408 934.695)"/>
    <path d="M661 567h233" style="fill:none;stroke:#fff;stroke-width:25.9px" transform="matrix(2.1256 0 0 1.71254 -807.811 637.337)"/>
    <path d="M661 567h233" style="fill:none;stroke:#fff;stroke-width:128.42px" transform="matrix(.42877 0 0 .34545 890.17 1412.48)"/>
    <path d="M661 567h233" style="fill:none;stroke:#fff;stroke-width:128.42px" transform="matrix(.42877 0 0 .34545 132.77 1412.48)"/>
    <path d="M661 567h233" style="fill:none;stroke:#fff;stroke-width:94.25px" transform="matrix(.66596 0 0 .34545 914.408 1412.48)"/>
    <path d="M661 567h233" style="fill:none;stroke:#fff;stroke-width:128.42px" transform="matrix(.42877 0 0 .34545 679.072 297.648)"/>
    <path d="M661 567h233" style="fill:none;stroke:#fff;stroke-width:128.42px" transform="matrix(.42877 0 0 .34545 836.408 297.648)"/>
    <path d="M661 567h233" style="fill:none;stroke:#fff;stroke-width:94.25px" transform="matrix(.66596 0 0 .34545 -22.944 297.648)"/>
    <path d="M661 567h233" style="fill:none;stroke:#fff;stroke-width:94.25px" transform="matrix(.66596 0 0 .34545 283.769 297.648)"/>
    <path d="M661 567h233" style="fill:none;stroke:#fff;stroke-width:94.25px" transform="matrix(.66596 0 0 .34545 913.338 297.648)"/>
    <path d="M661 567h233" style="fill:none;stroke:#fff;stroke-width:128.42px" transform="matrix(.42877 0 0 .34545 679.072 775.432)"/>
    <path d="M661 567h233" style="fill:none;stroke:#fff;stroke-width:128.42px" transform="matrix(.42877 0 0 .34545 836.408 775.432)"/>
    <path d="M661 567h233" style="fill:none;stroke:#fff;stroke-width:94.25px" transform="matrix(.66596 0 0 .34545 -22.944 775.432)"/>
    <path d="M661 567h233" style="fill:none;stroke:#fff;stroke-width:94.25px" transform="matrix(.66596 0 0 .34545 283.769 775.432)"/>
    <path d="M661 567h233" style="fill:none;stroke:#fff;stroke-width:94.25px" transform="matrix(.66596 0 0 .34545 913.338 775.432)"/>
    <path d="M661 567h233" style="fill:none;stroke:#fff;stroke-width:128.42px" transform="matrix(.42877 0 0 .34545 679.072 1253.217)"/>
    <path d="M661 567h233" style="fill:none;stroke:#fff;stroke-width:128.42px" transform="matrix(.42877 0 0 .34545 836.408 1253.217)"/>
    <path d="M661 567h233" style="fill:none;stroke:#fff;stroke-width:94.25px" transform="matrix(.66596 0 0 .34545 -22.944 1253.217)"/>
    <path d="M661 567h233" style="fill:none;stroke:#fff;stroke-width:94.25px" transform="matrix(.66596 0 0 .34545 283.769 1253.217)"/>
    <path d="M661 567h233" style="fill:none;stroke:#fff;stroke-width:94.25px" transform="matrix(.66596 0 0 .34545 913.338 1253.217)"/>
</svg>
