<svg id="Ebene_1" data-name="Ebene 1" xmlns="http://www.w3.org/2000/svg" viewBox="0 0 2000 2000">
    <defs>
        <style>
            .cls-1{fill:#fff}
        </style>
    </defs>
    <path d="M69.28 99.45s237.61-15.51 241.5 248.53c3.89 264.04-1.76 1347.76-1.76 1347.76s19.47 193.12 336.68 204.98h1285.03c-322.51-17.54-334.92-203.56-334.92-203.56s3.9-1085.14 0-1349.18c-3.9-264.04-241.5-248.53-241.5-248.53L69.27 99.28" style="fill:#172d4d;fill-rule:evenodd"/>
    <path class="cls-1" d="M1930.73 1918.94H645.69c-.23 0-.45 0-.68-.01-74.59-2.79-139.48-15.73-192.89-38.47-43.56-18.55-79.66-43.62-107.31-74.52-47.92-53.57-53.71-106.15-53.93-108.36-.06-.64-.1-1.28-.09-1.92.06-10.84 5.61-1086.56 1.76-1347.4-1.14-77.25-23.3-136.43-65.86-175.88-64.34-59.63-155.35-54.8-156.27-54.74-9.73.59-18.16-6.56-19.24-16.14-.09-.73-.13-1.47-.13-2.22 0-10.06 8.16-18.22 18.22-18.22h5.02c1.6-.02 3.48-.03 5.61 0l1273.88.17c9.88-.53 108.64-3.95 182.38 64.12 50.36 46.49 76.56 114.57 77.85 202.36 3.81 257.95.13 1312.09 0 1348.63.55 4.91 6.11 44.81 43.66 85.86 53.8 58.81 148.56 93.51 274.02 100.33 9.86.54 17.49 8.82 17.22 18.69-.27 9.87-8.34 17.72-18.21 17.72ZM646.04 1882.5h1099.43c-3.48-1.37-6.92-2.79-10.3-4.24-43.63-18.67-79.44-43.49-106.44-73.78-47.04-52.76-50.96-103.96-51.1-106.11-.03-.43-.04-.85-.04-1.28.04-10.85 3.85-1087.99 0-1348.85-1.14-77.25-23.3-136.43-65.87-175.88-64.34-59.63-155.35-54.8-156.26-54.74-.37.02-.78.04-1.15.04l-1140.6-.15c12.81 7.6 25.46 16.78 37.44 27.84 50.36 46.49 76.55 114.57 77.84 202.36 3.79 257.27-1.54 1305.03-1.75 1346.92.87 5.87 8.2 47.1 46.37 88.82 55.04 60.14 149.24 94.39 272.43 99.06Z"/>
    <path class="cls-1" d="M1368.46 1026.53H533.08c-12.43 0-22.5-10.07-22.5-22.5s10.07-22.5 22.5-22.5h835.38c12.43 0 22.5 10.07 22.5 22.5s-10.07 22.5-22.5 22.5ZM1368.46 877.25H533.08c-12.43 0-22.5-10.07-22.5-22.5s10.07-22.5 22.5-22.5h835.38c12.43 0 22.5 10.07 22.5 22.5s-10.07 22.5-22.5 22.5ZM1368.46 727.97H533.08c-12.43 0-22.5-10.07-22.5-22.5s10.07-22.5 22.5-22.5h835.38c12.43 0 22.5 10.07 22.5 22.5s-10.07 22.5-22.5 22.5ZM1368.46 578.7H533.08c-12.43 0-22.5-10.07-22.5-22.5s10.07-22.5 22.5-22.5h835.38c12.43 0 22.5 10.07 22.5 22.5s-10.07 22.5-22.5 22.5ZM1368.46 429.42H533.08c-12.43 0-22.5-10.07-22.5-22.5s10.07-22.5 22.5-22.5h835.38c12.43 0 22.5 10.07 22.5 22.5s-10.07 22.5-22.5 22.5ZM1368.46 1175.8H533.08c-12.43 0-22.5-10.07-22.5-22.5s10.07-22.5 22.5-22.5h835.38c12.43 0 22.5 10.07 22.5 22.5s-10.07 22.5-22.5 22.5ZM1368.46 1325.08H533.08c-12.43 0-22.5-10.07-22.5-22.5s10.07-22.5 22.5-22.5h835.38c12.43 0 22.5 10.07 22.5 22.5s-10.07 22.5-22.5 22.5ZM1368.46 1474.35H533.08c-12.43 0-22.5-10.07-22.5-22.5s10.07-22.5 22.5-22.5h835.38c12.43 0 22.5 10.07 22.5 22.5s-10.07 22.5-22.5 22.5Z"/>
</svg>
