<svg viewBox="0 0 2000 2000" xmlns="http://www.w3.org/2000/svg" xml:space="preserve" style="fill-rule:evenodd;clip-rule:evenodd;stroke-linecap:round;stroke-linejoin:round;stroke-miterlimit:1.5">
    <path style="fill:none" d="M6624.33 0h2000v2000h-2000z" transform="translate(-6624.33)"/>
    <path d="M1399 457.84c0-25.3-15.18-45.84-33.88-45.84H585.88c-18.699 0-33.88 20.54-33.88 45.84v1054.32c0 25.3 15.181 45.84 33.88 45.84h779.24c18.7 0 33.88-20.54 33.88-45.84V457.84Z" style="fill:#e6e6e6" transform="matrix(2.36128 0 0 1.7452 -1303.42 -719.023)"/>
    <path d="M424 353s134.794-10.921 137 175c2.206 185.921-1 949-1 949s11.044 135.98 191 144.33h729c-182.96-12.35-190-143.33-190-143.33s2.21-764.079 0-950c-2.21-185.921-137-175-137-175l-729-.121" style="fill:#172d4f;stroke:#fff;stroke-width:36.44px" transform="matrix(1.76274 0 0 1.4202 -678.122 -401.882)"/>
    <path d="M661 567h233" style="fill:none;stroke:#fff;stroke-width:26.22px" transform="matrix(2.09967 0 0 1.69165 -969.008 -627.779)"/>
    <path d="M661 567h233" style="fill:none;stroke:#fff;stroke-width:26.22px" transform="matrix(2.09967 0 0 1.69165 -969.008 -155.82)"/>
    <path d="M661 567h233" style="fill:none;stroke:#fff;stroke-width:130.01px" transform="matrix(.42354 0 0 .34124 689.03 609.868)"/>
    <path d="M661 567h233" style="fill:none;stroke:#fff;stroke-width:95.42px" transform="matrix(.65784 0 0 .34124 693.736 609.868)"/>
    <path d="M661 567h233" style="fill:none;stroke:#fff;stroke-width:95.42px" transform="matrix(.65784 0 0 .34124 907.903 609.868)"/>
    <path d="M661 567h233" style="fill:none;stroke:#fff;stroke-width:26.22px" transform="matrix(2.09967 0 0 1.69165 -969.008 316.138)"/>
    <path d="M661 567h233" style="fill:none;stroke:#fff;stroke-width:130.01px" transform="matrix(.42354 0 0 .34124 689.03 1081.826)"/>
    <path d="M661 567h233" style="fill:none;stroke:#fff;stroke-width:95.42px" transform="matrix(.65784 0 0 .34124 693.736 1081.826)"/>
    <path d="M661 567h233" style="fill:none;stroke:#fff;stroke-width:95.42px" transform="matrix(.65784 0 0 .34124 907.903 1081.826)"/>
    <path d="M661 567h233" style="fill:none;stroke:#fff;stroke-width:26.22px" transform="matrix(2.09967 0 0 1.69165 -791.756 -313.14)"/>
    <path d="M661 567h233" style="fill:none;stroke:#fff;stroke-width:130.01px" transform="matrix(.42354 0 0 .34124 885.52 452.55)"/>
    <path d="M661 567h233" style="fill:none;stroke:#fff;stroke-width:130.01px" transform="matrix(.42354 0 0 .34124 137.356 452.55)"/>
    <path d="M661 567h233" style="fill:none;stroke:#fff;stroke-width:95.42px" transform="matrix(.65784 0 0 .34124 909.463 452.55)"/>
    <path d="M661 567h233" style="fill:none;stroke:#fff;stroke-width:26.22px" transform="matrix(2.09967 0 0 1.69165 -791.756 158.817)"/>
    <path d="M661 567h233" style="fill:none;stroke:#fff;stroke-width:130.01px" transform="matrix(.42354 0 0 .34124 885.52 924.506)"/>
    <path d="M661 567h233" style="fill:none;stroke:#fff;stroke-width:130.01px" transform="matrix(.42354 0 0 .34124 137.356 924.506)"/>
    <path d="M661 567h233" style="fill:none;stroke:#fff;stroke-width:95.42px" transform="matrix(.65784 0 0 .34124 909.463 924.506)"/>
    <path d="M661 567h233" style="fill:none;stroke:#fff;stroke-width:26.22px" transform="matrix(2.09967 0 0 1.69165 -791.756 630.775)"/>
    <path d="M661 567h233" style="fill:none;stroke:#fff;stroke-width:130.01px" transform="matrix(.42354 0 0 .34124 885.52 1396.464)"/>
    <path d="M661 567h233" style="fill:none;stroke:#fff;stroke-width:130.01px" transform="matrix(.42354 0 0 .34124 137.356 1396.464)"/>
    <path d="M661 567h233" style="fill:none;stroke:#fff;stroke-width:95.42px" transform="matrix(.65784 0 0 .34124 909.463 1396.464)"/>
    <path d="M661 567h233" style="fill:none;stroke:#fff;stroke-width:130.01px" transform="matrix(.42354 0 0 .34124 676.996 295.228)"/>
    <path d="M661 567h233" style="fill:none;stroke:#fff;stroke-width:130.01px" transform="matrix(.42354 0 0 .34124 832.414 295.228)"/>
    <path d="M661 567h233" style="fill:none;stroke:#fff;stroke-width:95.42px" transform="matrix(.65784 0 0 .34124 -16.458 295.228)"/>
    <path d="M661 567h233" style="fill:none;stroke:#fff;stroke-width:95.42px" transform="matrix(.65784 0 0 .34124 286.514 295.228)"/>
    <path d="M661 567h233" style="fill:none;stroke:#fff;stroke-width:95.42px" transform="matrix(.65784 0 0 .34124 908.406 295.228)"/>
    <path d="M661 567h233" style="fill:none;stroke:#fff;stroke-width:130.01px" transform="matrix(.42354 0 0 .34124 676.996 767.185)"/>
    <path d="M661 567h233" style="fill:none;stroke:#fff;stroke-width:130.01px" transform="matrix(.42354 0 0 .34124 832.414 767.185)"/>
    <path d="M661 567h233" style="fill:none;stroke:#fff;stroke-width:95.42px" transform="matrix(.65784 0 0 .34124 -16.458 767.185)"/>
    <path d="M661 567h233" style="fill:none;stroke:#fff;stroke-width:95.42px" transform="matrix(.65784 0 0 .34124 286.514 767.185)"/>
    <path d="M661 567h233" style="fill:none;stroke:#fff;stroke-width:95.42px" transform="matrix(.65784 0 0 .34124 908.406 767.185)"/>
    <path d="M661 567h233" style="fill:none;stroke:#fff;stroke-width:130.01px" transform="matrix(.42354 0 0 .34124 676.996 1239.143)"/>
    <path d="M661 567h233" style="fill:none;stroke:#fff;stroke-width:130.01px" transform="matrix(.42354 0 0 .34124 832.414 1239.143)"/>
    <path d="M661 567h233" style="fill:none;stroke:#fff;stroke-width:95.42px" transform="matrix(.65784 0 0 .34124 -16.458 1239.143)"/>
    <path d="M661 567h233" style="fill:none;stroke:#fff;stroke-width:95.42px" transform="matrix(.65784 0 0 .34124 286.514 1239.143)"/>
    <path d="M661 567h233" style="fill:none;stroke:#fff;stroke-width:95.42px" transform="matrix(.65784 0 0 .34124 908.406 1239.143)"/>
</svg>
