<?xml version="1.0" encoding="UTF-8" standalone="no"?>
<!DOCTYPE svg PUBLIC "-//W3C//DTD SVG 1.1//EN" "http://www.w3.org/Graphics/SVG/1.1/DTD/svg11.dtd">
<svg width="100%" height="100%" viewBox="0 0 2000 2000" version="1.1" xmlns="http://www.w3.org/2000/svg" xmlns:xlink="http://www.w3.org/1999/xlink" xml:space="preserve" xmlns:serif="http://www.serif.com/" style="fill-rule:evenodd;clip-rule:evenodd;stroke-linecap:round;stroke-linejoin:round;stroke-miterlimit:1.5;">
    <g transform="matrix(1,0,0,1,-4416,-2289)">
        <g id="Pergament_gold_text-icon" transform="matrix(1,0,0,1,-6624.33,2289)">
            <rect x="11040.3" y="0" width="2000" height="2000" style="fill:none;"/>
            <g transform="matrix(2.36128,0,0,1.7452,9736.91,-719.023)">
                <path d="M1399,457.84C1399,432.54 1383.82,412 1365.12,412L585.88,412C567.181,412 552,432.54 552,457.84L552,1512.16C552,1537.46 567.181,1558 585.88,1558L1365.12,1558C1383.82,1558 1399,1537.46 1399,1512.16L1399,457.84Z" style="fill:rgb(230,230,230);"/>
            </g>
            <g id="Pergament_gold_text-icon1" serif:id="Pergament_gold_text-icon" transform="matrix(1.17527,0,0,0.958601,10865.1,52.5193)">
                <g transform="matrix(1.49982,0,0,1.49982,-427.833,-480.48)">
                    <path d="M424,353C424,353 558.794,342.079 561,528C563.206,713.921 560,1477 560,1477C560,1477 571.044,1612.98 751,1621.33L1480,1621.33C1297.04,1608.98 1290,1478 1290,1478C1290,1478 1292.21,713.921 1290,528C1287.79,342.079 1153,353 1153,353L424,352.879" style="fill:rgb(255,182,109);stroke:white;stroke-width:36.27px;"/>
                </g>
                <g id="Text" transform="matrix(1.8086,0,0,1.7865,-685.561,-719.042)">
                    <g transform="matrix(1,0,0,1,-2.96512,0)">
                        <path d="M661,567L894,567" style="fill:none;stroke:white;stroke-width:25.9px;"/>
                    </g>
                    <g transform="matrix(1,0,0,1,-2.96512,278.992)">
                        <path d="M661,567L894,567" style="fill:none;stroke:white;stroke-width:25.9px;"/>
                        <g transform="matrix(0.201717,0,0,0.201717,789.665,452.627)">
                            <path d="M661,567L894,567" style="fill:none;stroke:white;stroke-width:128.42px;"/>
                        </g>
                        <g transform="matrix(0.313305,0,0,0.201717,791.906,452.627)">
                            <path d="M661,567L894,567" style="fill:none;stroke:white;stroke-width:94.25px;"/>
                        </g>
                        <g transform="matrix(0.313305,0,0,0.201717,893.906,452.627)">
                            <path d="M661,567L894,567" style="fill:none;stroke:white;stroke-width:94.25px;"/>
                        </g>
                    </g>
                    <g transform="matrix(1,0,0,1,-2.96512,557.984)">
                        <path d="M661,567L894,567" style="fill:none;stroke:white;stroke-width:25.9px;"/>
                        <g transform="matrix(0.201717,0,0,0.201717,789.665,452.627)">
                            <path d="M661,567L894,567" style="fill:none;stroke:white;stroke-width:128.42px;"/>
                        </g>
                        <g transform="matrix(0.313305,0,0,0.201717,791.906,452.627)">
                            <path d="M661,567L894,567" style="fill:none;stroke:white;stroke-width:94.25px;"/>
                        </g>
                        <g transform="matrix(0.313305,0,0,0.201717,893.906,452.627)">
                            <path d="M661,567L894,567" style="fill:none;stroke:white;stroke-width:94.25px;"/>
                        </g>
                    </g>
                    <g transform="matrix(1,0,0,1,-2.46512,146.681)">
                        <g transform="matrix(1,0,0,1,83.919,39.3139)">
                            <path d="M661,567L894,567" style="fill:none;stroke:white;stroke-width:25.9px;"/>
                        </g>
                        <g transform="matrix(0.201717,0,0,0.201717,882.746,491.941)">
                            <path d="M661,567L894,567" style="fill:none;stroke:white;stroke-width:128.42px;"/>
                        </g>
                        <g transform="matrix(0.201717,0,0,0.201717,526.422,491.941)">
                            <path d="M661,567L894,567" style="fill:none;stroke:white;stroke-width:128.42px;"/>
                        </g>
                        <g transform="matrix(0.313305,0,0,0.201717,894.149,491.941)">
                            <path d="M661,567L894,567" style="fill:none;stroke:white;stroke-width:94.25px;"/>
                        </g>
                    </g>
                    <g transform="matrix(1,0,0,1,-2.46512,425.672)">
                        <g transform="matrix(1,0,0,1,83.919,39.3139)">
                            <path d="M661,567L894,567" style="fill:none;stroke:white;stroke-width:25.9px;"/>
                        </g>
                        <g transform="matrix(0.201717,0,0,0.201717,882.746,491.941)">
                            <path d="M661,567L894,567" style="fill:none;stroke:white;stroke-width:128.42px;"/>
                        </g>
                        <g transform="matrix(0.201717,0,0,0.201717,526.422,491.941)">
                            <path d="M661,567L894,567" style="fill:none;stroke:white;stroke-width:128.42px;"/>
                        </g>
                        <g transform="matrix(0.313305,0,0,0.201717,894.149,491.941)">
                            <path d="M661,567L894,567" style="fill:none;stroke:white;stroke-width:94.25px;"/>
                        </g>
                    </g>
                    <g transform="matrix(1,0,0,1,-2.46512,704.664)">
                        <g transform="matrix(1,0,0,1,83.919,39.3139)">
                            <path d="M661,567L894,567" style="fill:none;stroke:white;stroke-width:25.9px;"/>
                        </g>
                        <g transform="matrix(0.201717,0,0,0.201717,882.746,491.941)">
                            <path d="M661,567L894,567" style="fill:none;stroke:white;stroke-width:128.42px;"/>
                        </g>
                        <g transform="matrix(0.201717,0,0,0.201717,526.422,491.941)">
                            <path d="M661,567L894,567" style="fill:none;stroke:white;stroke-width:128.42px;"/>
                        </g>
                        <g transform="matrix(0.313305,0,0,0.201717,894.149,491.941)">
                            <path d="M661,567L894,567" style="fill:none;stroke:white;stroke-width:94.25px;"/>
                        </g>
                    </g>
                    <g transform="matrix(1,0,0,1,-2.55561,4.62662)">
                        <g transform="matrix(0.201717,0,0,0.201717,783.524,540.997)">
                            <path d="M661,567L894,567" style="fill:none;stroke:white;stroke-width:128.42px;"/>
                        </g>
                        <g transform="matrix(0.201717,0,0,0.201717,857.544,540.997)">
                            <path d="M661,567L894,567" style="fill:none;stroke:white;stroke-width:128.42px;"/>
                        </g>
                        <g transform="matrix(0.313305,0,0,0.201717,453.256,540.997)">
                            <path d="M661,567L894,567" style="fill:none;stroke:white;stroke-width:94.25px;"/>
                        </g>
                        <g transform="matrix(0.313305,0,0,0.201717,597.551,540.997)">
                            <path d="M661,567L894,567" style="fill:none;stroke:white;stroke-width:94.25px;"/>
                        </g>
                        <g transform="matrix(0.313305,0,0,0.201717,893.736,540.997)">
                            <path d="M661,567L894,567" style="fill:none;stroke:white;stroke-width:94.25px;"/>
                        </g>
                    </g>
                    <g transform="matrix(1,0,0,1,-2.55561,283.618)">
                        <g transform="matrix(0.201717,0,0,0.201717,783.524,540.997)">
                            <path d="M661,567L894,567" style="fill:none;stroke:white;stroke-width:128.42px;"/>
                        </g>
                        <g transform="matrix(0.201717,0,0,0.201717,857.544,540.997)">
                            <path d="M661,567L894,567" style="fill:none;stroke:white;stroke-width:128.42px;"/>
                        </g>
                        <g transform="matrix(0.313305,0,0,0.201717,453.256,540.997)">
                            <path d="M661,567L894,567" style="fill:none;stroke:white;stroke-width:94.25px;"/>
                        </g>
                        <g transform="matrix(0.313305,0,0,0.201717,597.551,540.997)">
                            <path d="M661,567L894,567" style="fill:none;stroke:white;stroke-width:94.25px;"/>
                        </g>
                        <g transform="matrix(0.313305,0,0,0.201717,893.736,540.997)">
                            <path d="M661,567L894,567" style="fill:none;stroke:white;stroke-width:94.25px;"/>
                        </g>
                    </g>
                    <g transform="matrix(1,0,0,1,-2.55561,562.61)">
                        <g transform="matrix(0.201717,0,0,0.201717,783.524,540.997)">
                            <path d="M661,567L894,567" style="fill:none;stroke:white;stroke-width:128.42px;"/>
                        </g>
                        <g transform="matrix(0.201717,0,0,0.201717,857.544,540.997)">
                            <path d="M661,567L894,567" style="fill:none;stroke:white;stroke-width:128.42px;"/>
                        </g>
                        <g transform="matrix(0.313305,0,0,0.201717,453.256,540.997)">
                            <path d="M661,567L894,567" style="fill:none;stroke:white;stroke-width:94.25px;"/>
                        </g>
                        <g transform="matrix(0.313305,0,0,0.201717,597.551,540.997)">
                            <path d="M661,567L894,567" style="fill:none;stroke:white;stroke-width:94.25px;"/>
                        </g>
                        <g transform="matrix(0.313305,0,0,0.201717,893.736,540.997)">
                            <path d="M661,567L894,567" style="fill:none;stroke:white;stroke-width:94.25px;"/>
                        </g>
                    </g>
                </g>
            </g>
        </g>
    </g>
</svg>
