<?xml version="1.0" encoding="UTF-8" standalone="no"?>
<!DOCTYPE svg PUBLIC "-//W3C//DTD SVG 1.1//EN" "http://www.w3.org/Graphics/SVG/1.1/DTD/svg11.dtd">
<svg width="100%" height="100%" viewBox="0 0 2000 2000" version="1.1" xmlns="http://www.w3.org/2000/svg" xmlns:xlink="http://www.w3.org/1999/xlink" xml:space="preserve" xmlns:serif="http://www.serif.com/" style="fill-rule:evenodd;clip-rule:evenodd;stroke-linecap:round;stroke-linejoin:round;stroke-miterlimit:1.5;">
    <g id="screen_button-icon" transform="matrix(1,0,0,1,-2208.33,0)">
        <rect x="2208.33" y="0" width="2000" height="2000" style="fill:none;"/>
        <g id="Fernseher" transform="matrix(2.91267,0,0,2.91267,376.483,-1003.12)">
            <path d="M1066.94,950.354C1066.94,949.795 1066.49,949.341 1065.93,949.341L878.572,949.341C878.013,949.341 877.559,949.795 877.559,950.354L877.559,998.987C877.559,999.546 878.013,1000 878.572,1000L1065.93,1000C1066.49,1000 1066.94,999.546 1066.94,998.987L1066.94,950.354Z" style="fill:rgb(23,45,79);"/>
            <g transform="matrix(2.28388,0,0,0.487591,-1248.25,526.165)">
                <path d="M1066.94,956.94C1066.94,952.746 1066.22,949.341 1065.32,949.341L879.181,949.341C878.286,949.341 877.559,952.746 877.559,956.94L877.559,992.401C877.559,996.595 878.286,1000 879.181,1000L1065.32,1000C1066.22,1000 1066.94,996.595 1066.94,992.401L1066.94,956.94Z" style="fill:rgb(23,45,79);"/>
            </g>
            <g transform="matrix(1,0,0,1.42557,0,-415.36)">
                <path d="M1302.5,578.274C1302.5,566.721 1289.13,557.341 1272.66,557.341L671.841,557.341C655.372,557.341 642,566.721 642,578.274L642,955.067C642,966.62 655.372,976 671.841,976L1272.66,976C1289.13,976 1302.5,966.62 1302.5,955.067L1302.5,578.274Z" style="fill:rgb(23,45,79);stroke:rgb(23,45,79);stroke-width:11.62px;"/>
            </g>
            <g transform="matrix(0.934359,0,0,1.31572,63.8197,-331.137)">
                <path d="M1302.5,569.901C1302.5,562.969 1294.58,557.341 1284.82,557.341L659.686,557.341C649.925,557.341 642,562.969 642,569.901L642,963.44C642,970.372 649.925,976 659.686,976L1284.82,976C1294.58,976 1302.5,970.372 1302.5,963.44L1302.5,569.901Z" style="fill:rgb(205,215,228);"/>
            </g>
            <g id="Videobutton" transform="matrix(1.2505,0,0,1.2505,-221.213,-446.76)">
                <g transform="matrix(0.260825,0,0,0.260825,958.2,815.024)">
                    <g transform="matrix(1,0,0,1,-1000,-1000)">
                        <g transform="matrix(1,0,0,1,2.27374e-13,-1)">
                            <g>
                                <g id="H5P">
                                    <g transform="matrix(1.62791,0,0,1.62791,-631.472,-627.962)">
                                        <path d="M445.74,1243.6L445.74,756.99L596.59,756.99L596.59,966.24L759.61,966.24L759.61,756.99L881.36,756.99L880.053,762.465C877.514,773.1 832.982,970.235 827.563,994.825C824.54,1008.54 822.659,1020.36 823.382,1021.08C824.104,1021.8 853.896,1026.42 889.587,1031.34L954.478,1040.29L964.373,1028.71C992.31,996.026 1039.79,995.47 1067.21,1027.51C1103.15,1069.49 1071.94,1135.05 1016.13,1134.8C996.332,1134.71 980.476,1127.42 965.588,1111.56L953.804,1099.01L888.998,1108.2C853.354,1113.25 823.647,1117.93 822.981,1118.59C820.441,1121.13 833.481,1153.12 843.955,1170.04C863.199,1201.13 886.391,1220.89 920.32,1235.11C928.949,1238.72 936.466,1242.11 937.023,1242.64C937.58,1243.17 897.891,1243.6 848.823,1243.6L759.61,1243.6L759.61,1063.55L596.59,1063.55L596.59,1243.6L445.74,1243.6Z" style="fill:white;fill-rule:nonzero;stroke:white;stroke-width:2.43px;stroke-linecap:butt;stroke-linejoin:miter;stroke-miterlimit:4;"/>
                                    </g>
                                    <g transform="matrix(1.62791,0,0,1.62791,-631.472,-627.962)">
                                        <path d="M1113.7,1241.5C1114.97,1240.33 1121.6,1237.55 1128.43,1235.34C1186.66,1216.46 1231.51,1144.37 1231.56,1069.57C1231.59,1026.38 1218.57,992.789 1190.21,962.939C1170.95,942.668 1150.48,929.762 1123.31,920.761C1105.45,914.846 1100.43,914.299 1062.48,914.132C1023.69,913.962 1019.79,914.371 999.804,920.727C988.082,924.454 976.847,928.134 974.837,928.905C972.477,929.811 971.563,929.135 972.257,926.995C972.847,925.173 976.786,908.628 981.01,890.228L988.689,856.773L1209.68,856.773L1209.68,756.423L1323.43,757.635C1429.47,758.766 1438.5,759.198 1456.64,764.018C1507.09,777.421 1536.81,804.42 1552.02,850.687C1557.63,867.77 1558.44,874.319 1558.62,904.215C1558.77,929.643 1557.73,942.288 1554.53,954.093C1540.61,1005.5 1503.53,1041.54 1450.55,1055.16C1431.08,1060.17 1384.97,1063.34 1329.5,1063.48L1287.53,1063.59L1287.53,1243.63L1199.45,1243.63C1148.83,1243.63 1112.36,1242.73 1113.69,1241.5L1113.7,1241.5ZM1375.33,959.89C1392.29,954.853 1407.52,940.171 1411.63,924.878C1419.36,896.165 1403.36,867.126 1375.42,859.183C1370.58,857.807 1348.82,855.982 1327.08,855.127L1287.54,853.574L1287.54,967.014L1324.86,965.405C1347.41,964.432 1367.38,962.25 1375.33,959.891L1375.33,959.89Z" style="fill:white;fill-rule:nonzero;stroke:white;stroke-width:2.43px;stroke-linecap:butt;stroke-linejoin:miter;stroke-miterlimit:4;"/>
                                    </g>
                                </g>
                            </g>
                        </g>
                    </g>
                </g>
                <g transform="matrix(0.735237,0,0,0.735237,744.989,805.281)">
                    <circle cx="289.99" cy="272" r="96" style="fill:rgb(229,188,113);"/>
                </g>
                <g transform="matrix(3.39355e-17,0.55421,-0.462409,2.83144e-17,1379.34,457.809)">
                    <path d="M990.236,816L1065.95,967.426L914.523,967.426L990.236,816Z" style="fill:rgb(23,45,79);"/>
                </g>
            </g>
        </g>
    </g>
</svg>
