<?xml version="1.0" encoding="UTF-8" standalone="no"?>
<!DOCTYPE svg PUBLIC "-//W3C//DTD SVG 1.1//EN" "http://www.w3.org/Graphics/SVG/1.1/DTD/svg11.dtd">
<svg width="100%" height="100%" viewBox="0 0 2000 2000" version="1.1" xmlns="http://www.w3.org/2000/svg" xmlns:xlink="http://www.w3.org/1999/xlink" xml:space="preserve" xmlns:serif="http://www.serif.com/" style="fill-rule:evenodd;clip-rule:evenodd;stroke-linejoin:round;stroke-miterlimit:2;">
    <g transform="matrix(1,0,0,1,-2208,0)">
        <g id="haken-loesung-icon" transform="matrix(1,0,0,1,-0.333333,0)">
            <rect x="2208.33" y="0" width="2000" height="2000" style="fill:none;"/>
            <clipPath id="_clip1">
                <rect x="2208.33" y="0" width="2000" height="2000"/>
            </clipPath>
            <g clip-path="url(#_clip1)">
                <g transform="matrix(1,0,0,1,0.333333,0)">
                    <path d="M2787.79,1310.81L2476.98,1000L2239,1237.98L2785.59,1784.57L2787.36,1782.81L2789.13,1784.57L4173.72,399.981L3936.17,162.426L2787.79,1310.81Z" style="fill:rgb(110,233,110);"/>
                </g>
                <g transform="matrix(1,0,0,1,2206.69,-26.5001)">
                    <path d="M581.426,1293.11L292.716,1004.4C280.513,992.199 260.726,992.199 248.522,1004.4C248.522,1004.4 10.542,1242.38 10.542,1242.38C-1.662,1254.59 -1.662,1274.37 10.542,1286.58C10.542,1286.58 557.135,1833.17 557.135,1833.17C563.687,1839.72 572.424,1842.76 581,1842.27C589.576,1842.76 598.313,1839.72 604.865,1833.17C604.865,1833.17 1989.46,448.578 1989.46,448.578C2001.66,436.374 2001.66,416.587 1989.46,404.384C1989.46,404.384 1751.9,166.829 1751.9,166.829C1739.7,154.625 1719.91,154.625 1707.71,166.829L581.426,1293.11ZM76.833,1264.48L270.619,1070.69C341.619,1141.69 559.329,1359.4 559.329,1359.4C571.533,1371.61 591.319,1371.61 603.523,1359.4C603.523,1359.4 1729.81,233.12 1729.81,233.12C1775.08,278.39 1877.9,381.211 1923.17,426.481C1923.17,426.481 581,1768.65 581,1768.65L76.833,1264.48Z"/>
                </g>
            </g>
        </g>
    </g>
</svg>
