<svg viewBox="0 0 2000 2000" xmlns="http://www.w3.org/2000/svg" xml:space="preserve" style="fill-rule:evenodd;clip-rule:evenodd;stroke-linejoin:round;stroke-miterlimit:2">
    <path style="fill:none" d="M0 0h2000v2000H0z"/>
    <path d="m730.696 1158.59 267.764 154.6V1004L195.167 540.219v309.187L462.932 1004 195.167 849.406v309.184l535.529 309.19-267.764-154.59v309.19l267.764 154.59v-309.19 309.19l267.764 154.59v-618.37l-267.764-154.6Zm-267.764 154.6-267.765-154.6v309.19l267.765 154.6v-309.19Z" style="fill:#1bb11b"/>
    <path d="M1805.75 536.219 1002.46 1000v618.38l90.51-52.26-90.51 52.26v309.18l267.76-154.59v-309.19l267.77-154.59-267.77 154.59v309.19l535.53-309.19V845.406L1537.99 1000l267.76-154.594V536.219Zm-803.29 772.971 267.76-154.6-267.76 154.6Z" style="fill:#271bb1"/>
    <path d="M1002.46 72.438 466.932 381.625l267.764 154.594-199.909 115.417 199.909-115.417-267.764-154.594-267.765 154.594L1002.46 1000l267.76-154.594-267.76-154.593 267.76-154.594-267.76 154.594 267.76 154.593 535.53-309.187-535.53-309.187-267.76 154.593 267.76-154.593-267.76-154.594Z" style="fill:#b11b1b"/>
    <path d="M176.641 517.693a29.165 29.165 0 0 0-10.64 22.526v927.561c0 10.42 5.559 20.05 14.583 25.26l803.292 463.78a29.162 29.162 0 0 0 29.164 0c2.73-1.57 5.14-3.55 7.18-5.83 35.27-20.36 800.12-461.95 800.12-461.95a29.174 29.174 0 0 0 14.58-25.26V536.219l-.05.054c.03-.107.05-.208.05-.298l-.01-.147.01-.022-.01-.304v-.013l-.01-.147v-.022l-.01-.302v-.014l-.01-.148.01-.022-.02-.3v-.013l-.01-.148v-.022l-.02-.299v-.014l-.02-.148v-.022l-.02-.298v-.014l-.02-.147v-.022l-.03-.296v-.015l-.02-.147v-.022l-.06-.477-.06-.476-.08-.475-.08-.472-.09-.47-.1-.468-.1-.466-.11-.463-.12-.461-.13-.459-.13-.456-.14-.453-.15-.451-.16-.448-.16-.444-.17-.442-.18-.439-.18-.435-.19-.433-.2-.429-.21-.425-.21-.422-.22-.419-.22-.415-.23-.411-.24-.407-.25-.404-.25-.399-.26-.396-.26-.391-.27-.387-.28-.383-.28-.379-.29-.374-.3-.369-.3-.365-.31-.36-.31-.356-.32-.35-.33-.346-.33-.341-.34-.335-.34-.33-.35-.325-.35-.32-.36-.314-.37-.309-.37-.303-.38-.297-.38-.291-.39-.286-.4-.279-.39-.274-.41-.267-.41-.261-.41-.255-.48-.284v-.001l-803.3-463.781a29.162 29.162 0 0 0-29.164 0L184.584 510.96a29.133 29.133 0 0 0-7.943 6.733ZM969.293 1639.21v241.83s-179.626-103.7-209.431-120.91V1518.3l209.431 120.91Zm271.767-124.91v241.83c-.66.38-1.38.79-2.17 1.25l-207.26 119.66v-241.83l209.43-120.91Zm-539.531-29.68v241.83l-209.431-120.91V1363.7l209.431 120.92Zm807.291-124.92v241.84s-162.57 93.86-209.43 120.91v-241.83l209.43-120.92ZM433.765 1571.86l-209.431-120.92v-241.83l209.431 120.92v241.83Zm326.097-120.92v-241.83c42.971 24.81 183.413 105.9 209.431 120.92v241.83l-209.431-120.92Zm271.768-124.91 209.43-120.92v241.83l-209.43 120.92v-241.83Zm744.96-120.92v241.83s-162.58 93.86-209.44 120.92v-241.83l209.44-120.92Zm-1284.492 91.24v-241.83l209.431 120.91v241.83l-209.431-120.91Zm807.292-124.92s162.57-93.86 209.43-120.91v241.83s-162.57 93.86-209.43 120.91v-241.83Zm-1075.056-29.68V899.924l209.431 120.916v241.83l-209.431-120.92Zm535.528-241.826 209.431 120.916v241.83l-209.431-120.92V899.924Zm807.288 116.916 209.44-120.916v241.826l-209.44 120.92v-241.83Zm-326.09-120.916v241.826l-209.43 120.92v-241.83l209.43-120.916Zm-748.962 91.237v-241.83l209.431 120.915v241.834L492.098 987.161Zm1016.722-245.83v241.83l-209.43 120.919V862.246l209.43-120.915Zm-296.93 104.075-209.43 120.915-209.431-120.915 209.431-120.915 209.43 120.915ZM433.765 711.652v241.83L224.333 832.567l.001-2.499V590.737l209.431 120.915ZM1776.59 586.737v241.83l-209.44 120.915v-241.83l209.44-120.915ZM944.126 690.813l-209.43 120.915-209.431-120.915 209.431-120.915 209.43 120.915Zm535.524 0s-179.62 103.707-209.43 120.915l-209.43-120.915 209.43-120.915 209.43 120.915ZM793.029 536.219l209.431-120.915 209.43 120.915-209.43 120.915-209.431-120.915Zm-116.667 0-209.43 120.915-209.431-120.915 209.431-120.915 209.43 120.915Zm1071.058 0-209.43 120.915-209.43-120.915 209.43-120.915 209.43 120.915Zm-686.63-154.594 209.43-120.915s162.58 93.861 209.43 120.915L1270.22 502.54l-209.43-120.915Zm-535.525 0L734.696 260.71l209.43 120.915-209.43 120.915-209.431-120.915Zm267.764-154.593 209.431-120.915 209.43 120.915-209.43 120.915-209.431-120.915Z"/>
    <path d="M2787.79 1310.81 2476.98 1000 2239 1237.98l546.59 546.59 1.77-1.76 1.77 1.76L4173.72 399.981l-237.55-237.555L2787.79 1310.81Z" style="fill:#6ee96e" transform="translate(-2206.36 26.5)"/>
    <path d="m581.426 1293.11-288.71-288.71c-12.203-12.201-31.99-12.201-44.194 0l-237.98 237.98c-12.204 12.21-12.204 31.99 0 44.2l546.593 546.59c6.552 6.55 15.289 9.59 23.865 9.1 8.576.49 17.313-2.55 23.865-9.1L1989.46 448.578c12.2-12.204 12.2-31.991 0-44.194L1751.9 166.829c-12.2-12.204-31.99-12.204-44.19 0L581.426 1293.11Zm-504.593-28.63 193.786-193.79 288.71 288.71c12.204 12.21 31.99 12.21 44.194 0L1729.81 233.12l193.36 193.361L581 1768.65 76.833 1264.48Z"/>
</svg>
