<?xml version="1.0" encoding="UTF-8"?>
<svg id="Ebene_1" data-name="Ebene 1" xmlns="http://www.w3.org/2000/svg" viewBox="0 0 2000 2000">
  <defs>
    <style>
      .cls-1 {
        fill: #172d4d;
      }
    </style>
  </defs>
  <path class="cls-1" d="m601.86,472.77c14.1,0,25.57,11.47,25.57,25.57v182.36c0,14.1-11.47,25.57-25.57,25.57h-182.36c-14.1,0-25.57-11.47-25.57-25.57v-182.36c0-14.1,11.47-25.57,25.57-25.57h182.36m0-40h-182.36c-36.21,0-65.57,29.36-65.57,65.57v182.36c0,36.21,29.36,65.57,65.57,65.57h182.36c36.21,0,65.57-29.36,65.57-65.57v-182.36c0-36.21-29.36-65.57-65.57-65.57h0Z"/>
  <rect class="cls-1" x="1179.04" y="-47.26" width="313.5" height="1273.57" rx="65.57" ry="65.57" transform="translate(746.26 1925.31) rotate(-90)"/>
  <rect class="cls-1" x="30.18" y="24.58" width="313.5" height="313.5" rx="65.57" ry="65.57" transform="translate(5.6 368.26) rotate(-90)"/>
  <path class="cls-1" d="m1907,64.58c14.1,0,25.57,11.47,25.57,25.57v182.36c0,14.1-11.47,25.57-25.57,25.57H447.75c-14.1,0-25.57-11.47-25.57-25.57V90.15c0-14.1,11.47-25.57,25.57-25.57h1459.25m0-40H447.75c-36.21,0-65.57,29.36-65.57,65.57v182.36c0,36.21,29.36,65.57,65.57,65.57h1459.25c36.21,0,65.57-29.36,65.57-65.57V90.15c0-36.21-29.36-65.57-65.57-65.57h0Z"/>
  <path class="cls-1" d="m604.96,880.96c14.1,0,25.57,11.47,25.57,25.57v182.36c0,14.1-11.47,25.57-25.57,25.57h-182.36c-14.1,0-25.57-11.47-25.57-25.57v-182.36c0-14.1,11.47-25.57,25.57-25.57h182.36m0-40h-182.36c-36.21,0-65.57,29.36-65.57,65.57v182.36c0,36.21,29.36,65.57,65.57,65.57h182.36c36.21,0,65.57-29.36,65.57-65.57v-182.36c0-36.21-29.36-65.57-65.57-65.57h0Z"/>
  <rect class="cls-1" x="1179.36" y="363.6" width="313.5" height="1268.22" rx="65.57" ry="65.57" transform="translate(2333.83 -338.4) rotate(90)"/>
  <rect class="cls-1" x="30.18" y="1249.16" width="313.5" height="313.5" rx="65.57" ry="65.57" transform="translate(1592.84 1218.98) rotate(90)"/>
  <path class="cls-1" d="m1907.43,1289.16c14.1,0,25.57,11.47,25.57,25.57v182.36c0,14.1-11.47,25.57-25.57,25.57H449.57c-14.1,0-25.57-11.47-25.57-25.57v-182.36c0-14.1,11.47-25.57,25.57-25.57h1457.86m0-40H449.57c-36.21,0-65.57,29.36-65.57,65.57v182.36c0,36.21,29.36,65.57,65.57,65.57h1457.86c36.21,0,65.57-29.36,65.57-65.57v-182.36c0-36.21-29.36-65.57-65.57-65.57h0Z"/>
  <rect class="cls-1" x="30.18" y="1657.35" width="313.5" height="313.5" rx="65.57" ry="65.57" transform="translate(2001.03 1627.17) rotate(90)"/>
  <path class="cls-1" d="m1907.43,1697.35c14.1,0,25.57,11.47,25.57,25.57v182.36c0,14.1-11.47,25.57-25.57,25.57H449.57c-14.1,0-25.57-11.47-25.57-25.57v-182.36c0-14.1,11.47-25.57,25.57-25.57h1457.86m0-40H449.57c-36.21,0-65.57,29.36-65.57,65.57v182.36c0,36.21,29.36,65.57,65.57,65.57h1457.86c36.21,0,65.57-29.36,65.57-65.57v-182.36c0-36.21-29.36-65.57-65.57-65.57h0Z"/>
</svg>