<?xml version="1.0" encoding="UTF-8"?>
<svg id="Ebene_1" data-name="Ebene 1" xmlns="http://www.w3.org/2000/svg" viewBox="0 0 2000 2000">
  <defs>
    <style>
      .cls-1 {
        fill: #b9bec6;
      }

      .cls-1, .cls-2, .cls-3, .cls-4, .cls-5, .cls-6, .cls-7, .cls-8, .cls-9, .cls-10, .cls-11 {
        fill-rule: evenodd;
      }

      .cls-2 {
        fill: #e3e5e8;
      }

      .cls-3, .cls-12 {
        fill: #45a0e5;
      }

      .cls-4 {
        fill: #59ace8;
      }

      .cls-13, .cls-14 {
        font-family: Roboto-Black, Roboto;
        font-size: 600px;
        font-weight: 800;
        letter-spacing: .09em;
      }

      .cls-5 {
        fill: #b8ddf5;
      }

      .cls-6 {
        fill: #172d4f;
      }

      .cls-7 {
        fill: #e6e6e6;
      }

      .cls-8 {
        fill: #172d4d;
      }

      .cls-9 {
        stroke: #172d4d;
        stroke-linecap: round;
        stroke-linejoin: round;
        stroke-width: 25.24px;
      }

      .cls-9, .cls-10 {
        fill: #8f97a3;
      }

      .cls-15 {
        fill: none;
      }

      .cls-11 {
        fill: #92caf0;
      }

      .cls-14 {
        fill: #fff;
      }
    </style>
  </defs>
  <path class="cls-7" d="M2000,80c0-44.15-35.84-80-80-80H80C35.85,0,0,35.85,0,80V1920c0,44.15,35.85,80,80,80H1920c44.16,0,80-35.85,80-80V80Z"/>
  <rect id="lernwelt-icon" class="cls-15" x="1430.29" y="-82.57" width="2000" height="2000"/>
  <rect id="lernwelt-icon-2" data-name="lernwelt-icon" class="cls-15" x="-589.71" y="-82.57" width="2000" height="2000"/>
  <g>
    <polygon class="cls-1" points="69.63 1434.54 996.57 899.37 1923.52 1434.55 996.57 1969.72 69.63 1434.54"/>
    <path class="cls-8" d="M1004.9,884.94c-5.15-2.97-11.5-2.97-16.66,0L61.3,1420.11c-5.15,2.98-8.33,8.48-8.34,14.43,0,5.96,3.18,11.46,8.34,14.44l926.95,535.17c5.15,2.97,11.5,2.97,16.66,0l926.95-535.17c5.16-2.98,8.33-8.48,8.34-14.43,0-5.96-3.18-11.46-8.33-14.43L1004.9,884.94Zm-8.33,33.68l893.62,515.93-893.61,515.93L102.95,1434.54,996.57,918.62h0Z"/>
  </g>
  <g>
    <polygon class="cls-2" points="996.57 29.72 1923.51 564.89 1923.51 1434.54 996.57 899.37 996.57 29.72"/>
    <path class="cls-8" d="M1940.18,564.89c0-5.95-3.18-11.46-8.33-14.43L1004.9,15.28c-5.15-2.98-11.51-2.97-16.67,0-5.15,2.97-8.33,8.47-8.33,14.44V899.37c0,5.96,3.18,11.46,8.33,14.43l926.95,535.17c5.16,2.98,11.51,2.98,16.67,0,5.16-2.97,8.33-8.47,8.33-14.44V564.89Zm-33.33,9.62v831.16s-802.78-463.49-893.61-515.93V58.58l893.61,515.93h0Z"/>
  </g>
  <g>
    <polygon class="cls-10" points="69.62 564.89 996.56 29.72 996.56 899.37 69.62 1434.55 69.62 564.89"/>
    <path class="cls-8" d="M1013.23,29.72c0-5.96-3.18-11.46-8.33-14.44-5.16-2.97-11.51-2.98-16.67,0L61.28,550.46c-5.15,2.98-8.33,8.48-8.33,14.43v869.65c0,5.96,3.18,11.46,8.33,14.44,5.15,2.99,11.51,2.98,16.67,0L1004.9,913.81c5.16-2.98,8.33-8.47,8.33-14.43V29.72Zm-33.33,28.87V889.75L86.28,1405.68V574.52L979.9,58.59h0Z"/>
  </g>
  <g id="Avatar">
    <path class="cls-3" d="M696.19,850.38c105.53-60.93,191.21,24.31,191.21,190.23s29.74,283.45-191.21,411.02c-208.67,120.47-191.22-24.3-191.22-190.22s85.68-350.09,191.22-411.02Z"/>
    <path class="cls-8" d="M773.65,814.55c-26.36-2.73-55.37,3.83-85.8,21.4-81.25,46.91-151.88,163.95-182.85,291.55-26.55,81.03-32.64,161.46-17.3,266.4,1.04,7.1,6.91,74.41,31.94,106.32,111.62,86.09,157.99,67.31,173.48,64.38,26.91-5.07,61.38-19.01,105.26-44.35,92.15-53.2,142.07-105.15,169.29-158.9,40.32-79.62,30.26-164.06,30.26-266.55,0-84.27-21.9-148.67-56.1-186.7-4.8-7.4-11.73-15.05-21.35-22.2-111.81-83.09-118.21-73.7-118.21-73.7-7.35-4.24-16.42-4.19-23.72,.14l-4.9,2.22Zm106.17,90.72c15.33,35.9,24.25,81.57,24.25,135.34,0,102.49,10.06,186.94-30.26,266.55-27.22,53.75-77.15,105.71-169.29,158.91-29.9,17.26-55.43,29.24-77.18,36.72,3.69,9.56,8.64,17.35,15.57,22.82,10.19,8.04,24.48,9.93,44.02,6.24,24.28-4.58,55.18-17.61,94.77-40.46,84.61-48.85,131.23-95.74,156.22-145.1,38.01-75.06,26.66-154.87,26.66-251.49,0-54.94-9.65-100.58-26.84-134.16-14.46-28.26-34.15-47.66-57.93-55.36Zm-37.91-2.6c.68,1.24,1.34,2.5,1.99,3.78,17.19,33.58,26.84,79.22,26.84,134.16,0,96.62,11.35,176.44-26.66,251.49-24.99,49.36-71.61,96.25-156.22,145.1-26.46,15.28-49.03,26.16-68.35,33.07-6.29-41.89-4.02-96.99-4.02-154.67,0-159.85,81.21-337.89,182.88-396.59h0c15.09-8.71,29.67-14.14,43.53-16.33Z"/>
    <path class="cls-8" d="M584.92,762.99c4.71,16.88,16.51,47.16,35.47,61.76,88.61,68.28,103.18,66.44,123.44,69.11,30.09,3.97,63.4,2.23,95.53-26.62,55.1-49.45,83.41-149.21,62.92-222.71-9.11-32.67-26.11-55.34-46.53-68.09-.88-.55-87.04-55.86-112.38-62.78-29.28-8-63.4-2.23-95.53,26.62h0c-55.1,49.45-83.41,149.21-62.92,222.71Zm227.91-152.02c10.74,70.58-17.22,157.12-67.31,202.09-4.62,4.15-9.29,7.84-13.98,11.1,6.65,12.78,15.59,21.48,26.53,24.97,15.37,4.89,32.87-1.49,49.95-16.82,43.3-38.87,65.16-117.39,49.05-175.16-6.55-23.51-18.21-39.52-34.07-44.56-3.3-1.05-6.7-1.58-10.17-1.61Zm-44.61,23.02c2.89,49.95-16.25,106.46-49.23,139.54-2.89-49.95,16.25-106.46,49.23-139.54Z"/>
    <path class="cls-3" d="M790.04,904.57c105.53-60.93,191.21,24.31,191.21,190.23s29.74,283.45-191.21,411.02c-208.67,120.47-191.22-24.3-191.22-190.22s85.68-350.09,191.22-411.02Z"/>
    <path class="cls-4" d="M816.3,952.03c91.14-52.62,165.13,21,165.13,164.28s25.68,244.8-165.13,354.96c-180.21,104.04-165.14-20.98-165.14-164.28s74-302.35,165.14-354.97Z"/>
    <path class="cls-11" d="M842.4,1046.94c56.38-32.55,102.16,12.99,102.16,101.64s15.89,151.45-102.16,219.61c-111.49,64.37-102.17-12.98-102.17-101.64s45.78-187.05,102.17-219.61Z"/>
    <path class="cls-5" d="M850.15,1128.47c33.91-19.58,61.45,7.81,61.45,61.13s9.56,91.09-61.45,132.09c-67.06,38.72-61.45-7.81-61.45-61.13s27.53-112.51,61.45-132.09Z"/>
    <ellipse class="cls-12" cx="788.58" cy="732.59" rx="144.73" ry="89.59" transform="translate(-105.26 1332.26) rotate(-76.75)"/>
  </g>
  <g id="Fernseher_rechts" data-name="Fernseher rechts">
    <polygon class="cls-9" points="1174.57 357.72 1729.57 678.15 1729.57 1166.93 1174.57 846.5 1174.57 357.72"/>
    <g id="Videobutton">
      <ellipse class="cls-12" cx="1452.07" cy="758.24" rx="115.88" ry="200.7" transform="translate(-184.58 827.62) rotate(-30)"/>
      <path class="cls-6" d="M1540.16,812.22l-140.79,16.14v-194.84l140.79,178.71Z"/>
    </g>
  </g>
  <rect id="lernwelt-icon-3" data-name="lernwelt-icon" class="cls-15" x="-597" y="-83" width="2000" height="2000"/>
  <text class="cls-13" transform="translate(159.74 1184.63)"><tspan x="0" y="0">Menü</tspan></text>
  <text class="cls-14" transform="translate(142.97 1170.72)"><tspan x="0" y="0">Menü</tspan></text>
</svg>