<svg id="Ebene_1" data-name="Ebene 1" xmlns="http://www.w3.org/2000/svg" viewBox="0 0 2000 2000">
    <defs>
        <style>
            .cls-3,.cls-8{fill-rule:evenodd}.cls-12,.cls-3{fill:#45a0e5}.cls-8{fill:#172d4d}.cls-15{fill:none}
        </style>
    </defs>
    <path d="M2000 80c0-44.15-35.84-80-80-80H80C35.85 0 0 35.85 0 80v1840c0 44.15 35.85 80 80 80h1840c44.16 0 80-35.85 80-80V80Z" style="fill:#e6e6e6;fill-rule:evenodd"/>
    <path id="lernwelt-icon" class="cls-15" d="M1430.29-82.57h2000v2000h-2000z"/>
    <path id="lernwelt-icon-2" data-name="lernwelt-icon" class="cls-15" d="M-589.71-82.57h2000v2000h-2000z"/>
    <path style="fill-rule:evenodd;fill:#b9bec6" d="m69.63 1434.54 926.94-535.17 926.95 535.18-926.95 535.17-926.94-535.18z"/>
    <path class="cls-8" d="M1004.9 884.94a16.69 16.69 0 0 0-16.66 0L61.3 1420.11a16.71 16.71 0 0 0-8.34 14.43c0 5.96 3.18 11.46 8.34 14.44l926.95 535.17a16.69 16.69 0 0 0 16.66 0l926.95-535.17a16.69 16.69 0 0 0 8.34-14.43c0-5.96-3.18-11.46-8.33-14.43L1004.9 884.94Zm-8.33 33.68 893.62 515.93-893.61 515.93-893.63-515.94 893.62-515.92Z"/>
    <path style="fill:#e3e5e8;fill-rule:evenodd" d="m996.57 29.72 926.94 535.17v869.65L996.57 899.37V29.72z"/>
    <path class="cls-8" d="M1940.18 564.89c0-5.95-3.18-11.46-8.33-14.43L1004.9 15.28c-5.15-2.98-11.51-2.97-16.67 0a16.66 16.66 0 0 0-8.33 14.44v869.65c0 5.96 3.18 11.46 8.33 14.43l926.95 535.17a16.66 16.66 0 0 0 16.67 0 16.64 16.64 0 0 0 8.33-14.44V564.89Zm-33.33 9.62v831.16l-893.61-515.93V58.58l893.61 515.93Z"/>
    <path style="fill:#8f97a3;fill-rule:evenodd" d="M69.62 564.89 996.56 29.72v869.65L69.62 1434.55V564.89z"/>
    <path class="cls-8" d="M1013.23 29.72c0-5.96-3.18-11.46-8.33-14.44a16.684 16.684 0 0 0-16.67 0L61.28 550.46a16.68 16.68 0 0 0-8.33 14.43v869.65c0 5.96 3.18 11.46 8.33 14.44 5.15 2.99 11.51 2.98 16.67 0l926.95-535.17c5.16-2.98 8.33-8.47 8.33-14.43V29.72ZM979.9 58.59v831.16L86.28 1405.68V574.52L979.9 58.59Z"/>
    <g id="Avatar">
        <path class="cls-3" d="M696.19 850.38c105.53-60.93 191.21 24.31 191.21 190.23s29.74 283.45-191.21 411.02c-208.67 120.47-191.22-24.3-191.22-190.22s85.68-350.09 191.22-411.02Z"/>
        <path class="cls-8" d="M773.65 814.55c-26.36-2.73-55.37 3.83-85.8 21.4C606.6 882.86 535.97 999.9 505 1127.5c-26.55 81.03-32.64 161.46-17.3 266.4 1.04 7.1 6.91 74.41 31.94 106.32 111.62 86.09 157.99 67.31 173.48 64.38 26.91-5.07 61.38-19.01 105.26-44.35 92.15-53.2 142.07-105.15 169.29-158.9 40.32-79.62 30.26-164.06 30.26-266.55 0-84.27-21.9-148.67-56.1-186.7-4.8-7.4-11.73-15.05-21.35-22.2-111.81-83.09-118.21-73.7-118.21-73.7a23.491 23.491 0 0 0-23.72.14l-4.9 2.22Zm106.17 90.72c15.33 35.9 24.25 81.57 24.25 135.34 0 102.49 10.06 186.94-30.26 266.55-27.22 53.75-77.15 105.71-169.29 158.91-29.9 17.26-55.43 29.24-77.18 36.72 3.69 9.56 8.64 17.35 15.57 22.82 10.19 8.04 24.48 9.93 44.02 6.24 24.28-4.58 55.18-17.61 94.77-40.46 84.61-48.85 131.23-95.74 156.22-145.1 38.01-75.06 26.66-154.87 26.66-251.49 0-54.94-9.65-100.58-26.84-134.16-14.46-28.26-34.15-47.66-57.93-55.36Zm-37.91-2.6c.68 1.24 1.34 2.5 1.99 3.78 17.19 33.58 26.84 79.22 26.84 134.16 0 96.62 11.35 176.44-26.66 251.49-24.99 49.36-71.61 96.25-156.22 145.1-26.46 15.28-49.03 26.16-68.35 33.07-6.29-41.89-4.02-96.99-4.02-154.67 0-159.85 81.21-337.89 182.88-396.59 15.09-8.71 29.67-14.14 43.53-16.33Z"/>
        <path class="cls-8" d="M584.92 762.99c4.71 16.88 16.51 47.16 35.47 61.76 88.61 68.28 103.18 66.44 123.44 69.11 30.09 3.97 63.4 2.23 95.53-26.62 55.1-49.45 83.41-149.21 62.92-222.71-9.11-32.67-26.11-55.34-46.53-68.09-.88-.55-87.04-55.86-112.38-62.78-29.28-8-63.4-2.23-95.53 26.62-55.1 49.45-83.41 149.21-62.92 222.71Zm227.91-152.02c10.74 70.58-17.22 157.12-67.31 202.09-4.62 4.15-9.29 7.84-13.98 11.1 6.65 12.78 15.59 21.48 26.53 24.97 15.37 4.89 32.87-1.49 49.95-16.82 43.3-38.87 65.16-117.39 49.05-175.16-6.55-23.51-18.21-39.52-34.07-44.56-3.3-1.05-6.7-1.58-10.17-1.61Zm-44.61 23.02c2.89 49.95-16.25 106.46-49.23 139.54-2.89-49.95 16.25-106.46 49.23-139.54Z"/>
        <path class="cls-3" d="M790.04 904.57c105.53-60.93 191.21 24.31 191.21 190.23s29.74 283.45-191.21 411.02c-208.67 120.47-191.22-24.3-191.22-190.22s85.68-350.09 191.22-411.02Z"/>
        <path d="M816.3 952.03c91.14-52.62 165.13 21 165.13 164.28s25.68 244.8-165.13 354.96c-180.21 104.04-165.14-20.98-165.14-164.28s74-302.35 165.14-354.97Z" style="fill:#59ace8;fill-rule:evenodd"/>
        <path d="M842.4 1046.94c56.38-32.55 102.16 12.99 102.16 101.64s15.89 151.45-102.16 219.61c-111.49 64.37-102.17-12.98-102.17-101.64s45.78-187.05 102.17-219.61Z" style="fill:#92caf0;fill-rule:evenodd"/>
        <path d="M850.15 1128.47c33.91-19.58 61.45 7.81 61.45 61.13s9.56 91.09-61.45 132.09c-67.06 38.72-61.45-7.81-61.45-61.13s27.53-112.51 61.45-132.09Z" style="fill:#b8ddf5;fill-rule:evenodd"/>
        <ellipse class="cls-12" cx="788.58" cy="732.59" rx="144.73" ry="89.59" transform="rotate(-76.75 788.57 732.592)"/>
    </g>
    <g id="Fernseher_rechts" data-name="Fernseher rechts">
        <path style="fill:#8f97a3;stroke:#172d4d;stroke-linecap:round;stroke-linejoin:round;stroke-width:25.24px;fill-rule:evenodd" d="m1174.57 357.72 555 320.43v488.78l-555-320.43V357.72z"/>
        <g id="Videobutton">
            <ellipse class="cls-12" cx="1452.07" cy="758.24" rx="115.88" ry="200.7" transform="rotate(-30 1452.07 758.241)"/>
            <path d="m1540.16 812.22-140.79 16.14V633.52l140.79 178.71Z" style="fill:#172d4f;fill-rule:evenodd"/>
        </g>
    </g>
    <path id="lernwelt-icon-3" data-name="lernwelt-icon" class="cls-15" d="M-597-83h2000v2000H-597z"/>
    <text transform="translate(159.74 1184.63)" style="font-family:Roboto-Black,Roboto;font-size:600px;font-weight:800;letter-spacing:.09em"><tspan x="0" y="0">Menü</tspan></text>
    <text transform="translate(142.97 1170.72)" style="fill:#fff;font-family:Roboto-Black,Roboto;font-size:600px;font-weight:800;letter-spacing:.09em"><tspan x="0" y="0">Menü</tspan></text>
</svg>
