<?xml version="1.0" encoding="UTF-8"?>
<svg id="Ebene_1" data-name="Ebene 1" xmlns="http://www.w3.org/2000/svg" viewBox="0 0 2000 2000">
  <defs>
    <style>
      .cls-1 {
        fill: #e5bd73;
      }
    </style>
  </defs>
  <path class="cls-1" d="M346.86,410.55S575.36-131.19,1267.7,71.24c3.82,1.12,7.6,2.37,11.33,3.76,273.46,101.82,327.26,219.98,370.73,333.87,1.53,4,2.91,8.04,4.12,12.15,155.82,532.15-522.91,678.39-530.38,897.77-1.08,180.14-455.2,212.5-323.6-201.71,112.8-355.03,431.64-251.22,451.83-485.34,7.11-82.39,6.12-148.75-52.76-213.21-19.94-21.83-45.42-37.86-73.53-47.03-474.92-154.88-374.84,470.74-704.18,311.85-61.49-29.67-100.25-92.57-98.05-160.81,2.05-63.47,23.66-111.98,23.66-111.98Z"/>
  <ellipse class="cls-1" cx="971.62" cy="1764.01" rx="188.32" ry="190.45"/>
</svg>