<svg viewBox="0 0 2000 2000" xmlns="http://www.w3.org/2000/svg" xml:space="preserve" style="fill-rule:evenodd;clip-rule:evenodd;stroke-linecap:round;stroke-linejoin:round;stroke-miterlimit:1.5">
    <path style="fill:none" d="M0 0h2000v2000H0z"/>
    <clipPath id="a">
        <path d="M0 0h2000v2000H0z"/>
    </clipPath>
    <g clip-path="url(#a)">
        <circle cx="1037.06" cy="822.748" r="892.064" style="fill:#169bbc" transform="matrix(1.10262 0 0 1.121 -143.486 77.703)"/>
        <path d="m1517 689-173.07 30.5L1228 837l-65 179.67 56 68.33s93.44 76.69 124.93 97c31.5 20.31 153.07 16 153.07 16l75-44 113 63s37.49 115.33-5 150-149 133-149 133-86.23 113.69-95 132c-8.77 18.31-28.05 124.53-24 142 4.05 17.47 133 40 133 40l200-184 200-349.5 38.61-293.5L1939 719.5 1781 638l-115 62-134-11M390 820l-32-76-46-54 21-111 176-62.333 88-33.334L708 393l54-72 87-33 80 7 2-120-108-27-60-4-118-29-28-19-48.5 25L428 213l-95 79-90 88-64 103.333L145.333 556 107 611l112-22 24 49 23 60 67 82v75l41 47 26 14-10-96ZM1425 562l-19 57-88 16-47-58 96-60.333 10-33.334 1-38.333 3-66-11-72 109 16 33-26 22-34s17.13-14.858 0-20c-17.13-5.142-30.73-16.477-61-5s-36 16-36 16l-41 27-38-47 38-32 44-23 49-32 161 120 63 76 60 63 62 77.333h-52L1705 467l-39-33-53 5s6.5 9.152 16 24 37 37 37 37v16.667h27L1644 542s-.14 8.039-17 11c-16.86 2.961-24-19-24-19l-1-28-16-22.667L1568 458l-37 25.333h-35l-3 33.334L1445 554l-20 8ZM983 123l68 46 50 2 84-10 8-27 1-43-39-36-39-22h-94l-96-2-8 37 65 55Z" style="fill:#31bd2c;stroke:#2cbd31;stroke-width:33.33px"/>
        <path d="M889 1280.5 703 1135l-37-193-333 1-90 247 254 326.67L627 1882l267-365.33-5-236.17" style="fill:#31bd2c;stroke:#31bd2c;stroke-width:33.33px"/>
        <path d="M1000 0C448.085 0 0 448.085 0 1000c0 551.91 448.085 1000 1000 1000 551.91 0 1000-448.09 1000-1000C2000 448.085 1551.91 0 1000 0Zm0 71.959c512.2 0 928.04 415.841 928.04 928.041S1512.2 1928.04 1000 1928.04 71.959 1512.2 71.959 1000 487.8 71.959 1000 71.959Z" style="fill:#172b4d"/>
        <path d="M2787.79 1310.81 2476.98 1000 2239 1237.98l546.59 546.59 1.77-1.76 1.77 1.76L4173.72 399.981l-237.55-237.555L2787.79 1310.81Z" style="fill:#6ee96e" transform="translate(-2208)"/>
        <path d="M579.787 1266.61 291.077 977.9c-12.203-12.201-31.99-12.201-44.194 0L8.903 1215.88c-12.204 12.21-12.204 31.99 0 44.2l546.593 546.59c6.552 6.55 15.29 9.59 23.865 9.1 8.576.49 17.313-2.55 23.865-9.1L1987.821 422.078c12.2-12.204 12.2-31.991 0-44.194l-237.56-237.555c-12.2-12.204-31.99-12.204-44.19 0L579.787 1266.609Zm-504.593-28.63 193.786-193.79 288.71 288.71c12.204 12.21 31.99 12.21 44.194 0L1728.171 206.62l193.36 193.36-1342.17 1342.17-504.167-504.17Z"/>
    </g>
</svg>
