<?xml version="1.0" encoding="UTF-8" standalone="no"?>
<!DOCTYPE svg PUBLIC "-//W3C//DTD SVG 1.1//EN" "http://www.w3.org/Graphics/SVG/1.1/DTD/svg11.dtd">
<svg width="100%" height="100%" viewBox="0 0 2000 2000" version="1.1" xmlns="http://www.w3.org/2000/svg" xmlns:xlink="http://www.w3.org/1999/xlink" xml:space="preserve" xmlns:serif="http://www.serif.com/" style="fill-rule:evenodd;clip-rule:evenodd;stroke-linejoin:round;stroke-miterlimit:2;">
    <g transform="matrix(2.36128,0,0,1.7452,-1303.42,-719.023)">
        <path d="M1399,457.84C1399,432.54 1383.82,412 1365.12,412L585.88,412C567.181,412 552,432.54 552,457.84L552,1512.16C552,1537.46 567.181,1558 585.88,1558L1365.12,1558C1383.82,1558 1399,1537.46 1399,1512.16L1399,457.84Z" style="fill:rgb(230,230,230);"/>
    </g>
    <rect id="ArtBoard1" x="0" y="0" width="2000" height="2000" style="fill:none;"/>
    <g id="ArtBoard11" serif:id="ArtBoard1">
        <g transform="matrix(0.992359,0,0,0.992359,7.64137,7.14137)">
            <path d="M691,788.5L691,490.359L439.641,490.359L1000,18.5L1560.36,490.359L1309,490.359L1309,788.5L1560.36,788.5L1560.36,1409.5L1309,1409.5L1309,1981.5L691,1981.5L691,1409.5L439.641,1409.5L439.641,788.5L691,788.5Z" style="fill:rgb(207,216,229);"/>
        </g>
        <g transform="matrix(1.3112,0,0,1.3112,117.246,-69.9103)">
            <text x="286.679px" y="858px" style="font-family:'Roboto-Black', 'Roboto';font-weight:900;font-size:248.309px;fill:rgb(23,45,77);">DONE?</text>
            <text x="286.679px" y="1093.23px" style="font-family:'Roboto-Black', 'Roboto';font-weight:900;font-size:235.234px;fill:rgb(229,189,115);">GO ON!</text>
        </g>
        <g transform="matrix(1,0,0,0.999282,0,1.43552)">
            <path d="M667.32,763.574L443.923,763.574C429.541,763.574 417.881,775.234 417.881,789.616L417.881,1405.87C417.881,1420.25 429.541,1431.91 443.923,1431.91C443.923,1431.91 667.32,1431.91 667.32,1431.91C667.32,1543.24 667.32,1973.5 667.32,1973.5C667.32,1987.88 678.979,1999.54 693.361,1999.54C693.361,1999.54 1306.64,1999.54 1306.64,1999.54C1321.02,1999.54 1332.68,1987.88 1332.68,1973.5L1332.68,1431.91C1396.6,1431.91 1556.08,1431.91 1556.08,1431.91C1570.46,1431.91 1582.12,1420.25 1582.12,1405.87L1582.12,789.616C1582.12,775.234 1570.46,763.574 1556.08,763.574L1332.68,763.574L1332.68,519.795C1396.6,519.795 1556.08,519.795 1556.08,519.795C1567.02,519.795 1576.79,512.958 1580.54,502.681C1584.29,492.405 1581.22,480.88 1572.85,473.833C1572.85,473.833 1016.77,5.58 1016.77,5.58C1007.08,-2.582 992.919,-2.582 983.226,5.58C983.226,5.58 427.149,473.833 427.149,473.833C418.781,480.88 415.709,492.405 419.46,502.681C423.21,512.958 432.983,519.795 443.923,519.795C443.923,519.795 667.32,519.795 667.32,519.795L667.32,763.574ZM1280.6,1428.04L1280.6,1947.46C1180.31,1947.46 819.691,1947.46 719.403,1947.46C719.403,1947.46 719.403,1428.04 719.403,1428.04C776.321,1428.04 1280.6,1428.04 1280.6,1428.04L1280.6,1428.04ZM474.706,817.042L1525.29,817.042C1525.29,817.042 1525.29,1319.17 1525.29,1375.96C1525.29,1375.96 474.706,1375.96 474.706,1375.96L474.706,817.042ZM1000,59.545L1484.72,467.712L1306.64,467.712C1292.26,467.712 1280.6,479.371 1280.6,493.753L1280.6,764.958L719.403,764.958C719.403,764.958 719.403,493.753 719.403,493.753C719.403,479.371 707.744,467.712 693.361,467.712L515.279,467.712C515.279,467.712 516.153,466.976 516.153,466.976L1000,59.545Z" style="fill:rgb(23,45,77);"/>
        </g>
    </g>
</svg>
