<svg viewBox="0 0 2000 2000" xmlns="http://www.w3.org/2000/svg" xml:space="preserve" style="fill-rule:evenodd;clip-rule:evenodd;stroke-linejoin:round;stroke-miterlimit:2">
    <path style="fill:none" d="M0 0h2000v2000H0z"/>
    <path d="M691 788.5V490.359H439.641L1000 18.5l560.36 471.859H1309V788.5h251.36v621H1309v572H691v-572H439.641v-621H691Z" style="fill:#cfd8e5" transform="matrix(.99236 0 0 .99236 7.641 7.141)"/>
    <text x="286.679" y="858" style="font-family:'Roboto-Black','Roboto';font-weight:900;font-size:248.309px;fill:#172d4d" transform="translate(117.246 -69.91) scale(1.3112)">DONE?</text>
    <text x="286.679" y="1093.23" style="font-family:'Roboto-Black','Roboto';font-weight:900;font-size:235.234px;fill:#e5bd73" transform="translate(117.246 -69.91) scale(1.3112)">GO ON!</text>
    <path d="M667.32 763.574H443.923c-14.382 0-26.042 11.66-26.042 26.042v616.254c0 14.38 11.66 26.04 26.042 26.04H667.32v541.59c0 14.38 11.659 26.04 26.041 26.04h613.279c14.38 0 26.04-11.66 26.04-26.04v-541.59h223.4c14.38 0 26.04-11.66 26.04-26.04V789.616c0-14.382-11.66-26.042-26.04-26.042h-223.4V519.795h223.4c10.94 0 20.71-6.837 24.46-17.114a26.04 26.04 0 0 0-7.69-28.848L1016.77 5.58c-9.69-8.162-23.851-8.162-33.544 0L427.149 473.833a26.041 26.041 0 0 0-7.689 28.848 26.04 26.04 0 0 0 24.463 17.114H667.32v243.779Zm613.28 664.466v519.42H719.403v-519.42H1280.6ZM474.706 817.042H1525.29v558.918H474.706V817.042ZM1000 59.545l484.72 408.167h-178.08c-14.38 0-26.04 11.659-26.04 26.041v271.205H719.403V493.753c0-14.382-11.659-26.041-26.042-26.041H515.279l.874-.736L1000 59.545Z" style="fill:#172d4d" transform="matrix(1 0 0 .99928 0 1.436)"/>
</svg>
