<svg viewBox="0 0 2000 2000" xmlns="http://www.w3.org/2000/svg" xml:space="preserve" style="fill-rule:evenodd;clip-rule:evenodd;stroke-linejoin:round;stroke-miterlimit:2">
    <path d="M1399 457.84c0-25.3-15.18-45.84-33.88-45.84H585.88c-18.699 0-33.88 20.54-33.88 45.84v1054.32c0 25.3 15.181 45.84 33.88 45.84h779.24c18.7 0 33.88-20.54 33.88-45.84V457.84Z" style="fill:#e6e6e6" transform="matrix(2.36128 0 0 1.7452 -1303.42 -719.023)"/>
    <path d="M9.707 9.71c-.2.19-.45.29-.71.29-.26 0-.51-.1-.71-.29L3.5 4.92l-.35.34-1.44 1.45C1.51 6.9 1.26 7 1 7c-.13 0-.26-.03-.38-.08A.987.987 0 0 1 0 6V1c0-.55.45-1 1-1h5c.4 0 .77.24.92.62.16.37.07.8-.21 1.09L5.26 3.15l-.34.35 4.788 4.79c.39.39.39 1.03 0 1.42h-.001Zm4.586 0c.2.19.45.29.71.29.26 0 .51-.1.71-.29l4.79-4.79.35.34 1.44 1.45c.197.19.447.29.707.29.13 0 .26-.03.38-.08.38-.15.62-.52.62-.92V1c0-.55-.45-1-1-1h-5c-.4 0-.77.24-.92.62-.16.37-.07.8.21 1.09l1.45 1.44.34.35-4.788 4.79c-.39.39-.39 1.03 0 1.42h.001Zm-4.586 4.58c-.2-.19-.45-.29-.71-.29-.26 0-.51.1-.71.29L3.5 19.08l-.35-.34-1.44-1.45C1.51 17.1 1.26 17 1 17c-.13 0-.26.03-.38.08-.38.15-.62.52-.62.92v5c0 .55.45 1 1 1h5c.4 0 .77-.24.92-.62.16-.37.07-.8-.21-1.09l-1.45-1.44-.34-.35 4.788-4.79c.39-.39.39-1.03 0-1.42h-.001Zm4.586 0c.2-.19.45-.29.71-.29.26 0 .51.1.71.29l4.79 4.79.35-.34 1.44-1.45c.197-.19.447-.29.707-.29.13 0 .26.03.38.08.38.15.62.52.62.92v5c0 .55-.45 1-1 1h-5c-.4 0-.77-.24-.92-.62-.16-.37-.07-.8.21-1.09l1.45-1.44.34-.35-4.788-4.79c-.39-.39-.39-1.03 0-1.42h.001Z" style="fill:#172d4d;fill-rule:nonzero;stroke:#e5bd73;stroke-width:.42px" transform="matrix(80 0 0 80 40 40)"/>
</svg>
