<svg data-name="Ebene 1" xmlns="http://www.w3.org/2000/svg" viewBox="0 0 2000 2000">
    <path d="M2000.01 80c0-44.15-35.84-80-80-80h-1840C35.85 0 0 35.85 0 80v1840c0 44.15 35.85 80 80 80h1840.01c44.16 0 80-35.85 80-80V80Z" style="fill:#e6e6e6;fill-rule:evenodd"/>
    <path d="M816.56 816.8c-16 15.2-36 23.2-56.8 23.2s-40.8-8-56.8-23.2L320 433.6l-28 27.2-115.2 116c-16 15.2-36 23.2-56.8 23.2-10.4 0-20.8-2.4-30.4-6.4C59.2 581.6 40 552 40 520V120c0-44 36-80 80-80h400c32 0 61.6 19.2 73.6 49.6 12.8 29.6 5.6 64-16.8 87.2L460.8 292l-27.2 28 383.04 383.2c31.2 31.2 31.2 82.4 0 113.6h-.08Zm366.88 0c16 15.2 36 23.2 56.8 23.2s40.8-8 56.8-23.2l383.2-383.2 28 27.2 115.2 116C1839.2 592 1859.2 600 1880 600c10.4 0 20.8-2.4 30.4-6.4 30.4-12 49.6-41.6 49.6-73.6V120c0-44-36-80-80-80h-400c-32 0-61.6 19.2-73.6 49.6-12.8 29.6-5.6 64 16.8 87.2l116 115.2 27.2 28-383.04 383.2c-31.2 31.2-31.2 82.4 0 113.6h.08Zm-366.88 366.4c-16-15.2-36-23.2-56.8-23.2s-40.8 8-56.8 23.2L320 1566.4l-28-27.2-115.2-116c-16-15.2-36-23.2-56.8-23.2-10.4 0-20.8 2.4-30.4 6.4-30.4 12-49.6 41.6-49.6 73.6v400c0 44 36 80 80 80h400c32 0 61.6-19.2 73.6-49.6 12.8-29.6 5.6-64-16.8-87.2l-116-115.2-27.2-28 383.04-383.2c31.2-31.2 31.2-82.4 0-113.6h-.08Zm366.88 0c16-15.2 36-23.2 56.8-23.2s40.8 8 56.8 23.2l383.2 383.2 28-27.2 115.2-116c15.76-15.2 35.76-23.2 56.56-23.2 10.4 0 20.8 2.4 30.4 6.4 30.4 12 49.6 41.6 49.6 73.6v400c0 44-36 80-80 80h-400c-32 0-61.6-19.2-73.6-49.6-12.8-29.6-5.6-64 16.8-87.2l116-115.2 27.2-28-383.04-383.2c-31.2-31.2-31.2-82.4 0-113.6h.08Z" style="fill:#172d4d;stroke:#172d4d;stroke-linejoin:round;stroke-width:33.6px"/>
</svg>
