<svg viewBox="0 0 2000 2000" xmlns="http://www.w3.org/2000/svg" xml:space="preserve" style="fill-rule:evenodd;clip-rule:evenodd;stroke-linejoin:round;stroke-miterlimit:2">
    <path d="M1399 457.84c0-25.3-15.18-45.84-33.88-45.84H585.88c-18.699 0-33.88 20.54-33.88 45.84v1054.32c0 25.3 15.181 45.84 33.88 45.84h779.24c18.7 0 33.88-20.54 33.88-45.84V457.84Z" style="fill:#e6e6e6" transform="matrix(2.36128 0 0 1.7452 -1303.42 -719.023)"/>
    <path d="M563.8 809v166.13H660L512 1116 364 975.13h96.2V809h103.6Z" style="fill:#172d4f" transform="translate(-26.079 -383.68) scale(2.00406)"/>
    <path d="m794.494 816 .69 119.644-544.678-.007V816H217v174h611V816h-33.506Z" style="fill:#172d4f" transform="matrix(2.89502 0 0 1.97194 -512.648 28.776)"/>
    <path d="M605.162 35H344v380h315.717V89.554L605.162 35ZM372.599 196.151l-19.163.587v-2.151s62.431-46.816 184.984-56.317l.782 1.956-44.584 32.46s12.244 8.511 17.599 16.035c0 0 3.522 1.019 7.04 5.866 0 0 11.422-16.677 51.232-15.253 39.81 1.425 59.534 21.771 61.792 53.579v95.817h-44.584l-.391-92.688s-.219-23.647-23.074-22.292c-22.856 1.356-21.901 22.292-21.901 22.292v92.688h-44.975v-92.688s-.534-14.375-10.56-19.945c0 0-12.27 9.44-32.851 12.514 0 0-.824 1.594-1.173 7.431-.35 5.837 0 92.688 0 92.688h-44.975v-92.688s-.128-10.234 1.173-12.515c0 0-1.612-26.174-.394-26.203 0 0-33.645-.226-35.977-1.173Z" style="fill:#172d4f" transform="translate(-600.813 -95.247) scale(3.14992)"/>
</svg>
