<?xml version="1.0" encoding="UTF-8" standalone="no"?>
<!DOCTYPE svg PUBLIC "-//W3C//DTD SVG 1.1//EN" "http://www.w3.org/Graphics/SVG/1.1/DTD/svg11.dtd">
<svg width="100%" height="100%" viewBox="0 0 2000 2000" version="1.1" xmlns="http://www.w3.org/2000/svg" xmlns:xlink="http://www.w3.org/1999/xlink" xml:space="preserve" xmlns:serif="http://www.serif.com/" style="fill-rule:evenodd;clip-rule:evenodd;stroke-linejoin:round;stroke-miterlimit:2;">
    <g transform="matrix(2.00406,0,0,2.00406,-26.0788,-383.68)">
        <path d="M563.8,809L563.8,975.13L660,975.13L512,1116L364,975.13L460.2,975.13L460.2,809L563.8,809Z" style="fill:rgb(23,45,79);"/>
    </g>
    <g transform="matrix(2.89502,0,0,1.97194,-512.648,28.7756)">
        <path d="M794.494,816L795.184,935.644L250.506,935.637L250.506,816L217,816L217,990L828,990L828,816L794.494,816Z" style="fill:rgb(23,45,79);"/>
    </g>
    <g transform="matrix(3.14992,0,0,3.14992,-600.813,-95.2472)">
        <path d="M605.162,35L344,35L344,415L659.717,415L659.717,89.554L605.162,35ZM372.599,196.151L353.436,196.738L353.436,194.587C353.436,194.587 415.867,147.771 538.42,138.27L539.202,140.226L494.618,172.686C494.618,172.686 506.862,181.197 512.217,188.721C512.217,188.721 515.739,189.74 519.257,194.587C519.257,194.587 530.679,177.91 570.489,179.334C610.299,180.759 630.023,201.105 632.281,232.913L632.281,328.73L587.697,328.73L587.306,236.042C587.306,236.042 587.087,212.395 564.232,213.75C541.376,215.106 542.331,236.042 542.331,236.042L542.331,328.73L497.356,328.73L497.356,236.042C497.356,236.042 496.822,221.667 486.796,216.097C486.796,216.097 474.526,225.537 453.945,228.611C453.945,228.611 453.121,230.205 452.772,236.042C452.422,241.879 452.772,328.73 452.772,328.73L407.797,328.73L407.797,236.042C407.797,236.042 407.669,225.808 408.97,223.527C408.97,223.527 407.358,197.353 408.576,197.324C408.576,197.324 374.931,197.098 372.599,196.151Z" style="fill:rgb(23,45,79);"/>
    </g>
</svg>
