<svg viewBox="0 0 2000 2000" xmlns="http://www.w3.org/2000/svg" xml:space="preserve" style="fill-rule:evenodd;clip-rule:evenodd;stroke-linejoin:round;stroke-miterlimit:2">
    <path d="M1399 457.84c0-25.3-15.18-45.84-33.88-45.84H585.88c-18.699 0-33.88 20.54-33.88 45.84v1054.32c0 25.3 15.181 45.84 33.88 45.84h779.24c18.7 0 33.88-20.54 33.88-45.84V457.84Z" style="fill:#e6e6e6" transform="matrix(2.36128 0 0 1.7452 -1303.42 -719.023)"/>
    <path d="m137 410-49 1.5V406s159.634-119.707 473-144l2 5-114 83s31.306 21.763 45 41c0 0 9.006 2.606 18 15 0 0 29.206-42.641 131-39 101.794 3.641 152.228 55.667 158 137v245H687l-1-237s-.559-60.466-59-57c-58.441 3.466-56 57-56 57v237H456V512s-1.364-36.756-27-51c0 0-31.375 24.138-84 32 0 0-2.106 4.075-3 19-.894 14.925 0 237 0 237H227V512s-.326-26.169 3-32c0 0-4.122-66.927-1.009-67 0 0-86.028-.58-91.991-3" style="fill:#172d4d" transform="translate(-176.441 -248.615) scale(2.47006)"/>
</svg>
