<?xml version="1.0" encoding="UTF-8"?>
<svg id="Ebene_1" data-name="Ebene 1" xmlns="http://www.w3.org/2000/svg" viewBox="0 0 2000 2000">
  <defs>
    <style>
      .cls-1 {
        fill: #cfd8e5;
        fill-rule: evenodd;
        stroke: #172d4d;
        stroke-linecap: round;
        stroke-linejoin: round;
        stroke-width: 30px;
      }
    </style>
  </defs>
  <path class="cls-1" d="m161.96,764.11l-121.03,3.71v-13.59s394.31-295.68,1168.34-355.69l4.94,12.35-281.59,205.01s77.33,53.76,111.15,101.27c0,0,22.25,6.44,44.46,37.05,0,0,72.14-105.33,323.58-96.33,251.44,8.99,376.01,137.5,390.27,338.4v605.16h-281.59l-2.47-585.4s-1.38-149.35-145.73-140.79c-144.35,8.56-138.32,140.79-138.32,140.79v585.4h-284.06v-585.4s-3.37-90.79-66.69-125.97c0,0-77.5,59.62-207.49,79.04,0,0-5.2,10.07-7.41,46.93s0,585.4,0,585.4h-284.06v-585.4s-.81-64.64,7.41-79.04c0,0-10.18-165.31-2.49-165.49,0,0-212.49-1.43-227.22-7.41"/>
</svg>