<?xml version="1.0" encoding="UTF-8"?>
<svg id="Ebene_1" data-name="Ebene 1" xmlns="http://www.w3.org/2000/svg" viewBox="0 0 2000 2000">
  <defs>
    <style>
      .cls-1 {
        fill: #172d4d;
      }

      .cls-2 {
        opacity: .5;
      }

      .cls-2, .cls-3 {
        fill: none;
      }

      .cls-4 {
        fill-rule: evenodd;
        stroke: #172d4d;
        stroke-linecap: round;
        stroke-linejoin: round;
        stroke-width: 58.52px;
      }

      .cls-4, .cls-5 {
        fill: #cfd8e5;
      }
    </style>
  </defs>
  <rect id="feedback-icon" class="cls-3" width="2000" height="2000"/>
  <g>
    <g id="feedback-icon1">
      <g class="cls-2">
        <path class="cls-4" d="m1422.51,1639.32c-128.17,52.85-272.67,82.57-425.53,82.57-526.52,0-953.99-352.7-953.99-787.12S470.47,147.65,996.99,147.65s953.99,352.7,953.99,787.12c0,176.59-70.63,339.67-189.85,471.07,115.66,279.32,202.88,439.56,202.88,439.56,0,0-339.58-3.32-541.49-206.08Z"/>
      </g>
    </g>
    <g>
      <g>
        <path class="cls-5" d="m673.55,829.79c1.38-45.47,10.41-89.51,26.9-131.09,17.3-43.62,42-82.63,73.41-115.95l5.25-5.57-1.43-7.52c-21.68-113.81-80.69-206.3-170.66-267.49-68.3-46.45-132.28-59.74-139.35-61.11-7.12-1.37-13.23-5.38-17.2-11.28-3.73-5.54-5.07-12.14-3.79-18.59l.04-.23c2.26-12.41,12.97-21.42,25.45-21.42,1.44,0,2.89.12,4.33.37,12.2,2.43,268.18,56.69,342.58,328.97l5.23,19.14,16.99-10.25c47.59-28.72,101.14-43.9,154.86-43.9s107.59,15.1,154.99,43.66l17,10.24,5.22-19.14c17.08-62.67,45.29-118.79,83.84-166.8,31-38.61,68.79-72.19,112.32-99.81,73.23-46.46,138.97-60.85,146.33-62.36,1.45-.24,2.92-.36,4.37-.36,12.65,0,23.48,9.01,25.75,21.42,2.52,13.97-6.99,27.6-21.2,30.35-11.57,2.26-72.54,15.79-139.18,61.15-89.91,61.21-148.89,153.69-170.57,267.44l-1.43,7.52,5.24,5.57c31.36,33.33,56.02,72.34,73.31,115.95,16.48,41.6,25.51,85.64,26.89,131.1h-645.49Z"/>
        <path class="cls-1" d="m1520.24,204.29c5.31,0,10.03,3.91,10.99,9.1,1.05,5.95-3.11,11.75-9.34,12.95-12.05,2.35-75.67,16.46-144.72,63.47-93.27,63.5-154.43,159.29-176.86,277.03l-2.86,15.03,10.49,11.14c30.06,31.94,53.7,69.36,70.29,111.2,13.96,35.24,22.36,72.33,25.06,110.57h-613.94c2.7-38.25,11.1-75.33,25.07-110.56,16.6-41.85,40.28-79.26,70.38-111.19l10.51-11.15-2.87-15.05c-22.44-117.8-83.63-213.61-176.95-277.08-69.32-47.14-132.9-61.11-144.96-63.43-4.27-.82-6.58-3.44-7.58-4.93-1.05-1.56-2.16-4.08-1.52-7.29l.05-.23.04-.23c.95-5.2,5.55-9.11,10.7-9.11.53,0,1.08.04,1.62.13,5.48,1.12,68.83,14.71,139.66,59.3,42.39,26.69,79.19,59.19,109.37,96.6,37.59,46.59,65.1,101.19,81.79,162.27l10.46,38.28,33.98-20.51c22.28-13.45,45.91-23.82,70.23-30.84,25.08-7.24,50.95-10.9,76.89-10.9s52.04,3.65,77.13,10.84c24.33,6.97,47.92,17.29,70.12,30.67l33.99,20.48,10.44-38.29c16.54-60.67,43.81-114.96,81.07-161.36,29.96-37.32,66.52-69.8,108.66-96.53,70.02-44.42,132.54-58.5,140.99-60.26.56-.08,1.12-.12,1.67-.12m0-30c-2.36,0-4.75.2-7.15.62-2.81.61-276.11,53.39-354.18,339.76-48.26-29.08-103.73-45.81-162.73-45.81s-114.23,16.86-162.61,46.06c-78.31-286.62-351.25-339.15-354.3-339.76-2.38-.42-4.74-.62-7.07-.62-19.38,0-36.61,13.99-40.21,33.73-4.4,22.12,10.63,43.25,32.87,47.53,10.14,1.95,247.16,49.24,298.11,316.67-64.39,68.29-104.58,163.71-104.58,269.64,0,1.22.24,2.08.24,2.69h675.62v-2.69c0-105.93-40.2-201.34-104.46-269.64,50.95-267.32,287.84-314.72,297.86-316.67,22.11-4.28,37.14-25.41,33.11-47.77-3.6-19.74-20.92-33.73-40.5-33.73h0Z"/>
      </g>
      <g>
        <path class="cls-5" d="m1716.42,1798.14c-19.28,0-35.69-13.7-39.02-32.56-.6-3.36-59.35-334.56-67.67-383.42l-1.34-7.87-7.27-3.29c-25.65-11.59-104.49-46.91-170.29-76.04l-16.54-7.32-4.13,17.62c-14.34,61.13-35.37,118.57-62.5,170.73-26.7,51.31-58.71,96.37-95.13,133.92-74.88,77.19-163.39,117.98-255.98,117.98s-181.11-40.83-255.94-118.07c-36.38-37.55-68.36-82.61-95.02-133.93-27.1-52.14-48.09-109.55-62.4-170.63l-4.12-17.58-16.53,7.28c-65.6,28.88-144.6,64.32-170.56,76.05l-7.26,3.28-1.35,7.85c-8.45,49.23-67.2,380.08-67.79,383.42-3.26,18.91-19.55,32.58-38.76,32.58-2.33,0-4.69-.21-7.01-.62-10.43-1.8-19.49-7.54-25.58-16.18-6.16-8.73-8.55-19.31-6.73-29.77l76.55-432.44,252.01-112.79-.97-10.67c-2.96-32.56-4.34-59.53-4.34-84.9,0-23.44,1.49-46.99,3.02-69.1l.84-12.2-253.5-70.6-96.18-310.81c-3.2-10.23-2.22-20.99,2.74-30.32,4.92-9.26,13.18-16.02,23.27-19.04l.2-.06c3.79-1.19,7.71-1.8,11.64-1.8,17.15,0,32.64,11.48,37.68,27.93.68,2.2,66.89,216.22,81.14,262.01l2.45,7.86,7.95,2.15c29.24,7.93,119.31,33,178.47,49.68l15.41,4.35,3.33-15.66c.84-3.94,1.66-7.87,2.47-11.78.37-1.75.74-3.52,1.11-5.3h826.91c.21,1.02.43,2.04.64,3.08.97,4.65,1.98,9.47,3.14,14.34l3.59,15.13,14.99-4.14c29.33-8.09,65.45-18.2,97.32-27.12,35.53-9.94,66.22-18.53,81.22-22.58l8-2.16,2.43-7.93c13.93-45.51,79.64-257.45,80.97-261.72,5.35-16.77,20.58-28.03,37.91-28.03,3.95,0,7.88.61,11.69,1.81l.11.03c20.75,6.36,32.6,28.6,26.45,49.62l-96.26,310.83-253.38,70.48.84,12.2c1.53,22.23,3.02,45.9,3.02,69.35,0,25.85-1.38,53.58-4.21,84.77l-.97,10.68,251.76,112.43,76.67,432.4c3.66,22.06-10.38,42.24-31.99,45.96-2.42.42-4.82.64-7.19.64h0Z"/>
        <path class="cls-1" d="m252.77,611.82c10.62,0,20.22,7.12,23.34,17.32v.04s.02.04.02.04c.67,2.16,66.88,216.2,81.14,261.99l4.9,15.73,15.9,4.31c29.18,7.91,119.17,32.96,178.32,49.64l30.82,8.69,6.66-31.32c.37-1.74.73-3.47,1.1-5.2h802.56c.43,1.94.87,3.9,1.34,5.89l7.19,30.26,29.98-8.27c29.35-8.1,65.47-18.21,97.35-27.13,35.51-9.94,66.17-18.52,81.11-22.55l16.01-4.32,4.85-15.86c13.86-45.3,79.09-255.66,80.93-261.6,3.33-10.33,13.02-17.54,23.6-17.54,2.42,0,4.83.38,7.19,1.12l.11.04.11.03c12.9,3.95,20.26,17.82,16.47,30.97l-93.8,302.89-233.71,65.01-23.57,6.55,1.68,24.4c1.51,21.97,2.98,45.35,2.98,68.32,0,25.39-1.36,52.68-4.15,83.41l-1.94,21.36,19.59,8.75,234.7,104.81,75.26,424.47c2.25,13.79-6.41,26.37-19.75,28.66h-.05s-.05.02-.05.02c-1.52.27-3.05.4-4.56.4-11.99,0-22.18-8.48-24.25-20.2-.59-3.34-59.33-334.49-67.65-383.3l-2.68-15.73-14.54-6.57c-25.63-11.58-104.48-46.91-170.4-76.09l-33.09-14.65-8.26,35.23c-14.05,59.91-34.64,116.18-61.21,167.23-26.03,50.02-57.18,93.89-92.59,130.4-35.33,36.42-74.08,64.64-115.17,83.87-41.9,19.61-85.65,29.55-130.04,29.55s-88.17-9.95-130.06-29.58c-41.08-19.25-79.8-47.48-115.11-83.92-35.37-36.51-66.49-80.38-92.49-130.41-26.52-51.03-47.08-107.26-61.1-167.13l-8.24-35.17-33.06,14.55c-65.77,28.95-144.76,64.39-170.7,76.11l-14.52,6.56-2.69,15.7c-8.44,49.19-67.19,380-67.78,383.33v.08s-.03.08-.03.08c-2,11.62-12.08,20.05-23.96,20.05-1.46,0-2.93-.13-4.39-.39h-.08s-.08-.03-.08-.03c-6.4-1.1-12-4.66-15.79-10.03-3.84-5.44-5.33-12-4.23-18.5l75.17-424.63,234.97-105.17,19.56-8.76-1.94-21.34c-2.92-32.1-4.28-58.65-4.28-83.54,0-22.98,1.41-45.31,2.98-68.06l1.69-24.4-23.56-6.56-233.83-65.13-93.76-302.99v-.04s-.02-.04-.02-.04c-1.98-6.34-1.38-13,1.68-18.77,3.02-5.69,8.11-9.85,14.33-11.71l.2-.06.2-.06c2.33-.73,4.73-1.11,7.13-1.11h0m0-30c-5.35,0-10.78.8-16.15,2.49-28.95,8.68-45.08,39.22-36.04,68.17l98.6,318.63,249.6,69.52c-1.59,22.97-3.05,46.3-3.05,70.13,0,29.08,1.84,58.03,4.4,86.26l-249.49,111.66-77.95,440.32c-5.13,29.57,14.66,58.16,44.47,63.29,3.24.58,6.46.85,9.64.85,25.88,0,48.95-18.41,53.52-44.96,0,0,59.26-333.66,67.81-383.51,24.07-10.87,102.99-46.3,170.43-75.99,59.01,251.92,228.34,434.21,427.97,434.21s369.09-182.04,428.22-434.21c67.07,29.69,146.12,65.12,170.19,75.99,8.43,49.48,67.68,383.51,67.68,383.51,4.68,26.54,27.67,44.96,53.79,44.96,3.21,0,6.47-.28,9.74-.85,29.81-5.13,49.24-33.35,44.23-63.29l-78.07-440.31-249.23-111.3c2.57-28.22,4.28-57.18,4.28-86.13,0-23.82-1.47-47.28-3.05-70.37l249.48-69.39,98.72-318.75c8.55-28.96-7.7-59.5-36.41-68.3-5.38-1.7-10.83-2.5-16.2-2.5-23.22,0-44.78,15.12-52.22,38.54,0,0-66.83,215.52-81,261.82-28.95,7.82-117.53,32.87-178.61,49.72-2.32-9.78-4.03-19.43-6.36-28.95h-851.07c-2.08,9.53-4.03,19.18-6.11,28.95-61.08-17.22-149.79-41.91-178.62-49.72-14.41-46.3-81.12-261.94-81.12-261.94-7.15-23.34-28.76-38.53-52.02-38.53h0Z"/>
      </g>
    </g>
  </g>
</svg>