<svg viewBox="0 0 2000 2000" xmlns="http://www.w3.org/2000/svg" xml:space="preserve" style="fill-rule:evenodd;clip-rule:evenodd;stroke-linejoin:round;stroke-miterlimit:2">
    <path d="M1399 457.84c0-25.3-15.18-45.84-33.88-45.84H585.88c-18.699 0-33.88 20.54-33.88 45.84v1054.32c0 25.3 15.181 45.84 33.88 45.84h779.24c18.7 0 33.88-20.54 33.88-45.84V457.84Z" style="fill:#e6e6e6" transform="matrix(2.36128 0 0 1.7452 -1303.42 -719.02)"/>
    <path d="M1000 1085.82c-424.332 0-769.553 345.22-769.553 769.55 0 55.44 44.942 100.38 100.376 100.38H1669.18c55.43 0 100.37-44.94 100.37-100.38 0-424.33-345.22-769.55-769.55-769.55Z" style="fill:#172d4d;fill-rule:nonzero"/>
    <path d="M1000 1052.49c-442.712 0-802.887 360.17-802.887 802.88 0 73.85 59.867 133.71 133.71 133.71H1669.18c73.84 0 133.71-59.86 133.71-133.71 0-442.71-360.18-802.88-802.89-802.88Zm0 66.66c405.95 0 736.22 330.27 736.22 736.22 0 37.03-30.02 67.05-67.04 67.05H330.823c-37.026 0-67.043-30.02-67.043-67.05 0-405.95 330.268-736.22 736.22-736.22Z" style="fill:#e5bd73"/>
    <path d="M1000 885.067c231.54 0 419.91-188.367 419.91-419.909 0-231.541-188.37-419.908-419.91-419.908-231.542 0-419.915 188.367-419.915 419.908 0 231.542 188.373 419.909 419.915 419.909Z" style="fill:#172d4d;fill-rule:nonzero"/>
    <path d="M1000 918.4c249.92 0 453.25-203.319 453.25-453.242 0-249.922-203.33-453.241-453.25-453.241-249.922 0-453.249 203.319-453.249 453.241C546.751 715.081 750.078 918.4 1000 918.4Zm0-66.666c-213.162 0-386.582-173.414-386.582-386.576 0-213.161 173.42-386.575 386.582-386.575 213.16 0 386.58 173.414 386.58 386.575 0 213.162-173.42 386.576-386.58 386.576Z" style="fill:#e5bd73"/>
</svg>
