<?xml version="1.0" encoding="UTF-8" standalone="no"?>
<!DOCTYPE svg PUBLIC "-//W3C//DTD SVG 1.1//EN" "http://www.w3.org/Graphics/SVG/1.1/DTD/svg11.dtd">
<svg width="100%" height="100%" viewBox="0 0 2000 2000" version="1.1" xmlns="http://www.w3.org/2000/svg" xmlns:xlink="http://www.w3.org/1999/xlink" xml:space="preserve" xmlns:serif="http://www.serif.com/" style="fill-rule:evenodd;clip-rule:evenodd;stroke-linejoin:round;stroke-miterlimit:2;">
    <g id="user-icon" transform="matrix(1,0,0,1,857.25,857.25)">
        <g id="XMLID_795_" transform="matrix(1,0,0,1,-857.25,-857.25)">
            <path d="M1000,1085.82C575.668,1085.82 230.447,1431.04 230.447,1855.37C230.447,1910.81 275.389,1955.75 330.823,1955.75L1669.18,1955.75C1724.61,1955.75 1769.55,1910.81 1769.55,1855.37C1769.55,1431.04 1424.33,1085.82 1000,1085.82Z" style="fill:rgb(23,45,77);fill-rule:nonzero;"/>
        </g>
        <g transform="matrix(1,0,0,1,-857.25,-857.25)">
            <path d="M1000,1052.49C557.288,1052.49 197.113,1412.66 197.113,1855.37C197.113,1929.22 256.98,1989.08 330.823,1989.08L1669.18,1989.08C1743.02,1989.08 1802.89,1929.22 1802.89,1855.37C1802.89,1412.66 1442.71,1052.49 1000,1052.49ZM1000,1119.15C1405.95,1119.15 1736.22,1449.42 1736.22,1855.37C1736.22,1892.4 1706.2,1922.42 1669.18,1922.42C1669.18,1922.42 330.823,1922.42 330.823,1922.42C293.797,1922.42 263.78,1892.4 263.78,1855.37C263.78,1449.42 594.048,1119.15 1000,1119.15Z" style="fill:rgb(229,189,115);"/>
        </g>
        <g id="XMLID_792_" transform="matrix(1,0,0,1,-857.25,-857.25)">
            <path d="M1000,885.067C1231.54,885.067 1419.91,696.7 1419.91,465.158C1419.91,233.617 1231.54,45.25 1000,45.25C768.458,45.25 580.085,233.617 580.085,465.158C580.085,696.7 768.458,885.067 1000,885.067Z" style="fill:rgb(23,45,77);fill-rule:nonzero;"/>
        </g>
        <g transform="matrix(1,0,0,1,-857.25,-857.25)">
            <path d="M1000,918.4C1249.92,918.4 1453.25,715.081 1453.25,465.158C1453.25,215.236 1249.92,11.917 1000,11.917C750.078,11.917 546.751,215.236 546.751,465.158C546.751,715.081 750.078,918.4 1000,918.4ZM1000,851.734C786.838,851.734 613.418,678.32 613.418,465.158C613.418,251.997 786.838,78.583 1000,78.583C1213.16,78.583 1386.58,251.997 1386.58,465.158C1386.58,678.32 1213.16,851.734 1000,851.734Z" style="fill:rgb(229,189,115);"/>
        </g>
    </g>
</svg>
