<?xml version="1.0" encoding="UTF-8"?>
<svg id="Ebene_1" data-name="Ebene 1" xmlns="http://www.w3.org/2000/svg" viewBox="0 0 2000 2000">
  <defs>
    <style>
      .cls-1 {
        fill: #172d4d;
      }
    </style>
  </defs>
  <rect class="cls-1" x="756.72" y="282" width="468.56" height="468.56" rx="65.57" ry="65.57"/>
  <rect class="cls-1" x="756.72" y="1249.44" width="468.56" height="468.56" rx="65.57" ry="65.57"/>
  <rect class="cls-1" x="1511.04" y="1249.44" width="468.56" height="468.56" rx="65.57" ry="65.57"/>
  <rect class="cls-1" x="20.4" y="1249.44" width="468.56" height="468.56" rx="65.57" ry="65.57" transform="translate(509.36 2967.44) rotate(-180)"/>
  <path class="cls-1" d="m1768.31,969h0c0-2.21-1.79-4-4-4h-746.3c-2.21,0-4-1.79-4-4v-379.99h-46v379.99c0,2.21-1.79,4-4,4H235.66c-2.21,0-4,1.79-4,4v42h.03v379.99c0,2.21,1.79,4,4,4h37.99c2.21,0,4-1.79,4-4v-375.99c0-2.21,1.79-4,4-4h682.31c2.21,0,4,1.79,4,4v375.99c0,2.21,1.79,4,4,4h37.99c2.21,0,4-1.79,4-4v-375.99c0-2.21,1.79-4,4-4h700.31c2.21,0,4,1.79,4,4v375.99c0,2.21,1.79,4,4,4h37.99c2.21,0,4-1.79,4-4v-422h-.01Z"/>
</svg>