<?xml version="1.0" encoding="UTF-8"?>
<svg id="Ebene_1" data-name="Ebene 1" xmlns="http://www.w3.org/2000/svg" xmlns:xlink="http://www.w3.org/1999/xlink" viewBox="0 0 2000 2000">
  <defs>
    <style>
      .cls-1 {
        fill: #fff;
      }

      .cls-2 {
        stroke: #31bd2c;
      }

      .cls-2, .cls-3, .cls-4 {
        fill-rule: evenodd;
      }

      .cls-2, .cls-4 {
        fill: #31bd2c;
        stroke-linecap: round;
        stroke-linejoin: round;
        stroke-width: 33.33px;
      }

      .cls-5 {
        clip-path: url(#clippath);
      }

      .cls-6 {
        fill: #169bbc;
      }

      .cls-7 {
        fill: none;
      }

      .cls-3 {
        fill: #172b4d;
      }

      .cls-4 {
        stroke: #2cbd31;
      }
    </style>
    <clipPath id="clippath">
      <rect class="cls-7" x="16.58" y="16" width="1967.43" height="1967.43"/>
    </clipPath>
  </defs>
  <rect id="lernwelt-icon" class="cls-7" x=".29" y="-13.57" width="2000" height="2000"/>
  <g class="cls-5">
    <g>
      <ellipse class="cls-6" cx="1000.29" cy="999.72" rx="967.59" ry="983.72"/>
      <path class="cls-4" d="m1508.87,693.78l-170.25,30-114.04,115.59-63.94,176.74,55.09,67.22s91.92,75.44,122.9,95.42c30.99,19.98,150.58,15.74,150.58,15.74l73.78-43.28,111.16,61.97s36.88,113.45-4.92,147.56c-41.8,34.11-146.57,130.83-146.57,130.83,0,0-84.83,111.84-93.45,129.85-8.63,18.01-27.59,122.5-23.61,139.69,3.98,17.19,130.83,39.35,130.83,39.35l196.74-181,196.74-343.81,37.98-288.72-43.88-263.14-155.43-80.17-113.13,60.99-131.82-10.82"/>
      <path class="cls-4" d="m400.23,822.64l-31.48-74.76-45.25-53.12,20.66-109.19,173.13-61.32,86.57-32.79,109.19-88.86,53.12-70.83,85.58-32.46,78.7,6.89,1.97-118.05-106.24-26.56-59.02-3.93-116.08-28.53-27.54-18.69-47.71,24.59-138.21,90.5-93.45,77.71-88.53,86.57-62.96,101.65-33.12,71.48-37.71,54.1,110.18-21.64,23.61,48.2,22.63,59.02,65.91,80.66v73.78l40.33,46.23,25.58,13.77-9.84-94.44Z"/>
      <path class="cls-4" d="m1418.37,568.85l-18.69,56.07-86.57,15.74-46.23-57.06,94.44-59.35,9.84-32.79.98-37.71,2.95-64.93-10.82-70.83,107.22,15.74,32.46-25.58,21.64-33.45s16.85-14.62,0-19.67-30.23-16.21-60.01-4.92c-29.78,11.29-35.41,15.74-35.41,15.74l-40.33,26.56-37.38-46.23,37.38-31.48,43.28-22.63,48.2-31.48,158.38,118.05,61.97,74.76,59.02,61.97,60.99,76.07h-51.15l-76.73-16.07-38.36-32.46-52.14,4.92s6.39,9,15.74,23.61c9.35,14.61,36.4,36.4,36.4,36.4v16.4h26.56l-48.2,24.92s-.14,7.91-16.72,10.82c-16.59,2.91-23.61-18.69-23.61-18.69l-.98-27.54-15.74-22.3-17.71-24.92-36.4,24.92h-34.43l-2.95,32.79-47.22,36.72-19.67,7.87Z"/>
      <path class="cls-4" d="m983.57,137l66.89,45.25,49.19,1.97,82.63-9.84,7.87-26.56.98-42.3-38.36-35.41-38.36-21.64h-92.47l-94.44-1.97-7.87,36.4,63.94,54.1Z"/>
      <path class="cls-2" d="m891.1,1275.64l-182.97-143.13-36.4-189.86-327.58.98-88.53,242.98,249.86,321.35,127.88,359.38,262.65-359.38-4.92-232.32"/>
      <path class="cls-3" d="m1000.29,16C457.37,16,16.58,456.79,16.58,999.71s440.79,983.71,983.71,983.71,983.71-440.79,983.71-983.71S1543.21,16,1000.29,16Zm0,70.79c503.86,0,912.92,409.07,912.92,912.93s-409.07,912.92-912.92,912.92S87.37,1503.57,87.37,999.71,496.43,86.79,1000.29,86.79Z"/>
    </g>
  </g>
  <g>
    <path d="m326.55,761.45l95.21,296.78,94.92-296.78h135.35v426.56h-103.12v-99.61l9.96-203.91-103.12,303.52h-67.97l-103.42-303.81,9.96,204.2v99.61h-102.83v-426.56h135.06Z"/>
    <path d="m922.6,1193.87c-48.63,0-87.99-14.5-118.07-43.51-30.08-29-45.12-66.75-45.12-113.23v-8.2c0-32.42,6.01-61.03,18.02-85.84,12.01-24.8,29.54-43.99,52.59-57.57,23.04-13.57,50.39-20.36,82.03-20.36,44.53,0,79.69,13.82,105.47,41.46,25.78,27.64,38.67,66.17,38.67,115.58v38.38h-196.29c3.52,17.78,11.23,31.74,23.14,41.89,11.91,10.16,27.34,15.23,46.29,15.23,31.25,0,55.66-10.94,73.24-32.81l45.12,53.32c-12.3,16.99-29.74,30.52-52.29,40.58-22.56,10.06-46.83,15.09-72.8,15.09Zm-11.13-252.54c-28.91,0-46.1,19.14-51.56,57.42h99.61v-7.62c.39-15.82-3.62-28.07-12.01-36.77-8.4-8.69-20.41-13.04-36.04-13.04Z"/>
    <path d="m1242.96,871.02l3.22,37.21c21.87-28.71,52.05-43.07,90.53-43.07,33,0,57.66,9.86,73.97,29.59,16.31,19.73,24.76,49.42,25.34,89.06v204.2h-99.02v-200.1c0-16.01-3.22-27.78-9.67-35.3-6.45-7.52-18.16-11.28-35.16-11.28-19.34,0-33.69,7.62-43.07,22.85v223.83h-98.73v-316.99h92.58Z"/>
    <path d="m1735.89,1153.74c-20.9,26.76-49.12,40.14-84.67,40.14s-61.08-10.11-78.96-30.32-26.81-49.26-26.81-87.16v-205.37h98.73v205.96c0,27.15,13.18,40.72,39.55,40.72,22.65,0,38.77-8.1,48.34-24.32v-222.36h99.32v316.99h-92.58l-2.93-34.28Zm-168.46-365.62c0-10.74,4.25-19.92,12.74-27.54s18.99-11.43,31.49-11.43,23,3.81,31.49,11.43,12.74,16.8,12.74,27.54-4.25,19.92-12.74,27.54-19,11.43-31.49,11.43-23-3.81-31.49-11.43-12.74-16.8-12.74-27.54Zm152.05,0c0-10.74,4.25-19.92,12.74-27.54s18.99-11.43,31.49-11.43,23,3.81,31.49,11.43,12.74,16.8,12.74,27.54-4.25,19.92-12.74,27.54-19,11.43-31.49,11.43-23-3.81-31.49-11.43-12.74-16.8-12.74-27.54Z"/>
  </g>
  <g>
    <path class="cls-1" d="m309.79,747.54l95.21,296.78,94.92-296.78h135.35v426.56h-103.12v-99.61l9.96-203.91-103.12,303.52h-67.97l-103.42-303.81,9.96,204.2v99.61h-102.83v-426.56h135.06Z"/>
    <path class="cls-1" d="m905.84,1179.96c-48.63,0-87.99-14.5-118.07-43.51-30.08-29-45.12-66.75-45.12-113.23v-8.2c0-32.42,6.01-61.03,18.02-85.84,12.01-24.8,29.54-43.99,52.59-57.57,23.04-13.57,50.39-20.36,82.03-20.36,44.53,0,79.69,13.82,105.47,41.46,25.78,27.64,38.67,66.17,38.67,115.58v38.38h-196.29c3.52,17.77,11.23,31.74,23.14,41.89,11.91,10.16,27.34,15.23,46.29,15.23,31.25,0,55.66-10.94,73.24-32.81l45.12,53.32c-12.3,16.99-29.74,30.52-52.29,40.58-22.56,10.06-46.83,15.09-72.8,15.09Zm-11.13-252.54c-28.91,0-46.1,19.14-51.56,57.42h99.61v-7.62c.39-15.82-3.62-28.07-12.01-36.77-8.4-8.69-20.41-13.04-36.04-13.04Z"/>
    <path class="cls-1" d="m1226.2,857.11l3.22,37.21c21.87-28.71,52.05-43.07,90.53-43.07,33,0,57.66,9.86,73.97,29.59,16.31,19.73,24.76,49.42,25.34,89.06v204.2h-99.02v-200.1c0-16.01-3.22-27.78-9.67-35.3-6.45-7.52-18.16-11.28-35.16-11.28-19.34,0-33.69,7.62-43.07,22.85v223.83h-98.73v-316.99h92.58Z"/>
    <path class="cls-1" d="m1719.13,1139.82c-20.9,26.76-49.12,40.14-84.67,40.14s-61.08-10.11-78.96-30.32-26.81-49.26-26.81-87.16v-205.37h98.73v205.96c0,27.15,13.18,40.72,39.55,40.72,22.65,0,38.77-8.1,48.34-24.32v-222.36h99.32v316.99h-92.58l-2.93-34.28Zm-168.46-365.62c0-10.74,4.25-19.92,12.74-27.54s18.99-11.43,31.49-11.43,23,3.81,31.49,11.43,12.74,16.8,12.74,27.54-4.25,19.92-12.74,27.54-19,11.43-31.49,11.43-23-3.81-31.49-11.43-12.74-16.8-12.74-27.54Zm152.05,0c0-10.74,4.25-19.92,12.74-27.54s18.99-11.43,31.49-11.43,23,3.81,31.49,11.43,12.74,16.8,12.74,27.54-4.25,19.92-12.74,27.54-19,11.43-31.49,11.43-23-3.81-31.49-11.43-12.74-16.8-12.74-27.54Z"/>
  </g>
</svg>