<?xml version="1.0" encoding="UTF-8"?>
<svg id="Ebene_1" data-name="Ebene 1" xmlns="http://www.w3.org/2000/svg" xmlns:xlink="http://www.w3.org/1999/xlink" viewBox="0 0 2000 2000">
  <defs>
    <style>
      .cls-1 {
        stroke: #31bd2c;
      }

      .cls-1, .cls-2, .cls-3 {
        fill-rule: evenodd;
      }

      .cls-1, .cls-3 {
        fill: #31bd2c;
        stroke-linecap: round;
        stroke-linejoin: round;
        stroke-width: 33.33px;
      }

      .cls-4, .cls-5 {
        font-family: Roboto-Black, Roboto;
        font-size: 600px;
        font-weight: 800;
        letter-spacing: .09em;
      }

      .cls-6 {
        clip-path: url(#clippath);
      }

      .cls-7 {
        fill: #169bbc;
      }

      .cls-8 {
        fill: none;
      }

      .cls-2 {
        fill: #172b4d;
      }

      .cls-3 {
        stroke: #2cbd31;
      }

      .cls-5 {
        fill: #fff;
      }
    </style>
    <clipPath id="clippath">
      <rect class="cls-8" x="16.58" y="16" width="1967.43" height="1967.43"/>
    </clipPath>
  </defs>
  <rect id="lernwelt-icon" class="cls-8" x=".29" y="-13.57" width="2000" height="2000"/>
  <g class="cls-6">
    <g>
      <ellipse class="cls-7" cx="1000.29" cy="999.72" rx="967.59" ry="983.72"/>
      <path class="cls-3" d="M1508.87,693.78l-170.25,30-114.04,115.59-63.94,176.74,55.09,67.22s91.92,75.44,122.9,95.42c30.99,19.98,150.58,15.74,150.58,15.74l73.78-43.28,111.16,61.97s36.88,113.45-4.92,147.56c-41.8,34.11-146.57,130.83-146.57,130.83,0,0-84.83,111.84-93.45,129.85-8.63,18.01-27.59,122.5-23.61,139.69,3.98,17.19,130.83,39.35,130.83,39.35l196.74-181,196.74-343.81,37.98-288.72-43.88-263.14-155.43-80.17-113.13,60.99-131.82-10.82"/>
      <path class="cls-3" d="M400.23,822.64l-31.48-74.76-45.25-53.12,20.66-109.19,173.13-61.32,86.57-32.79,109.19-88.86,53.12-70.83,85.58-32.46,78.7,6.89,1.97-118.05-106.24-26.56-59.02-3.93-116.08-28.53-27.54-18.69-47.71,24.59-138.21,90.5-93.45,77.71-88.53,86.57-62.96,101.65-33.12,71.48-37.71,54.1,110.18-21.64,23.61,48.2,22.63,59.02,65.91,80.66v73.78l40.33,46.23,25.58,13.77-9.84-94.44Z"/>
      <path class="cls-3" d="M1418.37,568.85l-18.69,56.07-86.57,15.74-46.23-57.06,94.44-59.35,9.84-32.79,.98-37.71,2.95-64.93-10.82-70.83,107.22,15.74,32.46-25.58,21.64-33.45s16.85-14.62,0-19.67-30.23-16.21-60.01-4.92c-29.78,11.29-35.41,15.74-35.41,15.74l-40.33,26.56-37.38-46.23,37.38-31.48,43.28-22.63,48.2-31.48,158.38,118.05,61.97,74.76,59.02,61.97,60.99,76.07h-51.15l-76.73-16.07-38.36-32.46-52.14,4.92s6.39,9,15.74,23.61c9.35,14.61,36.4,36.4,36.4,36.4v16.4h26.56l-48.2,24.92s-.14,7.91-16.72,10.82c-16.59,2.91-23.61-18.69-23.61-18.69l-.98-27.54-15.74-22.3-17.71-24.92-36.4,24.92h-34.43l-2.95,32.79-47.22,36.72-19.67,7.87Z"/>
      <path class="cls-3" d="M983.57,137l66.89,45.25,49.19,1.97,82.63-9.84,7.87-26.56,.98-42.3-38.36-35.41-38.36-21.64h-92.47l-94.44-1.97-7.87,36.4,63.94,54.1Z"/>
      <path class="cls-1" d="M891.1,1275.64l-182.97-143.13-36.4-189.86-327.58,.98-88.53,242.98,249.86,321.35,127.88,359.38,262.65-359.38-4.92-232.32"/>
      <path class="cls-2" d="M1000.29,16C457.37,16,16.58,456.79,16.58,999.71s440.79,983.71,983.71,983.71,983.71-440.79,983.71-983.71S1543.21,16,1000.29,16Zm0,70.79c503.86,0,912.92,409.07,912.92,912.93s-409.07,912.92-912.92,912.92S87.37,1503.57,87.37,999.71,496.43,86.79,1000.29,86.79Z"/>
    </g>
  </g>
  <text class="cls-4" transform="translate(159.27 1188.01)"><tspan x="0" y="0">Menü</tspan></text>
  <text class="cls-5" transform="translate(142.5 1174.1)"><tspan x="0" y="0">Menü</tspan></text>
</svg>