<svg id="Ebene_1" data-name="Ebene 1" xmlns="http://www.w3.org/2000/svg" viewBox="0 0 2000 2000">
    <defs>
        <style>
            .cls-4,.cls-5{stroke-width:60px;fill:none;stroke:#172d4d;stroke-miterlimit:10}.cls-5{stroke-linecap:round;stroke-width:50px}
        </style>
    </defs>
    <path d="M2000.01 80c0-44.15-35.84-80-80-80h-1840C35.85 0 0 35.85 0 80v1840c0 44.15 35.85 80 80 80h1840c44.16 0 80-35.85 80-80V80Z" style="stroke-width:0;fill:#e6e6e6;fill-rule:evenodd"/>
    <circle class="cls-4" cx="1000" cy="1000" r="946.1"/>
    <circle class="cls-4" cx="1000" cy="1000" r="756.88"/>
    <circle class="cls-4" cx="1000" cy="1000" r="567.66"/>
    <circle class="cls-4" cx="1000" cy="1000" r="368.98"/>
    <circle cx="1000" cy="1000" r="57.9" style="fill:#172d4d;stroke-width:0"/>
    <path style="stroke-linecap:round;fill:none;stroke:#172d4d;stroke-miterlimit:10;stroke-width:60px" d="m995.17 1000 817.16 808.43"/>
    <path class="cls-5" d="m1686.94 1684.63 164.74-.79M1746.7 1741.02l164.75-.79M1806.68 1797.62l164.75-.8M1816.43 1971.43l-9.37-164.3M1756.18 1915.12l-9.38-164.3M1696.14 1859.02l-9.37-164.3M1003.09-21.71v2043.42M-18.63 1000H2024.8"/>
</svg>
