<?xml version="1.0" encoding="UTF-8" standalone="no"?>
<!DOCTYPE svg PUBLIC "-//W3C//DTD SVG 1.1//EN" "http://www.w3.org/Graphics/SVG/1.1/DTD/svg11.dtd">
<svg width="100%" height="100%" viewBox="0 0 2000 2000" version="1.1" xmlns="http://www.w3.org/2000/svg" xmlns:xlink="http://www.w3.org/1999/xlink" xml:space="preserve" xmlns:serif="http://www.serif.com/" style="fill-rule:evenodd;clip-rule:evenodd;stroke-linecap:round;stroke-linejoin:round;stroke-miterlimit:1.5;">
    <g transform="matrix(3.85942,0.458553,-0.458553,3.85942,99.8088,-136.754)">
        <g id="lernziel-icon">
            <g>
                <g transform="matrix(0.982073,-0.188501,0.188501,0.982073,-49.8259,63.0781)">
                    <g transform="matrix(0.261006,0.0502045,-0.0502045,0.261006,48.1566,-49.7115)">
                        <path d="M1803,169.16C1803,149.203 1786.8,133 1766.84,133L335.16,133C315.203,133 299,149.203 299,169.16L299,1000.84C299,1020.8 315.203,1037 335.16,1037L1766.84,1037C1786.8,1037 1803,1020.8 1803,1000.84L1803,169.16Z"/>
                    </g>
                    <g transform="matrix(0.261006,0.0502045,-0.0502045,0.261006,48.1566,-49.7115)">
                        <path d="M384,906.25C384,894.522 374.478,885 362.75,885L320.25,885C308.522,885 299,894.522 299,906.25L299,1950.75C299,1962.48 308.522,1972 320.25,1972L362.75,1972C374.478,1972 384,1962.48 384,1950.75L384,906.25Z"/>
                    </g>
                </g>
                <g>
                    <g transform="matrix(0.292865,0.000187929,-0.000187929,0.292865,125.368,-258.401)">
                        <rect x="890" y="1286" width="278" height="278" style="fill:white;"/>
                    </g>
                    <g transform="matrix(0.292865,0.000187929,-0.000187929,0.292865,-37.5697,-258.401)">
                        <rect x="890" y="1286" width="278" height="278" style="fill:white;"/>
                    </g>
                    <g transform="matrix(0.265662,0.000170472,-0.000187929,0.292865,-168.733,-258.38)">
                        <rect x="890" y="1286" width="278" height="278" style="fill:white;"/>
                    </g>
                    <g transform="matrix(0.292865,0.000187929,-0.000179908,0.280367,43.8865,-320.064)">
                        <rect x="890" y="1286" width="278" height="278" style="fill:white;"/>
                    </g>
                    <g transform="matrix(0.292865,0.000187929,-0.000187929,0.292865,-119.039,-339.612)">
                        <rect x="890" y="1286" width="278" height="278" style="fill:white;"/>
                    </g>
                    <g transform="matrix(0.292865,0.000187929,-0.000187929,0.292865,43.8991,-177.271)">
                        <rect x="890" y="1286" width="278" height="278" style="fill:white;"/>
                    </g>
                    <g transform="matrix(0.292865,0.000187929,-0.000187929,0.292865,-119.039,-177.271)">
                        <rect x="890" y="1286" width="278" height="278" style="fill:white;"/>
                    </g>
                </g>
                <g transform="matrix(0.257296,6.93889e-18,-6.93889e-18,0.257296,2.984,-4.81118)">
                    <path d="M250.942,213.698L250.22,2054.11C250.215,2066.22 260.047,2076.06 272.163,2076.07L316.066,2076.08C328.181,2076.09 338.021,2066.26 338.026,2054.14L338.397,1110.22L1766.89,1110.79C1787.51,1110.79 1804.25,1094.06 1804.26,1073.45L1804.6,214.308C1804.6,193.692 1787.87,176.948 1767.26,176.94L288.311,176.359C267.695,176.351 250.95,193.082 250.942,213.698Z" style="fill:none;stroke:rgb(229,189,115);stroke-width:45.83px;"/>
                </g>
            </g>
        </g>
    </g>
</svg>
