<svg viewBox="0 0 2000 2000" xmlns="http://www.w3.org/2000/svg" xml:space="preserve" style="fill-rule:evenodd;clip-rule:evenodd;stroke-linejoin:round;stroke-miterlimit:2">
    <path style="fill:none" d="M2208.33 0h2000v2000h-2000z" transform="translate(-2208.333)"/>
    <path d="M1066.94 950.354a1.01 1.01 0 0 0-1.01-1.013H878.572c-.559 0-1.013.454-1.013 1.013v48.633c0 .559.454 1.013 1.013 1.013h187.358c.56 0 1.01-.454 1.01-1.013v-48.633Z" style="fill:#172d4f" transform="translate(-1831.85 -1003.12) scale(2.91267)"/>
    <path d="M1066.94 956.94c0-4.194-.39-7.599-.87-7.599H878.437c-.485 0-.878 3.405-.878 7.599v35.461c0 4.194.393 7.599.878 7.599h187.633c.48 0 .87-3.405.87-7.599V956.94Z" style="fill:#172d4f" transform="matrix(8.40958 0 0 .97187 -7176.25 955.03)"/>
    <path d="M4189.7 188.195c0-58.895-47.81-106.71-106.71-106.71H2333.01c-58.9 0-106.71 47.815-106.71 106.71V1752.73c0 58.89 47.81 106.71 106.71 106.71h1749.98c58.9 0 106.71-47.82 106.71-106.71V188.195Z" style="fill:#172d4f" transform="matrix(1 0 0 1 -2207.998 .004)"/>
    <path d="M1302.5 569.901c0-6.932-7.92-12.56-17.68-12.56H659.686c-9.761 0-17.686 5.628-17.686 12.56V963.44c0 6.932 7.925 12.56 17.686 12.56h625.134c9.76 0 17.68-5.628 17.68-12.56V569.901Z" style="fill:#cdd7e4" transform="matrix(2.72148 0 0 3.83226 -1645.965 -1967.613)"/>
    <circle cx="289.99" cy="272" r="96" style="fill:#e5bc71" transform="matrix(4.83201 0 0 4.83201 -401.232 -364.01)"/>
    <path d="m990.236 816 75.714 151.426H914.523L990.236 816Z" style="fill:#172d4f" transform="matrix(0 3.6423 -3.03898 0 3767.74 -2647.618)"/>
</svg>
