<?xml version="1.0" encoding="UTF-8"?>
<svg xmlns="http://www.w3.org/2000/svg" viewBox="0 0 2000 2000">
  <defs>
    <style>
      .cls-1 {
        fill: #fff;
      }

      .cls-1, .cls-2 {
        stroke: #172d4d;
        stroke-miterlimit: 10;
        stroke-width: 70px;
      }

      .cls-3 {
        fill: #e5bd73;
      }

      .cls-3, .cls-4 {
        fill-rule: evenodd;
      }

      .cls-2 {
        fill: none;
        stroke-linecap: round;
      }

      .cls-4 {
        fill: #e5a52e;
      }
    </style>
  </defs>
  <g id="R-File_Back" data-name="R-File Back">
    <polygon class="cls-4" points="36.53 1958 36.53 738.32 309.44 738 418.62 960.8 1576.39 960.53 1589 1958 36.53 1958"/>
  </g>
  <g id="R-Metadata_Back" data-name="R-Metadata Back">
    <rect class="cls-1" x="443.49" y="60.4" width="915" height="1356" rx="137.35" ry="137.35"/>
    <line class="cls-2" x1="593.49" y1="289.4" x2="925.49" y2="289.4"/>
    <line class="cls-2" x1="878.49" y1="644.4" x2="1210.49" y2="644.4"/>
    <line class="cls-2" x1="593.49" y1="1214.4" x2="925.49" y2="1214.4"/>
    <line class="cls-2" x1="1093.49" y1="1206.74" x2="1202.05" y2="1206.74"/>
    <line class="cls-2" x1="1103.77" y1="289.74" x2="1212.32" y2="289.74"/>
    <line class="cls-2" x1="601.77" y1="644.74" x2="710.32" y2="644.74"/>
    <line class="cls-2" x1="593.49" y1="466.4" x2="1210.49" y2="466.4"/>
    <line class="cls-2" x1="593.49" y1="820.4" x2="1210.49" y2="820.4"/>
    <line class="cls-2" x1="593.49" y1="1028.4" x2="817.49" y2="1028.4"/>
    <line class="cls-2" x1="982.49" y1="1028.4" x2="1202.49" y2="1028.4"/>
  </g>
  <g id="R-Metadata_Front" data-name="R-Metadata Front">
    <rect class="cls-1" x="752.49" y="408.4" width="915" height="1356" rx="137.35" ry="137.35"/>
    <line class="cls-2" x1="902.49" y1="637.4" x2="1234.49" y2="637.4"/>
    <line class="cls-2" x1="1187.49" y1="992.4" x2="1519.49" y2="992.4"/>
    <line class="cls-2" x1="902.49" y1="1562.4" x2="1234.49" y2="1562.4"/>
    <line class="cls-2" x1="1402.49" y1="1554.74" x2="1511.05" y2="1554.74"/>
    <line class="cls-2" x1="1412.77" y1="637.74" x2="1521.32" y2="637.74"/>
    <line class="cls-2" x1="910.77" y1="992.74" x2="1019.32" y2="992.74"/>
    <line class="cls-2" x1="902.49" y1="814.4" x2="1519.49" y2="814.4"/>
    <line class="cls-2" x1="902.49" y1="1168.4" x2="1519.49" y2="1168.4"/>
    <line class="cls-2" x1="902.49" y1="1376.4" x2="1126.49" y2="1376.4"/>
    <line class="cls-2" x1="1291.49" y1="1376.4" x2="1511.49" y2="1376.4"/>
  </g>
  <g id="R-File_Front" data-name="R-File Front">
    <polygon class="cls-3" points="94 1955 1592.72 1955 1975 953.21 474.86 953.21 94 1955"/>
  </g>
</svg>