<?xml version="1.0" encoding="UTF-8" standalone="no"?>
<!DOCTYPE svg PUBLIC "-//W3C//DTD SVG 1.1//EN" "http://www.w3.org/Graphics/SVG/1.1/DTD/svg11.dtd">
<svg width="100%" height="100%" viewBox="0 0 2000 2000" version="1.1" xmlns="http://www.w3.org/2000/svg" xmlns:xlink="http://www.w3.org/1999/xlink" xml:space="preserve" xmlns:serif="http://www.serif.com/" style="fill-rule:evenodd;clip-rule:evenodd;stroke-linejoin:round;stroke-miterlimit:2;">
    <g transform="matrix(1,0,0,1,-47,-4336.41)">
        <g id="Aufgabe_leicht_v3-icon" transform="matrix(1,0,0,1,-2161.33,4336.41)">
            <rect x="2208.33" y="0" width="2000" height="2000" style="fill:none;"/>
            <g id="Halter" transform="matrix(3.97862,0,0,2.64199,-773.308,-1194.21)">
                <path d="M1243,568.624C1243,541.788 1228.53,520 1210.71,520L791.289,520C773.468,520 759,541.788 759,568.624L759,1150.38C759,1177.21 773.468,1199 791.289,1199L1210.71,1199C1228.53,1199 1243,1177.21 1243,1150.38L1243,568.624Z" style="fill:rgb(82,82,82);"/>
            </g>
            <g transform="matrix(3.97862,0,0,2.64199,-773.308,-1194.21)">
                <path d="M1243.13,568.624C1243.13,541.683 1228.6,519.811 1210.71,519.811L791.289,519.811C773.399,519.811 758.874,541.683 758.874,568.624L758.874,1150.38C758.874,1177.32 773.399,1199.19 791.289,1199.19C791.289,1199.19 1210.71,1199.19 1210.71,1199.19C1228.6,1199.19 1243.13,1177.32 1243.13,1150.38C1243.13,1150.38 1243.13,568.624 1243.13,568.624ZM1242.87,568.624L1242.87,1150.38C1242.87,1177.11 1228.46,1198.81 1210.71,1198.81L791.289,1198.81C773.537,1198.81 759.126,1177.11 759.126,1150.38L759.126,568.624C759.126,541.892 773.537,520.189 791.289,520.189C791.289,520.189 1210.71,520.189 1210.71,520.189C1228.46,520.189 1242.87,541.892 1242.87,568.624Z" style="fill:rgb(228,188,115);"/>
            </g>
            <g id="Papier" transform="matrix(3.44814,0,0,2.26779,-242.295,-872.583)">
                <path d="M1243,564.162C1243,539.788 1229.99,520 1213.96,520L788.044,520C772.014,520 759,539.788 759,564.162L759,1154.84C759,1179.21 772.014,1199 788.044,1199L1213.96,1199C1229.99,1199 1243,1179.21 1243,1154.84L1243,564.162Z" style="fill:white;"/>
            </g>
            <g transform="matrix(3.44814,0,0,2.26779,-242.295,-872.583)">
                <path d="M1243,564.162C1243,539.788 1229.99,520 1213.96,520L788.044,520C772.014,520 759,539.788 759,564.162L759,1154.84C759,1179.21 772.014,1199 788.044,1199L1213.96,1199C1229.99,1199 1243,1179.21 1243,1154.84L1243,564.162ZM1228.5,564.162L1228.5,1154.84C1228.5,1167.04 1221.98,1176.95 1213.96,1176.95C1213.96,1176.95 788.044,1176.95 788.044,1176.95C780.017,1176.95 773.501,1167.04 773.501,1154.84C773.501,1154.84 773.501,564.162 773.501,564.162C773.501,551.957 780.017,542.048 788.044,542.048C788.044,542.048 1213.96,542.048 1213.96,542.048C1221.98,542.048 1228.5,551.957 1228.5,564.162Z" style="fill:rgb(36,178,43);"/>
            </g>
            <g id="Klammer" transform="matrix(2.53261,0,0,2.53261,664.421,-1120.07)">
                <path d="M992,480L952,480C938.754,480 928,490.754 928,504L928,552C928,565.246 938.754,576 952,576L1064,576C1077.25,576 1088,565.246 1088,552L1088,504C1088,490.754 1077.25,480 1064,480L1024,480L1024,456C1024,451.585 1020.42,448 1016,448L1000,448C995.585,448 992,451.585 992,456L992,480Z" style="fill:rgb(228,188,115);"/>
            </g>
            <g id="Fliesstext" transform="matrix(1.35783,0,0,1.35783,1702.1,-544.375)">
                <g transform="matrix(2.53261,0,0,2.53261,-1585.39,-1040.09)">
                    <path d="M960,806.058L1088,806.058C1091.34,806.058 1094.06,803.344 1094.06,800C1094.06,796.656 1091.34,793.942 1088,793.942L960,793.942C956.656,793.942 953.942,796.656 953.942,800C953.942,803.344 956.656,806.058 960,806.058Z" style="fill:rgb(36,178,43);"/>
                </g>
                <g transform="matrix(2.53261,0,0,2.53261,-1585.39,-1040.09)">
                    <path d="M1120,806.058L1184,806.058C1187.34,806.058 1190.06,803.344 1190.06,800C1190.06,796.656 1187.34,793.942 1184,793.942L1120,793.942C1116.66,793.942 1113.94,796.656 1113.94,800C1113.94,803.344 1116.66,806.058 1120,806.058Z" style="fill:rgb(36,178,43);"/>
                </g>
                <g transform="matrix(2.53261,0,0,2.53261,-1585.39,-1040.09)">
                    <path d="M960,838.058L1024,838.058C1027.34,838.058 1030.06,835.344 1030.06,832C1030.06,828.656 1027.34,825.942 1024,825.942L960,825.942C956.656,825.942 953.942,828.656 953.942,832C953.942,835.344 956.656,838.058 960,838.058Z" style="fill:rgb(36,178,43);"/>
                </g>
                <g transform="matrix(2.53261,0,0,2.53261,-1585.39,-1040.09)">
                    <path d="M1056,838.058L1184,838.058C1187.34,838.058 1190.06,835.344 1190.06,832C1190.06,828.656 1187.34,825.942 1184,825.942L1056,825.942C1052.66,825.942 1049.94,828.656 1049.94,832C1049.94,835.344 1052.66,838.058 1056,838.058Z" style="fill:rgb(36,178,43);"/>
                </g>
                <g transform="matrix(2.53261,0,0,2.53261,-1585.39,-1040.09)">
                    <path d="M960,870.058L992,870.058C995.344,870.058 998.058,867.344 998.058,864C998.058,860.656 995.344,857.942 992,857.942L960,857.942C956.656,857.942 953.942,860.656 953.942,864C953.942,867.344 956.656,870.058 960,870.058Z" style="fill:rgb(36,178,43);"/>
                </g>
                <g transform="matrix(2.53261,0,0,2.53261,-1585.39,-1040.09)">
                    <path d="M1024,870.058L1088,870.058C1091.34,870.058 1094.06,867.344 1094.06,864C1094.06,860.656 1091.34,857.942 1088,857.942L1024,857.942C1020.66,857.942 1017.94,860.656 1017.94,864C1017.94,867.344 1020.66,870.058 1024,870.058Z" style="fill:rgb(36,178,43);"/>
                </g>
                <g transform="matrix(2.53261,0,0,2.53261,-1585.39,-1040.09)">
                    <path d="M1120,870.058L1184,870.058C1187.34,870.058 1190.06,867.344 1190.06,864C1190.06,860.656 1187.34,857.942 1184,857.942L1120,857.942C1116.66,857.942 1113.94,860.656 1113.94,864C1113.94,867.344 1116.66,870.058 1120,870.058Z" style="fill:rgb(36,178,43);"/>
                </g>
            </g>
            <g id="Fliesstext1" serif:id="Fliesstext" transform="matrix(1.35783,0,0,1.35783,1702.1,-225.005)">
                <g transform="matrix(2.53261,0,0,2.53261,-1585.39,-1040.09)">
                    <path d="M960,806.058L1088,806.058C1091.34,806.058 1094.06,803.344 1094.06,800C1094.06,796.656 1091.34,793.942 1088,793.942L960,793.942C956.656,793.942 953.942,796.656 953.942,800C953.942,803.344 956.656,806.058 960,806.058Z" style="fill:rgb(36,178,43);"/>
                </g>
                <g transform="matrix(2.53261,0,0,2.53261,-1585.39,-1040.09)">
                    <path d="M1120,806.058L1184,806.058C1187.34,806.058 1190.06,803.344 1190.06,800C1190.06,796.656 1187.34,793.942 1184,793.942L1120,793.942C1116.66,793.942 1113.94,796.656 1113.94,800C1113.94,803.344 1116.66,806.058 1120,806.058Z" style="fill:rgb(36,178,43);"/>
                </g>
                <g transform="matrix(2.53261,0,0,2.53261,-1585.39,-1040.09)">
                    <path d="M960,838.058L1024,838.058C1027.34,838.058 1030.06,835.344 1030.06,832C1030.06,828.656 1027.34,825.942 1024,825.942L960,825.942C956.656,825.942 953.942,828.656 953.942,832C953.942,835.344 956.656,838.058 960,838.058Z" style="fill:rgb(36,178,43);"/>
                </g>
                <g transform="matrix(2.53261,0,0,2.53261,-1585.39,-1040.09)">
                    <path d="M1056,838.058L1184,838.058C1187.34,838.058 1190.06,835.344 1190.06,832C1190.06,828.656 1187.34,825.942 1184,825.942L1056,825.942C1052.66,825.942 1049.94,828.656 1049.94,832C1049.94,835.344 1052.66,838.058 1056,838.058Z" style="fill:rgb(36,178,43);"/>
                </g>
                <g transform="matrix(2.53261,0,0,2.53261,-1585.39,-1040.09)">
                    <path d="M960,870.058L992,870.058C995.344,870.058 998.058,867.344 998.058,864C998.058,860.656 995.344,857.942 992,857.942L960,857.942C956.656,857.942 953.942,860.656 953.942,864C953.942,867.344 956.656,870.058 960,870.058Z" style="fill:rgb(36,178,43);"/>
                </g>
                <g transform="matrix(2.53261,0,0,2.53261,-1585.39,-1040.09)">
                    <path d="M1024,870.058L1088,870.058C1091.34,870.058 1094.06,867.344 1094.06,864C1094.06,860.656 1091.34,857.942 1088,857.942L1024,857.942C1020.66,857.942 1017.94,860.656 1017.94,864C1017.94,867.344 1020.66,870.058 1024,870.058Z" style="fill:rgb(36,178,43);"/>
                </g>
                <g transform="matrix(2.53261,0,0,2.53261,-1585.39,-1040.09)">
                    <path d="M1120,870.058L1184,870.058C1187.34,870.058 1190.06,867.344 1190.06,864C1190.06,860.656 1187.34,857.942 1184,857.942L1120,857.942C1116.66,857.942 1113.94,860.656 1113.94,864C1113.94,867.344 1116.66,870.058 1120,870.058Z" style="fill:rgb(36,178,43);"/>
                </g>
            </g>
            <g id="Ueberschrift" transform="matrix(1.63938,0,0,1.63938,1918.19,-536.822)">
                <path d="M655.462,622.456L611.008,622.456L611.008,743L575.302,743L575.302,622.456L531.662,622.456L531.662,594.888L655.462,594.888L655.462,622.456Z" style="fill:rgb(36,178,43);fill-rule:nonzero;"/>
                <path d="M643.458,686.949C643.458,675.963 645.594,666.18 649.867,657.602C654.139,649.023 660.277,642.428 668.279,637.816C676.282,633.205 685.674,630.899 696.457,630.899C712.937,630.899 725.923,636.002 735.418,646.208C744.912,656.415 749.659,670.3 749.659,687.865L749.659,689.086C749.659,706.243 744.895,719.858 735.367,729.928C725.839,739.999 712.937,745.035 696.66,745.035C680.995,745.035 668.415,740.338 658.92,730.946C649.426,721.553 644.306,708.82 643.56,692.748L643.458,686.949ZM677.74,689.086C677.74,699.258 679.333,706.718 682.521,711.465C685.708,716.212 690.421,718.586 696.66,718.586C708.868,718.586 715.107,709.193 715.378,690.408L715.378,686.949C715.378,667.215 709.071,657.347 696.457,657.347C684.996,657.347 678.791,665.858 677.841,682.88L677.74,689.086Z" style="fill:rgb(36,178,43);fill-rule:nonzero;"/>
                <path d="M818.222,743L818.222,594.888L865.931,594.888C879.02,594.888 890.786,597.855 901.23,603.789C911.674,609.723 919.829,618.098 925.695,628.915C931.561,639.732 934.528,651.854 934.596,665.282L934.596,672.097C934.596,685.661 931.731,697.817 926,708.566C920.27,719.315 912.199,727.724 901.789,733.794C891.38,739.863 879.766,742.932 866.949,743L818.222,743ZM853.928,622.456L853.928,715.534L866.338,715.534C876.579,715.534 884.445,711.889 889.938,704.599C895.432,697.308 898.178,686.475 898.178,672.097L898.178,665.689C898.178,651.379 895.432,640.597 889.938,633.34C884.445,626.084 876.443,622.456 865.931,622.456L853.928,622.456Z" style="fill:rgb(36,178,43);fill-rule:nonzero;"/>
                <path d="M947.006,686.949C947.006,675.963 949.143,666.18 953.415,657.602C957.687,649.023 963.825,642.428 971.827,637.816C979.83,633.205 989.222,630.899 1000,630.899C1016.49,630.899 1029.47,636.002 1038.97,646.208C1048.46,656.415 1053.21,670.3 1053.21,687.865L1053.21,689.086C1053.21,706.243 1048.44,719.858 1038.91,729.928C1029.39,739.999 1016.49,745.035 1000.21,745.035C984.543,745.035 971.963,740.338 962.469,730.946C952.974,721.553 947.854,708.82 947.108,692.748L947.006,686.949ZM981.288,689.086C981.288,699.258 982.881,706.718 986.069,711.465C989.256,716.212 993.97,718.586 1000.21,718.586C1012.42,718.586 1018.65,709.193 1018.93,690.408L1018.93,686.949C1018.93,667.215 1012.62,657.347 1000,657.347C988.544,657.347 982.339,665.858 981.389,682.88L981.288,689.086Z" style="fill:rgb(36,178,43);fill-rule:nonzero;"/>
            </g>
            <g id="Schwierigkeitsangabe" transform="matrix(4.46272,0,0,4.46272,-781.309,-1827.56)">
                <path d="M928,752C928,743.169 920.831,736 912,736L880,736C871.169,736 864,743.169 864,752L864,784C864,792.831 871.169,800 880,800L912,800C920.831,800 928,792.831 928,784L928,752Z" style="fill:rgb(36,178,43);"/>
            </g>
        </g>
    </g>
</svg>
