<svg viewBox="0 0 2000 2000" xmlns="http://www.w3.org/2000/svg" xml:space="preserve" style="fill-rule:evenodd;clip-rule:evenodd;stroke-linecap:round;stroke-linejoin:round;stroke-miterlimit:1.5">
    <path style="fill:none" d="M6573.33 0h2000v2000h-2000z" transform="translate(-6573.33)"/>
    <path d="M1399 457.84c0-25.3-15.18-45.84-33.88-45.84H585.88c-18.699 0-33.88 20.54-33.88 45.84v1054.32c0 25.3 15.181 45.84 33.88 45.84h779.24c18.7 0 33.88-20.54 33.88-45.84V457.84Z" style="fill:#e6e6e6" transform="matrix(2.36128 0 0 1.7452 -1303.42 -719.023)"/>
    <path d="M1243 568.624c0-26.836-14.47-48.624-32.29-48.624H791.289C773.468 520 759 541.788 759 568.624v581.756c0 26.83 14.468 48.62 32.289 48.62h419.421c17.82 0 32.29-21.79 32.29-48.62V568.624Z" style="fill:#525252;stroke:#e4bc73;stroke-width:.3px" transform="matrix(3.97862 0 0 2.64199 -2982.6 -1208.75)"/>
    <path d="M1243 564.162c0-24.374-13.01-44.162-29.04-44.162H788.044C772.014 520 759 539.788 759 564.162v590.678c0 24.37 13.014 44.16 29.044 44.16h425.916c16.03 0 29.04-19.79 29.04-44.16V564.162Z" style="fill:#fff" transform="matrix(3.44814 0 0 2.26779 -2451.58 -887.118)"/>
    <path d="M1243 564.162c0-24.374-13.01-44.162-29.04-44.162H788.044C772.014 520 759 539.788 759 564.162v590.678c0 24.37 13.014 44.16 29.044 44.16h425.916c16.03 0 29.04-19.79 29.04-44.16V564.162Zm-14.5 0v590.678c0 12.2-6.52 22.11-14.54 22.11H788.044c-8.027 0-14.543-9.91-14.543-22.11V564.162c0-12.205 6.516-22.114 14.543-22.114h425.916c8.02 0 14.54 9.909 14.54 22.114Z" style="fill:#b91414" transform="matrix(3.44814 0 0 2.26779 -2451.58 -887.118)"/>
    <path d="M992 480h-40c-13.246 0-24 10.754-24 24v48c0 13.246 10.754 24 24 24h112c13.25 0 24-10.754 24-24v-48c0-13.246-10.75-24-24-24h-40v-24c0-4.415-3.58-8-8-8h-16c-4.415 0-8 3.585-8 8v24Z" style="fill:#e4bc73" transform="translate(-1544.87 -1134.61) scale(2.53261)"/>
    <path d="M960 806.058h128c3.34 0 6.06-2.714 6.06-6.058a6.065 6.065 0 0 0-6.06-6.058H960a6.06 6.06 0 0 0-6.058 6.058 6.06 6.06 0 0 0 6.058 6.058ZM1120 806.058h64c3.34 0 6.06-2.714 6.06-6.058a6.065 6.065 0 0 0-6.06-6.058h-64a6.065 6.065 0 0 0-6.06 6.058 6.065 6.065 0 0 0 6.06 6.058ZM960 838.058h64c3.34 0 6.06-2.714 6.06-6.058a6.065 6.065 0 0 0-6.06-6.058h-64a6.06 6.06 0 0 0-6.058 6.058 6.06 6.06 0 0 0 6.058 6.058ZM1056 838.058h128c3.34 0 6.06-2.714 6.06-6.058a6.065 6.065 0 0 0-6.06-6.058h-128a6.065 6.065 0 0 0-6.06 6.058 6.065 6.065 0 0 0 6.06 6.058ZM960 870.058h32a6.06 6.06 0 0 0 6.058-6.058 6.06 6.06 0 0 0-6.058-6.058h-32a6.06 6.06 0 0 0-6.058 6.058 6.06 6.06 0 0 0 6.058 6.058ZM1024 870.058h64c3.34 0 6.06-2.714 6.06-6.058a6.065 6.065 0 0 0-6.06-6.058h-64a6.065 6.065 0 0 0-6.06 6.058 6.065 6.065 0 0 0 6.06 6.058ZM1120 870.058h64c3.34 0 6.06-2.714 6.06-6.058a6.065 6.065 0 0 0-6.06-6.058h-64a6.065 6.065 0 0 0-6.06 6.058 6.065 6.065 0 0 0 6.06 6.058Z" style="fill:#b91414" transform="matrix(3.43885 0 0 3.43885 -2659.88 -1971.175)"/>
    <path d="M960 806.058h128c3.34 0 6.06-2.714 6.06-6.058a6.065 6.065 0 0 0-6.06-6.058H960a6.06 6.06 0 0 0-6.058 6.058 6.06 6.06 0 0 0 6.058 6.058ZM1120 806.058h64c3.34 0 6.06-2.714 6.06-6.058a6.065 6.065 0 0 0-6.06-6.058h-64a6.065 6.065 0 0 0-6.06 6.058 6.065 6.065 0 0 0 6.06 6.058ZM960 838.058h64c3.34 0 6.06-2.714 6.06-6.058a6.065 6.065 0 0 0-6.06-6.058h-64a6.06 6.06 0 0 0-6.058 6.058 6.06 6.06 0 0 0 6.058 6.058ZM1056 838.058h128c3.34 0 6.06-2.714 6.06-6.058a6.065 6.065 0 0 0-6.06-6.058h-128a6.065 6.065 0 0 0-6.06 6.058 6.065 6.065 0 0 0 6.06 6.058ZM960 870.058h32a6.06 6.06 0 0 0 6.058-6.058 6.06 6.06 0 0 0-6.058-6.058h-32a6.06 6.06 0 0 0-6.058 6.058 6.06 6.06 0 0 0 6.058 6.058ZM1024 870.058h64c3.34 0 6.06-2.714 6.06-6.058a6.065 6.065 0 0 0-6.06-6.058h-64a6.065 6.065 0 0 0-6.06 6.058 6.065 6.065 0 0 0 6.06 6.058ZM1120 870.058h64c3.34 0 6.06-2.714 6.06-6.058a6.065 6.065 0 0 0-6.06-6.058h-64a6.065 6.065 0 0 0-6.06 6.058 6.065 6.065 0 0 0 6.06 6.058Z" style="fill:#b91414" transform="matrix(3.43885 0 0 3.43885 -2659.88 -1651.805)"/>
    <path d="M655.462 622.456h-44.454V743h-35.706V622.456h-43.64v-27.568h123.8v27.568ZM643.458 686.949c0-10.986 2.136-20.769 6.409-29.347 4.272-8.579 10.41-15.174 18.412-19.786 8.003-4.611 17.395-6.917 28.178-6.917 16.48 0 29.466 5.103 38.961 15.309 9.494 10.207 14.241 24.092 14.241 41.657v1.221c0 17.157-4.764 30.772-14.292 40.842-9.528 10.071-22.43 15.107-38.707 15.107-15.665 0-28.245-4.697-37.74-14.089-9.494-9.393-14.614-22.126-15.36-38.198l-.102-5.799Zm34.282 2.137c0 10.172 1.593 17.632 4.781 22.379 3.187 4.747 7.9 7.121 14.139 7.121 12.208 0 18.447-9.393 18.718-28.178v-3.459c0-19.734-6.307-29.602-18.921-29.602-11.461 0-17.666 8.511-18.616 25.533l-.101 6.206ZM818.222 743V594.888h47.709c13.089 0 24.855 2.967 35.299 8.901 10.444 5.934 18.599 14.309 24.465 25.126 5.866 10.817 8.833 22.939 8.901 36.367v6.815c0 13.564-2.865 25.72-8.596 36.469-5.73 10.749-13.801 19.158-24.211 25.228-10.409 6.069-22.023 9.138-34.84 9.206h-48.727Zm35.706-120.544v93.078h12.41c10.241 0 18.107-3.645 23.6-10.935 5.494-7.291 8.24-18.124 8.24-32.502v-6.408c0-14.31-2.746-25.092-8.24-32.349-5.493-7.256-13.495-10.884-24.007-10.884h-12.003ZM947.006 686.949c0-10.986 2.137-20.769 6.409-29.347 4.272-8.579 10.41-15.174 18.412-19.786 8.003-4.611 17.395-6.917 28.173-6.917 16.49 0 29.47 5.103 38.97 15.309 9.49 10.207 14.24 24.092 14.24 41.657v1.221c0 17.157-4.77 30.772-14.3 40.842-9.52 10.071-22.42 15.107-38.7 15.107-15.667 0-28.247-4.697-37.741-14.089-9.495-9.393-14.615-22.126-15.361-38.198l-.102-5.799Zm34.282 2.137c0 10.172 1.593 17.632 4.781 22.379 3.187 4.747 7.901 7.121 14.141 7.121 12.21 0 18.44-9.393 18.72-28.178v-3.459c0-19.734-6.31-29.602-18.93-29.602-11.456 0-17.661 8.511-18.611 25.533l-.101 6.206Z" style="fill:#b91414;fill-rule:nonzero" transform="translate(-291.09 -551.357) scale(1.63938)"/>
    <path d="M928 752c0-8.831-7.169-16-16-16h-32c-8.831 0-16 7.169-16 16v32c0 8.831 7.169 16 16 16h32c8.831 0 16-7.169 16-16v-32Z" style="fill:#b91414" transform="translate(-2990.6 -1842.09) scale(4.46272)"/>
</svg>
