<?xml version="1.0" encoding="UTF-8"?>
<svg id="Ebene_1" data-name="Ebene 1" xmlns="http://www.w3.org/2000/svg" viewBox="0 0 2000 2000">
  <defs>
    <style>
      .cls-1 {
        fill: #172d4d;
        stroke: #e5bd73;
        stroke-miterlimit: 10;
        stroke-width: 40px;
      }

      .cls-2 {
        fill: #e6e6e6;
        fill-rule: evenodd;
      }
    </style>
  </defs>
  <path class="cls-2" d="M2000,80c0-44.15-35.84-80-80-80H80C35.85,0,0,35.85,0,80V1920c0,44.15,35.85,80,80,80H1920c44.16,0,80-35.85,80-80V80Z"/>
  <g>
    <path class="cls-1" d="M1522.75,742.37s-.11,1.18-.1,3.15c.18,2.28,.34,4.56,.49,6.84,1.73,12.7,9.14,33.11,38.82,34.09h4.5c1.21-.04,2.45-.1,3.74-.2,7.42-.57,12.32-.45,15.27,.2h51.76c3-.5,7.39-.68,13.54-.44,52.08,1.99,45.7-45.7,45.7-45.7l.73-.23c-24.13-363.61-326.7-651.08-696.42-651.08S305.43,398.9,302.83,782.16h-.03v276.83h173.83v-272.54h.67c.29-288.87,234.55-522.95,523.49-522.95,274.05,0,498.91,210.59,521.59,478.78l.37,.1Z"/>
    <rect class="cls-1" x="214.05" y="765.16" width="1571.89" height="1145.84" rx="72.29" ry="72.29"/>
  </g>
</svg>