<svg viewBox="0 0 2000 2000" xmlns="http://www.w3.org/2000/svg" xml:space="preserve" style="fill-rule:evenodd;clip-rule:evenodd;stroke-linejoin:round;stroke-miterlimit:2">
    <path d="M1399 457.84c0-25.3-15.18-45.84-33.88-45.84H585.88c-18.699 0-33.88 20.54-33.88 45.84v1054.32c0 25.3 15.181 45.84 33.88 45.84h779.24c18.7 0 33.88-20.54 33.88-45.84V457.84Z" style="fill:#e6e6e6" transform="matrix(2.36128 0 0 1.7452 -1303.42 -719.023)"/>
    <path d="m501.9 356.616.28-.151-218.598-219.763-.324-103.41L177.54 4.969l-11.282 11.303 56.257 56.106-54.79 54.919-56.257-56.149-11.26 11.174 28.344 105.654 100.563.388-.669.539 220.065 221.144.28-.259c14.733 14.323 38.267 14.323 52.719-.28 14.691-14.496 14.756-38.073.39-52.892Zm-14.237 38.935c-6.536 6.558-17.106 6.558-23.555 0a16.586 16.586 0 0 1-.043-23.512c6.493-6.536 17.084-6.536 23.62-.043 6.449 6.493 6.535 17.041-.022 23.555Z" style="fill:#d70000;fill-rule:nonzero" transform="matrix(3.50713 0 0 3.48438 -144.596 188.971)"/>
    <path d="M47.101 232.67c1.79.345 43.638 8.693 52.633 55.911-11.368 12.058-18.465 28.905-18.465 47.607 0 .216.043.367.043.475h119.286v-.475c0-18.702-7.097-35.549-18.443-47.607 8.995-47.197 50.821-55.566 52.59-55.911 3.904-.755 6.558-4.487 5.846-8.434-.712-3.904-4.465-6.536-8.413-5.846-.496.108-48.75 9.426-62.534 59.988-8.52-5.134-18.314-8.089-28.732-8.089-10.376 0-20.169 2.977-28.711 8.132-13.827-50.605-62.016-59.88-62.555-59.988-3.904-.69-7.636 1.941-8.348 5.846-.776 3.905 1.877 7.636 5.803 8.391Z" style="fill:#d70000;fill-rule:nonzero" transform="matrix(3.2284 0 0 3.2284 30.05 329.485)"/>
    <path d="M275.083 290.696c-5.069-1.596-10.462 1.273-12.08 6.363 0 0-11.799 38.051-14.301 46.226-5.112 1.381-20.751 5.803-31.536 8.779-.41-1.726-.712-3.43-1.122-5.112H65.781c-.367 1.683-.712 3.387-1.079 5.112-10.785-3.041-26.446-7.399-31.536-8.779-2.545-8.175-14.323-46.248-14.323-46.248-1.553-5.069-6.967-7.96-12.036-6.363-5.112 1.532-7.96 6.924-6.363 12.036l17.408 56.257 44.069 12.274c-.28 4.055-.539 8.175-.539 12.382 0 5.134.324 10.246.777 15.229L18.11 418.567 4.348 496.309c-.906 5.22 2.588 10.268 7.852 11.174 5.22.928 10.246-2.524 11.152-7.787 0 0 10.462-58.91 11.972-67.711 4.249-1.92 18.184-8.175 30.091-13.417 10.419 44.479 40.316 76.663 75.562 76.663 35.225 0 65.165-32.14 75.606-76.663a5571.82 5571.82 0 0 1 30.048 13.417c1.488 8.736 11.95 67.711 11.95 67.711.928 5.263 5.932 8.715 11.217 7.787 5.263-.906 8.693-5.889 7.809-11.174l-13.784-77.741-44.004-19.651c.453-4.983.755-10.095.755-15.207 0-4.206-.259-8.348-.539-12.425l44.048-12.252 17.429-56.278c1.509-5.113-1.36-10.506-6.429-12.059Z" style="fill:#d70000;fill-rule:nonzero" transform="matrix(3.2284 0 0 3.2284 30.05 329.485)"/>
    <path d="M389.312 37.38C268.765-36.129 110.888 2.141 37.38 122.688-36.128 243.235 2.141 401.112 122.688 474.62a258.66 258.66 0 0 0 20.478 11.246c.112.054.225.111.339.164C179.308 503.574 217.632 512 255.579 512c86.412 0 170.856-43.667 219.042-122.688 73.508-120.548 35.238-278.423-85.309-351.932Zm-195.436 9.496-3.125 12.417-66.766 37.576-13.615-3.426c23.811-21.389 52.174-37.3 83.506-46.567Zm-61.52 275.691-3.592 3.975c-11.173 12.364-15.968 28.877-13.158 45.302l10.121 59.149c-40.869-30.315-69.605-73.54-81.74-123.601-9.164-37.806-8.119-76.479 2.604-112.817l62.856 35.972c6.232 3.567 9.361 10.92 7.608 17.884-4.529 17.997.38 36.791 13.131 50.272l1.921 2.031c5.729 6.056 5.837 15.647.249 21.833ZM265.372 474.01l-3.917-23.904 3.156-1.399a25.559 25.559 0 0 1 31.63 9.135l7.403 11.03a219.982 219.982 0 0 1-38.272 5.138Zm176.884-104.434c-24.103 39.527-59.297 69.701-101.141 87.325a18.849 18.849 0 0 0-1.078-1.831l-12.32-18.355c-17.219-25.655-50.22-35.186-78.469-22.664l-16.548 7.336a18.955 18.955 0 0 0-11.022 20.393l4.999 30.501c-19.979-2.703-39.552-8.216-58.241-16.451l-15.465-90.381a15.981 15.981 0 0 1 3.92-13.494l3.592-3.975c18.763-20.766 18.397-52.961-.833-73.294l-1.921-2.031a16.01 16.01 0 0 1-3.912-14.975c5.882-23.375-4.621-48.062-25.54-60.035L60.63 158.932a222.031 222.031 0 0 1 9.114-16.509 222.802 222.802 0 0 1 11.624-17.19l40.698 10.241a18.936 18.936 0 0 0 13.921-1.862l80.452-45.278a18.945 18.945 0 0 0 9.084-11.892l8.854-35.185c.201-.8.33-1.6.425-2.398a217.781 217.781 0 0 1 21.595-1.097c39.58 0 78.524 10.851 113.175 31.982a221.8 221.8 0 0 1 11.799 7.736c-.024.027-.051.048-.075.073L350.421 111.3l-81.369 3.159a18.953 18.953 0 0 0-15.375 8.955l-35.446 57.199a18.952 18.952 0 0 0 .962 21.376l22.436 29.837a35.78 35.78 0 0 1 7.141 21.565l-.201 38.901a51.761 51.761 0 0 0 18.349 39.858c9.458 8.013 21.311 12.3 33.489 12.3 2.938 0 5.897-.25 8.844-.757l43.21-7.435c15.918-2.738 30.704-10.795 41.634-22.685 6.523-7.095 15.421-11.173 25.053-11.48 9.622-.322 18.772 3.192 25.736 9.856l12.153 11.631a18.862 18.862 0 0 0 5.263 3.544 220.076 220.076 0 0 1-20.044 42.452Zm29.98-83.922-1.141-1.092c-14.381-13.764-33.255-20.996-53.157-20.359-19.898.636-38.276 9.056-51.749 23.713a35.757 35.757 0 0 1-20.156 10.982l-43.21 7.435c-5.595.962-9.545-1.535-11.404-3.108-1.859-1.574-4.972-5.063-4.943-10.737l.201-38.9c.082-15.964-5.157-31.783-14.75-44.543l-14.646-19.478 23.312-37.619 79.207-3.074a18.95 18.95 0 0 0 13.249-6.145l36.221-39.585a19.2 19.2 0 0 0 1.127-1.363c28.089 28.02 48.032 63.29 57.616 102.828 6.535 26.961 7.875 54.363 4.223 81.045Z" style="fill:#d70000;fill-rule:nonzero" transform="translate(984.534 18.699) scale(1.94557)"/>
</svg>
