<?xml version="1.0" encoding="UTF-8" standalone="no"?>
<!DOCTYPE svg PUBLIC "-//W3C//DTD SVG 1.1//EN" "http://www.w3.org/Graphics/SVG/1.1/DTD/svg11.dtd">
<svg width="100%" height="100%" viewBox="0 0 2000 2000" version="1.1" xmlns="http://www.w3.org/2000/svg" xmlns:xlink="http://www.w3.org/1999/xlink" xml:space="preserve" xmlns:serif="http://www.serif.com/" style="fill-rule:evenodd;clip-rule:evenodd;stroke-linejoin:round;stroke-miterlimit:2;">
    <g transform="matrix(3.88657,0,0,3.88657,-11.5975,18.699)">
        <g>
            <g>
                <g transform="matrix(0.902372,0,0,0.896517,-34.2199,43.8104)">
                    <path d="M501.9,356.616L502.18,356.465L283.582,136.702L283.258,33.292L177.54,4.969L166.258,16.272L222.515,72.378L167.725,127.297L111.468,71.148L100.208,82.322L128.552,187.976L229.115,188.364L228.446,188.903L448.511,410.047L448.791,409.788C463.524,424.111 487.058,424.111 501.51,409.508C516.201,395.012 516.266,371.435 501.9,356.616ZM487.663,395.551C481.127,402.109 470.557,402.109 464.108,395.551C457.594,389.058 457.55,378.575 464.065,372.039C470.558,365.503 481.149,365.503 487.685,371.996C494.134,378.489 494.22,389.037 487.663,395.551Z" style="fill:rgb(215,0,0);fill-rule:nonzero;"/>
                </g>
                <g transform="matrix(0.830657,0,0,0.830657,10.7158,79.9642)">
                    <path d="M47.101,232.67C48.891,233.015 90.739,241.363 99.734,288.581C88.366,300.639 81.269,317.486 81.269,336.188C81.269,336.404 81.312,336.555 81.312,336.663L200.598,336.663L200.598,336.188C200.598,317.486 193.501,300.639 182.155,288.581C191.15,241.384 232.976,233.015 234.745,232.67C238.649,231.915 241.303,228.183 240.591,224.236C239.879,220.332 236.126,217.7 232.178,218.39C231.682,218.498 183.428,227.816 169.644,278.378C161.124,273.244 151.33,270.289 140.912,270.289C130.536,270.289 120.743,273.266 112.201,278.421C98.374,227.816 50.185,218.541 49.646,218.433C45.742,217.743 42.01,220.374 41.298,224.279C40.522,228.184 43.175,231.915 47.101,232.67Z" style="fill:rgb(215,0,0);fill-rule:nonzero;"/>
                </g>
                <g transform="matrix(0.830657,0,0,0.830657,10.7158,79.9642)">
                    <path d="M275.083,290.696C270.014,289.1 264.621,291.969 263.003,297.059C263.003,297.059 251.204,335.11 248.702,343.285C243.59,344.666 227.951,349.088 217.166,352.064C216.756,350.338 216.454,348.634 216.044,346.952L65.781,346.952C65.414,348.635 65.069,350.339 64.702,352.064C53.917,349.023 38.256,344.665 33.166,343.285C30.621,335.11 18.843,297.037 18.843,297.037C17.29,291.968 11.876,289.077 6.807,290.674C1.695,292.206 -1.153,297.598 0.444,302.71L17.852,358.967L61.921,371.241C61.641,375.296 61.382,379.416 61.382,383.623C61.382,388.757 61.706,393.869 62.159,398.852L18.11,418.567L4.348,496.309C3.442,501.529 6.936,506.577 12.2,507.483C17.42,508.411 22.446,504.959 23.352,499.696C23.352,499.696 33.814,440.786 35.324,431.985C39.573,430.065 53.508,423.81 65.415,418.568C75.834,463.047 105.731,495.231 140.977,495.231C176.202,495.231 206.142,463.091 216.583,418.568C228.425,423.81 242.382,430.065 246.631,431.985C248.119,440.721 258.581,499.696 258.581,499.696C259.509,504.959 264.513,508.411 269.798,507.483C275.061,506.577 278.491,501.594 277.607,496.309L263.823,418.568L219.819,398.917C220.272,393.934 220.574,388.822 220.574,383.71C220.574,379.504 220.315,375.362 220.035,371.285L264.083,359.033L281.512,302.755C283.021,297.642 280.152,292.249 275.083,290.696Z" style="fill:rgb(215,0,0);fill-rule:nonzero;"/>
                </g>
            </g>
        </g>
        <g transform="matrix(0.500588,0,0,0.500588,256.301,-6.3973e-05)">
            <path d="M389.312,37.38C268.765,-36.129 110.888,2.141 37.38,122.688C-36.128,243.235 2.141,401.112 122.688,474.62C129.404,478.715 136.239,482.458 143.166,485.866C143.278,485.92 143.391,485.977 143.505,486.03C179.308,503.574 217.632,512 255.579,512C341.991,512 426.435,468.333 474.621,389.312C548.129,268.764 509.859,110.889 389.312,37.38ZM193.876,46.876L190.751,59.293L123.985,96.869L110.37,93.443C134.181,72.054 162.544,56.143 193.876,46.876ZM132.356,322.567L128.764,326.542C117.591,338.906 112.796,355.419 115.606,371.844L125.727,430.993C84.858,400.678 56.122,357.453 43.987,307.392C34.823,269.586 35.868,230.913 46.591,194.575L109.447,230.547C115.679,234.114 118.808,241.467 117.055,248.431C112.526,266.428 117.435,285.222 130.186,298.703L132.107,300.734C137.836,306.79 137.944,316.381 132.356,322.567ZM265.372,474.01L261.455,450.106L264.611,448.707C275.999,443.66 289.3,447.5 296.241,457.842L303.644,468.872C290.933,471.724 278.136,473.435 265.372,474.01ZM442.256,369.576C418.153,409.103 382.959,439.277 341.115,456.901C340.792,456.279 340.438,455.667 340.037,455.07L327.717,436.715C310.498,411.06 277.497,401.529 249.248,414.051L232.7,421.387C224.813,424.885 220.283,433.266 221.678,441.78L226.677,472.281C206.698,469.578 187.125,464.065 168.436,455.83L152.971,365.449C152.133,360.556 153.562,355.637 156.891,351.955L160.483,347.98C179.246,327.214 178.88,295.019 159.65,274.686L157.729,272.655C153.931,268.639 152.469,263.042 153.817,257.68C159.699,234.305 149.196,209.618 128.277,197.645L60.63,158.932C63.421,153.336 66.45,147.825 69.744,142.423C73.371,136.477 77.255,130.747 81.368,125.233L122.066,135.474C123.591,135.858 125.144,136.048 126.691,136.048C129.922,136.048 133.128,135.222 135.987,133.612L216.439,88.334C220.97,85.784 224.256,81.485 225.523,76.442L234.377,41.257C234.578,40.457 234.707,39.657 234.802,38.859C242.007,38.141 249.212,37.762 256.397,37.762C295.977,37.762 334.921,48.613 369.572,69.744C373.607,72.204 377.534,74.792 381.371,77.48C381.347,77.507 381.32,77.528 381.296,77.553L350.421,111.3L269.052,114.459C262.757,114.703 256.995,118.06 253.677,123.414L218.231,180.613C214.114,187.256 214.496,195.743 219.193,201.989L241.629,231.826C246.274,238.004 248.81,245.662 248.77,253.391L248.569,292.292C248.489,307.678 255.178,322.205 266.918,332.15C276.376,340.163 288.229,344.45 300.407,344.45C303.345,344.45 306.304,344.2 309.251,343.693L352.461,336.258C368.379,333.52 383.165,325.463 394.095,313.573C400.618,306.478 409.516,302.4 419.148,302.093C428.77,301.771 437.92,305.285 444.884,311.949L457.037,323.58C458.623,325.098 460.41,326.265 462.3,327.124C457.212,341.786 450.528,356.011 442.256,369.576ZM472.236,285.654L471.095,284.562C456.714,270.798 437.84,263.566 417.938,264.203C398.04,264.839 379.662,273.259 366.189,287.916C360.897,293.672 353.739,297.572 346.033,298.898L302.823,306.333C297.228,307.295 293.278,304.798 291.419,303.225C289.56,301.651 286.447,298.162 286.476,292.488L286.677,253.588C286.759,237.624 281.52,221.805 271.927,209.045L257.281,189.567L280.593,151.948L359.8,148.874C364.859,148.678 369.631,146.466 373.049,142.729L409.27,103.144C409.673,102.704 410.043,102.247 410.397,101.781C438.486,129.801 458.429,165.071 468.013,204.609C474.548,231.57 475.888,258.972 472.236,285.654Z" style="fill:rgb(215,0,0);fill-rule:nonzero;"/>
        </g>
    </g>
</svg>
