<?xml version="1.0" encoding="UTF-8"?>
<svg id="Ebene_1" data-name="Ebene 1" xmlns="http://www.w3.org/2000/svg" viewBox="0 0 2000 2000">
  <defs>
    <style>
      .cls-1 {
        fill: #cfd8e5;
      }

      .cls-2 {
        fill: #172d4c;
      }

      .cls-2, .cls-3, .cls-4 {
        stroke: #cfd8e5;
        stroke-linejoin: round;
        stroke-width: 60px;
      }

      .cls-3 {
        fill: #172d4d;
      }

      .cls-4 {
        fill: none;
      }
    </style>
  </defs>
  <g>
    <g>
      <path class="cls-3" d="M638.092827995902553,868.307426337456491c0-98.011693980388372-54.369861586090337-183.315466294554426-134.588030780869303-227.424651621293378V160.786364450674228c0-68.917606072934177-55.86875837774096-124.786364450675137-124.786364450679685-124.786364450675137h-.000249572969551c-68.917606072940544,0-124.786364450681504,55.86875837774096-124.786364450681504,124.786364450675137v480.096410265488885c-80.218169194778966,44.109185326738952-134.588030780869303,129.412957640905006-134.588030780869303,227.424651621293378,0,98.011616450039583,54.369861586090337,183.315388764203817,134.588030780869303,227.42457409094277v750.481635120921055c0,68.917606072940544,55.86875837774096,124.786364450679685,124.786364450681504,124.786364450679685h.000249572969551c68.917606072938725,0,124.786364450679685-55.868758377739141,124.786364450679685-124.786364450679685v-750.481635120921055c80.218169194778966-44.109185326738952,134.588030780869303-129.412957640903187,134.588030780869303-227.42457409094277Z"/>
      <path class="cls-1" d="M527.248310960083472,953.350619154947708l-123.181455991070834-85.772365732163053v-150.102240891476868c0-10.52303895401019-8.530819154399069-19.05385810840562-19.053858108409258-19.05385810840562s-19.053858108400163,8.530819154395431-19.053858108400163,19.05385810840562v159.99123666673313c0,.011086839639574-.001240485560629.02217367927642-.001240485560629.033260518915085,0,.007132791934964.001240485560629.014110523175987.001240485560629.021243315110951v.006667609853139c0,.71614781635526.04713845104925,1.42066608064124.124048555389891,2.116268355008287.019227526090617.170101581584277.053651000209356.337412070670325.077530347120046.506893409477016.074739254619999.542634899497898.165914942839663,1.079144901573272.285621798790089,1.606196201300918.044347358560117.195454005091051.098928722929486.387496674909926.149478509249093.581555133752772.129940861781506.497589767822319.27631815714085.986961318847534.444093828311452,1.467804531692309.071017797959939.20398234327331.144516567030223.40602642786962.222357035538153.607605330383194.182971619211457.470221555287935.385480885890502.928658497813558.603496221991008,1.379962648403307.093036416550603.193360685720108.179250162540484.388582099770247.279109249639077.579074162646066.282210463521551.536975184159019.589230638110166,1.05774652576838.919509916850075,1.562856737261427.085283381831687.130561104550907.168706035330615.261122209102723.257090631050232.3898225853236.354158625650598.513405958632575.733126962380993,1.007351800139986,1.134734160459629,1.482612827990124.165914942841482.196539429952281.345785348161371.382224611305901.520693811260571.572871734875662.315703573480278.344699923299231.641020909999497.678933249737383.981224073169869.999676295775316.183591861979949.172737613384925.368734330901134.342994255662234.560699470370309.509451910930693.429828244439705.374316515900318.877333408019695.727157125646045,1.339724398250837,1.062320816250576.09303641653969.067141280605028.17242749199977.145601991892363.266704394100088.211347726251006l.233211284128629.162348546869907c.000620242781224.000542712429706.001240485560629.001085424859411.002170849729737.001628137289117l131.112190258740156,91.294542236189955c3.318298856771435,2.310404344199014,7.112944166259695,3.419398429415196,10.870374909121892,3.419398429415196,6.023797849888069,0,11.950837826578208-2.8500155601605,15.653687205069218-8.167977129870451,2.308543615868984-3.313957157330151,3.417537701088804-7.105501252925933,3.418778186640338-10.859830781903838.003721456658241-6.027519306558133-2.845673860720126-11.958900982686828-8.167356887090136-15.664231332284544Z"/>
      <g>
        <circle class="cls-1" cx="380.567096635310463" cy="1261.781225828109655" r="17.148472297568787"/>
        <circle class="cls-1" cx="380.567096635310463" cy="1396.110925492373553" r="17.148472297567878"/>
        <circle class="cls-1" cx="380.567096635310463" cy="1530.440625156638816" r="17.148472297567196"/>
        <circle class="cls-1" cx="380.567096635310463" cy="1664.77032482090317" r="17.148472297566059"/>
        <circle class="cls-1" cx="380.567096635310463" cy="1799.100024485167069" r="17.148472297565149"/>
      </g>
      <circle class="cls-4" cx="381.442988740580404" cy="868.403272503393964" r="256.82530354780647"/>
    </g>
    <g>
      <ellipse class="cls-2" cx="1327.868365654977879" cy="637.994674135720516" rx="194.586206896552113" ry="577.862068965514595" transform="translate(248.622520552446758 1640.740906520410135) rotate(-68.558370386221256)"/>
      <path class="cls-2" d="M1660.442083285242916,293.139064845022403c-130.304754501459684,56.816036159256328-281.996251903639859-2.758390007575144-338.812288062899825-133.063144509036647l-19.143259610629684-43.904421112957607c-4.699129045080554-10.777294183719277-13.487070359789868-19.246447458996954-24.430565178261531-23.544331224632515l-24.210460792139202-9.508273921920591c-17.932682468399435-7.042776200267326-38.179292083019391,1.785237085723566-45.222068283290355,19.717919554125729l-163.999185368918916,417.58324170312153,74.731320967890497,59.981920763450034c58.997527975388948,47.353438992192423,124.749772083359858,85.643868177895456,195.139102874938544,113.363871827024923,1.190003164210793.468634829788243,2.380717574069422.935459579281087,3.572139090640121,1.40047263305496,73.442986953799846,28.664873990055639,151.107005351450425,45.035183713896913,229.825275325760231,49.391937759663961l78.508295593379444,4.345132769867632,163.999185368920735-417.583241703120621c7.042776200270964-17.932682468403073-1.785237085730841-38.179292083025757-19.717919554130276-45.222068283293993l-32.411661076550445-12.729165067371468c-10.943446003569989-4.297864594364-23.145996148508857-4.072438071352735-33.923234237219731.626688409603048l-43.904677057489607,19.143460402421624Z"/>
    </g>
    <g>
      <path class="cls-1" d="M1030.857946643533069,1498.06624316612033c.923959336480038-.985504646179834,1.834057221500188-1.943514263170073,2.72738095277964-2.873207067410476,55.718063272219297-57.968890964959428,139.34559348088078-104.8315436653902,235.480788801130984-131.954921240369003,96.135195320239291-27.123377574991537,191.924300561318887-30.880949136091658,269.724510106658272-10.582616957921346,1.247512449361238.325681881280616,2.524125806010488.666737484110854,3.82692736763056,1.02398859206005l134.719762510780129-38.009544508859108c-31.352981484589691-23.410232472129792-70.022480763640488-41.218176899510581-115.075311641288863-52.973698713291014-93.548943110719847-24.408217530970433-206.641371355071897-20.479272263390158-318.441079572621675,11.063657343780505-111.799708217558873,31.542929607170663-210.268497857829061,87.30341206472076-277.264792081989071,157.007518115950006-32.264851320040179,33.569766643520779-55.924268271859546,68.963057656379533-70.417948953860105,105.308368944910399l134.719762510780129-38.009544508850013Z"/>
      <circle class="cls-2" cx="967.760966964100589" cy="1547.998568345619788" r="267.999999999996135"/>
      <circle class="cls-2" cx="1612.587663093705487" cy="1366.06854894646267" r="267.999999999999886"/>
    </g>
  </g>
  <ellipse class="cls-1" cx="966.412781970404922" cy="1363.825916250370028" rx="26.999999999997971" ry="89.999999999999261" transform="translate(-560.499425720845011 2043.909664766221567) rotate(-78.686552139287386)"/>
  <ellipse class="cls-1" cx="1605.412781970404922" cy="1183.825916250370028" rx="26.999999999997971" ry="89.999999999999261" transform="translate(129.646275025106206 2525.804760151590017) rotate(-78.686552139287386)"/>
</svg>