<?xml version="1.0" encoding="UTF-8"?>
<svg id="Ebene_1" xmlns="http://www.w3.org/2000/svg" viewBox="0 0 200 200">
  <defs>
    <style>
      .cls-1, .cls-2 {
        fill: #172d4d;
      }

      .cls-3 {
        fill: #e5bd73;
      }

      .cls-4, .cls-5, .cls-6, .cls-7, .cls-8, .cls-9, .cls-10, .cls-2 {
        stroke-miterlimit: 10;
        stroke-width: 3px;
      }

      .cls-4, .cls-6, .cls-7, .cls-8, .cls-9, .cls-10, .cls-2 {
        stroke: #e9f2fa;
      }

      .cls-4, .cls-7, .cls-11 {
        fill-rule: evenodd;
      }

      .cls-4, .cls-11 {
        fill: #363f4d;
      }

      .cls-5 {
        fill: #e9f2fa;
        stroke: #172d4d;
      }

      .cls-6 {
        stroke-dasharray: 2.377917289733887 2.972396373748779;
      }

      .cls-6, .cls-7, .cls-8, .cls-9, .cls-10 {
        fill: none;
      }

      .cls-8 {
        stroke-dasharray: 2.375290632247925 2.969113349914551;
      }

      .cls-10 {
        stroke-dasharray: 2.398004055023193 2.997504949569702;
      }
    </style>
  </defs>
  <g>
    <polygon class="cls-11" points="15.272716645180481 185.497902581820199 15.463921481570651 183.849291992530198 33.92097954367091 24.708435812609423 117.734561126329936 88.630536970219509 183.314285652681065 116.292126936309614 15.272716645180481 185.497902581820199"/>
    <g>
      <polyline class="cls-9" points="16.382063802080665 185.040759858629826 15.272688802080665 185.497791108629826 15.410872395830665 184.305896577379826"/>
      <line class="cls-10" x1="15.756087239580665" y1="181.328357514879826" x2="33.610091145830665" y2="27.389392671129826"/>
      <polyline class="cls-9" points="33.782942708330665 25.900623139879826 33.921126302080665 24.708240327379826 34.875227864580665 25.436267671129826"/>
      <polyline class="cls-6" points="37.238509114580665 27.238513764879826 117.734602864580665 88.630603608629826 180.839095052080665 115.248279389879826"/>
      <polyline class="cls-9" points="182.208723958330665 115.825916108629826 183.314192708330665 116.292224702379826 182.204817708330665 116.749255952379826"/>
      <line class="cls-8" x1="179.459212239580665" y1="117.879627046129826" x2="17.755110677080665" y2="184.475818452379826"/>
    </g>
  </g>
  <polygon class="cls-4" points="161.350776016679447 12.897869310239912 33.92097954367091 24.708435812609423 34.303044347940158 25.03230920822989 117.734561126329936 88.630536970219509 183.314285652681065 116.292126936309614 161.350776016679447 12.897869310239912"/>
  <ellipse class="cls-2" cx="181.42941793702812" cy="116.260616232497341" rx="17.369100652116686" ry="16.381559812362866"/>
  <polyline class="cls-7" points="166.012841741310694 14.969898521179857 117.734561126329936 88.630536970219509 15.272716645180481 185.497902581820199"/>
  <ellipse class="cls-2" cx="18.967619241260763" cy="182.893352556096943" rx="17.369100652120324" ry="16.381559812362866"/>
  <ellipse class="cls-5" cx="39.487911350693139" cy="25.926061656311504" rx="17.369100652112138" ry="16.381559812368323"/>
  <ellipse class="cls-2" cx="166.917707823710771" cy="17.430741891442267" rx="17.369100652121233" ry="16.381559812367414"/>
  <ellipse class="cls-5" cx="115.342158934588952" cy="88.934861750332857" rx="17.369100652118505" ry="16.381559812367414"/>
  <path class="cls-1" d="M156.210166605700579,165.747244176130152h-51.6913558904198l-10.814858147290579,30.993993970550036h-24.10543397884976L120.006755716331099,63.351198675300111h20.805985730519751l50.498756969398528,133.390039471380078h-24.195953821048533l-10.905377989500266-30.993993970550036ZM111.024924373670729,147.063948745289963h38.676865577590434l-19.337301290770483-55.404932416829979-19.33956428681995,55.404932416829979Z"/>
  <path class="cls-3" d="M163.409686778601099,161.383058695780164h-51.691355890421619l-10.81485814728876,30.993993970550036h-24.10543397884976L127.20627588923162,58.987013194950123h20.805985730519751l50.498756969389433,133.390039471380078h-24.195953821050352l-10.905377989489352-30.993993970550036ZM118.22444454656943,142.69976326492997h38.676865577581339l-19.337301290761388-55.404932416829979-19.33956428681995,55.404932416829979Z"/>
</svg>