<svg viewBox="0 0 2000 2000" xmlns="http://www.w3.org/2000/svg" xml:space="preserve" style="fill-rule:evenodd;clip-rule:evenodd;stroke-linejoin:round;stroke-miterlimit:2">
    <path d="m1966.6 1490.65-968.276 492-966.716-491.21-.561-.29v-1.01h.003V507.65L998.324 16.157v-.003l1.481-.752L1966.6 506.65v984Z" style="fill:#172d4d" transform="matrix(.97595 0 0 .97595 24.048 25.002)"/>
    <path d="M999.884 6.7h-.16l-.093.001H999.461l-.082.002-.114.001-.041.001h-.026l-.072.001-.124.003-.045.001-.022.001-.061.001-.135.004-.049.002h-.018l-.05.002-.146.005-.052.002-.014.001-.041.002-.156.006-.055.003-.011.001-.031.001-.166.009-.058.003-.205.012-.262.018-.068.005a33.3 33.3 0 0 0-5.712.917l-.212.054-.257.068-.042.011-.034.009-.18.049-.032.009-.009.003-.054.015-.162.045-.027.008-.012.003-.076.022-.14.041-.023.006-.015.005-.102.03-.116.035-.017.005-.019.005-.13.04-.089.027-.012.004-.022.007-.162.051-.058.018-.033.011-.197.064-.027.009a33.178 33.178 0 0 0-4.768 1.985L39.376 490.662a33.333 33.333 0 0 0-18.233 29.712l-.128 959.916a33.326 33.326 0 0 0 15.886 28.4 33.266 33.266 0 0 0 10.281 4.16l936.548 476.58a33.334 33.334 0 0 0 30.21.01l939.29-476.8c3.27-.81 6.44-2.12 9.39-3.93a33.337 33.337 0 0 0 15.91-28.41l.22-960.917a33.31 33.31 0 0 0-18.26-29.74L1014.9 10.331a33.546 33.546 0 0 0-4.52-1.899l-.22-.072-.04-.012-.03-.011-.18-.059-.03-.009-.01-.003-.06-.019-.15-.048-.03-.008-.01-.005-.09-.026-.13-.039-.02-.006-.02-.007-.11-.032-.1-.03-.02-.006-.02-.007-.14-.038-.08-.023-.01-.004-.03-.009-.15-.042-.06-.016-.01-.003-.04-.01-.16-.045-.05-.012v-.002l-.04-.01-.19-.048-.07-.02-.2-.049-.01-.004a33.22 33.22 0 0 0-5.71-.912l-.07-.005-.18-.012-.08-.006-.18-.01-.09-.005-.16-.008-.03-.002h-.01l-.06-.003-.15-.006-.04-.002-.02-.001-.05-.002-.15-.005-.05-.002h-.02l-.04-.002-.14-.003-.06-.002-.02-.001-.05-.001-.12-.002-.07-.002h-.03l-.04-.001-.11-.001-.09-.001h-.063l-.103-.001Zm1.016 1031.16 868.89 442.38-870.924 442.09-869.724-442.58 871.758-441.89Zm32.22-943.553 878.96 445.541c-.03 117.158-.16 703.602-.21 886.122l-878.54-446.427-.21-885.236Zm-66.675.051.118 885.113L87.689 1424.83l.118-883.998L966.445 94.358Z" style="fill:#fff"/>
    <path d="M337.579 582.606 208.92 398.137l69.97-169.117L730.927 89.016l71.867 127.049-46 119.71L894.039 354.8l101.984 165.716-70.771 163.91-155.87-29.704-39.337-6.314-41.283 75.75s-57.766 10.219-109.33-29.294c-21.946-16.817-42.769-42.644-57.536-82.101l-184.317-30.157Z" style="fill:#e6bd72" transform="matrix(-.14899 2.02158 -1.9993 -.14756 2185.052 27.528)"/>
    <path d="m807.562 216.574-74.178 15.357-32.689 6.468 56.565 109.275 50.302-131.1Z" style="fill:#e6bd72" transform="matrix(-.13625 1.8487 -1.82561 -.13474 2138.871 154.8)"/>
    <path d="m336.159 591.23 64.87-146.921L277.47 237.645l-69.969 169.117L336.159 591.23ZM687.27 496.841l307.333 32.299-70.771 163.911-195.206-36.018 29.726-54.542s-74.902-17.999-71.082-105.65Z" style="fill:#e6bd72" transform="matrix(-.14899 2.02158 -1.9993 -.14756 2202.082 31.67)"/>
    <path d="M1254.03 776.818 969.948 624l-87.754 368.16s-258.288 59.83-247.575 320.9l249.914 162.77s-8.572-275.23 269.507-312.46l99.99-386.552" style="fill:#e6bd72" transform="matrix(1 0 0 1 .001 0)"/>
    <path d="M1358.04 359.877a31.227 31.227 0 0 0-16.19 4.456L953.963 597.148c-.484.288-.958.588-1.424.9l-.099.067-.112.076-.073.05-.151.105c-.139.096-.278.194-.415.293l-.01.007-.043.031-.11.081-.029.021-.028.02-.06.044-.063.047-.037.028-.05.036-.056.043-.036.026-.041.031-.074.056-.049.037-.014.011-.033.025a31.194 31.194 0 0 0-6.416 6.625l-.013.018-.009.012-.051.071-.053.075-.016.023-.019.028-.058.082-.036.052-.014.019-.032.047-.063.092-.022.031-.008.013-.05.074-.027.039-.004.005-.032.048-.009.014-.129.192-.004.006-.03.047-.006.009-.009.013-.07.106-.015.024-.009.014-.026.04-.071.109-.029.045-.012.02-.02.031-.058.091-.045.072-.013.021-.013.021-.047.074-.065.106-.052.083-.062.102-.008.014c-.065.107-.13.215-.194.324l-.003.004a32.03 32.03 0 0 0-.568 1.006l-.002.003a30.644 30.644 0 0 0-1.325 2.765l-.061.146-.031.075-.01.025-.012.029-.032.079-.036.088-.016.04-.012.029-.02.051-.039.1-.023.057-.01.025-.01.026-.041.107-.031.08-.009.023-.028.075-.024.065c-.06.159-.119.318-.176.479l-.027.076-.05.142-.004.011a31.22 31.22 0 0 0-.929 3.211l-83.52 350.396c-12.946 4.261-31.526 11.184-52.835 21.558-32.679 15.584-59.998 33.684-82.867 53.164-58.63 48.91-112.504 124.81-116.951 239.65-1.08 19.73-.003 32.42.167 34.24l.005.05.004.03c.008.1.013.14.013.14l.001.01.005.05.014.14.01.09.015.13.012.11.014.12.014.11.014.11.016.12.014.11.018.13.014.1c.135.94.312 1.87.531 2.79l.02.09.03.12.025.1.027.11.03.12.024.09.005.02.005.02.025.09.021.08.004.02.007.02.028.11.019.06.004.02.007.03.032.11.016.06.003.01.009.03.035.12.014.05.003.01.008.03.041.14.012.04.008.02.046.16.011.03c.081.27.164.53.251.79l.021.06.041.12.022.06.012.04.035.1.024.07.007.02.01.03.031.08.025.07.01.03.012.04.028.07.024.07.013.03.015.04.025.07.023.06.016.04.017.05.022.06.022.06.02.05.019.05.019.04.021.06.023.06.021.05.017.04.019.05.027.07.023.05.014.04.017.04.032.08.024.06.012.03.015.03.037.09.025.06.01.02.012.03.043.1.026.06.006.02.01.02.053.12.023.05.011.03.069.16.015.03c.062.14.125.28.189.41l.087.19.012.02.022.05.06.12.011.03.007.01.025.05.052.11.015.03.009.02.026.05.046.09.019.04.012.03.025.04.041.09.023.04.015.03.024.05.037.07.027.05.018.04.023.04.033.06.03.06.021.04.021.04.029.05.017.03c.058.11.118.22.178.33l.012.02.017.03c.062.12.124.23.187.34l.008.01.016.03c.065.11.131.23.198.34l.11.19.114.19h.002c.072.12.144.23.217.35l.01.02h.005c.071.12.142.23.214.34l.014.02.009.01c.071.11.142.22.215.33l.014.02.011.02c.072.11.145.21.219.32l.013.02.026.04.04.06.036.05.021.03.028.04.047.07.032.04.017.03.03.04.055.08.028.04.013.01.03.05.064.08.024.04.009.01.028.04.075.1.025.03.022.03c.249.34.504.67.766.99l.034.05.094.11.052.07.083.1.019.02.007.01.038.04.075.09.019.02.01.02.045.05.067.08.018.02.013.02.052.06.061.07.015.02.015.01.06.07.055.06.013.02.016.02.069.08.049.05.01.01.016.02.079.09.043.05.112.12.051.06c.385.42.782.83 1.19 1.23l.05.05.099.09.068.07.087.08.021.02.012.01.049.05.076.07.022.02.016.02.056.05.067.06.02.02.02.02.064.06.058.05.019.02.024.02.071.06.051.05.017.01.027.03.079.07.043.04.014.01.029.02.089.08.036.04h.01l.031.03.099.09.035.03.028.02.114.1.04.03c.208.18.418.35.631.52l.051.04.102.09.049.04h.01l.023.02.086.07.054.04.016.01.029.03.075.05.054.05.023.01.034.03.066.05.053.04.029.02.039.03.059.05.049.03.037.03.044.03.051.04.045.03.044.04.049.03.045.03.04.03.052.04.054.04.038.03.035.02.061.05.058.04.032.02.03.02.069.05.063.04.025.02.024.02.08.05.065.05.019.01.018.01.093.06.066.05.025.02.113.07.059.04h.006c.063.05.127.09.192.13l126.452 82.36-95.443 367.55-.019.07-.02.08-.023.09-.021.09-.018.07-.02.08-.023.1-.019.07-.016.07-.021.09-.022.1-.017.07-.015.07-.021.09-.021.1-.016.07-.013.07-.021.09-.02.1-.014.07-.013.07-.02.09-.02.11-.013.06-.011.07-.019.1-.019.1-.012.06-.011.06-.018.11-.018.1-.011.06-.01.06-.018.11-.016.1-.01.06-.01.06-.016.11-.016.1-.009.06-.008.06-.016.11-.015.11-.008.05-.008.06-.015.11-.013.11-.007.05-.008.06-.014.11-.012.11-.006.05-.007.06-.013.11-.011.11-.006.05-.006.06-.011.12-.01.1-.005.05-.006.06-.01.12-.009.1-.005.05-.004.06-.01.12-.007.1-.004.05-.004.06-.009.12-.006.1-.003.05-.004.06-.007.12-.005.1-.003.05-.003.07-.006.11-.004.1-.002.05-.002.07-.005.11-.003.1-.002.05-.001.06-.004.12-.002.09-.001.06-.001.07-.002.11-.001.09-.001.06v.06l-.001.12v.14l.001.07v.12l.001.09v.05l.002.07.001.12.002.08.001.06.002.07.003.11.003.09.001.06.003.07.004.11.004.08.002.06.003.08.005.11.005.08.003.06.004.08.006.11.006.07.003.06.006.08.007.11.006.08.004.06.006.08.009.11.006.07.005.06.007.09.01.1.007.08.005.06.009.08.01.11.008.07.006.06.01.09.011.1.009.07.006.06.011.09.013.11.008.06.008.06.012.1.013.1.01.07.007.06.014.09.014.1.01.07.009.06.014.09.016.1.01.07.009.06.016.09.016.1.011.07.01.06.017.09.017.1.011.07.011.05.018.1.018.1.012.06.011.06.02.1.019.1.012.06.011.06.021.1.021.1.012.06.012.06.023.1.021.1.012.05.013.06.024.1.022.1.013.06.013.05.025.11.024.1.013.05.014.06.026.11.024.09.014.05.014.06.028.11.025.1.014.05.015.05.029.11.027.1.014.05.015.05.031.11.027.1.014.05.016.05.032.11.029.1.014.05.016.05.034.11.03.1.014.05.017.05.035.11.03.1.016.05.016.05.037.11.032.1.015.04.017.05.038.11.033.1.016.05.017.05.039.11.034.1.016.04.018.05.04.11.036.1.016.04.018.05.041.11.037.1.017.05.018.04.042.11.039.1.017.05.018.04.043.11.041.1.017.05.018.04.045.11.042.1.017.05.018.04.046.11.044.1.018.04.018.05.046.1.046.11.018.04.018.04.048.11.047.1.018.04.018.04.049.11.049.11.019.04.018.04.049.1.051.11.019.04.018.04.05.1.053.11.02.04.017.04.051.1.055.11.02.04.018.03.051.1.057.12.02.04.018.03.052.1.059.11.021.04.017.03.053.1.061.12.021.04.017.03.054.1.063.11.021.04.017.03.054.1.066.11.022.04.016.03.054.1.069.11.022.04.016.03.055.09.071.12.022.04.016.03.055.09.074.12.022.04.016.02.055.09.076.13.023.03.015.03.056.08.079.13.023.04.015.02.055.08.082.13.023.04.015.02.055.08.086.13.023.04.014.02.056.08.088.13.023.03.014.02.056.09.091.13.023.03.014.02.055.08.094.13.024.03.013.02.056.08.097.13.024.04.013.02.055.07.101.14.023.03.013.02.055.07.104.14.024.03.012.01.055.08.107.13.024.03.012.02.055.07.11.14.024.03.011.01.055.07.113.14.024.03.011.02.055.06.117.14.024.03.01.02.055.06.12.14.024.03.01.01.055.07.123.14.023.03.01.01.055.06.126.15.024.02.009.01.055.07.13.14.023.03.009.01.055.06.133.14.023.03.009.01.055.06.135.14.023.02.009.01.055.06.139.15.022.02.008.01.056.06.142.14.022.02.008.01.056.06.145.14.021.03h.008l.056.06.148.15.021.02h.008l.057.06.15.14.02.02.008.01.058.05.153.15.02.02.007.01.058.05.156.14.019.02.007.01.06.05.158.14.019.02.006.01.061.05.16.14.018.02.007.01.062.05.162.14.024.02.064.05.164.14.023.02.065.06.166.14.022.01.067.06.168.14.021.01.069.06.169.13.02.02.072.05.17.14.019.01.074.06.171.13.019.01.077.06.171.13.017.01.081.06.171.12.017.02.084.05.171.13.015.01.089.06.171.12.014.01.092.06.17.12.013.01.098.06.169.11.011.01.103.07.167.11h.011l.109.07.164.11h.01l.116.08.161.09.008.01.124.07.157.1h.007l.133.08.151.09.006.01.144.08.144.08h.004l.161.09.131.08h.003l.296.16h.001l.299.16 317.164 167.26c.07.03.14.07.21.11h.004l.068.03.133.07.013.01.081.04.114.06.02.01.085.04.104.05.026.01.086.04.097.05.016.01.017.01.087.04.09.04.019.01.021.01.085.04.086.04.022.01.024.01.085.04.08.04.025.01.028.01.083.04.075.03.028.01.033.02.08.03.071.03.031.02.037.01.078.04.067.03.033.01.041.02.077.03.062.03.036.01.045.02.074.03.059.02.038.02.05.02.072.03.054.02.041.02.054.02.069.03.051.02.043.01.059.03.066.02.047.02.045.02.064.02.064.03.043.01.047.02.069.03.06.02.04.01.048.02.075.03.057.02.036.01.051.02.079.03.055.02.032.01.052.02.086.03.051.01.029.01.052.02.092.03.048.02.026.01.053.01.098.04.045.01.022.01.053.02.105.03.042.01.019.01.052.02.113.03.039.01.015.01.05.01.122.04.035.01h.012l.048.02.132.04.04.01.042.01.145.05h.033l.033.01.161.05.043.01c.577.16 1.158.3 1.741.43l.048.01.161.03.069.02.146.03.042.01h.042l.135.03.047.01h.012l.037.01.125.02.05.01.016.01h.04l.117.02.052.01.019.01.044.01.108.01.053.01.023.01.047.01.102.01.053.01h.026l.051.01.096.02.052.01h.03l.054.01.09.01.051.01h.033l.058.01.085.01.05.01.036.01.062.01.079.01h.049l.04.01.064.01.074.01h.047l.044.01.068.01h.069l.045.01.048.01h.071l.064.01.043.01h.052l.074.01.06.01h.041l.055.01h.077l.055.01h.039l.059.01.081.01h.087l.063.01.083.01h.08l.068.01h.086l.042.01h.103l.089.01h.037l.029.01h.076l.091.01h.06l.081.01h.146l.086.01h.141l.092.01h.135l.098.01h.235l.097.01h.479l.166.01h.059c.078 0 .155 0 .232-.01h.539l.141-.01h.227l.03-.01h.234l.076-.01h.139l.019-.01h.075l.109-.01h.123l.104-.01h.057l.072-.01.098-.01h.063l.07-.01h.094l.039-.01h.099l.089-.01.042-.01h.1l.085-.01.045-.01h.038l.064-.01h.079l.049-.01h.041l.062-.01.075-.01h.052l.044-.01h.059l.071-.01.056-.01h.047l.057-.01.066-.01.059-.01h.051l.054-.01.065-.01.06-.01h.05l.06-.01.05-.01.07-.01.06-.01h.05l.05-.01.07-.01.06-.01.05-.01.04-.01.07-.01.07-.01h.04l.05-.01.07-.01.07-.01.04-.01.05-.01.07-.01.07-.01.04-.01.04-.01.08-.01.08-.01.03-.01.04-.01.07-.01.09-.02h.03l.03-.01.08-.01.09-.02.03-.01h.02l.08-.02.1-.02h.03l.02-.01.07-.01.11-.02.03-.01h.01l.08-.02.11-.02.04-.01.06-.02.13-.03h.03l.06-.02.14-.03.23-.05.01-.01c.52-.12 1.04-.26 1.55-.42l.03-.01.18-.05.05-.02.16-.05.07-.02.15-.05.07-.02.14-.05.09-.03.13-.04.03-.01h.01l.05-.02.13-.04.03-.02h.01l.06-.02.12-.04.03-.01.01-.01.06-.02.11-.04.03-.01.02-.01.06-.02.11-.04.03-.01.02-.01.06-.02.11-.04.03-.01.02-.01.07-.03.09-.03.03-.02h.02l.08-.03.09-.04.03-.01.02-.01.08-.03.08-.04.03-.01.03-.01.08-.03.08-.03.03-.02.03-.01.08-.03.08-.03.02-.02.03-.01.09-.04.07-.03.03-.01.03-.01.09-.04.06-.03.03-.01.04-.02.09-.04.06-.03.02-.01.04-.02.1-.04.05-.02.02-.01.05-.02.1-.05.04-.02.02-.01.06-.03.09-.04.04-.02.02-.01.07-.03.09-.05.03-.01.02-.01.07-.04.09-.04.03-.01.02-.02.09-.04.08-.04.02-.01.02-.01.1-.05.07-.04.02-.01.02-.01.12-.06.06-.03 346.51-181.71a31.282 31.282 0 0 0 16.05-21.17l50.24-235.92 196.74 93.64c.07.04.14.07.22.11h.02l.05.03.1.05.05.02.04.02.05.02.07.03.07.03.05.03.04.01.04.02.1.04.07.03.03.02.21.09.09.04.1.04.02.01.04.01.08.04.07.02.03.02.07.02.06.03.04.02.05.02.09.03.05.02.01.01.05.01.14.06c.08.03.16.06.25.09l.25.09.12.05.02.01c3.3 1.19 6.74 1.8 10.17 1.84h.02c.28.01.55.01.83 0h.03c.14 0 .27 0 .4-.01h.05c.14 0 .27-.01.4-.01l.25-.01.14-.01h.05l.02-.01c.13 0 .25-.01.37-.02h.04l.04-.01c.13 0 .25-.01.38-.02l.01-.01h.03l.21-.02.13-.01h.06l.03-.01.35-.03.04-.01.06-.01.1-.01.26-.03h.01l.05-.01.2-.02.12-.02.06-.01h.04c.11-.02.23-.03.34-.05l.05-.01.06-.01c.12-.02.24-.04.35-.06h.02l.04-.01.2-.03.13-.02.05-.01.05-.01h.02l.04-.01.11-.02.07-.02h.03l.04-.01.07-.01.1-.02.05-.01.02-.01.04-.01.15-.03.04-.01h.01c.08-.01.16-.03.23-.05h.02l.07-.02.12-.02.02-.01.04-.01.08-.01.07-.02.04-.01.06-.01.07-.02.04-.01.06-.02.08-.02.05-.01h.02l.05-.02c.27-.06.53-.13.78-.2h.01c1.81-.51 3.58-1.17 5.29-2l264.55-126.46c13.18-6.3 20.23-20.88 17-35.12l-212.52-934.267a31.127 31.127 0 0 0-1.77-5.541l-.01-.021c-.05-.124-.11-.248-.16-.371l-.01-.013-.01-.024-.06-.15-.09-.201-.01-.021c-.06-.115-.11-.23-.17-.344l-.01-.038-.02-.038c-.05-.111-.11-.222-.16-.332l-.01-.014-.02-.041-.08-.171-.06-.115-.03-.055-.02-.032c-.05-.103-.1-.207-.16-.31l-.02-.037-.03-.059-.05-.1-.09-.163-.03-.054-.01-.016a4.35 4.35 0 0 0-.17-.302l-.03-.054-.02-.05c-.06-.1-.12-.199-.17-.298l-.02-.022-.03-.06-.08-.138-.07-.109-.03-.06-.02-.032-.18-.295-.03-.037-.03-.053-.06-.095-.11-.176-.02-.036-.01-.01c-.06-.103-.13-.204-.19-.306l-.03-.042-.03-.036c-.06-.102-.13-.204-.2-.306l-.01-.012-.02-.029-.11-.158-.09-.134-.02-.029-.01-.015c-.07-.106-.15-.212-.22-.316l-.01-.017-.02-.023c-.16-.219-.32-.436-.48-.651l-.01-.018a31.234 31.234 0 0 0-8.48-7.699l-.01-.009c-.24-.145-.47-.287-.71-.426l-.03-.013-.02-.014-.05-.03-.07-.038-.04-.026-.06-.032-.07-.04-.04-.021-.02-.014-.11-.061-.07-.038-.01-.006-.21-.114-.02-.011-.06-.031-.09-.051-.05-.027-.04-.021-.04-.022-.06-.032-.1-.048-.05-.026-.02-.011c-.07-.039-.15-.077-.22-.115l-327.69-166.403a31.237 31.237 0 0 0-14.04-3.387ZM972.754 1916.68l96.586-539.53c-119.413 3.14-154.403 106.28-155.009 108.1-.273.86-.582 1.71-.928 2.54l-.018.05-.004.01-.014.03-.039.09-.031.08-.015.03-.018.04-.026.06-.03.08-.029.06-.019.05-.017.03-.026.06-.047.11-.017.04-.007.01a31.469 31.469 0 0 1-2.676 4.79l-.007.01-.017.02-.074.12-.04.05-.018.03-.024.03-.046.07-.049.07-.032.04-.022.03-.025.04-.059.08-.047.07-.016.02-.008.01-.056.08-.074.1-.157.21-.099.14-.059.07-.082.11-.01.02a31.27 31.27 0 0 1-6.865 6.58l-.029.02-.017.01-.062.05-.07.05-.035.02-.046.03-.071.05-.04.03-.028.02-.093.06-.062.04-.015.01c-.143.1-.287.19-.431.29l-.148.09-.08.05-.012.01c-.837.53-1.701 1.02-2.59 1.47h-.004l-.474.24h-.01l-.053.03-.123.06-.03.01-.038.02-.077.03-.06.03-.038.02-.069.03-.074.04-.024.01-.034.01c-2.7 1.24-5.53 2.07-8.403 2.5l-.115.02-.1.01-.023.01h-.029l-.109.01-.068.01-.017.01h-.045l-.131.02h-.047l-.052.01-.163.02-.132.02-.098.01h-.032l-.091.01-.1.01h-.032l-.039.01-.069.01h-.083l-.06.01h-.05l-.048.01h-.065l-.094.01-.055.01h-.029l-.045.01-.149.01h-.049c-.169.01-.338.03-.507.04l-.188.01h-.113l-.11.01h-.145l-.078.01h-.172c-.258.01-.515.02-.773.02H884.038c-.172 0-.344-.01-.516-.01l-.193-.01h-.074l-.04-.01h-.186l-.037-.01H882.883l-.104-.01h-.118l-.142-.01-.052-.01h-.013c-.08 0-.161-.01-.242-.01h-.007l-.062-.01-.15-.01h-.021l-.03-.01h-.083l-.088-.01h-.038l-.053-.01-.074-.01h-.057l-.053-.01h-.077l-.06-.01h-.031l-.062-.01-.109-.01-.043-.01h-.051l-.168-.02-.261-.03-.18-.02-.081-.02-.135-.01-.126-.02-.105-.02h-.014a31.035 31.035 0 0 1-10.345-3.44l-.075-.04-.104-.06-.039-.02-.025-.01-.068-.04-.072-.04-.033-.02-.046-.03-.085-.04-.046-.03-.021-.01-.069-.04-.099-.06-.029-.02-.13-.07-.074-.04-.077-.05-.111-.07-.019-.01-.026-.01-.066-.04-.084-.05-.042-.03-.04-.03-.051-.03-.061-.04-.068-.04-.051-.03-.034-.02-.041-.03-.101-.06-.054-.04-.017-.01-.02-.01-.193-.12-67.33-43.86-8.296 35.28c-.068.29-.141.58-.219.87l-76.214 286.66 257.336 135.71ZM1664.04 603.548l-383.29 194.744-96.46 372.898a31.228 31.228 0 0 1-26.11 23.15c-129.02 17.28-189.432 91.51-217.692 159.28 38.975-27.04 93.812-45.88 169.532-36.93a31.245 31.245 0 0 1 21.43 12.42 31.245 31.245 0 0 1 5.66 24.12l-99.12 553.71 277-145.26 55.38-260.07a31.247 31.247 0 0 1 18.18-22.38l207.2-89.85a31.25 31.25 0 0 1 43.46 24.95l7.34 61.17 12.39 96.24 203.23-97.15-198.13-871.042Zm-187.56 905.672 105.67-45.82 2.36 19.68.03.26 10.61 82.37-118.67-56.49Zm-258.85-716.495L990.926 670.769l-78.333 328.637-.064.262-.002.008-.021.082-.039.156-.008.031-.025.095-.033.13-.006.02-.006.02-.026.1-.03.11-.008.03-.008.03-.027.09-.027.1-.01.04-.011.04-.026.09-.025.08-.012.04-.014.05-.026.09-.022.07-.014.05-.017.05-.025.09-.019.06-.016.05-.022.07-.024.07-.016.06-.018.05-.025.08-.023.07-.014.04-.019.06-.03.09-.022.06-.011.04-.019.06-.036.1-.021.06-.008.02-.019.06-.043.12-.018.05-.006.02-.016.04-.052.15-.017.04-.002.01-.012.03c-.322.88-.682 1.74-1.078 2.58l-.048.1-.064.13a30.747 30.747 0 0 1-2.285 3.97l-.071.11-.071.1-.082.12-.063.09-.091.13-.056.07-.101.14-.049.07-.109.15-.048.07c-.394.53-.804 1.05-1.231 1.55l-.05.06-.1.12-.037.04-.009.01-.028.04-.085.09-.044.05-.015.02-.031.04-.075.08-.046.05-.021.03-.036.04-.066.07-.046.05-.028.03-.039.05-.058.06-.045.05-.035.04-.043.05-.051.05-.043.05-.042.04-.046.05-.045.05-.041.04-.049.05-.049.05-.039.04-.038.04-.057.06-.052.06-.032.03-.035.04-.066.06-.054.06-.027.03-.031.03-.076.07-.055.06-.021.02-.027.03-.089.08-.054.05-.015.02-.023.02-.105.1-.049.05-.01.01-.018.02-.13.12-.036.04h-.004c-.193.18-.388.36-.586.54l-.177.16-.023.02-.031.02-.136.12-.025.02-.01.01-.04.04-.118.1-.031.03-.014.01-.044.03-.104.09-.038.03-.019.02-.044.04-.094.08-.044.03-.024.02-.044.04-.084.07-.051.04-.028.02-.043.03-.075.07-.058.04-.034.03-.04.03-.067.05-.064.05-.039.03-.038.03-.06.05-.069.05-.045.04-.035.02-.052.04-.076.06-.051.04-.031.02-.045.04-.082.06-.056.04-.029.02-.037.03-.088.06-.063.05-.025.02-.029.02-.093.07-.071.05-.021.01-.022.02-.096.06-.08.06-.017.01-.015.01-.097.07-.091.06-.021.02-.089.06-.112.07-.224.15-.224.15-.175.11-.051.04-.156.1-.034.02-.038.02-.144.09-.035.02-.008.01-.041.02-.137.09-.032.01-.01.01-.051.03-.13.08-.028.02h-.012l-.062.04-.123.07-.023.02h-.013l-.073.05-.118.06-.017.01-.013.01-.086.05-.112.06-.123.07-.106.06-.131.07-.102.06a31.102 31.102 0 0 1-5.983 2.47c-74.137 21.97-124.406 56.59-158.135 94.89-49.303 55.97-63.05 119.09-66.544 157.43-.506 6.95-.787 14.11-.826 21.46 46.237 30.12 192.114 125.13 192.114 125.13 13.21-86.76 65.561-247.99 271.251-285.34l88.71-342.975Zm141.56-365.908 257.43 130.721-362.18 184.017-221.29-119.042 326.04-195.696Z" style="fill:#fff" transform="matrix(1 0 0 1 .001 0)"/>
    <path d="m54.447 1441.68 73.62 37.43-.095.05 870.894 443.17 870.924-442.09-.37-.19 73.91-37.19 15.14 7.71a33.34 33.34 0 0 1 18.21 29.73 33.34 33.34 0 0 1-18.25 29.7l-944.49 479.44a33.334 33.334 0 0 1-30.21-.01L39.234 1508.8a33.322 33.322 0 0 1-18.216-29.73 33.338 33.338 0 0 1 18.266-29.71l15.163-7.68Z" style="fill:#fff"/>
</svg>
