<?xml version="1.0" encoding="UTF-8"?>
<svg id="Ebene_1" xmlns="http://www.w3.org/2000/svg" viewBox="0 0 199.999999999999091 200">
  <defs>
    <style>
      .cls-1 {
        fill: #6ee96e;
      }

      .cls-1, .cls-2 {
        fill-rule: evenodd;
      }

      .cls-2 {
        fill: #172d4d;
      }
    </style>
  </defs>
  <path class="cls-1" d="M57.902279124649795,133.626414199719875l-31.081005859380639-31.081005859379729L3.023275218399249,126.343406387220057l54.659008789059953,54.658996582030341.177001953120453-.175988769529795.176977539069412.175988769529795L196.495296702769338,42.54350709522987l-23.755029296869907-23.75549926757958-114.837988281249636,114.838406372069585Z"/>
  <path class="cls-2" d="M57.901538599518972,129.206396957290053l-28.871002197269263-28.870996093749454c-1.220300292970933-1.220104980470751-3.198999023430588-1.220104980470751-4.419400024409697,0L.813136042149381,124.133398910410506c-1.220399975779401,1.220996093749818-1.220399975779401,3.198999023439683,0,4.419995117189501l54.659300994870136,54.659008789059953c.655200195310499.654992675780704,1.528900146479828.958996582030522,2.386499023439683.90999755860048.85759887695076.048999023430042,1.731298828120089-.255004882819776,2.386499023429678-.90999755860048L198.704932154209018,44.753198715100552c1.220007324220205-1.220401000980019,1.220007324220205-3.199099731440583,0-4.419400024410606l-23.755993652349389-23.75550079345976c-1.220007324220205-1.220399475099839-3.198999023430588-1.220399475099839-4.419006347649884,0l-112.628393554690774,112.628099060059867ZM7.442236078769383,126.343396469010258l19.378598785399845-19.379003906249636c7.100000000000364,7.099999999999454,28.870999145499809,28.871008300779977,28.870999145499809,28.871008300779977,1.220404052740378,1.220996093749818,3.198999023439683,1.220996093749818,4.41940307618097,0L172.739941919829107,23.207397933850189c4.526989746090294,4.527001953119907,14.808996582029977,14.809100341800331,19.335998535160797,19.336099243159879L57.8589360604592,176.760400863539871,7.442236078769383,126.343396469010258Z"/>
</svg>