<svg xmlns="http://www.w3.org/2000/svg" viewBox="0 0 2000 2000" style="enable-background:new 0 0 2000 2000" xml:space="preserve"><path d="M907 138.2h0l32.4 437.5-82.9 132.7L994.9 878 840 1023.7l162.2 143.8c-39.2 142.8-56 155.6-87.8 257.1h0c-22.9 16.6-472.6 340.4-518.1 307.5-46.7-33.9 132.7-588.7 132.7-588.7S57.7 800.1 75.5 745.4c17.9-54.9 600.9-55.6 600.9-55.6S842.1 181.7 907 138.2z" style="fill-rule:evenodd;clip-rule:evenodd;fill:#e5bd73;stroke:#000000;stroke-width:120;stroke-linecap:round;stroke-linejoin:round;stroke-miterlimit:10"/><path d="M1226.2 191.3c3.3-1.3 6.4-1.8 8.9-1.2 56.4 12.3 114.7 592.5 114.7 592.5s569.5 125.6 575.1 182.8c5.7 57.5-528 292-528 292s56.5 580.3 3.7 603.5c-53.1 23.2-441.2-411.9-441.2-411.9s1.9-.9 0 0c52.8-92.3 70.6-101 139.8-232l-127.7-175.2 182.6-109.2-98.9-195.4 109.4-111.9 61.6-434h0z" style="fill:none;stroke:#000000;stroke-width:120;stroke-linecap:round;stroke-linejoin:round;stroke-miterlimit:10"/></svg>