<?xml version="1.0" encoding="UTF-8"?>
<svg id="Ebene_1" data-name="Ebene 1" xmlns="http://www.w3.org/2000/svg" viewBox="0 0 2000 2000">
  <defs>
    <style>
      .cls-1 {
        fill: #172d4d;
      }

      .cls-2 {
        fill: #fff;
      }
    </style>
  </defs>
  <g>
    <g>
      <path class="cls-2" d="M327.476562500003638,1850.999999999998181V215.02392578125c0-36.40576171875,29.6181640625-66.02392578125,66.0234375-66.02392578125h1209.9521484375c36.40625,0,66.0244140625,29.6181640625,66.0244140625,66.02392578125v1635.976074218748181H327.476562500003638Z"/>
      <path class="cls-1" d="M1603.452392578128638,189c14.349609375,0,26.023681640625,11.674163818359375,26.023681640625,26.02374267578125v1595.976257324216931H367.476074218753638V215.02374267578125c0-14.349578857421875,11.674072265625-26.02374267578125,26.023681640625-26.02374267578125h1209.95263671875M1603.452392578128638,109H393.499755859378638c-58.555419921875,0-106.023681640625,47.468338012695312-106.023681640625,106.02374267578125v1668.619201660154431c0,4.0633544921875,3.293701171875,7.3570556640625,7.357177734375,7.3570556640625h1407.28564453125c4.0634765625,0,7.357177734375-3.293701171875,7.357177734375-7.3570556640625V215.02374267578125c0-58.555404663085938-47.46826171875-106.02374267578125-106.023681640625-106.02374267578125h0Z"/>
    </g>
    <g>
      <rect class="cls-2" x="1292.000000000003638" y="1039.999999999998181" width="208" height="1"/>
      <polygon class="cls-1" points="1540.000000000003638 999.999999999998181 1252.000000000003638 999.999999999998181 1252.000000000003638 1080.999999999998181 1540.000000000003638 1080.999999999998181 1540.000000000003638 999.999999999998181 1540.000000000003638 999.999999999998181"/>
    </g>
    <g>
      <rect class="cls-2" x="1486.000000000003638" y="1125.999999999998181" width="27" height="72"/>
      <polygon class="cls-1" points="1513.000000000003638 1125.999999999998181 1486.000000000003638 1125.999999999998181 1486.000000000003638 1197.999999999998181 1513.000000000003638 1197.999999999998181 1513.000000000003638 1125.999999999998181 1513.000000000003638 1125.999999999998181"/>
    </g>
  </g>
  <polygon class="cls-1" points="1092.142822265628638 544.65338134765625 974.047607421878638 380.26458740234375 857.476074218753638 544.65338134765625 911.000000000003638 544.65338134765625 911.000000000003638 1000.714294433591931 1038.619140625003638 1000.714294433591931 1038.619140625003638 544.65338134765625 1092.142822265628638 544.65338134765625"/>
</svg>