<?xml version="1.0" encoding="UTF-8"?>
<svg id="Ebene_1" data-name="Ebene 1" xmlns="http://www.w3.org/2000/svg" viewBox="0 0 2000 2000">
  <defs>
    <style>
      .cls-1 {
        fill: #172d4d;
      }

      .cls-2 {
        fill: #cfd8e5;
      }
    </style>
  </defs>
  <ellipse class="cls-1" cx="990.941971876393836" cy="1044.485107421877274" rx="833.732360839837384" ry="953.342163085951938"/>
  <path class="cls-2" d="M993.572919934798847,72.718770834681891c-11.615221116910107,5.519757504132031-11.439371200740425,22.099500946821536.292296183069993,27.367239066234106,89.574187975649693,40.220486063711178,563.527755319129938,165.498829558520811,645.781909264631395,513.075062068724037,95.92203107784735,405.331725846370318,56.500786027747381,497.452572635589604,77.381511298866826,894.186352786930001.491480011271051,9.338120214169976,14.417808558522665,11.098255395070737,20.120106258920714,3.687058280449492,76.86005924166966-99.893951387510242,294.389420796982449-730.088923938213156,134.642916338820214-1046.495043879493096C1617.538122154248413-39.054523263684132,1178.227530303447566-15.032349957246879,993.572919934798847,72.718770834681891Z"/>
  <path class="cls-2" d="M1007.277582834816712,128.238944744740365c.982122183373576,5.787132952500542-5.75479125037964,11.089845477985364-11.12080066452836,8.752186215899201-40.970811754010356-17.84860781630141-195.724481241959438-31.623729791069309-356.185547775388841,21.218843376665973-212.396423170419439,58.89242159213245-354.752020600641117,181.49683725173054-504.073031157950027,248.316520087389108-4.362285306720878,1.952079747829885-8.460134574659605-1.376981697320844-7.045742011050606-5.738897440784967C147.916758100916923,341.994261373538393,413.408955253056774,63.101201384467458,613.592023959379731,14.95836517661337c175.366322391248104-42.174556468812625,378.072133416018914,21.278820002878092,393.685558875436982,113.280579568126996Z"/>
  <path class="cls-2" d="M984.858623838019412,92.371218130532725c-11.615221116910107,5.519757504132031-11.439371200740425,22.099500946821536.292296183069993,27.367239066234106,89.574187975649693,40.220486063711178,429.645457967308175,186.379554852640467,511.899611912820546,533.955787362843694,95.922031077840074,405.331725846368499,43.106078921467997,494.996016716489976,63.986804192598356,891.729796867828554.491480011271051,9.338120214171795,14.417808558519027,11.098255395070737,20.120106258920714,3.687058280451311,76.860059241658746-99.893951387510242,275.927682657169498-721.425215643677802,134.6429163388093-1046.495043879492187C1572.158413165128877,172.12279893228424,1169.513234206679044,4.620097338603955,984.858623838019412,92.371218130532725Z"/>
  <path class="cls-2" d="M1000.942587677549454,89.914662234431489c11.615221116659086,5.519757504652262,12.95994534116835,31.580600594861608,1.228277957128739,36.848338713745761-89.574187977461406,40.220486059689392-511.002398788310529,63.633053896884121-626.421758133710682,401.64689197984535-135.118409968697961,395.70391490835209-49.870368813768437,629.069814072287045-143.360255832860275,935.198609236987977-2.731226897998567,8.943290298719148-14.417808559017431,11.098255394408625-20.120106259088061,3.687058279539997-76.86005923716948-99.893951390960865-223.459995665981296-718.21946564267455-82.175229333031893-1043.289293872145208C273.73546164993968,93.513009682739721,816.287977312837029,2.163541434209947,1000.942587677549454,89.914662234431489Z"/>
  <path class="cls-2" d="M1000.942587677549454,94.827774062930985c11.615221116659086,5.519757504653171,11.439371199747256,22.099500947333581-.29229618429963,27.367239066219554-89.574187977450492,40.220486059689392-396.480252591380122,195.941949256900443-511.899611936791189,533.955787339861672-135.118409968701599,395.703914908347542-49.870368813768437,629.069814072287954-143.360255832860275,935.198609236987068-2.731226897998567,8.943290298720967-14.417808559021069,11.098255394421358-20.120106259088061,3.687058279539997-76.860059237173118-99.89395139096996-223.459995665980387-718.219465642672731-82.175229333031893-1043.289293872144299C386.73703370543808,221.253917223728422,816.287977312829753,7.076653262710352,1000.942587677549454,94.827774062930985Z"/>
  <path class="cls-2" d="M956.758186832528736,117.089553076270022c-4.579162683330651,3.358837591901647-3.125658372919133,10.535083454860796,2.400097612240643,11.845252009504293,42.190516414179001,10.003461618370238,165.840376902389835,83.80765286114729,249.363277986889443,205.407170616512303,117.914683883987891,153.534744640613098,141.601860939350445,312.260819606659425,207.578974754109367,437.266952736468738,1.92746481623908,3.65194700844404,7.175096622970159,3.615810028982196,9.032629550260026-.072198782609121,25.03729169116923-49.709887248219275,14.304651635109622-379.465689968988045-101.73143238513876-519.227618315138898-101.651060955442517-122.435606281615037-293.845665102409839-188.617151008026667-366.64354751836072-135.219558264737316Z"/>
  <path class="cls-2" d="M1452.213493800220022,1511.119822247379489c-7.134144790899882-44.31255554333984-138.153537150003103-247.834527587459888-246.454755732640479-277.077263219269298-89.77349635614155-24.239956711209743-198.665553011600423,24.907573741709712-222.033948585951293,90.478303194258842-21.454620070478995-66.812389158869337-131.97223122070136-117.521741573298641-222.881516298530187-92.975118908059812-108.301518500447855,29.242735631811229-239.320910859558353,232.764707675931277-246.455055650450959,277.077263219271117-.529354923099163,3.287399043720143,1.940768106192991,5.994157219938643,4.24803576819977,4.665221432809631,78.97105691113029-45.491232510928967,150.80317034651307-133.983180092880502,265.253603653491155-170.994836546609804,85.975337293119082-34.358733523229603,172.68997197176941-17.901193935089395,196.480651813391887-2.664619724839213.202444517337426.129714449998573.406388623687235.232586256579452.610632647847524.314763734728331.994227518469415,2.274576621441156,3.186926579561259,3.503489821119729,5.250361067359336,2.182201937970603,23.790679841622477-15.236724169149966,110.505314520272805-31.694113798379476,196.480351895592321,2.66446976593943,114.450433306978084,37.011656453731121,186.282546742360864,125.503604035680837,265.253903571290721,170.994836546609804,2.306967744207213,1.328935787130831,4.777090773499367-1.377672430189705,4.247735850400204-4.665221432809631Z"/>
  <path class="cls-2" d="M573.752946257947769,797.891383354432946c4.595232860439864-2.125851607343066,9.22295400971052-4.175092114971449,13.885326547409932-6.149342179982341-3.075891306369158,1.298041380354334-6.151782612738316,2.596082760707759-9.227673919118388,3.894124141062093,35.261187269690708-14.795730669856312,72.351894169049046-24.837321785050335,110.233047443689429-30.024412189449322-3.423038097978861.459954887942331-6.846076195950445.919909775881933-10.26911429392203,1.379864663824264,38.354458589761634-5.128989592943981,77.250046233151807-5.249088525127263,115.617763759611989-.182024579405152-3.423038097971585-.459954887940512-6.846076195939531-.919909775880114-10.269114293911116-1.379864663822445,5.4735032869321.741011525731665,10.930665491232503,1.579712141352502,16.373952481390006,2.517295987574471,10.491768247051368,1.80716402507187,20.266062851191236,1.665081714366352,29.765902506951534-3.894124141061184,8.01294967308786-4.689093538006091,15.654804146459355-13.876830562368013,17.752331752461032-23.085881530518236,2.252301076758158-9.888573266988715,1.76487913508754-20.988351233921094-3.894124141061184-29.765902506948805-5.144520327470673-7.979548472742863-13.338499475310527-16.073385194165894-23.085881530521874-17.752331752461942-37.025143759539787-6.377429071034385-74.519505227468471-9.194411445436344-112.043822695119161-6.743361602695586-37.573643062369229,2.454271739881733-75.190446945380245,8.863922873424599-111.179272567809676,20.018922397693132-21.422141471768555,6.639949311866985-42.3064686582984,15.044359351137246-62.652897476109501,24.457046307323253-8.300261485790543,3.839875966433283-15.417749231131893,14.608171916579522-17.752331752461032,23.085881530518236-2.546334499020304,9.246657278255952-1.396675720319763,21.559463176145982,3.894124141061184,29.765902506947896,5.317696271758905,8.248157741219075,13.236150475058821,15.508877690585905,23.085881530518236,17.75233175246376,3.423038097971585.459954887939602,6.846076195939531.919909775881933,10.269114293911116,1.379864663823355,6.972842830429727-.021672566643247,13.471772234781383-1.779668834938093,19.496788213029504-5.273988804885448h0Z"/>
  <path class="cls-2" d="M1351.587385529619496,797.891383359306019c-4.595232860341639-2.125851607549521-9.222954009521345-4.175092115385269-13.885326547129807-6.149342180606254,3.075891306307312,1.298041380492577,6.151782612629177,2.596082760984245,9.227673918940127,3.894124141476823-35.26118726902132-14.795730671441561-72.351894167932187-24.837321788297231-110.233047442332463-30.024412194398792,3.423038097949757.459954888096036,6.846076195899514.919909776189343,10.269114293852908,1.379864664285378-38.354458589532442-5.128989594664745-77.250046232922614-5.249088528595166-115.617763759601075-.182024584593819,3.423038097989775-.459954887788626,6.846076195979549-.919909775575434,10.269114293980238-1.379864663363151-5.473503286972118.741011525485192-10.930665491312539,1.579712140862284-16.373952481510059,2.517295986839599-10.491768247131404,1.807164024599842-20.266062851271272,1.665081713455947-29.765902506780549-3.894124142398141-8.012949672880495-4.689093538366251-15.654804145829985-13.876830563071053-17.75233175142057-23.085881531314953-2.252301076317963-9.888573267092397-1.764879134148941-20.988351234001129,3.89412414239996-29.765902506774182,5.144520327819919-7.979548472512761,13.338499476019933-16.073385193569266,23.085881531311315-17.752331751426027,37.025143759827188-6.377429069371829,74.519505227890477-9.194411442090313,112.043822695428389-6.743361597665171,37.573643062260089,2.454271741567936,75.190446944980067,8.863922876799734,111.179272566900181,20.018922402685348,21.422141471481154,6.639949312828321,42.306468657629011,15.04435935303627,62.652897475021746,24.457046310135411,8.300261485619558,3.839875966805266,15.417749230469781,14.608171917272557,17.752331751427846,23.085881531315863,2.546334498601937,9.246657278370549,1.396675719341147,21.559463176208737-3.89412414239996,29.765902506773273-5.317696272129979,8.248157740978968-13.236150475760951,15.508877689991095-23.085881531318591,17.752331751426937-3.423038097989775.459954887785898-6.846076195979549.919909775574524-10.269114293969324,1.379864663361332-6.972842830440641-.021672566955203-13.471772234701348-1.779668835541088-19.496788212800311-5.273988805759473h0Z"/>
</svg>