<?xml version="1.0" encoding="UTF-8"?>
<svg id="Ebene_1" xmlns="http://www.w3.org/2000/svg" viewBox="0 0 200 200">
  <defs>
    <style>
      .cls-1 {
        fill: #cfd8e5;
        fill-rule: evenodd;
        stroke: #172d4d;
        stroke-miterlimit: 10;
        stroke-width: 6px;
      }

      .cls-2 {
        fill: none;
      }
    </style>
  </defs>
  <rect id="home-icon" class="cls-2" x=".357787438167179" y="-.000097286700111" width="199.999999999999091" height="200"/>
  <path class="cls-1" d="M12.217797203791633,94.220703494550435c-1.043994140624818-.642102050780522-1.879003906249636-1.616101074219841-2.342016601561227-2.810900878910616-.855981445313773-2.205902099609375-.267993164063228-4.710797119139897,1.480004882811954-6.305999755859375C32.313793297542361,65.97170447111057,77.574804039730225,24.653702151779726,94.129784508480043,9.541102969649728c3.527001953125364-3.220100402839307,8.928002929686954-3.220100402839307,12.455004882812318,0,16.555004882813591,15.112599182129998,61.816992187499636,56.430601501460842,82.775024414061591,75.562699890130716,1.746972656251273,1.595202636719478,2.3349609375,4.10009765625,1.478955078127001,6.305999755859375-.462988281251455,1.194799804690774-1.297998046875364,2.168798828130093-2.341992187502001,2.810900878910616v94.004199218749818c0,2.941003417970023-2.386962890625,5.328002929690228-5.327978515623727,5.328002929690228h-50.243994140624636c-1.256005859375364,0-2.461010742188591-.498999023439865-3.349023437500364-1.386999511720205-.888989257813591-.88900146485048-1.387988281250728-2.093005371099935-1.387988281250728-3.350000000000364v-56.985998535159524c0-1.536010742190228-1.246997070313228-2.783007812499818-2.783007812498909-2.783007812499818h-50.094995117188773c-1.535986328124636,0-2.783007812499818,1.24699707030959-2.783007812499818,2.783007812499818v56.985998535159524c0,1.256994628900429-.498999023438046,2.460998535149884-1.387988281249818,3.350000000000364-.888012695311772.888000488280341-2.091992187500182,1.386999511720205-3.348999023436591,1.386999511720205H17.545800133480043c-2.940014648437682,0-5.328002929688409-2.386999511720205-5.328002929688409-5.328002929690228v-94.004199218749818Z"/>
</svg>