<?xml version="1.0" encoding="UTF-8"?>
<svg id="Ebene_1" xmlns="http://www.w3.org/2000/svg" xmlns:xlink="http://www.w3.org/1999/xlink" viewBox="0 0 200 200">
  <defs>
    <style>
      .cls-1 {
        fill: #2e3a4d;
      }

      .cls-1, .cls-2 {
        fill-rule: evenodd;
      }

      .cls-2 {
        fill: #172c4f;
      }

      .cls-3 {
        fill: none;
      }

      .cls-4 {
        fill: #e9f2fa;
      }

      .cls-5 {
        clip-path: url(#clippath-1);
      }

      .cls-6 {
        clip-path: url(#clippath-2);
      }

      .cls-7 {
        clip-path: url(#clippath);
      }

      .cls-8 {
        fill: #e6e6e6;
      }
    </style>
    <clipPath id="clippath">
      <rect class="cls-3" x=".000000000020009" y=".000000000030923" width="200" height="200"/>
    </clipPath>
    <clipPath id="clippath-1">
      <rect class="cls-3" x=".000000000020009" y=".000000000030923" width="200" height="200"/>
    </clipPath>
    <clipPath id="clippath-2">
      <path class="cls-3" d="M8.726499938984489.335705566437355C4.311199951192066.335705566437355.726499986668387,3.920397949249491.726499986668387,8.335705566437355v183.999994659423464c0,3.61649971008319,2.404899930954343,6.675699806213743,5.701399946213314,7.664299774170104h188.597698211669922c2.211999511718204-.663299989700135,4.022497558593386-2.259099960327148,4.974401855468386-4.329800033568972V5.001196289093059c-1.26519775390625-2.752294921874636-4.047399902343386-4.665490722655704-7.273095703125364-4.665490722655704H8.726499938984489Z"/>
    </clipPath>
  </defs>
  <g class="cls-7">
    <g class="cls-5">
      <rect class="cls-8" x=".726513671895191" y=".335742187530741" width="200.000402832030886" height="199.999902343750364" rx="8" ry="8"/>
    </g>
    <g class="cls-6">
      <rect class="cls-4" x=".727172851582509" y=".335681152374491" width="200.000402832030886" height="199.999902343750364" rx="8" ry="8"/>
      <path class="cls-2" d="M32.369180297871935,76.221337890656287c24.082998657226199-5.638293457031978,152.087802124023256,102.443005371093022,152.087802124023256,102.443005371093022l-78.799108886719296,21.67059326171875-68.053695678710938-39.401098632812136s-26.982797241210392-79.619897460937864-5.234997558593022-84.712499999999636"/>
      <path class="cls-2" d="M116.679614257832327,102.13615112307798c27.060791015625-3.754095458984921,175.2322998046875,81.345501708984557,175.2322998046875,81.345501708984557l-87.555004882812682,16.854998779296693-75.6156005859375-30.645501708984739s-37.768994140624272-63.987896728515807-12.061694335937318-67.554998779296511"/>
      <path class="cls-1" d="M116.678955078145009,102.135882568390116c21.225500488280886,0,87.677099609374636,98.200097656250364,87.677099609374636,98.200097656250364h-127.352099609374818s18.449694824218568-98.200097656250364,39.675000000000182-98.200097656250364"/>
      <path class="cls-1" d="M32.865649414082327,76.221716308624309c19.102795410156432,0,72.792993164062864,124.113793945312864,72.792993164062864,124.113793945312864H-8.958651733378247S13.762849426289904,76.221716308624309,32.865649414082327,76.221716308624309"/>
      <path class="cls-2" d="M27.983560180684435,7.470751953155741c10.270098876952943,0,18.59570007324146,8.325610351562318,18.59570007324146,18.595703125,0,10.270104980469114-8.325601196288517,18.595605468750364-18.59570007324146,18.595605468750364-10.270100402832213,0-18.595700073242369-8.32550048828125-18.595700073242369-18.595605468750364,0-10.270092773437682,8.325599670410156-18.595703125,18.595700073242369-18.595703125"/>
      <path class="cls-2" d="M25.600869750996935,48.784594726593241v19.648205566406432c0,.564904785156614,1.067898559569585,1.023400878906614,2.382897949218204,1.023400878906614s2.383001708984921-.45849609375,2.383001708984921-1.023400878906614v-19.648205566406432c0-.564794921874636-1.068002319336301-1.023388671875182-2.383001708984921-1.023388671875182s-2.382897949218204.458593750000546-2.382897949218204,1.023388671875182"/>
      <path class="cls-2" d="M46.225918579121753,47.679150390656105l13.916098022460574,13.916101074218204c.400097656250182.400109863281614,1.479998779296693-.030297851561954,2.409802246093932-.960192871093568.929895019531614-.929797363281068,1.360296630859011-2.00970458984375.960198974609739-2.409802246093932l-13.916101074219114-13.916101074218204c-.400100708007812-.400000000000546-1.479998779296693.0303955078125-2.409799194336301.960205078125-.929901123046875.929797363281068-1.360198974609375,2.009790039061954-.960198974608829,2.4097900390625"/>
      <path class="cls-2" d="M53.800567626973134,28.449645996124673h19.639196777343386c.564599609375364,0,1.022900390625182-1.067895507812864,1.022900390625182-2.382897949219114,0-1.314990234374818-.458300781249818-2.38299560546875-1.022900390625182-2.38299560546875h-19.639196777343386c-.564605712890625,0-1.022900390625182,1.068005371093932-1.022900390625182,2.38299560546875,0,1.31500244140625.458294677734557,2.382897949219114,1.022900390625182,2.382897949219114"/>
    </g>
  </g>
</svg>