<?xml version="1.0" encoding="UTF-8"?>
<svg id="Ebene_1" xmlns="http://www.w3.org/2000/svg" xmlns:xlink="http://www.w3.org/1999/xlink" viewBox="0 0 200 200">
  <defs>
    <style>
      .cls-1, .cls-2, .cls-3, .cls-4, .cls-5 {
        fill-rule: evenodd;
      }

      .cls-1, .cls-6 {
        fill: #2e3a4d;
      }

      .cls-7 {
        fill: #172d4d;
      }

      .cls-2 {
        fill: #172c4f;
      }

      .cls-3, .cls-8, .cls-9, .cls-10 {
        fill: #e9f2fa;
      }

      .cls-11, .cls-12 {
        fill: none;
      }

      .cls-13 {
        fill: #e5bd73;
      }

      .cls-9, .cls-10, .cls-12 {
        stroke: #e9f2fa;
        stroke-miterlimit: 6.51000022888184;
      }

      .cls-9, .cls-12 {
        stroke-width: .1px;
      }

      .cls-14 {
        clip-path: url(#clippath-1);
      }

      .cls-4 {
        fill: #172d4f;
      }

      .cls-10 {
        stroke-width: .396000003814697px;
      }

      .cls-5 {
        fill: #363f4d;
      }

      .cls-15 {
        clip-path: url(#clippath);
      }
    </style>
    <clipPath id="clippath">
      <path class="cls-9" d="M7.65373145045578,101.941140449730483h88.815435689924925c2.132289046287042,0,3.860863627077379,1.661466664039835,3.860863627077379,3.710997238619711v85.367904289690159c0,2.049520399329595-1.728574580790337,3.710997238619711-3.860863627077379,3.710997238619711H7.65373145045578c-2.132299632465219,0-3.860863627078288-1.661476839290117-3.860863627078288-3.710997238619711v-85.367904289690159c0-2.049530574579876,1.728563994613069-3.710997238619711,3.860863627078288-3.710997238619711Z"/>
    </clipPath>
    <clipPath id="clippath-1">
      <rect class="cls-11" x="3.792867823377492" y="101.941140449730938" width="96.537162944080592" height="92.789898766929582"/>
    </clipPath>
  </defs>
  <g id="videoIcon">
    <g id="screen_button-icon">
      <rect class="cls-11" x="98.373452130139412" y=".653271170789594" width="99.091070285050591" height="99.091056143659443"/>
      <g id="Fernseher-2">
        <path class="cls-4" d="M161.58492930463035,88.097515966750507c0-.08073035157031-.064258463691658-.146638015270582-.144988815260149-.146638015270582h-27.038614004204646c-.080732865590107,0-.146635501239871.065907663700273-.146635501239871.146638015270582v7.018733771679763c0,.0807303515694.065902635649763.146638015259668.146635501239871.146638015259668h27.036969832246541c.080730351566672,0,.14498881525833-.065907663690268.14498881525833-.146638015259668v-7.018733771679763h.001644171959924Z"/>
        <path class="cls-4" d="M187.371378147347059,94.048613967979691c0-.202650478919168-.163109903140139-.365760382059307-.362472038144915-.365760382059307h-78.1781931868627c-.20265424995705,0-.365765410111635.164759103139659-.365765410111635.365760382059307v1.706901895150622c0,.202650478920077.163111160154585.365760382060216.365765410111635.365760382060216h78.1781931868627c.199362135004776,0,.362472038144915-.164759103150573.362472038144915-.365760382060216v-1.706901895150622Z"/>
        <path class="cls-4" d="M196.558347347872768,9.97699324262976c0-2.917887336950116-2.369236707760138-5.287124044709344-5.287124044711163-5.287124044709344h-86.70282883179425c-2.917883565914963,0-5.287119645170606,2.369236707759228-5.287119645170606,5.287124044709344v77.515869687370468c0,2.917877280850007,2.369236079255643,5.287113988610145,5.287119645170606,5.287113988610145h86.70282883179425c2.917887336951026,0,5.287124044711163-2.369236707760138,5.287124044711163-5.287113988610145V9.97699324262976Z"/>
        <path class="cls-3" d="M192.449254913110053,11.374147219379665c0-1.316423625179596-1.06763577044876-2.384059395629265-2.384059395628356-2.384059395629265h-84.290764461347862c-1.316424882192223,0-2.384064423678865,1.069284970460103-2.384064423678865,2.384059395629265v74.721541621680444c0,1.316423625179596,1.069286227468183,2.384059395630175,2.384064423678865,2.384059395630175h84.290754405250482c1.316423625177777,0,2.384059395628356-1.069284970460103,2.384059395628356-2.384059395630175V11.374137163280466l.000010056097381.0000100560992Z"/>
        <g id="Videobutton-2">
          <circle class="cls-6" cx="147.919808258758167" cy="47.736483295432663" r="22.982246003437933"/>
          <path class="cls-3" d="M162.18629902551038,48.173088885119796l-22.799365498151019,13.663471217359984v-27.326942434719967l22.799365498151019,13.663471217359984Z"/>
        </g>
      </g>
    </g>
  </g>
  <g>
    <path class="cls-11" d="M100.330030767458084,105.653796255060115c0-2.048879358199883-1.730967056907502-3.710997238609707-3.860863627077379-3.710997238609707H7.65373145045578c-2.131622117105508,0-3.860863627078288,1.663776447129749-3.860863627078288,3.710997238609707v85.366225372469671c0,2.048889533460169,1.730967056908412,3.710997238620621,3.860863627078288,3.710997238620621h88.813699556812935c2.131632703281866,0,3.860863627079198-1.663776447130658,3.860863627079198-3.710997238620621v-85.366225372469671h.001736133110171Z"/>
    <g>
      <path class="cls-8" d="M7.65373145045578,101.941140449730483h88.815435689924925c2.132289046287042,0,3.860863627077379,1.661466664039835,3.860863627077379,3.710997238619711v85.367904289690159c0,2.049520399329595-1.728574580790337,3.710997238619711-3.860863627077379,3.710997238619711H7.65373145045578c-2.132299632465219,0-3.860863627078288-1.661476839290117-3.860863627078288-3.710997238619711v-85.367904289690159c0-2.049530574579876,1.728563994613069-3.710997238619711,3.860863627078288-3.710997238619711Z"/>
      <g class="cls-15">
        <g id="bild-icon">
          <rect class="cls-11" x="3.792867823377492" y="101.941140449730938" width="96.537162944080592" height="92.789898766929582"/>
          <g class="cls-14">
            <g>
              <g id="Berge">
                <g>
                  <path class="cls-2" d="M19.066340079423753,137.148919967160509c11.62421573120173-2.615702164870527,73.410144351531017,47.527745362929636,73.410144351531017,47.527745362929636l-38.034526692099462,10.05437388656992-32.848548881464922-18.279908324359894s-13.023898949133581-36.939913333880213-2.527079364143901-39.302210925139661h.000010586177268Z"/>
                  <path class="cls-2" d="M59.761490764946757,149.172144824060524c13.062051532877376-1.742136093020235,84.58167396007866,37.740125985749728,84.58167396007866,37.740125985749728l-42.261354475675034,7.82043714882002-36.49781599248854-14.218821230319918s-18.230689184749281-29.68796773369013-5.822503491915086-31.34174190424983Z"/>
                  <path class="cls-1" d="M59.761490764946757,149.172144824060524c10.245323765901048,0,42.320319484403626,45.560563134569747,42.320319484403626,45.560563134569747h-61.470269979354271s8.904616142875057-45.560563134569747,19.149950494950644-45.560563134569747Z"/>
                  <path class="cls-1" d="M19.30569355291027,137.148919967160509c9.220274783847344,0,35.136264185945038,57.582119249499556,35.136264185945038,57.582119249499556H-.881448269697103s10.966856452581851-57.582119249499556,20.188877955718453-57.582119249499556h-.001736133111081Z"/>
                </g>
              </g>
              <g id="Sonne">
                <ellipse class="cls-6" cx="16.948596441033942" cy="113.879340868110376" rx="8.975723497204172" ry="8.627314593320079"/>
                <path class="cls-1" d="M15.79866232290351,124.418830256259753v9.115777754100236c0,.261738108210011.515123397606658.475123400249686,1.14993411812975.475123400249686.63481072052582,0,1.149934118132478-.213395467299961,1.149934118132478-.475123400249686v-9.115777754100236c0-.261738108210011-.515123397606658-.47512340025969-1.149934118132478-.47512340025969-.634810720523092,0-1.14993411812975.213395467299961-1.14993411812975.47512340025969Z"/>
                <path class="cls-1" d="M25.754348272148491,123.907035233640272l6.717480110910401,6.456728998979997c.192520224184591.185047204289731.71458815423648-.013339760520466,1.163812596844764-.44511657052044.449224442609193-.431786985269355.657348692442611-.931921164589767.463092335146939-1.118637110849704l-6.717480110909491-6.456728998979997c-.19252022418641-.185047204289731-.71458815423739.013339760519557-1.163812596846583.445116570529535-.449224442607374.431776809999974-.657348692442611.931921164580672-.46309233514603,1.118637110840609Z"/>
                <path class="cls-1" d="M29.410538743261895,114.984638218430518h9.480440682316839c.272308244073429,0,.494310972620951-.495127953400697.494310972620951-1.105297350320143,0-.610169396920355-.222013314724791-1.105297350320143-.494310972620951-1.105297350320143h-9.480440682316839c-.272308244072519,0-.494310972621861.495127953399788-.494310972621861,1.105297350320143,0,.610169396919446.2220133147257,1.105297350320143.494310972621861,1.105297350320143Z"/>
              </g>
            </g>
          </g>
        </g>
      </g>
      <path class="cls-12" d="M7.65373145045578,101.941140449730483h88.815435689924925c2.132289046287042,0,3.860863627077379,1.661466664039835,3.860863627077379,3.710997238619711v85.367904289690159c0,2.049520399329595-1.728574580790337,3.710997238619711-3.860863627077379,3.710997238619711H7.65373145045578c-2.132299632465219,0-3.860863627078288-1.661476839290117-3.860863627078288-3.710997238619711v-85.367904289690159c0-2.049530574579876,1.728563994613069-3.710997238619711,3.860863627078288-3.710997238619711Z"/>
    </g>
  </g>
  <g id="h5pIcon">
    <g>
      <path class="cls-5" d="M151.834857791793183,50.001314295280281c0-2.216899927419945-1.834227048362663-4.015211799910503-4.09130237941099-4.015211799910503H53.605043125695374c-2.258918853922296,0-4.091302379412809,1.798311872490558-4.091302379412809,4.015211799910503v92.351661786579825c0,2.216904724629785,1.832394698357348,4.015207345350063,4.091302379412809,4.015207345350063h94.138489940954969c2.257075331048327,0,4.09130237941099-1.80011185550029,4.09130237941099-4.015207345350063V50.001314295280281h.00002234573185Z"/>
      <g id="H5P">
        <path class="cls-10" d="M53.237098306019107,96.250806401009868v-20.390448837209988h12.881666351497188v17.535788850919744h13.919592074609682v-17.535786109659966h10.395759554038705l-.111661621761414.458111953850675c-.216005016360214.891072802919552-4.019918939205127,17.411823372979597-4.48304540344634,19.472432142320031-.258104375056973,1.14976870576993-.419194755541866,2.139650399330094-.356961892501204,2.200731262169938.06224403590295.061080862839844,2.604886646381601.447330559290094,5.652777425527347.860532371500085l5.541115803768662.749149299109376.845718911107724-.9701171741699c2.385228102876681-2.739685856980032,6.439917000745481-2.786397009599568,8.781202222051434-.100604419089905,3.069856633497693,3.517574576520019.404558301219367,9.011321483229949-4.362233204516087,8.991556963839685-1.691437822215448-.007187596379481-3.044226079131477-.618001707329313-4.316469145810515-1.947421944699272l-1.006809291588979-1.050962556400009-5.533786403739214.770706605690066c-3.044226079133296.423974982979416-5.579550462449333.815619488599623-5.638129798343471.871311024799979-.216005016357485.211987491479704.896980019839248,2.894189025079868,1.790295339661498,4.311636758529858,1.643841413500922,2.604947208279555,3.624511215159146,4.261334548979903,6.520462190988837,5.452425080729881.73772198936058.301813257279719,1.378418811284973.587458534640064,1.426004047132665.630578630340096.04758523584951.043120095710037-3.340776285737775.080845382240113-7.530936182593905.080845382240113h-7.618799599996237v-15.08893038512997h-13.919592074608772v15.08893038512997h-12.881666351499007v-20.388650567490004l.005497050021404-.001814717320485Z"/>
        <path class="cls-10" d="M110.275595434264687,116.463396493820255c.107996921749873-.098806149369921.675466780590796-.330558160249893,1.257595439488796-.515599018510329,4.971813594916966-1.582729554839716,8.801335726393518-7.624411439929645,8.806832776414012-13.892456009260059.001832350006225-3.619977265339912-1.109331509051117-6.435119177909655-3.531161920598606-8.935865427640238-1.643841413499104-1.699501953879917-3.392037394463841-2.781007682959171-5.713177938558147-3.53374803898987-1.52485039171188-.49583998163962-1.953218070153525-.540752864540082-5.195136838443432-.55512257475948-3.311492204225033-.014369710220308-3.644644719499411.019759036859796-5.352562518912237.553324305029491-1.001312241571213.312591910580522-1.960536297312501.621592764250636-2.132609604973368.684471896810464-.201357389169971.075456055589711-.280081402273026.0197590368698-.219669716373573-.159892494740234.051261108728795-.152704898369848.386245974013946-1.539614941660147.746872566529419-3.081022670519815l.655344449110999-2.804360518020076h18.871272165182745v-8.409487755840019l9.712974546288024.102402688819893c9.053954224295012.095215092450417,9.826468518054753.131144850520286,11.375117114124805.535360796629902,4.307318568638948,1.122822072529743,6.846307651967436,3.386432467270424,8.144170100142219,7.263310107000507.479606441438591,1.431822926199857.547336354498839,1.979760645849638.563805158830291,4.48589896348949.012804104315364,2.130664533220624-.076891663095012,3.190612955720098-.349643665342228,4.18048916673979-1.188033176418685,4.308045701610354-4.354914977351655,7.327987509300328-8.878227389488529,8.470568618690777-1.662142567836781.420383926059912-5.599683966791417.686270166539543-10.337180218146386.697048819839438l-3.584233033601777.008980383569906v15.08713759793045h-7.521774432558232c-4.321955022964175,0-7.437575715170169-.075456055590621-7.322249393395396-.177853261880045h0l.003642354280601-.003585574389945ZM132.615785484143998,92.864373933750358c1.447981074346899-.422182195779897,2.749508222534132-1.652796283789939,3.099151887874541-2.933707098810373.660830326267387-2.405536639809725-.706594384973869-4.839812700050061-3.091822487847821-5.504522818740043-.413708878386387-.11497687056999-2.271734131103585-.267681768939838-4.127927033816377-.339541285079576l-3.375546244405996-.129349322060079v9.507161464869569l3.18701530528233-.134738648699567c1.925755165779265-.080845382240113,3.629997092310077-.264087970760556,4.309150918643354-.461705752029957h0l-.000022345730031-.003596539449973Z"/>
      </g>
    </g>
  </g>
  <path class="cls-7" d="M130.801891288969273,176.322714310839729h65.158629818730333v19.889250814329898h-90.100000000000364V54.211965125169627h24.941370181270031v122.110749185670102Z"/>
  <path class="cls-13" d="M142.294031046414602,161.284801206799784h53.802377194182554l-.028765933146133,26.908744980390111h-82.370354797485561V54.141820927589833h28.596743536449139v107.142980279209951Z"/>
</svg>