<?xml version="1.0" encoding="UTF-8"?>
<svg id="Ebene_1" data-name="Ebene 1" xmlns="http://www.w3.org/2000/svg" viewBox="0 0 2000 2000">
  <defs>
    <style>
      .cls-1 {
        fill: #172d4f;
        fill-rule: evenodd;
      }

      .cls-2 {
        fill: #172d4d;
      }

      .cls-3 {
        fill: none;
      }
    </style>
  </defs>
  <rect id="feedback-icon" class="cls-3" width="2000" height="2000"/>
  <g>
    <path class="cls-1" d="m910.9,647.55v-332.93s-192.79,0-192.79,0L1014.71,32.3l296.6,282.31h-192.79s0,332.93,0,332.93h-207.62Z"/>
    <path class="cls-1" d="m1802.14,1568.58l2,235.93H227.29v-235.93h-97v343.12h1768.86v-343.12h-97Z"/>
    <g>
      <path class="cls-2" d="m372.38,1212.57h298.34v132H201v-711h171.38v579Z"/>
      <path class="cls-2" d="m714.67,1075.68c0-52.73,10.25-99.7,30.77-140.89,20.5-41.19,49.97-72.86,88.38-95s83.5-33.22,135.25-33.22c79.09,0,141.44,24.52,187.02,73.52,45.56,49,68.36,115.67,68.36,200v5.86c0,82.38-22.88,147.75-68.61,196.09-45.73,48.36-107.66,72.53-185.78,72.53s-135.59-22.55-181.16-67.64c-45.58-45.09-70.16-106.23-73.73-183.41l-.48-27.84Zm164.55,10.27c0,48.84,7.64,84.66,22.95,107.44,15.3,22.8,37.92,34.19,67.88,34.19,58.59,0,88.53-45.09,89.84-135.28v-16.61c0-94.73-30.28-142.11-90.83-142.11-55.02,0-84.8,40.86-89.34,122.58l-.5,29.8Z"/>
      <path class="cls-2" d="m1277.57,1076.67c0-53.39,8.78-100.61,26.36-141.64s42.81-72.69,75.69-95c32.88-22.3,71.12-33.45,114.75-33.45,55,0,97.97,18.64,128.91,55.91l5.86-45.91h149.41v508.08c0,46.53-10.83,86.95-32.47,121.28-21.66,34.31-52.98,60.67-94,79.06-41.02,18.38-88.53,27.58-142.56,27.58-38.75,0-76.27-7.33-112.56-21.97-36.3-14.66-64.05-33.69-83.25-57.11l68.86-96.66c30.59,35.81,70.95,53.73,121.09,53.73,72.91,0,109.38-37.25,109.38-111.72v-16.52c-31.59,34.83-71.47,52.23-119.64,52.23-64.45,0-116.53-24.66-156.25-73.98s-59.56-115.34-59.56-198.06v-5.86Zm165.03,10.25c0,43.31,8.12,77.58,24.41,102.81s39.06,37.84,68.38,37.84c35.47,0,61.36-11.88,77.64-35.66v-222.2c-15.97-24.09-41.52-36.14-76.67-36.14-29.3,0-52.25,13.11-68.84,39.31-16.61,26.22-24.91,64.22-24.91,114.03Z"/>
    </g>
  </g>
</svg>