<?xml version="1.0" encoding="UTF-8"?>
<svg id="Ebene_2" data-name="Ebene 2" xmlns="http://www.w3.org/2000/svg" viewBox="0 0 2000 2000">
  <defs>
    <style>
      .cls-1 {
        stroke-width: 6px;
      }

      .cls-1, .cls-2 {
        stroke: #172d4d;
        stroke-linecap: round;
        stroke-linejoin: round;
      }

      .cls-1, .cls-3 {
        fill: #f7f7f7;
      }

      .cls-4, .cls-2 {
        fill: #172d4d;
      }

      .cls-2 {
        stroke-width: 7px;
      }

      .cls-5 {
        fill: #2d2d2d;
      }
    </style>
  </defs>
  <g>
    <path class="cls-4" d="m378.5,1829.5V51.43c0-8.78,7.15-15.93,15.93-15.93h1343.39c8.78,0,15.93,7.15,15.93,15.93v1762.14c0,8.78-7.15,15.93-15.93,15.93H378.5Z"/>
    <path class="cls-4" d="m1737.82,38.5c7.13,0,12.93,5.8,12.93,12.93v1762.14c0,7.13-5.8,12.93-12.93,12.93H381.5V51.43c0-7.13,5.8-12.93,12.93-12.93h1343.39m0-6H394.43c-10.45,0-18.93,8.47-18.93,18.93v1781.07h1362.32c10.45,0,18.93-8.47,18.93-18.93V51.43c0-10.45-8.47-18.93-18.93-18.93h0Z"/>
  </g>
  <g>
    <rect class="cls-3" x="399.75" y="81.75" width="1311.5" height="1709"/>
    <path class="cls-5" d="m1708.25,84.75v1703H402.75V84.75h1305.5m6-6H396.75v1715h1317.5V78.75h0Z"/>
  </g>
  <polygon class="cls-2" points="246.75 168.47 388 40 388 1819.03 246.75 1947.5 246.75 168.47"/>
  <polygon class="cls-1" points="1714.25 78.75 1604.88 188.12 310.5 188.12 291.75 183.75 396.75 78.75 1714.25 78.75"/>
  <polygon class="cls-1" points="1604.88 188.12 1604.88 1922.5 1717.69 1809.69 1717.69 78.75 1604.88 188.12"/>
  <g>
    <rect class="cls-4" x="242.25" y="160.5" width="1375.25" height="1794" rx="15.93" ry="15.93"/>
    <path class="cls-4" d="m1601.57,163.5c7.13,0,12.93,5.8,12.93,12.93v1762.14c0,7.13-5.8,12.93-12.93,12.93H258.18c-7.13,0-12.93-5.8-12.93-12.93V176.43c0-7.13,5.8-12.93,12.93-12.93h1343.39m0-6H258.18c-10.45,0-18.93,8.47-18.93,18.93v1762.14c0,10.45,8.47,18.93,18.93,18.93h1343.39c10.45,0,18.93-8.47,18.93-18.93V176.43c0-10.45-8.47-18.93-18.93-18.93h0Z"/>
  </g>
</svg>