<?xml version="1.0" encoding="UTF-8"?>
<svg id="Ebene_1" xmlns="http://www.w3.org/2000/svg" viewBox="0 0 200 200">
  <defs>
    <style>
      .cls-1 {
        fill: #cfd8e5;
        fill-rule: evenodd;
        stroke: #172d4d;
        stroke-linecap: round;
        stroke-linejoin: round;
        stroke-width: 6px;
      }
    </style>
  </defs>
  <path class="cls-1" d="M19.852958746520017,75.405863888329804l-12.618980832170564.386295331600195v-1.416416215860409s41.110580001040034-30.8281703615894,121.811794563550393-37.084351833299479l.515060442129652,1.287651105330042-29.358445201360155,21.375008348360097s8.062241037770946,5.604630326769438,11.58885994791035,10.558739063639223c0,0,2.319320251709541.671120549550324,4.635543979159593,3.862953315970117,0,0,7.521426001700092-10.981343892959558,33.736458959459924-10.043678621519575,26.215032957759831.937665271449987,39.203317534060261,14.335932804049662,40.689774928200677,35.28164028584979v63.094904160820079h-29.358445201360155l-.257530221070738-61.034662392299651s-.143964800699905-15.571823227120149-15.19428304280882-14.679222600680077c-15.05031824210073.892600626440071-14.421692379610249,14.679222600680077-14.421692379610249,14.679222600680077v61.034662392299651h-29.615975422429983v-61.034662392299651s-.351274742450187-9.465783886260397-6.953315968739844-13.134041274300216c0,0-8.080010685900561,6.216264601809598-21.632538569430835,8.240967074069886,0,0-.542355439009043,1.049438794520029-.772590663189476,4.89307420023033-.230235224189528,3.843635405709392,0,61.034662392299651,0,61.034662392299651h-29.615975422429983v-61.034662392299651s-.083955889480421-6.739309989749927.77259066320039-8.240967074070795c0,0-1.061538030829979-17.235725608179564-.259848684670942-17.254524811319243,0,0-22.154809826310156-.149364070170122-23.690461874339235-.77259066320039"/>
</svg>