<?xml version="1.0" encoding="UTF-8"?>
<svg id="Ebene_1" xmlns="http://www.w3.org/2000/svg" viewBox="0 0 200 200">
  <defs>
    <style>
      .cls-1 {
        fill: #cfd8e5;
        stroke: #172d4d;
        stroke-miterlimit: 10;
        stroke-width: 6px;
      }
    </style>
  </defs>
  <polygon class="cls-1" points="171.744447980689074 186.554874292280147 11.815158627889105 186.554874292280147 6.272555657260455 172.166068481330512 177.287050951330457 172.166068481330512 171.744447980689074 186.554874292280147"/>
  <path class="cls-1" d="M196.476341780840812,107.158100649489825v-30.979184525919663c0-2.419377099990015-1.96130291954978-4.380668138320289-4.380674078940501-4.380668138320289h-32.558750050840899v-11.322337421339398H24.022679201299979v82.055219013719579c0,16.366915793980297,13.26801654737028,29.634938281949871,29.634938281960785,29.634938281949871h76.244373767058278c16.366915793980297,0,29.634926400740369-13.268022487969574,29.634926400740369-29.634938281949871v-13.447226805589708h17.889136650152068c20.218471986489021,0,19.050287479629333-21.925802122550522,19.050287479629333-21.925802122550522ZM176.125845768789077,118.149077014260001h-16.007307156358365v-35.432862710779773h27.790463318069669v21.871112904619622s.722555895779806,13.561749806160151-11.783156161711304,13.561749806160151Z"/>
  <path class="cls-1" d="M68.138007831499635,12.346329416830486c-1.172373922569022.007896966009866-2.345148847700329.01849813310946-3.516385089827963.074860567429823-1.465824177601462.070538646219575-2.926686503600649.22925900934024-4.374886578571022.467690139399565-1.140315941460358.18774119903992-2.268115609691449.465105783579929-3.350422098221316.873194931120452-1.246838421528082.470126746859933-2.475141042079485,1.006842650879662-3.562428730379906,1.78509865424985-1.039263985168873.743881719839919-2.035628194998935,1.553474203239603-2.842399691438914,2.5503180891601-.483400691000497.59728811119021-.966107239730263,1.208593769690196-1.359632665529716,1.871194077079963-.395882983970296.666569857169634-.695182083840336,1.389325379080219-.977090884520294,2.109210330860151-.1715741445405.438133341259345-.304940230920693.891713591379812-.392328134630588,1.354172452240164-.141943227819866.751166931079752-.257021355209872,1.531201012919155-.24660655624939,2.299683087129779.003322417231175.245152891960061.020902786989609.489671628410179.050985044030313.732966237339497.067851564908779.548759354170215.127812184129652,1.112322185280391.256704894109134,1.653622242700294.192661454759218.809104382509759.535393582751567,1.59060358934039.883415931421041,2.340258063250076.581080787649626,1.251671951039498,1.438999541749581,2.345304418559863,2.290072615249301,3.421254013140242.68583556636986.867051869649913,1.430309567340373,1.685038209429877,2.132790872370606,2.538288001889669.174762740949518.212270805460321.346784025259694.426753183969595.515325051119362.643999616610017l-.553251602439559-.716094184779649c.663329824379616.85895382471972,1.267943833530808,1.768687038709686,1.694082664338566,2.770451385519664l-.356683217049067-.845210964040234c.234699796390487.560565663360649.417964023299646,1.146409256240077.501298242810662,1.749573663179945l-.126389028591802-.940601940229499c.066044198190866.504301740509618.064622881111063,1.013639865539517.000043003732571,1.518013605979831l.126389028588164-.940601940230408c-.06753052501881.500826040030006-.196684111448121.990397636710441-.39308285712832,1.456294123000589l.356683217049067-.845210964040234c-.154403877570076.358775874039566-.346968976109565.698056279459706-.583380475380181,1.009272180330299l.553251602439559-.716094184780559c-.203505726369258.263028329450208-.435218735889066.500336506900567-.697520466630522.705063429139955l.716094184779649-.553251602449564c-.23595323545851.180272156389947-.490843661718827.329991904739472-.764033328319783.446494218869702l.845210964042053-.356683217049977c-.105246576989884.043493250070242-.212007640009688.082023866870259-.320741251081927.115847893270256-.460439802369365.10946913277985-.861525821179384.320572138869466-1.203258056419145.633309018269756-.385187522781052.249485370830371-.688953754390241.580392032829877-.911298694831203.992719985990334-.258563929108277.406131930879383-.398523172887508.844635908929376-.419877731339511,1.315511934149981-.105324190488318.470300970119752-.084259352399386.940601940239503.063194514290444,1.41090291035016l.356683217049067.845210964039325c.314553540851193.531676983960097.737668803260021.954792246360739,1.269345787211932,1.269345787210113l.845210964038415.356683217049977c.62706796015118.168518704780581,1.254135920309636.168518704780581,1.881203880460816,0,.108815264800796-.033849426619781.215233328890463-.072831032300201.320741251080108-.115847893269347.373017328800415-.152083694170869.757281762029379-.295192535540082,1.114727968420993-.48424088119009.45067058612949-.238353428339906.867939947500417-.594924728360638,1.253871884218825-.906192809400636.171931555651099-.138669025040144.331953509441519-.290660482839485.477936776120259-.456508277559806.260094659790411-.29548678232004.493021848638818-.6170743274497.729573917438756-.930644684110121.071207352641068-.094391543810161.139675831251225-.190510971399817.203751962249953-.289912696599458.122941301091487-.19071965231069.231157142370648-.390758610390549.32558462308225-.59704768759002.218125399898781-.476523223120239.439447520258909-.969057372089992.596165073988232-1.473319412700221.069283089429518-.22292864596966.124375398881966-.450261951879838.165625614850796-.680024357179718.094907815540864-.528633546889978.172081851489565-1.064273790100742.206445787591292-1.600689545550267.014991619878856-.234016879709998.015996792179067-.468971684010285.002564569269452-.703089180779898-.030640487511846-.534049671459798-.108998167561367-1.06931113822975-.202844924160672-1.594932651650197-.150670431508843-.843882336529532-.503873859250234-1.628822072179901-.84129246683915-2.410715358009838-.588671137980782-1.364115671170111-1.510214847630778-2.542613950499799-2.428766944820381-3.697025664079774-.844028863601125-1.060752906359994-1.770737660659506-2.052643384919975-2.601830047060503-3.123986674330808l.553251602450473.716094184770554c-.664916118421388-.861062884910098-1.272009959880961-1.772795709470302-1.701695790779922-2.775858842450361l.356683217049067.84521096403023c-.256442758989579-.608129163259946-.44274455832965-1.242405066779611-.532284118529788-1.896983459249896l.126389028579069.940601940229499c-.075886882988925-.583954948819155-.073450985728414-1.172882397039757.002549339940742-1.756684763279736l-.126389028580888.940601940230408c.090831157482171-.66576848800014.275049980651602-1.312962288549897.534533063781055-1.932320450090629l-.356683217049067.84521096403023c.308399417519468-.72548056279993.715117298559562-1.403209441869876,1.194559203198878-2.028303042169682l-.553251602439559.716094184769645c.565316863350745-.730409155739835,1.224676413308771-1.382310681769923,1.954351469659741-1.948078401000203l-.716094184779649.553251602450473c.778439788689866-.598589987420382,1.627249430339361-1.082560198110514,2.530838755439618-1.465454106540165l-.845210964031139.356683217049977c1.447761040431942-.607111239340156,2.981760419152124-.966081834460056,4.534178973621238-1.177157873919896l-.940601940228589.126389028579979c2.079747987248993-.278307319000305,4.181422660287353-.301302206779837,6.276332606717915-.31541326155002.487142744579614.018376902689852.941545218669489-.083199976339529,1.363207422251435-.304730637109969.438650160029283-.142693168940241.818216715630115-.386557572600395,1.138699666789762-.73159321096955.345035638369154-.320482951150552.588900042019304-.700049506750474.731593210959545-1.138699666790671.221530660770441-.421662203580127.323107539810735-.876064677659997.304730637119064-1.363207422249616l-.126389028588164-.940601940230408c-.168108201150972-.59939330827001-.471419807650818-1.119828357869665-.909934819490445-1.561305148809879l-.716094184770554-.553251602439559c-.551862756308765-.320063059920358-1.147133724400192-.48108714179034-1.785812904270642-.48307224563996h0Z"/>
  <path class="cls-1" d="M106.940607108570475,20.012496447259764c-1.172373922570841.007896966000771-2.345148847700329.018498133100366-3.516385089829782.074860567420728-1.465824177599643.070538646229579-2.926686503600649.229259009349335-4.374886578569203.467690139399565-1.140315941462177.187741199049924-2.268115609702363.465105783589934-3.350422098221316.873194931120452-1.246838421529901.470126746869937-2.475141042079485,1.006842650879662-3.562428730379906,1.78509865424985-1.039263985170692.743881719849924-2.035628195000754,1.553474203249607-2.842399691449828,2.550318089170105-.483400690991402.597288111179296-.966107239730263,1.208593769689287-1.359632665529716,1.871194077069958-.395882983959382.666569857169634-.695182083831241,1.38932537907931-.977090884511199,2.109210330860151-.171574144538681.438133341269349-.304940230918874.891713591389816-.392328134628769,1.354172452239254-.141943227819866.751166931080661-.257021355209872,1.531201012920064-.246606556251209,2.299683087140693.003322417231175.245152891950056.020902786989609.489671628399265.050985044032132.732966237339497.067851564908779.548759354170215.127812184127833,1.112322185270386.256704894109134,1.65362224269029.192661454748304.809104382519763.535393582749748,1.590603589349485.883415931419222,2.340258063250076.581080787649626,1.251671951049502,1.438999541749581,2.345304418559863,2.290072615249301,3.421254013149337.685835566371679.867051869640818,1.430309567342192,1.685038209430786,2.132790872372425,2.538288001890578.174762740938604.212270805459411.346784025259694.426753183969595.515325051117543.643999616600013l-.553251602439559-.716094184770554c.663329824370521.858953824710625,1.267943833530808,1.768687038700591,1.694082664340385,2.770451385510569l-.356683217050886-.845210964040234c.234699796390487.560565663359739.417964023301465,1.146409256240077.501298242812481,1.749573663179945l-.126389028591802-.940601940229499c.066044198190866.504301740519622.064622881109244,1.013639865549521.000043003730752,1.518013605979831l.126389028589983-.940601940230408c-.067530525020629.500826040030006-.19668411144994.990397636710441-.393082857130139,1.456294123000589l.356683217039972-.84521096403023c-.154403877559162.358775874029561-.34696897610047.698056279459706-.583380475369268,1.009272180319385l.553251602439559-.716094184769645c-.203505726371077.263028329440203-.435218735889066.500336506889653-.697520466630522.70506342912995l.716094184770554-.553251602439559c-.235953235451234.180272156389947-.490843661709732.329991904739472-.764033328310688.446494218859698l.845210964040234-.356683217049977c-.105246576989884.043493250080246-.212007640009688.082023866870259-.320741251080108.115847893270256-.460439802369365.10946913277985-.861525821179384.320572138869466-1.203258056419145.633309018269756-.385187522781052.249485370840375-.688953754390241.580392032829877-.911298694831203.992719986000338-.258563929110096.406131930879383-.398523172889327.844635908929376-.419877731339511,1.315511934149981-.105324190490137.470300970109747-.084259352399386.940601940229499.063194514290444,1.41090291034925l.356683217049067.84521096403023c.314553540851193.531676983960097.737668803250926.954792246369834,1.269345787210113,1.269345787220118l.845210964040234.356683217049977c.62706796015118.168518704779672,1.254135920309636.168518704779672,1.881203880460816,0,.108815264798977-.033849426629786.215233328890463-.072831032310205.320741251078289-.115847893270256.373017328802234-.152083694179964.757281762031198-.295192535550086,1.114727968420993-.48424088119009.45067058612949-.238353428339906.867939947500417-.594924728359729,1.253871884220644-.906192809399727.17193155564928-.138669025050149.3319535094397-.290660482839485.47793677611844-.456508277559806.260094659781316-.29548678232004.493021848640637-.617074327459704.729573917429661-.930644684110121.071207352651982-.094391543820166.139675831251225-.190510971409822.203751962260867-.289912696610372.122941301091487-.190719652299776.231157142370648-.390758610389639.325584623080431-.59704768759002.218125399898781-.476523223119329.439447520258909-.969057372089992.596165073990051-1.473319412699311.069283089429518-.222928645970569.124375398880147-.450261951879838.165625614848977-.680024357170623.094907815540864-.528633546889978.172081851491384-1.064273790109837.206445787591292-1.600689545559362.014991619880675-.234016879709998.015996792180886-.468971684010285.002564569269452-.703089180779898-.030640487510027-.534049671450703-.108998167559548-1.06931113823066-.202844924160672-1.594932651650197-.150670431508843-.843882336520437-.503873859248415-1.628822072179901-.84129246683915-2.410715357999834-.588671137989877-1.364115671180116-1.510214847630778-2.542613950500709-2.428766944829476-3.697025664090688-.844028863590211-1.060752906359994-1.770737660650411-2.05264338490997-2.601830047049589-3.123986674329899l.553251602439559.716094184770554c-.664916118410474-.861062884910098-1.272009959870047-1.772795709460297-1.701695790770827-2.775858842450361l.356683217049067.845210964040234c-.256442758998674-.60812916326995-.442744558327831-1.242405066790525-.532284118538882-1.8969834592599l.126389028589983.940601940229499c-.075886882990744-.583954948820065-.073450985730233-1.172882397029753.002549339940742-1.756684763279736l-.126389028580888.940601940240413c.090831157480352-.665768488010144.275049980640688-1.312962288560811.534533063770141-1.932320450100633l-.356683217049067.845210964040234c.308399417519468-.72548056279993.715117298568657-1.403209441879881,1.194559203209792-2.028303042179687l-.553251602439559.716094184779649c.565316863348926-.73040915574984,1.224676413308771-1.382310681779927,1.954351469659741-1.948078401000203l-.716094184779649.553251602440469c.778439788689866-.598589987420382,1.627249430339361-1.082560198110514,2.530838755439618-1.465454106540165l-.845210964040234.356683217049977c1.447761040439218-.607111239330152,2.9817604191594-.966081834450051,4.534178973628514-1.177157873919896l-.940601940228589.126389028589983c2.079747987250812-.278307319000305,4.181422660289172-.301302206789842,6.276332606719734-.31541326155002.487142744579614.018376902689852.941545218658575-.083199976350443,1.363207422249616-.304730637119974.438650160029283-.142693168940241.818216715630115-.386557572590391,1.138699666791581-.731593210960455.345035638369154-.320482951159647.588900042017485-.700049506759569.731593210959545-1.138699666789762.221530660768622-.421662203590131.323107539808916-.876064677670001.304730637119064-1.363207422249616l-.126389028589983-.940601940240413c-.168108201150972-.59939330827001-.471419807648999-1.119828357869665-.909934819488626-1.561305148799875l-.716094184781468-.553251602450473c-.55186275629967-.320063059909444-1.147133724391097-.48108714178943-1.785812904259728-.483072245629955h0Z"/>
  <path class="cls-1" d="M142.087034417281757,10.341331885800173c-1.172373922570841.007896965999862-2.345148847691235.018498133100366-3.516385089831601.074860567419819-1.465824177599643.070538646230489-2.926686503600649.229259009350244-4.374886578571022.467690139400474-1.140315941458539.187741199049924-2.268115609687811.465105783589934-3.350422098217678.873194931129547-1.24683842153172.470126746859933-2.47514104207221,1.006842650879662-3.562428730370812,1.785098654239846-1.039263985179787.743881719849924-2.035628194998935,1.553474203250516-2.842399691449828,2.550318089170105-.483400691000497.597288111180205-.966107239730263,1.208593769690196-1.359632665529716,1.871194077069958-.395882983970296.666569857170543-.695182083840336,1.389325379080219-.97709088450938,2.109210330870155-.171574144551414.438133341260254-.304940230931606.891713591379812-.392328134641502,1.354172452230159-.141943227819866.751166931089756-.257021355209872,1.531201012930069-.24660655624939,2.299683087139783.003322417229356.245152891950056.020902786989609.489671628400174.050985044039408.732966237340406.067851564901503.548759354169306.127812184120558,1.112322185279481.256704894100039,1.653622242699385.192661454761037.809104382510668.535393582749748,1.59060358934039.883415931419222,2.340258063240071.581080787651445,1.251671951050412,1.4389995417514,2.345304418559863,2.290072615262034,3.421254013150246.685835566358946.867051869639909,1.430309567338554,1.685038209429877,2.132790872357873,2.538288001889669.174762740951337.212270805460321.346784025259694.426753183970504.515325051132095.643999616600013l-.553251602450473-.716094184769645c.663329824379616.85895382471972,1.267943833539903,1.768687038699682,1.694082664340385,2.770451385509659l-.356683217050886-.84521096402932c.234699796390487.560565663349735.417964023308741,1.146409256230072.501298242808843,1.74957366316994l-.126389028579069-.940601940230408c.066044198179952.504301740520532.064622881100149,1.013639865550431.000043003719838,1.518013605989836l.126389028589983-.940601940239503c-.067530525020629.500826040030006-.19668411144994.990397636719536-.393082857130139,1.45629412299968l.356683217050886-.84521096403023c-.154403877570076.358775874030471-.346968976111384.698056279460616-.583380475380181,1.009272180320295l.553251602439559-.716094184769645c-.203505726369258.263028329439294-.435218735890885.500336506899657-.697520466619608.70506342912995l.716094184770554-.553251602440469c-.235953235460329.180272156389947-.490843661720646.329991904740382-.764033328319783.446494218860607l.845210964038415-.356683217049977c-.105246576978971.043493250079337-.212007639998774.082023866869349-.320741251078289.115847893269347-.460439802371184.109469132789854-.861525821181203.320572138880379-1.203258056420964.633309018269756-.385187522779233.249485370840375-.688953754390241.580392032840791-.911298694829384.992719986000338-.258563929110096.406131930880292-.398523172891146.844635908930286-.419877731339511,1.315511934149981-.105324190491956.470300970119752-.08425935239211.940601940230408.063194514288625,1.41090291035016l.356683217050886.84521096403023c.314553540849374.531676983960097.737668803260021.954792246369834,1.269345787219208,1.269345787220118l.845210964031139.356683217049977c.627067960158456.168518704779672,1.254135920309636.168518704779672,1.881203880468092,0,.108815264800796-.033849426620691.215233328890463-.072831032300201.320741251071013-.115847893270256.373017328798596-.152083694179964.757281762038474-.295192535540082,1.114727968430088-.48424088119009.450670586120395-.238353428339906.867939947489504-.594924728359729,1.25387188420973-.906192809399727.17193155564928-.138669025040144.331953509450614-.290660482840394.477936776120259-.456508277560715.260094659788592-.295486782319131.493021848640637-.6170743274497.729573917440575-.930644684109211.071207352639249-.094391543810161.139675831249406-.190510971410731.203751962249953-.289912696600368.122941301087849-.190719652309781.231157142368829-.390758610399644.325584623078612-.597047687600025.218125399911514-.476523223120239.439447520260728-.969057372079988.596165074000965-1.473319412700221.069283089420423-.222928645959655.124375398869233-.450261951869834.165625614839882-.680024357169714.094907815539045-.528633546889978.172081851489565-1.064273790109837.206445787600387-1.600689545560272.014991619867942-.234016879709998.015996792179067-.468971684009375.002564569258539-.703089180779898-.030640487499113-.534049671449793-.108998167559548-1.06931113822975-.202844924158853-1.594932651650197-.150670431510662-.843882336519528-.503873859250234-1.628822072169896-.841292466830055-2.410715357999834-.588671137989877-1.364115671170111-1.510214847639872-2.542613950499799-2.428766944831295-3.697025664089779-.844028863599306-1.060752906359994-1.770737660659506-2.05264338490997-2.601830047058684-3.123986674329899l.553251602448654.716094184769645c-.66491611841775-.861062884910098-1.272009959879142-1.772795709459388-1.701695790769008-2.775858842449452l.356683217039972.845210964039325c-.256442758989579-.60812916326995-.442744558320555-1.242405066779611-.532284118529788-1.8969834592599l.126389028580888.940601940230408c-.075886882990744-.583954948820065-.073450985732052-1.172882397029753.002549339948018-1.756684763269732l-.126389028588164.940601940229499c.090831157478533-.66576848800014.275049980649783-1.312962288549897.534533063779236-1.932320450099724l-.356683217050886.845210964039325c.308399417521287-.72548056279993.715117298561381-1.403209441879881,1.194559203209792-2.028303042179687l-.553251602448654.716094184780559c.56531686335984-.730409155750749,1.22467641331059-1.382310681780837,1.954351469659741-1.948078401000203l-.716094184770554.553251602439559c.778439788680771-.598589987419473,1.627249430330266-1.082560198109604,2.530838755430523-1.465454106540165l-.84521096402932.356683217049977c1.447761040428304-.607111239329242,2.9817604191594-.966081834449142,4.534178973630333-1.177157873919896l-.940601940241322.126389028589983c2.079747987248993-.278307318999396,4.181422660290991-.301302206789842,6.276332606721553-.31541326155002.487142744579614.018376902690761.941545218669489-.083199976349533,1.363207422247797-.304730637109969.438650160031102-.142693168939331.818216715630115-.386557572599486,1.138699666789762-.73159321096955.345035638370973-.320482951160557.588900042032037-.700049506760479.731593210970459-1.138699666789762.221530660761346-.421662203580127.323107539799821-.876064677670001.304730637111788-1.363207422250525l-.126389028591802-.940601940229499c-.168108201149153-.599393308280014-.471419807648999-1.119828357880579-.909934819490445-1.561305148810789l-.716094184768735-.553251602449564c-.551862756310584-.320063059910353-1.147133724400192-.48108714179034-1.785812904268823-.483072245629955h0Z"/>
</svg>