<?xml version="1.0" encoding="UTF-8"?>
<svg id="Ebene_1" xmlns="http://www.w3.org/2000/svg" viewBox="0 0 200 200">
  <defs>
    <style>
      .cls-1 {
        stroke-width: 3px;
      }

      .cls-1, .cls-2, .cls-3 {
        stroke: #172d4d;
      }

      .cls-1, .cls-3 {
        fill: none;
        stroke-linecap: round;
        stroke-linejoin: round;
      }

      .cls-2 {
        stroke-miterlimit: 10;
      }

      .cls-2, .cls-4 {
        fill: #cfd8e5;
        fill-rule: evenodd;
      }

      .cls-2, .cls-3 {
        stroke-width: 6px;
      }
    </style>
  </defs>
  <path class="cls-2" d="M158.184484668227014,21.608455082582623c9.977297653673304,0,18.078698269124288,8.101384613193659,18.078698269124288,18.078682266865144,0,9.978609839051387-8.101400615450984,18.078698269112465-18.078698269124288,18.078698269112465-9.978609839061392,0-18.080010454514195-8.100088430061078-18.080010454514195-18.078698269112465,0-9.977297653671485,8.101400615452803-18.078682266865144,18.080010454514195-18.078682266865144ZM41.277039268936278,178.578597784913654c-6.183671666967712-.080227335005475-7.838953535327164,7.809494873217773-15.554415623022578,10.434137198759345-7.715464087992586,2.624641825455001-14.092939636762821,5.37221454180326-18.124222201025987,1.4733524142448-4.031294083479224-3.898855104107497-1.697347061583059-13.445181867571591,2.877751586349405-18.879407648246342,17.646605720448861-20.960065366308299,83.946426964917919-85.399969830339614,101.150217621730917-105.069316836055805,4.562212577320679-5.216352998273578-1.358223898178039-12.068457105466223-1.161196060884322-23.920355614215623.394319711902426-23.731304903984892,16.906348632397567-36.702721585113068,40.641734112896302-36.702721585113068,23.733929274763796,0,43.004235901609718,19.270306626844103,43.004235901609718,43.005564089270592,0,23.734329331286972-15.645650513242799,37.174388225058465-39.38089197339832,37.174388225058465-5.039127958838435,0-18.149492271333656-1.259914008359374-21.932762794947848,1.790564981973148-12.682615877576609,10.226372844531397-55.657495631583515,48.086361935481364-62.709772020343735,61.852174853764154-4.104311882294496,8.011467909214844,13.059109070845807,11.986655548042108,12.518360670603215,19.019793232778284-.540884419453505,7.03326970337821-16.925099281595976,20.139384915543815-23.936341872853518,20.914719959624563-7.011246591830059.775334794039736-11.208895661371571-11.012665936836129-17.392697346713248-11.092893271842513Z"/>
  <path class="cls-1" d="M158.184484668227014,21.608455082582623c9.977297653673304,0,18.078698269124288,8.101384613193659,18.078698269124288,18.078682266865144,0,9.978609839051387-8.101400615450984,18.078698269112465-18.078698269124288,18.078698269112465-9.978609839061392,0-18.080010454514195-8.100088430061078-18.080010454514195-18.078698269112465,0-9.977297653671485,8.101400615452803-18.078682266865144,18.080010454514195-18.078682266865144ZM41.277039268936278,178.578597784913654c-6.183671666967712-.080227335005475-7.838953535327164,7.809494873217773-15.554415623022578,10.434137198759345-7.715464087992586,2.624641825455001-14.092939636762821,5.37221454180326-18.124222201025987,1.4733524142448-4.031294083479224-3.898855104107497-1.697347061583059-13.445181867571591,2.877751586349405-18.879407648246342,17.646605720448861-20.960065366308299,83.946426964917919-85.399969830339614,101.150217621730917-105.069316836055805,4.562212577320679-5.216352998273578-1.358223898178039-12.068457105466223-1.161196060884322-23.920355614215623.394319711902426-23.731304903984892,16.906348632397567-36.702721585113068,40.641734112896302-36.702721585113068,23.733929274763796,0,43.004235901609718,19.270306626844103,43.004235901609718,43.005564089270592,0,23.734329331286972-15.645650513242799,37.174388225058465-39.38089197339832,37.174388225058465-5.039127958838435,0-18.149492271333656-1.259914008359374-21.932762794947848,1.790564981973148-12.682615877576609,10.226372844531397-55.657495631583515,48.086361935481364-62.709772020343735,61.852174853764154-4.104311882294496,8.011467909214844,13.059109070845807,11.986655548042108,12.518360670603215,19.019793232778284-.540884419453505,7.03326970337821-16.925099281595976,20.139384915543815-23.936341872853518,20.914719959624563-7.011246591830059.775334794039736-11.208895661371571-11.012665936836129-17.392697346713248-11.092893271842513Z"/>
  <path class="cls-4" d="M74.030394863446418,180.358020192592448c-4.175493939335865-1.284686508362938-20.901989160936864-15.324089081075726-24.224082526618076-17.724880279544777"/>
  <path class="cls-3" d="M74.030394863446418,180.358020192592448c-4.175493939335865-1.284686508362938-20.901989160936864-15.324089081075726-24.224082526618076-17.724880279544777"/>
</svg>