<?xml version="1.0" encoding="UTF-8"?>
<svg id="Ebene_1" data-name="Ebene 1" xmlns="http://www.w3.org/2000/svg" viewBox="0 0 2000 2000">
  <defs>
    <style>
      .cls-1 {
        fill: #cfd8e5;
        fill-rule: evenodd;
        stroke: #172d4d;
        stroke-miterlimit: 10;
        stroke-width: 60px;
      }
    </style>
  </defs>
  <path class="cls-1" d="M470.071988127609075,1759.160513078310032l358.276963676597006-358.283273359225859,171.488962200959577-171.486438299638394,229.556005537428064-229.556005516818914-229.225628850061184-229.225565773496783-171.488962185556375-171.486501412185135L470.402112473953821,240.839518422694709c-23.666478259539872-23.660420935460024-23.66647825781547-62.077876642792944.000000003848982-85.744481096628078l85.738423774275361-85.738297572277588c23.666478261664452-23.666604453836044,62.084060163291724-23.666604452110732,85.744481096626259.000000003849891l358.283273359227678,358.277089870894997,171.486438299640213,171.488899103808762,269.165113958933944,269.165113983104675c1.035802781036182.904308324753401,2.056714635147728,1.834297188729579,3.043301640764184,2.820884194432438l85.743219149817378,85.743219157519889c3.759328075888334,3.759264979075851,6.915952194347483,7.893263919918354,9.480725064835497,12.27927286972772,13.955574798377711,23.289346607809421,10.910758824558798,53.955759366923303-9.150348401935844,74.016740397320973l-85.743219157520798,85.743219149819197c-2.075139002530705,2.075139002346987-4.269405420422117,3.957453120488935-6.551755456868705,5.668647773334669l-266.317413500795737,266.317413476881484-171.486438315036139,171.488962185558194-358.283273391398325,358.276963644428179c-23.660420935459115,23.666730648132216-62.077750448497682,23.666730646407814-85.744481096626259-.000000003848982l-85.738171377983235-85.738171385681198c-23.666730648132216-23.666730650256795-23.666730646405995-62.084060163295362.000000003850801-85.744481096629897Z"/>
</svg>