<?xml version="1.0" encoding="UTF-8"?>
<svg id="Ebene_1" data-name="Ebene 1" xmlns="http://www.w3.org/2000/svg" viewBox="0 0 2000 2000">
  <defs>
    <style>
      .cls-1 {
        fill: #172d4d;
      }

      .cls-2 {
        fill: #cfd8e5;
      }
    </style>
  </defs>
  <g>
    <path class="cls-2" d="M200.857421875,1937.5c-31.1279296875,0-56.453125-25.32421875-56.453125-56.4521484375V118.9521484375c0-31.1279296875,25.3251953125-56.4521484375,56.453125-56.4521484375h1346.8564453125c82.23828125,0,159.5537109375,32.025390625,217.705078125,90.17626953125s90.1767578125,135.466796875,90.1767578125,217.70458984375v1510.6669921875c0,31.1279296875-25.3251953125,56.4521484375-56.453125,56.4521484375H200.857421875Z"/>
    <path class="cls-1" d="M1547.714111328125,92.5c37.5400390625,0,73.925537109375,7.338844299316406,108.1455078125,21.812690734863281,33.082763671875,13.992698669433594,62.806884765625,34.037315368652344,88.34619140625,59.576927185058594,25.53955078125,25.539230346679688,45.584228515625,55.263458251953125,59.576904296875,88.346160888671875,14.473876953125,34.2196044921875,21.812744140625,70.60498046875,21.812744140625,108.144989013671875v1510.666961669921875c0,14.585693359375-11.86669921875,26.4522705078125-26.452880859375,26.4522705078125H200.857421875c-14.586181640625,0-26.452880859375-11.8665771484375-26.452880859375-26.4522705078125V118.952308654785156c0-14.585769653320312,11.86669921875-26.452308654785156,26.452880859375-26.452308654785156h1346.856689453125M1547.714111328125,32.5H200.857421875c-47.74658203125,0-86.452880859375,38.706153869628906-86.452880859375,86.452308654785156v1762.095420837402344c0,47.74609375,38.706298828125,86.4522705078125,86.452880859375,86.4522705078125h1598.28515625c47.74658203125,0,86.452880859375-38.7061767578125,86.452880859375-86.4522705078125V370.380767822265625c0-186.606155395507812-151.274658203125-337.880767822265625-337.88134765625-337.880767822265625h0Z"/>
  </g>
  <rect class="cls-1" x="308.928571428572468" y="165.595238095238528" width="1156.904761904759653" height="604.047619047618355" rx="35.547619047618355" ry="35.547619047618355"/>
  <g>
    <rect class="cls-2" x="512.9765625" y="195.59521484375" width="236.904296875" height="544.0478515625"/>
    <path class="cls-1" d="M719.880859375,225.595169067382812v484.047592163085938h-176.90478515625V225.595169067382812h176.90478515625M763.71435546875,165.595169067382812h-264.571533203125c-8.928466796875,0-16.166748046875,7.238037109375-16.166748046875,16.166732788085938v571.71435546875c0,8.928466796875,7.23828125,16.16650390625,16.166748046875,16.16650390625h264.571533203125c8.928466796875,0,16.16650390625-7.238037109375,16.16650390625-16.16650390625V181.76190185546875c0-8.928695678710938-7.238037109375-16.166732788085938-16.16650390625-16.166732788085938h0Z"/>
  </g>
  <g>
    <path class="cls-2" d="M1005.119140625,1405.119140625c-68.55859375,0-133.0126953125-26.6982421875-181.4912109375-75.17578125-48.4775390625-48.478515625-75.17578125-112.9326171875-75.17578125-181.4912109375,0-68.5576171875,26.6982421875-133.0126953125,75.17578125-181.49072265625,48.478515625-48.47802734375,112.93359375-75.17578125,181.4912109375-75.17578125s133.0126953125,26.69775390625,181.4912109375,75.17578125c48.4775390625,48.47802734375,75.17578125,112.93310546875,75.17578125,181.49072265625,0,68.55859375-26.6982421875,133.0126953125-75.17578125,181.4912109375-48.478515625,48.4775390625-112.9326171875,75.17578125-181.4912109375,75.17578125Z"/>
    <path class="cls-1" d="M1005.119140625,921.78564453125c60.544677734375,0,117.4658203125,23.577392578125,160.27734375,66.38916015625,42.811767578125,42.811767578125,66.38916015625,99.7325439453125,66.38916015625,160.277587890625,0,60.5447998046875-23.577392578125,117.4658203125-66.38916015625,160.27734375-42.8115234375,42.811767578125-99.732666015625,66.38916015625-160.27734375,66.38916015625-60.544921875,0-117.4658203125-23.577392578125-160.277587890625-66.38916015625-42.811767578125-42.8115234375-66.38916015625-99.7325439453125-66.38916015625-160.27734375,0-60.5450439453125,23.577392578125-117.4658203125,66.38916015625-160.277587890625s99.732666015625-66.38916015625,160.277587890625-66.38916015625M1005.119140625,861.78564453125c-158.32177734375,0-286.666748046875,128.34503173828125-286.666748046875,286.666748046875,0,158.32177734375,128.344970703125,286.66650390625,286.666748046875,286.66650390625,158.321533203125,0,286.66650390625-128.3447265625,286.66650390625-286.66650390625,0-158.32171630859375-128.344970703125-286.666748046875-286.66650390625-286.666748046875h0Z"/>
  </g>
</svg>