<?xml version="1.0" encoding="UTF-8"?>
<svg id="Ebene_1" data-name="Ebene 1" xmlns="http://www.w3.org/2000/svg" viewBox="0 0 2000 2000">
  <defs>
    <style>
      .cls-1 {
        fill: #172d4d;
      }

      .cls-2 {
        fill: #cfd8e5;
      }
    </style>
  </defs>
  <rect class="cls-1" x="395.952380952381645" y="36" width="1208.095238095236709" height="1935" rx="77.261904761904589" ry="77.261904761904589"/>
  <rect class="cls-2" x="456.357142857143117" y="97.428571428570649" width="1087.285714285713766" height="1812.142857142856883" rx="77.26190476190456" ry="77.26190476190456"/>
  <g>
    <rect class="cls-1" x="488.095240072663842" y="291.952380952381588" width="307.142857141536069" height="307.142857141334446" rx="66.047621664677052" ry="66.047621664677052"/>
    <rect class="cls-1" x="846.428573405997668" y="291.952380952381645" width="307.142857141536297" height="307.142857141334389" rx="66.047621664674921" ry="66.047621664674921"/>
    <rect class="cls-1" x="1204.761906739329788" y="291.952380952381532" width="307.142857141536297" height="307.142857141334503" rx="66.047621664676981" ry="66.047621664676981"/>
  </g>
  <g>
    <rect class="cls-1" x="488.095240072663842" y="681" width="307.142857141536069" height="307.142857141335412" rx="66.047621664677209" ry="66.047621664677209"/>
    <rect class="cls-1" x="846.428573405997213" y="680.999999999999886" width="307.142857141535387" height="307.142857141335526" rx="66.047621664677735" ry="66.047621664677735"/>
    <rect class="cls-1" x="1204.761906739329788" y="681" width="307.142857141536297" height="307.142857141335412" rx="66.047621664676711" ry="66.047621664676711"/>
  </g>
  <g>
    <rect class="cls-1" x="488.095240072664183" y="1070.047619047618355" width="307.142857141537206" height="307.142857141338936" rx="66.04762166467755" ry="66.04762166467755"/>
    <rect class="cls-1" x="846.42857340599744" y="1070.047619047618355" width="307.142857141534932" height="307.142857141338936" rx="66.04762166467745" ry="66.04762166467745"/>
    <rect class="cls-1" x="1204.761906739329788" y="1070.047619047618355" width="307.142857141536297" height="307.142857141337117" rx="66.047621664677237" ry="66.047621664677237"/>
  </g>
  <rect class="cls-1" x="488.095240072663159" y="1459.095238095236709" width="307.142857141535615" height="307.142857141339846" rx="66.047621664676868" ry="66.047621664676868"/>
  <rect class="cls-1" x="846.428573405997781" y="1459.095238095236709" width="307.142857141535274" height="307.142857141339164" rx="66.047621664677806" ry="66.047621664677806"/>
  <rect class="cls-1" x="1204.761906739329788" y="1459.095238095236709" width="307.142857141536297" height="307.142857141339846" rx="66.047621664677081" ry="66.047621664677081"/>
  <rect class="cls-1" x="846.428572561142346" y="1837.904761349568162" width="307.14285714216885" height="30.714309896116674" rx="9.841271336304748" ry="9.841271336304748"/>
  <rect class="cls-1" x="979.523809505455688" y="138.380951828700745" width="40.952349291746714" height="40.95238150204753" rx="17.99996811891689" ry="17.99996811891689"/>
</svg>