<?xml version="1.0" encoding="UTF-8"?>
<svg id="Ebene_1" xmlns="http://www.w3.org/2000/svg" xmlns:xlink="http://www.w3.org/1999/xlink" viewBox="0 0 200 200">
  <defs>
    <style>
      .cls-1, .cls-2 {
        fill: #45a0e5;
      }

      .cls-3 {
        fill: #59ace8;
      }

      .cls-3, .cls-2, .cls-4, .cls-5, .cls-6, .cls-7, .cls-8, .cls-9, .cls-10 {
        fill-rule: evenodd;
      }

      .cls-11 {
        stroke-linecap: round;
        stroke-linejoin: round;
        stroke-width: 3px;
      }

      .cls-11, .cls-12, .cls-13 {
        fill: none;
      }

      .cls-11, .cls-13 {
        stroke: #172d4d;
      }

      .cls-13 {
        stroke-miterlimit: 10;
        stroke-width: 2.5px;
      }

      .cls-4 {
        fill: #b9bec6;
      }

      .cls-14 {
        clip-path: url(#clippath-1);
      }

      .cls-5 {
        fill: #e3e5e8;
      }

      .cls-6 {
        fill: #8f97a3;
      }

      .cls-7 {
        fill: #b8ddf5;
      }

      .cls-8 {
        fill: #92caf0;
      }

      .cls-9 {
        fill: #172d4d;
      }

      .cls-10 {
        fill: #172d4f;
      }

      .cls-15 {
        clip-path: url(#clippath);
      }
    </style>
    <clipPath id="clippath">
      <rect class="cls-12" x="-.000000000030468" y=".000000000030923" width="200" height="200"/>
    </clipPath>
    <clipPath id="clippath-1">
      <rect class="cls-12" x="-.000000000030468" y=".000000000030923" width="200" height="200"/>
    </clipPath>
  </defs>
  <g class="cls-15">
    <polygon class="cls-4" points="7.936000061004506 142.963000488311991 99.847998046844168 89.897998046905741 191.758996582001146 142.963000488311991 99.847998046844168 196.028002929718241 7.936000061004506 142.963000488311991"/>
    <polygon class="cls-5" points="99.846997070282214 3.667004394562355 191.758996582001146 56.732006835968605 191.758996582001146 142.963000488311991 99.846997070282214 89.898010253937173 99.846997070282214 3.667004394562355"/>
    <polygon class="cls-6" points="7.934999847381278 56.732995605500037 99.846997070282214 3.667993164093787 99.846997070282214 89.897998046905741 7.934999847381278 142.96299438479673 7.934999847381278 56.732995605500037"/>
    <g class="cls-14">
      <path class="cls-9" d="M192.8589965820006,144.196002197296366c.068994140625364-.060998535155704.130993652343932-.127996826171511.188000488281432-.198999023436954.23199462890625-.28900146484375.365002441406432-.652001953125364.365002441406432-1.034002685547421,0-.010998535156432,0-.021997070311954-.001000976562864-.032995605468386V56.732006835968605c0-.590002441406796-.31500244140625-1.135998535156432-.826000976562682-1.430993652344114L100.672998046844896,2.236010742218241c-.511004638672603-.295007324218204-1.141003417968932-.295007324218204-1.652001953125364,0-.001000976562864,0-.002001953124818.001000976562864-.003002929687682.002001953124818L7.1089965820006,55.301013183624491c-.510998535156432.294995117187682-.826000976562682.840991210937318-.826000976562682,1.430993652344114v86.230993652343386c0,.59100341796875.31500244140625,1.136999511719296.826000976562682,1.430999755859375.005999755859193.003002929687682.011999511719296.005999755859193.017004394531796.009002685546875l91.89599609375,53.055997085571107c.509997558593568.295000076293945,1.140997314452761.295000076293945,1.651995849609193,0l91.911004638671329-53.064999771117982c.089001464843932-.051995849608829.1719970703125-.110998535155886.248999023438046-.176995849608829.005993652343932-.004998779297239.010998535156432-.009002685546875.017004394530886-.014001464844114.00299072265625-.002001953124818.004992675781068-.004998779297239.00799560546875-.007000732422057ZM101.499993896454271,6.530004882843059l88.607000732421511,51.157006835937864v82.413989257812318s-79.600000000000364-45.956994628905704-88.607000732421511-51.156994628906432V6.530004882843059ZM9.5880004882506,57.687011718780923L98.193994140594896,6.530004882843059v82.41400146484375L9.5880004882506,140.101000976593241V57.687011718780923ZM99.847998046844168,194.120000076324686L11.240997314422657,142.963000488311991l88.605999755859557-51.156994628906432,88.60699462890625,51.156994628906432-88.605993652344296,51.156999588012695Z"/>
      <path class="cls-13" d="M192.8589965820006,144.196002197296366c.068994140625364-.060998535155704.130993652343932-.127996826171511.188000488281432-.198999023436954.23199462890625-.28900146484375.365002441406432-.652001953125364.365002441406432-1.034002685547421,0-.010998535156432,0-.021997070311954-.001000976562864-.032995605468386V56.732006835968605c0-.590002441406796-.31500244140625-1.135998535156432-.826000976562682-1.430993652344114L100.672998046844896,2.236010742218241c-.511004638672603-.295007324218204-1.141003417968932-.295007324218204-1.652001953125364,0-.001000976562864,0-.002001953124818.001000976562864-.003002929687682.002001953124818L7.1089965820006,55.301013183624491c-.510998535156432.294995117187682-.826000976562682.840991210937318-.826000976562682,1.430993652344114v86.230993652343386c0,.59100341796875.31500244140625,1.136999511719296.826000976562682,1.430999755859375.005999755859193.003002929687682.011999511719296.005999755859193.017004394531796.009002685546875l91.89599609375,53.055997085571107c.509997558593568.295000076293945,1.140997314452761.295000076293945,1.651995849609193,0l91.911004638671329-53.064999771117982c.089001464843932-.051995849608829.1719970703125-.110998535155886.248999023438046-.176995849608829.005993652343932-.004998779297239.010998535156432-.009002685546875.017004394530886-.014001464844114.00299072265625-.002001953124818.004992675781068-.004998779297239.00799560546875-.007000732422057ZM101.499993896454271,6.530004882843059l88.607000732421511,51.157006835937864v82.413989257812318s-79.600000000000364-45.956994628905704-88.607000732421511-51.156994628906432V6.530004882843059ZM9.5880004882506,57.687011718780923L98.193994140594896,6.530004882843059v82.41400146484375L9.5880004882506,140.101000976593241V57.687011718780923ZM99.847998046844168,194.120000076324686L11.240997314422657,142.963000488311991l88.605999755859557-51.156994628906432,88.60699462890625,51.156994628906432-88.605993652344296,51.156999588012695Z"/>
      <path class="cls-2" d="M69.809002685516589,84.580993652374673c10.552996826171693-6.092993164062136,19.120996093749454,2.431005859374636,19.120996093749454,19.023004150390989,0,16.591998291015443,2.9739990234375,28.344995117186954-19.120996093749454,41.101995849609011-20.867001342773619,12.0469970703125-19.122000122070858-2.429998779296511-19.122000122070858-19.021997070312864,0-16.591998291015443,8.56799621582104-35.008996582030704,19.122000122070858-41.102001953124272v-.001000976562864Z"/>
      <path class="cls-9" d="M77.554998779266043,80.997998046906105c-2.636004638671693-.272998046874818-5.536999511718022.383007812500182-8.579998779296147,2.140002441406068-8.125,4.691003417969114-15.188000488281432,16.395001220703307-18.285000610351744,29.154998779296875-2.654998779296875,8.102996826171875-3.263998413086483,16.146002197265261-1.729998779296693,26.640002441406068.103997802733829.709997558594296.691000366210574,7.440997314452943,3.193997192382085,10.631994628906796,11.161999511718932,8.609002685546329,15.798999023438228,6.730999755858647,17.347998046875546,6.438000488280522,2.691003417968204-.507000732421147,6.13800048828125-1.9010009765625,10.5260009765625-4.43499755859375,9.215002441405886-5.320001220702579,14.207000732421875-10.515002441406068,16.928997802734557-15.890002441406068,4.032000732421693-7.961999511718204,3.0260009765625-16.405999755858829,3.0260009765625-26.654998779296875,0-8.426995849608829-2.189996337890989-14.866992187499818-5.609997558593932-18.669995117187682-.479998779296693-.740002441405522-1.172998046875364-1.5050048828125-2.135003662109739-2.219995117186954-11.180999755859375-8.309008789062318-11.820996093750182-7.370007324218932-11.820996093750182-7.370007324218932-.735003662109193-.423999023437318-1.642004394530886-.418994140624818-2.372003173827579.014001464844114l-.489996337891171.221997070311772v-.001000976561954ZM88.171997070282032,90.070007324249673c1.533001708984557,3.589990234375364,2.425000000000182,8.156994628906432,2.425000000000182,13.533990478515989,0,10.248999023437136,1.005999755859193,18.694000244140625-3.0260009765625,26.654998779296875-2.721997070312682,5.375-7.714996337890625,10.571002197265443-16.928997802734557,15.891003417968022-2.990002441406432,1.725994873047057-5.542999267578125,2.923999023438228-7.717999267578307,3.6719970703125.369000244140807.955999755859921.864001464843568,1.734997558593932,1.557000732422239,2.282000732422603,1.019000244140443.803997802733647,2.447998046875.992999267577943,4.401995849609193.623999023437136,2.428002929687864-.458001708984739,5.517999267578489-1.760998535156432,9.477001953125182-4.046002197265807,8.46099853515625-4.884997558593568,13.122998046875182-9.573992919921693,15.621997070312318-14.509997558593568,3.801000976562136-7.505999755859193,2.666003417968568-15.48699951171875,2.666003417968568-25.148999023437682,0-5.494000244140807-.965002441405886-10.057995605468932-2.684002685547057-13.415991210937136-1.445996093749272-2.826000976562682-3.414996337890443-4.766003417968932-5.792999267578125-5.535998535156068l.001000976562864-.001000976562864ZM84.380999755828725,89.809997558624673c.067999267578671.124011230468568.133996582031614.25.198999023437864.378002929687682,1.719000244140261,3.358007812499636,2.683996582030886,7.9219970703125,2.683996582030886,13.415997314453307,0,9.661999511718022,1.135003662109739,17.644000244140443-2.665997314453307,25.148999023436772-2.498999023437136,4.936004638671875-7.160998535156068,9.625-15.622003173827579,14.510003662109739-2.64599609375,1.527996826172057-4.902996826172057,2.615997314453125-6.834997558594296,3.306994628906068-.628997802734375-4.188995361328125-.402001953124454-9.698999023436954-.402001953124454-15.466998291015443,0-15.984997558593932,8.121002197265625-33.788995361328489,18.288000488280886-39.658990478515989,1.509002685546875-.871008300780886,2.966998291015443-1.41400146484375,4.353002929688046-1.633007812499272l.001000976561954-.001000976562864Z"/>
      <path class="cls-9" d="M58.6819946288756,75.840991210968241c.471002197265989,1.688000488281432,1.6510009765625,4.71600341796875,3.547003173828671,6.176000976563046,8.860998535155886,6.8280029296875,10.317999267577761,6.644006347655704,12.344000244140261,6.910998535156068,3.008996582031614.397009277343386,6.339996337890625.223010253906068,9.552996826171693-2.661999511718932,5.510003662109739-4.944995117187318,8.34100341796875-14.920996093749636,6.292004394531432-22.27099609375-.911004638672239-3.266992187500364-2.611004638672057-5.53399658203125-4.653002929687318-6.808996582030886-.088000488281068-.055004882812682-8.703997802734193-5.58599853515625-11.238000488281614-6.278002929688228-2.927996826171693-.799999999999272-6.339996337890625-.222998046874636-9.552996826171693,2.661999511718932-5.510003662109739,4.94500732421875-8.34100341796875,14.920996093750546-6.292004394531432,22.27099609375ZM81.472998046844168,60.639001464875037c1.073999023437864,7.057995605468022-1.722003173827943,15.711999511718204-6.730999755858647,20.208996582030522-.461999511719114.415002441406614-.929003906250728.78399658203125-1.398004150390989,1.109997558593932.665002441406614,1.278002929687318,1.559002685547057,2.147998046874818,2.653002929687318,2.496997070312318,1.536999511718932.489001464844478,3.286999511718932-.148999023436772,4.995001220703671-1.681994628906068,4.329998779296147-3.886999511718386,6.515997314452761-11.739001464843568,4.904998779296875-17.516003417968932-.654998779296875-2.351000976562318-1.821002197266353-3.952001953124636-3.407000732422603-4.45599365234375-.329998779296147-.105004882811954-.670001220702943-.158007812499818-1.016998291015625-.160998535156068v-.001000976561954ZM77.011999511687918,62.940991210968605c.288995361328489,4.995007324218932-1.625,10.646008300781432-4.923004150390625,13.954003906249454-.28900146484375-4.9949951171875,1.625-10.64599609375,4.923004150390625-13.954003906249454"/>
      <path class="cls-2" d="M79.194000244110157,89.998999023468059c10.552996826171693-6.092993164062136,19.120996093750364,2.431005859375546,19.120996093750364,19.023004150390989s2.9739990234375,28.344995117187864-19.120996093750364,41.101995849609011c-20.86700439453125,12.0469970703125-19.122003173828489-2.429998779296511-19.122003173828489-19.021997070311954s8.567999267578671-35.008996582031614,19.122003173828489-41.102001953125182v-.001000976562864Z"/>
      <path class="cls-3" d="M81.820001220673021,94.744995117218423c9.113995361327397-5.261999511718386,16.51300048828125,2.100000000000364,16.51300048828125,16.428002929687864,0,14.327996826171329,2.567999267577761,24.479998779296693-16.51300048828125,35.495996093749454-18.021002197266171,10.404003906250182-16.514001464844114-2.097998046874636-16.514001464844114-16.427996826171693s7.399999999999636-30.234997558593932,16.514001464844114-35.496990966797057v.000988769531432Z"/>
      <path class="cls-8" d="M84.429998779266043,104.235998535186809c5.637994384765989-3.254998779296329,10.215997314453489,1.299005126953489,10.215997314453489,10.16400146484375,0,8.865002441406432,1.589001464843932,15.145001220703307-10.215997314453489,21.96099853515625-11.149005126952943,6.436999511719478-10.217004394530704-1.297998046874454-10.217004394530704-10.163995361327579,0-8.866003417969296,4.5780029296875-18.704998779297057,10.217004394530704-21.961004638672421Z"/>
      <path class="cls-7" d="M85.205999755828543,112.390002441436991c3.390997314453671-1.957995605468568,6.144995117188046.781005859375,6.144995117188046,6.113000488281614,0,5.332000732421875.955999755859011,9.109002685546329-6.144995117188046,13.209002685546693-6.705999755859011,3.871997070312318-6.145001220702397-.780999755859739-6.145001220702397-6.113000488281614s2.752996826171511-11.251000976561954,6.145001220702397-13.209002685546693"/>
      <path class="cls-1" d="M70.327520751922293,70.746179199250037c1.831994628906614-7.7803955078125,7.22149658203125-13.16839599609375,12.037695312500546-12.034289550781978,4.816204833984557,1.13409423828125,7.235400390624818,8.360693359375546,5.403302001953307,16.141101074219478-1.832000732421875,7.7803955078125-7.221502685547421,13.16839599609375-12.037701416015807,12.034289550781068-4.816198730469296-1.133996582031614-7.235296630859921-8.360693359375546-5.403295898438046-16.141101074218568"/>
      <polygon class="cls-6" points="117.64799804684435 35.314001464874309 173.14799804684435 67.357006835968605 173.14799804684435 116.235003662140116 117.64799804684435 84.192004394561991 117.64799804684435 35.314001464874309"/>
      <polygon class="cls-11" points="117.64799804684435 35.314001464874309 173.14799804684435 67.357006835968605 173.14799804684435 116.235003662140116 117.64799804684435 84.192004394561991 117.64799804684435 35.314001464874309"/>
      <path class="cls-1" d="M135.36198730465685,57.986108398468787c5.542492675781432-3.19989013671875,14.528295898438046,1.987805175780522,20.07049560546875,11.587109374999272,5.542199707031614,9.599401855469296,5.542004394531432,19.975195312500546-.000500488281432,23.175195312500364-5.542395019530886,3.199902343750182-14.528295898437136-1.987805175781432-20.07049560546875-11.587194824218386-5.542199707030704-9.59930419921875-5.542004394530522-19.975207519531978.000500488281432-23.17510986328125"/>
      <polygon class="cls-10" points="154.206005859344714 80.764001464875037 140.12700195309435 82.378002929718605 140.12700195309435 62.894006347687537 154.206005859344714 80.765002441436991 154.206005859344714 80.764001464875037"/>
    </g>
  </g>
</svg>