<?xml version="1.0" encoding="UTF-8"?>
<svg id="Ebene_1" xmlns="http://www.w3.org/2000/svg" viewBox="0 0 200 200">
  <defs>
    <style>
      .cls-1 {
        fill: #e9f2fa;
      }

      .cls-2 {
        fill: #2e3a4d;
      }

      .cls-3 {
        fill: #172d4d;
        opacity: .5;
      }
    </style>
  </defs>
  <rect class="cls-1" x="23.413013931120076" y="27.646566430310486" width="147.100000000000364" height="149.899999999999636"/>
  <path class="cls-2" d="M195.385581793660094,194.065328389010574c-5.494937829809714-2.000791889540778-10.004991370989956-4.660642762880343-13.405470886939838-7.906703607710369-5.92442072374979-5.654074716660034-6.418109526839544-11.140959965890033-6.435741695860088-11.371371138169707-.00379366019024-.046084620410511-.00504628382987-.091089598529834-.00504628382987-.137174218940345.00504628382987-1.162744916549855.484884648310071-116.595419797369686,0-144.550710814840386-.143574529280158-8.278553884189932-2.934503519810278-14.620623190859988-8.295935528500195-18.84833536233964-8.103234292820161-6.390289352139916-19.565408715549893-5.872681402310263-19.680017814240273-5.866263197340231-.046597599619417.002147354820409-.09824148305961.004282779890673-.144839082669932.004282779890673l-142.712048577719543-.01596424968011c-.240031675570208-.000026850750146-.321791345249949.319702437599517-.110977428470505.434474814479472,1.329089578980529.723589658540732,2.636787840760007,1.567142359790523,3.886586300460294,2.548930992010355,6.342540531750274,4.982125639069636,9.641014728839764,12.277978378710031,9.803485980540245,21.686076687969944.476632485489972,27.530444364259893-.192008373560384,139.528061593589882-.220282574619887,144.323600750850346-.000083274499957.014124046600045.00092689767007.026395709679491.003416626559556.040298834409441.124899437640124.697462469910533,1.077305627820351,5.072228245479891,5.836493514470021,9.498451553250561,6.931953640860229,6.444957426969268,18.795886220839748,10.115389268289618,34.310930413620554,10.615860133679234l.000011929749235-.001073677409295h137.103734069730308c.259696395850369,0,.32244842234013-.360732661980364.07847398478043-.44971969379003-.004258404850589-.001553207020152-.008516054730535-.003106736509835-.012772947060512-.004660586319915ZM152.034388986719932,116.374353070480538c0,1.332075773929319-1.26825161673969,2.411228939189641-2.833744859709441,2.411228939189641H43.989503456240527c-1.565481313210512,0-2.833738894830276-1.079153165260323-2.833738894830276-2.411228939189641,0-1.332081738800298,1.268257581619764-2.41123490406062,2.833738894830276-2.41123490406062h105.211140670769964c1.565493242969751,0,2.833744859709441,1.079153165260323,2.833744859709441,2.41123490406062ZM41.155764561410251,84.379965178190105c0-1.332051914419935,1.268257581619764-2.411228939189641,2.833738894830276-2.411228939189641h105.211140670769964c1.565493242969751,0,2.833744859709441,1.079177024769706,2.833744859709441,2.411228939189641,0,1.332075773930228-1.26825161673969,2.411240868939785-2.833744859709441,2.411240868939785H43.989503456240527c-1.565481313210512,0-2.833738894830276-1.079165095009557-2.833738894830276-2.411240868939785ZM41.155764561410251,52.38559518052989c0-1.332075773929319,1.268257581619764-2.411240868939785,2.833738894830276-2.411240868939785h105.211140670769964c1.565493242969751,0,2.833744859709441,1.079165095010467,2.833744859709441,2.411240868939785,0,1.332075773920224-1.26825161673969,2.411217009440406-2.833744859709441,2.411217009440406H43.989503456240527c-1.565481313210512,0-2.833738894830276-1.079141235520183-2.833738894830276-2.411217009440406ZM149.200644127010492,150.779952007340398H43.989503456240527c-1.565481313210512,0-2.833738894830276-1.079153165270327-2.833738894830276-2.411234904070625,0-1.332075773919314,1.268257581619764-2.411228939189641,2.833738894830276-2.411228939189641h105.211140670769964c1.565493242969751,0,2.833744859709441,1.079153165270327,2.833744859709441,2.411228939189641,0,1.332081738800298-1.26825161673969,2.411234904070625-2.833744859709441,2.411234904070625Z"/>
  <path class="cls-3" d="M195.359553931420123,194.172195528400152c-5.494937829809714-2.000791889539869-10.004991370989956-4.660642762870339-13.405470886949843-7.906703607700365-5.924420723739786-5.654074716659125-6.418109526820444-11.140959965889124-6.435741695850083-11.371371138179711-.00379366019024-.046084620409601-.00504628382987-.091089598529834-.00504628382987-.137174218939435.00504628382987-1.16274491654076.484884648320076-116.595419797370596,0-144.550710814830381-.143574529280158-8.278553884199937-2.934503519810278-14.620623190869992-8.295935528500195-18.84833536233964-8.103234292820161-6.39028935215083-19.565408715549893-5.872681402310263-19.680017814240273-5.866263197350236-.046597599619417.002147354829503-.09824148305961.004282779899768-.144839082669932.004282779899768l-142.712048577719543-.015964249690114c-.240031675570208-.000026850750146-.321791345249949.319702437610431-.110977428470505.434474814480382,1.329089578980529.723589658539822,2.636787840760007,1.567142359799618,3.886586300460294,2.54893099201945,6.342540531750274,4.982125639070546,9.641014728839764,12.277978378710031,9.803485980540245,21.686076687969944.476632485489972,27.530444364260802-.192008373560384,139.528061593580787-.220282574619887,144.323600750850346-.000083274499957.014124046600045.00092689767007.026395709680401.003416626559556.040298834400346.124899437640124.697462469909624,1.077305627820351,5.072228245489896,5.836493514470021,9.498451553259656,6.931953640860229,6.444957426960173,18.795886220839748,10.115389268279614,34.310930413620554,10.615860133680144l.000011929749235-.001073677410204h137.103734069730308c.259696395850369,0,.32244842234013-.360732661979455.07847398478043-.449719693800034-.004258404850589-.001553207010147-.008516054730535-.003106736509835-.012772947060512-.004660586319915ZM152.008361124489966,116.481220209880121c0,1.332075773920224-1.268251616749694,2.411228939190551-2.833744859709441,2.411228939190551H43.963475594010561c-1.565481313220516,0-2.83373889484028-1.079153165270327-2.83373889484028-2.411228939190551,0-1.332081738800298,1.268257581619764-2.411234904069715,2.83373889484028-2.411234904069715h105.211140670769964c1.565493242959747,0,2.833744859709441,1.079153165269418,2.833744859709441,2.411234904069715ZM41.12973669917028,84.486832317590597c0-1.33205191442994,1.268257581619764-2.411228939190551,2.83373889484028-2.411228939190551h105.211140670769964c1.565493242959747,0,2.833744859709441,1.079177024760611,2.833744859709441,2.411228939190551,0,1.332075773929319-1.268251616749694,2.411240868939785-2.833744859709441,2.411240868939785H43.963475594010561c-1.565481313220516,0-2.83373889484028-1.079165095010467-2.83373889484028-2.411240868939785ZM41.12973669917028,52.492462319920378c0-1.332075773920224,1.268257581619764-2.411240868939785,2.83373889484028-2.411240868939785h105.211140670769964c1.565493242959747,0,2.833744859709441,1.079165095019562,2.833744859709441,2.411240868939785,0,1.332075773930228-1.268251616749694,2.411217009449501-2.833744859709441,2.411217009449501H43.963475594010561c-1.565481313220516,0-2.83373889484028-1.079141235519273-2.83373889484028-2.411217009449501ZM149.174616264780525,150.886819146729977H43.963475594010561c-1.565481313220516,0-2.83373889484028-1.079153165259413-2.83373889484028-2.411234904059711,0-1.332075773930228,1.268257581619764-2.411228939189641,2.83373889484028-2.411228939189641h105.211140670769964c1.565493242959747,0,2.833744859709441,1.079153165259413,2.833744859709441,2.411228939189641,0,1.332081738800298-1.268251616749694,2.411234904059711-2.833744859709441,2.411234904059711Z"/>
</svg>