<?xml version="1.0" encoding="UTF-8"?>
<svg id="Ebene_1" xmlns="http://www.w3.org/2000/svg" viewBox="0 0 200 200">
  <defs>
    <style>
      .cls-1 {
        fill: #172d4d;
      }

      .cls-2 {
        fill: #cfd8e5;
      }

      .cls-3 {
        fill: #e5bd73;
      }
    </style>
  </defs>
  <path class="cls-3" d="M117.55,41.3c-11.3,0-20.5-9.2-20.5-20.5S106.24.3,117.55.3s20.5,9.2,20.5,20.5-9.2,20.5-20.5,20.5ZM117.55,6.3c-8,0-14.5,6.5-14.5,14.5s6.5,14.5,14.5,14.5,14.5-6.5,14.5-14.5-6.5-14.5-14.5-14.5Z"/>
  <path class="cls-3" d="M40.75,101.79c-11.3,0-20.5-9.2-20.5-20.5s9.2-20.5,20.5-20.5,20.5,9.2,20.5,20.5-9.2,20.5-20.5,20.5ZM40.75,66.8c-8,0-14.5,6.5-14.5,14.5s6.5,14.5,14.5,14.5,14.5-6.5,14.5-14.5-6.5-14.5-14.5-14.5Z"/>
  <path class="cls-2" d="M88.59,10.81l-12.74-1.83c-1.02-.15-2.05.33-2.57,1.24-.17.29-.3.61-.34.94-.1.66.07,1.34.48,1.92l3.17,4.2.74,1.02-13.96,10.44s-.03.03-.05.05l-13.45,10.07-.77-.99-3.14-4.22c-.64-.82-1.7-1.21-2.7-.93-1.02.24-1.77,1.1-1.92,2.12l-1.83,12.74c-.2,1.4.78,2.71,2.18,2.91l12.74,1.83c1.02.15,2.05-.33,2.57-1.24.17-.29.3-.61.34-.94.1-.66-.07-1.34-.48-1.92l-3.17-4.2-.74-1.02,13.96-10.44s.03-.03.05-.05l13.45-10.07.77.99,3.14,4.22c.64.82,1.7,1.21,2.7.93,1.02-.24,1.77-1.1,1.92-2.12l1.83-12.74c.2-1.4-.78-2.71-2.18-2.91Z"/>
  <path class="cls-1" d="M54.8,53.83c-.2,0-.39-.01-.59-.04l-12.74-1.83c-2.22-.32-3.77-2.39-3.45-4.61l1.83-12.74c.24-1.66,1.44-2.98,3.05-3.36,1.52-.42,3.21.16,4.23,1.47l3.01,4.05,12.2-9.13s.07-.06.1-.08l12.79-9.57-3.02-4c-.65-.92-.92-1.99-.77-3.03.07-.51.25-1.02.54-1.49.81-1.42,2.41-2.2,4.07-1.96l12.74,1.83h0c1.08.15,2.03.72,2.68,1.59.65.87.93,1.94.77,3.02l-1.83,12.74c-.24,1.66-1.44,2.98-3.05,3.36-1.53.42-3.21-.16-4.23-1.47l-3.01-4.05-12.2,9.13s-.07.06-.1.08l-12.79,9.57,3.02,4c.65.92.92,1.99.77,3.03-.07.51-.25,1.02-.54,1.5-.71,1.25-2.04,2-3.48,2ZM43.89,34.11c-.08,0-.17.01-.25.03-.45.11-.76.46-.83.88l-1.83,12.74c-.08.59.32,1.13.91,1.22l12.74,1.83c.42.06.85-.14,1.05-.5.09-.16.14-.29.16-.41.04-.29-.03-.58-.22-.84l-3.9-5.2c-.48-.66-.34-1.59.32-2.08l13.89-10.39s.04-.03.05-.05l13.52-10.12c.66-.49,1.59-.36,2.09.29l.77.99,3.15,4.24c.25.33.7.49,1.1.38.45-.11.76-.46.83-.88l1.83-12.74c.04-.28-.03-.56-.21-.79-.17-.23-.42-.38-.7-.42t0,0l-12.74-1.83c-.42-.06-.85.14-1.05.5-.09.16-.14.29-.16.41-.04.29.03.58.22.84l3.9,5.2c.48.66.34,1.59-.32,2.08l-13.89,10.4s-.05.04-.07.06l-13.5,10.11c-.66.49-1.59.36-2.09-.28l-.77-.99-3.16-4.24c-.2-.26-.53-.42-.85-.42Z"/>
  <ellipse class="cls-1" cx="117.69" cy="78.81" rx="3.07" ry="3.24"/>
  <path class="cls-2" d="M168.57,65.86c-3.02,1.12-6.01,2.32-9.02,3.46-.34-4.67-1.06-9.3-1.31-13.98-5.62-.24-11.19.08-16.81.32-1.37-2.96-2.72-5.92-3.89-8.96-4.53-.07-9.06-.23-13.59-.33.46-10.27,1.26-20.5,2.25-30.72-4.33-1.43-8.7-2.1-12.99-4.05-2.61,9.4-4.29,3.56-7.17,16.5s-6.74,43.4-11,59.56c-2.52,4.03-5.08,6.6-7.3,10.29-3.41-.51-6.88-.7-10.33-.84-5.81-6.88-12.65-13.01-19.02-19.37-5.61-1.93-11.23-3.78-16.77-5.91-3.2,1.55-6.41,3.09-9.61,4.65.47,3.36,1.02,6.93,1.47,10.16,6.67,6.3,12.2,8.42,19.3,15.41,7.11,6.99,11.2,18.87,17.07,28.3,5.87,9.43,13.58,20.35,18.63,30.73-1.74,12.36-3.23,24.66-3.93,37.11h64.86c1.67-14.53,3.81-29,5.91-43.47,4.22-5.98,8.4-11.99,12.6-17.99,2.99-22.14,7.62-44.01,10.63-66.13-3.29-1.71-6.53-3.42-10-4.75Z"/>
  <path class="cls-1" d="M81.79,194.14s0,.06,0,.1c0-.04,0-.07,0-.1Z"/>
  <path class="cls-1" d="M81.79,194.09s0,.02,0,.05c0-.02,0-.03,0-.05Z"/>
  <path class="cls-1" d="M81.78,194.23s0,.06,0,.09c0-.03,0-.06,0-.09Z"/>
  <path class="cls-1" d="M81.76,194.58c-.02.4-.04.79,0,0h0Z"/>
  <path class="cls-1" d="M81.78,194.32c0,.09,0,.18-.01.25,0-.09,0-.17.01-.25Z"/>
  <ellipse class="cls-2" cx="40.64" cy="81.27" rx="5.61" ry="4.52"/>
  <path class="cls-1" d="M178.54,66.41c-2.1-2.98-5.02-3.38-8.31-3.69-.07,0-.22.03-.29.04-2.47.31-4.56,1.02-6.83,1.96.01-.74-.08-1.65-.13-2.36-.23-3.28-1.06-6.06-3.38-8.45-2.31-2.39-5.07-3.24-8.35-3.17-.07,0-.2.02-.26.03-2.38.31-4.33,1.09-6.46,2.1-.33-2.94-1.11-5.45-3.21-7.72-2.1-2.27-4.97-3.39-8.13-3.4-.07,0-.21.02-.26.03-2.11.16-4.09.95-6.04,1.32.57-5.09,3.04-16.92,2.89-20.81,0-.18-.02-.33-.03-.51.01-.29.02-.55,0-.74-.24-5.29-1.78-10.9-11.39-12.4-7.41-1.15-11.36,4.87-12.54,8.51.08-.37.11-.52,0,.02-.04.12-.08.24-.11.35-.03.09-.05.18-.06.27,0,.04-.11.58-.28,1.51-.09.4-.18.85-.29,1.37-1.57,7.31-6.15,36.91-8.25,49.92-1.17,7.26-4.23,17.76-9.32,23.81-.08.09-.15.22-.19.24-.04.02-.04.07-.06.08-1.04.79-1.44,1.72-2.95,1.93-3.05.43-6.27-2.34-8.64-4.21-.42-.33-1.51-1.41-1.87-1.85-8.55-10.52-23.66-22.79-36.99-19.08-8.1,2.25-6.21,7.27-6.33,12.95-.04,1.94,2.09,4.17,3.66,5.25,12.6,8.69,24.33,20.53,30.08,33.62,1.84,4.18,2.51,5.68,3.45,7.42,4,7.42,7.92,13.04,12.28,18.9,2.93,3.93,4.29,5.48,6,10.09-1.72,8.11-3.81,27.73-4.16,34.38-.32,6.08-.06,1.27-.22,4.22h6.32c.05-.77.1-1.72.12-2.12.01-.36.02-.09.02-.09.62-12.6,2.36-24.62,3.93-37.28.06-.47.47.63-.1-1.29-1.17-3.94-3.74-7.76-7.43-12.4-3.53-4.44-7.92-10.98-11.41-17.55-.75-1.41-1.38-2.91-3.24-6.98-6.28-13.78-18.72-26.41-32.16-35.47-.54-.37-1.37-1.24-1.26-1.77.55-2.63-2.08-5.29,2.72-6.35,10.6-2.32,22.51,8.17,29.13,16.49.51.65,1.94,2.33,2.81,3,3.66,2.86,7.04,5.54,11.7,6.4-.98,2.7-2.4,5.93-2.27,8.73.09,1.9,1.32,3.18,3.12,3,1.8-.18,2.86-.73,3.28-3.14.81-4.68,3.18-9.53,6.35-14.17.01-.02-1.85,2.42.6-.87s8.43-18.65,9.26-25.49c1.95-16.17,5.28-36.32,8.34-50.51,1.13-5.24,3.19-6.16,6.17-4.81,1.88.85,3.48.29,4.58.57.98.87,1.38,2.05,1.55,3.6.04,1.04,0,2.37-.12,4.07-.7,9.86-5.99,40.36-8.89,54.15-.23,1.09.73,4,2.56,3.21,1.83-.79,2.91,1.22,3.76-3.07,1.42-7.08,3.52-19.46,4.85-27.69,2.1-1.94,4.46-2.32,7.13-2.63.03,0,.13-.02.17-.01,1.43.15,2.73.32,3.73,1.53,1,1.21,1.52,2.16,1.34,4.02-.76,8-2.11,16.8-3.19,24.75-.27,2.03,1.04,2.95,2.73,2.99,1.69.04,3.3-.79,3.65-2.83.99-5.82,1.71-12.25,2.41-18.25,2.04-2.02,4.62-2.83,7.4-3.25.03,0,.13-.02.17-.02,1.46.08,2.77.21,3.81,1.42,1.04,1.21,1.62,2.05,1.53,3.95-.38,8.22-1.9,17.22-3.23,25.32-.34,2.07.8,3.13,2.56,3.23,1.76.11,3.22-.8,3.65-2.9,1.03-5,2-10.79,2.71-16.01,2.16-1.89,4.77-2.55,7.56-2.93.03,0,.14-.02.18-.02,1.49.12,2.77.33,3.72,1.71s1.52,2.19,1.17,4.27c-1.51,8.95-3.24,17.78-5.02,27.08-1.78,9.3-3.51,18.84-5.09,28.66-.48,2.96-1.55,7.86-3.37,10.79-.46.73-1.03,1.53-1.67,2.38-3.37,4.48-7.59,11.08-8.52,16.57-1.43,8.44-3.9,28.18-4.47,33.01-.57,4.82-.14,1.2-.14,1.2-.21,1.89-.29,2.64-.41,3.79h6.08c.03-.3.07-.6.21-1.73.27-2.1-.57,4.4.17-1.37.74-5.77,3-25.14,4.55-34.26.72-4.26,4.74-10.3,7.39-13.7.64-.82,1.42-2.17,1.77-2.56,2.14-2.4,4.12-11.59,4.34-12.97,1.72-10.75,3.35-19.66,5.11-29,1.76-9.34,3.55-18.32,4.91-26.97.68-4.31-.28-6.35-2.38-9.33Z"/>
  <ellipse class="cls-2" cx="117.64" cy="21.02" rx="7.33" ry="6.13" transform="translate(83.88 135.65) rotate(-83.72)"/>
  <ellipse class="cls-2" cx="38.9" cy="81.25" rx="3.92" ry="3.66" transform="translate(-43.63 117.36) rotate(-88.05)"/>
  <ellipse class="cls-1" cx="117.79" cy="78.46" rx="3.65" ry="3.1" transform="translate(21.41 182.11) rotate(-80.75)"/>
  <rect class="cls-2" x="91.86" y="153.28" width="5.09" height="9.31"/>
</svg>