<?xml version="1.0" encoding="UTF-8"?>
<svg id="Ebene_1" xmlns="http://www.w3.org/2000/svg" viewBox="0 0 200 200">
  <defs>
    <style>
      .cls-1 {
        fill: #172d4d;
      }

      .cls-2 {
        fill: #cfd8e5;
      }

      .cls-3 {
        fill: #e5bd73;
      }
    </style>
  </defs>
  <g>
    <path class="cls-2" d="M54.56,22.42c-.02.71-.29,1.35-.76,1.82s-1.11.75-1.82.76h-17.43s-.02,1.25-.02,1.25l.02,5.26c-.02.71-.29,1.35-.76,1.82-.24.24-.53.42-.84.55-.96.42-2.08.18-2.8-.55l-9.1-9.1c-1-1-1-2.64,0-3.64l9.1-9.1c.73-.73,1.84-.96,2.8-.55.96.38,1.58,1.33,1.6,2.37l-.02,5.26.02,1.26h17.44c1.42,0,2.58,1.17,2.58,2.59h0Z"/>
    <path class="cls-1" d="M31.96,35.58c-1.05,0-2.11-.41-2.89-1.19l-9.1-9.1c-.77-.77-1.19-1.79-1.19-2.88s.42-2.11,1.19-2.88l9.1-9.1c1.17-1.17,2.96-1.51,4.46-.86,1.47.58,2.47,2.05,2.5,3.72l-.02,5.04h15.95c2.25,0,4.08,1.84,4.08,4.09,0,.04,0,.09,0,.13-.05,1.05-.47,2.03-1.2,2.75-.75.75-1.76,1.18-2.84,1.2h-15.99s.02,5.01.02,5.01c-.03,1.13-.46,2.14-1.2,2.89-.37.37-.81.66-1.33.87-.49.21-1.02.32-1.55.32ZM31.93,12.24c-.28,0-.54.11-.74.31l-9.1,9.1c-.2.2-.31.47-.31.76s.11.56.31.76l9.1,9.1c.3.3.76.4,1.14.23.17-.07.29-.15.37-.23.21-.21.32-.48.33-.8l-.02-5.22.02-1.28c.01-.82.68-1.48,1.5-1.48h17.43c.28,0,.55-.11.76-.32.21-.2.32-.48.33-.8h0c-.03-.58-.51-1.05-1.08-1.05h-17.44c-.82,0-1.49-.66-1.5-1.48l-.02-1.26.02-5.29c0-.41-.27-.81-.66-.97-.15-.06-.3-.09-.45-.09Z"/>
  </g>
  <g>
    <path class="cls-2" d="M122.21,22.4c.02-.71.29-1.35.76-1.82s1.11-.75,1.82-.76h17.43s.02-1.25.02-1.25l-.02-5.26c.02-.71.29-1.35.76-1.82.24-.24.53-.42.84-.55.96-.42,2.08-.18,2.8.55l9.1,9.1c1,1,1,2.64,0,3.64l-9.1,9.1c-.73.73-1.84.96-2.8.55-.96-.38-1.58-1.33-1.6-2.37l.02-5.26-.02-1.26h-17.44c-1.42,0-2.58-1.17-2.58-2.59h0Z"/>
    <path class="cls-1" d="M144.84,35.59c-.54,0-1.08-.11-1.6-.33-1.48-.58-2.48-2.05-2.5-3.72l.02-5.04h-15.95c-2.25,0-4.08-1.84-4.08-4.09,0-.04,0-.09,0-.13.05-1.05.47-2.03,1.2-2.75.75-.75,1.76-1.18,2.84-1.2h15.99s-.02-5.01-.02-5.01c.03-1.13.46-2.14,1.2-2.89.37-.37.81-.66,1.33-.87,1.5-.65,3.25-.31,4.44.87l9.1,9.1c1.59,1.59,1.59,4.17,0,5.76l-9.1,9.1c-.78.78-1.81,1.2-2.86,1.2ZM123.71,22.45c.03.57.51,1.04,1.08,1.04h17.44c.82,0,1.49.66,1.5,1.48l.02,1.26-.02,5.29c0,.41.27.81.65.97.43.18.89.09,1.19-.21l9.1-9.1c.42-.42.42-1.1,0-1.52l-9.1-9.1c-.3-.3-.76-.4-1.15-.23-.17.07-.29.15-.37.23-.21.21-.32.48-.33.8l.02,5.22-.02,1.28c-.01.82-.68,1.48-1.5,1.48h-17.43c-.28,0-.55.11-.76.32-.21.21-.32.48-.33.8,0,0,0,0,0,.01Z"/>
  </g>
  <path class="cls-3" d="M89.2,41.45c-11.3,0-20.5-9.2-20.5-20.5S77.9.45,89.2.45s20.5,9.2,20.5,20.5-9.2,20.5-20.5,20.5ZM89.2,6.45c-8,0-14.5,6.5-14.5,14.5s6.5,14.5,14.5,14.5,14.5-6.5,14.5-14.5-6.5-14.5-14.5-14.5Z"/>
  <polygon class="cls-2" points="145.78 199.08 145.99 152.96 155.89 133.92 155.13 70.07 144.77 66.41 136.84 69.92 134.71 55.44 118.4 55.9 113.68 46.91 100.12 47.67 97.38 15.06 83.97 13.54 79.55 28.93 79.55 92.16 74.67 102.37 66.14 101.46 53.49 80.13 39.17 71.75 28.96 74.95 28.5 85.31 43.13 103.59 58.06 134.07 80.46 163.17 80.45 199.04 145.78 199.08"/>
  <path class="cls-1" d="M154.5,66.01c-2.37-2.09-5.52-3.06-8.62-2.66l-.26.04c-2.38.34-4.29.98-5.84,1.73v-2.8c0-3.22-1.39-6.29-3.81-8.42-2.37-2.09-5.51-3.06-8.63-2.66l-.25.03c-2.45.35-4.41,1.02-5.98,1.8-.12-3.06-1.48-5.95-3.78-7.98-2.37-2.09-5.52-3.06-8.62-2.66l-.26.04c-2.38.34-4.3.98-5.85,1.74.04-11.36-.06-21.47-.5-23.71-1.05-5.26-3.45-10.65-13.23-10.65-7.79,0-10.74,7.11-11.21,10.86-.01.09-.02.19-.02.28,0,.34-1.02,34.32,0,53.77.57,10.86-1.2,20.01-3.57,24.16-.04.06-.08.12-.12.19,0,.02-.03.06-.04.08-.64,1.06-1.33,1.76-2.02,2.02-1.4.52-3.78-1.14-6.39-4.44-.46-.58-.87-1.28-1.21-2.06-8-18.37-21.57-26.17-30.29-24.19-5.3,1.21-8.32,5.71-8.09,12.06.08,2.16.97,4.24,2.51,5.85,12.39,13,19.92,29.3,24.43,39.04,1.44,3.11,2.57,5.57,3.56,7.3,4.21,7.37,6.36,10.62,13.87,18.13,5.04,5.04,6.83,7.88,7.36,8.84v33.11h0v4.22h6v-3s0,0,0,0v-35c0-.32-.05-.64-.15-.95-.21-.63-1.62-4.13-8.96-11.47-7.02-7.02-8.9-9.87-12.9-16.87-.86-1.5-1.95-3.86-3.32-6.84-4.66-10.08-12.45-26.94-25.53-40.66-.53-.55-.83-1.24-.86-1.93-.13-3.43,1.03-5.44,3.42-5.99,5.29-1.21,16.41,4.55,23.46,20.73.55,1.26,1.22,2.4,2.01,3.39,3.3,4.18,6.54,6.43,9.66,6.78-1.07,2.97-1.97,6.19-1.97,8.62,0,1.66,1.34,3,3,3s3-1.34,3-3c0-3.23,2.96-10.36,4.83-14.1,0,0,0-.02,0-.02,4.03-7.13,4.72-19.5,4.31-27.32-.97-18.5-.08-50.46,0-53.1.16-.97,1.11-5.5,5.24-5.5,5.58,0,6.56,1.86,7.35,5.82.7,3.52.34,38.09-.06,59.06-.03,1.66,1.29,3.02,2.94,3.06s3.03-1.29,3.06-2.94c.05-2.74.29-15.88.4-29.25.66-.81,2.55-2.58,6.74-3.18l.17-.02c1.42-.18,2.8.25,3.9,1.21,1.13.99,1.77,2.42,1.77,3.92v25.89c0,1.66,1.34,3,3,3s3-1.34,3-3v-18.94c.61-.77,2.49-2.63,6.8-3.25l.17-.02c1.42-.18,2.81.25,3.9,1.21,1.13.99,1.77,2.42,1.77,3.92v25.89c0,1.66,1.34,3,3,3s3-1.34,3-3v-15.77c.71-.84,2.62-2.53,6.69-3.11l.17-.02c1.42-.18,2.8.25,3.9,1.21,1.13.99,1.77,2.42,1.77,3.92v25.86l-.23,27.82c0,2.1-.32,8.17-1.74,11.01-.35.71-.8,1.54-1.3,2.47-2.62,4.88-6.22,11.56-6.22,17.4v35.84h0v4.22h6v-2.99s0,0,0-.01v-37.06c0-4.32,3.31-10.48,5.5-14.56.53-.99,1.01-1.88,1.39-2.63,2.31-4.62,2.38-12.78,2.38-13.67l.23-27.82v-25.89c0-3.22-1.39-6.29-3.81-8.42Z"/>
</svg>