<?xml version="1.0" encoding="UTF-8"?>
<svg id="Ebene_1" xmlns="http://www.w3.org/2000/svg" viewBox="0 0 200 200">
  <defs>
    <style>
      .cls-1 {
        fill: #cfd8e5;
        stroke: #172d4d;
        stroke-linecap: round;
        stroke-linejoin: round;
        stroke-width: 6px;
      }
    </style>
  </defs>
  <path class="cls-1" d="M171.365499877929324,79.465321865460282H50.476150512694403c-1.153369140624818-14.731982421880275,3.903204345702761-29.858850097660252,15.171343994141353-41.126989746099753,19.378002929686772-19.37800292969041,50.168994140622999-20.387011718750728,70.736999511717841-3.028002929690047l.032995605468386-.019006347650247.000012207032341.001000976560135s.076000976561772.091003417969659.21600341796875.229992675779613c.173999023436409.147998046880275.345996093748909.297998046879911.518005371091931.448999023440592,1.019995117188955.776000976559772,2.988000488281614,1.695007324219659,5.155004882813955-.334985351560135l.318005371093022-.318017578129911c.082995605467659-.088989257810681.167004394532341-.179980468750728.25-.277990722650429.483996582031978-.565002441409888.839001464843022-.901989746100298,1.093994140625-1.066003417970023l3.659997558594114-3.659997558599571c.177001953125-.246997070310499.474999999998545-.571008300780704.926000976562136-.98900146483993,3.823999023437864-3.5419921875,0-6.463000488280159,0-6.463000488280159l.034997558594114-.067004394530159C121.173495483397346-1.211680087670175,79.451498413085574-.143674716579881,53.308499145506175,26.000319424049849c-14.216961669922057,14.217504882810317-21.030511474608829,33.993005371090476-19.960504150390079,53.465002441410434h-4.713494873047239c-3.992468261718386,0-7.22900390625,3.236535644529795-7.22900390625,7.228991699210383v100.12600097656923c0,3.992468261720205,3.236535644531614,7.22900390625,7.22900390625,7.22900390625h142.730999755860466c3.992468261718386,0,7.22900390625-3.236535644529795,7.22900390625-7.22900390625v-100.12600097656923c0-3.992456054680588-3.236535644531614-7.228991699210383-7.22900390625-7.228991699210383Z"/>
</svg>