<?xml version="1.0" encoding="UTF-8"?>
<svg id="Ebene_1" xmlns="http://www.w3.org/2000/svg" viewBox="0 0 200 200">
  <defs>
    <style>
      .cls-1 {
        fill: #e9f2fa;
      }

      .cls-1, .cls-2 {
        fill-rule: evenodd;
      }

      .cls-3 {
        fill: none;
      }

      .cls-2 {
        fill: #172d4f;
      }

      .cls-4 {
        fill: #2e3a4d;
      }
    </style>
  </defs>
  <g id="screen_button-icon">
    <rect class="cls-3" y="-.053433569688877" width="200" height="199.999999999989996"/>
    <g id="Fernseher">
      <path class="cls-2" d="M127.579677290969812,176.441316793249825c0-.162824362709216-.131055923349777-.295053602789267-.294146948959678-.295053602789267h-54.571210044229701c-.16282436272013,0-.295053602790176.132229240080051-.295053602790176.295053602789267v14.16518623049069c0,.16282436272013.132229240070046.295053602789267.295053602790176.295053602789267h54.571210044229701c.163091025609901,0,.294146948959678-.132229240069137.294146948959678-.295053602789267v-14.16518623049069Z"/>
      <path class="cls-2" d="M179.626658796710217,188.452035695680024c0-.407606730379484-.327883159449812-.738526568359703-.731629078720289-.738526568359703H21.103671647099873c-.407852157949492,0-.738353044569521.330919837980218-.738353044569521.738526568359703v3.446360432209985c0,.407600798530439.33050088662003.738526568360612.738353044569521.738526568360612h157.791358070890055c.403745919270477,0,.731629078720289-.330925769830174.731629078720289-.738526568360612v-3.446360432209985Z"/>
      <path class="cls-2" d="M198.170510802559875,18.766417128670582c0-5.889500427239909-4.781005859379547-10.67100067138017-10.671020507819776-10.67100067138017H12.501492247870374c-5.889990234380093,0-10.670996093750546,4.781500244140261-10.670996093750546,10.67100067138017v156.453497314460037c0,5.889001464839566,4.781005859370453,10.670996093749636,10.670996093750546,10.670996093749636h174.997998046869725c5.890014648440228,0,10.671020507819776-4.78199462891007,10.671020507819776-10.670996093749636V18.766417128670582Z"/>
      <path class="cls-1" d="M189.876552140970489,21.586054507670269c0-2.656523814470347-2.155423623240495-4.813315020270238-4.811590149210133-4.813315020270238H14.936040914930345c-2.656432295450031,0-4.813201376629877,2.156791205799891-4.813201376629877,4.813315020270238v150.814295781099645c0,2.656523814460343,2.156769081179846,4.813315020260234,4.813201376629877,4.813315020260234h170.128921076830011c2.656166525969638,0,4.811590149210133-2.156791205799891,4.811590149210133-4.813315020260234V21.586054507670269Z"/>
      <g id="Videobutton">
        <circle class="cls-4" cx="100.000595402182626" cy="94.97622864592995" r="46.387319217379165"/>
        <path class="cls-1" d="M128.793565056690568,95.857783215630661l-46.018072483240758,27.577235625249159v-55.154137788569642l46.018072483240758,27.576902163320483Z"/>
      </g>
    </g>
  </g>
</svg>