<?xml version="1.0" encoding="UTF-8"?>
<svg id="Ebene_1" data-name="Ebene 1" xmlns="http://www.w3.org/2000/svg" xmlns:xlink="http://www.w3.org/1999/xlink" viewBox="0 0 2000 2000">
  <defs>
    <style>
      .cls-1 {
        fill: #172d4d;
      }

      .cls-2 {
        fill: #172b4d;
      }

      .cls-2, .cls-3 {
        fill-rule: evenodd;
      }

      .cls-4, .cls-5 {
        fill: none;
      }

      .cls-6 {
        fill: #cfd8e5;
        stroke-width: 48px;
      }

      .cls-6, .cls-7, .cls-8, .cls-5 {
        stroke: #172d4d;
        stroke-miterlimit: 10;
      }

      .cls-7 {
        fill: #e6e6e6;
      }

      .cls-7, .cls-5 {
        stroke-width: 70px;
      }

      .cls-8 {
        fill: #8abee5;
        stroke-width: 34px;
      }

      .cls-9 {
        clip-path: url(#clippath);
      }

      .cls-3 {
        fill: #e9f2fa;
        stroke: #e9f2fa;
        stroke-linejoin: round;
        stroke-width: 33.33px;
      }

      .cls-3, .cls-5 {
        stroke-linecap: round;
      }
    </style>
    <clipPath id="clippath">
      <rect class="cls-4" x="505.72" y="13" width="1004.38" height="1004.38"/>
    </clipPath>
  </defs>
  <rect class="cls-8" x="48" y="574.84" width="1904" height="1379.83" rx="137.35" ry="137.35"/>
  <g>
    <rect class="cls-7" x="126.4" y="430.19" width="1735.6" height="1414.48" rx="137.35" ry="137.35"/>
    <g>
      <line class="cls-5" x1="268.38" y1="646.94" x2="582.62" y2="646.94"/>
      <line class="cls-5" x1="538.14" y1="982.95" x2="852.38" y2="982.95"/>
      <line class="cls-5" x1="268.38" y1="1522.47" x2="582.62" y2="1522.47"/>
      <line class="cls-5" x1="751.36" y1="647.26" x2="854.11" y2="647.26"/>
      <line class="cls-5" x1="276.21" y1="983.28" x2="378.96" y2="983.28"/>
      <line class="cls-5" x1="268.38" y1="814.47" x2="852.38" y2="814.47"/>
      <line class="cls-5" x1="268.38" y1="1149.54" x2="852.38" y2="1149.54"/>
      <line class="cls-5" x1="268.38" y1="1346.42" x2="480.4" y2="1346.42"/>
      <line class="cls-5" x1="636.57" y1="1346.42" x2="844.81" y2="1346.42"/>
      <line class="cls-5" x1="741.8" y1="1518.36" x2="844.55" y2="1518.36"/>
    </g>
    <g>
      <line class="cls-5" x1="1138.8" y1="644.4" x2="1453.04" y2="644.4"/>
      <line class="cls-5" x1="1408.56" y1="980.42" x2="1722.8" y2="980.42"/>
      <line class="cls-5" x1="1138.8" y1="1519.93" x2="1453.04" y2="1519.93"/>
      <line class="cls-5" x1="1621.78" y1="644.72" x2="1724.53" y2="644.72"/>
      <line class="cls-5" x1="1146.63" y1="980.74" x2="1249.38" y2="980.74"/>
      <line class="cls-5" x1="1138.8" y1="811.94" x2="1722.8" y2="811.94"/>
      <line class="cls-5" x1="1138.8" y1="1147" x2="1722.8" y2="1147"/>
      <line class="cls-5" x1="1138.8" y1="1343.88" x2="1350.82" y2="1343.88"/>
      <line class="cls-5" x1="1506.99" y1="1343.88" x2="1715.23" y2="1343.88"/>
      <line class="cls-5" x1="1612.22" y1="1515.82" x2="1714.97" y2="1515.82"/>
    </g>
    <path class="cls-6" d="M943,1854.67H295.2s-159.43-12-165.2-192c0,0,34.63,69,188.28,69h442.21s114.7,0,182.51,123Z"/>
    <path class="cls-6" d="M1037.31,1853.67h647.8s159.43-12,165.2-192c0,0-34.63,69-188.28,69h-442.21s-114.7,0-182.51,123Z"/>
  </g>
  <line class="cls-7" x1="984" y1="1852.67" x2="984" y2="622.46"/>
  <g class="cls-9">
    <g>
      <ellipse class="cls-1" cx="1007.9" cy="515.19" rx="493.96" ry="502.19"/>
      <path class="cls-3" d="M1267.54,359.01l-86.91,15.32-58.22,59.01-32.64,90.23,28.12,34.31s46.92,38.51,62.74,48.71c15.82,10.2,76.87,8.04,76.87,8.04l37.66-22.1,56.75,31.64s18.83,57.92-2.51,75.33c-21.34,17.41-74.83,66.79-74.83,66.79,0,0-43.3,57.09-47.71,66.29-4.4,9.2-14.09,62.54-12.05,71.31,2.03,8.77,66.79,20.09,66.79,20.09l100.44-92.4,100.44-175.51,19.39-147.39-22.4-134.34-79.35-40.93-57.75,31.14-67.29-5.52"/>
      <path class="cls-3" d="M701.57,424.79l-16.07-38.17-23.1-27.12,10.55-55.74,88.39-31.3,44.19-16.74,55.74-45.36,27.12-36.16,43.69-16.57,40.18,3.52,1-60.26-54.24-13.56-30.13-2.01-59.26-14.56-14.06-9.54-24.36,12.55-70.56,46.2-47.71,39.67-45.2,44.19-32.14,51.89-16.91,36.49-19.25,27.62,56.25-11.05,12.05,24.61,11.55,30.13,33.65,41.18v37.66l20.59,23.6,13.06,7.03-5.02-48.21Z"/>
      <path class="cls-3" d="M1221.33,295.23l-9.54,28.62-44.19,8.04-23.6-29.13,48.21-30.3,5.02-16.74.5-19.25,1.51-33.14-5.52-36.16,54.74,8.04,16.57-13.06,11.05-17.07s8.6-7.46,0-10.04-15.43-8.27-30.63-2.51c-15.2,5.76-18.08,8.04-18.08,8.04l-20.59,13.56-19.08-23.6,19.08-16.07,22.1-11.55,24.61-16.07,80.85,60.26,31.64,38.17,30.13,31.64,31.14,38.84h-26.11l-39.17-8.2-19.59-16.57-26.62,2.51s3.26,4.6,8.04,12.05c4.77,7.46,18.58,18.58,18.58,18.58v8.37h13.56l-24.61,12.72s-.07,4.04-8.54,5.52-12.05-9.54-12.05-9.54l-.5-14.06-8.04-11.38-9.04-12.72-18.58,12.72h-17.58l-1.51,16.74-24.11,18.75-10.04,4.02Z"/>
      <path class="cls-3" d="M999.37,74.77l34.15,23.1,25.11,1,42.18-5.02,4.02-13.56.5-21.59-19.59-18.08-19.59-11.05h-47.21l-48.21-1-4.02,18.58,32.64,27.62Z"/>
      <path class="cls-3" d="M952.16,656.05l-93.41-73.07-18.58-96.92-167.23.5-45.2,124.04,127.56,164.05,65.28,183.46,134.08-183.46-2.51-118.6"/>
      <path class="cls-2" d="M1007.9,13c-277.17,0-502.19,225.02-502.19,502.19s225.02,502.19,502.19,502.19,502.19-225.03,502.19-502.19S1285.07,13,1007.9,13ZM1007.9,49.14c257.22,0,466.05,208.83,466.05,466.05s-208.83,466.05-466.05,466.05-466.05-208.83-466.05-466.05S750.68,49.14,1007.9,49.14Z"/>
    </g>
  </g>
</svg>