<?xml version="1.0" encoding="UTF-8"?>
<svg id="Ebene_1" xmlns="http://www.w3.org/2000/svg" xmlns:xlink="http://www.w3.org/1999/xlink" viewBox="0 0 200 200">
  <defs>
    <style>
      .cls-1 {
        fill: #172d4d;
      }

      .cls-2 {
        fill: #172b4d;
      }

      .cls-2, .cls-3 {
        fill-rule: evenodd;
      }

      .cls-4 {
        fill: none;
      }

      .cls-3 {
        fill: #e9f2fa;
        stroke: #e9f2fa;
        stroke-linecap: round;
        stroke-linejoin: round;
        stroke-width: 3.33300018310547px;
      }

      .cls-5 {
        clip-path: url(#clippath);
      }
    </style>
    <clipPath id="clippath">
      <rect class="cls-4" x="1.628738000210433" y="1.803961980659551" width="196.742523999579134" height="196.742523999590048"/>
    </clipPath>
  </defs>
  <g class="cls-5">
    <g>
      <ellipse class="cls-1" cx="99.999720464857546" cy="100.175551697697301" rx="96.758720013961494" ry="98.37163767473298"/>
      <path class="cls-3" d="M150.857942453889336,69.581761498519882l-17.025109030689237,3.000323490990013-11.404185687249992,11.558623284980058-6.394132029980028,17.674362962349733,5.508790671980023,6.721710013600386s9.191804957319619,7.544086318819609,12.289527045249997,9.542012413980046c3.098694753000018,1.997926095149523,15.057683790700139,1.573940191990005,15.057683790700139,1.573940191990005l7.377844649980034-4.328335527990021,11.115952605980056,6.197389505990031s3.687937651709944,11.345153323479281-.491856310000003,14.755689299969163-14.657318037970981,13.083377845970062-14.657318037970981,13.083377845970062c0,0-8.48255200092899,11.18382301282054-9.345269889980045,12.985006583970062-.862717889049236,1.801183571160436-2.75931870237946,12.250176138810275-2.360910288000014,13.968719203970068.39840841439036,1.718543065169797,13.083377845980067,3.934850480000023,13.083377845980067,3.934850480000023l19.674252399960096-18.100312207970092,19.674252399951001-34.380756068920164,3.798112984829459-28.871965396939231-4.388340556820367-26.31431258495013-15.542659395969167-8.017257852980038-11.312695129980057,6.099018243990031-13.181749107970973-1.082083882000006"/>
      <path class="cls-3" d="M39.99353018013062,82.468396820489943l-3.147880384000018-7.476215911980034-4.525078051990931-5.312048147990026,2.065796502000012-10.919210081980054,17.313342111960083-6.131776642760087,8.656671055980041-3.279106110449902,10.919210081980054-8.886171978750099,5.312048147990026-7.082730863990037,8.558299793980041-3.246251645990014,7.869700959980037.688598834000004.196742524000001-11.804551439970055-10.624096295970048-2.656024074000015-5.90227571999003-.393485048000002-11.607808915980058-2.852766597990012-2.754395335990012-1.869053978000011-4.771006206990023,2.459281550000014-13.821162310970067,9.050156103980044-9.345269889980045,7.771329697980036-8.853413579980042,8.656671055980041-6.295760767989123,10.164998384750106-3.311866010250014,7.148343727219981-3.770864853740932,5.410419409980022,11.017581343980055-2.164167763990008,2.360910288000014,4.820191837990023,2.262539025990918,5.90227571999003,6.590874553989124,8.066443483980038v7.377844649980034l4.033221741990928,4.623449314000027,2.557652811989101,1.377197667990004-.983712619989092-9.443641151980046Z"/>
      <path class="cls-3" d="M141.807786349909293,57.088611224539818l-1.869053977989097,5.607161933990028-8.656671055990046,1.573940192000009-4.623449313990022-5.705533195990029,9.443641151980046-5.935034118760086.983712620000006-3.279106110449902.098371262000001-3.770866354760074.295113786000002-6.492503291990033-1.082083882000006-7.082730863980032,10.722467557980053,1.573940191990005,3.246251645989105-2.55765281199001,2.164167764000013-3.344622907990015s1.685100198380496-1.461600378909679,0-1.967425240000011c-1.685100198389591-.505824861090332-3.022946959939873-1.620863776310216-6.000646981989121-.491856310000003-2.977700022050158,1.129007466310213-3.541365431990926,1.573940192000009-3.541365431990926,1.573940192000009l-4.033221741989109,2.656024073990011-3.738107955990927-4.623449313990022,3.738107955990927-3.147880383990014,4.328335527989111-2.262539026000013,4.820191837990933-3.147880383990014,15.837773181969169,11.80455143998006,6.197389505980027,7.476215911980034,5.902275719990939,6.197389505990031,6.099018243989121,7.607345572750091h-5.115305623989116l-7.67295843599095-1.606698590770065-3.836479217989108-3.246251645990014-5.213676885990935.491856310000003s.639413203000004.900294582359493,1.573940192000009,2.360910288000014c.934526989000005,1.460615705629607,3.639736693990926,3.639736693990017,3.639736693990926,3.639736693990017v1.639553055219949h2.656024074000015l-4.820191837990933,2.492039948770071s-.013773417669654.79080671931024-1.67231145400001,1.082083882000006c-1.658538036329446.291277162679762-2.360910288000014-1.869053978000011-2.360910288000014-1.869053978000011l-.098371262000001-2.754395335990012-1.573940191989095-2.229780627229957-1.77068271600001-2.492039948760066-3.639736693990926,2.492039948760066h-3.442994169989106l-.295113786000002,3.279106110449902-4.721820575990932,3.672495092770077-1.967425240000011.78697009599Z"/>
      <path class="cls-3" d="M98.32768854599999,13.903627206639612l6.689245815990034,4.525078051990022,4.918563099990024.196742524000001,8.263186007980039-.983712620000006.786970096000005-2.656024074000015.098371262000001-4.22996426599002-3.836479217990018-3.541365431990016-3.836479217990018-2.164167764000013h-9.246898627980045l-9.443641151980046-.196742524000001-.786970096000005,3.639736694000021,6.394132029980028,5.410419409990027Z"/>
      <path class="cls-3" d="M89.080789918019946,127.768362971399256l-18.297054731960088-14.31301862096916-3.639736693990017-18.985653565960092-32.757630245930159.098371262000001-8.853413579980042,24.297701713940114,24.986300547940118,32.134944480430022,12.788264059980065,35.937968823429401,26.265126953940126-35.937968823429401-.491856310000003-23.232345269440884"/>
      <path class="cls-2" d="M100,1.803961980659551C45.70742409281047,1.803961980659551,1.628738000210433,45.882648073259588,1.628738000210433,100.175223980450028c0,54.29208657261006,44.078686092600037,98.371261999799572,98.371261999789567,98.371261999799572,54.292086572600056,0,98.371261999789567-44.079175427189512,98.371261999789567-98.371261999799572C198.371261999789567,45.882648073259588,154.292086572600056,1.803961980659551,100,1.803961980659551ZM100,8.882659586879527c50.38575559300989,0,91.29246982891982,40.906802796460397,91.29246982891982,91.292564393570501,0,50.385755593019894-40.906714235909931,91.29246982891982-91.29246982891982,91.29246982891982-50.385761597120108,0-91.292564393570501-40.906714235899926-91.292564393570501-91.29246982891982C8.707435606429499,49.789462383339924,49.614238402879892,8.882659586879527,100,8.882659586879527Z"/>
    </g>
  </g>
</svg>