<?xml version="1.0" encoding="UTF-8"?>
<svg id="Ebene_1" xmlns="http://www.w3.org/2000/svg" xmlns:xlink="http://www.w3.org/1999/xlink" viewBox="0 0 200 200">
  <defs>
    <style>
      .cls-1 {
        fill: #172d4d;
      }

      .cls-2 {
        fill: #fff;
      }

      .cls-3 {
        fill: #172b4d;
      }

      .cls-3, .cls-4 {
        fill-rule: evenodd;
      }

      .cls-4 {
        fill: #cfd8e5;
      }

      .cls-5 {
        fill: none;
      }

      .cls-6 {
        clip-path: url(#clippath);
      }
    </style>
    <clipPath id="clippath">
      <rect class="cls-5" x="1.628738000206795" y="2.919011710650011" width="196.742523999585501" height="196.742523999590048"/>
    </clipPath>
  </defs>
  <rect id="lernwelt-icon" class="cls-5" y="-.038464289760213" width="199.999999999999091" height="199.999999999989996"/>
  <g class="cls-6">
    <ellipse class="cls-1" cx="99.999720464855045" cy="101.290601427683214" rx="96.758720013964904" ry="98.371637674737499"/>
    <path class="cls-4" d="M150.857942453893884,70.696811228510342l-17.025109030693784,3.000323490990013-11.404185687248173,11.558623284980058-6.394132029985485,17.674362962349733,5.508790671987299,6.721710013590382s9.191804957319619,7.544086318829613,12.289527045246359,9.542012413980046c3.098694752994561,1.997926095159528,15.057683790697411,1.573940192000009,15.057683790697411,1.573940192000009l7.377844649982762-4.328335527990021,11.115952605977327,6.197389505990031s3.687937651715401,11.345153323479281-.491856309998184,14.755689299970072c-4.179793961715404,3.410535976479878-14.657318037968253,13.083377845969153-14.657318037968253,13.083377845969153,0,0-8.48255200092899,11.183823012810535-9.345269889982774,12.985006583970062-.862717889051055,1.801183571160436-2.759318702377641,12.250176138810275-2.360910287994557,13.968719203970068s13.083377845972791,3.934850479990018,13.083377845972791,3.934850479990018l19.674252399958277-18.100312207960087,19.674252399957368-34.380756068929259,3.79811298482764-28.871965396940141-4.388340556824915-26.314312584940126-15.542659395967348-8.017257852980038-11.312695129977328,6.099018243980026-13.181749107971882-1.082083881990002"/>
    <path class="cls-4" d="M39.993530180126072,83.583446550480403l-3.147880383992742-7.476215911980034-4.525078051990931-5.312048147990026,2.065796501995464-10.919210081980054,17.31334211196463-6.131776642760087,8.656671055980041-3.279106110449902,10.919210081977326-8.886171978750099,5.312048147989117-7.082730863990037,8.55829979398186-3.246251645990014,7.869700959982765.688598834000004.196742524000001-11.80455143998006-10.624096295978234-2.656024073990011-5.902275719986392-.393485048000002-11.607808915975511-2.852766597990012-2.754395335994559-1.869053978000011-4.771006206990023,2.45928154999001-13.821162310970976,9.050156103990048-9.345269889980045,7.771329697980036-8.853413579981861,8.656671055980041-6.295760767986394,10.164998384750106-3.311866010248195,7.148343727209976-3.770864853736384,5.410419409990027,11.017581343977326-2.164167763990008,2.360910287993647,4.820191837990023,2.262539025995466,5.902275719980025,6.590874553986396,8.066443483990042v7.377844649980034l4.033221741990928,4.623449313990022,2.557652811994558,1.377197668000008-.983712619997277-9.443641151980046Z"/>
    <path class="cls-4" d="M141.807786349912021,58.203660954530278l-1.869053977996373,5.607161933990028-8.65667105598186,1.573940192000009-4.623449313989113-5.705533195990029,9.443641151978227-5.935034118760086.983712619998187-3.279106110449902.098371262000001-3.770866354760074.295113786000002-6.492503291990033-1.082083881998187-7.082730863980032,10.722467557978234,1.573940191990005,3.246251645992743-2.55765281199001,2.164167763994556-3.344622907990015s1.685100198385044-1.461600378909679,0-1.967425240000011-3.022946959939873-1.620863776310216-6.000646981987302-.491856310000003-3.541365431992745,1.573940192000009-3.541365431992745,1.573940192000009l-4.033221741990928,2.656024073990011-3.738107955990927-4.623449313990022,3.738107955990927-3.147880383990014,4.32833552799093-2.262539026000013,4.820191837989114-3.147880383990014,15.83777318196735,11.804551439970055,6.197389505986393,7.476215911990039,5.902275719988211,6.197389505990031,6.099018243987302,7.607345572750091h-5.115305623989116l-7.672958435983674-1.606698590770065-3.836479217993656-3.246251645990014-5.213676885988207.491856310000003s.639413202998185.900294582360402,1.57394019199819,2.360910287990009c.934526988996367,1.460615705629607,3.639736693990017,3.639736694000021,3.639736693990017,3.639736694000021v1.639553055219949h2.656024073995468l-4.820191837990933,2.492039948770071s-.013773417664197.79080671931024-1.672311453994553,1.082083881990002c-1.658538036330356.291277162689767-2.360910287994557-1.869053977990006-2.360910287994557-1.869053977990006l-.098371262000001-2.754395336000016-1.57394019199819-2.229780627219952-1.770682715994553-2.492039948770071-3.639736693991836,2.492039948770071h-3.442994169993653l-.295113786000002,3.279106110449902-4.721820575989113,3.672495092760073-1.967425239996373.786970096000005Z"/>
    <path class="cls-4" d="M98.327688546002719,15.018676936620068l6.689245815984577,4.525078051990022,4.918563099990024.196742524000001,8.263186007983677-.983712619990001.786970095997276-2.656024074000015.098371262000001-4.22996426599002-3.836479217989108-3.541365431990016-3.836479217993656-2.164167764000013h-9.246898627980045l-9.443641151980046-.196742524000001-.786970095999095,3.639736694000021,6.394132029986395,5.410419409980022Z"/>
    <path class="cls-4" d="M89.080789918022674,128.883412701380621l-18.297054731961907-14.31301862097007-3.639736693991836-18.985653565960092-32.757630245931068.098371262000001-8.853413579981861,24.297701713950119,24.986300547949213,32.134944480430022,12.78826405997188,35.937968823429401,26.265126953944673-35.937968823429401-.491856309999093-23.232345269449979"/>
    <path class="cls-3" d="M100,2.919011710650011C45.707424092808651,2.919011710650011,1.628738000206795,46.997697803250048,1.628738000206795,101.290273710440488c0,54.29208657261006,44.078686092601856,98.371261999799572,98.371261999793205,98.371261999799572,54.292086572603694,0,98.371261999792296-44.079175427189512,98.371261999792296-98.371261999799572,0-54.292575907190439-44.079175427188602-98.371261999790477-98.371261999792296-98.371261999790477ZM100,9.997709316869987c50.38575559300898,0,91.292469828914363,40.906802796460397,91.292469828914363,91.292564393570501,0,50.38575559300989-40.906714235905383,91.29246982891982-91.292469828914363,91.29246982891982-50.385761597114652,0-91.292564393575049-40.906714235909931-91.292564393575049-91.29246982891982C8.707435606424951,50.904512113330384,49.614238402885348,9.997709316869987,100,9.997709316869987Z"/>
  </g>
  <g>
    <path d="M32.6259702954967,77.464031241900557l9.521484375,29.677734375,9.4921875-29.677734375h13.53515625v42.65625h-10.3125v-9.9609375l.99609375-20.390625-10.3125,30.3515625h-6.796875l-10.341796875-30.380859375.99609375,20.419921875v9.9609375h-10.283203125v-42.65625h13.505859375Z"/>
    <path d="M92.230853107997063,120.706218741900557c-4.86328125,0-8.799121093750728-1.4501953125-11.806640625-4.3505859375-3.008007812500182-2.900390625-4.51171875-6.674609375000728-4.51171875-11.3232421875v-.8203125c0-3.241894531250182.6005859375-6.103369140630093,1.8017578125-8.583984375,1.201171875-2.480175781250182,2.953906249999818-4.399121093750182,5.2587890625-5.7568359375,2.304394531249272-1.357275390630093,5.0390625-2.0361328125,8.203125-2.0361328125,4.453125,0,7.96875,1.381982421869907,10.546875,4.1455078125,2.578125,2.763964843749818,3.8671875,6.616503906249818,3.8671875,11.5576171875v3.837890625h-19.62890625c.3515625,1.777539062499272,1.122851562499818,3.174121093749818,2.314453125,4.189453125,1.191113281249272,1.015820312499272,2.734179687499818,1.5234375,4.62890625,1.5234375,3.124707031249272,0,5.56640625-1.093554687500728,7.32421875-3.28125l4.51171875,5.33203125c-1.23046875,1.69921875-2.9736328125,3.051953124999272-5.2294921875,4.0576171875-2.255859375,1.005761718749454-4.682910156250728,1.5087890625-7.2802734375,1.5087890625ZM91.117571857997063,95.452312491900557c-2.890820312500182,0-4.609667968750728,1.914355468749818-5.15625,5.7421875h9.9609375v-.76171875c.038867187499818-1.58203125-.361621093750728-2.807470703130093-1.201171875-3.6767578125-.840039062500182-.868847656250182-2.041210937500182-1.3037109375-3.603515625-1.3037109375Z"/>
    <path d="M124.267278889247791,88.421062491900557l.322265625,3.720703125c2.187207031249272-2.87109375,5.204785156249272-4.306640625,9.052734375-4.306640625,3.300488281249272,0,5.766406249998909.986474609369907,7.3974609375,2.958984375,1.630566406249272,1.972949218749818,2.4755859375,4.941552734369907,2.5341796875,8.90625v20.419921875h-9.90234375v-20.009765625c0-1.601269531250182-.322265625-2.778173828130093-.966796875-3.5302734375-.64453125-.751660156250182-1.81640625-1.1279296875-3.515625-1.1279296875-1.93359375,0-3.369140625.76171875-4.306640625,2.28515625v22.3828125h-9.873046875v-31.69921875h9.2578125Z"/>
    <path d="M173.559661701746336,116.692546866900557c-2.090136718748909,2.676074218749818-4.912304687499272,4.013671875-8.466796875,4.013671875-3.476757812499272,0-6.1083984375-1.0107421875-7.8955078125-3.0322265625s-2.6806640625-4.926464843750182-2.6806640625-8.7158203125v-20.537109375h9.873046875v20.595703125c0,2.715039062499272,1.318359375,4.072265625,3.955078125,4.072265625,2.265429687500728,0,3.876757812500728-.810253906250182,4.833984375-2.431640625v-22.236328125h9.931640625v31.69921875h-9.2578125l-.29296875-3.427734375ZM156.713958576746336,80.130046866900557c0-1.073925781250182.4248046875-1.9921875,1.2744140625-2.75390625s1.899218750000728-1.142578125,3.1494140625-1.142578125c1.249707031251091,0,2.2998046875.380859375,3.1494140625,1.142578125s1.2744140625,1.679980468749818,1.2744140625,2.75390625c0,1.074365234369907-.4248046875,1.9921875-1.2744140625,2.75390625s-1.899707031248909,1.142578125-3.1494140625,1.142578125c-1.250195312499272,0-2.2998046875-.380859375-3.1494140625-1.142578125s-1.2744140625-1.679541015630093-1.2744140625-2.75390625ZM171.919036701746336,80.130046866900557c0-1.073925781250182.4248046875-1.9921875,1.2744140625-2.75390625s1.899218750000728-1.142578125,3.1494140625-1.142578125c1.249707031251091,0,2.2998046875.380859375,3.1494140625,1.142578125s1.2744140625,1.679980468749818,1.2744140625,2.75390625c0,1.074365234369907-.4248046875,1.9921875-1.2744140625,2.75390625s-1.899707031248909,1.142578125-3.1494140625,1.142578125c-1.250195312499272,0-2.2998046875-.380859375-3.1494140625-1.142578125s-1.2744140625-1.679541015630093-1.2744140625-2.75390625Z"/>
  </g>
  <g>
    <path class="cls-2" d="M30.949798420496336,76.072722648150375l9.521484375,29.677734375,9.4921875-29.677734375h13.53515625v42.65625h-10.3125v-9.9609375l.99609375-20.390625-10.3125,30.3515625h-6.796875l-10.341796875-30.380859375.99609375,20.419921875v9.9609375h-10.283203125v-42.65625h13.505859375Z"/>
    <path class="cls-2" d="M90.5546812329967,119.314910148150375c-4.86328125,0-8.799121093749818-1.4501953125-11.806640625-4.3505859375-3.008007812499272-2.900390625-4.51171875-6.674707031250364-4.51171875-11.3232421875v-.8203125c0-3.241894531250182.6005859375-6.103369140630093,1.8017578125-8.583984375,1.201171875-2.480175781250182,2.953906250000728-4.399121093750182,5.2587890625-5.7568359375,2.304394531250182-1.357275390630093,5.0390625-2.0361328125,8.203125-2.0361328125,4.453125,0,7.96875,1.381982421869907,10.546875,4.1455078125,2.578125,2.763964843749818,3.8671875,6.616503906249818,3.8671875,11.5576171875v3.837890625h-19.62890625c.3515625,1.777441406249636,1.122851562500728,3.174121093749818,2.314453125,4.189453125,1.191113281250182,1.015722656249636,2.734179687500728,1.5234375,4.62890625,1.5234375,3.124707031250182,0,5.56640625-1.093652343750364,7.32421875-3.28125l4.51171875,5.33203125c-1.23046875,1.69921875-2.9736328125,3.051855468749636-5.2294921875,4.0576171875-2.255859375,1.005664062499818-4.682910156249818,1.5087890625-7.2802734375,1.5087890625ZM89.4413999829967,94.061003898150375c-2.890820312499272,0-4.609667968749818,1.914355468749818-5.15625,5.7421875h9.9609375v-.76171875c.038867187500728-1.58203125-.361621093749818-2.807470703130093-1.201171875-3.6767578125-.840039062499272-.868847656250182-2.041210937499272-1.3037109375-3.603515625-1.3037109375Z"/>
    <path class="cls-2" d="M122.591107014247427,87.029753898150375l.322265625,3.720703125c2.187207031249272-2.87109375,5.204785156249272-4.306640625,9.052734375-4.306640625,3.300488281249272,0,5.766406249998909.986474609369907,7.3974609375,2.958984375,1.630566406249272,1.972949218749818,2.4755859375,4.941552734369907,2.5341796875,8.90625v20.419921875h-9.90234375v-20.009765625c0-1.601269531250182-.322265625-2.778173828130093-.966796875-3.5302734375-.64453125-.751660156250182-1.81640625-1.1279296875-3.515625-1.1279296875-1.93359375,0-3.369140625.76171875-4.306640625,2.28515625v22.3828125h-9.873046875v-31.69921875h9.2578125Z"/>
    <path class="cls-2" d="M171.883489826747791,115.301238273150375c-2.090136718750728,2.676074218749818-4.912304687501091,4.013671875-8.466796875,4.013671875-3.476757812501091,0-6.1083984375-1.0107421875-7.8955078125-3.0322265625s-2.6806640625-4.926464843750182-2.6806640625-8.7158203125v-20.537109375h9.873046875v20.595703125c0,2.714941406249636,1.318359375,4.072265625,3.955078125,4.072265625,2.265429687498909,0,3.876757812498909-.810253906250182,4.833984375-2.431640625v-22.236328125h9.931640625v31.69921875h-9.2578125l-.29296875-3.427734375ZM155.037786701747791,78.738738273150375c0-1.073925781250182.4248046875-1.9921875,1.2744140625-2.75390625s1.899218749998909-1.142578125,3.1494140625-1.142578125c1.249707031249272,0,2.2998046875.380859375,3.1494140625,1.142578125s1.2744140625,1.679980468749818,1.2744140625,2.75390625c0,1.074365234369907-.4248046875,1.9921875-1.2744140625,2.75390625s-1.899707031250728,1.142578125-3.1494140625,1.142578125c-1.250195312501091,0-2.2998046875-.380859375-3.1494140625-1.142578125s-1.2744140625-1.679541015630093-1.2744140625-2.75390625ZM170.242864826747791,78.738738273150375c0-1.073925781250182.4248046875-1.9921875,1.2744140625-2.75390625s1.899218749998909-1.142578125,3.1494140625-1.142578125c1.249707031249272,0,2.2998046875.380859375,3.1494140625,1.142578125s1.2744140625,1.679980468749818,1.2744140625,2.75390625c0,1.074365234369907-.4248046875,1.9921875-1.2744140625,2.75390625s-1.899707031250728,1.142578125-3.1494140625,1.142578125c-1.250195312501091,0-2.2998046875-.380859375-3.1494140625-1.142578125s-1.2744140625-1.679541015630093-1.2744140625-2.75390625Z"/>
  </g>
  <rect id="lernwelt-icon-2" data-name="lernwelt-icon" class="cls-5" x="160.424630874233117" y="-2.985351417364654" width="191.493000692531496" height="191.493000692533315"/>
  <rect id="lernwelt-icon-3" data-name="lernwelt-icon" class="cls-5" x="160.424630874233117" y="-6.085714285714403" width="191.493000692531496" height="191.493000692532405"/>
</svg>