<?xml version="1.0" encoding="UTF-8"?>
<svg id="Ebene_1" data-name="Ebene 1" xmlns="http://www.w3.org/2000/svg" viewBox="0 0 2000 2000">
  <defs>
    <style>
      .cls-1 {
        fill: #172d4d;
        stroke: #cfd8e5;
        stroke-miterlimit: 10;
        stroke-width: 30px;
      }
    </style>
  </defs>
  <polygon class="cls-1" points="1703.64 1881.07 104.34 1881.07 48.92 1737.18 1759.06 1737.18 1703.64 1881.07"/>
  <path class="cls-1" d="m1950.96,1087.1v-309.79c0-24.19-19.61-43.81-43.81-43.81h-325.59v-113.22H226.42v820.55c0,163.67,132.68,296.35,296.35,296.35h762.44c163.67,0,296.35-132.68,296.35-296.35v-134.47h178.89c202.18,0,190.5-219.26,190.5-219.26Zm-203.5,109.91h-160.07v-354.33h277.9v218.71s7.23,135.62-117.83,135.62Z"/>
  <path class="cls-1" d="m667.57,138.98c-11.72.08-23.45.18-35.16.75-14.66.71-29.27,2.29-43.75,4.68-11.4,1.88-22.68,4.65-33.5,8.73-12.47,4.7-24.75,10.07-35.62,17.85-10.39,7.44-20.36,15.53-28.42,25.5-4.83,5.97-9.66,12.09-13.6,18.71-3.96,6.67-6.95,13.89-9.77,21.09-1.72,4.38-3.05,8.92-3.92,13.54-1.42,7.51-2.57,15.31-2.47,23,.03,2.45.21,4.9.51,7.33.68,5.49,1.28,11.12,2.57,16.54,1.93,8.09,5.35,15.91,8.83,23.4,5.81,12.52,14.39,23.45,22.9,34.21,6.86,8.67,14.3,16.85,21.33,25.38,1.75,2.12,3.47,4.27,5.15,6.44-1.84-2.39-3.69-4.77-5.53-7.16,6.63,8.59,12.68,17.69,16.94,27.7l-3.57-8.45c2.35,5.61,4.18,11.46,5.01,17.5l-1.26-9.41c.66,5.04.65,10.14,0,15.18.42-3.14.84-6.27,1.26-9.41-.68,5.01-1.97,9.9-3.93,14.56,1.19-2.82,2.38-5.63,3.57-8.45-1.54,3.59-3.47,6.98-5.83,10.09l5.53-7.16c-2.04,2.63-4.35,5-6.98,7.05,2.39-1.84,4.77-3.69,7.16-5.53-2.36,1.8-4.91,3.3-7.64,4.46l8.45-3.57c-1.05.43-2.12.82-3.21,1.16-4.6,1.09-8.62,3.21-12.03,6.33-3.85,2.49-6.89,5.8-9.11,9.93-2.59,4.06-3.99,8.45-4.2,13.16-1.05,4.7-.84,9.41.63,14.11l3.57,8.45c3.15,5.32,7.38,9.55,12.69,12.69,2.82,1.19,5.63,2.38,8.45,3.57,6.27,1.69,12.54,1.69,18.81,0,1.09-.34,2.15-.73,3.21-1.16,3.73-1.52,7.57-2.95,11.15-4.84,4.51-2.38,8.68-5.95,12.54-9.06,1.72-1.39,3.32-2.91,4.78-4.57,2.6-2.95,4.93-6.17,7.3-9.31.71-.94,1.4-1.91,2.04-2.9,1.23-1.91,2.31-3.91,3.26-5.97,2.18-4.77,4.39-9.69,5.96-14.73.69-2.23,1.24-4.5,1.66-6.8.95-5.29,1.72-10.64,2.06-16.01.15-2.34.16-4.69.03-7.03-.31-5.34-1.09-10.69-2.03-15.95-1.51-8.44-5.04-16.29-8.41-24.11-5.89-13.64-15.1-25.43-24.29-36.97-8.44-10.61-17.71-20.53-26.02-31.24l5.53,7.16c-6.65-8.61-12.72-17.73-17.02-27.76l3.57,8.45c-2.56-6.08-4.43-12.42-5.32-18.97.42,3.14.84,6.27,1.26,9.41-.76-5.84-.73-11.73.03-17.57l-1.26,9.41c.91-6.66,2.75-13.13,5.35-19.32l-3.57,8.45c3.08-7.25,7.15-14.03,11.95-20.28-1.84,2.39-3.69,4.77-5.53,7.16,5.65-7.3,12.25-13.82,19.54-19.48l-7.16,5.53c7.78-5.99,16.27-10.83,25.31-14.65-2.82,1.19-5.63,2.38-8.45,3.57,14.48-6.07,29.82-9.66,45.34-11.77-3.14.42-6.27.84-9.41,1.26,20.8-2.78,41.81-3.01,62.76-3.15,4.87.18,9.42-.83,13.63-3.05,4.39-1.43,8.18-3.87,11.39-7.32,3.45-3.2,5.89-7,7.32-11.39,2.22-4.22,3.23-8.76,3.05-13.63l-1.26-9.41c-1.68-5.99-4.71-11.2-9.1-15.61-2.39-1.84-4.77-3.69-7.16-5.53-5.52-3.2-11.47-4.81-17.86-4.83h0Z"/>
  <path class="cls-1" d="m1055.6,215.64c-11.72.08-23.45.18-35.16.75-14.66.71-29.27,2.29-43.75,4.68-11.4,1.88-22.68,4.65-33.5,8.73-12.47,4.7-24.75,10.07-35.62,17.85s-20.36,15.53-28.42,25.5c-4.83,5.97-9.66,12.09-13.6,18.71-3.96,6.67-6.95,13.89-9.77,21.09-1.72,4.38-3.05,8.92-3.92,13.54-1.42,7.51-2.57,15.31-2.47,23,.03,2.45.21,4.9.51,7.33.68,5.49,1.28,11.12,2.57,16.54,1.93,8.09,5.35,15.91,8.83,23.4,5.81,12.52,14.39,23.45,22.9,34.21,6.86,8.67,14.3,16.85,21.33,25.38,1.75,2.12,3.47,4.27,5.15,6.44-1.84-2.39-3.69-4.77-5.53-7.16,6.63,8.59,12.68,17.69,16.94,27.7-1.19-2.82-2.38-5.63-3.57-8.45,2.35,5.61,4.18,11.46,5.01,17.5-.42-3.14-.84-6.27-1.26-9.41.66,5.04.65,10.14,0,15.18l1.26-9.41c-.68,5.01-1.97,9.9-3.93,14.56,1.19-2.82,2.38-5.63,3.57-8.45-1.54,3.59-3.47,6.98-5.83,10.09,1.84-2.39,3.69-4.77,5.53-7.16-2.04,2.63-4.35,5-6.98,7.05,2.39-1.84,4.77-3.69,7.16-5.53-2.36,1.8-4.91,3.3-7.64,4.46,2.82-1.19,5.63-2.38,8.45-3.57-1.05.43-2.12.82-3.21,1.16-4.6,1.09-8.62,3.21-12.03,6.33-3.85,2.49-6.89,5.8-9.11,9.93-2.59,4.06-3.99,8.45-4.2,13.16-1.05,4.7-.84,9.41.63,14.11l3.57,8.45c3.15,5.32,7.38,9.55,12.69,12.69l8.45,3.57c6.27,1.69,12.54,1.69,18.81,0,1.09-.34,2.15-.73,3.21-1.16,3.73-1.52,7.57-2.95,11.15-4.84,4.51-2.38,8.68-5.95,12.54-9.06,1.72-1.39,3.32-2.91,4.78-4.57,2.6-2.95,4.93-6.17,7.3-9.31.71-.94,1.4-1.91,2.04-2.9,1.23-1.91,2.31-3.91,3.26-5.97,2.18-4.77,4.39-9.69,5.96-14.73.69-2.23,1.24-4.5,1.66-6.8.95-5.29,1.72-10.64,2.06-16.01.15-2.34.16-4.69.03-7.03-.31-5.34-1.09-10.69-2.03-15.95-1.51-8.44-5.04-16.29-8.41-24.11-5.89-13.64-15.1-25.43-24.29-36.97-8.44-10.61-17.71-20.53-26.02-31.24l5.53,7.16c-6.65-8.61-12.72-17.73-17.02-27.76,1.19,2.82,2.38,5.63,3.57,8.45-2.56-6.08-4.43-12.42-5.32-18.97l1.26,9.41c-.76-5.84-.73-11.73.03-17.57l-1.26,9.41c.91-6.66,2.75-13.13,5.35-19.32l-3.57,8.45c3.08-7.25,7.15-14.03,11.95-20.28l-5.53,7.16c5.65-7.3,12.25-13.82,19.54-19.48-2.39,1.84-4.77,3.69-7.16,5.53,7.78-5.99,16.27-10.83,25.31-14.65-2.82,1.19-5.63,2.38-8.45,3.57,14.48-6.07,29.82-9.66,45.34-11.77l-9.41,1.26c20.8-2.78,41.81-3.01,62.76-3.15,4.87.18,9.42-.83,13.63-3.05,4.39-1.43,8.18-3.87,11.39-7.32,3.45-3.2,5.89-7,7.32-11.39,2.22-4.22,3.23-8.76,3.05-13.63-.42-3.14-.84-6.27-1.26-9.41-1.68-5.99-4.71-11.2-9.1-15.61l-7.16-5.53c-5.52-3.2-11.47-4.81-17.86-4.83h0Z"/>
  <path class="cls-1" d="m1407.06,118.93c-11.72.08-23.45.18-35.16.75-14.66.71-29.27,2.29-43.75,4.68-11.4,1.88-22.68,4.65-33.5,8.73-12.47,4.7-24.75,10.07-35.62,17.85s-20.36,15.53-28.42,25.5c-4.83,5.97-9.66,12.09-13.6,18.71s-6.95,13.89-9.77,21.09c-1.72,4.38-3.05,8.92-3.92,13.54-1.42,7.51-2.57,15.31-2.47,23,.03,2.45.21,4.9.51,7.33.68,5.49,1.28,11.12,2.57,16.54,1.93,8.09,5.35,15.91,8.83,23.4,5.81,12.52,14.39,23.45,22.9,34.21,6.86,8.67,14.3,16.85,21.33,25.38,1.75,2.12,3.47,4.27,5.15,6.44l-5.53-7.16c6.63,8.59,12.68,17.69,16.94,27.7l-3.57-8.45c2.35,5.61,4.18,11.46,5.01,17.5l-1.26-9.41c.66,5.04.65,10.14,0,15.18l1.26-9.41c-.68,5.01-1.97,9.9-3.93,14.56,1.19-2.82,2.38-5.63,3.57-8.45-1.54,3.59-3.47,6.98-5.83,10.09l5.53-7.16c-2.04,2.63-4.35,5-6.98,7.05,2.39-1.84,4.77-3.69,7.16-5.53-2.36,1.8-4.91,3.3-7.64,4.46l8.45-3.57c-1.05.43-2.12.82-3.21,1.16-4.6,1.09-8.62,3.21-12.03,6.33-3.85,2.49-6.89,5.8-9.11,9.93-2.59,4.06-3.99,8.45-4.2,13.16-1.05,4.7-.84,9.41.63,14.11l3.57,8.45c3.15,5.32,7.38,9.55,12.69,12.69l8.45,3.57c6.27,1.69,12.54,1.69,18.81,0,1.09-.34,2.15-.73,3.21-1.16,3.73-1.52,7.57-2.95,11.15-4.84,4.51-2.38,8.68-5.95,12.54-9.06,1.72-1.39,3.32-2.91,4.78-4.57,2.6-2.95,4.93-6.17,7.3-9.31.71-.94,1.4-1.91,2.04-2.9,1.23-1.91,2.31-3.91,3.26-5.97,2.18-4.77,4.39-9.69,5.96-14.73.69-2.23,1.24-4.5,1.66-6.8.95-5.29,1.72-10.64,2.06-16.01.15-2.34.16-4.69.03-7.03-.31-5.34-1.09-10.69-2.03-15.95-1.51-8.44-5.04-16.29-8.41-24.11-5.89-13.64-15.1-25.43-24.29-36.97-8.44-10.61-17.71-20.53-26.02-31.24,1.84,2.39,3.69,4.77,5.53,7.16-6.65-8.61-12.72-17.73-17.02-27.76l3.57,8.45c-2.56-6.08-4.43-12.42-5.32-18.97l1.26,9.41c-.76-5.84-.73-11.73.03-17.57-.42,3.14-.84,6.27-1.26,9.41.91-6.66,2.75-13.13,5.35-19.32l-3.57,8.45c3.08-7.25,7.15-14.03,11.95-20.28-1.84,2.39-3.69,4.77-5.53,7.16,5.65-7.3,12.25-13.82,19.54-19.48-2.39,1.84-4.77,3.69-7.16,5.53,7.78-5.99,16.27-10.83,25.31-14.65-2.82,1.19-5.63,2.38-8.45,3.57,14.48-6.07,29.82-9.66,45.34-11.77-3.14.42-6.27.84-9.41,1.26,20.8-2.78,41.81-3.01,62.76-3.15,4.87.18,9.42-.83,13.63-3.05,4.39-1.43,8.18-3.87,11.39-7.32,3.45-3.2,5.89-7,7.32-11.39,2.22-4.22,3.23-8.76,3.05-13.63-.42-3.14-.84-6.27-1.26-9.41-1.68-5.99-4.71-11.2-9.1-15.61-2.39-1.84-4.77-3.69-7.16-5.53-5.52-3.2-11.47-4.81-17.86-4.83h0Z"/>
</svg>