<?xml version="1.0" encoding="UTF-8"?>
<svg id="Ebene_1" data-name="Ebene 1" xmlns="http://www.w3.org/2000/svg" viewBox="0 0 2000 2000">
  <defs>
    <style>
      .cls-1 {
        fill: #df3d3d;
        stroke: #172d4d;
        stroke-miterlimit: 10;
        stroke-width: 35px;
      }

      .cls-1, .cls-2 {
        fill-rule: evenodd;
      }

      .cls-2 {
        fill: #e6e6e6;
      }

      .cls-3 {
        fill: none;
      }
    </style>
  </defs>
  <rect id="close-icon" class="cls-3" width="2000" height="2000"/>
  <g id="close-icon1">
    <path class="cls-2" d="m2000.01,80C2000.01,35.85,1964.17,0,1920.01,0H80.01C35.85,0,0,35.85,0,80v1840c0,44.15,35.85,80,80,80h1840c44.16,0,80-35.85,80-80V80Z"/>
    <path class="cls-1" d="m1000,721.68L418.52,140.21c-38.4-38.4-100.76-38.4-139.16,0l-139.16,139.16c-38.4,38.4-38.4,100.76,0,139.16l581.48,581.48L140.21,1581.48c-38.4,38.4-38.4,100.75,0,139.16l139.16,139.15c38.4,38.41,100.76,38.41,139.16,0l581.48-581.47,581.48,581.47c38.4,38.41,100.75,38.41,139.16,0l139.15-139.15c38.41-38.41,38.41-100.76,0-139.16l-581.47-581.48,581.47-581.48c38.41-38.4,38.41-100.76,0-139.16l-139.15-139.16c-38.41-38.4-100.76-38.4-139.16,0l-581.48,581.48Z"/>
  </g>
</svg>