<svg viewBox="0 0 2000 2000" xmlns="http://www.w3.org/2000/svg" xml:space="preserve" style="fill-rule:evenodd;clip-rule:evenodd;stroke-linejoin:round;stroke-miterlimit:2">
    <path style="fill:none" d="M0 0h2000v2000H0z"/>
    <path d="M1399 457.84c0-25.3-15.18-45.84-33.88-45.84H585.88c-18.699 0-33.88 20.54-33.88 45.84v1054.32c0 25.3 15.181 45.84 33.88 45.84h779.24c18.7 0 33.88-20.54 33.88-45.84V457.84Z" style="fill:#e6e6e6" transform="matrix(2.36128 0 0 1.7452 -1303.42 -719.023)"/>
    <path d="M1000 721.684 418.522 140.206c-38.401-38.402-100.756-38.402-139.158 0L140.206 279.364c-38.402 38.402-38.402 100.757 0 139.158L721.684 1000l-581.478 581.48c-38.402 38.4-38.402 100.75 0 139.16l139.158 139.15c38.402 38.41 100.757 38.41 139.158 0L1000 1278.32l581.48 581.47c38.4 38.41 100.75 38.41 139.16 0l139.15-139.15c38.41-38.41 38.41-100.76 0-139.16L1278.32 1000l581.47-581.478c38.41-38.401 38.41-100.756 0-139.158l-139.15-139.158c-38.41-38.402-100.76-38.402-139.16 0L1000 721.684Z" style="fill:#172d4d"/>
</svg>
