<svg viewBox="0 0 2001 2000" xmlns="http://www.w3.org/2000/svg" xml:space="preserve" style="fill-rule:evenodd;clip-rule:evenodd;stroke-linejoin:round;stroke-miterlimit:2">
    <path style="fill:none" d="M0 0h2000v2000H0z" transform="translate(.45)"/>
    <path d="M1000 721.684 418.522 140.206c-38.401-38.402-100.756-38.402-139.158 0L140.206 279.364c-38.402 38.402-38.402 100.757 0 139.158L721.684 1000l-581.478 581.48c-38.402 38.4-38.402 100.75 0 139.16l139.158 139.15c38.402 38.41 100.757 38.41 139.158 0L1000 1278.32l581.48 581.47c38.4 38.41 100.75 38.41 139.16 0l139.15-139.15c38.41-38.41 38.41-100.76 0-139.16L1278.32 1000l581.47-581.478c38.41-38.401 38.41-100.756 0-139.158l-139.15-139.158c-38.41-38.402-100.76-38.402-139.16 0L1000 721.684Z" style="fill:#172d4d" transform="translate(.45)"/>
</svg>
